M48
;DRILL file {KiCad (5.0.2-5)-5} date Sunday, March 10, 2019 at 08:48:25 PM
;FORMAT={2:4/ absolute / inch / suppress leading zeros}
FMAT,2
INCH,TZ
T1C0.0079
T2C0.0150
T3C0.0315
T4C0.0354
T5C0.0866
T6C0.2874
T7C0.0276
T8C0.0787
%
G90
G05
T1
X47906Y-26875
X48295Y-26485
X48295Y-27265
X48685Y-26096
X48685Y-26875
X48685Y-27654
X49075Y-25706
X49075Y-26485
X49075Y-27265
X49075Y-28044
X49465Y-26096
X49465Y-26875
X49465Y-27654
X49854Y-26485
X49854Y-27265
X50244Y-26875
T2
X39850Y-34500
X40136Y-30507
X40213Y-16900
X40450Y-30900
X40530Y-34543
X41002Y-33578
X41063Y-19925
X41120Y-34543
X41197Y-33046
X41343Y-33692
X41575Y-32700
X41671Y-30231
X41711Y-34543
X41988Y-25375
X42026Y-30094
X42038Y-28075
X42050Y-20300
X42175Y-32266
X42200Y-33325
X42301Y-34543
X42315Y-32778
X42892Y-34543
X43400Y-31800
X43482Y-34543
X43700Y-31100
X43900Y-25275
X43931Y-26494
X44073Y-34543
X44313Y-22675
X44413Y-22175
X44650Y-29550
X44663Y-34543
X44850Y-25150
X44865Y-32269
X44932Y-26425
X44939Y-33617
X45031Y-32790
X45050Y-26950
X45213Y-21725
X45254Y-34543
X45353Y-33307
X45375Y-24825
X45425Y-32220
X45813Y-27925
X45844Y-34543
X45850Y-30050
X45875Y-31075
X45997Y-22919
X46001Y-29472
X46141Y-31342
X46162Y-26751
X46175Y-27125
X46230Y-24959
X46435Y-34543
X46550Y-25125
X46625Y-27475
X46664Y-30464
X46721Y-24808
X46738Y-21275
X46974Y-30199
X47026Y-34543
X47059Y-24684
X47213Y-21475
X47214Y-30836
X47325Y-26825
X47325Y-31870
X47494Y-29744
X47616Y-34543
X47644Y-30151
X47900Y-29875
X48050Y-17800
X48207Y-34543
X48340Y-23463
X48640Y-30812
X48752Y-23775
X48797Y-34543
X49092Y-24312
X49225Y-29550
X49388Y-34543
X49500Y-24025
X49538Y-20550
X49600Y-20950
X49625Y-29600
X49888Y-21225
X49978Y-34543
X50018Y-22381
X50225Y-22675
X50313Y-19850
X50333Y-30271
X50500Y-29000
X50525Y-22425
X50569Y-34543
X50613Y-23400
X50763Y-20300
X50772Y-30057
X50850Y-21425
X50950Y-29125
X50975Y-25400
X51038Y-20550
X51113Y-17750
X51159Y-34543
X51311Y-27761
X51413Y-20825
X51446Y-19708
X51450Y-29650
X51494Y-23125
X51750Y-34543
X51927Y-24208
X52144Y-31688
X52150Y-27275
X52341Y-34543
X52557Y-29070
X52931Y-18854
X52931Y-34543
X53000Y-26525
X53049Y-17318
X53296Y-20023
X53488Y-26500
X53522Y-34543
X54112Y-34543
X54300Y-24500
X54703Y-34543
X54942Y-18575
X54950Y-23200
X55215Y-15586
X55293Y-34543
X55550Y-24300
X55785Y-31885
X55884Y-34543
X56002Y-15546
X56278Y-18460
X56474Y-34543
X56600Y-20100
X56868Y-32968
X57065Y-34543
X57400Y-33755
X57852Y-34247
X57852Y-34641
X58285Y-34523
T3
X48689Y-17129
X51288Y-17129
T5
X49075Y-22559
T6
X49075Y-32421
T7
X49221Y-16775
X50756Y-16775
T8
X45813Y-16278
X45813Y-19034
X41613Y-16278
X41613Y-19034
T3
X48571Y-15929G85X48571Y-16125
G05
T4
X51406Y-15948G85X51406Y-16106
G05
T0
M30
