M48
;DRILL file {KiCad (5.0.1-3-g963ef8bb5)} date Monday, January 28, 2019 at 12:30:51 AM
;FORMAT={2:4/ absolute / inch / suppress leading zeros}
FMAT,2
INCH,TZ
T1C0.0150
T2C0.0472
T3C0.0866
T4C0.2874
T5C0.0669
%
G90
G05
M72
T1
X39850Y-34500
X39900Y-30350
X40213Y-16900
X40450Y-30900
X40530Y-34543
X41002Y-33578
X41063Y-19925
X41120Y-34543
X41250Y-33026
X41343Y-33692
X41671Y-30231
X41711Y-34543
X42026Y-30094
X42038Y-28075
X42070Y-32250
X42139Y-32757
X42278Y-20514
X42301Y-34543
X42892Y-34543
X43400Y-31800
X43482Y-34543
X43700Y-31100
X44073Y-34543
X44413Y-22175
X44650Y-29550
X44663Y-34543
X44879Y-30260
X44899Y-29881
X44930Y-32234
X44939Y-26511
X44939Y-33617
X44963Y-26875
X45020Y-32707
X45254Y-34543
X45300Y-29449
X45350Y-32500
X45353Y-33307
X45600Y-31011
X45739Y-30535
X45813Y-27925
X45837Y-29211
X45844Y-34543
X45846Y-30170
X45868Y-31332
X45885Y-29588
X45997Y-22919
X46053Y-27319
X46321Y-30476
X46435Y-34543
X46738Y-21275
X46945Y-30170
X47026Y-34543
X47213Y-21475
X47229Y-27053
X47234Y-30858
X47325Y-31870
X47342Y-24502
X47494Y-29707
X47600Y-27700
X47616Y-34543
X47963Y-25400
X47988Y-26250
X48050Y-17800
X48207Y-34543
X48250Y-29750
X48388Y-25900
X48409Y-26611
X48561Y-30015
X48563Y-23675
X48640Y-30812
X48699Y-28243
X48797Y-34543
X48876Y-28873
X48956Y-18215
X49093Y-27850
X49100Y-26050
X49301Y-29008
X49388Y-34543
X49538Y-20550
X49585Y-28342
X49600Y-20950
X49762Y-27421
X49888Y-21225
X49978Y-34543
X50063Y-22525
X50085Y-28383
X50195Y-22885
X50313Y-19850
X50333Y-30271
X50488Y-21825
X50499Y-22238
X50569Y-34543
X50613Y-23400
X50763Y-20300
X50772Y-30057
X50863Y-18075
X50913Y-19175
X51038Y-20550
X51113Y-17750
X51159Y-34543
X51413Y-20825
X51494Y-23125
X51750Y-34543
X51927Y-24208
X52144Y-31688
X52341Y-34543
X52557Y-29070
X52931Y-34543
X53300Y-19950
X53488Y-26500
X53522Y-34543
X54112Y-34543
X54300Y-24500
X54703Y-34543
X54950Y-23200
X55293Y-34543
X55550Y-24300
X55785Y-31885
X55884Y-34543
X56474Y-34543
X56600Y-20100
X56868Y-32968
X57065Y-34543
X57400Y-33755
X57852Y-34247
X57852Y-34641
X58285Y-34523
T2
X48464Y-15575
X51063Y-15575
T3
X49075Y-22559
T4
X49075Y-32421
T5
X45788Y-16472
X45788Y-19228
X41663Y-16472
X41663Y-19228
T0
M30
