G04 #@! TF.GenerationSoftware,KiCad,Pcbnew,(5.0.0-3-g5ebb6b6)*
G04 #@! TF.CreationDate,2018-08-11T09:42:43-07:00*
G04 #@! TF.ProjectId,pygameboy,707967616D65626F792E6B696361645F,rev?*
G04 #@! TF.SameCoordinates,Original*
G04 #@! TF.FileFunction,Copper,L1,Top,Signal*
G04 #@! TF.FilePolarity,Positive*
%FSLAX46Y46*%
G04 Gerber Fmt 4.6, Leading zero omitted, Abs format (unit mm)*
G04 Created by KiCad (PCBNEW (5.0.0-3-g5ebb6b6)) date Saturday, August 11, 2018 at 09:42:43 AM*
%MOMM*%
%LPD*%
G01*
G04 APERTURE LIST*
G04 #@! TA.AperFunction,SMDPad,CuDef*
%ADD10R,1.400000X6.000000*%
G04 #@! TD*
G04 #@! TA.AperFunction,SMDPad,CuDef*
%ADD11R,1.000000X6.000000*%
G04 #@! TD*
G04 #@! TA.AperFunction,SMDPad,CuDef*
%ADD12R,1.000000X1.000000*%
G04 #@! TD*
G04 #@! TA.AperFunction,SMDPad,CuDef*
%ADD13R,1.780000X3.430000*%
G04 #@! TD*
G04 #@! TA.AperFunction,SMDPad,CuDef*
%ADD14C,1.780000*%
G04 #@! TD*
G04 #@! TA.AperFunction,Conductor*
%ADD15C,0.100000*%
G04 #@! TD*
G04 #@! TA.AperFunction,SMDPad,CuDef*
%ADD16R,3.430000X1.780000*%
G04 #@! TD*
G04 #@! TA.AperFunction,SMDPad,CuDef*
%ADD17C,0.750000*%
G04 #@! TD*
G04 #@! TA.AperFunction,SMDPad,CuDef*
%ADD18R,1.200000X0.900000*%
G04 #@! TD*
G04 #@! TA.AperFunction,SMDPad,CuDef*
%ADD19R,0.900000X1.200000*%
G04 #@! TD*
G04 #@! TA.AperFunction,SMDPad,CuDef*
%ADD20R,2.000000X1.400000*%
G04 #@! TD*
G04 #@! TA.AperFunction,SMDPad,CuDef*
%ADD21R,0.400000X1.350000*%
G04 #@! TD*
G04 #@! TA.AperFunction,SMDPad,CuDef*
%ADD22R,1.900000X1.900000*%
G04 #@! TD*
G04 #@! TA.AperFunction,ComponentPad*
%ADD23O,2.600000X1.600000*%
G04 #@! TD*
G04 #@! TA.AperFunction,SMDPad,CuDef*
%ADD24R,0.750000X1.200000*%
G04 #@! TD*
G04 #@! TA.AperFunction,SMDPad,CuDef*
%ADD25R,1.200000X0.750000*%
G04 #@! TD*
G04 #@! TA.AperFunction,SMDPad,CuDef*
%ADD26R,0.740000X2.400000*%
G04 #@! TD*
G04 #@! TA.AperFunction,SMDPad,CuDef*
%ADD27C,0.900000*%
G04 #@! TD*
G04 #@! TA.AperFunction,SMDPad,CuDef*
%ADD28R,0.800000X0.900000*%
G04 #@! TD*
G04 #@! TA.AperFunction,SMDPad,CuDef*
%ADD29R,1.060000X0.650000*%
G04 #@! TD*
G04 #@! TA.AperFunction,ComponentPad*
%ADD30C,7.400000*%
G04 #@! TD*
G04 #@! TA.AperFunction,ComponentPad*
%ADD31C,2.300000*%
G04 #@! TD*
G04 #@! TA.AperFunction,SMDPad,CuDef*
%ADD32C,0.250000*%
G04 #@! TD*
G04 #@! TA.AperFunction,SMDPad,CuDef*
%ADD33R,1.450000X0.450000*%
G04 #@! TD*
G04 #@! TA.AperFunction,SMDPad,CuDef*
%ADD34R,0.450000X1.450000*%
G04 #@! TD*
G04 #@! TA.AperFunction,SMDPad,CuDef*
%ADD35R,1.100000X0.400000*%
G04 #@! TD*
G04 #@! TA.AperFunction,ViaPad*
%ADD36C,0.762000*%
G04 #@! TD*
G04 #@! TA.AperFunction,Conductor*
%ADD37C,0.203200*%
G04 #@! TD*
G04 #@! TA.AperFunction,Conductor*
%ADD38C,0.254000*%
G04 #@! TD*
G04 APERTURE END LIST*
D10*
G04 #@! TO.P,U1,1*
G04 #@! TO.N,+BATT*
X101245000Y-94448000D03*
D11*
G04 #@! TO.P,U1,2*
G04 #@! TO.N,/CLK*
X102945000Y-94488000D03*
G04 #@! TO.P,U1,3*
G04 #@! TO.N,/WR*
X104445000Y-94488000D03*
G04 #@! TO.P,U1,4*
G04 #@! TO.N,/RD*
X105945000Y-94488000D03*
G04 #@! TO.P,U1,5*
G04 #@! TO.N,/CS*
X107445000Y-94488000D03*
G04 #@! TO.P,U1,6*
G04 #@! TO.N,/A0*
X108945000Y-94488000D03*
G04 #@! TO.P,U1,7*
G04 #@! TO.N,/A1*
X110445000Y-94488000D03*
G04 #@! TO.P,U1,8*
G04 #@! TO.N,/A2*
X111945000Y-94488000D03*
G04 #@! TO.P,U1,9*
G04 #@! TO.N,/A3*
X113445000Y-94488000D03*
G04 #@! TO.P,U1,10*
G04 #@! TO.N,/A4*
X114945000Y-94488000D03*
G04 #@! TO.P,U1,11*
G04 #@! TO.N,/A5*
X116445000Y-94488000D03*
G04 #@! TO.P,U1,12*
G04 #@! TO.N,/A6*
X117945000Y-94488000D03*
G04 #@! TO.P,U1,13*
G04 #@! TO.N,/A7*
X119445000Y-94488000D03*
G04 #@! TO.P,U1,14*
G04 #@! TO.N,/A8*
X120945000Y-94488000D03*
G04 #@! TO.P,U1,15*
G04 #@! TO.N,/A9*
X122445000Y-94488000D03*
G04 #@! TO.P,U1,16*
G04 #@! TO.N,/A10*
X123945000Y-94488000D03*
G04 #@! TO.P,U1,17*
G04 #@! TO.N,/A11*
X125445000Y-94488000D03*
G04 #@! TO.P,U1,18*
G04 #@! TO.N,/A12*
X126945000Y-94488000D03*
G04 #@! TO.P,U1,19*
G04 #@! TO.N,/A13*
X128445000Y-94488000D03*
G04 #@! TO.P,U1,20*
G04 #@! TO.N,/A14*
X129945000Y-94488000D03*
G04 #@! TO.P,U1,21*
G04 #@! TO.N,/A15*
X131445000Y-94488000D03*
G04 #@! TO.P,U1,22*
G04 #@! TO.N,/D0*
X132945000Y-94488000D03*
G04 #@! TO.P,U1,23*
G04 #@! TO.N,/D1*
X134445000Y-94488000D03*
G04 #@! TO.P,U1,24*
G04 #@! TO.N,/D2*
X135945000Y-94488000D03*
G04 #@! TO.P,U1,25*
G04 #@! TO.N,/D3*
X137445000Y-94488000D03*
G04 #@! TO.P,U1,26*
G04 #@! TO.N,/D4*
X138945000Y-94488000D03*
G04 #@! TO.P,U1,27*
G04 #@! TO.N,/D5*
X140445000Y-94488000D03*
G04 #@! TO.P,U1,28*
G04 #@! TO.N,/D6*
X141945000Y-94488000D03*
G04 #@! TO.P,U1,29*
G04 #@! TO.N,/D7*
X143445000Y-94488000D03*
G04 #@! TO.P,U1,30*
G04 #@! TO.N,/RESET*
X144945000Y-94488000D03*
G04 #@! TO.P,U1,31*
G04 #@! TO.N,Net-(TP31-Pad1)*
X146445000Y-94488000D03*
D10*
G04 #@! TO.P,U1,32*
G04 #@! TO.N,GND*
X148145000Y-94488000D03*
G04 #@! TD*
D12*
G04 #@! TO.P,TP7,1*
G04 #@! TO.N,/A1*
X110445000Y-87738000D03*
G04 #@! TD*
G04 #@! TO.P,TP14,1*
G04 #@! TO.N,/A8*
X120945000Y-87738000D03*
G04 #@! TD*
G04 #@! TO.P,TP8,1*
G04 #@! TO.N,/A2*
X111945000Y-87738000D03*
G04 #@! TD*
G04 #@! TO.P,TP6,1*
G04 #@! TO.N,/A0*
X108945000Y-87738000D03*
G04 #@! TD*
G04 #@! TO.P,TP5,1*
G04 #@! TO.N,/CS*
X107445000Y-87738000D03*
G04 #@! TD*
G04 #@! TO.P,TP4,1*
G04 #@! TO.N,/RD*
X105945000Y-87738000D03*
G04 #@! TD*
G04 #@! TO.P,TP3,1*
G04 #@! TO.N,/WR*
X104445000Y-87738000D03*
G04 #@! TD*
G04 #@! TO.P,TP2,1*
G04 #@! TO.N,/CLK*
X102945000Y-87738000D03*
G04 #@! TD*
G04 #@! TO.P,TP1,1*
G04 #@! TO.N,+BATT*
X101219000Y-87738000D03*
G04 #@! TD*
G04 #@! TO.P,TP15,1*
G04 #@! TO.N,/A9*
X122445000Y-87738000D03*
G04 #@! TD*
G04 #@! TO.P,TP16,1*
G04 #@! TO.N,/A10*
X123945000Y-87738000D03*
G04 #@! TD*
G04 #@! TO.P,TP17,1*
G04 #@! TO.N,/A11*
X125445000Y-87738000D03*
G04 #@! TD*
G04 #@! TO.P,TP18,1*
G04 #@! TO.N,/A12*
X126945000Y-87738000D03*
G04 #@! TD*
G04 #@! TO.P,TP19,1*
G04 #@! TO.N,/A13*
X128445000Y-87738000D03*
G04 #@! TD*
G04 #@! TO.P,TP10,1*
G04 #@! TO.N,/A4*
X114945000Y-87738000D03*
G04 #@! TD*
G04 #@! TO.P,TP20,1*
G04 #@! TO.N,/A14*
X129945000Y-87738000D03*
G04 #@! TD*
G04 #@! TO.P,TP11,1*
G04 #@! TO.N,/A5*
X116445000Y-87738000D03*
G04 #@! TD*
G04 #@! TO.P,TP12,1*
G04 #@! TO.N,/A6*
X117945000Y-87738000D03*
G04 #@! TD*
G04 #@! TO.P,TP21,1*
G04 #@! TO.N,/A15*
X131445000Y-87738000D03*
G04 #@! TD*
G04 #@! TO.P,TP22,1*
G04 #@! TO.N,/D0*
X132945000Y-87738000D03*
G04 #@! TD*
G04 #@! TO.P,TP23,1*
G04 #@! TO.N,/D1*
X134445000Y-87738000D03*
G04 #@! TD*
G04 #@! TO.P,TP24,1*
G04 #@! TO.N,/D2*
X135945000Y-87738000D03*
G04 #@! TD*
G04 #@! TO.P,TP25,1*
G04 #@! TO.N,/D3*
X137445000Y-87738000D03*
G04 #@! TD*
G04 #@! TO.P,TP26,1*
G04 #@! TO.N,/D4*
X138945000Y-87738000D03*
G04 #@! TD*
G04 #@! TO.P,TP27,1*
G04 #@! TO.N,/D5*
X140445000Y-87738000D03*
G04 #@! TD*
G04 #@! TO.P,TP28,1*
G04 #@! TO.N,/D6*
X141945000Y-87738000D03*
G04 #@! TD*
G04 #@! TO.P,TP29,1*
G04 #@! TO.N,/D7*
X143445000Y-87738000D03*
G04 #@! TD*
G04 #@! TO.P,TP30,1*
G04 #@! TO.N,/RESET*
X144945000Y-87738000D03*
G04 #@! TD*
G04 #@! TO.P,TP31,1*
G04 #@! TO.N,Net-(TP31-Pad1)*
X145795000Y-85738000D03*
G04 #@! TD*
G04 #@! TO.P,TP32,1*
G04 #@! TO.N,GND*
X148045000Y-87688000D03*
G04 #@! TD*
G04 #@! TO.P,TP13,1*
G04 #@! TO.N,/A7*
X119445000Y-87738000D03*
G04 #@! TD*
G04 #@! TO.P,TP9,1*
G04 #@! TO.N,/A3*
X113445000Y-87738000D03*
G04 #@! TD*
D13*
G04 #@! TO.P,TP33,1*
G04 #@! TO.N,/DIR*
X142195000Y-67988000D03*
G04 #@! TD*
D14*
G04 #@! TO.P,TP40,1*
G04 #@! TO.N,/3V_CLK*
X133695000Y-71738000D03*
D15*
G04 #@! TD*
G04 #@! TO.N,/3V_CLK*
G04 #@! TO.C,TP40*
G36*
X135537013Y-72321363D02*
X134278363Y-73580013D01*
X131852987Y-71154637D01*
X133111637Y-69895987D01*
X135537013Y-72321363D01*
X135537013Y-72321363D01*
G37*
D13*
G04 #@! TO.P,TP41,1*
G04 #@! TO.N,/3V_RD*
X105195000Y-74488000D03*
G04 #@! TD*
D14*
G04 #@! TO.P,TP42,1*
G04 #@! TO.N,/3V_WR*
X108195000Y-70488000D03*
D15*
G04 #@! TD*
G04 #@! TO.N,/3V_WR*
G04 #@! TO.C,TP42*
G36*
X107611637Y-72330013D02*
X106352987Y-71071363D01*
X108778363Y-68645987D01*
X110037013Y-69904637D01*
X107611637Y-72330013D01*
X107611637Y-72330013D01*
G37*
D16*
G04 #@! TO.P,TP43,1*
G04 #@! TO.N,/3V_A15*
X137945000Y-74988000D03*
G04 #@! TD*
G04 #@! TO.P,TP44,1*
G04 #@! TO.N,Net-(TP44-Pad1)*
X131945000Y-51738000D03*
G04 #@! TD*
G04 #@! TO.P,TP45,1*
G04 #@! TO.N,/3V_CS*
X110445000Y-66738000D03*
G04 #@! TD*
D13*
G04 #@! TO.P,TP35,1*
G04 #@! TO.N,/GB_RESET*
X139445000Y-65488000D03*
G04 #@! TD*
G04 #@! TO.P,TP34,1*
G04 #@! TO.N,/DATA_OE*
X139445000Y-69738000D03*
G04 #@! TD*
D16*
G04 #@! TO.P,TP38,1*
G04 #@! TO.N,+3V3*
X110445000Y-62238000D03*
G04 #@! TD*
D13*
G04 #@! TO.P,TP39,1*
G04 #@! TO.N,+5V*
X102945000Y-55738000D03*
G04 #@! TD*
D16*
G04 #@! TO.P,TP37,1*
G04 #@! TO.N,GND*
X145945000Y-47738000D03*
G04 #@! TD*
D14*
G04 #@! TO.P,TP36,1*
G04 #@! TO.N,/SAMD_RESET*
X113095000Y-53188000D03*
D15*
G04 #@! TD*
G04 #@! TO.N,/SAMD_RESET*
G04 #@! TO.C,TP36*
G36*
X114937013Y-53771363D02*
X113678363Y-55030013D01*
X111252987Y-52604637D01*
X112511637Y-51345987D01*
X114937013Y-53771363D01*
X114937013Y-53771363D01*
G37*
D17*
G04 #@! TO.P,C14,1*
G04 #@! TO.N,GND*
X119073249Y-58016249D03*
D15*
G04 #@! TD*
G04 #@! TO.N,GND*
G04 #@! TO.C,C14*
G36*
X118383820Y-57857150D02*
X118914150Y-57326820D01*
X119762678Y-58175348D01*
X119232348Y-58705678D01*
X118383820Y-57857150D01*
X118383820Y-57857150D01*
G37*
D17*
G04 #@! TO.P,C14,2*
G04 #@! TO.N,Net-(C14-Pad2)*
X120416751Y-59359751D03*
D15*
G04 #@! TD*
G04 #@! TO.N,Net-(C14-Pad2)*
G04 #@! TO.C,C14*
G36*
X119727322Y-59200652D02*
X120257652Y-58670322D01*
X121106180Y-59518850D01*
X120575850Y-60049180D01*
X119727322Y-59200652D01*
X119727322Y-59200652D01*
G37*
D17*
G04 #@! TO.P,C15,2*
G04 #@! TO.N,Net-(C14-Pad2)*
X121516751Y-58309751D03*
D15*
G04 #@! TD*
G04 #@! TO.N,Net-(C14-Pad2)*
G04 #@! TO.C,C15*
G36*
X120827322Y-58150652D02*
X121357652Y-57620322D01*
X122206180Y-58468850D01*
X121675850Y-58999180D01*
X120827322Y-58150652D01*
X120827322Y-58150652D01*
G37*
D17*
G04 #@! TO.P,C15,1*
G04 #@! TO.N,GND*
X120173249Y-56966249D03*
D15*
G04 #@! TD*
G04 #@! TO.N,GND*
G04 #@! TO.C,C15*
G36*
X119483820Y-56807150D02*
X120014150Y-56276820D01*
X120862678Y-57125348D01*
X120332348Y-57655678D01*
X119483820Y-56807150D01*
X119483820Y-56807150D01*
G37*
D18*
G04 #@! TO.P,D3,2*
G04 #@! TO.N,+3V3*
X133266000Y-39878000D03*
G04 #@! TO.P,D3,1*
G04 #@! TO.N,Net-(D3-Pad1)*
X135466000Y-39878000D03*
G04 #@! TD*
G04 #@! TO.P,R4,1*
G04 #@! TO.N,Net-(D3-Pad1)*
X135466000Y-41656000D03*
G04 #@! TO.P,R4,2*
G04 #@! TO.N,/LED*
X133266000Y-41656000D03*
G04 #@! TD*
G04 #@! TO.P,R3,2*
G04 #@! TO.N,/DATA_OE*
X138768000Y-61214000D03*
G04 #@! TO.P,R3,1*
G04 #@! TO.N,+3V3*
X136568000Y-61214000D03*
G04 #@! TD*
G04 #@! TO.P,D2,1*
G04 #@! TO.N,+5V*
X101473000Y-72391000D03*
G04 #@! TO.P,D2,2*
G04 #@! TO.N,+BATT*
X101473000Y-75691000D03*
G04 #@! TD*
D19*
G04 #@! TO.P,D1,2*
G04 #@! TO.N,VBUS*
X126618000Y-47244000D03*
G04 #@! TO.P,D1,1*
G04 #@! TO.N,+5V*
X123318000Y-47244000D03*
G04 #@! TD*
D20*
G04 #@! TO.P,J4,6*
G04 #@! TO.N,GND*
X128250000Y-42201000D03*
X121050000Y-42201000D03*
D21*
G04 #@! TO.P,J4,1*
G04 #@! TO.N,VBUS*
X125950000Y-42426000D03*
G04 #@! TO.P,J4,2*
G04 #@! TO.N,/USB_D-*
X125300000Y-42426000D03*
G04 #@! TO.P,J4,3*
G04 #@! TO.N,/USB_D+*
X124650000Y-42426000D03*
G04 #@! TO.P,J4,4*
G04 #@! TO.N,Net-(J4-Pad4)*
X124000000Y-42426000D03*
G04 #@! TO.P,J4,5*
G04 #@! TO.N,GND*
X123350000Y-42426000D03*
D22*
G04 #@! TO.P,J4,6*
X125850000Y-39751000D03*
X123450000Y-39751000D03*
D23*
X128450000Y-39751000D03*
X120850000Y-39751000D03*
G04 #@! TD*
D24*
G04 #@! TO.P,C13,2*
G04 #@! TO.N,+3V3*
X106807000Y-65598000D03*
G04 #@! TO.P,C13,1*
G04 #@! TO.N,GND*
X106807000Y-67498000D03*
G04 #@! TD*
D17*
G04 #@! TO.P,C12,1*
G04 #@! TO.N,+3V3*
X120740249Y-79792751D03*
D15*
G04 #@! TD*
G04 #@! TO.N,+3V3*
G04 #@! TO.C,C12*
G36*
X120581150Y-80482180D02*
X120050820Y-79951850D01*
X120899348Y-79103322D01*
X121429678Y-79633652D01*
X120581150Y-80482180D01*
X120581150Y-80482180D01*
G37*
D17*
G04 #@! TO.P,C12,2*
G04 #@! TO.N,GND*
X122083751Y-78449249D03*
D15*
G04 #@! TD*
G04 #@! TO.N,GND*
G04 #@! TO.C,C12*
G36*
X121924652Y-79138678D02*
X121394322Y-78608348D01*
X122242850Y-77759820D01*
X122773180Y-78290150D01*
X121924652Y-79138678D01*
X121924652Y-79138678D01*
G37*
D25*
G04 #@! TO.P,C11,2*
G04 #@! TO.N,GND*
X112837000Y-77724000D03*
G04 #@! TO.P,C11,1*
G04 #@! TO.N,+3V3*
X110937000Y-77724000D03*
G04 #@! TD*
G04 #@! TO.P,C10,1*
G04 #@! TO.N,GND*
X104455000Y-69977000D03*
G04 #@! TO.P,C10,2*
G04 #@! TO.N,+5V*
X102555000Y-69977000D03*
G04 #@! TD*
D24*
G04 #@! TO.P,C9,2*
G04 #@! TO.N,GND*
X129445000Y-81087000D03*
G04 #@! TO.P,C9,1*
G04 #@! TO.N,+3V3*
X129445000Y-79187000D03*
G04 #@! TD*
D25*
G04 #@! TO.P,C8,1*
G04 #@! TO.N,+3V3*
X136591000Y-59563000D03*
G04 #@! TO.P,C8,2*
G04 #@! TO.N,GND*
X138491000Y-59563000D03*
G04 #@! TD*
G04 #@! TO.P,C7,2*
G04 #@! TO.N,GND*
X140655000Y-59563000D03*
G04 #@! TO.P,C7,1*
G04 #@! TO.N,+5V*
X142555000Y-59563000D03*
G04 #@! TD*
D17*
G04 #@! TO.P,C6,1*
G04 #@! TO.N,GND*
X127798751Y-58129249D03*
D15*
G04 #@! TD*
G04 #@! TO.N,GND*
G04 #@! TO.C,C6*
G36*
X127957850Y-57439820D02*
X128488180Y-57970150D01*
X127639652Y-58818678D01*
X127109322Y-58288348D01*
X127957850Y-57439820D01*
X127957850Y-57439820D01*
G37*
D17*
G04 #@! TO.P,C6,2*
G04 #@! TO.N,+3V3*
X126455249Y-59472751D03*
D15*
G04 #@! TD*
G04 #@! TO.N,+3V3*
G04 #@! TO.C,C6*
G36*
X126614348Y-58783322D02*
X127144678Y-59313652D01*
X126296150Y-60162180D01*
X125765820Y-59631850D01*
X126614348Y-58783322D01*
X126614348Y-58783322D01*
G37*
D17*
G04 #@! TO.P,C5,2*
G04 #@! TO.N,+3V3*
X132932249Y-65241249D03*
D15*
G04 #@! TD*
G04 #@! TO.N,+3V3*
G04 #@! TO.C,C5*
G36*
X133621678Y-65400348D02*
X133091348Y-65930678D01*
X132242820Y-65082150D01*
X132773150Y-64551820D01*
X133621678Y-65400348D01*
X133621678Y-65400348D01*
G37*
D17*
G04 #@! TO.P,C5,1*
G04 #@! TO.N,GND*
X134275751Y-66584751D03*
D15*
G04 #@! TD*
G04 #@! TO.N,GND*
G04 #@! TO.C,C5*
G36*
X134965180Y-66743850D02*
X134434850Y-67274180D01*
X133586322Y-66425652D01*
X134116652Y-65895322D01*
X134965180Y-66743850D01*
X134965180Y-66743850D01*
G37*
D17*
G04 #@! TO.P,C4,1*
G04 #@! TO.N,GND*
X127217249Y-76236751D03*
D15*
G04 #@! TD*
G04 #@! TO.N,GND*
G04 #@! TO.C,C4*
G36*
X127058150Y-76926180D02*
X126527820Y-76395850D01*
X127376348Y-75547322D01*
X127906678Y-76077652D01*
X127058150Y-76926180D01*
X127058150Y-76926180D01*
G37*
D17*
G04 #@! TO.P,C4,2*
G04 #@! TO.N,+3V3*
X128560751Y-74893249D03*
D15*
G04 #@! TD*
G04 #@! TO.N,+3V3*
G04 #@! TO.C,C4*
G36*
X128401652Y-75582678D02*
X127871322Y-75052348D01*
X128719850Y-74203820D01*
X129250180Y-74734150D01*
X128401652Y-75582678D01*
X128401652Y-75582678D01*
G37*
D17*
G04 #@! TO.P,C3,2*
G04 #@! TO.N,+3V3*
X118908751Y-73369249D03*
D15*
G04 #@! TD*
G04 #@! TO.N,+3V3*
G04 #@! TO.C,C3*
G36*
X118749652Y-74058678D02*
X118219322Y-73528348D01*
X119067850Y-72679820D01*
X119598180Y-73210150D01*
X118749652Y-74058678D01*
X118749652Y-74058678D01*
G37*
D17*
G04 #@! TO.P,C3,1*
G04 #@! TO.N,GND*
X117565249Y-74712751D03*
D15*
G04 #@! TD*
G04 #@! TO.N,GND*
G04 #@! TO.C,C3*
G36*
X117406150Y-75402180D02*
X116875820Y-74871850D01*
X117724348Y-74023322D01*
X118254678Y-74553652D01*
X117406150Y-75402180D01*
X117406150Y-75402180D01*
G37*
D17*
G04 #@! TO.P,C2,1*
G04 #@! TO.N,Net-(C14-Pad2)*
X119289751Y-60488751D03*
D15*
G04 #@! TD*
G04 #@! TO.N,Net-(C14-Pad2)*
G04 #@! TO.C,C2*
G36*
X119979180Y-60647850D02*
X119448850Y-61178180D01*
X118600322Y-60329652D01*
X119130652Y-59799322D01*
X119979180Y-60647850D01*
X119979180Y-60647850D01*
G37*
D17*
G04 #@! TO.P,C2,2*
G04 #@! TO.N,GND*
X117946249Y-59145249D03*
D15*
G04 #@! TD*
G04 #@! TO.N,GND*
G04 #@! TO.C,C2*
G36*
X118635678Y-59304348D02*
X118105348Y-59834678D01*
X117256820Y-58986150D01*
X117787150Y-58455820D01*
X118635678Y-59304348D01*
X118635678Y-59304348D01*
G37*
D17*
G04 #@! TO.P,C1,2*
G04 #@! TO.N,+3V3*
X118273751Y-61631751D03*
D15*
G04 #@! TD*
G04 #@! TO.N,+3V3*
G04 #@! TO.C,C1*
G36*
X117584322Y-61472652D02*
X118114652Y-60942322D01*
X118963180Y-61790850D01*
X118432850Y-62321180D01*
X117584322Y-61472652D01*
X117584322Y-61472652D01*
G37*
D17*
G04 #@! TO.P,C1,1*
G04 #@! TO.N,GND*
X116930249Y-60288249D03*
D15*
G04 #@! TD*
G04 #@! TO.N,GND*
G04 #@! TO.C,C1*
G36*
X116240820Y-60129150D02*
X116771150Y-59598820D01*
X117619678Y-60447348D01*
X117089348Y-60977678D01*
X116240820Y-60129150D01*
X116240820Y-60129150D01*
G37*
D26*
G04 #@! TO.P,J3,10*
G04 #@! TO.N,/SAMD_RESET*
X110236000Y-41484000D03*
G04 #@! TO.P,J3,9*
G04 #@! TO.N,Net-(J3-Pad9)*
X110236000Y-45384000D03*
G04 #@! TO.P,J3,8*
G04 #@! TO.N,Net-(J3-Pad8)*
X108966000Y-41484000D03*
G04 #@! TO.P,J3,7*
G04 #@! TO.N,Net-(J3-Pad7)*
X108966000Y-45384000D03*
G04 #@! TO.P,J3,6*
G04 #@! TO.N,/SWO*
X107696000Y-41484000D03*
G04 #@! TO.P,J3,5*
G04 #@! TO.N,GND*
X107696000Y-45384000D03*
G04 #@! TO.P,J3,4*
G04 #@! TO.N,/SWCLK*
X106426000Y-41484000D03*
G04 #@! TO.P,J3,3*
G04 #@! TO.N,GND*
X106426000Y-45384000D03*
G04 #@! TO.P,J3,2*
G04 #@! TO.N,/SWDIO*
X105156000Y-41484000D03*
G04 #@! TO.P,J3,1*
G04 #@! TO.N,+3V3*
X105156000Y-45384000D03*
G04 #@! TD*
D19*
G04 #@! TO.P,R2,1*
G04 #@! TO.N,+3V3*
X137287000Y-64432000D03*
G04 #@! TO.P,R2,2*
G04 #@! TO.N,/GB_RESET*
X137287000Y-66632000D03*
G04 #@! TD*
D27*
G04 #@! TO.P,R1,2*
G04 #@! TO.N,/SAMD_RESET*
X118522817Y-49765817D03*
D15*
G04 #@! TD*
G04 #@! TO.N,/SAMD_RESET*
G04 #@! TO.C,R1*
G36*
X117780355Y-49659751D02*
X118416751Y-49023355D01*
X119265279Y-49871883D01*
X118628883Y-50508279D01*
X117780355Y-49659751D01*
X117780355Y-49659751D01*
G37*
D27*
G04 #@! TO.P,R1,1*
G04 #@! TO.N,+3V3*
X116967183Y-48210183D03*
D15*
G04 #@! TD*
G04 #@! TO.N,+3V3*
G04 #@! TO.C,R1*
G36*
X116224721Y-48104117D02*
X116861117Y-47467721D01*
X117709645Y-48316249D01*
X117073249Y-48952645D01*
X116224721Y-48104117D01*
X116224721Y-48104117D01*
G37*
D28*
G04 #@! TO.P,Q1,3*
G04 #@! TO.N,/RESET*
X136271000Y-70723000D03*
G04 #@! TO.P,Q1,2*
G04 #@! TO.N,GND*
X135321000Y-68723000D03*
G04 #@! TO.P,Q1,1*
G04 #@! TO.N,/GB_RESET*
X137221000Y-68723000D03*
G04 #@! TD*
D29*
G04 #@! TO.P,U7,5*
G04 #@! TO.N,+3V3*
X104605000Y-65598000D03*
G04 #@! TO.P,U7,4*
G04 #@! TO.N,Net-(U7-Pad4)*
X104605000Y-67498000D03*
G04 #@! TO.P,U7,3*
G04 #@! TO.N,+5V*
X102405000Y-67498000D03*
G04 #@! TO.P,U7,2*
G04 #@! TO.N,GND*
X102405000Y-66548000D03*
G04 #@! TO.P,U7,1*
G04 #@! TO.N,+5V*
X102405000Y-65598000D03*
G04 #@! TD*
D30*
G04 #@! TO.P,J2,1*
G04 #@! TO.N,Net-(J2-Pad1)*
X124650000Y-82350000D03*
G04 #@! TD*
D31*
G04 #@! TO.P,J1,1*
G04 #@! TO.N,Net-(J1-Pad1)*
X124650000Y-57300000D03*
G04 #@! TD*
D32*
G04 #@! TO.P,U2,64*
G04 #@! TO.N,/3V_A3*
X118031841Y-66693142D03*
D15*
G04 #@! TD*
G04 #@! TO.N,/3V_A3*
G04 #@! TO.C,U2*
G36*
X118473783Y-66958307D02*
X118297006Y-67135084D01*
X117589899Y-66427977D01*
X117766676Y-66251200D01*
X118473783Y-66958307D01*
X118473783Y-66958307D01*
G37*
D32*
G04 #@! TO.P,U2,63*
G04 #@! TO.N,/3V_A2*
X118385394Y-66339588D03*
D15*
G04 #@! TD*
G04 #@! TO.N,/3V_A2*
G04 #@! TO.C,U2*
G36*
X118827336Y-66604753D02*
X118650559Y-66781530D01*
X117943452Y-66074423D01*
X118120229Y-65897646D01*
X118827336Y-66604753D01*
X118827336Y-66604753D01*
G37*
D32*
G04 #@! TO.P,U2,62*
G04 #@! TO.N,/3V_A1*
X118738948Y-65986035D03*
D15*
G04 #@! TD*
G04 #@! TO.N,/3V_A1*
G04 #@! TO.C,U2*
G36*
X119180890Y-66251200D02*
X119004113Y-66427977D01*
X118297006Y-65720870D01*
X118473783Y-65544093D01*
X119180890Y-66251200D01*
X119180890Y-66251200D01*
G37*
D32*
G04 #@! TO.P,U2,61*
G04 #@! TO.N,/3V_A0*
X119092501Y-65632482D03*
D15*
G04 #@! TD*
G04 #@! TO.N,/3V_A0*
G04 #@! TO.C,U2*
G36*
X119534443Y-65897647D02*
X119357666Y-66074424D01*
X118650559Y-65367317D01*
X118827336Y-65190540D01*
X119534443Y-65897647D01*
X119534443Y-65897647D01*
G37*
D32*
G04 #@! TO.P,U2,60*
G04 #@! TO.N,Net-(U2-Pad60)*
X119446054Y-65278928D03*
D15*
G04 #@! TD*
G04 #@! TO.N,Net-(U2-Pad60)*
G04 #@! TO.C,U2*
G36*
X119887996Y-65544093D02*
X119711219Y-65720870D01*
X119004112Y-65013763D01*
X119180889Y-64836986D01*
X119887996Y-65544093D01*
X119887996Y-65544093D01*
G37*
D32*
G04 #@! TO.P,U2,59*
G04 #@! TO.N,/SWO*
X119799608Y-64925375D03*
D15*
G04 #@! TD*
G04 #@! TO.N,/SWO*
G04 #@! TO.C,U2*
G36*
X120241550Y-65190540D02*
X120064773Y-65367317D01*
X119357666Y-64660210D01*
X119534443Y-64483433D01*
X120241550Y-65190540D01*
X120241550Y-65190540D01*
G37*
D32*
G04 #@! TO.P,U2,58*
G04 #@! TO.N,/SWDIO*
X120153161Y-64571821D03*
D15*
G04 #@! TD*
G04 #@! TO.N,/SWDIO*
G04 #@! TO.C,U2*
G36*
X120595103Y-64836986D02*
X120418326Y-65013763D01*
X119711219Y-64306656D01*
X119887996Y-64129879D01*
X120595103Y-64836986D01*
X120595103Y-64836986D01*
G37*
D32*
G04 #@! TO.P,U2,57*
G04 #@! TO.N,/SWCLK*
X120506715Y-64218268D03*
D15*
G04 #@! TD*
G04 #@! TO.N,/SWCLK*
G04 #@! TO.C,U2*
G36*
X120948657Y-64483433D02*
X120771880Y-64660210D01*
X120064773Y-63953103D01*
X120241550Y-63776326D01*
X120948657Y-64483433D01*
X120948657Y-64483433D01*
G37*
D32*
G04 #@! TO.P,U2,56*
G04 #@! TO.N,+3V3*
X120860268Y-63864715D03*
D15*
G04 #@! TD*
G04 #@! TO.N,+3V3*
G04 #@! TO.C,U2*
G36*
X121302210Y-64129880D02*
X121125433Y-64306657D01*
X120418326Y-63599550D01*
X120595103Y-63422773D01*
X121302210Y-64129880D01*
X121302210Y-64129880D01*
G37*
D32*
G04 #@! TO.P,U2,55*
G04 #@! TO.N,Net-(U2-Pad55)*
X121213821Y-63511161D03*
D15*
G04 #@! TD*
G04 #@! TO.N,Net-(U2-Pad55)*
G04 #@! TO.C,U2*
G36*
X121655763Y-63776326D02*
X121478986Y-63953103D01*
X120771879Y-63245996D01*
X120948656Y-63069219D01*
X121655763Y-63776326D01*
X121655763Y-63776326D01*
G37*
D32*
G04 #@! TO.P,U2,54*
G04 #@! TO.N,GND*
X121567375Y-63157608D03*
D15*
G04 #@! TD*
G04 #@! TO.N,GND*
G04 #@! TO.C,U2*
G36*
X122009317Y-63422773D02*
X121832540Y-63599550D01*
X121125433Y-62892443D01*
X121302210Y-62715666D01*
X122009317Y-63422773D01*
X122009317Y-63422773D01*
G37*
D32*
G04 #@! TO.P,U2,53*
G04 #@! TO.N,Net-(C14-Pad2)*
X121920928Y-62804054D03*
D15*
G04 #@! TD*
G04 #@! TO.N,Net-(C14-Pad2)*
G04 #@! TO.C,U2*
G36*
X122362870Y-63069219D02*
X122186093Y-63245996D01*
X121478986Y-62538889D01*
X121655763Y-62362112D01*
X122362870Y-63069219D01*
X122362870Y-63069219D01*
G37*
D32*
G04 #@! TO.P,U2,52*
G04 #@! TO.N,/SAMD_RESET*
X122274482Y-62450501D03*
D15*
G04 #@! TD*
G04 #@! TO.N,/SAMD_RESET*
G04 #@! TO.C,U2*
G36*
X122716424Y-62715666D02*
X122539647Y-62892443D01*
X121832540Y-62185336D01*
X122009317Y-62008559D01*
X122716424Y-62715666D01*
X122716424Y-62715666D01*
G37*
D32*
G04 #@! TO.P,U2,51*
G04 #@! TO.N,Net-(U2-Pad51)*
X122628035Y-62096948D03*
D15*
G04 #@! TD*
G04 #@! TO.N,Net-(U2-Pad51)*
G04 #@! TO.C,U2*
G36*
X123069977Y-62362113D02*
X122893200Y-62538890D01*
X122186093Y-61831783D01*
X122362870Y-61655006D01*
X123069977Y-62362113D01*
X123069977Y-62362113D01*
G37*
D32*
G04 #@! TO.P,U2,50*
G04 #@! TO.N,/LED*
X122981588Y-61743394D03*
D15*
G04 #@! TD*
G04 #@! TO.N,/LED*
G04 #@! TO.C,U2*
G36*
X123423530Y-62008559D02*
X123246753Y-62185336D01*
X122539646Y-61478229D01*
X122716423Y-61301452D01*
X123423530Y-62008559D01*
X123423530Y-62008559D01*
G37*
D32*
G04 #@! TO.P,U2,49*
G04 #@! TO.N,/GB_RESET*
X123335142Y-61389841D03*
D15*
G04 #@! TD*
G04 #@! TO.N,/GB_RESET*
G04 #@! TO.C,U2*
G36*
X123777084Y-61655006D02*
X123600307Y-61831783D01*
X122893200Y-61124676D01*
X123069977Y-60947899D01*
X123777084Y-61655006D01*
X123777084Y-61655006D01*
G37*
D32*
G04 #@! TO.P,U2,48*
G04 #@! TO.N,+3V3*
X126092858Y-61389841D03*
D15*
G04 #@! TD*
G04 #@! TO.N,+3V3*
G04 #@! TO.C,U2*
G36*
X125827693Y-61831783D02*
X125650916Y-61655006D01*
X126358023Y-60947899D01*
X126534800Y-61124676D01*
X125827693Y-61831783D01*
X125827693Y-61831783D01*
G37*
D32*
G04 #@! TO.P,U2,47*
G04 #@! TO.N,GND*
X126446412Y-61743394D03*
D15*
G04 #@! TD*
G04 #@! TO.N,GND*
G04 #@! TO.C,U2*
G36*
X126181247Y-62185336D02*
X126004470Y-62008559D01*
X126711577Y-61301452D01*
X126888354Y-61478229D01*
X126181247Y-62185336D01*
X126181247Y-62185336D01*
G37*
D32*
G04 #@! TO.P,U2,46*
G04 #@! TO.N,/USB_D+*
X126799965Y-62096948D03*
D15*
G04 #@! TD*
G04 #@! TO.N,/USB_D+*
G04 #@! TO.C,U2*
G36*
X126534800Y-62538890D02*
X126358023Y-62362113D01*
X127065130Y-61655006D01*
X127241907Y-61831783D01*
X126534800Y-62538890D01*
X126534800Y-62538890D01*
G37*
D32*
G04 #@! TO.P,U2,45*
G04 #@! TO.N,/USB_D-*
X127153518Y-62450501D03*
D15*
G04 #@! TD*
G04 #@! TO.N,/USB_D-*
G04 #@! TO.C,U2*
G36*
X126888353Y-62892443D02*
X126711576Y-62715666D01*
X127418683Y-62008559D01*
X127595460Y-62185336D01*
X126888353Y-62892443D01*
X126888353Y-62892443D01*
G37*
D32*
G04 #@! TO.P,U2,44*
G04 #@! TO.N,/3V_D7*
X127507072Y-62804054D03*
D15*
G04 #@! TD*
G04 #@! TO.N,/3V_D7*
G04 #@! TO.C,U2*
G36*
X127241907Y-63245996D02*
X127065130Y-63069219D01*
X127772237Y-62362112D01*
X127949014Y-62538889D01*
X127241907Y-63245996D01*
X127241907Y-63245996D01*
G37*
D32*
G04 #@! TO.P,U2,43*
G04 #@! TO.N,/3V_D6*
X127860625Y-63157608D03*
D15*
G04 #@! TD*
G04 #@! TO.N,/3V_D6*
G04 #@! TO.C,U2*
G36*
X127595460Y-63599550D02*
X127418683Y-63422773D01*
X128125790Y-62715666D01*
X128302567Y-62892443D01*
X127595460Y-63599550D01*
X127595460Y-63599550D01*
G37*
D32*
G04 #@! TO.P,U2,42*
G04 #@! TO.N,/3V_D5*
X128214179Y-63511161D03*
D15*
G04 #@! TD*
G04 #@! TO.N,/3V_D5*
G04 #@! TO.C,U2*
G36*
X127949014Y-63953103D02*
X127772237Y-63776326D01*
X128479344Y-63069219D01*
X128656121Y-63245996D01*
X127949014Y-63953103D01*
X127949014Y-63953103D01*
G37*
D32*
G04 #@! TO.P,U2,41*
G04 #@! TO.N,/3V_D4*
X128567732Y-63864715D03*
D15*
G04 #@! TD*
G04 #@! TO.N,/3V_D4*
G04 #@! TO.C,U2*
G36*
X128302567Y-64306657D02*
X128125790Y-64129880D01*
X128832897Y-63422773D01*
X129009674Y-63599550D01*
X128302567Y-64306657D01*
X128302567Y-64306657D01*
G37*
D32*
G04 #@! TO.P,U2,40*
G04 #@! TO.N,Net-(TP44-Pad1)*
X128921285Y-64218268D03*
D15*
G04 #@! TD*
G04 #@! TO.N,Net-(TP44-Pad1)*
G04 #@! TO.C,U2*
G36*
X128656120Y-64660210D02*
X128479343Y-64483433D01*
X129186450Y-63776326D01*
X129363227Y-63953103D01*
X128656120Y-64660210D01*
X128656120Y-64660210D01*
G37*
D32*
G04 #@! TO.P,U2,39*
G04 #@! TO.N,/3V_CS*
X129274839Y-64571821D03*
D15*
G04 #@! TD*
G04 #@! TO.N,/3V_CS*
G04 #@! TO.C,U2*
G36*
X129009674Y-65013763D02*
X128832897Y-64836986D01*
X129540004Y-64129879D01*
X129716781Y-64306656D01*
X129009674Y-65013763D01*
X129009674Y-65013763D01*
G37*
D32*
G04 #@! TO.P,U2,38*
G04 #@! TO.N,/3V_D3*
X129628392Y-64925375D03*
D15*
G04 #@! TD*
G04 #@! TO.N,/3V_D3*
G04 #@! TO.C,U2*
G36*
X129363227Y-65367317D02*
X129186450Y-65190540D01*
X129893557Y-64483433D01*
X130070334Y-64660210D01*
X129363227Y-65367317D01*
X129363227Y-65367317D01*
G37*
D32*
G04 #@! TO.P,U2,37*
G04 #@! TO.N,/3V_D2*
X129981946Y-65278928D03*
D15*
G04 #@! TD*
G04 #@! TO.N,/3V_D2*
G04 #@! TO.C,U2*
G36*
X129716781Y-65720870D02*
X129540004Y-65544093D01*
X130247111Y-64836986D01*
X130423888Y-65013763D01*
X129716781Y-65720870D01*
X129716781Y-65720870D01*
G37*
D32*
G04 #@! TO.P,U2,36*
G04 #@! TO.N,/3V_D1*
X130335499Y-65632482D03*
D15*
G04 #@! TD*
G04 #@! TO.N,/3V_D1*
G04 #@! TO.C,U2*
G36*
X130070334Y-66074424D02*
X129893557Y-65897647D01*
X130600664Y-65190540D01*
X130777441Y-65367317D01*
X130070334Y-66074424D01*
X130070334Y-66074424D01*
G37*
D32*
G04 #@! TO.P,U2,35*
G04 #@! TO.N,/3V_D0*
X130689052Y-65986035D03*
D15*
G04 #@! TD*
G04 #@! TO.N,/3V_D0*
G04 #@! TO.C,U2*
G36*
X130423887Y-66427977D02*
X130247110Y-66251200D01*
X130954217Y-65544093D01*
X131130994Y-65720870D01*
X130423887Y-66427977D01*
X130423887Y-66427977D01*
G37*
D32*
G04 #@! TO.P,U2,34*
G04 #@! TO.N,+3V3*
X131042606Y-66339588D03*
D15*
G04 #@! TD*
G04 #@! TO.N,+3V3*
G04 #@! TO.C,U2*
G36*
X130777441Y-66781530D02*
X130600664Y-66604753D01*
X131307771Y-65897646D01*
X131484548Y-66074423D01*
X130777441Y-66781530D01*
X130777441Y-66781530D01*
G37*
D32*
G04 #@! TO.P,U2,33*
G04 #@! TO.N,GND*
X131396159Y-66693142D03*
D15*
G04 #@! TD*
G04 #@! TO.N,GND*
G04 #@! TO.C,U2*
G36*
X131130994Y-67135084D02*
X130954217Y-66958307D01*
X131661324Y-66251200D01*
X131838101Y-66427977D01*
X131130994Y-67135084D01*
X131130994Y-67135084D01*
G37*
D32*
G04 #@! TO.P,U2,32*
G04 #@! TO.N,/3V_CLK*
X131396159Y-69450858D03*
D15*
G04 #@! TD*
G04 #@! TO.N,/3V_CLK*
G04 #@! TO.C,U2*
G36*
X131838101Y-69716023D02*
X131661324Y-69892800D01*
X130954217Y-69185693D01*
X131130994Y-69008916D01*
X131838101Y-69716023D01*
X131838101Y-69716023D01*
G37*
D32*
G04 #@! TO.P,U2,31*
G04 #@! TO.N,Net-(U2-Pad31)*
X131042606Y-69804412D03*
D15*
G04 #@! TD*
G04 #@! TO.N,Net-(U2-Pad31)*
G04 #@! TO.C,U2*
G36*
X131484548Y-70069577D02*
X131307771Y-70246354D01*
X130600664Y-69539247D01*
X130777441Y-69362470D01*
X131484548Y-70069577D01*
X131484548Y-70069577D01*
G37*
D32*
G04 #@! TO.P,U2,30*
G04 #@! TO.N,Net-(U2-Pad30)*
X130689052Y-70157965D03*
D15*
G04 #@! TD*
G04 #@! TO.N,Net-(U2-Pad30)*
G04 #@! TO.C,U2*
G36*
X131130994Y-70423130D02*
X130954217Y-70599907D01*
X130247110Y-69892800D01*
X130423887Y-69716023D01*
X131130994Y-70423130D01*
X131130994Y-70423130D01*
G37*
D32*
G04 #@! TO.P,U2,29*
G04 #@! TO.N,Net-(U2-Pad29)*
X130335499Y-70511518D03*
D15*
G04 #@! TD*
G04 #@! TO.N,Net-(U2-Pad29)*
G04 #@! TO.C,U2*
G36*
X130777441Y-70776683D02*
X130600664Y-70953460D01*
X129893557Y-70246353D01*
X130070334Y-70069576D01*
X130777441Y-70776683D01*
X130777441Y-70776683D01*
G37*
D32*
G04 #@! TO.P,U2,28*
G04 #@! TO.N,/3V_A15*
X129981946Y-70865072D03*
D15*
G04 #@! TD*
G04 #@! TO.N,/3V_A15*
G04 #@! TO.C,U2*
G36*
X130423888Y-71130237D02*
X130247111Y-71307014D01*
X129540004Y-70599907D01*
X129716781Y-70423130D01*
X130423888Y-71130237D01*
X130423888Y-71130237D01*
G37*
D32*
G04 #@! TO.P,U2,27*
G04 #@! TO.N,/3V_A14*
X129628392Y-71218625D03*
D15*
G04 #@! TD*
G04 #@! TO.N,/3V_A14*
G04 #@! TO.C,U2*
G36*
X130070334Y-71483790D02*
X129893557Y-71660567D01*
X129186450Y-70953460D01*
X129363227Y-70776683D01*
X130070334Y-71483790D01*
X130070334Y-71483790D01*
G37*
D32*
G04 #@! TO.P,U2,26*
G04 #@! TO.N,/3V_A13*
X129274839Y-71572179D03*
D15*
G04 #@! TD*
G04 #@! TO.N,/3V_A13*
G04 #@! TO.C,U2*
G36*
X129716781Y-71837344D02*
X129540004Y-72014121D01*
X128832897Y-71307014D01*
X129009674Y-71130237D01*
X129716781Y-71837344D01*
X129716781Y-71837344D01*
G37*
D32*
G04 #@! TO.P,U2,25*
G04 #@! TO.N,/3V_A12*
X128921285Y-71925732D03*
D15*
G04 #@! TD*
G04 #@! TO.N,/3V_A12*
G04 #@! TO.C,U2*
G36*
X129363227Y-72190897D02*
X129186450Y-72367674D01*
X128479343Y-71660567D01*
X128656120Y-71483790D01*
X129363227Y-72190897D01*
X129363227Y-72190897D01*
G37*
D32*
G04 #@! TO.P,U2,24*
G04 #@! TO.N,/3V_A11*
X128567732Y-72279285D03*
D15*
G04 #@! TD*
G04 #@! TO.N,/3V_A11*
G04 #@! TO.C,U2*
G36*
X129009674Y-72544450D02*
X128832897Y-72721227D01*
X128125790Y-72014120D01*
X128302567Y-71837343D01*
X129009674Y-72544450D01*
X129009674Y-72544450D01*
G37*
D32*
G04 #@! TO.P,U2,23*
G04 #@! TO.N,/3V_A10*
X128214179Y-72632839D03*
D15*
G04 #@! TD*
G04 #@! TO.N,/3V_A10*
G04 #@! TO.C,U2*
G36*
X128656121Y-72898004D02*
X128479344Y-73074781D01*
X127772237Y-72367674D01*
X127949014Y-72190897D01*
X128656121Y-72898004D01*
X128656121Y-72898004D01*
G37*
D32*
G04 #@! TO.P,U2,22*
G04 #@! TO.N,GND*
X127860625Y-72986392D03*
D15*
G04 #@! TD*
G04 #@! TO.N,GND*
G04 #@! TO.C,U2*
G36*
X128302567Y-73251557D02*
X128125790Y-73428334D01*
X127418683Y-72721227D01*
X127595460Y-72544450D01*
X128302567Y-73251557D01*
X128302567Y-73251557D01*
G37*
D32*
G04 #@! TO.P,U2,21*
G04 #@! TO.N,+3V3*
X127507072Y-73339946D03*
D15*
G04 #@! TD*
G04 #@! TO.N,+3V3*
G04 #@! TO.C,U2*
G36*
X127949014Y-73605111D02*
X127772237Y-73781888D01*
X127065130Y-73074781D01*
X127241907Y-72898004D01*
X127949014Y-73605111D01*
X127949014Y-73605111D01*
G37*
D32*
G04 #@! TO.P,U2,20*
G04 #@! TO.N,/DIR*
X127153518Y-73693499D03*
D15*
G04 #@! TD*
G04 #@! TO.N,/DIR*
G04 #@! TO.C,U2*
G36*
X127595460Y-73958664D02*
X127418683Y-74135441D01*
X126711576Y-73428334D01*
X126888353Y-73251557D01*
X127595460Y-73958664D01*
X127595460Y-73958664D01*
G37*
D32*
G04 #@! TO.P,U2,19*
G04 #@! TO.N,/3V_CLK*
X126799965Y-74047052D03*
D15*
G04 #@! TD*
G04 #@! TO.N,/3V_CLK*
G04 #@! TO.C,U2*
G36*
X127241907Y-74312217D02*
X127065130Y-74488994D01*
X126358023Y-73781887D01*
X126534800Y-73605110D01*
X127241907Y-74312217D01*
X127241907Y-74312217D01*
G37*
D32*
G04 #@! TO.P,U2,18*
G04 #@! TO.N,/3V_WR*
X126446412Y-74400606D03*
D15*
G04 #@! TD*
G04 #@! TO.N,/3V_WR*
G04 #@! TO.C,U2*
G36*
X126888354Y-74665771D02*
X126711577Y-74842548D01*
X126004470Y-74135441D01*
X126181247Y-73958664D01*
X126888354Y-74665771D01*
X126888354Y-74665771D01*
G37*
D32*
G04 #@! TO.P,U2,17*
G04 #@! TO.N,/3V_A15*
X126092858Y-74754159D03*
D15*
G04 #@! TD*
G04 #@! TO.N,/3V_A15*
G04 #@! TO.C,U2*
G36*
X126534800Y-75019324D02*
X126358023Y-75196101D01*
X125650916Y-74488994D01*
X125827693Y-74312217D01*
X126534800Y-75019324D01*
X126534800Y-75019324D01*
G37*
D32*
G04 #@! TO.P,U2,16*
G04 #@! TO.N,/DATA_OE*
X123335142Y-74754159D03*
D15*
G04 #@! TD*
G04 #@! TO.N,/DATA_OE*
G04 #@! TO.C,U2*
G36*
X123069977Y-75196101D02*
X122893200Y-75019324D01*
X123600307Y-74312217D01*
X123777084Y-74488994D01*
X123069977Y-75196101D01*
X123069977Y-75196101D01*
G37*
D32*
G04 #@! TO.P,U2,15*
G04 #@! TO.N,/3V_RD*
X122981588Y-74400606D03*
D15*
G04 #@! TD*
G04 #@! TO.N,/3V_RD*
G04 #@! TO.C,U2*
G36*
X122716423Y-74842548D02*
X122539646Y-74665771D01*
X123246753Y-73958664D01*
X123423530Y-74135441D01*
X122716423Y-74842548D01*
X122716423Y-74842548D01*
G37*
D32*
G04 #@! TO.P,U2,14*
G04 #@! TO.N,/3V_A15*
X122628035Y-74047052D03*
D15*
G04 #@! TD*
G04 #@! TO.N,/3V_A15*
G04 #@! TO.C,U2*
G36*
X122362870Y-74488994D02*
X122186093Y-74312217D01*
X122893200Y-73605110D01*
X123069977Y-73781887D01*
X122362870Y-74488994D01*
X122362870Y-74488994D01*
G37*
D32*
G04 #@! TO.P,U2,13*
G04 #@! TO.N,/3V_CLK*
X122274482Y-73693499D03*
D15*
G04 #@! TD*
G04 #@! TO.N,/3V_CLK*
G04 #@! TO.C,U2*
G36*
X122009317Y-74135441D02*
X121832540Y-73958664D01*
X122539647Y-73251557D01*
X122716424Y-73428334D01*
X122009317Y-74135441D01*
X122009317Y-74135441D01*
G37*
D32*
G04 #@! TO.P,U2,12*
G04 #@! TO.N,/3V_A9*
X121920928Y-73339946D03*
D15*
G04 #@! TD*
G04 #@! TO.N,/3V_A9*
G04 #@! TO.C,U2*
G36*
X121655763Y-73781888D02*
X121478986Y-73605111D01*
X122186093Y-72898004D01*
X122362870Y-73074781D01*
X121655763Y-73781888D01*
X121655763Y-73781888D01*
G37*
D32*
G04 #@! TO.P,U2,11*
G04 #@! TO.N,/3V_A8*
X121567375Y-72986392D03*
D15*
G04 #@! TD*
G04 #@! TO.N,/3V_A8*
G04 #@! TO.C,U2*
G36*
X121302210Y-73428334D02*
X121125433Y-73251557D01*
X121832540Y-72544450D01*
X122009317Y-72721227D01*
X121302210Y-73428334D01*
X121302210Y-73428334D01*
G37*
D32*
G04 #@! TO.P,U2,10*
G04 #@! TO.N,/3V_A7*
X121213821Y-72632839D03*
D15*
G04 #@! TD*
G04 #@! TO.N,/3V_A7*
G04 #@! TO.C,U2*
G36*
X120948656Y-73074781D02*
X120771879Y-72898004D01*
X121478986Y-72190897D01*
X121655763Y-72367674D01*
X120948656Y-73074781D01*
X120948656Y-73074781D01*
G37*
D32*
G04 #@! TO.P,U2,9*
G04 #@! TO.N,/3V_A6*
X120860268Y-72279285D03*
D15*
G04 #@! TD*
G04 #@! TO.N,/3V_A6*
G04 #@! TO.C,U2*
G36*
X120595103Y-72721227D02*
X120418326Y-72544450D01*
X121125433Y-71837343D01*
X121302210Y-72014120D01*
X120595103Y-72721227D01*
X120595103Y-72721227D01*
G37*
D32*
G04 #@! TO.P,U2,8*
G04 #@! TO.N,+3V3*
X120506715Y-71925732D03*
D15*
G04 #@! TD*
G04 #@! TO.N,+3V3*
G04 #@! TO.C,U2*
G36*
X120241550Y-72367674D02*
X120064773Y-72190897D01*
X120771880Y-71483790D01*
X120948657Y-71660567D01*
X120241550Y-72367674D01*
X120241550Y-72367674D01*
G37*
D32*
G04 #@! TO.P,U2,7*
G04 #@! TO.N,GND*
X120153161Y-71572179D03*
D15*
G04 #@! TD*
G04 #@! TO.N,GND*
G04 #@! TO.C,U2*
G36*
X119887996Y-72014121D02*
X119711219Y-71837344D01*
X120418326Y-71130237D01*
X120595103Y-71307014D01*
X119887996Y-72014121D01*
X119887996Y-72014121D01*
G37*
D32*
G04 #@! TO.P,U2,6*
G04 #@! TO.N,/3V_A5*
X119799608Y-71218625D03*
D15*
G04 #@! TD*
G04 #@! TO.N,/3V_A5*
G04 #@! TO.C,U2*
G36*
X119534443Y-71660567D02*
X119357666Y-71483790D01*
X120064773Y-70776683D01*
X120241550Y-70953460D01*
X119534443Y-71660567D01*
X119534443Y-71660567D01*
G37*
D32*
G04 #@! TO.P,U2,5*
G04 #@! TO.N,/3V_A4*
X119446054Y-70865072D03*
D15*
G04 #@! TD*
G04 #@! TO.N,/3V_A4*
G04 #@! TO.C,U2*
G36*
X119180889Y-71307014D02*
X119004112Y-71130237D01*
X119711219Y-70423130D01*
X119887996Y-70599907D01*
X119180889Y-71307014D01*
X119180889Y-71307014D01*
G37*
D32*
G04 #@! TO.P,U2,4*
G04 #@! TO.N,Net-(U2-Pad4)*
X119092501Y-70511518D03*
D15*
G04 #@! TD*
G04 #@! TO.N,Net-(U2-Pad4)*
G04 #@! TO.C,U2*
G36*
X118827336Y-70953460D02*
X118650559Y-70776683D01*
X119357666Y-70069576D01*
X119534443Y-70246353D01*
X118827336Y-70953460D01*
X118827336Y-70953460D01*
G37*
D32*
G04 #@! TO.P,U2,3*
G04 #@! TO.N,Net-(U2-Pad3)*
X118738948Y-70157965D03*
D15*
G04 #@! TD*
G04 #@! TO.N,Net-(U2-Pad3)*
G04 #@! TO.C,U2*
G36*
X118473783Y-70599907D02*
X118297006Y-70423130D01*
X119004113Y-69716023D01*
X119180890Y-69892800D01*
X118473783Y-70599907D01*
X118473783Y-70599907D01*
G37*
D32*
G04 #@! TO.P,U2,2*
G04 #@! TO.N,Net-(U2-Pad2)*
X118385394Y-69804412D03*
D15*
G04 #@! TD*
G04 #@! TO.N,Net-(U2-Pad2)*
G04 #@! TO.C,U2*
G36*
X118120229Y-70246354D02*
X117943452Y-70069577D01*
X118650559Y-69362470D01*
X118827336Y-69539247D01*
X118120229Y-70246354D01*
X118120229Y-70246354D01*
G37*
D32*
G04 #@! TO.P,U2,1*
G04 #@! TO.N,Net-(U2-Pad1)*
X118031841Y-69450858D03*
D15*
G04 #@! TD*
G04 #@! TO.N,Net-(U2-Pad1)*
G04 #@! TO.C,U2*
G36*
X117766676Y-69892800D02*
X117589899Y-69716023D01*
X118297006Y-69008916D01*
X118473783Y-69185693D01*
X117766676Y-69892800D01*
X117766676Y-69892800D01*
G37*
D33*
G04 #@! TO.P,U6,20*
G04 #@! TO.N,+3V3*
X108614000Y-79371000D03*
G04 #@! TO.P,U6,19*
G04 #@! TO.N,GND*
X108614000Y-80021000D03*
G04 #@! TO.P,U6,18*
G04 #@! TO.N,/3V_CLK*
X108614000Y-80671000D03*
G04 #@! TO.P,U6,17*
G04 #@! TO.N,/A3*
X108614000Y-81321000D03*
G04 #@! TO.P,U6,16*
G04 #@! TO.N,/3V_WR*
X108614000Y-81971000D03*
G04 #@! TO.P,U6,15*
G04 #@! TO.N,/A2*
X108614000Y-82621000D03*
G04 #@! TO.P,U6,14*
G04 #@! TO.N,/3V_RD*
X108614000Y-83271000D03*
G04 #@! TO.P,U6,13*
G04 #@! TO.N,/A1*
X108614000Y-83921000D03*
G04 #@! TO.P,U6,12*
G04 #@! TO.N,/3V_CS*
X108614000Y-84571000D03*
G04 #@! TO.P,U6,11*
G04 #@! TO.N,/A0*
X108614000Y-85221000D03*
G04 #@! TO.P,U6,10*
G04 #@! TO.N,GND*
X102714000Y-85221000D03*
G04 #@! TO.P,U6,9*
G04 #@! TO.N,/3V_A0*
X102714000Y-84571000D03*
G04 #@! TO.P,U6,8*
G04 #@! TO.N,/CS*
X102714000Y-83921000D03*
G04 #@! TO.P,U6,7*
G04 #@! TO.N,/3V_A1*
X102714000Y-83271000D03*
G04 #@! TO.P,U6,6*
G04 #@! TO.N,/RD*
X102714000Y-82621000D03*
G04 #@! TO.P,U6,5*
G04 #@! TO.N,/3V_A2*
X102714000Y-81971000D03*
G04 #@! TO.P,U6,4*
G04 #@! TO.N,/WR*
X102714000Y-81321000D03*
G04 #@! TO.P,U6,3*
G04 #@! TO.N,/3V_A3*
X102714000Y-80671000D03*
G04 #@! TO.P,U6,2*
G04 #@! TO.N,/CLK*
X102714000Y-80021000D03*
G04 #@! TO.P,U6,1*
G04 #@! TO.N,GND*
X102714000Y-79371000D03*
G04 #@! TD*
G04 #@! TO.P,U4,1*
G04 #@! TO.N,GND*
X112874000Y-79371000D03*
G04 #@! TO.P,U4,2*
G04 #@! TO.N,/A4*
X112874000Y-80021000D03*
G04 #@! TO.P,U4,3*
G04 #@! TO.N,/3V_A11*
X112874000Y-80671000D03*
G04 #@! TO.P,U4,4*
G04 #@! TO.N,/A5*
X112874000Y-81321000D03*
G04 #@! TO.P,U4,5*
G04 #@! TO.N,/3V_A10*
X112874000Y-81971000D03*
G04 #@! TO.P,U4,6*
G04 #@! TO.N,/A6*
X112874000Y-82621000D03*
G04 #@! TO.P,U4,7*
G04 #@! TO.N,/3V_A9*
X112874000Y-83271000D03*
G04 #@! TO.P,U4,8*
G04 #@! TO.N,/A7*
X112874000Y-83921000D03*
G04 #@! TO.P,U4,9*
G04 #@! TO.N,/3V_A8*
X112874000Y-84571000D03*
G04 #@! TO.P,U4,10*
G04 #@! TO.N,GND*
X112874000Y-85221000D03*
G04 #@! TO.P,U4,11*
G04 #@! TO.N,/A8*
X118774000Y-85221000D03*
G04 #@! TO.P,U4,12*
G04 #@! TO.N,/3V_A7*
X118774000Y-84571000D03*
G04 #@! TO.P,U4,13*
G04 #@! TO.N,/A9*
X118774000Y-83921000D03*
G04 #@! TO.P,U4,14*
G04 #@! TO.N,/3V_A6*
X118774000Y-83271000D03*
G04 #@! TO.P,U4,15*
G04 #@! TO.N,/A10*
X118774000Y-82621000D03*
G04 #@! TO.P,U4,16*
G04 #@! TO.N,/3V_A5*
X118774000Y-81971000D03*
G04 #@! TO.P,U4,17*
G04 #@! TO.N,/A11*
X118774000Y-81321000D03*
G04 #@! TO.P,U4,18*
G04 #@! TO.N,/3V_A4*
X118774000Y-80671000D03*
G04 #@! TO.P,U4,19*
G04 #@! TO.N,GND*
X118774000Y-80021000D03*
G04 #@! TO.P,U4,20*
G04 #@! TO.N,+3V3*
X118774000Y-79371000D03*
G04 #@! TD*
D34*
G04 #@! TO.P,U3,20*
G04 #@! TO.N,+3V3*
X131020000Y-77788000D03*
G04 #@! TO.P,U3,19*
X131670000Y-77788000D03*
G04 #@! TO.P,U3,18*
G04 #@! TO.N,/3V_A12*
X132320000Y-77788000D03*
G04 #@! TO.P,U3,17*
G04 #@! TO.N,GND*
X132970000Y-77788000D03*
G04 #@! TO.P,U3,16*
G04 #@! TO.N,/3V_A13*
X133620000Y-77788000D03*
G04 #@! TO.P,U3,15*
G04 #@! TO.N,GND*
X134270000Y-77788000D03*
G04 #@! TO.P,U3,14*
G04 #@! TO.N,/3V_A14*
X134920000Y-77788000D03*
G04 #@! TO.P,U3,13*
G04 #@! TO.N,GND*
X135570000Y-77788000D03*
G04 #@! TO.P,U3,12*
G04 #@! TO.N,/3V_A15*
X136220000Y-77788000D03*
G04 #@! TO.P,U3,11*
G04 #@! TO.N,GND*
X136870000Y-77788000D03*
G04 #@! TO.P,U3,10*
X136870000Y-83688000D03*
G04 #@! TO.P,U3,9*
G04 #@! TO.N,Net-(U3-Pad9)*
X136220000Y-83688000D03*
G04 #@! TO.P,U3,8*
G04 #@! TO.N,/A15*
X135570000Y-83688000D03*
G04 #@! TO.P,U3,7*
G04 #@! TO.N,Net-(U3-Pad7)*
X134920000Y-83688000D03*
G04 #@! TO.P,U3,6*
G04 #@! TO.N,/A14*
X134270000Y-83688000D03*
G04 #@! TO.P,U3,5*
G04 #@! TO.N,Net-(U3-Pad5)*
X133620000Y-83688000D03*
G04 #@! TO.P,U3,4*
G04 #@! TO.N,/A13*
X132970000Y-83688000D03*
G04 #@! TO.P,U3,3*
G04 #@! TO.N,Net-(U3-Pad3)*
X132320000Y-83688000D03*
G04 #@! TO.P,U3,2*
G04 #@! TO.N,/A12*
X131670000Y-83688000D03*
G04 #@! TO.P,U3,1*
G04 #@! TO.N,GND*
X131020000Y-83688000D03*
G04 #@! TD*
D35*
G04 #@! TO.P,U5,24*
G04 #@! TO.N,+3V3*
X136596000Y-57804000D03*
G04 #@! TO.P,U5,23*
X136596000Y-57154000D03*
G04 #@! TO.P,U5,22*
G04 #@! TO.N,/DATA_OE*
X136596000Y-56504000D03*
G04 #@! TO.P,U5,21*
G04 #@! TO.N,/3V_D0*
X136596000Y-55854000D03*
G04 #@! TO.P,U5,20*
G04 #@! TO.N,/3V_D1*
X136596000Y-55204000D03*
G04 #@! TO.P,U5,19*
G04 #@! TO.N,/3V_D2*
X136596000Y-54554000D03*
G04 #@! TO.P,U5,18*
G04 #@! TO.N,/3V_D3*
X136596000Y-53904000D03*
G04 #@! TO.P,U5,17*
G04 #@! TO.N,/3V_D4*
X136596000Y-53254000D03*
G04 #@! TO.P,U5,16*
G04 #@! TO.N,/3V_D5*
X136596000Y-52604000D03*
G04 #@! TO.P,U5,15*
G04 #@! TO.N,/3V_D6*
X136596000Y-51954000D03*
G04 #@! TO.P,U5,14*
G04 #@! TO.N,/3V_D7*
X136596000Y-51304000D03*
G04 #@! TO.P,U5,13*
G04 #@! TO.N,GND*
X136596000Y-50654000D03*
G04 #@! TO.P,U5,12*
X142296000Y-50654000D03*
G04 #@! TO.P,U5,11*
X142296000Y-51304000D03*
G04 #@! TO.P,U5,10*
G04 #@! TO.N,/D7*
X142296000Y-51954000D03*
G04 #@! TO.P,U5,9*
G04 #@! TO.N,/D6*
X142296000Y-52604000D03*
G04 #@! TO.P,U5,8*
G04 #@! TO.N,/D5*
X142296000Y-53254000D03*
G04 #@! TO.P,U5,7*
G04 #@! TO.N,/D4*
X142296000Y-53904000D03*
G04 #@! TO.P,U5,6*
G04 #@! TO.N,/D3*
X142296000Y-54554000D03*
G04 #@! TO.P,U5,5*
G04 #@! TO.N,/D2*
X142296000Y-55204000D03*
G04 #@! TO.P,U5,4*
G04 #@! TO.N,/D1*
X142296000Y-55854000D03*
G04 #@! TO.P,U5,3*
G04 #@! TO.N,/D0*
X142296000Y-56504000D03*
G04 #@! TO.P,U5,2*
G04 #@! TO.N,/DIR*
X142296000Y-57154000D03*
G04 #@! TO.P,U5,1*
G04 #@! TO.N,+5V*
X142296000Y-57804000D03*
G04 #@! TD*
D36*
G04 #@! TO.N,+5V*
X108463541Y-57654581D03*
X129286000Y-55499000D03*
X141097000Y-61722000D03*
X115570000Y-51181000D03*
G04 #@! TO.N,/D0*
X132945000Y-87738000D03*
G04 #@! TO.N,/D1*
X134445000Y-87738000D03*
G04 #@! TO.N,/D2*
X135945000Y-87738000D03*
G04 #@! TO.N,GND*
X148045000Y-87687994D03*
X123545025Y-78263338D03*
X127845000Y-76888000D03*
X114145000Y-85388000D03*
X104145000Y-85288000D03*
X127215011Y-72092149D03*
X132445000Y-80488000D03*
X120248818Y-62234191D03*
X146945000Y-87988000D03*
X146945000Y-86988000D03*
X120206079Y-80949810D03*
X127635000Y-60071000D03*
X135382000Y-50673000D03*
X143764000Y-51054000D03*
X102743000Y-78486000D03*
X116547596Y-75153434D03*
X110998000Y-78994000D03*
X107823000Y-48006000D03*
X118872000Y-42545000D03*
X116832971Y-58214019D03*
X120904000Y-70358000D03*
X103505000Y-66548000D03*
X105918000Y-69088000D03*
X132715000Y-66421000D03*
X139573000Y-58928000D03*
G04 #@! TO.N,/D3*
X137445000Y-87738000D03*
G04 #@! TO.N,/D4*
X138945000Y-87738000D03*
G04 #@! TO.N,/D5*
X140445000Y-87738000D03*
G04 #@! TO.N,/D6*
X141945000Y-87738000D03*
G04 #@! TO.N,/D7*
X143445000Y-87738000D03*
G04 #@! TO.N,+3V3*
X114145000Y-67338000D03*
X119962239Y-68713644D03*
X116975010Y-69389916D03*
X119975274Y-78378094D03*
X110744000Y-47879000D03*
X112141000Y-46990000D03*
X122047000Y-45212000D03*
X127381000Y-45085000D03*
X113411000Y-75057000D03*
G04 #@! TO.N,/CLK*
X102945000Y-87738000D03*
G04 #@! TO.N,/WR*
X104445000Y-87738000D03*
G04 #@! TO.N,/RD*
X105945000Y-87738000D03*
G04 #@! TO.N,/CS*
X107445000Y-87738000D03*
X105011950Y-85578771D03*
X104775000Y-83885190D03*
G04 #@! TO.N,/A0*
X108945000Y-87738000D03*
G04 #@! TO.N,/A1*
X110445000Y-87738000D03*
G04 #@! TO.N,/A2*
X111945000Y-87738000D03*
G04 #@! TO.N,/A3*
X113445000Y-87738000D03*
G04 #@! TO.N,/A4*
X114945000Y-87738000D03*
G04 #@! TO.N,/A5*
X116445000Y-87738000D03*
G04 #@! TO.N,/A6*
X117945000Y-87738000D03*
G04 #@! TO.N,/A7*
X119445000Y-87738000D03*
G04 #@! TO.N,/A8*
X120945000Y-87738000D03*
G04 #@! TO.N,/A9*
X122445000Y-87738000D03*
G04 #@! TO.N,/A10*
X123945000Y-87738000D03*
G04 #@! TO.N,/A11*
X125445000Y-87738000D03*
G04 #@! TO.N,/A12*
X126945000Y-87738000D03*
G04 #@! TO.N,/A13*
X128445000Y-87738000D03*
G04 #@! TO.N,/A14*
X129945000Y-87738000D03*
G04 #@! TO.N,/A15*
X131445000Y-87738000D03*
G04 #@! TO.N,/RESET*
X144945000Y-87738000D03*
X141695000Y-80988000D03*
X144445000Y-83738000D03*
G04 #@! TO.N,/DATA_OE*
X124145000Y-73338000D03*
X126396489Y-69650469D03*
G04 #@! TO.N,/DIR*
X133495000Y-73838000D03*
X128960399Y-76345824D03*
G04 #@! TO.N,/GB_RESET*
X129032000Y-56515000D03*
X137922000Y-62230000D03*
G04 #@! TO.N,/3V_A15*
X125224823Y-73680906D03*
X125945000Y-71988000D03*
G04 #@! TO.N,/3V_A11*
X116505943Y-79582057D03*
X115189000Y-82550000D03*
G04 #@! TO.N,/3V_A10*
X114122190Y-81874717D03*
X115823985Y-78767350D03*
G04 #@! TO.N,/3V_A9*
X119239189Y-76631810D03*
X114351494Y-83076310D03*
G04 #@! TO.N,/3V_A8*
X115195537Y-84600694D03*
X117654182Y-77407992D03*
G04 #@! TO.N,/3V_A7*
X113992320Y-76860501D03*
X116176032Y-77557817D03*
G04 #@! TO.N,/3V_A6*
X114042707Y-75896589D03*
X116448327Y-76631810D03*
G04 #@! TO.N,/3V_A5*
X115062703Y-74801241D03*
X116426642Y-74195831D03*
G04 #@! TO.N,/3V_CLK*
X124695000Y-70738000D03*
X123695000Y-71738000D03*
X120634644Y-75455118D03*
X110236000Y-80772000D03*
G04 #@! TO.N,/3V_WR*
X123345000Y-76238000D03*
X106745000Y-76438000D03*
X106857810Y-81915000D03*
G04 #@! TO.N,/3V_RD*
X105845000Y-76788000D03*
X107032488Y-83202606D03*
X122555000Y-75565000D03*
G04 #@! TO.N,/3V_CS*
X114045000Y-68388000D03*
X116245000Y-70788000D03*
X124714000Y-66167000D03*
X122936000Y-67056000D03*
G04 #@! TO.N,/LED*
X129159000Y-50038000D03*
X125984000Y-53213000D03*
G04 #@! TO.N,+BATT*
X101219000Y-87630000D03*
X101346000Y-77089000D03*
G04 #@! TO.N,Net-(TP31-Pad1)*
X145795000Y-85738000D03*
G04 #@! TO.N,Net-(TP44-Pad1)*
X130795000Y-58738000D03*
X131895000Y-61488000D03*
G04 #@! TD*
D37*
G04 #@! TO.N,+5V*
X108463541Y-57654581D02*
X104861581Y-57654581D01*
X104861581Y-57654581D02*
X104859962Y-57656200D01*
X102945000Y-56563000D02*
X102945000Y-55738000D01*
X104859962Y-57656200D02*
X104038200Y-57656200D01*
X104038200Y-57656200D02*
X102945000Y-56563000D01*
X108082542Y-58035580D02*
X108463541Y-57654581D01*
X100711000Y-65407122D02*
X108082542Y-58035580D01*
X102555000Y-69398800D02*
X100711000Y-67554800D01*
X102555000Y-69977000D02*
X102555000Y-69398800D01*
X100711000Y-67554800D02*
X100711000Y-65407122D01*
X129286000Y-55499000D02*
X123318000Y-49531000D01*
X123318000Y-49531000D02*
X123318000Y-47244000D01*
X142555000Y-60141200D02*
X141097000Y-61599200D01*
X142555000Y-59563000D02*
X142555000Y-60141200D01*
X141097000Y-61599200D02*
X141097000Y-61722000D01*
X123318000Y-47244000D02*
X119507000Y-47244000D01*
X119507000Y-47244000D02*
X115570000Y-51181000D01*
X101346000Y-69571200D02*
X101346000Y-67691000D01*
X101346000Y-67691000D02*
X101346000Y-65923800D01*
X102405000Y-67498000D02*
X101539000Y-67498000D01*
X101539000Y-67498000D02*
X101346000Y-67691000D01*
X101346000Y-65923800D02*
X101671800Y-65598000D01*
X101671800Y-65598000D02*
X102405000Y-65598000D01*
X102555000Y-69977000D02*
X101751800Y-69977000D01*
X101751800Y-69977000D02*
X101346000Y-69571200D01*
X101473000Y-72391000D02*
X101473000Y-70834000D01*
X101473000Y-70834000D02*
X102330000Y-69977000D01*
X102330000Y-69977000D02*
X102555000Y-69977000D01*
X142296000Y-57804000D02*
X142296000Y-59304000D01*
X142296000Y-59304000D02*
X142555000Y-59563000D01*
G04 #@! TO.N,/D0*
X132945000Y-94488000D02*
X132945000Y-89688000D01*
X132945000Y-89688000D02*
X132945000Y-87738000D01*
X137729072Y-85988000D02*
X143459801Y-80257271D01*
X133991800Y-85988000D02*
X137729072Y-85988000D01*
X143049200Y-56504000D02*
X142296000Y-56504000D01*
X132945000Y-87034800D02*
X133991800Y-85988000D01*
X143459801Y-80257271D02*
X143459801Y-56914601D01*
X132945000Y-87738000D02*
X132945000Y-87034800D01*
X143459801Y-56914601D02*
X143049200Y-56504000D01*
G04 #@! TO.N,/D1*
X134445000Y-89738000D02*
X134445000Y-94488000D01*
X134445000Y-89738000D02*
X134445000Y-87738000D01*
X143866212Y-80353768D02*
X143866212Y-56671012D01*
X143049200Y-55854000D02*
X142296000Y-55854000D01*
X143866212Y-56671012D02*
X143049200Y-55854000D01*
X135097411Y-86382389D02*
X137837591Y-86382389D01*
X134445000Y-87738000D02*
X134445000Y-87034800D01*
X137837591Y-86382389D02*
X143866212Y-80353768D01*
X134445000Y-87034800D02*
X135097411Y-86382389D01*
G04 #@! TO.N,/D2*
X135945000Y-94488000D02*
X135945000Y-89588000D01*
X135945000Y-89588000D02*
X135945000Y-87738000D01*
X143049200Y-55204000D02*
X142296000Y-55204000D01*
X144272623Y-56427423D02*
X143049200Y-55204000D01*
X135945000Y-87034800D02*
X136241800Y-86738000D01*
X136241800Y-86738000D02*
X137984890Y-86738000D01*
X135945000Y-87738000D02*
X135945000Y-87034800D01*
X137984890Y-86738000D02*
X144272623Y-80450267D01*
X144272623Y-80450267D02*
X144272623Y-56427423D01*
G04 #@! TO.N,GND*
X147983821Y-87687994D02*
X148045000Y-87687994D01*
X147845000Y-87826815D02*
X147983821Y-87687994D01*
X147445000Y-87626809D02*
X147506185Y-87687994D01*
X146945000Y-87988000D02*
X147445000Y-87488000D01*
X147845000Y-91213000D02*
X147845000Y-87826815D01*
X147506185Y-87687994D02*
X148045000Y-87687994D01*
X147945000Y-90288000D02*
X147845000Y-90188000D01*
X147945000Y-91313000D02*
X147845000Y-91213000D01*
X147445000Y-87488000D02*
X147445000Y-87626809D01*
X147845000Y-90188000D02*
X147845000Y-87826815D01*
X122083751Y-78449249D02*
X123359114Y-78449249D01*
X123359114Y-78449249D02*
X123545025Y-78263338D01*
X127217249Y-76236751D02*
X127217249Y-76260249D01*
X127217249Y-76260249D02*
X127845000Y-76888000D01*
X147945000Y-94488000D02*
X147945000Y-90288000D01*
X112874000Y-85221000D02*
X113978000Y-85221000D01*
X113978000Y-85221000D02*
X114145000Y-85388000D01*
X104078000Y-85221000D02*
X104145000Y-85288000D01*
X102714000Y-85221000D02*
X104078000Y-85221000D01*
X119073249Y-58016249D02*
X119073249Y-58018249D01*
X119073249Y-58018249D02*
X117946249Y-59145249D01*
X120173249Y-56966249D02*
X120123249Y-56966249D01*
X120123249Y-56966249D02*
X119073249Y-58016249D01*
X143764000Y-51054000D02*
X143764000Y-49094000D01*
X143764000Y-49094000D02*
X145120000Y-47738000D01*
X145120000Y-47738000D02*
X145945000Y-47738000D01*
X127860625Y-72986392D02*
X127215011Y-72340778D01*
X127215011Y-72340778D02*
X127215011Y-72092149D01*
X135445000Y-80488000D02*
X135570000Y-80363000D01*
X135570000Y-80363000D02*
X135570000Y-77788000D01*
X135445000Y-80488000D02*
X136870000Y-79063000D01*
X136870000Y-79063000D02*
X136870000Y-77788000D01*
X135445000Y-80488000D02*
X136870000Y-81913000D01*
X136870000Y-81913000D02*
X136870000Y-83688000D01*
X132445000Y-80488000D02*
X135445000Y-80488000D01*
X132445000Y-80488000D02*
X132825999Y-80107001D01*
X132825999Y-80107001D02*
X132879199Y-80107001D01*
X132879199Y-80107001D02*
X134270000Y-78716200D01*
X134270000Y-78716200D02*
X134270000Y-77788000D01*
X132445000Y-80488000D02*
X132970000Y-79963000D01*
X132970000Y-79963000D02*
X132970000Y-77788000D01*
X131020000Y-83688000D02*
X131020000Y-81913000D01*
X131020000Y-81913000D02*
X131846000Y-81087000D01*
X129445000Y-81087000D02*
X131846000Y-81087000D01*
X131846000Y-81087000D02*
X132445000Y-80488000D01*
X120380009Y-62103000D02*
X120248818Y-62234191D01*
X120512767Y-62103000D02*
X120380009Y-62103000D01*
X147945000Y-88988000D02*
X147325999Y-88368999D01*
X147945000Y-91313000D02*
X147945000Y-88988000D01*
X147325999Y-88368999D02*
X146945000Y-87988000D01*
X146945000Y-86988000D02*
X147445000Y-87488000D01*
X119825080Y-80568811D02*
X120206079Y-80949810D01*
X118774000Y-80021000D02*
X119622642Y-80021000D01*
X119825080Y-80223438D02*
X119825080Y-80568811D01*
X119622642Y-80021000D02*
X119825080Y-80223438D01*
X127798751Y-60391055D02*
X127798751Y-60234751D01*
X127798751Y-60234751D02*
X127635000Y-60071000D01*
X127798751Y-58129249D02*
X127798751Y-60391055D01*
X127798751Y-60391055D02*
X126446412Y-61743394D01*
X136596000Y-50654000D02*
X135401000Y-50654000D01*
X135401000Y-50654000D02*
X135382000Y-50673000D01*
X143637000Y-51054000D02*
X143387000Y-51304000D01*
X143387000Y-51304000D02*
X142296000Y-51304000D01*
X143764000Y-51054000D02*
X143637000Y-51054000D01*
X142296000Y-50654000D02*
X143364000Y-50654000D01*
X143364000Y-50654000D02*
X143764000Y-51054000D01*
X102714000Y-79371000D02*
X102714000Y-78515000D01*
X102714000Y-78515000D02*
X102743000Y-78486000D01*
X117565249Y-74712751D02*
X116934919Y-74712751D01*
X116547596Y-75100074D02*
X116547596Y-75153434D01*
X116934919Y-74712751D02*
X116547596Y-75100074D01*
X112837000Y-77724000D02*
X112837000Y-78302200D01*
X112837000Y-78302200D02*
X112145200Y-78994000D01*
X112145200Y-78994000D02*
X111536815Y-78994000D01*
X111536815Y-78994000D02*
X110998000Y-78994000D01*
X112874000Y-79371000D02*
X111375000Y-79371000D01*
X111375000Y-79371000D02*
X110998000Y-78994000D01*
X108614000Y-80021000D02*
X109971000Y-80021000D01*
X109971000Y-80021000D02*
X110998000Y-78994000D01*
X107696000Y-45384000D02*
X107696000Y-47879000D01*
X107696000Y-47879000D02*
X107823000Y-48006000D01*
X106426000Y-45384000D02*
X106426000Y-46214000D01*
X106426000Y-46214000D02*
X107823000Y-47611000D01*
X107823000Y-47611000D02*
X107823000Y-48006000D01*
X106426000Y-45384000D02*
X107696000Y-45384000D01*
X127950000Y-39751000D02*
X127950000Y-42101000D01*
X127950000Y-42101000D02*
X128050000Y-42201000D01*
X125850000Y-39751000D02*
X127003200Y-39751000D01*
X127003200Y-39751000D02*
X127950000Y-39751000D01*
X123450000Y-39751000D02*
X125850000Y-39751000D01*
X121350000Y-39751000D02*
X123450000Y-39751000D01*
X121350000Y-39751000D02*
X121350000Y-42101000D01*
X121350000Y-42101000D02*
X121250000Y-42201000D01*
X123350000Y-42426000D02*
X122946800Y-42426000D01*
X122946800Y-42426000D02*
X122721800Y-42201000D01*
X122721800Y-42201000D02*
X121250000Y-42201000D01*
X121250000Y-42201000D02*
X119216000Y-42201000D01*
X119216000Y-42201000D02*
X118872000Y-42545000D01*
X117015019Y-58214019D02*
X116832971Y-58214019D01*
X117946249Y-59145249D02*
X117015019Y-58214019D01*
X120512767Y-62103000D02*
X119892757Y-61482990D01*
X121567375Y-63157608D02*
X120512767Y-62103000D01*
X116930249Y-60161249D02*
X117528498Y-59563000D01*
X117528498Y-59563000D02*
X117946249Y-59145249D01*
X119892757Y-61482990D02*
X119322592Y-61482990D01*
X119322592Y-61482990D02*
X117528498Y-59688896D01*
X117528498Y-59688896D02*
X117528498Y-59563000D01*
X116930249Y-60288249D02*
X116930249Y-60161249D01*
X120153161Y-71572179D02*
X120904000Y-70821340D01*
X120904000Y-70821340D02*
X120904000Y-70358000D01*
X103632000Y-67041800D02*
X103632000Y-66675000D01*
X103632000Y-66675000D02*
X103505000Y-66548000D01*
X103632000Y-67041800D02*
X103632000Y-68575800D01*
X103632000Y-68575800D02*
X104455000Y-69398800D01*
X104455000Y-69398800D02*
X104455000Y-69977000D01*
X102405000Y-66548000D02*
X103138200Y-66548000D01*
X103138200Y-66548000D02*
X103632000Y-67041800D01*
X105791000Y-68866000D02*
X106807000Y-67850000D01*
X105791000Y-68866000D02*
X105791000Y-68961000D01*
X104680000Y-69977000D02*
X105791000Y-68866000D01*
X105791000Y-68961000D02*
X105918000Y-69088000D01*
X104455000Y-69977000D02*
X104680000Y-69977000D01*
X106807000Y-67850000D02*
X106807000Y-67498000D01*
X135321000Y-68723000D02*
X135321000Y-67630000D01*
X135321000Y-67630000D02*
X134275751Y-66584751D01*
X132715000Y-66693142D02*
X134167360Y-66693142D01*
X131396159Y-66693142D02*
X132715000Y-66693142D01*
X132715000Y-66693142D02*
X132715000Y-66421000D01*
X134167360Y-66693142D02*
X134275751Y-66584751D01*
X147945000Y-94488000D02*
X147945000Y-91313000D01*
X140655000Y-59563000D02*
X140208000Y-59563000D01*
X140208000Y-59563000D02*
X139573000Y-58928000D01*
X138491000Y-59563000D02*
X138938000Y-59563000D01*
X138938000Y-59563000D02*
X139573000Y-58928000D01*
X140655000Y-59563000D02*
X138491000Y-59563000D01*
G04 #@! TO.N,/D3*
X137445000Y-89788000D02*
X137445000Y-94488000D01*
X137445000Y-89788000D02*
X137445000Y-87738000D01*
X144679034Y-56183834D02*
X143049200Y-54554000D01*
X143049200Y-54554000D02*
X142296000Y-54554000D01*
X137445000Y-87738000D02*
X137487798Y-87738000D01*
X137487798Y-87738000D02*
X144679034Y-80546764D01*
X144679034Y-80546764D02*
X144679034Y-56183834D01*
G04 #@! TO.N,/D4*
X138945000Y-94488000D02*
X138945000Y-89838000D01*
X138945000Y-89838000D02*
X138945000Y-87738000D01*
X145085445Y-55940245D02*
X143049200Y-53904000D01*
X145085445Y-80649024D02*
X145085445Y-55940245D01*
X143049200Y-53904000D02*
X142296000Y-53904000D01*
X138945000Y-87738000D02*
X138945000Y-86789469D01*
X138945000Y-86789469D02*
X145085445Y-80649024D01*
G04 #@! TO.N,/D5*
X140445000Y-89838000D02*
X140445000Y-94488000D01*
X140445000Y-89838000D02*
X140445000Y-87738000D01*
X143049200Y-53254000D02*
X142296000Y-53254000D01*
X140445000Y-87738000D02*
X140445000Y-85792378D01*
X145491856Y-55696656D02*
X143049200Y-53254000D01*
X145491856Y-80745522D02*
X145491856Y-55696656D01*
X140445000Y-85792378D02*
X145491856Y-80745522D01*
G04 #@! TO.N,/D6*
X141945000Y-94488000D02*
X141945000Y-89688000D01*
X141945000Y-89688000D02*
X141945000Y-87738000D01*
X143049200Y-52604000D02*
X142296000Y-52604000D01*
X145898267Y-55453067D02*
X143049200Y-52604000D01*
X141945000Y-84795287D02*
X145898267Y-80842020D01*
X145898267Y-80842020D02*
X145898267Y-55453067D01*
X141945000Y-87738000D02*
X141945000Y-84795287D01*
G04 #@! TO.N,/D7*
X143445000Y-87738000D02*
X143445000Y-83798196D01*
X146295000Y-80948196D02*
X146295000Y-55199800D01*
X143445000Y-83798196D02*
X146295000Y-80948196D01*
X143049200Y-51954000D02*
X142296000Y-51954000D01*
X146295000Y-55199800D02*
X143049200Y-51954000D01*
X143445000Y-89788000D02*
X143445000Y-94488000D01*
X143445000Y-89788000D02*
X143445000Y-87738000D01*
G04 #@! TO.N,+3V3*
X125507336Y-77628336D02*
X127066000Y-79187000D01*
X122789716Y-77628336D02*
X125507336Y-77628336D01*
X127066000Y-79187000D02*
X128866800Y-79187000D01*
X120869145Y-77484223D02*
X122645603Y-77484223D01*
X119975274Y-78378094D02*
X120869145Y-77484223D01*
X122645603Y-77484223D02*
X122789716Y-77628336D01*
X128866800Y-79187000D02*
X129445000Y-79187000D01*
X111995000Y-64688000D02*
X111801800Y-64688000D01*
X111801800Y-64688000D02*
X110445000Y-63331200D01*
X110445000Y-63331200D02*
X110445000Y-62238000D01*
X114554000Y-45212000D02*
X114554000Y-45797000D01*
X114554000Y-45797000D02*
X116967183Y-48210183D01*
X106807000Y-65598000D02*
X107717000Y-64688000D01*
X107717000Y-64688000D02*
X111995000Y-64688000D01*
X113764001Y-66457001D02*
X113764001Y-66957001D01*
X113764001Y-66957001D02*
X114145000Y-67338000D01*
X111995000Y-64688000D02*
X113764001Y-66457001D01*
X123952000Y-67945000D02*
X123952000Y-66956447D01*
X123952000Y-70934804D02*
X123952000Y-67945000D01*
X125640198Y-72623002D02*
X123952000Y-70934804D01*
X126790128Y-72623002D02*
X125640198Y-72623002D01*
X127507072Y-73339946D02*
X126790128Y-72623002D01*
X131020000Y-77788000D02*
X131020000Y-76313000D01*
X131020000Y-76313000D02*
X130945000Y-76238000D01*
X131445000Y-76238000D02*
X131670000Y-76463000D01*
X131670000Y-76463000D02*
X131670000Y-77788000D01*
X130945000Y-76238000D02*
X131445000Y-76238000D01*
X130445000Y-76738000D02*
X130945000Y-76238000D01*
X130445000Y-77383800D02*
X130445000Y-76738000D01*
X129445000Y-79187000D02*
X129445000Y-78383800D01*
X129445000Y-78383800D02*
X130445000Y-77383800D01*
X116975010Y-69928731D02*
X116975010Y-69389916D01*
X113411000Y-75057000D02*
X116975010Y-71492990D01*
X116975010Y-71492990D02*
X116975010Y-69928731D01*
X120501054Y-68713644D02*
X119962239Y-68713644D01*
X123952000Y-67054988D02*
X122293344Y-68713644D01*
X123952000Y-66956447D02*
X123952000Y-67054988D01*
X122293344Y-68713644D02*
X120501054Y-68713644D01*
X120356273Y-78759093D02*
X119975274Y-78378094D01*
X120740249Y-79143069D02*
X120356273Y-78759093D01*
X120740249Y-79792751D02*
X120740249Y-79143069D01*
X115062000Y-57531000D02*
X108077000Y-50546000D01*
X108077000Y-50546000D02*
X105156000Y-47625000D01*
X110744000Y-47879000D02*
X108077000Y-50546000D01*
X113919000Y-45212000D02*
X112141000Y-46990000D01*
X114173000Y-45212000D02*
X113919000Y-45212000D01*
X114554000Y-45212000D02*
X114173000Y-45212000D01*
X122047000Y-45212000D02*
X114554000Y-45212000D01*
X133266000Y-39878000D02*
X133116000Y-39878000D01*
X133116000Y-39878000D02*
X127909000Y-45085000D01*
X127909000Y-45085000D02*
X127381000Y-45085000D01*
X126455249Y-59472751D02*
X126791124Y-59808626D01*
X126791124Y-60691575D02*
X126517121Y-60965578D01*
X126791124Y-59808626D02*
X126791124Y-60691575D01*
X126517121Y-60965578D02*
X126092858Y-61389841D01*
X137287000Y-64432000D02*
X137287000Y-63628800D01*
X137287000Y-63628800D02*
X136568000Y-62909800D01*
X136568000Y-61867200D02*
X136568000Y-61214000D01*
X136568000Y-62909800D02*
X136568000Y-61867200D01*
X113411000Y-75057000D02*
X112872185Y-75057000D01*
X110937000Y-76992185D02*
X110937000Y-77145800D01*
X112872185Y-75057000D02*
X110937000Y-76992185D01*
X110937000Y-77145800D02*
X110937000Y-77724000D01*
X127507072Y-73339946D02*
X128560751Y-74393625D01*
X128560751Y-74393625D02*
X128560751Y-74893249D01*
X120740249Y-79792751D02*
X120318498Y-79371000D01*
X120318498Y-79371000D02*
X118774000Y-79371000D01*
X110937000Y-77724000D02*
X110712000Y-77724000D01*
X110712000Y-77724000D02*
X109065000Y-79371000D01*
X109065000Y-79371000D02*
X108614000Y-79371000D01*
X105156000Y-47625000D02*
X105156000Y-45384000D01*
X115062000Y-58166000D02*
X115062000Y-57531000D01*
X115699791Y-57528209D02*
X115062000Y-58166000D01*
X117643421Y-61631751D02*
X118273751Y-61631751D01*
X115062000Y-58166000D02*
X115062000Y-60004250D01*
X115062000Y-60004250D02*
X116689501Y-61631751D01*
X116689501Y-61631751D02*
X117643421Y-61631751D01*
X120506715Y-71925732D02*
X119063198Y-73369249D01*
X119063198Y-73369249D02*
X118908751Y-73369249D01*
X118273751Y-61631751D02*
X118768725Y-62126725D01*
X119122278Y-62126725D02*
X120436005Y-63440452D01*
X118768725Y-62126725D02*
X119122278Y-62126725D01*
X120436005Y-63440452D02*
X120860268Y-63864715D01*
X120506715Y-71925732D02*
X123952000Y-68480447D01*
X123952000Y-68480447D02*
X123952000Y-66956447D01*
X131042606Y-66339588D02*
X130425747Y-66956447D01*
X130425747Y-66956447D02*
X123952000Y-66956447D01*
X126092858Y-61389841D02*
X125816081Y-61389841D01*
X125816081Y-61389841D02*
X123952000Y-63253922D01*
X123952000Y-63253922D02*
X123952000Y-66956447D01*
X123952000Y-66956447D02*
X120860268Y-63864715D01*
X106807000Y-65598000D02*
X106228800Y-65598000D01*
X106228800Y-65598000D02*
X104605000Y-65598000D01*
X136568000Y-61214000D02*
X136568000Y-59586000D01*
X136568000Y-59586000D02*
X136591000Y-59563000D01*
X132932249Y-65241249D02*
X136627751Y-65241249D01*
X136627751Y-65241249D02*
X137287000Y-64582000D01*
X137287000Y-64582000D02*
X137287000Y-64432000D01*
X131042606Y-66339588D02*
X132140945Y-65241249D01*
X132140945Y-65241249D02*
X132932249Y-65241249D01*
X135759000Y-57154000D02*
X135382000Y-57531000D01*
X135382000Y-57531000D02*
X135382000Y-58264800D01*
X136596000Y-57154000D02*
X135759000Y-57154000D01*
X136596000Y-57804000D02*
X135842800Y-57804000D01*
X135842800Y-57804000D02*
X135382000Y-58264800D01*
X135382000Y-58264800D02*
X135382000Y-59309000D01*
X135636000Y-59563000D02*
X136591000Y-59563000D01*
X135382000Y-59309000D02*
X135636000Y-59563000D01*
G04 #@! TO.N,/SWDIO*
X105156000Y-42314000D02*
X105156000Y-41484000D01*
X103733589Y-51409589D02*
X103733589Y-43736411D01*
X120153161Y-64571821D02*
X119728898Y-64147558D01*
X103733589Y-43736411D02*
X105156000Y-42314000D01*
X116471558Y-64147558D02*
X103733589Y-51409589D01*
X119728898Y-64147558D02*
X116471558Y-64147558D01*
G04 #@! TO.N,/SWCLK*
X104987358Y-43434000D02*
X105306000Y-43434000D01*
X105306000Y-43434000D02*
X106426000Y-42314000D01*
X106426000Y-42314000D02*
X106426000Y-41484000D01*
X104140000Y-51054000D02*
X104140000Y-44281358D01*
X104140000Y-44281358D02*
X104987358Y-43434000D01*
X116586000Y-63500000D02*
X104140000Y-51054000D01*
X120506715Y-64218268D02*
X119788447Y-63500000D01*
X119788447Y-63500000D02*
X116586000Y-63500000D01*
G04 #@! TO.N,/CLK*
X100895000Y-86238000D02*
X100895000Y-80911800D01*
X100895000Y-80911800D02*
X101785800Y-80021000D01*
X101785800Y-80021000D02*
X102714000Y-80021000D01*
X101495000Y-86838000D02*
X100895000Y-86238000D01*
X102748200Y-86838000D02*
X101495000Y-86838000D01*
X102945000Y-87738000D02*
X102945000Y-87034800D01*
X102945000Y-87034800D02*
X102748200Y-86838000D01*
X102945000Y-94488000D02*
X102945000Y-89588000D01*
X102945000Y-89588000D02*
X102945000Y-87738000D01*
G04 #@! TO.N,/WR*
X101785800Y-81321000D02*
X102714000Y-81321000D01*
X101277788Y-86099051D02*
X101277788Y-81829012D01*
X103892589Y-86482389D02*
X101661126Y-86482389D01*
X104445000Y-87034800D02*
X103892589Y-86482389D01*
X101277788Y-81829012D02*
X101785800Y-81321000D01*
X104445000Y-87738000D02*
X104445000Y-87034800D01*
X101661126Y-86482389D02*
X101277788Y-86099051D01*
X104445000Y-94488000D02*
X104445000Y-90438000D01*
X104445000Y-90438000D02*
X104445000Y-87738000D01*
G04 #@! TO.N,/RD*
X105945000Y-94488000D02*
X105945000Y-90688000D01*
X105945000Y-90688000D02*
X105945000Y-87738000D01*
X101684199Y-82722601D02*
X101785800Y-82621000D01*
X101880266Y-86126778D02*
X101684199Y-85930711D01*
X101684199Y-85930711D02*
X101684199Y-82722601D01*
X101785800Y-82621000D02*
X102714000Y-82621000D01*
X105945000Y-87738000D02*
X104333778Y-86126778D01*
X104333778Y-86126778D02*
X101880266Y-86126778D01*
G04 #@! TO.N,/CS*
X107445000Y-94488000D02*
X107445000Y-90138000D01*
X107445000Y-90138000D02*
X107445000Y-87738000D01*
X105988971Y-85578771D02*
X105550765Y-85578771D01*
X107445000Y-87034800D02*
X105988971Y-85578771D01*
X105550765Y-85578771D02*
X105011950Y-85578771D01*
X107445000Y-87738000D02*
X107445000Y-87034800D01*
X102714000Y-83921000D02*
X104739190Y-83921000D01*
X104739190Y-83921000D02*
X104775000Y-83885190D01*
G04 #@! TO.N,/A0*
X108945000Y-94488000D02*
X108945000Y-90588000D01*
X108945000Y-90588000D02*
X108945000Y-87738000D01*
X108945000Y-85552000D02*
X108945000Y-87738000D01*
X108945000Y-85552000D02*
X108614000Y-85221000D01*
G04 #@! TO.N,/A1*
X110445000Y-94488000D02*
X110445000Y-89338000D01*
X110445000Y-89338000D02*
X110445000Y-87738000D01*
X109643801Y-84022601D02*
X109643801Y-86233601D01*
X109643801Y-86233601D02*
X110445000Y-87034800D01*
X110445000Y-87034800D02*
X110445000Y-87738000D01*
X109542200Y-83921000D02*
X108614000Y-83921000D01*
X109643801Y-84022601D02*
X109542200Y-83921000D01*
G04 #@! TO.N,/A2*
X111945000Y-89288000D02*
X111945000Y-94488000D01*
X111945000Y-89288000D02*
X111945000Y-87738000D01*
X111945000Y-87738000D02*
X110050212Y-85843212D01*
X109542200Y-82621000D02*
X108614000Y-82621000D01*
X110050212Y-85843212D02*
X110050212Y-83129012D01*
X110050212Y-83129012D02*
X109542200Y-82621000D01*
G04 #@! TO.N,/A3*
X113445000Y-89388000D02*
X113445000Y-94488000D01*
X113445000Y-89388000D02*
X113445000Y-87738000D01*
X111425071Y-86668071D02*
X110540822Y-85783822D01*
X110540822Y-85783822D02*
X110540822Y-82319622D01*
X111425071Y-86688000D02*
X111425071Y-86668071D01*
X111503905Y-86766834D02*
X111425071Y-86688000D01*
X112431036Y-86766834D02*
X111503905Y-86766834D01*
X113402202Y-87738000D02*
X112431036Y-86766834D01*
X113445000Y-87738000D02*
X113402202Y-87738000D01*
X110540822Y-82319622D02*
X109542200Y-81321000D01*
X109542200Y-81321000D02*
X108614000Y-81321000D01*
G04 #@! TO.N,/A4*
X114945000Y-87034800D02*
X114644424Y-86734224D01*
X114945000Y-87738000D02*
X114945000Y-87034800D01*
X112578334Y-86411223D02*
X111671132Y-86411223D01*
X111945800Y-80021000D02*
X112874000Y-80021000D01*
X111671128Y-86411220D02*
X110947233Y-85687325D01*
X112901335Y-86734224D02*
X112578334Y-86411223D01*
X111671132Y-86411223D02*
X111671128Y-86411220D01*
X114644424Y-86734224D02*
X112901335Y-86734224D01*
X110947233Y-85687325D02*
X110947233Y-81019567D01*
X110947233Y-81019567D02*
X111945800Y-80021000D01*
X114945000Y-90138000D02*
X114945000Y-94488000D01*
X114945000Y-90138000D02*
X114945000Y-87738000D01*
G04 #@! TO.N,/A5*
X116445000Y-87034800D02*
X115788813Y-86378613D01*
X111818428Y-86055611D02*
X111353644Y-85590826D01*
X116445000Y-87738000D02*
X116445000Y-87034800D01*
X111353644Y-85590826D02*
X111353644Y-81913156D01*
X113048633Y-86378613D02*
X112725632Y-86055612D01*
X111945800Y-81321000D02*
X112874000Y-81321000D01*
X115788813Y-86378613D02*
X113048633Y-86378613D01*
X111353644Y-81913156D02*
X111945800Y-81321000D01*
X112725632Y-86055612D02*
X111818428Y-86055611D01*
X116445000Y-89438000D02*
X116445000Y-94488000D01*
X116445000Y-89438000D02*
X116445000Y-87738000D01*
G04 #@! TO.N,/A6*
X111945800Y-82621000D02*
X112874000Y-82621000D01*
X113195931Y-86023002D02*
X112872930Y-85700001D01*
X112872930Y-85700001D02*
X111965727Y-85700001D01*
X117945000Y-87034800D02*
X116933202Y-86023002D01*
X116933202Y-86023002D02*
X113195931Y-86023002D01*
X111965727Y-85700001D02*
X111760055Y-85494328D01*
X111760055Y-82806745D02*
X111945800Y-82621000D01*
X111760055Y-85494328D02*
X111760055Y-82806745D01*
X117945000Y-87738000D02*
X117945000Y-87034800D01*
X117945000Y-88888000D02*
X117945000Y-94488000D01*
X117945000Y-88888000D02*
X117945000Y-87738000D01*
G04 #@! TO.N,/A7*
X119445000Y-94488000D02*
X119445000Y-89438000D01*
X119445000Y-89438000D02*
X119445000Y-87738000D01*
X119445000Y-87738000D02*
X119445000Y-87034800D01*
X119445000Y-87034800D02*
X119394199Y-86983999D01*
X118606999Y-86983999D02*
X115544000Y-83921000D01*
X119394199Y-86983999D02*
X118606999Y-86983999D01*
X115544000Y-83921000D02*
X112874000Y-83921000D01*
G04 #@! TO.N,/A8*
X120945000Y-89438000D02*
X120945000Y-94488000D01*
X120945000Y-89438000D02*
X120945000Y-87738000D01*
X120945000Y-86401000D02*
X119765000Y-85221000D01*
X120945000Y-87738000D02*
X120945000Y-87034800D01*
X120945000Y-87034800D02*
X120945000Y-86401000D01*
X119765000Y-85221000D02*
X118774000Y-85221000D01*
G04 #@! TO.N,/A9*
X122445000Y-90038000D02*
X122445000Y-94488000D01*
X122445000Y-90038000D02*
X122445000Y-87738000D01*
X119803801Y-84370801D02*
X122445000Y-87012000D01*
X122445000Y-87012000D02*
X122445000Y-87738000D01*
X119803801Y-84370801D02*
X119803801Y-84022601D01*
X119803801Y-84022601D02*
X119702200Y-83921000D01*
X119702200Y-83921000D02*
X118774000Y-83921000D01*
G04 #@! TO.N,/A10*
X123945000Y-89988000D02*
X123945000Y-94488000D01*
X123945000Y-89988000D02*
X123945000Y-87738000D01*
X123945000Y-87034800D02*
X123945000Y-87738000D01*
X122604781Y-86659612D02*
X123569812Y-86659612D01*
X120210212Y-84265043D02*
X122604781Y-86659612D01*
X120210212Y-83129012D02*
X120210212Y-84265043D01*
X118774000Y-82621000D02*
X119702200Y-82621000D01*
X123569812Y-86659612D02*
X123945000Y-87034800D01*
X119702200Y-82621000D02*
X120210212Y-83129012D01*
G04 #@! TO.N,/A11*
X125445000Y-89638000D02*
X125445000Y-94488000D01*
X125445000Y-89638000D02*
X125445000Y-87738000D01*
X120645199Y-84062697D02*
X120695999Y-84062697D01*
X120695999Y-84247921D02*
X122752079Y-86304001D01*
X120695999Y-84062697D02*
X120695999Y-84247921D01*
X122752079Y-86304001D02*
X124714201Y-86304001D01*
X124714201Y-86304001D02*
X125445000Y-87034800D01*
X125445000Y-87034800D02*
X125445000Y-87738000D01*
X119583198Y-81321000D02*
X118774000Y-81321000D01*
X120645199Y-84062697D02*
X120645199Y-82383001D01*
X120645199Y-82383001D02*
X119583198Y-81321000D01*
G04 #@! TO.N,/A12*
X126945000Y-94488000D02*
X126945000Y-89688000D01*
X126945000Y-89688000D02*
X126945000Y-87738000D01*
X130945000Y-85488000D02*
X131670000Y-84763000D01*
X131670000Y-84763000D02*
X131670000Y-83688000D01*
X128491800Y-85488000D02*
X130945000Y-85488000D01*
X126945000Y-87738000D02*
X126945000Y-87034800D01*
X126945000Y-87034800D02*
X128491800Y-85488000D01*
X126945000Y-94488000D02*
X126945000Y-91988000D01*
G04 #@! TO.N,/A13*
X128445000Y-94488000D02*
X128445000Y-89888000D01*
X128445000Y-89888000D02*
X128445000Y-87738000D01*
X132970000Y-84616200D02*
X132970000Y-83688000D01*
X128445000Y-87738000D02*
X128445000Y-87034800D01*
X128445000Y-87034800D02*
X129347411Y-86132389D01*
X131453811Y-86132389D02*
X132970000Y-84616200D01*
X129347411Y-86132389D02*
X131453811Y-86132389D01*
G04 #@! TO.N,/A14*
X129945000Y-89738000D02*
X129945000Y-94488000D01*
X129945000Y-89738000D02*
X129945000Y-87738000D01*
X134270000Y-84616200D02*
X134270000Y-83688000D01*
X131692092Y-86488000D02*
X132297701Y-85882391D01*
X130491800Y-86488000D02*
X131692092Y-86488000D01*
X133003809Y-85882391D02*
X134270000Y-84616200D01*
X132297701Y-85882391D02*
X133003809Y-85882391D01*
X129945000Y-87034800D02*
X130491800Y-86488000D01*
X129945000Y-87738000D02*
X129945000Y-87034800D01*
G04 #@! TO.N,/A15*
X131445000Y-94488000D02*
X131445000Y-89988000D01*
X131445000Y-89988000D02*
X131445000Y-87738000D01*
X135570000Y-84616200D02*
X135570000Y-83688000D01*
X133844502Y-85632389D02*
X134553811Y-85632389D01*
X132945000Y-86238000D02*
X133238891Y-86238000D01*
X134553811Y-85632389D02*
X135570000Y-84616200D01*
X133238891Y-86238000D02*
X133844502Y-85632389D01*
X131445000Y-87738000D02*
X132945000Y-86238000D01*
G04 #@! TO.N,/RESET*
X144945000Y-94488000D02*
X144945000Y-89638000D01*
X144945000Y-89638000D02*
X144945000Y-87738000D01*
X136271000Y-70773000D02*
X136271000Y-70723000D01*
X137941609Y-72443609D02*
X136271000Y-70773000D01*
X141695000Y-80988000D02*
X141695000Y-75543800D01*
X141695000Y-75543800D02*
X138594809Y-72443609D01*
X138594809Y-72443609D02*
X137941609Y-72443609D01*
X144945000Y-84238000D02*
X144445000Y-83738000D01*
X144945000Y-87738000D02*
X144945000Y-84238000D01*
G04 #@! TO.N,/DATA_OE*
X124145000Y-73876815D02*
X124145000Y-73338000D01*
X123335142Y-74754159D02*
X124145000Y-73944301D01*
X124145000Y-73944301D02*
X124145000Y-73876815D01*
X137780854Y-69561788D02*
X137957066Y-69738000D01*
X137957066Y-69738000D02*
X139445000Y-69738000D01*
X127414569Y-68632389D02*
X131080599Y-68632389D01*
X138195000Y-69147642D02*
X138195000Y-67838000D01*
X131152316Y-68704106D02*
X133903464Y-68704106D01*
X126396489Y-69650469D02*
X127414569Y-68632389D01*
X140407202Y-67588000D02*
X140645000Y-67350202D01*
X134761146Y-69561788D02*
X137780854Y-69561788D01*
X137780854Y-69561788D02*
X138195000Y-69147642D01*
X140645000Y-63625798D02*
X139945402Y-62926200D01*
X138195000Y-67838000D02*
X138445000Y-67588000D01*
X131080599Y-68632389D02*
X131152316Y-68704106D01*
X139945402Y-62926200D02*
X139827000Y-62926200D01*
X138445000Y-67588000D02*
X140407202Y-67588000D01*
X133903464Y-68704106D02*
X134761146Y-69561788D01*
X140645000Y-67350202D02*
X140645000Y-63625798D01*
X139827000Y-62926200D02*
X138768000Y-61867200D01*
X138768000Y-61867200D02*
X138768000Y-61214000D01*
X137541000Y-56695800D02*
X137541000Y-60137000D01*
X138618000Y-61214000D02*
X138768000Y-61214000D01*
X137541000Y-60137000D02*
X138618000Y-61214000D01*
X136596000Y-56504000D02*
X137349200Y-56504000D01*
X137349200Y-56504000D02*
X137541000Y-56695800D01*
G04 #@! TO.N,/DIR*
X142195000Y-67988000D02*
X141101800Y-67988000D01*
X141101800Y-67988000D02*
X140816911Y-67703111D01*
X140816911Y-67703111D02*
X140795000Y-67703111D01*
X136045000Y-72688000D02*
X136045000Y-71938000D01*
X136045000Y-71938000D02*
X135145000Y-71038000D01*
X135145000Y-71038000D02*
X135145000Y-70438000D01*
X138645000Y-72038000D02*
X140207202Y-72038000D01*
X140207202Y-72038000D02*
X140795000Y-71450202D01*
X138300999Y-70793999D02*
X138300999Y-71693999D01*
X133495000Y-73838000D02*
X133875999Y-74218999D01*
X140795000Y-71450202D02*
X140795000Y-67703111D01*
X135145000Y-70438000D02*
X135564001Y-70018999D01*
X134514001Y-74218999D02*
X136045000Y-72688000D01*
X135564001Y-70018999D02*
X137525999Y-70018999D01*
X137525999Y-70018999D02*
X138300999Y-70793999D01*
X133875999Y-74218999D02*
X134514001Y-74218999D01*
X138300999Y-71693999D02*
X138645000Y-72038000D01*
X140795000Y-67703111D02*
X141045000Y-67453111D01*
X140411198Y-62051186D02*
X140411198Y-61392814D01*
X140411198Y-61392814D02*
X141559801Y-60244211D01*
X141045000Y-67453111D02*
X141045000Y-62684988D01*
X141559801Y-58366443D02*
X141441199Y-58247841D01*
X141045000Y-62684988D02*
X140411198Y-62051186D01*
X141559801Y-60244211D02*
X141559801Y-58366443D01*
X141441199Y-58247841D02*
X141441199Y-57255601D01*
X141441199Y-57255601D02*
X141542800Y-57154000D01*
X141542800Y-57154000D02*
X142296000Y-57154000D01*
X128733730Y-76345824D02*
X128960399Y-76345824D01*
X127566512Y-74106493D02*
X127566512Y-75178606D01*
X127153518Y-73693499D02*
X127566512Y-74106493D01*
X127566512Y-75178606D02*
X128733730Y-76345824D01*
G04 #@! TO.N,/3V_D0*
X130689052Y-65986035D02*
X134620000Y-62055087D01*
X134620000Y-62055087D02*
X134620000Y-57076800D01*
X134620000Y-57076800D02*
X135842800Y-55854000D01*
X135842800Y-55854000D02*
X136596000Y-55854000D01*
G04 #@! TO.N,/3V_D1*
X133858000Y-62109981D02*
X133858000Y-57188800D01*
X130335499Y-65632482D02*
X133858000Y-62109981D01*
X133858000Y-57188800D02*
X135842800Y-55204000D01*
X135842800Y-55204000D02*
X136596000Y-55204000D01*
G04 #@! TO.N,/3V_D2*
X135842800Y-54554000D02*
X136596000Y-54554000D01*
X133451589Y-61809285D02*
X133451589Y-56945211D01*
X133451589Y-56945211D02*
X135842800Y-54554000D01*
X129981946Y-65278928D02*
X133451589Y-61809285D01*
G04 #@! TO.N,/3V_D3*
X135842800Y-53904000D02*
X136596000Y-53904000D01*
X129628392Y-64925375D02*
X132852445Y-61701322D01*
X132852445Y-61701322D02*
X132852445Y-56894355D01*
X132852445Y-56894355D02*
X135842800Y-53904000D01*
G04 #@! TO.N,/3V_D4*
X135842800Y-53254000D02*
X136596000Y-53254000D01*
X128567732Y-63864715D02*
X132496834Y-59935613D01*
X132496834Y-59935613D02*
X132496834Y-56599966D01*
X132496834Y-56599966D02*
X135842800Y-53254000D01*
G04 #@! TO.N,/3V_D5*
X128214179Y-63511161D02*
X132141223Y-59584117D01*
X135842800Y-52604000D02*
X136596000Y-52604000D01*
X132141223Y-56305577D02*
X135842800Y-52604000D01*
X132141223Y-59584117D02*
X132141223Y-56305577D01*
G04 #@! TO.N,/3V_D6*
X135842800Y-51954000D02*
X136596000Y-51954000D01*
X131785612Y-56011188D02*
X135842800Y-51954000D01*
X131785612Y-59232621D02*
X131785612Y-56011188D01*
X127860625Y-63157608D02*
X131785612Y-59232621D01*
G04 #@! TO.N,/3V_D7*
X130938125Y-59373001D02*
X131099801Y-59373001D01*
X131099801Y-59373001D02*
X131430001Y-59042801D01*
X127507072Y-62804054D02*
X130938125Y-59373001D01*
X131430001Y-59042801D02*
X131430001Y-55716799D01*
X135842800Y-51304000D02*
X136596000Y-51304000D01*
X131430001Y-55716799D02*
X135842800Y-51304000D01*
G04 #@! TO.N,/GB_RESET*
X137287000Y-66632000D02*
X138301000Y-66632000D01*
X138301000Y-66632000D02*
X139445000Y-65488000D01*
X137287000Y-66632000D02*
X137940200Y-66632000D01*
X137940200Y-66632000D02*
X138195000Y-66377200D01*
X138195000Y-66377200D02*
X138195000Y-62503000D01*
X138195000Y-62503000D02*
X137922000Y-62230000D01*
X122682000Y-60198000D02*
X122682000Y-60736699D01*
X122682000Y-60736699D02*
X123335142Y-61389841D01*
X122936000Y-59944000D02*
X122682000Y-60198000D01*
X124159106Y-59944000D02*
X122936000Y-59944000D01*
X129032000Y-56515000D02*
X127588106Y-56515000D01*
X127588106Y-56515000D02*
X124159106Y-59944000D01*
X137221000Y-68723000D02*
X137221000Y-66698000D01*
X137221000Y-66698000D02*
X137287000Y-66632000D01*
G04 #@! TO.N,/SAMD_RESET*
X122745000Y-53988000D02*
X119017791Y-50260791D01*
X119017791Y-50260791D02*
X118522817Y-49765817D01*
X121850611Y-62026630D02*
X121850611Y-59735297D01*
X122745000Y-58840908D02*
X122745000Y-53988000D01*
X122274482Y-62450501D02*
X121850611Y-62026630D01*
X121850611Y-59735297D02*
X122745000Y-58840908D01*
X113095000Y-53188000D02*
X113795035Y-52487965D01*
X113795035Y-52487965D02*
X114544965Y-52487965D01*
X114544965Y-52487965D02*
X114545000Y-52488000D01*
X118522817Y-49765817D02*
X118133909Y-50154725D01*
X111506000Y-44157200D02*
X110236000Y-42887200D01*
X114545000Y-52488000D02*
X111455198Y-49398198D01*
X118133909Y-50154725D02*
X118133909Y-50699091D01*
X118133909Y-50699091D02*
X116345000Y-52488000D01*
X116345000Y-52488000D02*
X114545000Y-52488000D01*
X111455198Y-49398198D02*
X111455198Y-46660814D01*
X111455198Y-46660814D02*
X111506000Y-46610012D01*
X111506000Y-46610012D02*
X111506000Y-44157200D01*
X110236000Y-42887200D02*
X110236000Y-41484000D01*
G04 #@! TO.N,VBUS*
X126618000Y-47244000D02*
X126618000Y-44068000D01*
X126618000Y-44068000D02*
X125950000Y-43400000D01*
X125950000Y-43400000D02*
X125950000Y-42426000D01*
G04 #@! TO.N,/3V_A12*
X130445000Y-74488000D02*
X132320000Y-76363000D01*
X132320000Y-76363000D02*
X132320000Y-77788000D01*
X128921285Y-71925732D02*
X130445000Y-73449447D01*
X130445000Y-73449447D02*
X130445000Y-74488000D01*
G04 #@! TO.N,/3V_A13*
X131195000Y-74238000D02*
X133620000Y-76663000D01*
X133620000Y-76663000D02*
X133620000Y-77788000D01*
X129274839Y-71572179D02*
X131195000Y-73492340D01*
X131195000Y-73492340D02*
X131195000Y-74238000D01*
G04 #@! TO.N,/3V_A14*
X131945000Y-73884800D02*
X131945000Y-73535233D01*
X131945000Y-73535233D02*
X129628392Y-71218625D01*
X134920000Y-77788000D02*
X134920000Y-76859800D01*
X134920000Y-76859800D02*
X131945000Y-73884800D01*
G04 #@! TO.N,/3V_A15*
X124499801Y-72702999D02*
X124843824Y-73047022D01*
X123052298Y-73622789D02*
X123052298Y-73490900D01*
X123052298Y-73490900D02*
X123840199Y-72702999D01*
X124843824Y-73299907D02*
X125224823Y-73680906D01*
X123840199Y-72702999D02*
X124499801Y-72702999D01*
X122628035Y-74047052D02*
X123052298Y-73622789D01*
X125224823Y-73886124D02*
X125224823Y-73680906D01*
X126092858Y-74754159D02*
X125224823Y-73886124D01*
X124843824Y-73047022D02*
X124843824Y-73299907D01*
X132859999Y-73743125D02*
X132859999Y-74142801D01*
X129981946Y-70865072D02*
X132859999Y-73743125D01*
X132859999Y-74142801D02*
X134955198Y-76238000D01*
X134955198Y-76238000D02*
X135695000Y-76238000D01*
X127342298Y-71093611D02*
X126839389Y-71093611D01*
X129981946Y-70865072D02*
X129557683Y-70440809D01*
X129557683Y-70440809D02*
X127995100Y-70440809D01*
X126839389Y-71093611D02*
X126325999Y-71607001D01*
X127995100Y-70440809D02*
X127342298Y-71093611D01*
X126325999Y-71607001D02*
X125945000Y-71988000D01*
X135695000Y-76238000D02*
X135870000Y-76238000D01*
X135870000Y-76238000D02*
X137120000Y-74988000D01*
X137120000Y-74988000D02*
X137945000Y-74988000D01*
X135695000Y-76238000D02*
X136220000Y-76763000D01*
X136220000Y-76763000D02*
X136220000Y-77788000D01*
G04 #@! TO.N,/3V_A11*
X122542901Y-76878612D02*
X120582125Y-76878612D01*
X122937014Y-77272725D02*
X122542901Y-76878612D01*
X118126610Y-78500205D02*
X117044758Y-79582057D01*
X118855003Y-78500205D02*
X118126610Y-78500205D01*
X119654502Y-77700706D02*
X118855003Y-78500205D01*
X129017349Y-77878613D02*
X126332363Y-77878613D01*
X117044758Y-79582057D02*
X116505943Y-79582057D01*
X130052612Y-73764165D02*
X130052612Y-76843350D01*
X125726475Y-77272725D02*
X122937014Y-77272725D01*
X130052612Y-76843350D02*
X129017349Y-77878613D01*
X128567732Y-72279285D02*
X130052612Y-73764165D01*
X119760031Y-77700706D02*
X119654502Y-77700706D01*
X120582125Y-76878612D02*
X119760031Y-77700706D01*
X126332363Y-77878613D02*
X125726475Y-77272725D01*
X113933459Y-80671000D02*
X112874000Y-80671000D01*
X115189000Y-82550000D02*
X114807991Y-82168991D01*
X114807991Y-82168991D02*
X114807991Y-81545532D01*
X114807991Y-81545532D02*
X113933459Y-80671000D01*
G04 #@! TO.N,/3V_A10*
X120635184Y-76250802D02*
X119591691Y-77294295D01*
X116362800Y-78767350D02*
X115823985Y-78767350D01*
X117879821Y-78093794D02*
X117206265Y-78767350D01*
X119486162Y-77294295D02*
X118686663Y-78093794D01*
X119591691Y-77294295D02*
X119486162Y-77294295D01*
X123084312Y-76917114D02*
X122418000Y-76250802D01*
X122418000Y-76250802D02*
X120635184Y-76250802D01*
X118686663Y-78093794D02*
X117879821Y-78093794D01*
X125945615Y-76917114D02*
X123084312Y-76917114D01*
X128798209Y-77523002D02*
X126551503Y-77523002D01*
X129646201Y-76675010D02*
X128798209Y-77523002D01*
X128214179Y-72632839D02*
X129646201Y-74064861D01*
X129646201Y-74064861D02*
X129646201Y-76675010D01*
X126551503Y-77523002D02*
X125945615Y-76917114D01*
X117206265Y-78767350D02*
X116362800Y-78767350D01*
X114025907Y-81971000D02*
X114122190Y-81874717D01*
X112874000Y-81971000D02*
X114025907Y-81971000D01*
G04 #@! TO.N,/3V_A9*
X119239189Y-75835585D02*
X119239189Y-76092995D01*
X120491558Y-74769316D02*
X120305458Y-74769316D01*
X121920928Y-73339946D02*
X120491558Y-74769316D01*
X120305458Y-74769316D02*
X119239189Y-75835585D01*
X119239189Y-76092995D02*
X119239189Y-76631810D01*
X114156804Y-83271000D02*
X114351494Y-83076310D01*
X112874000Y-83271000D02*
X114156804Y-83271000D01*
G04 #@! TO.N,/3V_A8*
X115165843Y-84571000D02*
X115195537Y-84600694D01*
X112874000Y-84571000D02*
X115165843Y-84571000D01*
X117654182Y-76869177D02*
X117654182Y-77407992D01*
X121143112Y-73410655D02*
X121089368Y-73410655D01*
X121567375Y-72986392D02*
X121143112Y-73410655D01*
X121089368Y-73410655D02*
X117654182Y-76845841D01*
X117654182Y-76845841D02*
X117654182Y-76869177D01*
G04 #@! TO.N,/3V_A7*
X121213821Y-72632839D02*
X120789558Y-73057102D01*
X117134129Y-76960913D02*
X116537225Y-77557817D01*
X117134129Y-76791143D02*
X117134129Y-76960913D01*
X120789558Y-73057102D02*
X120789558Y-73135714D01*
X120789558Y-73135714D02*
X117134129Y-76791143D01*
X116537225Y-77557817D02*
X116176032Y-77557817D01*
X113918951Y-77472685D02*
X113992320Y-77399316D01*
X115214411Y-81111660D02*
X115214411Y-80984660D01*
X115874801Y-81772050D02*
X115214411Y-81111660D01*
X117845800Y-84571000D02*
X115874801Y-82600001D01*
X113918951Y-79689200D02*
X113918951Y-77472685D01*
X115874801Y-82600001D02*
X115874801Y-81772050D01*
X115214411Y-80984660D02*
X113918951Y-79689200D01*
X118774000Y-84571000D02*
X117845800Y-84571000D01*
X113992320Y-77399316D02*
X113992320Y-76860501D01*
G04 #@! TO.N,/3V_A6*
X114325363Y-78101484D02*
X114677409Y-77749439D01*
X114325362Y-79520860D02*
X114325363Y-78101484D01*
X115620822Y-80943320D02*
X115620822Y-80816320D01*
X114677409Y-77749439D02*
X114677409Y-76891952D01*
X114677409Y-76891952D02*
X114709862Y-76859499D01*
X114709862Y-76563744D02*
X114423706Y-76277588D01*
X114709862Y-76859499D02*
X114709862Y-76563744D01*
X117948502Y-83271000D02*
X115620822Y-80943320D01*
X114423706Y-76277588D02*
X114042707Y-75896589D01*
X118774000Y-83271000D02*
X117948502Y-83271000D01*
X115620822Y-80816320D02*
X114325362Y-79520860D01*
X116829326Y-76250811D02*
X116448327Y-76631810D01*
X120361354Y-72973273D02*
X117083816Y-76250811D01*
X120361354Y-72778199D02*
X120361354Y-72973273D01*
X120860268Y-72279285D02*
X120361354Y-72778199D01*
X117083816Y-76250811D02*
X116829326Y-76250811D01*
G04 #@! TO.N,/3V_A5*
X115116273Y-77027784D02*
X115116273Y-75393626D01*
X115083820Y-77917779D02*
X115083820Y-77060237D01*
X114731773Y-79352520D02*
X114731773Y-78269825D01*
X117350253Y-81971000D02*
X114731773Y-79352520D01*
X114731773Y-78269825D02*
X115083820Y-77917779D01*
X118774000Y-81971000D02*
X117350253Y-81971000D01*
X115083820Y-77060237D02*
X115116273Y-77027784D01*
X115062703Y-75340056D02*
X115062703Y-74801241D01*
X115116273Y-75393626D02*
X115062703Y-75340056D01*
X116822402Y-74195831D02*
X116426642Y-74195831D01*
X119799608Y-71218625D02*
X116822402Y-74195831D01*
G04 #@! TO.N,/3V_A4*
X115760813Y-76957995D02*
X115760813Y-74544988D01*
X115490231Y-78114002D02*
X115490231Y-77228577D01*
X118774000Y-80671000D02*
X116625004Y-80671000D01*
X118318152Y-71289335D02*
X119021791Y-71289335D01*
X115740841Y-73866646D02*
X118318152Y-71289335D01*
X115740841Y-74525016D02*
X115740841Y-73866646D01*
X115490231Y-77228577D02*
X115760813Y-76957995D01*
X119021791Y-71289335D02*
X119446054Y-70865072D01*
X115760813Y-74544988D02*
X115740841Y-74525016D01*
X115138184Y-78466049D02*
X115490231Y-78114002D01*
X115138184Y-79184180D02*
X115138184Y-78466049D01*
X116625004Y-80671000D02*
X115138184Y-79184180D01*
G04 #@! TO.N,/3V_CLK*
X125297099Y-72997388D02*
X125750301Y-72997388D01*
X123620593Y-72347388D02*
X124647099Y-72347388D01*
X122864982Y-73102999D02*
X123620593Y-72347388D01*
X125750301Y-72997388D02*
X126375702Y-73622789D01*
X126375702Y-73622789D02*
X126799965Y-74047052D01*
X124647099Y-72347388D02*
X125297099Y-72997388D01*
X133695000Y-71738000D02*
X131407858Y-69450858D01*
X131407858Y-69450858D02*
X131396159Y-69450858D01*
X127956998Y-68988000D02*
X130933301Y-68988000D01*
X130933301Y-68988000D02*
X131396159Y-69450858D01*
X125825999Y-71118999D02*
X127956998Y-68988000D01*
X124695000Y-70738000D02*
X125075999Y-71118999D01*
X125075999Y-71118999D02*
X125825999Y-71118999D01*
X122864982Y-73102999D02*
X122864982Y-72568018D01*
X122864982Y-72568018D02*
X123695000Y-71738000D01*
X122274482Y-73693499D02*
X122864982Y-73102999D01*
X120634644Y-75333337D02*
X120634644Y-75455118D01*
X122274482Y-73693499D02*
X120634644Y-75333337D01*
X110236000Y-80772000D02*
X108715000Y-80772000D01*
X108715000Y-80772000D02*
X108614000Y-80671000D01*
G04 #@! TO.N,/3V_WR*
X123883815Y-76238000D02*
X123345000Y-76238000D01*
X126446412Y-74400606D02*
X126870675Y-74824869D01*
X125945000Y-76238000D02*
X123883815Y-76238000D01*
X126870675Y-75312325D02*
X125945000Y-76238000D01*
X126870675Y-74824869D02*
X126870675Y-75312325D01*
X106745000Y-76438000D02*
X108195000Y-74988000D01*
X108195000Y-74988000D02*
X108195000Y-70488000D01*
X106913810Y-81971000D02*
X106857810Y-81915000D01*
X108614000Y-81971000D02*
X106913810Y-81971000D01*
G04 #@! TO.N,/3V_RD*
X105845000Y-76788000D02*
X105845000Y-75138000D01*
X105845000Y-75138000D02*
X105195000Y-74488000D01*
X108614000Y-83271000D02*
X107100882Y-83271000D01*
X107100882Y-83271000D02*
X107032488Y-83202606D01*
X122981588Y-74400606D02*
X122555000Y-74827194D01*
X122555000Y-74827194D02*
X122555000Y-75565000D01*
G04 #@! TO.N,/3V_CS*
X114045000Y-68388000D02*
X111001800Y-68388000D01*
X111001800Y-68388000D02*
X110445000Y-67831200D01*
X110445000Y-67831200D02*
X110445000Y-66738000D01*
X115896629Y-70298007D02*
X115896629Y-70439629D01*
X115896629Y-70439629D02*
X116245000Y-70788000D01*
X119001894Y-68704106D02*
X120650000Y-67056000D01*
X122397185Y-67056000D02*
X122936000Y-67056000D01*
X106045000Y-80149632D02*
X115896629Y-70298007D01*
X120650000Y-67056000D02*
X122397185Y-67056000D01*
X115896629Y-70298007D02*
X115896629Y-69548003D01*
X115896629Y-69548003D02*
X116740526Y-68704106D01*
X116740526Y-68704106D02*
X119001894Y-68704106D01*
X106045000Y-83439000D02*
X106045000Y-80149632D01*
X108614000Y-84571000D02*
X107177000Y-84571000D01*
X107177000Y-84571000D02*
X106045000Y-83439000D01*
X124714000Y-66167000D02*
X127679660Y-66167000D01*
X127679660Y-66167000D02*
X129274839Y-64571821D01*
G04 #@! TO.N,/3V_A0*
X106172000Y-84201000D02*
X105802000Y-84571000D01*
X115332704Y-70359022D02*
X105638589Y-80053135D01*
X119591415Y-66131396D02*
X119591415Y-67421246D01*
X103642200Y-84571000D02*
X102714000Y-84571000D01*
X105638589Y-83607340D02*
X106172000Y-84140750D01*
X105638589Y-80053135D02*
X105638589Y-83607340D01*
X116644029Y-68297695D02*
X115541018Y-69400706D01*
X119591415Y-67421246D02*
X118714966Y-68297695D01*
X115541018Y-69400706D02*
X115541018Y-70150709D01*
X119092501Y-65632482D02*
X119591415Y-66131396D01*
X105802000Y-84571000D02*
X103642200Y-84571000D01*
X115541018Y-70150709D02*
X115332704Y-70359022D01*
X118714966Y-68297695D02*
X116644029Y-68297695D01*
X106172000Y-84140750D02*
X106172000Y-84201000D01*
G04 #@! TO.N,/3V_A1*
X115185407Y-69253409D02*
X115185407Y-70003411D01*
X118738948Y-65986035D02*
X119163211Y-66410298D01*
X105029000Y-81884200D02*
X103642200Y-83271000D01*
X119163211Y-66410298D02*
X119163211Y-67274699D01*
X119163211Y-67274699D02*
X118546626Y-67891284D01*
X103642200Y-83271000D02*
X102714000Y-83271000D01*
X116547532Y-67891284D02*
X115185407Y-69253409D01*
X115185407Y-70003411D02*
X105029000Y-80159816D01*
X118546626Y-67891284D02*
X116547532Y-67891284D01*
X105029000Y-80159816D02*
X105029000Y-81884200D01*
G04 #@! TO.N,/3V_A2*
X103642200Y-81971000D02*
X102714000Y-81971000D01*
X118778593Y-67084566D02*
X118423265Y-67439894D01*
X104521000Y-81092200D02*
X103642200Y-81971000D01*
X104521000Y-80164908D02*
X104521000Y-81092200D01*
X114829796Y-69856113D02*
X104521000Y-80164908D01*
X114829796Y-69106112D02*
X114829796Y-69856113D01*
X118423265Y-67439894D02*
X116496014Y-67439894D01*
X118778593Y-66732787D02*
X118778593Y-67084566D01*
X118385394Y-66339588D02*
X118778593Y-66732787D01*
X116496014Y-67439894D02*
X114829796Y-69106112D01*
G04 #@! TO.N,/3V_A3*
X116679660Y-66693142D02*
X117755064Y-66693142D01*
X114474185Y-68898617D02*
X116679660Y-66693142D01*
X117755064Y-66693142D02*
X118031841Y-66693142D01*
X114474185Y-69708815D02*
X114474185Y-68898617D01*
X104013000Y-80170000D02*
X114474185Y-69708815D01*
X104013000Y-80300200D02*
X104013000Y-80170000D01*
X103642200Y-80671000D02*
X104013000Y-80300200D01*
X102714000Y-80671000D02*
X103642200Y-80671000D01*
G04 #@! TO.N,/USB_D-*
X125178200Y-48817830D02*
X125178200Y-43560301D01*
X125300000Y-43438501D02*
X125300000Y-43304200D01*
X130378200Y-54017830D02*
X125178200Y-48817830D01*
X130159999Y-58433199D02*
X130378200Y-58214998D01*
X130159999Y-59444020D02*
X130159999Y-58433199D01*
X125300000Y-43304200D02*
X125300000Y-42426000D01*
X127153518Y-62450501D02*
X130159999Y-59444020D01*
X125178200Y-43560301D02*
X125300000Y-43438501D01*
X130378200Y-58214998D02*
X130378200Y-54017830D01*
G04 #@! TO.N,/USB_D+*
X124650000Y-48864370D02*
X124650000Y-43304200D01*
X129971800Y-58079485D02*
X129971800Y-54186170D01*
X124650000Y-43304200D02*
X124650000Y-42426000D01*
X129776808Y-59120105D02*
X129776808Y-58274477D01*
X129776808Y-58274477D02*
X129971800Y-58079485D01*
X126799965Y-62096948D02*
X129776808Y-59120105D01*
X129971800Y-54186170D02*
X124650000Y-48864370D01*
G04 #@! TO.N,Net-(D3-Pad1)*
X135466000Y-39878000D02*
X135466000Y-41656000D01*
G04 #@! TO.N,/LED*
X125984000Y-53213000D02*
X123245999Y-55951001D01*
X123245999Y-55951001D02*
X123245999Y-58937001D01*
X122206222Y-60968028D02*
X122557325Y-61319131D01*
X122206222Y-59976778D02*
X122206222Y-60968028D01*
X122557325Y-61319131D02*
X122981588Y-61743394D01*
X123245999Y-58937001D02*
X122206222Y-59976778D01*
X129159000Y-50038000D02*
X133266000Y-45931000D01*
X133266000Y-45931000D02*
X133266000Y-41656000D01*
G04 #@! TO.N,+BATT*
X101219000Y-94222000D02*
X101219000Y-88168815D01*
X101445000Y-94448000D02*
X101219000Y-94222000D01*
X101219000Y-88168815D02*
X101219000Y-87630000D01*
X101346000Y-77089000D02*
X101346000Y-76550185D01*
X101346000Y-76550185D02*
X101473000Y-76423185D01*
X101473000Y-76423185D02*
X101473000Y-76344200D01*
X101473000Y-76344200D02*
X101473000Y-75691000D01*
G04 #@! TO.N,Net-(TP31-Pad1)*
X146445000Y-94488000D02*
X146445000Y-89238000D01*
X146445000Y-89238000D02*
X145795000Y-88588000D01*
X145795000Y-88588000D02*
X145795000Y-86441200D01*
X145795000Y-86441200D02*
X145795000Y-85738000D01*
G04 #@! TO.N,/SWO*
X119799608Y-64925375D02*
X119457209Y-64582976D01*
X119457209Y-64582976D02*
X116289976Y-64582976D01*
X116289976Y-64582976D02*
X103295000Y-51588000D01*
X103295000Y-51588000D02*
X103295000Y-40888000D01*
X103295000Y-40888000D02*
X104645000Y-39538000D01*
X104645000Y-39538000D02*
X107345000Y-39538000D01*
X107345000Y-39538000D02*
X107696000Y-39889000D01*
X107696000Y-39889000D02*
X107696000Y-41484000D01*
G04 #@! TO.N,Net-(C14-Pad2)*
X121495000Y-62378126D02*
X121495000Y-61488000D01*
X120695000Y-60638000D02*
X121195000Y-60138000D01*
X120349275Y-60983725D02*
X120695000Y-60638000D01*
X121495000Y-61488000D02*
X121495000Y-60438000D01*
X121495000Y-61488000D02*
X121495000Y-61438000D01*
X121495000Y-61438000D02*
X120695000Y-60638000D01*
X120100599Y-60983725D02*
X120349275Y-60983725D01*
X121195000Y-59888000D02*
X121516751Y-59566249D01*
X121516751Y-59566249D02*
X121516751Y-58309751D01*
X121495000Y-60438000D02*
X121195000Y-60138000D01*
X121195000Y-60138000D02*
X121195000Y-59888000D01*
X121195000Y-60138000D02*
X120416751Y-59359751D01*
X121920928Y-62804054D02*
X121495000Y-62378126D01*
X120416751Y-59359751D02*
X120466751Y-59359751D01*
X120466751Y-59359751D02*
X121516751Y-58309751D01*
X119289751Y-60488751D02*
X119289751Y-60486751D01*
X119289751Y-60486751D02*
X120416751Y-59359751D01*
X120100599Y-60983725D02*
X121496665Y-62379791D01*
X119784725Y-60983725D02*
X120100599Y-60983725D01*
X119289751Y-60488751D02*
X119784725Y-60983725D01*
X121496665Y-62379791D02*
X121920928Y-62804054D01*
G04 #@! TO.N,Net-(TP44-Pad1)*
X130795000Y-58738000D02*
X130795000Y-52888000D01*
X130795000Y-52888000D02*
X131945000Y-51738000D01*
X128921285Y-64218268D02*
X131651553Y-61488000D01*
X131651553Y-61488000D02*
X131895000Y-61488000D01*
G04 #@! TD*
D38*
G04 #@! TO.N,GND*
G36*
X142590000Y-42230074D02*
X142576091Y-42300000D01*
X142631195Y-42577028D01*
X142788119Y-42811881D01*
X143022972Y-42968805D01*
X143219321Y-43007861D01*
X143300000Y-43023909D01*
X143369925Y-43010000D01*
X148590000Y-43010000D01*
X148590001Y-86756200D01*
X148178350Y-86756200D01*
X148070400Y-86864150D01*
X148070400Y-87662600D01*
X148090400Y-87662600D01*
X148090400Y-87713400D01*
X148070400Y-87713400D01*
X148070400Y-88511850D01*
X148178350Y-88619800D01*
X148590001Y-88619800D01*
X148590001Y-91056200D01*
X148278350Y-91056200D01*
X148170400Y-91164150D01*
X148170400Y-94462600D01*
X148190400Y-94462600D01*
X148190400Y-94513400D01*
X148170400Y-94513400D01*
X148170400Y-94533400D01*
X148119600Y-94533400D01*
X148119600Y-94513400D01*
X148099600Y-94513400D01*
X148099600Y-94462600D01*
X148119600Y-94462600D01*
X148119600Y-91164150D01*
X148011650Y-91056200D01*
X147420188Y-91056200D01*
X147402809Y-91030191D01*
X147192765Y-90889843D01*
X147181600Y-90887622D01*
X147181600Y-89310540D01*
X147196029Y-89238000D01*
X147181600Y-89165459D01*
X147181600Y-89165456D01*
X147138861Y-88950593D01*
X147088623Y-88875407D01*
X147017151Y-88768441D01*
X147017149Y-88768439D01*
X146976058Y-88706942D01*
X146914560Y-88665850D01*
X146531600Y-88282891D01*
X146531600Y-87821350D01*
X147113200Y-87821350D01*
X147113200Y-88273891D01*
X147178938Y-88432595D01*
X147300405Y-88554063D01*
X147459110Y-88619800D01*
X147911650Y-88619800D01*
X148019600Y-88511850D01*
X148019600Y-87713400D01*
X147221150Y-87713400D01*
X147113200Y-87821350D01*
X146531600Y-87821350D01*
X146531600Y-87102109D01*
X147113200Y-87102109D01*
X147113200Y-87554650D01*
X147221150Y-87662600D01*
X148019600Y-87662600D01*
X148019600Y-86864150D01*
X147911650Y-86756200D01*
X147459110Y-86756200D01*
X147300405Y-86821937D01*
X147178938Y-86943405D01*
X147113200Y-87102109D01*
X146531600Y-87102109D01*
X146531600Y-86838378D01*
X146542765Y-86836157D01*
X146752809Y-86695809D01*
X146893157Y-86485765D01*
X146942440Y-86238000D01*
X146942440Y-85238000D01*
X146893157Y-84990235D01*
X146752809Y-84780191D01*
X146542765Y-84639843D01*
X146295000Y-84590560D01*
X145681600Y-84590560D01*
X145681600Y-84310540D01*
X145696029Y-84238000D01*
X145681600Y-84165459D01*
X145681600Y-84165456D01*
X145638861Y-83950593D01*
X145595160Y-83885190D01*
X145517151Y-83768441D01*
X145517149Y-83768439D01*
X145476058Y-83706942D01*
X145461000Y-83696881D01*
X145461000Y-83535905D01*
X145306324Y-83162482D01*
X145214374Y-83070532D01*
X146764561Y-81520345D01*
X146826058Y-81479254D01*
X146867149Y-81417757D01*
X146867151Y-81417755D01*
X146988861Y-81235603D01*
X146992943Y-81215081D01*
X147031600Y-81020740D01*
X147031600Y-81020737D01*
X147046029Y-80948196D01*
X147031600Y-80875656D01*
X147031600Y-55272338D01*
X147046029Y-55199799D01*
X147031600Y-55127260D01*
X147031600Y-55127256D01*
X146988861Y-54912393D01*
X146826058Y-54668742D01*
X146764558Y-54627649D01*
X143621351Y-51484442D01*
X143580258Y-51422942D01*
X143336607Y-51260139D01*
X143213081Y-51235568D01*
X143212962Y-51235488D01*
X143277800Y-51170650D01*
X143277800Y-51018109D01*
X143261600Y-50979000D01*
X143277800Y-50939891D01*
X143277800Y-50787350D01*
X143169850Y-50679400D01*
X142949273Y-50679400D01*
X142931890Y-50672200D01*
X142429350Y-50672200D01*
X142422150Y-50679400D01*
X142321400Y-50679400D01*
X142321400Y-50699400D01*
X142270600Y-50699400D01*
X142270600Y-50679400D01*
X142169850Y-50679400D01*
X142162650Y-50672200D01*
X141660110Y-50672200D01*
X141642727Y-50679400D01*
X141422150Y-50679400D01*
X141314200Y-50787350D01*
X141314200Y-50939891D01*
X141330400Y-50979000D01*
X141314200Y-51018109D01*
X141314200Y-51170650D01*
X141379038Y-51235488D01*
X141314520Y-51278598D01*
X141314200Y-51278598D01*
X141314200Y-51278812D01*
X141288191Y-51296191D01*
X141147843Y-51506235D01*
X141098560Y-51754000D01*
X141098560Y-52154000D01*
X141123424Y-52279000D01*
X141098560Y-52404000D01*
X141098560Y-52804000D01*
X141123424Y-52929000D01*
X141098560Y-53054000D01*
X141098560Y-53454000D01*
X141123424Y-53579000D01*
X141098560Y-53704000D01*
X141098560Y-54104000D01*
X141123424Y-54229000D01*
X141098560Y-54354000D01*
X141098560Y-54754000D01*
X141123424Y-54879000D01*
X141098560Y-55004000D01*
X141098560Y-55404000D01*
X141123424Y-55529000D01*
X141098560Y-55654000D01*
X141098560Y-56054000D01*
X141123424Y-56179000D01*
X141098560Y-56304000D01*
X141098560Y-56564932D01*
X141011742Y-56622942D01*
X140971045Y-56683848D01*
X140910142Y-56724543D01*
X140869051Y-56786040D01*
X140869048Y-56786043D01*
X140747338Y-56968195D01*
X140690170Y-57255601D01*
X140704600Y-57328146D01*
X140704599Y-58175300D01*
X140690170Y-58247841D01*
X140704599Y-58320381D01*
X140704599Y-58320384D01*
X140747338Y-58535247D01*
X140823202Y-58648785D01*
X140823202Y-58756200D01*
X140788350Y-58756200D01*
X140680400Y-58864150D01*
X140680400Y-59537600D01*
X140700400Y-59537600D01*
X140700400Y-59588400D01*
X140680400Y-59588400D01*
X140680400Y-59608400D01*
X140629600Y-59608400D01*
X140629600Y-59588400D01*
X139731150Y-59588400D01*
X139623200Y-59696350D01*
X139623200Y-60023891D01*
X139688938Y-60182595D01*
X139785800Y-60279457D01*
X139615765Y-60165843D01*
X139475553Y-60137953D01*
X139522800Y-60023891D01*
X139522800Y-59696350D01*
X139414850Y-59588400D01*
X138516400Y-59588400D01*
X138516400Y-59608400D01*
X138465600Y-59608400D01*
X138465600Y-59588400D01*
X138445600Y-59588400D01*
X138445600Y-59537600D01*
X138465600Y-59537600D01*
X138465600Y-58864150D01*
X138516400Y-58864150D01*
X138516400Y-59537600D01*
X139414850Y-59537600D01*
X139522800Y-59429650D01*
X139522800Y-59102109D01*
X139623200Y-59102109D01*
X139623200Y-59429650D01*
X139731150Y-59537600D01*
X140629600Y-59537600D01*
X140629600Y-58864150D01*
X140521650Y-58756200D01*
X139969110Y-58756200D01*
X139810405Y-58821937D01*
X139688938Y-58943405D01*
X139623200Y-59102109D01*
X139522800Y-59102109D01*
X139457062Y-58943405D01*
X139335595Y-58821937D01*
X139176890Y-58756200D01*
X138624350Y-58756200D01*
X138516400Y-58864150D01*
X138465600Y-58864150D01*
X138357650Y-58756200D01*
X138277600Y-58756200D01*
X138277600Y-56768340D01*
X138292029Y-56695799D01*
X138277600Y-56623257D01*
X138277600Y-56623256D01*
X138234861Y-56408393D01*
X138072058Y-56164742D01*
X138010558Y-56123649D01*
X137921351Y-56034442D01*
X137880258Y-55972942D01*
X137793440Y-55914932D01*
X137793440Y-55654000D01*
X137768576Y-55529000D01*
X137793440Y-55404000D01*
X137793440Y-55004000D01*
X137768576Y-54879000D01*
X137793440Y-54754000D01*
X137793440Y-54354000D01*
X137768576Y-54229000D01*
X137793440Y-54104000D01*
X137793440Y-53704000D01*
X137768576Y-53579000D01*
X137793440Y-53454000D01*
X137793440Y-53054000D01*
X137768576Y-52929000D01*
X137793440Y-52804000D01*
X137793440Y-52404000D01*
X137768576Y-52279000D01*
X137793440Y-52154000D01*
X137793440Y-51754000D01*
X137768576Y-51629000D01*
X137793440Y-51504000D01*
X137793440Y-51104000D01*
X137744157Y-50856235D01*
X137603809Y-50646191D01*
X137577800Y-50628812D01*
X137577800Y-50628598D01*
X137577480Y-50628598D01*
X137512962Y-50585488D01*
X137577800Y-50520650D01*
X137577800Y-50368109D01*
X141314200Y-50368109D01*
X141314200Y-50520650D01*
X141422150Y-50628600D01*
X142270600Y-50628600D01*
X142270600Y-50130150D01*
X142321400Y-50130150D01*
X142321400Y-50628600D01*
X143169850Y-50628600D01*
X143277800Y-50520650D01*
X143277800Y-50368109D01*
X143212062Y-50209405D01*
X143090595Y-50087937D01*
X142931890Y-50022200D01*
X142429350Y-50022200D01*
X142321400Y-50130150D01*
X142270600Y-50130150D01*
X142162650Y-50022200D01*
X141660110Y-50022200D01*
X141501405Y-50087937D01*
X141379938Y-50209405D01*
X141314200Y-50368109D01*
X137577800Y-50368109D01*
X137512062Y-50209405D01*
X137390595Y-50087937D01*
X137231890Y-50022200D01*
X136729350Y-50022200D01*
X136621400Y-50130150D01*
X136621400Y-50456560D01*
X136570600Y-50456560D01*
X136570600Y-50130150D01*
X136462650Y-50022200D01*
X135960110Y-50022200D01*
X135801405Y-50087937D01*
X135679938Y-50209405D01*
X135614200Y-50368109D01*
X135614200Y-50520650D01*
X135679038Y-50585488D01*
X135678919Y-50585568D01*
X135555393Y-50610139D01*
X135373241Y-50731849D01*
X135373239Y-50731851D01*
X135311742Y-50772942D01*
X135270651Y-50834439D01*
X134307440Y-51797650D01*
X134307440Y-50848000D01*
X134258157Y-50600235D01*
X134117809Y-50390191D01*
X133907765Y-50249843D01*
X133660000Y-50200560D01*
X130230000Y-50200560D01*
X130175000Y-50211500D01*
X130175000Y-50063709D01*
X132367359Y-47871350D01*
X143798200Y-47871350D01*
X143798200Y-48713891D01*
X143863938Y-48872595D01*
X143985405Y-48994063D01*
X144144110Y-49059800D01*
X145811650Y-49059800D01*
X145919600Y-48951850D01*
X145919600Y-47763400D01*
X145970400Y-47763400D01*
X145970400Y-48951850D01*
X146078350Y-49059800D01*
X147745890Y-49059800D01*
X147904595Y-48994063D01*
X148026062Y-48872595D01*
X148091800Y-48713891D01*
X148091800Y-47871350D01*
X147983850Y-47763400D01*
X145970400Y-47763400D01*
X145919600Y-47763400D01*
X143906150Y-47763400D01*
X143798200Y-47871350D01*
X132367359Y-47871350D01*
X133476600Y-46762109D01*
X143798200Y-46762109D01*
X143798200Y-47604650D01*
X143906150Y-47712600D01*
X145919600Y-47712600D01*
X145919600Y-46524150D01*
X145970400Y-46524150D01*
X145970400Y-47712600D01*
X147983850Y-47712600D01*
X148091800Y-47604650D01*
X148091800Y-46762109D01*
X148026062Y-46603405D01*
X147904595Y-46481937D01*
X147745890Y-46416200D01*
X146078350Y-46416200D01*
X145970400Y-46524150D01*
X145919600Y-46524150D01*
X145811650Y-46416200D01*
X144144110Y-46416200D01*
X143985405Y-46481937D01*
X143863938Y-46603405D01*
X143798200Y-46762109D01*
X133476600Y-46762109D01*
X133735561Y-46503149D01*
X133797058Y-46462058D01*
X133838149Y-46400561D01*
X133838151Y-46400559D01*
X133959861Y-46218407D01*
X133977495Y-46129756D01*
X134002600Y-46003544D01*
X134002600Y-46003541D01*
X134017029Y-45931001D01*
X134002600Y-45858460D01*
X134002600Y-42726269D01*
X134113765Y-42704157D01*
X134323809Y-42563809D01*
X134366000Y-42500666D01*
X134408191Y-42563809D01*
X134618235Y-42704157D01*
X134866000Y-42753440D01*
X136066000Y-42753440D01*
X136313765Y-42704157D01*
X136523809Y-42563809D01*
X136664157Y-42353765D01*
X136713440Y-42106000D01*
X136713440Y-41206000D01*
X136664157Y-40958235D01*
X136536377Y-40767000D01*
X136664157Y-40575765D01*
X136713440Y-40328000D01*
X136713440Y-39428000D01*
X136664157Y-39180235D01*
X136550409Y-39010000D01*
X142590001Y-39010000D01*
X142590000Y-42230074D01*
X142590000Y-42230074D01*
G37*
X142590000Y-42230074D02*
X142576091Y-42300000D01*
X142631195Y-42577028D01*
X142788119Y-42811881D01*
X143022972Y-42968805D01*
X143219321Y-43007861D01*
X143300000Y-43023909D01*
X143369925Y-43010000D01*
X148590000Y-43010000D01*
X148590001Y-86756200D01*
X148178350Y-86756200D01*
X148070400Y-86864150D01*
X148070400Y-87662600D01*
X148090400Y-87662600D01*
X148090400Y-87713400D01*
X148070400Y-87713400D01*
X148070400Y-88511850D01*
X148178350Y-88619800D01*
X148590001Y-88619800D01*
X148590001Y-91056200D01*
X148278350Y-91056200D01*
X148170400Y-91164150D01*
X148170400Y-94462600D01*
X148190400Y-94462600D01*
X148190400Y-94513400D01*
X148170400Y-94513400D01*
X148170400Y-94533400D01*
X148119600Y-94533400D01*
X148119600Y-94513400D01*
X148099600Y-94513400D01*
X148099600Y-94462600D01*
X148119600Y-94462600D01*
X148119600Y-91164150D01*
X148011650Y-91056200D01*
X147420188Y-91056200D01*
X147402809Y-91030191D01*
X147192765Y-90889843D01*
X147181600Y-90887622D01*
X147181600Y-89310540D01*
X147196029Y-89238000D01*
X147181600Y-89165459D01*
X147181600Y-89165456D01*
X147138861Y-88950593D01*
X147088623Y-88875407D01*
X147017151Y-88768441D01*
X147017149Y-88768439D01*
X146976058Y-88706942D01*
X146914560Y-88665850D01*
X146531600Y-88282891D01*
X146531600Y-87821350D01*
X147113200Y-87821350D01*
X147113200Y-88273891D01*
X147178938Y-88432595D01*
X147300405Y-88554063D01*
X147459110Y-88619800D01*
X147911650Y-88619800D01*
X148019600Y-88511850D01*
X148019600Y-87713400D01*
X147221150Y-87713400D01*
X147113200Y-87821350D01*
X146531600Y-87821350D01*
X146531600Y-87102109D01*
X147113200Y-87102109D01*
X147113200Y-87554650D01*
X147221150Y-87662600D01*
X148019600Y-87662600D01*
X148019600Y-86864150D01*
X147911650Y-86756200D01*
X147459110Y-86756200D01*
X147300405Y-86821937D01*
X147178938Y-86943405D01*
X147113200Y-87102109D01*
X146531600Y-87102109D01*
X146531600Y-86838378D01*
X146542765Y-86836157D01*
X146752809Y-86695809D01*
X146893157Y-86485765D01*
X146942440Y-86238000D01*
X146942440Y-85238000D01*
X146893157Y-84990235D01*
X146752809Y-84780191D01*
X146542765Y-84639843D01*
X146295000Y-84590560D01*
X145681600Y-84590560D01*
X145681600Y-84310540D01*
X145696029Y-84238000D01*
X145681600Y-84165459D01*
X145681600Y-84165456D01*
X145638861Y-83950593D01*
X145595160Y-83885190D01*
X145517151Y-83768441D01*
X145517149Y-83768439D01*
X145476058Y-83706942D01*
X145461000Y-83696881D01*
X145461000Y-83535905D01*
X145306324Y-83162482D01*
X145214374Y-83070532D01*
X146764561Y-81520345D01*
X146826058Y-81479254D01*
X146867149Y-81417757D01*
X146867151Y-81417755D01*
X146988861Y-81235603D01*
X146992943Y-81215081D01*
X147031600Y-81020740D01*
X147031600Y-81020737D01*
X147046029Y-80948196D01*
X147031600Y-80875656D01*
X147031600Y-55272338D01*
X147046029Y-55199799D01*
X147031600Y-55127260D01*
X147031600Y-55127256D01*
X146988861Y-54912393D01*
X146826058Y-54668742D01*
X146764558Y-54627649D01*
X143621351Y-51484442D01*
X143580258Y-51422942D01*
X143336607Y-51260139D01*
X143213081Y-51235568D01*
X143212962Y-51235488D01*
X143277800Y-51170650D01*
X143277800Y-51018109D01*
X143261600Y-50979000D01*
X143277800Y-50939891D01*
X143277800Y-50787350D01*
X143169850Y-50679400D01*
X142949273Y-50679400D01*
X142931890Y-50672200D01*
X142429350Y-50672200D01*
X142422150Y-50679400D01*
X142321400Y-50679400D01*
X142321400Y-50699400D01*
X142270600Y-50699400D01*
X142270600Y-50679400D01*
X142169850Y-50679400D01*
X142162650Y-50672200D01*
X141660110Y-50672200D01*
X141642727Y-50679400D01*
X141422150Y-50679400D01*
X141314200Y-50787350D01*
X141314200Y-50939891D01*
X141330400Y-50979000D01*
X141314200Y-51018109D01*
X141314200Y-51170650D01*
X141379038Y-51235488D01*
X141314520Y-51278598D01*
X141314200Y-51278598D01*
X141314200Y-51278812D01*
X141288191Y-51296191D01*
X141147843Y-51506235D01*
X141098560Y-51754000D01*
X141098560Y-52154000D01*
X141123424Y-52279000D01*
X141098560Y-52404000D01*
X141098560Y-52804000D01*
X141123424Y-52929000D01*
X141098560Y-53054000D01*
X141098560Y-53454000D01*
X141123424Y-53579000D01*
X141098560Y-53704000D01*
X141098560Y-54104000D01*
X141123424Y-54229000D01*
X141098560Y-54354000D01*
X141098560Y-54754000D01*
X141123424Y-54879000D01*
X141098560Y-55004000D01*
X141098560Y-55404000D01*
X141123424Y-55529000D01*
X141098560Y-55654000D01*
X141098560Y-56054000D01*
X141123424Y-56179000D01*
X141098560Y-56304000D01*
X141098560Y-56564932D01*
X141011742Y-56622942D01*
X140971045Y-56683848D01*
X140910142Y-56724543D01*
X140869051Y-56786040D01*
X140869048Y-56786043D01*
X140747338Y-56968195D01*
X140690170Y-57255601D01*
X140704600Y-57328146D01*
X140704599Y-58175300D01*
X140690170Y-58247841D01*
X140704599Y-58320381D01*
X140704599Y-58320384D01*
X140747338Y-58535247D01*
X140823202Y-58648785D01*
X140823202Y-58756200D01*
X140788350Y-58756200D01*
X140680400Y-58864150D01*
X140680400Y-59537600D01*
X140700400Y-59537600D01*
X140700400Y-59588400D01*
X140680400Y-59588400D01*
X140680400Y-59608400D01*
X140629600Y-59608400D01*
X140629600Y-59588400D01*
X139731150Y-59588400D01*
X139623200Y-59696350D01*
X139623200Y-60023891D01*
X139688938Y-60182595D01*
X139785800Y-60279457D01*
X139615765Y-60165843D01*
X139475553Y-60137953D01*
X139522800Y-60023891D01*
X139522800Y-59696350D01*
X139414850Y-59588400D01*
X138516400Y-59588400D01*
X138516400Y-59608400D01*
X138465600Y-59608400D01*
X138465600Y-59588400D01*
X138445600Y-59588400D01*
X138445600Y-59537600D01*
X138465600Y-59537600D01*
X138465600Y-58864150D01*
X138516400Y-58864150D01*
X138516400Y-59537600D01*
X139414850Y-59537600D01*
X139522800Y-59429650D01*
X139522800Y-59102109D01*
X139623200Y-59102109D01*
X139623200Y-59429650D01*
X139731150Y-59537600D01*
X140629600Y-59537600D01*
X140629600Y-58864150D01*
X140521650Y-58756200D01*
X139969110Y-58756200D01*
X139810405Y-58821937D01*
X139688938Y-58943405D01*
X139623200Y-59102109D01*
X139522800Y-59102109D01*
X139457062Y-58943405D01*
X139335595Y-58821937D01*
X139176890Y-58756200D01*
X138624350Y-58756200D01*
X138516400Y-58864150D01*
X138465600Y-58864150D01*
X138357650Y-58756200D01*
X138277600Y-58756200D01*
X138277600Y-56768340D01*
X138292029Y-56695799D01*
X138277600Y-56623257D01*
X138277600Y-56623256D01*
X138234861Y-56408393D01*
X138072058Y-56164742D01*
X138010558Y-56123649D01*
X137921351Y-56034442D01*
X137880258Y-55972942D01*
X137793440Y-55914932D01*
X137793440Y-55654000D01*
X137768576Y-55529000D01*
X137793440Y-55404000D01*
X137793440Y-55004000D01*
X137768576Y-54879000D01*
X137793440Y-54754000D01*
X137793440Y-54354000D01*
X137768576Y-54229000D01*
X137793440Y-54104000D01*
X137793440Y-53704000D01*
X137768576Y-53579000D01*
X137793440Y-53454000D01*
X137793440Y-53054000D01*
X137768576Y-52929000D01*
X137793440Y-52804000D01*
X137793440Y-52404000D01*
X137768576Y-52279000D01*
X137793440Y-52154000D01*
X137793440Y-51754000D01*
X137768576Y-51629000D01*
X137793440Y-51504000D01*
X137793440Y-51104000D01*
X137744157Y-50856235D01*
X137603809Y-50646191D01*
X137577800Y-50628812D01*
X137577800Y-50628598D01*
X137577480Y-50628598D01*
X137512962Y-50585488D01*
X137577800Y-50520650D01*
X137577800Y-50368109D01*
X141314200Y-50368109D01*
X141314200Y-50520650D01*
X141422150Y-50628600D01*
X142270600Y-50628600D01*
X142270600Y-50130150D01*
X142321400Y-50130150D01*
X142321400Y-50628600D01*
X143169850Y-50628600D01*
X143277800Y-50520650D01*
X143277800Y-50368109D01*
X143212062Y-50209405D01*
X143090595Y-50087937D01*
X142931890Y-50022200D01*
X142429350Y-50022200D01*
X142321400Y-50130150D01*
X142270600Y-50130150D01*
X142162650Y-50022200D01*
X141660110Y-50022200D01*
X141501405Y-50087937D01*
X141379938Y-50209405D01*
X141314200Y-50368109D01*
X137577800Y-50368109D01*
X137512062Y-50209405D01*
X137390595Y-50087937D01*
X137231890Y-50022200D01*
X136729350Y-50022200D01*
X136621400Y-50130150D01*
X136621400Y-50456560D01*
X136570600Y-50456560D01*
X136570600Y-50130150D01*
X136462650Y-50022200D01*
X135960110Y-50022200D01*
X135801405Y-50087937D01*
X135679938Y-50209405D01*
X135614200Y-50368109D01*
X135614200Y-50520650D01*
X135679038Y-50585488D01*
X135678919Y-50585568D01*
X135555393Y-50610139D01*
X135373241Y-50731849D01*
X135373239Y-50731851D01*
X135311742Y-50772942D01*
X135270651Y-50834439D01*
X134307440Y-51797650D01*
X134307440Y-50848000D01*
X134258157Y-50600235D01*
X134117809Y-50390191D01*
X133907765Y-50249843D01*
X133660000Y-50200560D01*
X130230000Y-50200560D01*
X130175000Y-50211500D01*
X130175000Y-50063709D01*
X132367359Y-47871350D01*
X143798200Y-47871350D01*
X143798200Y-48713891D01*
X143863938Y-48872595D01*
X143985405Y-48994063D01*
X144144110Y-49059800D01*
X145811650Y-49059800D01*
X145919600Y-48951850D01*
X145919600Y-47763400D01*
X145970400Y-47763400D01*
X145970400Y-48951850D01*
X146078350Y-49059800D01*
X147745890Y-49059800D01*
X147904595Y-48994063D01*
X148026062Y-48872595D01*
X148091800Y-48713891D01*
X148091800Y-47871350D01*
X147983850Y-47763400D01*
X145970400Y-47763400D01*
X145919600Y-47763400D01*
X143906150Y-47763400D01*
X143798200Y-47871350D01*
X132367359Y-47871350D01*
X133476600Y-46762109D01*
X143798200Y-46762109D01*
X143798200Y-47604650D01*
X143906150Y-47712600D01*
X145919600Y-47712600D01*
X145919600Y-46524150D01*
X145970400Y-46524150D01*
X145970400Y-47712600D01*
X147983850Y-47712600D01*
X148091800Y-47604650D01*
X148091800Y-46762109D01*
X148026062Y-46603405D01*
X147904595Y-46481937D01*
X147745890Y-46416200D01*
X146078350Y-46416200D01*
X145970400Y-46524150D01*
X145919600Y-46524150D01*
X145811650Y-46416200D01*
X144144110Y-46416200D01*
X143985405Y-46481937D01*
X143863938Y-46603405D01*
X143798200Y-46762109D01*
X133476600Y-46762109D01*
X133735561Y-46503149D01*
X133797058Y-46462058D01*
X133838149Y-46400561D01*
X133838151Y-46400559D01*
X133959861Y-46218407D01*
X133977495Y-46129756D01*
X134002600Y-46003544D01*
X134002600Y-46003541D01*
X134017029Y-45931001D01*
X134002600Y-45858460D01*
X134002600Y-42726269D01*
X134113765Y-42704157D01*
X134323809Y-42563809D01*
X134366000Y-42500666D01*
X134408191Y-42563809D01*
X134618235Y-42704157D01*
X134866000Y-42753440D01*
X136066000Y-42753440D01*
X136313765Y-42704157D01*
X136523809Y-42563809D01*
X136664157Y-42353765D01*
X136713440Y-42106000D01*
X136713440Y-41206000D01*
X136664157Y-40958235D01*
X136536377Y-40767000D01*
X136664157Y-40575765D01*
X136713440Y-40328000D01*
X136713440Y-39428000D01*
X136664157Y-39180235D01*
X136550409Y-39010000D01*
X142590001Y-39010000D01*
X142590000Y-42230074D01*
G36*
X103995950Y-85376676D02*
X103995950Y-85390178D01*
X103870800Y-85390178D01*
X103870800Y-85354350D01*
X103824050Y-85307600D01*
X104024562Y-85307600D01*
X103995950Y-85376676D01*
X103995950Y-85376676D01*
G37*
X103995950Y-85376676D02*
X103995950Y-85390178D01*
X103870800Y-85390178D01*
X103870800Y-85354350D01*
X103824050Y-85307600D01*
X104024562Y-85307600D01*
X103995950Y-85376676D01*
G36*
X140958401Y-75848911D02*
X140958400Y-80287758D01*
X140833676Y-80412482D01*
X140679000Y-80785905D01*
X140679000Y-81190095D01*
X140833676Y-81563518D01*
X140972760Y-81702602D01*
X137423963Y-85251400D01*
X135976510Y-85251400D01*
X136039561Y-85188349D01*
X136101058Y-85147258D01*
X136142149Y-85085761D01*
X136142151Y-85085759D01*
X136159069Y-85060440D01*
X136445000Y-85060440D01*
X136692765Y-85011157D01*
X136902809Y-84870809D01*
X136953498Y-84794948D01*
X137003350Y-84844800D01*
X137180891Y-84844800D01*
X137339595Y-84779062D01*
X137461063Y-84657595D01*
X137526800Y-84498890D01*
X137526800Y-83821350D01*
X137418850Y-83713400D01*
X137092440Y-83713400D01*
X137092440Y-83662600D01*
X137418850Y-83662600D01*
X137526800Y-83554650D01*
X137526800Y-82877110D01*
X137461063Y-82718405D01*
X137339595Y-82596938D01*
X137180891Y-82531200D01*
X137003350Y-82531200D01*
X136953498Y-82581052D01*
X136902809Y-82505191D01*
X136692765Y-82364843D01*
X136445000Y-82315560D01*
X135995000Y-82315560D01*
X135895000Y-82335451D01*
X135795000Y-82315560D01*
X135345000Y-82315560D01*
X135245000Y-82335451D01*
X135145000Y-82315560D01*
X134695000Y-82315560D01*
X134595000Y-82335451D01*
X134495000Y-82315560D01*
X134045000Y-82315560D01*
X133945000Y-82335451D01*
X133845000Y-82315560D01*
X133395000Y-82315560D01*
X133295000Y-82335451D01*
X133195000Y-82315560D01*
X132745000Y-82315560D01*
X132645000Y-82335451D01*
X132545000Y-82315560D01*
X132095000Y-82315560D01*
X131995000Y-82335451D01*
X131895000Y-82315560D01*
X131445000Y-82315560D01*
X131197235Y-82364843D01*
X130987191Y-82505191D01*
X130936502Y-82581052D01*
X130886650Y-82531200D01*
X130709109Y-82531200D01*
X130550405Y-82596938D01*
X130428937Y-82718405D01*
X130363200Y-82877110D01*
X130363200Y-83554650D01*
X130471150Y-83662600D01*
X130797560Y-83662600D01*
X130797560Y-83713400D01*
X130471150Y-83713400D01*
X130363200Y-83821350D01*
X130363200Y-84498890D01*
X130428937Y-84657595D01*
X130522743Y-84751400D01*
X128564340Y-84751400D01*
X128491800Y-84736971D01*
X128419259Y-84751400D01*
X128419256Y-84751400D01*
X128341033Y-84766960D01*
X128985000Y-83212285D01*
X128985000Y-82118800D01*
X129311650Y-82118800D01*
X129419600Y-82010850D01*
X129419600Y-81112400D01*
X129470400Y-81112400D01*
X129470400Y-82010850D01*
X129578350Y-82118800D01*
X129905891Y-82118800D01*
X130064595Y-82053062D01*
X130186063Y-81931595D01*
X130251800Y-81772890D01*
X130251800Y-81220350D01*
X130143850Y-81112400D01*
X129470400Y-81112400D01*
X129419600Y-81112400D01*
X129399600Y-81112400D01*
X129399600Y-81061600D01*
X129419600Y-81061600D01*
X129419600Y-81041600D01*
X129470400Y-81041600D01*
X129470400Y-81061600D01*
X130143850Y-81061600D01*
X130251800Y-80953650D01*
X130251800Y-80401110D01*
X130206731Y-80292302D01*
X130277809Y-80244809D01*
X130418157Y-80034765D01*
X130467440Y-79787000D01*
X130467440Y-79057839D01*
X130547235Y-79111157D01*
X130795000Y-79160440D01*
X131245000Y-79160440D01*
X131345000Y-79140549D01*
X131445000Y-79160440D01*
X131895000Y-79160440D01*
X131995000Y-79140549D01*
X132095000Y-79160440D01*
X132545000Y-79160440D01*
X132792765Y-79111157D01*
X132970000Y-78992731D01*
X133147235Y-79111157D01*
X133395000Y-79160440D01*
X133845000Y-79160440D01*
X134092765Y-79111157D01*
X134270000Y-78992731D01*
X134447235Y-79111157D01*
X134695000Y-79160440D01*
X135145000Y-79160440D01*
X135392765Y-79111157D01*
X135570000Y-78992731D01*
X135747235Y-79111157D01*
X135995000Y-79160440D01*
X136445000Y-79160440D01*
X136692765Y-79111157D01*
X136902809Y-78970809D01*
X136953498Y-78894948D01*
X137003350Y-78944800D01*
X137180891Y-78944800D01*
X137339595Y-78879062D01*
X137461063Y-78757595D01*
X137526800Y-78598890D01*
X137526800Y-77921350D01*
X137418850Y-77813400D01*
X137092440Y-77813400D01*
X137092440Y-77762600D01*
X137418850Y-77762600D01*
X137526800Y-77654650D01*
X137526800Y-76977110D01*
X137461063Y-76818405D01*
X137339595Y-76696938D01*
X137180891Y-76631200D01*
X137003350Y-76631200D01*
X136954525Y-76680025D01*
X136923776Y-76525440D01*
X139660000Y-76525440D01*
X139907765Y-76476157D01*
X140117809Y-76335809D01*
X140258157Y-76125765D01*
X140307440Y-75878000D01*
X140307440Y-75197950D01*
X140958401Y-75848911D01*
X140958401Y-75848911D01*
G37*
X140958401Y-75848911D02*
X140958400Y-80287758D01*
X140833676Y-80412482D01*
X140679000Y-80785905D01*
X140679000Y-81190095D01*
X140833676Y-81563518D01*
X140972760Y-81702602D01*
X137423963Y-85251400D01*
X135976510Y-85251400D01*
X136039561Y-85188349D01*
X136101058Y-85147258D01*
X136142149Y-85085761D01*
X136142151Y-85085759D01*
X136159069Y-85060440D01*
X136445000Y-85060440D01*
X136692765Y-85011157D01*
X136902809Y-84870809D01*
X136953498Y-84794948D01*
X137003350Y-84844800D01*
X137180891Y-84844800D01*
X137339595Y-84779062D01*
X137461063Y-84657595D01*
X137526800Y-84498890D01*
X137526800Y-83821350D01*
X137418850Y-83713400D01*
X137092440Y-83713400D01*
X137092440Y-83662600D01*
X137418850Y-83662600D01*
X137526800Y-83554650D01*
X137526800Y-82877110D01*
X137461063Y-82718405D01*
X137339595Y-82596938D01*
X137180891Y-82531200D01*
X137003350Y-82531200D01*
X136953498Y-82581052D01*
X136902809Y-82505191D01*
X136692765Y-82364843D01*
X136445000Y-82315560D01*
X135995000Y-82315560D01*
X135895000Y-82335451D01*
X135795000Y-82315560D01*
X135345000Y-82315560D01*
X135245000Y-82335451D01*
X135145000Y-82315560D01*
X134695000Y-82315560D01*
X134595000Y-82335451D01*
X134495000Y-82315560D01*
X134045000Y-82315560D01*
X133945000Y-82335451D01*
X133845000Y-82315560D01*
X133395000Y-82315560D01*
X133295000Y-82335451D01*
X133195000Y-82315560D01*
X132745000Y-82315560D01*
X132645000Y-82335451D01*
X132545000Y-82315560D01*
X132095000Y-82315560D01*
X131995000Y-82335451D01*
X131895000Y-82315560D01*
X131445000Y-82315560D01*
X131197235Y-82364843D01*
X130987191Y-82505191D01*
X130936502Y-82581052D01*
X130886650Y-82531200D01*
X130709109Y-82531200D01*
X130550405Y-82596938D01*
X130428937Y-82718405D01*
X130363200Y-82877110D01*
X130363200Y-83554650D01*
X130471150Y-83662600D01*
X130797560Y-83662600D01*
X130797560Y-83713400D01*
X130471150Y-83713400D01*
X130363200Y-83821350D01*
X130363200Y-84498890D01*
X130428937Y-84657595D01*
X130522743Y-84751400D01*
X128564340Y-84751400D01*
X128491800Y-84736971D01*
X128419259Y-84751400D01*
X128419256Y-84751400D01*
X128341033Y-84766960D01*
X128985000Y-83212285D01*
X128985000Y-82118800D01*
X129311650Y-82118800D01*
X129419600Y-82010850D01*
X129419600Y-81112400D01*
X129470400Y-81112400D01*
X129470400Y-82010850D01*
X129578350Y-82118800D01*
X129905891Y-82118800D01*
X130064595Y-82053062D01*
X130186063Y-81931595D01*
X130251800Y-81772890D01*
X130251800Y-81220350D01*
X130143850Y-81112400D01*
X129470400Y-81112400D01*
X129419600Y-81112400D01*
X129399600Y-81112400D01*
X129399600Y-81061600D01*
X129419600Y-81061600D01*
X129419600Y-81041600D01*
X129470400Y-81041600D01*
X129470400Y-81061600D01*
X130143850Y-81061600D01*
X130251800Y-80953650D01*
X130251800Y-80401110D01*
X130206731Y-80292302D01*
X130277809Y-80244809D01*
X130418157Y-80034765D01*
X130467440Y-79787000D01*
X130467440Y-79057839D01*
X130547235Y-79111157D01*
X130795000Y-79160440D01*
X131245000Y-79160440D01*
X131345000Y-79140549D01*
X131445000Y-79160440D01*
X131895000Y-79160440D01*
X131995000Y-79140549D01*
X132095000Y-79160440D01*
X132545000Y-79160440D01*
X132792765Y-79111157D01*
X132970000Y-78992731D01*
X133147235Y-79111157D01*
X133395000Y-79160440D01*
X133845000Y-79160440D01*
X134092765Y-79111157D01*
X134270000Y-78992731D01*
X134447235Y-79111157D01*
X134695000Y-79160440D01*
X135145000Y-79160440D01*
X135392765Y-79111157D01*
X135570000Y-78992731D01*
X135747235Y-79111157D01*
X135995000Y-79160440D01*
X136445000Y-79160440D01*
X136692765Y-79111157D01*
X136902809Y-78970809D01*
X136953498Y-78894948D01*
X137003350Y-78944800D01*
X137180891Y-78944800D01*
X137339595Y-78879062D01*
X137461063Y-78757595D01*
X137526800Y-78598890D01*
X137526800Y-77921350D01*
X137418850Y-77813400D01*
X137092440Y-77813400D01*
X137092440Y-77762600D01*
X137418850Y-77762600D01*
X137526800Y-77654650D01*
X137526800Y-76977110D01*
X137461063Y-76818405D01*
X137339595Y-76696938D01*
X137180891Y-76631200D01*
X137003350Y-76631200D01*
X136954525Y-76680025D01*
X136923776Y-76525440D01*
X139660000Y-76525440D01*
X139907765Y-76476157D01*
X140117809Y-76335809D01*
X140258157Y-76125765D01*
X140307440Y-75878000D01*
X140307440Y-75197950D01*
X140958401Y-75848911D01*
G36*
X120472296Y-81107968D02*
X120454599Y-81150692D01*
X120396873Y-81092965D01*
X120472296Y-81107968D01*
X120472296Y-81107968D01*
G37*
X120472296Y-81107968D02*
X120454599Y-81150692D01*
X120396873Y-81092965D01*
X120472296Y-81107968D01*
G36*
X108131843Y-65600235D02*
X108082560Y-65848000D01*
X108082560Y-67628000D01*
X108131843Y-67875765D01*
X108272191Y-68085809D01*
X108372975Y-68153151D01*
X108320554Y-68188178D01*
X105895178Y-70613554D01*
X105754830Y-70823598D01*
X105705547Y-71071363D01*
X105754830Y-71319128D01*
X105895178Y-71529172D01*
X107153828Y-72787822D01*
X107363872Y-72928170D01*
X107458400Y-72946973D01*
X107458400Y-74682890D01*
X106732440Y-75408851D01*
X106732440Y-72773000D01*
X106683157Y-72525235D01*
X106542809Y-72315191D01*
X106332765Y-72174843D01*
X106085000Y-72125560D01*
X104305000Y-72125560D01*
X104057235Y-72174843D01*
X103847191Y-72315191D01*
X103706843Y-72525235D01*
X103657560Y-72773000D01*
X103657560Y-76203000D01*
X103706843Y-76450765D01*
X103847191Y-76660809D01*
X104057235Y-76801157D01*
X104305000Y-76850440D01*
X104829000Y-76850440D01*
X104829000Y-76990095D01*
X104983676Y-77363518D01*
X105269482Y-77649324D01*
X105426803Y-77714488D01*
X103840635Y-79300656D01*
X103820948Y-79287502D01*
X103870800Y-79237650D01*
X103870800Y-79060109D01*
X103805062Y-78901405D01*
X103683595Y-78779937D01*
X103524890Y-78714200D01*
X102847350Y-78714200D01*
X102739400Y-78822150D01*
X102739400Y-79148560D01*
X102688600Y-79148560D01*
X102688600Y-78822150D01*
X102580650Y-78714200D01*
X101903110Y-78714200D01*
X101744405Y-78779937D01*
X101622938Y-78901405D01*
X101557200Y-79060109D01*
X101557200Y-79237650D01*
X101607052Y-79287502D01*
X101568645Y-79313165D01*
X101498393Y-79327139D01*
X101254742Y-79489942D01*
X101213649Y-79551442D01*
X100710000Y-80055091D01*
X100710000Y-77889842D01*
X100770482Y-77950324D01*
X101143905Y-78105000D01*
X101548095Y-78105000D01*
X101921518Y-77950324D01*
X102207324Y-77664518D01*
X102362000Y-77291095D01*
X102362000Y-76886905D01*
X102302321Y-76742826D01*
X102320765Y-76739157D01*
X102530809Y-76598809D01*
X102671157Y-76388765D01*
X102720440Y-76141000D01*
X102720440Y-75241000D01*
X102671157Y-74993235D01*
X102530809Y-74783191D01*
X102320765Y-74642843D01*
X102073000Y-74593560D01*
X100873000Y-74593560D01*
X100710000Y-74625982D01*
X100710000Y-73456018D01*
X100873000Y-73488440D01*
X102073000Y-73488440D01*
X102320765Y-73439157D01*
X102530809Y-73298809D01*
X102671157Y-73088765D01*
X102720440Y-72841000D01*
X102720440Y-71941000D01*
X102671157Y-71693235D01*
X102530809Y-71483191D01*
X102320765Y-71342843D01*
X102209600Y-71320731D01*
X102209600Y-71139109D01*
X102349269Y-70999440D01*
X103155000Y-70999440D01*
X103402765Y-70950157D01*
X103612809Y-70809809D01*
X103660302Y-70738731D01*
X103769110Y-70783800D01*
X104321650Y-70783800D01*
X104429600Y-70675850D01*
X104429600Y-70002400D01*
X104480400Y-70002400D01*
X104480400Y-70675850D01*
X104588350Y-70783800D01*
X105140890Y-70783800D01*
X105299595Y-70718063D01*
X105421062Y-70596595D01*
X105486800Y-70437891D01*
X105486800Y-70110350D01*
X105378850Y-70002400D01*
X104480400Y-70002400D01*
X104429600Y-70002400D01*
X104409600Y-70002400D01*
X104409600Y-69951600D01*
X104429600Y-69951600D01*
X104429600Y-69278150D01*
X104480400Y-69278150D01*
X104480400Y-69951600D01*
X105378850Y-69951600D01*
X105486800Y-69843650D01*
X105486800Y-69516109D01*
X105421062Y-69357405D01*
X105299595Y-69235937D01*
X105140890Y-69170200D01*
X104588350Y-69170200D01*
X104480400Y-69278150D01*
X104429600Y-69278150D01*
X104321650Y-69170200D01*
X103769110Y-69170200D01*
X103660302Y-69215269D01*
X103612809Y-69144191D01*
X103402765Y-69003843D01*
X103155000Y-68954560D01*
X103144069Y-68954560D01*
X103127151Y-68929241D01*
X103127149Y-68929239D01*
X103086058Y-68867742D01*
X103024560Y-68826650D01*
X102668350Y-68470440D01*
X102935000Y-68470440D01*
X103182765Y-68421157D01*
X103392809Y-68280809D01*
X103505000Y-68112905D01*
X103617191Y-68280809D01*
X103827235Y-68421157D01*
X104075000Y-68470440D01*
X105135000Y-68470440D01*
X105382765Y-68421157D01*
X105592809Y-68280809D01*
X105733157Y-68070765D01*
X105782440Y-67823000D01*
X105782440Y-67631350D01*
X106000200Y-67631350D01*
X106000200Y-68183890D01*
X106065937Y-68342595D01*
X106187405Y-68464062D01*
X106346109Y-68529800D01*
X106673650Y-68529800D01*
X106781600Y-68421850D01*
X106781600Y-67523400D01*
X106832400Y-67523400D01*
X106832400Y-68421850D01*
X106940350Y-68529800D01*
X107267891Y-68529800D01*
X107426595Y-68464062D01*
X107548063Y-68342595D01*
X107613800Y-68183890D01*
X107613800Y-67631350D01*
X107505850Y-67523400D01*
X106832400Y-67523400D01*
X106781600Y-67523400D01*
X106108150Y-67523400D01*
X106000200Y-67631350D01*
X105782440Y-67631350D01*
X105782440Y-67173000D01*
X105733157Y-66925235D01*
X105592809Y-66715191D01*
X105382765Y-66574843D01*
X105247815Y-66548000D01*
X105382765Y-66521157D01*
X105592809Y-66380809D01*
X105623685Y-66334600D01*
X105811731Y-66334600D01*
X105833843Y-66445765D01*
X105974191Y-66655809D01*
X106045269Y-66703302D01*
X106000200Y-66812110D01*
X106000200Y-67364650D01*
X106108150Y-67472600D01*
X106781600Y-67472600D01*
X106781600Y-67452600D01*
X106832400Y-67452600D01*
X106832400Y-67472600D01*
X107505850Y-67472600D01*
X107613800Y-67364650D01*
X107613800Y-66812110D01*
X107568731Y-66703302D01*
X107639809Y-66655809D01*
X107780157Y-66445765D01*
X107829440Y-66198000D01*
X107829440Y-65617269D01*
X108022109Y-65424600D01*
X108249199Y-65424600D01*
X108131843Y-65600235D01*
X108131843Y-65600235D01*
G37*
X108131843Y-65600235D02*
X108082560Y-65848000D01*
X108082560Y-67628000D01*
X108131843Y-67875765D01*
X108272191Y-68085809D01*
X108372975Y-68153151D01*
X108320554Y-68188178D01*
X105895178Y-70613554D01*
X105754830Y-70823598D01*
X105705547Y-71071363D01*
X105754830Y-71319128D01*
X105895178Y-71529172D01*
X107153828Y-72787822D01*
X107363872Y-72928170D01*
X107458400Y-72946973D01*
X107458400Y-74682890D01*
X106732440Y-75408851D01*
X106732440Y-72773000D01*
X106683157Y-72525235D01*
X106542809Y-72315191D01*
X106332765Y-72174843D01*
X106085000Y-72125560D01*
X104305000Y-72125560D01*
X104057235Y-72174843D01*
X103847191Y-72315191D01*
X103706843Y-72525235D01*
X103657560Y-72773000D01*
X103657560Y-76203000D01*
X103706843Y-76450765D01*
X103847191Y-76660809D01*
X104057235Y-76801157D01*
X104305000Y-76850440D01*
X104829000Y-76850440D01*
X104829000Y-76990095D01*
X104983676Y-77363518D01*
X105269482Y-77649324D01*
X105426803Y-77714488D01*
X103840635Y-79300656D01*
X103820948Y-79287502D01*
X103870800Y-79237650D01*
X103870800Y-79060109D01*
X103805062Y-78901405D01*
X103683595Y-78779937D01*
X103524890Y-78714200D01*
X102847350Y-78714200D01*
X102739400Y-78822150D01*
X102739400Y-79148560D01*
X102688600Y-79148560D01*
X102688600Y-78822150D01*
X102580650Y-78714200D01*
X101903110Y-78714200D01*
X101744405Y-78779937D01*
X101622938Y-78901405D01*
X101557200Y-79060109D01*
X101557200Y-79237650D01*
X101607052Y-79287502D01*
X101568645Y-79313165D01*
X101498393Y-79327139D01*
X101254742Y-79489942D01*
X101213649Y-79551442D01*
X100710000Y-80055091D01*
X100710000Y-77889842D01*
X100770482Y-77950324D01*
X101143905Y-78105000D01*
X101548095Y-78105000D01*
X101921518Y-77950324D01*
X102207324Y-77664518D01*
X102362000Y-77291095D01*
X102362000Y-76886905D01*
X102302321Y-76742826D01*
X102320765Y-76739157D01*
X102530809Y-76598809D01*
X102671157Y-76388765D01*
X102720440Y-76141000D01*
X102720440Y-75241000D01*
X102671157Y-74993235D01*
X102530809Y-74783191D01*
X102320765Y-74642843D01*
X102073000Y-74593560D01*
X100873000Y-74593560D01*
X100710000Y-74625982D01*
X100710000Y-73456018D01*
X100873000Y-73488440D01*
X102073000Y-73488440D01*
X102320765Y-73439157D01*
X102530809Y-73298809D01*
X102671157Y-73088765D01*
X102720440Y-72841000D01*
X102720440Y-71941000D01*
X102671157Y-71693235D01*
X102530809Y-71483191D01*
X102320765Y-71342843D01*
X102209600Y-71320731D01*
X102209600Y-71139109D01*
X102349269Y-70999440D01*
X103155000Y-70999440D01*
X103402765Y-70950157D01*
X103612809Y-70809809D01*
X103660302Y-70738731D01*
X103769110Y-70783800D01*
X104321650Y-70783800D01*
X104429600Y-70675850D01*
X104429600Y-70002400D01*
X104480400Y-70002400D01*
X104480400Y-70675850D01*
X104588350Y-70783800D01*
X105140890Y-70783800D01*
X105299595Y-70718063D01*
X105421062Y-70596595D01*
X105486800Y-70437891D01*
X105486800Y-70110350D01*
X105378850Y-70002400D01*
X104480400Y-70002400D01*
X104429600Y-70002400D01*
X104409600Y-70002400D01*
X104409600Y-69951600D01*
X104429600Y-69951600D01*
X104429600Y-69278150D01*
X104480400Y-69278150D01*
X104480400Y-69951600D01*
X105378850Y-69951600D01*
X105486800Y-69843650D01*
X105486800Y-69516109D01*
X105421062Y-69357405D01*
X105299595Y-69235937D01*
X105140890Y-69170200D01*
X104588350Y-69170200D01*
X104480400Y-69278150D01*
X104429600Y-69278150D01*
X104321650Y-69170200D01*
X103769110Y-69170200D01*
X103660302Y-69215269D01*
X103612809Y-69144191D01*
X103402765Y-69003843D01*
X103155000Y-68954560D01*
X103144069Y-68954560D01*
X103127151Y-68929241D01*
X103127149Y-68929239D01*
X103086058Y-68867742D01*
X103024560Y-68826650D01*
X102668350Y-68470440D01*
X102935000Y-68470440D01*
X103182765Y-68421157D01*
X103392809Y-68280809D01*
X103505000Y-68112905D01*
X103617191Y-68280809D01*
X103827235Y-68421157D01*
X104075000Y-68470440D01*
X105135000Y-68470440D01*
X105382765Y-68421157D01*
X105592809Y-68280809D01*
X105733157Y-68070765D01*
X105782440Y-67823000D01*
X105782440Y-67631350D01*
X106000200Y-67631350D01*
X106000200Y-68183890D01*
X106065937Y-68342595D01*
X106187405Y-68464062D01*
X106346109Y-68529800D01*
X106673650Y-68529800D01*
X106781600Y-68421850D01*
X106781600Y-67523400D01*
X106832400Y-67523400D01*
X106832400Y-68421850D01*
X106940350Y-68529800D01*
X107267891Y-68529800D01*
X107426595Y-68464062D01*
X107548063Y-68342595D01*
X107613800Y-68183890D01*
X107613800Y-67631350D01*
X107505850Y-67523400D01*
X106832400Y-67523400D01*
X106781600Y-67523400D01*
X106108150Y-67523400D01*
X106000200Y-67631350D01*
X105782440Y-67631350D01*
X105782440Y-67173000D01*
X105733157Y-66925235D01*
X105592809Y-66715191D01*
X105382765Y-66574843D01*
X105247815Y-66548000D01*
X105382765Y-66521157D01*
X105592809Y-66380809D01*
X105623685Y-66334600D01*
X105811731Y-66334600D01*
X105833843Y-66445765D01*
X105974191Y-66655809D01*
X106045269Y-66703302D01*
X106000200Y-66812110D01*
X106000200Y-67364650D01*
X106108150Y-67472600D01*
X106781600Y-67472600D01*
X106781600Y-67452600D01*
X106832400Y-67452600D01*
X106832400Y-67472600D01*
X107505850Y-67472600D01*
X107613800Y-67364650D01*
X107613800Y-66812110D01*
X107568731Y-66703302D01*
X107639809Y-66655809D01*
X107780157Y-66445765D01*
X107829440Y-66198000D01*
X107829440Y-65617269D01*
X108022109Y-65424600D01*
X108249199Y-65424600D01*
X108131843Y-65600235D01*
G36*
X113026707Y-75997532D02*
X113026707Y-76098684D01*
X113117435Y-76317722D01*
X112976320Y-76658406D01*
X112976320Y-76917200D01*
X112970350Y-76917200D01*
X112862400Y-77025150D01*
X112862400Y-77698600D01*
X112882400Y-77698600D01*
X112882400Y-77749400D01*
X112862400Y-77749400D01*
X112862400Y-78422850D01*
X112970350Y-78530800D01*
X113182352Y-78530800D01*
X113182351Y-78714200D01*
X113007350Y-78714200D01*
X112899400Y-78822150D01*
X112899400Y-79148560D01*
X112848600Y-79148560D01*
X112848600Y-78822150D01*
X112740650Y-78714200D01*
X112063110Y-78714200D01*
X111904405Y-78779937D01*
X111782938Y-78901405D01*
X111717200Y-79060109D01*
X111717200Y-79237650D01*
X111767052Y-79287502D01*
X111728645Y-79313165D01*
X111678231Y-79323193D01*
X111658393Y-79327139D01*
X111476241Y-79448849D01*
X111476240Y-79448850D01*
X111414742Y-79489942D01*
X111373650Y-79551440D01*
X110912966Y-80012124D01*
X110811518Y-79910676D01*
X110438095Y-79756000D01*
X110033905Y-79756000D01*
X109947495Y-79791792D01*
X109986440Y-79596000D01*
X109986440Y-79491269D01*
X110731270Y-78746440D01*
X111537000Y-78746440D01*
X111784765Y-78697157D01*
X111994809Y-78556809D01*
X112042302Y-78485731D01*
X112151110Y-78530800D01*
X112703650Y-78530800D01*
X112811600Y-78422850D01*
X112811600Y-77749400D01*
X112791600Y-77749400D01*
X112791600Y-77698600D01*
X112811600Y-77698600D01*
X112811600Y-77025150D01*
X112703650Y-76917200D01*
X112151110Y-76917200D01*
X112042302Y-76962269D01*
X112028813Y-76942081D01*
X112988987Y-75981908D01*
X113026707Y-75997532D01*
X113026707Y-75997532D01*
G37*
X113026707Y-75997532D02*
X113026707Y-76098684D01*
X113117435Y-76317722D01*
X112976320Y-76658406D01*
X112976320Y-76917200D01*
X112970350Y-76917200D01*
X112862400Y-77025150D01*
X112862400Y-77698600D01*
X112882400Y-77698600D01*
X112882400Y-77749400D01*
X112862400Y-77749400D01*
X112862400Y-78422850D01*
X112970350Y-78530800D01*
X113182352Y-78530800D01*
X113182351Y-78714200D01*
X113007350Y-78714200D01*
X112899400Y-78822150D01*
X112899400Y-79148560D01*
X112848600Y-79148560D01*
X112848600Y-78822150D01*
X112740650Y-78714200D01*
X112063110Y-78714200D01*
X111904405Y-78779937D01*
X111782938Y-78901405D01*
X111717200Y-79060109D01*
X111717200Y-79237650D01*
X111767052Y-79287502D01*
X111728645Y-79313165D01*
X111678231Y-79323193D01*
X111658393Y-79327139D01*
X111476241Y-79448849D01*
X111476240Y-79448850D01*
X111414742Y-79489942D01*
X111373650Y-79551440D01*
X110912966Y-80012124D01*
X110811518Y-79910676D01*
X110438095Y-79756000D01*
X110033905Y-79756000D01*
X109947495Y-79791792D01*
X109986440Y-79596000D01*
X109986440Y-79491269D01*
X110731270Y-78746440D01*
X111537000Y-78746440D01*
X111784765Y-78697157D01*
X111994809Y-78556809D01*
X112042302Y-78485731D01*
X112151110Y-78530800D01*
X112703650Y-78530800D01*
X112811600Y-78422850D01*
X112811600Y-77749400D01*
X112791600Y-77749400D01*
X112791600Y-77698600D01*
X112811600Y-77698600D01*
X112811600Y-77025150D01*
X112703650Y-76917200D01*
X112151110Y-76917200D01*
X112042302Y-76962269D01*
X112028813Y-76942081D01*
X112988987Y-75981908D01*
X113026707Y-75997532D01*
G36*
X122133815Y-78435107D02*
X122119672Y-78449249D01*
X122133815Y-78463392D01*
X122097894Y-78499313D01*
X122083751Y-78485170D01*
X122069609Y-78499313D01*
X122033688Y-78463392D01*
X122047830Y-78449249D01*
X122033688Y-78435107D01*
X122069609Y-78399186D01*
X122083751Y-78413328D01*
X122097894Y-78399186D01*
X122133815Y-78435107D01*
X122133815Y-78435107D01*
G37*
X122133815Y-78435107D02*
X122119672Y-78449249D01*
X122133815Y-78463392D01*
X122097894Y-78499313D01*
X122083751Y-78485170D01*
X122069609Y-78499313D01*
X122033688Y-78463392D01*
X122047830Y-78449249D01*
X122033688Y-78435107D01*
X122069609Y-78399186D01*
X122083751Y-78413328D01*
X122097894Y-78399186D01*
X122133815Y-78435107D01*
G36*
X127730976Y-76786402D02*
X127693450Y-76786402D01*
X127693450Y-76748876D01*
X127730976Y-76786402D01*
X127730976Y-76786402D01*
G37*
X127730976Y-76786402D02*
X127693450Y-76786402D01*
X127693450Y-76748876D01*
X127730976Y-76786402D01*
G36*
X127979955Y-76633758D02*
X128043181Y-76786402D01*
X127802824Y-76786402D01*
X127729374Y-76712952D01*
X127882035Y-76712952D01*
X127970592Y-76624395D01*
X127979955Y-76633758D01*
X127979955Y-76633758D01*
G37*
X127979955Y-76633758D02*
X128043181Y-76786402D01*
X127802824Y-76786402D01*
X127729374Y-76712952D01*
X127882035Y-76712952D01*
X127970592Y-76624395D01*
X127979955Y-76633758D01*
G36*
X127267313Y-76222609D02*
X127253170Y-76236751D01*
X127267313Y-76250894D01*
X127231392Y-76286815D01*
X127217249Y-76272672D01*
X127203107Y-76286815D01*
X127167186Y-76250894D01*
X127181328Y-76236751D01*
X127167186Y-76222609D01*
X127203107Y-76186688D01*
X127217249Y-76200830D01*
X127231392Y-76186688D01*
X127267313Y-76222609D01*
X127267313Y-76222609D01*
G37*
X127267313Y-76222609D02*
X127253170Y-76236751D01*
X127267313Y-76250894D01*
X127231392Y-76286815D01*
X127217249Y-76272672D01*
X127203107Y-76286815D01*
X127167186Y-76250894D01*
X127181328Y-76236751D01*
X127167186Y-76222609D01*
X127203107Y-76186688D01*
X127217249Y-76200830D01*
X127231392Y-76186688D01*
X127267313Y-76222609D01*
G36*
X117604811Y-74688107D02*
X116784150Y-75508768D01*
X116756785Y-75514211D01*
X116756782Y-75514211D01*
X116541919Y-75556950D01*
X116497413Y-75586688D01*
X116497413Y-75211831D01*
X116605144Y-75211831D01*
X116741364Y-75348051D01*
X116894028Y-75348051D01*
X117529328Y-74712751D01*
X117515186Y-74698609D01*
X117551107Y-74662688D01*
X117565249Y-74676830D01*
X117579392Y-74662688D01*
X117604811Y-74688107D01*
X117604811Y-74688107D01*
G37*
X117604811Y-74688107D02*
X116784150Y-75508768D01*
X116756785Y-75514211D01*
X116756782Y-75514211D01*
X116541919Y-75556950D01*
X116497413Y-75586688D01*
X116497413Y-75211831D01*
X116605144Y-75211831D01*
X116741364Y-75348051D01*
X116894028Y-75348051D01*
X117529328Y-74712751D01*
X117515186Y-74698609D01*
X117551107Y-74662688D01*
X117565249Y-74676830D01*
X117579392Y-74662688D01*
X117604811Y-74688107D01*
G36*
X127342298Y-71844640D02*
X127388928Y-71835365D01*
X127314428Y-71909865D01*
X127232404Y-72032622D01*
X127077535Y-71929141D01*
X127050872Y-71923837D01*
X127144499Y-71830211D01*
X127269758Y-71830211D01*
X127342298Y-71844640D01*
X127342298Y-71844640D01*
G37*
X127342298Y-71844640D02*
X127388928Y-71835365D01*
X127314428Y-71909865D01*
X127232404Y-72032622D01*
X127077535Y-71929141D01*
X127050872Y-71923837D01*
X127144499Y-71830211D01*
X127269758Y-71830211D01*
X127342298Y-71844640D01*
G36*
X120777757Y-70612981D02*
X120699359Y-70495651D01*
X120522582Y-70318874D01*
X120416611Y-70248066D01*
X120345805Y-70142098D01*
X120169028Y-69965321D01*
X120063060Y-69894515D01*
X119992252Y-69788544D01*
X119933352Y-69729644D01*
X120164334Y-69729644D01*
X120537757Y-69574968D01*
X120662481Y-69450244D01*
X121940493Y-69450244D01*
X120777757Y-70612981D01*
X120777757Y-70612981D01*
G37*
X120777757Y-70612981D02*
X120699359Y-70495651D01*
X120522582Y-70318874D01*
X120416611Y-70248066D01*
X120345805Y-70142098D01*
X120169028Y-69965321D01*
X120063060Y-69894515D01*
X119992252Y-69788544D01*
X119933352Y-69729644D01*
X120164334Y-69729644D01*
X120537757Y-69574968D01*
X120662481Y-69450244D01*
X121940493Y-69450244D01*
X120777757Y-70612981D01*
G36*
X136189560Y-66032000D02*
X136189560Y-67232000D01*
X136238843Y-67479765D01*
X136379191Y-67689809D01*
X136465014Y-67747155D01*
X136363191Y-67815191D01*
X136222843Y-68025235D01*
X136173560Y-68273000D01*
X136173560Y-68825188D01*
X136121638Y-68825188D01*
X136044850Y-68748400D01*
X135346400Y-68748400D01*
X135346400Y-68768400D01*
X135295600Y-68768400D01*
X135295600Y-68748400D01*
X135275600Y-68748400D01*
X135275600Y-68697600D01*
X135295600Y-68697600D01*
X135295600Y-67949150D01*
X135346400Y-67949150D01*
X135346400Y-68697600D01*
X136044850Y-68697600D01*
X136152800Y-68589650D01*
X136152800Y-68187110D01*
X136087063Y-68028405D01*
X135965595Y-67906938D01*
X135806891Y-67841200D01*
X135454350Y-67841200D01*
X135346400Y-67949150D01*
X135295600Y-67949150D01*
X135187650Y-67841200D01*
X134835109Y-67841200D01*
X134676405Y-67906938D01*
X134554937Y-68028405D01*
X134489200Y-68187110D01*
X134489200Y-68248133D01*
X134475615Y-68234548D01*
X134434522Y-68173048D01*
X134190871Y-68010245D01*
X133976008Y-67967506D01*
X133976004Y-67967506D01*
X133903464Y-67953077D01*
X133830924Y-67967506D01*
X131411374Y-67967506D01*
X131368006Y-67938528D01*
X131153143Y-67895789D01*
X131153139Y-67895789D01*
X131080599Y-67881360D01*
X131008059Y-67895789D01*
X127487109Y-67895789D01*
X127414569Y-67881360D01*
X127342028Y-67895789D01*
X127342025Y-67895789D01*
X127127162Y-67938528D01*
X126945010Y-68060238D01*
X126945008Y-68060240D01*
X126883511Y-68101331D01*
X126842419Y-68162829D01*
X126370780Y-68634469D01*
X126194394Y-68634469D01*
X125820971Y-68789145D01*
X125535165Y-69074951D01*
X125380489Y-69448374D01*
X125380489Y-69852564D01*
X125475299Y-70081457D01*
X125270518Y-69876676D01*
X124897095Y-69722000D01*
X124688600Y-69722000D01*
X124688600Y-68552988D01*
X124703029Y-68480447D01*
X124688600Y-68407907D01*
X124688600Y-67693047D01*
X130353207Y-67693047D01*
X130425747Y-67707476D01*
X130498287Y-67693047D01*
X130498291Y-67693047D01*
X130713154Y-67650308D01*
X130917259Y-67513929D01*
X131045104Y-67566883D01*
X131216885Y-67566884D01*
X131375589Y-67501146D01*
X131695583Y-67181152D01*
X131695583Y-67096873D01*
X133799550Y-67096873D01*
X133799550Y-67249537D01*
X134190255Y-67640242D01*
X134348959Y-67705981D01*
X134520740Y-67705980D01*
X134679445Y-67640243D01*
X134800912Y-67518775D01*
X134911051Y-67408636D01*
X134911051Y-67255972D01*
X134275751Y-66620672D01*
X133799550Y-67096873D01*
X131695583Y-67096873D01*
X131695583Y-67028487D01*
X131570843Y-66903747D01*
X131606764Y-66867826D01*
X131731504Y-66992566D01*
X131884169Y-66992566D01*
X132204163Y-66672572D01*
X132269901Y-66513868D01*
X132269900Y-66342087D01*
X132214813Y-66209091D01*
X132334478Y-66089426D01*
X132633539Y-66388487D01*
X132843583Y-66528835D01*
X133091348Y-66578118D01*
X133175190Y-66561441D01*
X133220260Y-66670247D01*
X133610965Y-67060952D01*
X133763629Y-67060952D01*
X134239830Y-66584751D01*
X134311672Y-66584751D01*
X134946972Y-67220051D01*
X135099636Y-67220051D01*
X135209775Y-67109912D01*
X135331243Y-66988445D01*
X135396980Y-66829740D01*
X135396981Y-66657959D01*
X135331242Y-66499255D01*
X134940537Y-66108550D01*
X134787873Y-66108550D01*
X134311672Y-66584751D01*
X134239830Y-66584751D01*
X134225688Y-66570609D01*
X134261609Y-66534688D01*
X134275751Y-66548830D01*
X134751952Y-66072629D01*
X134751952Y-65977849D01*
X136200331Y-65977849D01*
X136189560Y-66032000D01*
X136189560Y-66032000D01*
G37*
X136189560Y-66032000D02*
X136189560Y-67232000D01*
X136238843Y-67479765D01*
X136379191Y-67689809D01*
X136465014Y-67747155D01*
X136363191Y-67815191D01*
X136222843Y-68025235D01*
X136173560Y-68273000D01*
X136173560Y-68825188D01*
X136121638Y-68825188D01*
X136044850Y-68748400D01*
X135346400Y-68748400D01*
X135346400Y-68768400D01*
X135295600Y-68768400D01*
X135295600Y-68748400D01*
X135275600Y-68748400D01*
X135275600Y-68697600D01*
X135295600Y-68697600D01*
X135295600Y-67949150D01*
X135346400Y-67949150D01*
X135346400Y-68697600D01*
X136044850Y-68697600D01*
X136152800Y-68589650D01*
X136152800Y-68187110D01*
X136087063Y-68028405D01*
X135965595Y-67906938D01*
X135806891Y-67841200D01*
X135454350Y-67841200D01*
X135346400Y-67949150D01*
X135295600Y-67949150D01*
X135187650Y-67841200D01*
X134835109Y-67841200D01*
X134676405Y-67906938D01*
X134554937Y-68028405D01*
X134489200Y-68187110D01*
X134489200Y-68248133D01*
X134475615Y-68234548D01*
X134434522Y-68173048D01*
X134190871Y-68010245D01*
X133976008Y-67967506D01*
X133976004Y-67967506D01*
X133903464Y-67953077D01*
X133830924Y-67967506D01*
X131411374Y-67967506D01*
X131368006Y-67938528D01*
X131153143Y-67895789D01*
X131153139Y-67895789D01*
X131080599Y-67881360D01*
X131008059Y-67895789D01*
X127487109Y-67895789D01*
X127414569Y-67881360D01*
X127342028Y-67895789D01*
X127342025Y-67895789D01*
X127127162Y-67938528D01*
X126945010Y-68060238D01*
X126945008Y-68060240D01*
X126883511Y-68101331D01*
X126842419Y-68162829D01*
X126370780Y-68634469D01*
X126194394Y-68634469D01*
X125820971Y-68789145D01*
X125535165Y-69074951D01*
X125380489Y-69448374D01*
X125380489Y-69852564D01*
X125475299Y-70081457D01*
X125270518Y-69876676D01*
X124897095Y-69722000D01*
X124688600Y-69722000D01*
X124688600Y-68552988D01*
X124703029Y-68480447D01*
X124688600Y-68407907D01*
X124688600Y-67693047D01*
X130353207Y-67693047D01*
X130425747Y-67707476D01*
X130498287Y-67693047D01*
X130498291Y-67693047D01*
X130713154Y-67650308D01*
X130917259Y-67513929D01*
X131045104Y-67566883D01*
X131216885Y-67566884D01*
X131375589Y-67501146D01*
X131695583Y-67181152D01*
X131695583Y-67096873D01*
X133799550Y-67096873D01*
X133799550Y-67249537D01*
X134190255Y-67640242D01*
X134348959Y-67705981D01*
X134520740Y-67705980D01*
X134679445Y-67640243D01*
X134800912Y-67518775D01*
X134911051Y-67408636D01*
X134911051Y-67255972D01*
X134275751Y-66620672D01*
X133799550Y-67096873D01*
X131695583Y-67096873D01*
X131695583Y-67028487D01*
X131570843Y-66903747D01*
X131606764Y-66867826D01*
X131731504Y-66992566D01*
X131884169Y-66992566D01*
X132204163Y-66672572D01*
X132269901Y-66513868D01*
X132269900Y-66342087D01*
X132214813Y-66209091D01*
X132334478Y-66089426D01*
X132633539Y-66388487D01*
X132843583Y-66528835D01*
X133091348Y-66578118D01*
X133175190Y-66561441D01*
X133220260Y-66670247D01*
X133610965Y-67060952D01*
X133763629Y-67060952D01*
X134239830Y-66584751D01*
X134311672Y-66584751D01*
X134946972Y-67220051D01*
X135099636Y-67220051D01*
X135209775Y-67109912D01*
X135331243Y-66988445D01*
X135396980Y-66829740D01*
X135396981Y-66657959D01*
X135331242Y-66499255D01*
X134940537Y-66108550D01*
X134787873Y-66108550D01*
X134311672Y-66584751D01*
X134239830Y-66584751D01*
X134225688Y-66570609D01*
X134261609Y-66534688D01*
X134275751Y-66548830D01*
X134751952Y-66072629D01*
X134751952Y-65977849D01*
X136200331Y-65977849D01*
X136189560Y-66032000D01*
G36*
X103617191Y-66380809D02*
X103827235Y-66521157D01*
X103962185Y-66548000D01*
X103827235Y-66574843D01*
X103617191Y-66715191D01*
X103505000Y-66883095D01*
X103392809Y-66715191D01*
X103366800Y-66697812D01*
X103366800Y-66681350D01*
X103258850Y-66573400D01*
X103175510Y-66573400D01*
X103047815Y-66548000D01*
X103175510Y-66522600D01*
X103258850Y-66522600D01*
X103366800Y-66414650D01*
X103366800Y-66398188D01*
X103392809Y-66380809D01*
X103505000Y-66212905D01*
X103617191Y-66380809D01*
X103617191Y-66380809D01*
G37*
X103617191Y-66380809D02*
X103827235Y-66521157D01*
X103962185Y-66548000D01*
X103827235Y-66574843D01*
X103617191Y-66715191D01*
X103505000Y-66883095D01*
X103392809Y-66715191D01*
X103366800Y-66697812D01*
X103366800Y-66681350D01*
X103258850Y-66573400D01*
X103175510Y-66573400D01*
X103047815Y-66548000D01*
X103175510Y-66522600D01*
X103258850Y-66522600D01*
X103366800Y-66414650D01*
X103366800Y-66398188D01*
X103392809Y-66380809D01*
X103505000Y-66212905D01*
X103617191Y-66380809D01*
G36*
X120608177Y-62533012D02*
X120585456Y-62548194D01*
X119768861Y-61731598D01*
X119784725Y-61734754D01*
X119805739Y-61730574D01*
X120608177Y-62533012D01*
X120608177Y-62533012D01*
G37*
X120608177Y-62533012D02*
X120585456Y-62548194D01*
X119768861Y-61731598D01*
X119784725Y-61734754D01*
X119805739Y-61730574D01*
X120608177Y-62533012D01*
G36*
X122008401Y-54293111D02*
X122008400Y-57355452D01*
X121815461Y-57162513D01*
X121605417Y-57022165D01*
X121357652Y-56972882D01*
X121273810Y-56989559D01*
X121228740Y-56880753D01*
X120838035Y-56490048D01*
X120685371Y-56490048D01*
X120209170Y-56966249D01*
X120223313Y-56980392D01*
X120187392Y-57016313D01*
X120173249Y-57002170D01*
X119697048Y-57478371D01*
X119697048Y-57540048D01*
X119585371Y-57540048D01*
X119109170Y-58016249D01*
X119123313Y-58030392D01*
X119087392Y-58066313D01*
X119073249Y-58052170D01*
X118597048Y-58528371D01*
X118597048Y-58669048D01*
X118458371Y-58669048D01*
X117982170Y-59145249D01*
X117996313Y-59159392D01*
X117960392Y-59195313D01*
X117946249Y-59181170D01*
X117932107Y-59195313D01*
X117896186Y-59159392D01*
X117910328Y-59145249D01*
X117275028Y-58509949D01*
X117122364Y-58509949D01*
X117012225Y-58620088D01*
X116890757Y-58741555D01*
X116825020Y-58900260D01*
X116825019Y-59072041D01*
X116865877Y-59170679D01*
X116857041Y-59167019D01*
X116685260Y-59167020D01*
X116526555Y-59232757D01*
X116405088Y-59354225D01*
X116294949Y-59464364D01*
X116294949Y-59617028D01*
X116930249Y-60252328D01*
X116944392Y-60238186D01*
X116980313Y-60274107D01*
X116966170Y-60288249D01*
X116980313Y-60302392D01*
X116944392Y-60338313D01*
X116930249Y-60324170D01*
X116916107Y-60338313D01*
X116880186Y-60302392D01*
X116894328Y-60288249D01*
X116259028Y-59652949D01*
X116106364Y-59652949D01*
X115929386Y-59829927D01*
X115798600Y-59699141D01*
X115798600Y-58471109D01*
X115948345Y-58321364D01*
X117310949Y-58321364D01*
X117310949Y-58474028D01*
X117946249Y-59109328D01*
X118422450Y-58633127D01*
X118422450Y-58492450D01*
X118561127Y-58492450D01*
X119037328Y-58016249D01*
X118402028Y-57380949D01*
X118249364Y-57380949D01*
X118139225Y-57491088D01*
X118017757Y-57612555D01*
X117952020Y-57771260D01*
X117952019Y-57943041D01*
X118008867Y-58080282D01*
X117873041Y-58024019D01*
X117701260Y-58024020D01*
X117542555Y-58089757D01*
X117421088Y-58211225D01*
X117310949Y-58321364D01*
X115948345Y-58321364D01*
X116271942Y-57997768D01*
X116393652Y-57815616D01*
X116450820Y-57528209D01*
X116393652Y-57240803D01*
X116361287Y-57192364D01*
X118437949Y-57192364D01*
X118437949Y-57345028D01*
X119073249Y-57980328D01*
X119549450Y-57504127D01*
X119549450Y-57442450D01*
X119661127Y-57442450D01*
X120137328Y-56966249D01*
X119502028Y-56330949D01*
X119349364Y-56330949D01*
X119239225Y-56441088D01*
X119117757Y-56562555D01*
X119052020Y-56721260D01*
X119052019Y-56893041D01*
X119063774Y-56921419D01*
X119000041Y-56895019D01*
X118828260Y-56895020D01*
X118669555Y-56960757D01*
X118548088Y-57082225D01*
X118437949Y-57192364D01*
X116361287Y-57192364D01*
X116230849Y-56997151D01*
X115987197Y-56834348D01*
X115699791Y-56777180D01*
X115412384Y-56834348D01*
X115409191Y-56836481D01*
X114715074Y-56142364D01*
X119537949Y-56142364D01*
X119537949Y-56295028D01*
X120173249Y-56930328D01*
X120649450Y-56454127D01*
X120649450Y-56301463D01*
X120258745Y-55910758D01*
X120100041Y-55845019D01*
X119928260Y-55845020D01*
X119769555Y-55910757D01*
X119648088Y-56032225D01*
X119537949Y-56142364D01*
X114715074Y-56142364D01*
X114090829Y-55518119D01*
X114136172Y-55487822D01*
X115394822Y-54229172D01*
X115535170Y-54019128D01*
X115584453Y-53771363D01*
X115535170Y-53523598D01*
X115394822Y-53313554D01*
X115305868Y-53224600D01*
X116272460Y-53224600D01*
X116345000Y-53239029D01*
X116417540Y-53224600D01*
X116417544Y-53224600D01*
X116632407Y-53181861D01*
X116876058Y-53019058D01*
X116917151Y-52957558D01*
X118603467Y-51271242D01*
X118664967Y-51230149D01*
X118727854Y-51136033D01*
X118830839Y-51115548D01*
X122008401Y-54293111D01*
X122008401Y-54293111D01*
G37*
X122008401Y-54293111D02*
X122008400Y-57355452D01*
X121815461Y-57162513D01*
X121605417Y-57022165D01*
X121357652Y-56972882D01*
X121273810Y-56989559D01*
X121228740Y-56880753D01*
X120838035Y-56490048D01*
X120685371Y-56490048D01*
X120209170Y-56966249D01*
X120223313Y-56980392D01*
X120187392Y-57016313D01*
X120173249Y-57002170D01*
X119697048Y-57478371D01*
X119697048Y-57540048D01*
X119585371Y-57540048D01*
X119109170Y-58016249D01*
X119123313Y-58030392D01*
X119087392Y-58066313D01*
X119073249Y-58052170D01*
X118597048Y-58528371D01*
X118597048Y-58669048D01*
X118458371Y-58669048D01*
X117982170Y-59145249D01*
X117996313Y-59159392D01*
X117960392Y-59195313D01*
X117946249Y-59181170D01*
X117932107Y-59195313D01*
X117896186Y-59159392D01*
X117910328Y-59145249D01*
X117275028Y-58509949D01*
X117122364Y-58509949D01*
X117012225Y-58620088D01*
X116890757Y-58741555D01*
X116825020Y-58900260D01*
X116825019Y-59072041D01*
X116865877Y-59170679D01*
X116857041Y-59167019D01*
X116685260Y-59167020D01*
X116526555Y-59232757D01*
X116405088Y-59354225D01*
X116294949Y-59464364D01*
X116294949Y-59617028D01*
X116930249Y-60252328D01*
X116944392Y-60238186D01*
X116980313Y-60274107D01*
X116966170Y-60288249D01*
X116980313Y-60302392D01*
X116944392Y-60338313D01*
X116930249Y-60324170D01*
X116916107Y-60338313D01*
X116880186Y-60302392D01*
X116894328Y-60288249D01*
X116259028Y-59652949D01*
X116106364Y-59652949D01*
X115929386Y-59829927D01*
X115798600Y-59699141D01*
X115798600Y-58471109D01*
X115948345Y-58321364D01*
X117310949Y-58321364D01*
X117310949Y-58474028D01*
X117946249Y-59109328D01*
X118422450Y-58633127D01*
X118422450Y-58492450D01*
X118561127Y-58492450D01*
X119037328Y-58016249D01*
X118402028Y-57380949D01*
X118249364Y-57380949D01*
X118139225Y-57491088D01*
X118017757Y-57612555D01*
X117952020Y-57771260D01*
X117952019Y-57943041D01*
X118008867Y-58080282D01*
X117873041Y-58024019D01*
X117701260Y-58024020D01*
X117542555Y-58089757D01*
X117421088Y-58211225D01*
X117310949Y-58321364D01*
X115948345Y-58321364D01*
X116271942Y-57997768D01*
X116393652Y-57815616D01*
X116450820Y-57528209D01*
X116393652Y-57240803D01*
X116361287Y-57192364D01*
X118437949Y-57192364D01*
X118437949Y-57345028D01*
X119073249Y-57980328D01*
X119549450Y-57504127D01*
X119549450Y-57442450D01*
X119661127Y-57442450D01*
X120137328Y-56966249D01*
X119502028Y-56330949D01*
X119349364Y-56330949D01*
X119239225Y-56441088D01*
X119117757Y-56562555D01*
X119052020Y-56721260D01*
X119052019Y-56893041D01*
X119063774Y-56921419D01*
X119000041Y-56895019D01*
X118828260Y-56895020D01*
X118669555Y-56960757D01*
X118548088Y-57082225D01*
X118437949Y-57192364D01*
X116361287Y-57192364D01*
X116230849Y-56997151D01*
X115987197Y-56834348D01*
X115699791Y-56777180D01*
X115412384Y-56834348D01*
X115409191Y-56836481D01*
X114715074Y-56142364D01*
X119537949Y-56142364D01*
X119537949Y-56295028D01*
X120173249Y-56930328D01*
X120649450Y-56454127D01*
X120649450Y-56301463D01*
X120258745Y-55910758D01*
X120100041Y-55845019D01*
X119928260Y-55845020D01*
X119769555Y-55910757D01*
X119648088Y-56032225D01*
X119537949Y-56142364D01*
X114715074Y-56142364D01*
X114090829Y-55518119D01*
X114136172Y-55487822D01*
X115394822Y-54229172D01*
X115535170Y-54019128D01*
X115584453Y-53771363D01*
X115535170Y-53523598D01*
X115394822Y-53313554D01*
X115305868Y-53224600D01*
X116272460Y-53224600D01*
X116345000Y-53239029D01*
X116417540Y-53224600D01*
X116417544Y-53224600D01*
X116632407Y-53181861D01*
X116876058Y-53019058D01*
X116917151Y-52957558D01*
X118603467Y-51271242D01*
X118664967Y-51230149D01*
X118727854Y-51136033D01*
X118830839Y-51115548D01*
X122008401Y-54293111D01*
G36*
X128829905Y-57531000D02*
X129234095Y-57531000D01*
X129235200Y-57530542D01*
X129235200Y-57759209D01*
X129204660Y-57804916D01*
X129204657Y-57804919D01*
X129082947Y-57987071D01*
X129061811Y-58093328D01*
X129040208Y-58201933D01*
X129040208Y-58201937D01*
X129025779Y-58274477D01*
X129040208Y-58347017D01*
X129040208Y-58814995D01*
X127527724Y-60327480D01*
X127527724Y-59881166D01*
X127536400Y-59837548D01*
X127602487Y-59771461D01*
X127742835Y-59561417D01*
X127792118Y-59313652D01*
X127775441Y-59229810D01*
X127884247Y-59184740D01*
X128274952Y-58794035D01*
X128274952Y-58641371D01*
X127798751Y-58165170D01*
X127784609Y-58179313D01*
X127748688Y-58143392D01*
X127762830Y-58129249D01*
X127748688Y-58115107D01*
X127784609Y-58079186D01*
X127798751Y-58093328D01*
X127812894Y-58079186D01*
X127848815Y-58115107D01*
X127834672Y-58129249D01*
X128310873Y-58605450D01*
X128463537Y-58605450D01*
X128854242Y-58214745D01*
X128919981Y-58056041D01*
X128919980Y-57884260D01*
X128854243Y-57725555D01*
X128732775Y-57604088D01*
X128622636Y-57493949D01*
X128469975Y-57493949D01*
X128546306Y-57417618D01*
X128539328Y-57410640D01*
X128829905Y-57531000D01*
X128829905Y-57531000D01*
G37*
X128829905Y-57531000D02*
X129234095Y-57531000D01*
X129235200Y-57530542D01*
X129235200Y-57759209D01*
X129204660Y-57804916D01*
X129204657Y-57804919D01*
X129082947Y-57987071D01*
X129061811Y-58093328D01*
X129040208Y-58201933D01*
X129040208Y-58201937D01*
X129025779Y-58274477D01*
X129040208Y-58347017D01*
X129040208Y-58814995D01*
X127527724Y-60327480D01*
X127527724Y-59881166D01*
X127536400Y-59837548D01*
X127602487Y-59771461D01*
X127742835Y-59561417D01*
X127792118Y-59313652D01*
X127775441Y-59229810D01*
X127884247Y-59184740D01*
X128274952Y-58794035D01*
X128274952Y-58641371D01*
X127798751Y-58165170D01*
X127784609Y-58179313D01*
X127748688Y-58143392D01*
X127762830Y-58129249D01*
X127748688Y-58115107D01*
X127784609Y-58079186D01*
X127798751Y-58093328D01*
X127812894Y-58079186D01*
X127848815Y-58115107D01*
X127834672Y-58129249D01*
X128310873Y-58605450D01*
X128463537Y-58605450D01*
X128854242Y-58214745D01*
X128919981Y-58056041D01*
X128919980Y-57884260D01*
X128854243Y-57725555D01*
X128732775Y-57604088D01*
X128622636Y-57493949D01*
X128469975Y-57493949D01*
X128546306Y-57417618D01*
X128539328Y-57410640D01*
X128829905Y-57531000D01*
G36*
X117470048Y-59810035D02*
X117472061Y-59812048D01*
X117442374Y-59812048D01*
X117470048Y-59784374D01*
X117470048Y-59810035D01*
X117470048Y-59810035D01*
G37*
X117470048Y-59810035D02*
X117472061Y-59812048D01*
X117442374Y-59812048D01*
X117470048Y-59784374D01*
X117470048Y-59810035D01*
G36*
X117470048Y-59712526D02*
X117406450Y-59776124D01*
X117406450Y-59720972D01*
X117470048Y-59657374D01*
X117470048Y-59712526D01*
X117470048Y-59712526D01*
G37*
X117470048Y-59712526D02*
X117406450Y-59776124D01*
X117406450Y-59720972D01*
X117470048Y-59657374D01*
X117470048Y-59712526D01*
G36*
X117406450Y-59649124D02*
X117406450Y-59623463D01*
X117404437Y-59621450D01*
X117434124Y-59621450D01*
X117406450Y-59649124D01*
X117406450Y-59649124D01*
G37*
X117406450Y-59649124D02*
X117406450Y-59623463D01*
X117404437Y-59621450D01*
X117434124Y-59621450D01*
X117406450Y-59649124D01*
G36*
X109610588Y-43277048D02*
X109704942Y-43418258D01*
X109766442Y-43459351D01*
X109847359Y-43540268D01*
X109618235Y-43585843D01*
X109601000Y-43597359D01*
X109583765Y-43585843D01*
X109336000Y-43536560D01*
X108596000Y-43536560D01*
X108348235Y-43585843D01*
X108138191Y-43726191D01*
X108120812Y-43752200D01*
X107829350Y-43752200D01*
X107721400Y-43860150D01*
X107721400Y-45358600D01*
X107741400Y-45358600D01*
X107741400Y-45409400D01*
X107721400Y-45409400D01*
X107721400Y-46907850D01*
X107829350Y-47015800D01*
X108120812Y-47015800D01*
X108138191Y-47041809D01*
X108348235Y-47182157D01*
X108596000Y-47231440D01*
X109336000Y-47231440D01*
X109583765Y-47182157D01*
X109601000Y-47170641D01*
X109618235Y-47182157D01*
X109866000Y-47231440D01*
X109954718Y-47231440D01*
X109882676Y-47303482D01*
X109728000Y-47676905D01*
X109728000Y-47853290D01*
X108077000Y-49504290D01*
X105892600Y-47319891D01*
X105892600Y-47102753D01*
X105983809Y-47041809D01*
X106001188Y-47015800D01*
X106292650Y-47015800D01*
X106400600Y-46907850D01*
X106400600Y-45409400D01*
X106451400Y-45409400D01*
X106451400Y-46907850D01*
X106559350Y-47015800D01*
X106881891Y-47015800D01*
X107040595Y-46950062D01*
X107061000Y-46929657D01*
X107081405Y-46950062D01*
X107240109Y-47015800D01*
X107562650Y-47015800D01*
X107670600Y-46907850D01*
X107670600Y-45409400D01*
X106451400Y-45409400D01*
X106400600Y-45409400D01*
X106380600Y-45409400D01*
X106380600Y-45358600D01*
X106400600Y-45358600D01*
X106400600Y-43860150D01*
X106451400Y-43860150D01*
X106451400Y-45358600D01*
X107670600Y-45358600D01*
X107670600Y-43860150D01*
X107562650Y-43752200D01*
X107240109Y-43752200D01*
X107081405Y-43817938D01*
X107061000Y-43838343D01*
X107040595Y-43817938D01*
X106881891Y-43752200D01*
X106559350Y-43752200D01*
X106451400Y-43860150D01*
X106400600Y-43860150D01*
X106292650Y-43752200D01*
X106029509Y-43752200D01*
X106450270Y-43331440D01*
X106796000Y-43331440D01*
X107043765Y-43282157D01*
X107061000Y-43270641D01*
X107078235Y-43282157D01*
X107326000Y-43331440D01*
X108066000Y-43331440D01*
X108313765Y-43282157D01*
X108331000Y-43270641D01*
X108348235Y-43282157D01*
X108596000Y-43331440D01*
X109336000Y-43331440D01*
X109583765Y-43282157D01*
X109601000Y-43270641D01*
X109610588Y-43277048D01*
X109610588Y-43277048D01*
G37*
X109610588Y-43277048D02*
X109704942Y-43418258D01*
X109766442Y-43459351D01*
X109847359Y-43540268D01*
X109618235Y-43585843D01*
X109601000Y-43597359D01*
X109583765Y-43585843D01*
X109336000Y-43536560D01*
X108596000Y-43536560D01*
X108348235Y-43585843D01*
X108138191Y-43726191D01*
X108120812Y-43752200D01*
X107829350Y-43752200D01*
X107721400Y-43860150D01*
X107721400Y-45358600D01*
X107741400Y-45358600D01*
X107741400Y-45409400D01*
X107721400Y-45409400D01*
X107721400Y-46907850D01*
X107829350Y-47015800D01*
X108120812Y-47015800D01*
X108138191Y-47041809D01*
X108348235Y-47182157D01*
X108596000Y-47231440D01*
X109336000Y-47231440D01*
X109583765Y-47182157D01*
X109601000Y-47170641D01*
X109618235Y-47182157D01*
X109866000Y-47231440D01*
X109954718Y-47231440D01*
X109882676Y-47303482D01*
X109728000Y-47676905D01*
X109728000Y-47853290D01*
X108077000Y-49504290D01*
X105892600Y-47319891D01*
X105892600Y-47102753D01*
X105983809Y-47041809D01*
X106001188Y-47015800D01*
X106292650Y-47015800D01*
X106400600Y-46907850D01*
X106400600Y-45409400D01*
X106451400Y-45409400D01*
X106451400Y-46907850D01*
X106559350Y-47015800D01*
X106881891Y-47015800D01*
X107040595Y-46950062D01*
X107061000Y-46929657D01*
X107081405Y-46950062D01*
X107240109Y-47015800D01*
X107562650Y-47015800D01*
X107670600Y-46907850D01*
X107670600Y-45409400D01*
X106451400Y-45409400D01*
X106400600Y-45409400D01*
X106380600Y-45409400D01*
X106380600Y-45358600D01*
X106400600Y-45358600D01*
X106400600Y-43860150D01*
X106451400Y-43860150D01*
X106451400Y-45358600D01*
X107670600Y-45358600D01*
X107670600Y-43860150D01*
X107562650Y-43752200D01*
X107240109Y-43752200D01*
X107081405Y-43817938D01*
X107061000Y-43838343D01*
X107040595Y-43817938D01*
X106881891Y-43752200D01*
X106559350Y-43752200D01*
X106451400Y-43860150D01*
X106400600Y-43860150D01*
X106292650Y-43752200D01*
X106029509Y-43752200D01*
X106450270Y-43331440D01*
X106796000Y-43331440D01*
X107043765Y-43282157D01*
X107061000Y-43270641D01*
X107078235Y-43282157D01*
X107326000Y-43331440D01*
X108066000Y-43331440D01*
X108313765Y-43282157D01*
X108331000Y-43270641D01*
X108348235Y-43282157D01*
X108596000Y-43331440D01*
X109336000Y-43331440D01*
X109583765Y-43282157D01*
X109601000Y-43270641D01*
X109610588Y-43277048D01*
G36*
X119202245Y-39303077D02*
X119137598Y-39533258D01*
X119226437Y-39725600D01*
X120824600Y-39725600D01*
X120824600Y-39705600D01*
X120875400Y-39705600D01*
X120875400Y-39725600D01*
X123424600Y-39725600D01*
X123424600Y-39705600D01*
X123475400Y-39705600D01*
X123475400Y-39725600D01*
X125824600Y-39725600D01*
X125824600Y-39705600D01*
X125875400Y-39705600D01*
X125875400Y-39725600D01*
X128424600Y-39725600D01*
X128424600Y-39705600D01*
X128475400Y-39705600D01*
X128475400Y-39725600D01*
X130073563Y-39725600D01*
X130162402Y-39533258D01*
X130097755Y-39303077D01*
X129910550Y-39010000D01*
X132181591Y-39010000D01*
X132067843Y-39180235D01*
X132018560Y-39428000D01*
X132018560Y-39933730D01*
X129649870Y-42302420D01*
X129573850Y-42226400D01*
X128275400Y-42226400D01*
X128275400Y-43224850D01*
X128383350Y-43332800D01*
X128619491Y-43332800D01*
X127795366Y-44156925D01*
X127583095Y-44069000D01*
X127368830Y-44069000D01*
X127369029Y-44068000D01*
X127354600Y-43995459D01*
X127354600Y-43995456D01*
X127311861Y-43780593D01*
X127290377Y-43748440D01*
X127190151Y-43598441D01*
X127190149Y-43598439D01*
X127149058Y-43536942D01*
X127087560Y-43495850D01*
X126780064Y-43188355D01*
X126797440Y-43101000D01*
X126797440Y-42334350D01*
X126818200Y-42334350D01*
X126818200Y-42986891D01*
X126883938Y-43145595D01*
X127005405Y-43267063D01*
X127164110Y-43332800D01*
X128116650Y-43332800D01*
X128224600Y-43224850D01*
X128224600Y-42226400D01*
X126926150Y-42226400D01*
X126818200Y-42334350D01*
X126797440Y-42334350D01*
X126797440Y-41751000D01*
X126748157Y-41503235D01*
X126689273Y-41415109D01*
X126818200Y-41415109D01*
X126818200Y-42067650D01*
X126926150Y-42175600D01*
X128224600Y-42175600D01*
X128224600Y-41177150D01*
X128275400Y-41177150D01*
X128275400Y-42175600D01*
X129573850Y-42175600D01*
X129681800Y-42067650D01*
X129681800Y-41415109D01*
X129616062Y-41256405D01*
X129494595Y-41134937D01*
X129335890Y-41069200D01*
X128383350Y-41069200D01*
X128275400Y-41177150D01*
X128224600Y-41177150D01*
X128116650Y-41069200D01*
X127164110Y-41069200D01*
X127005405Y-41134937D01*
X126883938Y-41256405D01*
X126818200Y-41415109D01*
X126689273Y-41415109D01*
X126607809Y-41293191D01*
X126397765Y-41152843D01*
X126297001Y-41132800D01*
X126885890Y-41132800D01*
X127044595Y-41067063D01*
X127166062Y-40945595D01*
X127231800Y-40786891D01*
X127231800Y-40723327D01*
X127455144Y-40879315D01*
X127924600Y-40982800D01*
X128424600Y-40982800D01*
X128424600Y-39776400D01*
X128475400Y-39776400D01*
X128475400Y-40982800D01*
X128975400Y-40982800D01*
X129444856Y-40879315D01*
X129838975Y-40604054D01*
X130097755Y-40198923D01*
X130162402Y-39968742D01*
X130073563Y-39776400D01*
X128475400Y-39776400D01*
X128424600Y-39776400D01*
X125875400Y-39776400D01*
X125875400Y-39796400D01*
X125824600Y-39796400D01*
X125824600Y-39776400D01*
X123475400Y-39776400D01*
X123475400Y-41024850D01*
X123583350Y-41132800D01*
X123652999Y-41132800D01*
X123552235Y-41152843D01*
X123342191Y-41293191D01*
X123324812Y-41319200D01*
X123324598Y-41319200D01*
X123324598Y-41319520D01*
X123281488Y-41384038D01*
X123216650Y-41319200D01*
X123064110Y-41319200D01*
X122905405Y-41384937D01*
X122783938Y-41506405D01*
X122718200Y-41665109D01*
X122718200Y-42292650D01*
X122826150Y-42400600D01*
X123152560Y-42400600D01*
X123152560Y-42451400D01*
X122826150Y-42451400D01*
X122718200Y-42559350D01*
X122718200Y-43186891D01*
X122783938Y-43345595D01*
X122905405Y-43467063D01*
X123064110Y-43532800D01*
X123216650Y-43532800D01*
X123281488Y-43467962D01*
X123324598Y-43532480D01*
X123324598Y-43532800D01*
X123324812Y-43532800D01*
X123342191Y-43558809D01*
X123552235Y-43699157D01*
X123800000Y-43748440D01*
X123913401Y-43748440D01*
X123913401Y-46025482D01*
X123768000Y-45996560D01*
X122868000Y-45996560D01*
X122657389Y-46038453D01*
X122908324Y-45787518D01*
X123063000Y-45414095D01*
X123063000Y-45009905D01*
X122908324Y-44636482D01*
X122622518Y-44350676D01*
X122249095Y-44196000D01*
X121844905Y-44196000D01*
X121471482Y-44350676D01*
X121346758Y-44475400D01*
X114626544Y-44475400D01*
X114554000Y-44460970D01*
X114481456Y-44475400D01*
X113991540Y-44475400D01*
X113919000Y-44460971D01*
X113846459Y-44475400D01*
X113846456Y-44475400D01*
X113675115Y-44509482D01*
X113631593Y-44518139D01*
X113449441Y-44639849D01*
X113449439Y-44639851D01*
X113387942Y-44680942D01*
X113346850Y-44742440D01*
X112242600Y-45846691D01*
X112242600Y-44229740D01*
X112257029Y-44157199D01*
X112242600Y-44084659D01*
X112242600Y-44084656D01*
X112199861Y-43869793D01*
X112176785Y-43835258D01*
X112078151Y-43687641D01*
X112078149Y-43687639D01*
X112037058Y-43626142D01*
X111975560Y-43585050D01*
X111223754Y-42833244D01*
X111253440Y-42684000D01*
X111253440Y-42334350D01*
X119618200Y-42334350D01*
X119618200Y-42986891D01*
X119683938Y-43145595D01*
X119805405Y-43267063D01*
X119964110Y-43332800D01*
X120916650Y-43332800D01*
X121024600Y-43224850D01*
X121024600Y-42226400D01*
X121075400Y-42226400D01*
X121075400Y-43224850D01*
X121183350Y-43332800D01*
X122135890Y-43332800D01*
X122294595Y-43267063D01*
X122416062Y-43145595D01*
X122481800Y-42986891D01*
X122481800Y-42334350D01*
X122373850Y-42226400D01*
X121075400Y-42226400D01*
X121024600Y-42226400D01*
X119726150Y-42226400D01*
X119618200Y-42334350D01*
X111253440Y-42334350D01*
X111253440Y-41415109D01*
X119618200Y-41415109D01*
X119618200Y-42067650D01*
X119726150Y-42175600D01*
X121024600Y-42175600D01*
X121024600Y-41177150D01*
X121075400Y-41177150D01*
X121075400Y-42175600D01*
X122373850Y-42175600D01*
X122481800Y-42067650D01*
X122481800Y-41415109D01*
X122416062Y-41256405D01*
X122294595Y-41134937D01*
X122135890Y-41069200D01*
X121183350Y-41069200D01*
X121075400Y-41177150D01*
X121024600Y-41177150D01*
X120916650Y-41069200D01*
X119964110Y-41069200D01*
X119805405Y-41134937D01*
X119683938Y-41256405D01*
X119618200Y-41415109D01*
X111253440Y-41415109D01*
X111253440Y-40284000D01*
X111204157Y-40036235D01*
X111159060Y-39968742D01*
X119137598Y-39968742D01*
X119202245Y-40198923D01*
X119461025Y-40604054D01*
X119855144Y-40879315D01*
X120324600Y-40982800D01*
X120824600Y-40982800D01*
X120824600Y-39776400D01*
X120875400Y-39776400D01*
X120875400Y-40982800D01*
X121375400Y-40982800D01*
X121844856Y-40879315D01*
X122068200Y-40723327D01*
X122068200Y-40786891D01*
X122133938Y-40945595D01*
X122255405Y-41067063D01*
X122414110Y-41132800D01*
X123316650Y-41132800D01*
X123424600Y-41024850D01*
X123424600Y-39776400D01*
X120875400Y-39776400D01*
X120824600Y-39776400D01*
X119226437Y-39776400D01*
X119137598Y-39968742D01*
X111159060Y-39968742D01*
X111063809Y-39826191D01*
X110853765Y-39685843D01*
X110606000Y-39636560D01*
X109866000Y-39636560D01*
X109618235Y-39685843D01*
X109601000Y-39697359D01*
X109583765Y-39685843D01*
X109336000Y-39636560D01*
X108596000Y-39636560D01*
X108404397Y-39674672D01*
X108389861Y-39601593D01*
X108227058Y-39357942D01*
X108165558Y-39316849D01*
X107917151Y-39068442D01*
X107878101Y-39010000D01*
X119389450Y-39010000D01*
X119202245Y-39303077D01*
X119202245Y-39303077D01*
G37*
X119202245Y-39303077D02*
X119137598Y-39533258D01*
X119226437Y-39725600D01*
X120824600Y-39725600D01*
X120824600Y-39705600D01*
X120875400Y-39705600D01*
X120875400Y-39725600D01*
X123424600Y-39725600D01*
X123424600Y-39705600D01*
X123475400Y-39705600D01*
X123475400Y-39725600D01*
X125824600Y-39725600D01*
X125824600Y-39705600D01*
X125875400Y-39705600D01*
X125875400Y-39725600D01*
X128424600Y-39725600D01*
X128424600Y-39705600D01*
X128475400Y-39705600D01*
X128475400Y-39725600D01*
X130073563Y-39725600D01*
X130162402Y-39533258D01*
X130097755Y-39303077D01*
X129910550Y-39010000D01*
X132181591Y-39010000D01*
X132067843Y-39180235D01*
X132018560Y-39428000D01*
X132018560Y-39933730D01*
X129649870Y-42302420D01*
X129573850Y-42226400D01*
X128275400Y-42226400D01*
X128275400Y-43224850D01*
X128383350Y-43332800D01*
X128619491Y-43332800D01*
X127795366Y-44156925D01*
X127583095Y-44069000D01*
X127368830Y-44069000D01*
X127369029Y-44068000D01*
X127354600Y-43995459D01*
X127354600Y-43995456D01*
X127311861Y-43780593D01*
X127290377Y-43748440D01*
X127190151Y-43598441D01*
X127190149Y-43598439D01*
X127149058Y-43536942D01*
X127087560Y-43495850D01*
X126780064Y-43188355D01*
X126797440Y-43101000D01*
X126797440Y-42334350D01*
X126818200Y-42334350D01*
X126818200Y-42986891D01*
X126883938Y-43145595D01*
X127005405Y-43267063D01*
X127164110Y-43332800D01*
X128116650Y-43332800D01*
X128224600Y-43224850D01*
X128224600Y-42226400D01*
X126926150Y-42226400D01*
X126818200Y-42334350D01*
X126797440Y-42334350D01*
X126797440Y-41751000D01*
X126748157Y-41503235D01*
X126689273Y-41415109D01*
X126818200Y-41415109D01*
X126818200Y-42067650D01*
X126926150Y-42175600D01*
X128224600Y-42175600D01*
X128224600Y-41177150D01*
X128275400Y-41177150D01*
X128275400Y-42175600D01*
X129573850Y-42175600D01*
X129681800Y-42067650D01*
X129681800Y-41415109D01*
X129616062Y-41256405D01*
X129494595Y-41134937D01*
X129335890Y-41069200D01*
X128383350Y-41069200D01*
X128275400Y-41177150D01*
X128224600Y-41177150D01*
X128116650Y-41069200D01*
X127164110Y-41069200D01*
X127005405Y-41134937D01*
X126883938Y-41256405D01*
X126818200Y-41415109D01*
X126689273Y-41415109D01*
X126607809Y-41293191D01*
X126397765Y-41152843D01*
X126297001Y-41132800D01*
X126885890Y-41132800D01*
X127044595Y-41067063D01*
X127166062Y-40945595D01*
X127231800Y-40786891D01*
X127231800Y-40723327D01*
X127455144Y-40879315D01*
X127924600Y-40982800D01*
X128424600Y-40982800D01*
X128424600Y-39776400D01*
X128475400Y-39776400D01*
X128475400Y-40982800D01*
X128975400Y-40982800D01*
X129444856Y-40879315D01*
X129838975Y-40604054D01*
X130097755Y-40198923D01*
X130162402Y-39968742D01*
X130073563Y-39776400D01*
X128475400Y-39776400D01*
X128424600Y-39776400D01*
X125875400Y-39776400D01*
X125875400Y-39796400D01*
X125824600Y-39796400D01*
X125824600Y-39776400D01*
X123475400Y-39776400D01*
X123475400Y-41024850D01*
X123583350Y-41132800D01*
X123652999Y-41132800D01*
X123552235Y-41152843D01*
X123342191Y-41293191D01*
X123324812Y-41319200D01*
X123324598Y-41319200D01*
X123324598Y-41319520D01*
X123281488Y-41384038D01*
X123216650Y-41319200D01*
X123064110Y-41319200D01*
X122905405Y-41384937D01*
X122783938Y-41506405D01*
X122718200Y-41665109D01*
X122718200Y-42292650D01*
X122826150Y-42400600D01*
X123152560Y-42400600D01*
X123152560Y-42451400D01*
X122826150Y-42451400D01*
X122718200Y-42559350D01*
X122718200Y-43186891D01*
X122783938Y-43345595D01*
X122905405Y-43467063D01*
X123064110Y-43532800D01*
X123216650Y-43532800D01*
X123281488Y-43467962D01*
X123324598Y-43532480D01*
X123324598Y-43532800D01*
X123324812Y-43532800D01*
X123342191Y-43558809D01*
X123552235Y-43699157D01*
X123800000Y-43748440D01*
X123913401Y-43748440D01*
X123913401Y-46025482D01*
X123768000Y-45996560D01*
X122868000Y-45996560D01*
X122657389Y-46038453D01*
X122908324Y-45787518D01*
X123063000Y-45414095D01*
X123063000Y-45009905D01*
X122908324Y-44636482D01*
X122622518Y-44350676D01*
X122249095Y-44196000D01*
X121844905Y-44196000D01*
X121471482Y-44350676D01*
X121346758Y-44475400D01*
X114626544Y-44475400D01*
X114554000Y-44460970D01*
X114481456Y-44475400D01*
X113991540Y-44475400D01*
X113919000Y-44460971D01*
X113846459Y-44475400D01*
X113846456Y-44475400D01*
X113675115Y-44509482D01*
X113631593Y-44518139D01*
X113449441Y-44639849D01*
X113449439Y-44639851D01*
X113387942Y-44680942D01*
X113346850Y-44742440D01*
X112242600Y-45846691D01*
X112242600Y-44229740D01*
X112257029Y-44157199D01*
X112242600Y-44084659D01*
X112242600Y-44084656D01*
X112199861Y-43869793D01*
X112176785Y-43835258D01*
X112078151Y-43687641D01*
X112078149Y-43687639D01*
X112037058Y-43626142D01*
X111975560Y-43585050D01*
X111223754Y-42833244D01*
X111253440Y-42684000D01*
X111253440Y-42334350D01*
X119618200Y-42334350D01*
X119618200Y-42986891D01*
X119683938Y-43145595D01*
X119805405Y-43267063D01*
X119964110Y-43332800D01*
X120916650Y-43332800D01*
X121024600Y-43224850D01*
X121024600Y-42226400D01*
X121075400Y-42226400D01*
X121075400Y-43224850D01*
X121183350Y-43332800D01*
X122135890Y-43332800D01*
X122294595Y-43267063D01*
X122416062Y-43145595D01*
X122481800Y-42986891D01*
X122481800Y-42334350D01*
X122373850Y-42226400D01*
X121075400Y-42226400D01*
X121024600Y-42226400D01*
X119726150Y-42226400D01*
X119618200Y-42334350D01*
X111253440Y-42334350D01*
X111253440Y-41415109D01*
X119618200Y-41415109D01*
X119618200Y-42067650D01*
X119726150Y-42175600D01*
X121024600Y-42175600D01*
X121024600Y-41177150D01*
X121075400Y-41177150D01*
X121075400Y-42175600D01*
X122373850Y-42175600D01*
X122481800Y-42067650D01*
X122481800Y-41415109D01*
X122416062Y-41256405D01*
X122294595Y-41134937D01*
X122135890Y-41069200D01*
X121183350Y-41069200D01*
X121075400Y-41177150D01*
X121024600Y-41177150D01*
X120916650Y-41069200D01*
X119964110Y-41069200D01*
X119805405Y-41134937D01*
X119683938Y-41256405D01*
X119618200Y-41415109D01*
X111253440Y-41415109D01*
X111253440Y-40284000D01*
X111204157Y-40036235D01*
X111159060Y-39968742D01*
X119137598Y-39968742D01*
X119202245Y-40198923D01*
X119461025Y-40604054D01*
X119855144Y-40879315D01*
X120324600Y-40982800D01*
X120824600Y-40982800D01*
X120824600Y-39776400D01*
X120875400Y-39776400D01*
X120875400Y-40982800D01*
X121375400Y-40982800D01*
X121844856Y-40879315D01*
X122068200Y-40723327D01*
X122068200Y-40786891D01*
X122133938Y-40945595D01*
X122255405Y-41067063D01*
X122414110Y-41132800D01*
X123316650Y-41132800D01*
X123424600Y-41024850D01*
X123424600Y-39776400D01*
X120875400Y-39776400D01*
X120824600Y-39776400D01*
X119226437Y-39776400D01*
X119137598Y-39968742D01*
X111159060Y-39968742D01*
X111063809Y-39826191D01*
X110853765Y-39685843D01*
X110606000Y-39636560D01*
X109866000Y-39636560D01*
X109618235Y-39685843D01*
X109601000Y-39697359D01*
X109583765Y-39685843D01*
X109336000Y-39636560D01*
X108596000Y-39636560D01*
X108404397Y-39674672D01*
X108389861Y-39601593D01*
X108227058Y-39357942D01*
X108165558Y-39316849D01*
X107917151Y-39068442D01*
X107878101Y-39010000D01*
X119389450Y-39010000D01*
X119202245Y-39303077D01*
G04 #@! TD*
M02*
