M48
;DRILL file {KiCad (5.0.0-rc2-dev-111-gc69db6c)} date Wednesday, May 02, 2018 at 12:46:03 AM
;FORMAT={2:4/ absolute / inch / suppress leading zeros}
FMAT,2
INCH,TZ
T1C0.0150
T2C0.0472
T3C0.0866
T4C0.2874
%
G90
G05
M72
T1
X39850Y-34500
X39900Y-30350
X40450Y-30900
X40465Y-33881
X40750Y-26200
X41250Y-33026
X41250Y-33850
X41700Y-27200
X42070Y-32250
X42139Y-32757
X42450Y-18900
X42900Y-22750
X43400Y-31800
X43600Y-18850
X43700Y-31100
X44150Y-18500
X44280Y-34220
X44650Y-29550
X44879Y-30260
X44899Y-29881
X44930Y-32234
X44939Y-26511
X45020Y-32707
X45300Y-29449
X45350Y-32500
X45350Y-33310
X45500Y-20150
X45600Y-31011
X45739Y-30535
X45837Y-29211
X45846Y-30170
X45868Y-31332
X45885Y-29588
X45997Y-22919
X46053Y-27319
X46321Y-30476
X46800Y-16750
X46945Y-30170
X47229Y-27053
X47234Y-30858
X47325Y-31870
X47342Y-24502
X47494Y-29707
X47600Y-27700
X47874Y-29696
X48050Y-17800
X48250Y-29750
X48400Y-26400
X48693Y-30774
X49100Y-26050
X49100Y-29400
X49600Y-20950
X49650Y-29850
X49750Y-27750
X50020Y-28400
X50150Y-17750
X50250Y-23650
X50772Y-30057
X50800Y-22250
X50850Y-19700
X50900Y-21850
X52200Y-29200
X52250Y-26150
X52650Y-31900
X53300Y-19950
X54300Y-24500
X54800Y-32450
X54950Y-23200
X55550Y-24300
X55700Y-33050
X56600Y-20100
X56650Y-34500
X57852Y-34247
X57852Y-34641
X58246Y-34444
T2
X47776Y-15650
X50374Y-15650
T3
X49075Y-22559
T4
X49075Y-32421
T0
M30
