G04 #@! TF.GenerationSoftware,KiCad,Pcbnew,(5.0.2-5)-5*
G04 #@! TF.CreationDate,2019-03-10T20:48:22-07:00*
G04 #@! TF.ProjectId,pygameboy,70796761-6d65-4626-9f79-2e6b69636164,rev?*
G04 #@! TF.SameCoordinates,Original*
G04 #@! TF.FileFunction,Soldermask,Bot*
G04 #@! TF.FilePolarity,Negative*
%FSLAX46Y46*%
G04 Gerber Fmt 4.6, Leading zero omitted, Abs format (unit mm)*
G04 Created by KiCad (PCBNEW (5.0.2-5)-5) date Sunday, March 10, 2019 at 08:48:22 PM*
%MOMM*%
%LPD*%
G01*
G04 APERTURE LIST*
%ADD10C,0.010000*%
%ADD11C,0.100000*%
G04 APERTURE END LIST*
D10*
G04 #@! TO.C,G\002A\002A\002A*
G36*
X117303969Y-44311103D02*
X117266134Y-44312878D01*
X117230237Y-44315950D01*
X117194588Y-44320451D01*
X117157501Y-44326512D01*
X117132463Y-44331226D01*
X117095495Y-44338873D01*
X117060230Y-44347056D01*
X117025622Y-44356108D01*
X116990624Y-44366364D01*
X116954191Y-44378156D01*
X116915278Y-44391818D01*
X116872839Y-44407684D01*
X116825827Y-44426088D01*
X116790263Y-44440406D01*
X116743042Y-44459805D01*
X116695102Y-44479943D01*
X116646041Y-44501011D01*
X116595453Y-44523199D01*
X116542934Y-44546695D01*
X116488079Y-44571689D01*
X116430486Y-44598372D01*
X116369749Y-44626932D01*
X116305464Y-44657559D01*
X116237227Y-44690442D01*
X116164635Y-44725772D01*
X116087281Y-44763737D01*
X116004764Y-44804528D01*
X115916677Y-44848333D01*
X115858915Y-44877177D01*
X115777201Y-44917964D01*
X115701268Y-44955698D01*
X115630642Y-44990596D01*
X115564851Y-45022875D01*
X115503423Y-45052752D01*
X115445885Y-45080444D01*
X115391765Y-45106167D01*
X115340591Y-45130138D01*
X115291889Y-45152575D01*
X115245189Y-45173695D01*
X115200018Y-45193714D01*
X115155903Y-45212848D01*
X115112371Y-45231316D01*
X115068951Y-45249334D01*
X115025171Y-45267119D01*
X114980557Y-45284888D01*
X114934637Y-45302857D01*
X114917458Y-45309509D01*
X114893476Y-45318793D01*
X114871212Y-45327455D01*
X114851652Y-45335109D01*
X114835781Y-45341366D01*
X114824586Y-45345840D01*
X114819216Y-45348070D01*
X114809168Y-45352573D01*
X114824302Y-45371849D01*
X114836111Y-45385902D01*
X114852080Y-45403482D01*
X114871079Y-45423449D01*
X114891977Y-45444663D01*
X114913643Y-45465986D01*
X114934945Y-45486277D01*
X114954754Y-45504397D01*
X114963319Y-45511920D01*
X115038898Y-45573039D01*
X115120648Y-45631238D01*
X115208253Y-45686375D01*
X115301399Y-45738306D01*
X115399769Y-45786886D01*
X115503048Y-45831973D01*
X115610921Y-45873422D01*
X115723072Y-45911091D01*
X115839186Y-45944835D01*
X115958946Y-45974510D01*
X115998722Y-45983281D01*
X116057747Y-45995567D01*
X116111586Y-46006013D01*
X116161795Y-46014877D01*
X116209926Y-46022413D01*
X116257531Y-46028877D01*
X116306165Y-46034526D01*
X116316222Y-46035588D01*
X116336268Y-46037185D01*
X116361488Y-46038438D01*
X116390561Y-46039348D01*
X116422167Y-46039913D01*
X116454986Y-46040134D01*
X116487697Y-46040011D01*
X116518980Y-46039543D01*
X116547515Y-46038730D01*
X116571981Y-46037572D01*
X116591059Y-46036069D01*
X116594917Y-46035629D01*
X116665413Y-46024359D01*
X116730332Y-46008777D01*
X116789686Y-45988875D01*
X116843489Y-45964642D01*
X116891754Y-45936071D01*
X116934494Y-45903152D01*
X116971725Y-45865875D01*
X117003458Y-45824233D01*
X117029708Y-45778216D01*
X117049186Y-45731556D01*
X117058436Y-45703336D01*
X117065050Y-45677790D01*
X117069389Y-45652670D01*
X117071811Y-45625726D01*
X117072677Y-45594710D01*
X117072689Y-45584690D01*
X117072494Y-45527783D01*
X117095459Y-45525430D01*
X117118423Y-45523078D01*
X117168181Y-45557010D01*
X117167739Y-45606359D01*
X117163754Y-45664590D01*
X117152973Y-45721341D01*
X117135573Y-45776195D01*
X117111733Y-45828732D01*
X117081631Y-45878536D01*
X117045446Y-45925188D01*
X117020226Y-45952155D01*
X116979590Y-45989000D01*
X116935860Y-46021371D01*
X116888528Y-46049491D01*
X116837089Y-46073584D01*
X116781034Y-46093873D01*
X116719857Y-46110584D01*
X116653052Y-46123938D01*
X116619611Y-46129113D01*
X116598545Y-46131389D01*
X116571697Y-46133185D01*
X116540325Y-46134500D01*
X116505685Y-46135334D01*
X116469034Y-46135688D01*
X116431631Y-46135562D01*
X116394731Y-46134956D01*
X116359593Y-46133870D01*
X116327474Y-46132303D01*
X116299630Y-46130257D01*
X116288000Y-46129088D01*
X116173753Y-46113915D01*
X116058621Y-46094055D01*
X115943476Y-46069770D01*
X115829191Y-46041321D01*
X115716641Y-46008969D01*
X115606697Y-45972975D01*
X115500234Y-45933600D01*
X115398124Y-45891106D01*
X115301240Y-45845754D01*
X115246392Y-45817498D01*
X115163282Y-45770751D01*
X115084342Y-45721631D01*
X115010019Y-45670487D01*
X114940759Y-45617668D01*
X114877007Y-45563522D01*
X114819209Y-45508397D01*
X114767812Y-45452643D01*
X114746120Y-45426480D01*
X114731411Y-45408572D01*
X114720353Y-45396259D01*
X114712679Y-45389267D01*
X114708122Y-45387322D01*
X114707894Y-45387373D01*
X114693318Y-45391012D01*
X114672871Y-45395139D01*
X114647704Y-45399588D01*
X114618971Y-45404193D01*
X114587826Y-45408787D01*
X114555421Y-45413204D01*
X114522909Y-45417276D01*
X114491444Y-45420837D01*
X114462179Y-45423720D01*
X114448264Y-45424893D01*
X114418004Y-45426630D01*
X114384491Y-45427311D01*
X114347279Y-45426909D01*
X114305925Y-45425398D01*
X114259983Y-45422750D01*
X114209009Y-45418938D01*
X114152559Y-45413937D01*
X114090188Y-45407719D01*
X114021452Y-45400256D01*
X114000236Y-45397853D01*
X113902304Y-45386039D01*
X113797890Y-45372253D01*
X113687274Y-45356544D01*
X113570733Y-45338962D01*
X113448546Y-45319559D01*
X113320989Y-45298386D01*
X113188343Y-45275492D01*
X113050883Y-45250928D01*
X112908890Y-45224746D01*
X112762640Y-45196995D01*
X112612412Y-45167727D01*
X112458483Y-45136991D01*
X112301133Y-45104840D01*
X112140639Y-45071322D01*
X111977279Y-45036489D01*
X111811331Y-45000392D01*
X111783028Y-44994166D01*
X111751495Y-44987268D01*
X111721427Y-44980787D01*
X111693674Y-44974899D01*
X111669087Y-44969780D01*
X111648516Y-44965607D01*
X111632814Y-44962556D01*
X111622830Y-44960804D01*
X111620750Y-44960520D01*
X111593371Y-44960603D01*
X111564403Y-44966198D01*
X111535663Y-44976640D01*
X111508968Y-44991263D01*
X111486137Y-45009400D01*
X111485423Y-45010097D01*
X111474666Y-45022458D01*
X111461441Y-45040584D01*
X111446127Y-45063782D01*
X111429102Y-45091362D01*
X111410747Y-45122633D01*
X111391438Y-45156902D01*
X111371556Y-45193479D01*
X111351479Y-45231671D01*
X111331585Y-45270789D01*
X111312253Y-45310139D01*
X111293863Y-45349031D01*
X111276792Y-45386774D01*
X111268062Y-45406888D01*
X111240582Y-45475828D01*
X111218705Y-45540753D01*
X111202436Y-45601631D01*
X111191780Y-45658428D01*
X111186742Y-45711112D01*
X111187326Y-45759650D01*
X111193538Y-45804008D01*
X111204697Y-45842355D01*
X111214279Y-45862617D01*
X111227842Y-45884530D01*
X111243641Y-45905628D01*
X111259928Y-45923441D01*
X111265911Y-45928860D01*
X111281300Y-45940771D01*
X111297919Y-45951287D01*
X111316311Y-45960518D01*
X111337022Y-45968574D01*
X111360594Y-45975565D01*
X111387573Y-45981602D01*
X111418502Y-45986794D01*
X111453926Y-45991252D01*
X111494388Y-45995086D01*
X111540433Y-45998405D01*
X111592604Y-46001321D01*
X111633097Y-46003182D01*
X111652868Y-46003961D01*
X111678696Y-46004876D01*
X111709584Y-46005897D01*
X111744536Y-46006994D01*
X111782554Y-46008137D01*
X111822643Y-46009294D01*
X111863805Y-46010437D01*
X111905044Y-46011534D01*
X111925903Y-46012070D01*
X112031868Y-46014865D01*
X112131377Y-46017728D01*
X112225029Y-46020688D01*
X112313424Y-46023774D01*
X112397160Y-46027016D01*
X112476838Y-46030444D01*
X112553056Y-46034086D01*
X112626413Y-46037972D01*
X112697509Y-46042132D01*
X112766944Y-46046595D01*
X112835317Y-46051390D01*
X112903226Y-46056548D01*
X112971271Y-46062096D01*
X113007167Y-46065168D01*
X113159575Y-46079484D01*
X113306084Y-46095501D01*
X113447686Y-46113426D01*
X113585371Y-46133462D01*
X113720131Y-46155813D01*
X113852958Y-46180686D01*
X113984844Y-46208283D01*
X114116779Y-46238811D01*
X114249756Y-46272473D01*
X114384766Y-46309474D01*
X114522801Y-46350018D01*
X114664851Y-46394311D01*
X114772819Y-46429516D01*
X114829471Y-46448415D01*
X114881899Y-46466181D01*
X114930676Y-46483079D01*
X114976373Y-46499377D01*
X115019563Y-46515340D01*
X115060816Y-46531235D01*
X115100705Y-46547327D01*
X115139801Y-46563884D01*
X115178675Y-46581170D01*
X115217901Y-46599452D01*
X115258048Y-46618997D01*
X115299690Y-46640071D01*
X115343398Y-46662939D01*
X115389743Y-46687869D01*
X115439297Y-46715125D01*
X115492632Y-46744975D01*
X115550320Y-46777684D01*
X115612932Y-46813519D01*
X115677694Y-46850815D01*
X115727887Y-46879743D01*
X115772657Y-46905450D01*
X115812661Y-46928298D01*
X115848555Y-46948648D01*
X115880994Y-46966863D01*
X115910635Y-46983303D01*
X115938134Y-46998330D01*
X115964147Y-47012307D01*
X115989330Y-47025594D01*
X116014338Y-47038554D01*
X116039828Y-47051549D01*
X116062222Y-47062820D01*
X116127539Y-47094741D01*
X116188326Y-47122702D01*
X116245631Y-47147064D01*
X116300499Y-47168188D01*
X116353978Y-47186436D01*
X116407115Y-47202169D01*
X116460957Y-47215748D01*
X116516551Y-47227537D01*
X116564025Y-47236094D01*
X116623301Y-47245475D01*
X116677886Y-47252849D01*
X116729804Y-47258377D01*
X116781074Y-47262223D01*
X116833721Y-47264550D01*
X116889766Y-47265522D01*
X116928292Y-47265509D01*
X116954880Y-47265309D01*
X116979924Y-47265051D01*
X117002330Y-47264751D01*
X117021003Y-47264426D01*
X117034851Y-47264092D01*
X117042777Y-47263767D01*
X117042944Y-47263755D01*
X117133991Y-47254740D01*
X117223800Y-47241096D01*
X117311515Y-47223042D01*
X117396282Y-47200798D01*
X117477244Y-47174583D01*
X117553545Y-47144619D01*
X117611209Y-47117817D01*
X117697043Y-47070919D01*
X117780670Y-47017377D01*
X117862012Y-46957273D01*
X117940994Y-46890690D01*
X118017539Y-46817708D01*
X118091571Y-46738411D01*
X118163015Y-46652879D01*
X118231793Y-46561196D01*
X118297829Y-46463442D01*
X118361048Y-46359701D01*
X118421373Y-46250053D01*
X118425700Y-46241746D01*
X118462707Y-46166734D01*
X118497221Y-46088989D01*
X118529600Y-46007580D01*
X118560202Y-45921574D01*
X118589388Y-45830039D01*
X118605890Y-45773758D01*
X118613457Y-45747169D01*
X118859194Y-45648044D01*
X118898671Y-45632069D01*
X118936187Y-45616791D01*
X118971234Y-45602422D01*
X119003306Y-45589173D01*
X119031898Y-45577257D01*
X119056502Y-45566887D01*
X119076612Y-45558274D01*
X119091722Y-45551630D01*
X119101326Y-45547168D01*
X119104917Y-45545101D01*
X119104931Y-45545055D01*
X119102356Y-45542178D01*
X119094885Y-45534965D01*
X119082902Y-45523762D01*
X119066787Y-45508917D01*
X119046922Y-45490776D01*
X119023690Y-45469686D01*
X118997471Y-45445994D01*
X118968649Y-45420048D01*
X118937605Y-45392193D01*
X118904720Y-45362778D01*
X118879153Y-45339966D01*
X118653375Y-45138741D01*
X118638997Y-45099022D01*
X118610662Y-45028948D01*
X118577414Y-44962045D01*
X118538848Y-44897707D01*
X118494555Y-44835324D01*
X118444130Y-44774287D01*
X118387165Y-44713990D01*
X118370776Y-44697917D01*
X118303462Y-44637739D01*
X118230870Y-44582059D01*
X118153266Y-44531010D01*
X118070914Y-44484722D01*
X117984079Y-44443330D01*
X117893026Y-44406964D01*
X117798021Y-44375758D01*
X117699329Y-44349842D01*
X117653250Y-44339834D01*
X117608853Y-44331197D01*
X117569131Y-44324427D01*
X117532021Y-44319295D01*
X117495460Y-44315572D01*
X117457386Y-44313029D01*
X117415735Y-44311439D01*
X117392194Y-44310916D01*
X117345426Y-44310493D01*
X117303969Y-44311103D01*
X117303969Y-44311103D01*
G37*
X117303969Y-44311103D02*
X117266134Y-44312878D01*
X117230237Y-44315950D01*
X117194588Y-44320451D01*
X117157501Y-44326512D01*
X117132463Y-44331226D01*
X117095495Y-44338873D01*
X117060230Y-44347056D01*
X117025622Y-44356108D01*
X116990624Y-44366364D01*
X116954191Y-44378156D01*
X116915278Y-44391818D01*
X116872839Y-44407684D01*
X116825827Y-44426088D01*
X116790263Y-44440406D01*
X116743042Y-44459805D01*
X116695102Y-44479943D01*
X116646041Y-44501011D01*
X116595453Y-44523199D01*
X116542934Y-44546695D01*
X116488079Y-44571689D01*
X116430486Y-44598372D01*
X116369749Y-44626932D01*
X116305464Y-44657559D01*
X116237227Y-44690442D01*
X116164635Y-44725772D01*
X116087281Y-44763737D01*
X116004764Y-44804528D01*
X115916677Y-44848333D01*
X115858915Y-44877177D01*
X115777201Y-44917964D01*
X115701268Y-44955698D01*
X115630642Y-44990596D01*
X115564851Y-45022875D01*
X115503423Y-45052752D01*
X115445885Y-45080444D01*
X115391765Y-45106167D01*
X115340591Y-45130138D01*
X115291889Y-45152575D01*
X115245189Y-45173695D01*
X115200018Y-45193714D01*
X115155903Y-45212848D01*
X115112371Y-45231316D01*
X115068951Y-45249334D01*
X115025171Y-45267119D01*
X114980557Y-45284888D01*
X114934637Y-45302857D01*
X114917458Y-45309509D01*
X114893476Y-45318793D01*
X114871212Y-45327455D01*
X114851652Y-45335109D01*
X114835781Y-45341366D01*
X114824586Y-45345840D01*
X114819216Y-45348070D01*
X114809168Y-45352573D01*
X114824302Y-45371849D01*
X114836111Y-45385902D01*
X114852080Y-45403482D01*
X114871079Y-45423449D01*
X114891977Y-45444663D01*
X114913643Y-45465986D01*
X114934945Y-45486277D01*
X114954754Y-45504397D01*
X114963319Y-45511920D01*
X115038898Y-45573039D01*
X115120648Y-45631238D01*
X115208253Y-45686375D01*
X115301399Y-45738306D01*
X115399769Y-45786886D01*
X115503048Y-45831973D01*
X115610921Y-45873422D01*
X115723072Y-45911091D01*
X115839186Y-45944835D01*
X115958946Y-45974510D01*
X115998722Y-45983281D01*
X116057747Y-45995567D01*
X116111586Y-46006013D01*
X116161795Y-46014877D01*
X116209926Y-46022413D01*
X116257531Y-46028877D01*
X116306165Y-46034526D01*
X116316222Y-46035588D01*
X116336268Y-46037185D01*
X116361488Y-46038438D01*
X116390561Y-46039348D01*
X116422167Y-46039913D01*
X116454986Y-46040134D01*
X116487697Y-46040011D01*
X116518980Y-46039543D01*
X116547515Y-46038730D01*
X116571981Y-46037572D01*
X116591059Y-46036069D01*
X116594917Y-46035629D01*
X116665413Y-46024359D01*
X116730332Y-46008777D01*
X116789686Y-45988875D01*
X116843489Y-45964642D01*
X116891754Y-45936071D01*
X116934494Y-45903152D01*
X116971725Y-45865875D01*
X117003458Y-45824233D01*
X117029708Y-45778216D01*
X117049186Y-45731556D01*
X117058436Y-45703336D01*
X117065050Y-45677790D01*
X117069389Y-45652670D01*
X117071811Y-45625726D01*
X117072677Y-45594710D01*
X117072689Y-45584690D01*
X117072494Y-45527783D01*
X117095459Y-45525430D01*
X117118423Y-45523078D01*
X117168181Y-45557010D01*
X117167739Y-45606359D01*
X117163754Y-45664590D01*
X117152973Y-45721341D01*
X117135573Y-45776195D01*
X117111733Y-45828732D01*
X117081631Y-45878536D01*
X117045446Y-45925188D01*
X117020226Y-45952155D01*
X116979590Y-45989000D01*
X116935860Y-46021371D01*
X116888528Y-46049491D01*
X116837089Y-46073584D01*
X116781034Y-46093873D01*
X116719857Y-46110584D01*
X116653052Y-46123938D01*
X116619611Y-46129113D01*
X116598545Y-46131389D01*
X116571697Y-46133185D01*
X116540325Y-46134500D01*
X116505685Y-46135334D01*
X116469034Y-46135688D01*
X116431631Y-46135562D01*
X116394731Y-46134956D01*
X116359593Y-46133870D01*
X116327474Y-46132303D01*
X116299630Y-46130257D01*
X116288000Y-46129088D01*
X116173753Y-46113915D01*
X116058621Y-46094055D01*
X115943476Y-46069770D01*
X115829191Y-46041321D01*
X115716641Y-46008969D01*
X115606697Y-45972975D01*
X115500234Y-45933600D01*
X115398124Y-45891106D01*
X115301240Y-45845754D01*
X115246392Y-45817498D01*
X115163282Y-45770751D01*
X115084342Y-45721631D01*
X115010019Y-45670487D01*
X114940759Y-45617668D01*
X114877007Y-45563522D01*
X114819209Y-45508397D01*
X114767812Y-45452643D01*
X114746120Y-45426480D01*
X114731411Y-45408572D01*
X114720353Y-45396259D01*
X114712679Y-45389267D01*
X114708122Y-45387322D01*
X114707894Y-45387373D01*
X114693318Y-45391012D01*
X114672871Y-45395139D01*
X114647704Y-45399588D01*
X114618971Y-45404193D01*
X114587826Y-45408787D01*
X114555421Y-45413204D01*
X114522909Y-45417276D01*
X114491444Y-45420837D01*
X114462179Y-45423720D01*
X114448264Y-45424893D01*
X114418004Y-45426630D01*
X114384491Y-45427311D01*
X114347279Y-45426909D01*
X114305925Y-45425398D01*
X114259983Y-45422750D01*
X114209009Y-45418938D01*
X114152559Y-45413937D01*
X114090188Y-45407719D01*
X114021452Y-45400256D01*
X114000236Y-45397853D01*
X113902304Y-45386039D01*
X113797890Y-45372253D01*
X113687274Y-45356544D01*
X113570733Y-45338962D01*
X113448546Y-45319559D01*
X113320989Y-45298386D01*
X113188343Y-45275492D01*
X113050883Y-45250928D01*
X112908890Y-45224746D01*
X112762640Y-45196995D01*
X112612412Y-45167727D01*
X112458483Y-45136991D01*
X112301133Y-45104840D01*
X112140639Y-45071322D01*
X111977279Y-45036489D01*
X111811331Y-45000392D01*
X111783028Y-44994166D01*
X111751495Y-44987268D01*
X111721427Y-44980787D01*
X111693674Y-44974899D01*
X111669087Y-44969780D01*
X111648516Y-44965607D01*
X111632814Y-44962556D01*
X111622830Y-44960804D01*
X111620750Y-44960520D01*
X111593371Y-44960603D01*
X111564403Y-44966198D01*
X111535663Y-44976640D01*
X111508968Y-44991263D01*
X111486137Y-45009400D01*
X111485423Y-45010097D01*
X111474666Y-45022458D01*
X111461441Y-45040584D01*
X111446127Y-45063782D01*
X111429102Y-45091362D01*
X111410747Y-45122633D01*
X111391438Y-45156902D01*
X111371556Y-45193479D01*
X111351479Y-45231671D01*
X111331585Y-45270789D01*
X111312253Y-45310139D01*
X111293863Y-45349031D01*
X111276792Y-45386774D01*
X111268062Y-45406888D01*
X111240582Y-45475828D01*
X111218705Y-45540753D01*
X111202436Y-45601631D01*
X111191780Y-45658428D01*
X111186742Y-45711112D01*
X111187326Y-45759650D01*
X111193538Y-45804008D01*
X111204697Y-45842355D01*
X111214279Y-45862617D01*
X111227842Y-45884530D01*
X111243641Y-45905628D01*
X111259928Y-45923441D01*
X111265911Y-45928860D01*
X111281300Y-45940771D01*
X111297919Y-45951287D01*
X111316311Y-45960518D01*
X111337022Y-45968574D01*
X111360594Y-45975565D01*
X111387573Y-45981602D01*
X111418502Y-45986794D01*
X111453926Y-45991252D01*
X111494388Y-45995086D01*
X111540433Y-45998405D01*
X111592604Y-46001321D01*
X111633097Y-46003182D01*
X111652868Y-46003961D01*
X111678696Y-46004876D01*
X111709584Y-46005897D01*
X111744536Y-46006994D01*
X111782554Y-46008137D01*
X111822643Y-46009294D01*
X111863805Y-46010437D01*
X111905044Y-46011534D01*
X111925903Y-46012070D01*
X112031868Y-46014865D01*
X112131377Y-46017728D01*
X112225029Y-46020688D01*
X112313424Y-46023774D01*
X112397160Y-46027016D01*
X112476838Y-46030444D01*
X112553056Y-46034086D01*
X112626413Y-46037972D01*
X112697509Y-46042132D01*
X112766944Y-46046595D01*
X112835317Y-46051390D01*
X112903226Y-46056548D01*
X112971271Y-46062096D01*
X113007167Y-46065168D01*
X113159575Y-46079484D01*
X113306084Y-46095501D01*
X113447686Y-46113426D01*
X113585371Y-46133462D01*
X113720131Y-46155813D01*
X113852958Y-46180686D01*
X113984844Y-46208283D01*
X114116779Y-46238811D01*
X114249756Y-46272473D01*
X114384766Y-46309474D01*
X114522801Y-46350018D01*
X114664851Y-46394311D01*
X114772819Y-46429516D01*
X114829471Y-46448415D01*
X114881899Y-46466181D01*
X114930676Y-46483079D01*
X114976373Y-46499377D01*
X115019563Y-46515340D01*
X115060816Y-46531235D01*
X115100705Y-46547327D01*
X115139801Y-46563884D01*
X115178675Y-46581170D01*
X115217901Y-46599452D01*
X115258048Y-46618997D01*
X115299690Y-46640071D01*
X115343398Y-46662939D01*
X115389743Y-46687869D01*
X115439297Y-46715125D01*
X115492632Y-46744975D01*
X115550320Y-46777684D01*
X115612932Y-46813519D01*
X115677694Y-46850815D01*
X115727887Y-46879743D01*
X115772657Y-46905450D01*
X115812661Y-46928298D01*
X115848555Y-46948648D01*
X115880994Y-46966863D01*
X115910635Y-46983303D01*
X115938134Y-46998330D01*
X115964147Y-47012307D01*
X115989330Y-47025594D01*
X116014338Y-47038554D01*
X116039828Y-47051549D01*
X116062222Y-47062820D01*
X116127539Y-47094741D01*
X116188326Y-47122702D01*
X116245631Y-47147064D01*
X116300499Y-47168188D01*
X116353978Y-47186436D01*
X116407115Y-47202169D01*
X116460957Y-47215748D01*
X116516551Y-47227537D01*
X116564025Y-47236094D01*
X116623301Y-47245475D01*
X116677886Y-47252849D01*
X116729804Y-47258377D01*
X116781074Y-47262223D01*
X116833721Y-47264550D01*
X116889766Y-47265522D01*
X116928292Y-47265509D01*
X116954880Y-47265309D01*
X116979924Y-47265051D01*
X117002330Y-47264751D01*
X117021003Y-47264426D01*
X117034851Y-47264092D01*
X117042777Y-47263767D01*
X117042944Y-47263755D01*
X117133991Y-47254740D01*
X117223800Y-47241096D01*
X117311515Y-47223042D01*
X117396282Y-47200798D01*
X117477244Y-47174583D01*
X117553545Y-47144619D01*
X117611209Y-47117817D01*
X117697043Y-47070919D01*
X117780670Y-47017377D01*
X117862012Y-46957273D01*
X117940994Y-46890690D01*
X118017539Y-46817708D01*
X118091571Y-46738411D01*
X118163015Y-46652879D01*
X118231793Y-46561196D01*
X118297829Y-46463442D01*
X118361048Y-46359701D01*
X118421373Y-46250053D01*
X118425700Y-46241746D01*
X118462707Y-46166734D01*
X118497221Y-46088989D01*
X118529600Y-46007580D01*
X118560202Y-45921574D01*
X118589388Y-45830039D01*
X118605890Y-45773758D01*
X118613457Y-45747169D01*
X118859194Y-45648044D01*
X118898671Y-45632069D01*
X118936187Y-45616791D01*
X118971234Y-45602422D01*
X119003306Y-45589173D01*
X119031898Y-45577257D01*
X119056502Y-45566887D01*
X119076612Y-45558274D01*
X119091722Y-45551630D01*
X119101326Y-45547168D01*
X119104917Y-45545101D01*
X119104931Y-45545055D01*
X119102356Y-45542178D01*
X119094885Y-45534965D01*
X119082902Y-45523762D01*
X119066787Y-45508917D01*
X119046922Y-45490776D01*
X119023690Y-45469686D01*
X118997471Y-45445994D01*
X118968649Y-45420048D01*
X118937605Y-45392193D01*
X118904720Y-45362778D01*
X118879153Y-45339966D01*
X118653375Y-45138741D01*
X118638997Y-45099022D01*
X118610662Y-45028948D01*
X118577414Y-44962045D01*
X118538848Y-44897707D01*
X118494555Y-44835324D01*
X118444130Y-44774287D01*
X118387165Y-44713990D01*
X118370776Y-44697917D01*
X118303462Y-44637739D01*
X118230870Y-44582059D01*
X118153266Y-44531010D01*
X118070914Y-44484722D01*
X117984079Y-44443330D01*
X117893026Y-44406964D01*
X117798021Y-44375758D01*
X117699329Y-44349842D01*
X117653250Y-44339834D01*
X117608853Y-44331197D01*
X117569131Y-44324427D01*
X117532021Y-44319295D01*
X117495460Y-44315572D01*
X117457386Y-44313029D01*
X117415735Y-44311439D01*
X117392194Y-44310916D01*
X117345426Y-44310493D01*
X117303969Y-44311103D01*
D11*
G36*
X146678585Y-94717974D02*
X146824322Y-94778340D01*
X146955481Y-94865978D01*
X147067022Y-94977519D01*
X147154660Y-95108678D01*
X147215026Y-95254415D01*
X147245800Y-95409127D01*
X147245800Y-95566873D01*
X147215026Y-95721585D01*
X147154660Y-95867322D01*
X147067022Y-95998481D01*
X146955481Y-96110022D01*
X146824322Y-96197660D01*
X146678585Y-96258026D01*
X146523873Y-96288800D01*
X146366127Y-96288800D01*
X146211415Y-96258026D01*
X146065678Y-96197660D01*
X145934519Y-96110022D01*
X145822978Y-95998481D01*
X145735340Y-95867322D01*
X145674974Y-95721585D01*
X145644200Y-95566873D01*
X145644200Y-95409127D01*
X145674974Y-95254415D01*
X145735340Y-95108678D01*
X145822978Y-94977519D01*
X145934519Y-94865978D01*
X146065678Y-94778340D01*
X146211415Y-94717974D01*
X146366127Y-94687200D01*
X146523873Y-94687200D01*
X146678585Y-94717974D01*
X146678585Y-94717974D01*
G37*
G36*
X140678585Y-94717974D02*
X140824322Y-94778340D01*
X140955481Y-94865978D01*
X141067022Y-94977519D01*
X141154660Y-95108678D01*
X141215026Y-95254415D01*
X141245800Y-95409127D01*
X141245800Y-95566873D01*
X141215026Y-95721585D01*
X141154660Y-95867322D01*
X141067022Y-95998481D01*
X140955481Y-96110022D01*
X140824322Y-96197660D01*
X140678585Y-96258026D01*
X140523873Y-96288800D01*
X140366127Y-96288800D01*
X140211415Y-96258026D01*
X140065678Y-96197660D01*
X139934519Y-96110022D01*
X139822978Y-95998481D01*
X139735340Y-95867322D01*
X139674974Y-95721585D01*
X139644200Y-95566873D01*
X139644200Y-95409127D01*
X139674974Y-95254415D01*
X139735340Y-95108678D01*
X139822978Y-94977519D01*
X139934519Y-94865978D01*
X140065678Y-94778340D01*
X140211415Y-94717974D01*
X140366127Y-94687200D01*
X140523873Y-94687200D01*
X140678585Y-94717974D01*
X140678585Y-94717974D01*
G37*
G36*
X137678585Y-94717974D02*
X137824322Y-94778340D01*
X137955481Y-94865978D01*
X138067022Y-94977519D01*
X138154660Y-95108678D01*
X138215026Y-95254415D01*
X138245800Y-95409127D01*
X138245800Y-95566873D01*
X138215026Y-95721585D01*
X138154660Y-95867322D01*
X138067022Y-95998481D01*
X137955481Y-96110022D01*
X137824322Y-96197660D01*
X137678585Y-96258026D01*
X137523873Y-96288800D01*
X137366127Y-96288800D01*
X137211415Y-96258026D01*
X137065678Y-96197660D01*
X136934519Y-96110022D01*
X136822978Y-95998481D01*
X136735340Y-95867322D01*
X136674974Y-95721585D01*
X136644200Y-95566873D01*
X136644200Y-95409127D01*
X136674974Y-95254415D01*
X136735340Y-95108678D01*
X136822978Y-94977519D01*
X136934519Y-94865978D01*
X137065678Y-94778340D01*
X137211415Y-94717974D01*
X137366127Y-94687200D01*
X137523873Y-94687200D01*
X137678585Y-94717974D01*
X137678585Y-94717974D01*
G37*
G36*
X134678585Y-94717974D02*
X134824322Y-94778340D01*
X134955481Y-94865978D01*
X135067022Y-94977519D01*
X135154660Y-95108678D01*
X135215026Y-95254415D01*
X135245800Y-95409127D01*
X135245800Y-95566873D01*
X135215026Y-95721585D01*
X135154660Y-95867322D01*
X135067022Y-95998481D01*
X134955481Y-96110022D01*
X134824322Y-96197660D01*
X134678585Y-96258026D01*
X134523873Y-96288800D01*
X134366127Y-96288800D01*
X134211415Y-96258026D01*
X134065678Y-96197660D01*
X133934519Y-96110022D01*
X133822978Y-95998481D01*
X133735340Y-95867322D01*
X133674974Y-95721585D01*
X133644200Y-95566873D01*
X133644200Y-95409127D01*
X133674974Y-95254415D01*
X133735340Y-95108678D01*
X133822978Y-94977519D01*
X133934519Y-94865978D01*
X134065678Y-94778340D01*
X134211415Y-94717974D01*
X134366127Y-94687200D01*
X134523873Y-94687200D01*
X134678585Y-94717974D01*
X134678585Y-94717974D01*
G37*
G36*
X131678585Y-94717974D02*
X131824322Y-94778340D01*
X131955481Y-94865978D01*
X132067022Y-94977519D01*
X132154660Y-95108678D01*
X132215026Y-95254415D01*
X132245800Y-95409127D01*
X132245800Y-95566873D01*
X132215026Y-95721585D01*
X132154660Y-95867322D01*
X132067022Y-95998481D01*
X131955481Y-96110022D01*
X131824322Y-96197660D01*
X131678585Y-96258026D01*
X131523873Y-96288800D01*
X131366127Y-96288800D01*
X131211415Y-96258026D01*
X131065678Y-96197660D01*
X130934519Y-96110022D01*
X130822978Y-95998481D01*
X130735340Y-95867322D01*
X130674974Y-95721585D01*
X130644200Y-95566873D01*
X130644200Y-95409127D01*
X130674974Y-95254415D01*
X130735340Y-95108678D01*
X130822978Y-94977519D01*
X130934519Y-94865978D01*
X131065678Y-94778340D01*
X131211415Y-94717974D01*
X131366127Y-94687200D01*
X131523873Y-94687200D01*
X131678585Y-94717974D01*
X131678585Y-94717974D01*
G37*
G36*
X128678585Y-94717974D02*
X128824322Y-94778340D01*
X128955481Y-94865978D01*
X129067022Y-94977519D01*
X129154660Y-95108678D01*
X129215026Y-95254415D01*
X129245800Y-95409127D01*
X129245800Y-95566873D01*
X129215026Y-95721585D01*
X129154660Y-95867322D01*
X129067022Y-95998481D01*
X128955481Y-96110022D01*
X128824322Y-96197660D01*
X128678585Y-96258026D01*
X128523873Y-96288800D01*
X128366127Y-96288800D01*
X128211415Y-96258026D01*
X128065678Y-96197660D01*
X127934519Y-96110022D01*
X127822978Y-95998481D01*
X127735340Y-95867322D01*
X127674974Y-95721585D01*
X127644200Y-95566873D01*
X127644200Y-95409127D01*
X127674974Y-95254415D01*
X127735340Y-95108678D01*
X127822978Y-94977519D01*
X127934519Y-94865978D01*
X128065678Y-94778340D01*
X128211415Y-94717974D01*
X128366127Y-94687200D01*
X128523873Y-94687200D01*
X128678585Y-94717974D01*
X128678585Y-94717974D01*
G37*
G36*
X125678585Y-94717974D02*
X125824322Y-94778340D01*
X125955481Y-94865978D01*
X126067022Y-94977519D01*
X126154660Y-95108678D01*
X126215026Y-95254415D01*
X126245800Y-95409127D01*
X126245800Y-95566873D01*
X126215026Y-95721585D01*
X126154660Y-95867322D01*
X126067022Y-95998481D01*
X125955481Y-96110022D01*
X125824322Y-96197660D01*
X125678585Y-96258026D01*
X125523873Y-96288800D01*
X125366127Y-96288800D01*
X125211415Y-96258026D01*
X125065678Y-96197660D01*
X124934519Y-96110022D01*
X124822978Y-95998481D01*
X124735340Y-95867322D01*
X124674974Y-95721585D01*
X124644200Y-95566873D01*
X124644200Y-95409127D01*
X124674974Y-95254415D01*
X124735340Y-95108678D01*
X124822978Y-94977519D01*
X124934519Y-94865978D01*
X125065678Y-94778340D01*
X125211415Y-94717974D01*
X125366127Y-94687200D01*
X125523873Y-94687200D01*
X125678585Y-94717974D01*
X125678585Y-94717974D01*
G37*
G36*
X122678585Y-94717974D02*
X122824322Y-94778340D01*
X122955481Y-94865978D01*
X123067022Y-94977519D01*
X123154660Y-95108678D01*
X123215026Y-95254415D01*
X123245800Y-95409127D01*
X123245800Y-95566873D01*
X123215026Y-95721585D01*
X123154660Y-95867322D01*
X123067022Y-95998481D01*
X122955481Y-96110022D01*
X122824322Y-96197660D01*
X122678585Y-96258026D01*
X122523873Y-96288800D01*
X122366127Y-96288800D01*
X122211415Y-96258026D01*
X122065678Y-96197660D01*
X121934519Y-96110022D01*
X121822978Y-95998481D01*
X121735340Y-95867322D01*
X121674974Y-95721585D01*
X121644200Y-95566873D01*
X121644200Y-95409127D01*
X121674974Y-95254415D01*
X121735340Y-95108678D01*
X121822978Y-94977519D01*
X121934519Y-94865978D01*
X122065678Y-94778340D01*
X122211415Y-94717974D01*
X122366127Y-94687200D01*
X122523873Y-94687200D01*
X122678585Y-94717974D01*
X122678585Y-94717974D01*
G37*
G36*
X119678585Y-94717974D02*
X119824322Y-94778340D01*
X119955481Y-94865978D01*
X120067022Y-94977519D01*
X120154660Y-95108678D01*
X120215026Y-95254415D01*
X120245800Y-95409127D01*
X120245800Y-95566873D01*
X120215026Y-95721585D01*
X120154660Y-95867322D01*
X120067022Y-95998481D01*
X119955481Y-96110022D01*
X119824322Y-96197660D01*
X119678585Y-96258026D01*
X119523873Y-96288800D01*
X119366127Y-96288800D01*
X119211415Y-96258026D01*
X119065678Y-96197660D01*
X118934519Y-96110022D01*
X118822978Y-95998481D01*
X118735340Y-95867322D01*
X118674974Y-95721585D01*
X118644200Y-95566873D01*
X118644200Y-95409127D01*
X118674974Y-95254415D01*
X118735340Y-95108678D01*
X118822978Y-94977519D01*
X118934519Y-94865978D01*
X119065678Y-94778340D01*
X119211415Y-94717974D01*
X119366127Y-94687200D01*
X119523873Y-94687200D01*
X119678585Y-94717974D01*
X119678585Y-94717974D01*
G37*
G36*
X116678585Y-94717974D02*
X116824322Y-94778340D01*
X116955481Y-94865978D01*
X117067022Y-94977519D01*
X117154660Y-95108678D01*
X117215026Y-95254415D01*
X117245800Y-95409127D01*
X117245800Y-95566873D01*
X117215026Y-95721585D01*
X117154660Y-95867322D01*
X117067022Y-95998481D01*
X116955481Y-96110022D01*
X116824322Y-96197660D01*
X116678585Y-96258026D01*
X116523873Y-96288800D01*
X116366127Y-96288800D01*
X116211415Y-96258026D01*
X116065678Y-96197660D01*
X115934519Y-96110022D01*
X115822978Y-95998481D01*
X115735340Y-95867322D01*
X115674974Y-95721585D01*
X115644200Y-95566873D01*
X115644200Y-95409127D01*
X115674974Y-95254415D01*
X115735340Y-95108678D01*
X115822978Y-94977519D01*
X115934519Y-94865978D01*
X116065678Y-94778340D01*
X116211415Y-94717974D01*
X116366127Y-94687200D01*
X116523873Y-94687200D01*
X116678585Y-94717974D01*
X116678585Y-94717974D01*
G37*
G36*
X113678585Y-94717974D02*
X113824322Y-94778340D01*
X113955481Y-94865978D01*
X114067022Y-94977519D01*
X114154660Y-95108678D01*
X114215026Y-95254415D01*
X114245800Y-95409127D01*
X114245800Y-95566873D01*
X114215026Y-95721585D01*
X114154660Y-95867322D01*
X114067022Y-95998481D01*
X113955481Y-96110022D01*
X113824322Y-96197660D01*
X113678585Y-96258026D01*
X113523873Y-96288800D01*
X113366127Y-96288800D01*
X113211415Y-96258026D01*
X113065678Y-96197660D01*
X112934519Y-96110022D01*
X112822978Y-95998481D01*
X112735340Y-95867322D01*
X112674974Y-95721585D01*
X112644200Y-95566873D01*
X112644200Y-95409127D01*
X112674974Y-95254415D01*
X112735340Y-95108678D01*
X112822978Y-94977519D01*
X112934519Y-94865978D01*
X113065678Y-94778340D01*
X113211415Y-94717974D01*
X113366127Y-94687200D01*
X113523873Y-94687200D01*
X113678585Y-94717974D01*
X113678585Y-94717974D01*
G37*
G36*
X110678585Y-94717974D02*
X110824322Y-94778340D01*
X110955481Y-94865978D01*
X111067022Y-94977519D01*
X111154660Y-95108678D01*
X111215026Y-95254415D01*
X111245800Y-95409127D01*
X111245800Y-95566873D01*
X111215026Y-95721585D01*
X111154660Y-95867322D01*
X111067022Y-95998481D01*
X110955481Y-96110022D01*
X110824322Y-96197660D01*
X110678585Y-96258026D01*
X110523873Y-96288800D01*
X110366127Y-96288800D01*
X110211415Y-96258026D01*
X110065678Y-96197660D01*
X109934519Y-96110022D01*
X109822978Y-95998481D01*
X109735340Y-95867322D01*
X109674974Y-95721585D01*
X109644200Y-95566873D01*
X109644200Y-95409127D01*
X109674974Y-95254415D01*
X109735340Y-95108678D01*
X109822978Y-94977519D01*
X109934519Y-94865978D01*
X110065678Y-94778340D01*
X110211415Y-94717974D01*
X110366127Y-94687200D01*
X110523873Y-94687200D01*
X110678585Y-94717974D01*
X110678585Y-94717974D01*
G37*
G36*
X107678585Y-94717974D02*
X107824322Y-94778340D01*
X107955481Y-94865978D01*
X108067022Y-94977519D01*
X108154660Y-95108678D01*
X108215026Y-95254415D01*
X108245800Y-95409127D01*
X108245800Y-95566873D01*
X108215026Y-95721585D01*
X108154660Y-95867322D01*
X108067022Y-95998481D01*
X107955481Y-96110022D01*
X107824322Y-96197660D01*
X107678585Y-96258026D01*
X107523873Y-96288800D01*
X107366127Y-96288800D01*
X107211415Y-96258026D01*
X107065678Y-96197660D01*
X106934519Y-96110022D01*
X106822978Y-95998481D01*
X106735340Y-95867322D01*
X106674974Y-95721585D01*
X106644200Y-95566873D01*
X106644200Y-95409127D01*
X106674974Y-95254415D01*
X106735340Y-95108678D01*
X106822978Y-94977519D01*
X106934519Y-94865978D01*
X107065678Y-94778340D01*
X107211415Y-94717974D01*
X107366127Y-94687200D01*
X107523873Y-94687200D01*
X107678585Y-94717974D01*
X107678585Y-94717974D01*
G37*
G36*
X104678585Y-94717974D02*
X104824322Y-94778340D01*
X104955481Y-94865978D01*
X105067022Y-94977519D01*
X105154660Y-95108678D01*
X105215026Y-95254415D01*
X105245800Y-95409127D01*
X105245800Y-95566873D01*
X105215026Y-95721585D01*
X105154660Y-95867322D01*
X105067022Y-95998481D01*
X104955481Y-96110022D01*
X104824322Y-96197660D01*
X104678585Y-96258026D01*
X104523873Y-96288800D01*
X104366127Y-96288800D01*
X104211415Y-96258026D01*
X104065678Y-96197660D01*
X103934519Y-96110022D01*
X103822978Y-95998481D01*
X103735340Y-95867322D01*
X103674974Y-95721585D01*
X103644200Y-95566873D01*
X103644200Y-95409127D01*
X103674974Y-95254415D01*
X103735340Y-95108678D01*
X103822978Y-94977519D01*
X103934519Y-94865978D01*
X104065678Y-94778340D01*
X104211415Y-94717974D01*
X104366127Y-94687200D01*
X104523873Y-94687200D01*
X104678585Y-94717974D01*
X104678585Y-94717974D01*
G37*
G36*
X101678585Y-94717974D02*
X101824322Y-94778340D01*
X101955481Y-94865978D01*
X102067022Y-94977519D01*
X102154660Y-95108678D01*
X102215026Y-95254415D01*
X102245800Y-95409127D01*
X102245800Y-95566873D01*
X102215026Y-95721585D01*
X102154660Y-95867322D01*
X102067022Y-95998481D01*
X101955481Y-96110022D01*
X101824322Y-96197660D01*
X101678585Y-96258026D01*
X101523873Y-96288800D01*
X101366127Y-96288800D01*
X101211415Y-96258026D01*
X101065678Y-96197660D01*
X100934519Y-96110022D01*
X100822978Y-95998481D01*
X100735340Y-95867322D01*
X100674974Y-95721585D01*
X100644200Y-95566873D01*
X100644200Y-95409127D01*
X100674974Y-95254415D01*
X100735340Y-95108678D01*
X100822978Y-94977519D01*
X100934519Y-94865978D01*
X101065678Y-94778340D01*
X101211415Y-94717974D01*
X101366127Y-94687200D01*
X101523873Y-94687200D01*
X101678585Y-94717974D01*
X101678585Y-94717974D01*
G37*
G36*
X143678585Y-94606974D02*
X143824322Y-94667340D01*
X143955481Y-94754978D01*
X144067022Y-94866519D01*
X144154660Y-94997678D01*
X144215026Y-95143415D01*
X144245800Y-95298127D01*
X144245800Y-95455873D01*
X144215026Y-95610585D01*
X144154660Y-95756322D01*
X144067022Y-95887481D01*
X143955481Y-95999022D01*
X143824322Y-96086660D01*
X143678585Y-96147026D01*
X143523873Y-96177800D01*
X143366127Y-96177800D01*
X143211415Y-96147026D01*
X143065678Y-96086660D01*
X142934519Y-95999022D01*
X142822978Y-95887481D01*
X142735340Y-95756322D01*
X142674974Y-95610585D01*
X142644200Y-95455873D01*
X142644200Y-95298127D01*
X142674974Y-95143415D01*
X142735340Y-94997678D01*
X142822978Y-94866519D01*
X142934519Y-94754978D01*
X143065678Y-94667340D01*
X143211415Y-94606974D01*
X143366127Y-94576200D01*
X143523873Y-94576200D01*
X143678585Y-94606974D01*
X143678585Y-94606974D01*
G37*
G36*
X145178585Y-91729974D02*
X145324322Y-91790340D01*
X145455481Y-91877978D01*
X145567022Y-91989519D01*
X145654660Y-92120678D01*
X145715026Y-92266415D01*
X145745800Y-92421127D01*
X145745800Y-92578873D01*
X145715026Y-92733585D01*
X145654660Y-92879322D01*
X145567022Y-93010481D01*
X145455481Y-93122022D01*
X145324322Y-93209660D01*
X145178585Y-93270026D01*
X145023873Y-93300800D01*
X144866127Y-93300800D01*
X144711415Y-93270026D01*
X144565678Y-93209660D01*
X144434519Y-93122022D01*
X144322978Y-93010481D01*
X144235340Y-92879322D01*
X144174974Y-92733585D01*
X144144200Y-92578873D01*
X144144200Y-92421127D01*
X144174974Y-92266415D01*
X144235340Y-92120678D01*
X144322978Y-91989519D01*
X144434519Y-91877978D01*
X144565678Y-91790340D01*
X144711415Y-91729974D01*
X144866127Y-91699200D01*
X145023873Y-91699200D01*
X145178585Y-91729974D01*
X145178585Y-91729974D01*
G37*
G36*
X136178585Y-91717974D02*
X136324322Y-91778340D01*
X136455481Y-91865978D01*
X136567022Y-91977519D01*
X136654660Y-92108678D01*
X136715026Y-92254415D01*
X136745800Y-92409127D01*
X136745800Y-92566873D01*
X136715026Y-92721585D01*
X136654660Y-92867322D01*
X136567022Y-92998481D01*
X136455481Y-93110022D01*
X136324322Y-93197660D01*
X136178585Y-93258026D01*
X136023873Y-93288800D01*
X135866127Y-93288800D01*
X135711415Y-93258026D01*
X135565678Y-93197660D01*
X135434519Y-93110022D01*
X135322978Y-92998481D01*
X135235340Y-92867322D01*
X135174974Y-92721585D01*
X135144200Y-92566873D01*
X135144200Y-92409127D01*
X135174974Y-92254415D01*
X135235340Y-92108678D01*
X135322978Y-91977519D01*
X135434519Y-91865978D01*
X135565678Y-91778340D01*
X135711415Y-91717974D01*
X135866127Y-91687200D01*
X136023873Y-91687200D01*
X136178585Y-91717974D01*
X136178585Y-91717974D01*
G37*
G36*
X127178585Y-91717974D02*
X127324322Y-91778340D01*
X127455481Y-91865978D01*
X127567022Y-91977519D01*
X127654660Y-92108678D01*
X127715026Y-92254415D01*
X127745800Y-92409127D01*
X127745800Y-92566873D01*
X127715026Y-92721585D01*
X127654660Y-92867322D01*
X127567022Y-92998481D01*
X127455481Y-93110022D01*
X127324322Y-93197660D01*
X127178585Y-93258026D01*
X127023873Y-93288800D01*
X126866127Y-93288800D01*
X126711415Y-93258026D01*
X126565678Y-93197660D01*
X126434519Y-93110022D01*
X126322978Y-92998481D01*
X126235340Y-92867322D01*
X126174974Y-92721585D01*
X126144200Y-92566873D01*
X126144200Y-92409127D01*
X126174974Y-92254415D01*
X126235340Y-92108678D01*
X126322978Y-91977519D01*
X126434519Y-91865978D01*
X126565678Y-91778340D01*
X126711415Y-91717974D01*
X126866127Y-91687200D01*
X127023873Y-91687200D01*
X127178585Y-91717974D01*
X127178585Y-91717974D01*
G37*
G36*
X124178585Y-91717974D02*
X124324322Y-91778340D01*
X124455481Y-91865978D01*
X124567022Y-91977519D01*
X124654660Y-92108678D01*
X124715026Y-92254415D01*
X124745800Y-92409127D01*
X124745800Y-92566873D01*
X124715026Y-92721585D01*
X124654660Y-92867322D01*
X124567022Y-92998481D01*
X124455481Y-93110022D01*
X124324322Y-93197660D01*
X124178585Y-93258026D01*
X124023873Y-93288800D01*
X123866127Y-93288800D01*
X123711415Y-93258026D01*
X123565678Y-93197660D01*
X123434519Y-93110022D01*
X123322978Y-92998481D01*
X123235340Y-92867322D01*
X123174974Y-92721585D01*
X123144200Y-92566873D01*
X123144200Y-92409127D01*
X123174974Y-92254415D01*
X123235340Y-92108678D01*
X123322978Y-91977519D01*
X123434519Y-91865978D01*
X123565678Y-91778340D01*
X123711415Y-91717974D01*
X123866127Y-91687200D01*
X124023873Y-91687200D01*
X124178585Y-91717974D01*
X124178585Y-91717974D01*
G37*
G36*
X103178585Y-91717974D02*
X103324322Y-91778340D01*
X103455481Y-91865978D01*
X103567022Y-91977519D01*
X103654660Y-92108678D01*
X103715026Y-92254415D01*
X103745800Y-92409127D01*
X103745800Y-92566873D01*
X103715026Y-92721585D01*
X103654660Y-92867322D01*
X103567022Y-92998481D01*
X103455481Y-93110022D01*
X103324322Y-93197660D01*
X103178585Y-93258026D01*
X103023873Y-93288800D01*
X102866127Y-93288800D01*
X102711415Y-93258026D01*
X102565678Y-93197660D01*
X102434519Y-93110022D01*
X102322978Y-92998481D01*
X102235340Y-92867322D01*
X102174974Y-92721585D01*
X102144200Y-92566873D01*
X102144200Y-92409127D01*
X102174974Y-92254415D01*
X102235340Y-92108678D01*
X102322978Y-91977519D01*
X102434519Y-91865978D01*
X102565678Y-91778340D01*
X102711415Y-91717974D01*
X102866127Y-91687200D01*
X103023873Y-91687200D01*
X103178585Y-91717974D01*
X103178585Y-91717974D01*
G37*
G36*
X121178585Y-91717974D02*
X121324322Y-91778340D01*
X121455481Y-91865978D01*
X121567022Y-91977519D01*
X121654660Y-92108678D01*
X121715026Y-92254415D01*
X121745800Y-92409127D01*
X121745800Y-92566873D01*
X121715026Y-92721585D01*
X121654660Y-92867322D01*
X121567022Y-92998481D01*
X121455481Y-93110022D01*
X121324322Y-93197660D01*
X121178585Y-93258026D01*
X121023873Y-93288800D01*
X120866127Y-93288800D01*
X120711415Y-93258026D01*
X120565678Y-93197660D01*
X120434519Y-93110022D01*
X120322978Y-92998481D01*
X120235340Y-92867322D01*
X120174974Y-92721585D01*
X120144200Y-92566873D01*
X120144200Y-92409127D01*
X120174974Y-92254415D01*
X120235340Y-92108678D01*
X120322978Y-91977519D01*
X120434519Y-91865978D01*
X120565678Y-91778340D01*
X120711415Y-91717974D01*
X120866127Y-91687200D01*
X121023873Y-91687200D01*
X121178585Y-91717974D01*
X121178585Y-91717974D01*
G37*
G36*
X133178585Y-91717974D02*
X133324322Y-91778340D01*
X133455481Y-91865978D01*
X133567022Y-91977519D01*
X133654660Y-92108678D01*
X133715026Y-92254415D01*
X133745800Y-92409127D01*
X133745800Y-92566873D01*
X133715026Y-92721585D01*
X133654660Y-92867322D01*
X133567022Y-92998481D01*
X133455481Y-93110022D01*
X133324322Y-93197660D01*
X133178585Y-93258026D01*
X133023873Y-93288800D01*
X132866127Y-93288800D01*
X132711415Y-93258026D01*
X132565678Y-93197660D01*
X132434519Y-93110022D01*
X132322978Y-92998481D01*
X132235340Y-92867322D01*
X132174974Y-92721585D01*
X132144200Y-92566873D01*
X132144200Y-92409127D01*
X132174974Y-92254415D01*
X132235340Y-92108678D01*
X132322978Y-91977519D01*
X132434519Y-91865978D01*
X132565678Y-91778340D01*
X132711415Y-91717974D01*
X132866127Y-91687200D01*
X133023873Y-91687200D01*
X133178585Y-91717974D01*
X133178585Y-91717974D01*
G37*
G36*
X118178585Y-91717974D02*
X118324322Y-91778340D01*
X118455481Y-91865978D01*
X118567022Y-91977519D01*
X118654660Y-92108678D01*
X118715026Y-92254415D01*
X118745800Y-92409127D01*
X118745800Y-92566873D01*
X118715026Y-92721585D01*
X118654660Y-92867322D01*
X118567022Y-92998481D01*
X118455481Y-93110022D01*
X118324322Y-93197660D01*
X118178585Y-93258026D01*
X118023873Y-93288800D01*
X117866127Y-93288800D01*
X117711415Y-93258026D01*
X117565678Y-93197660D01*
X117434519Y-93110022D01*
X117322978Y-92998481D01*
X117235340Y-92867322D01*
X117174974Y-92721585D01*
X117144200Y-92566873D01*
X117144200Y-92409127D01*
X117174974Y-92254415D01*
X117235340Y-92108678D01*
X117322978Y-91977519D01*
X117434519Y-91865978D01*
X117565678Y-91778340D01*
X117711415Y-91717974D01*
X117866127Y-91687200D01*
X118023873Y-91687200D01*
X118178585Y-91717974D01*
X118178585Y-91717974D01*
G37*
G36*
X106178585Y-91717974D02*
X106324322Y-91778340D01*
X106455481Y-91865978D01*
X106567022Y-91977519D01*
X106654660Y-92108678D01*
X106715026Y-92254415D01*
X106745800Y-92409127D01*
X106745800Y-92566873D01*
X106715026Y-92721585D01*
X106654660Y-92867322D01*
X106567022Y-92998481D01*
X106455481Y-93110022D01*
X106324322Y-93197660D01*
X106178585Y-93258026D01*
X106023873Y-93288800D01*
X105866127Y-93288800D01*
X105711415Y-93258026D01*
X105565678Y-93197660D01*
X105434519Y-93110022D01*
X105322978Y-92998481D01*
X105235340Y-92867322D01*
X105174974Y-92721585D01*
X105144200Y-92566873D01*
X105144200Y-92409127D01*
X105174974Y-92254415D01*
X105235340Y-92108678D01*
X105322978Y-91977519D01*
X105434519Y-91865978D01*
X105565678Y-91778340D01*
X105711415Y-91717974D01*
X105866127Y-91687200D01*
X106023873Y-91687200D01*
X106178585Y-91717974D01*
X106178585Y-91717974D01*
G37*
G36*
X109178585Y-91717974D02*
X109324322Y-91778340D01*
X109455481Y-91865978D01*
X109567022Y-91977519D01*
X109654660Y-92108678D01*
X109715026Y-92254415D01*
X109745800Y-92409127D01*
X109745800Y-92566873D01*
X109715026Y-92721585D01*
X109654660Y-92867322D01*
X109567022Y-92998481D01*
X109455481Y-93110022D01*
X109324322Y-93197660D01*
X109178585Y-93258026D01*
X109023873Y-93288800D01*
X108866127Y-93288800D01*
X108711415Y-93258026D01*
X108565678Y-93197660D01*
X108434519Y-93110022D01*
X108322978Y-92998481D01*
X108235340Y-92867322D01*
X108174974Y-92721585D01*
X108144200Y-92566873D01*
X108144200Y-92409127D01*
X108174974Y-92254415D01*
X108235340Y-92108678D01*
X108322978Y-91977519D01*
X108434519Y-91865978D01*
X108565678Y-91778340D01*
X108711415Y-91717974D01*
X108866127Y-91687200D01*
X109023873Y-91687200D01*
X109178585Y-91717974D01*
X109178585Y-91717974D01*
G37*
G36*
X115178585Y-91717974D02*
X115324322Y-91778340D01*
X115455481Y-91865978D01*
X115567022Y-91977519D01*
X115654660Y-92108678D01*
X115715026Y-92254415D01*
X115745800Y-92409127D01*
X115745800Y-92566873D01*
X115715026Y-92721585D01*
X115654660Y-92867322D01*
X115567022Y-92998481D01*
X115455481Y-93110022D01*
X115324322Y-93197660D01*
X115178585Y-93258026D01*
X115023873Y-93288800D01*
X114866127Y-93288800D01*
X114711415Y-93258026D01*
X114565678Y-93197660D01*
X114434519Y-93110022D01*
X114322978Y-92998481D01*
X114235340Y-92867322D01*
X114174974Y-92721585D01*
X114144200Y-92566873D01*
X114144200Y-92409127D01*
X114174974Y-92254415D01*
X114235340Y-92108678D01*
X114322978Y-91977519D01*
X114434519Y-91865978D01*
X114565678Y-91778340D01*
X114711415Y-91717974D01*
X114866127Y-91687200D01*
X115023873Y-91687200D01*
X115178585Y-91717974D01*
X115178585Y-91717974D01*
G37*
G36*
X112178585Y-91717974D02*
X112324322Y-91778340D01*
X112455481Y-91865978D01*
X112567022Y-91977519D01*
X112654660Y-92108678D01*
X112715026Y-92254415D01*
X112745800Y-92409127D01*
X112745800Y-92566873D01*
X112715026Y-92721585D01*
X112654660Y-92867322D01*
X112567022Y-92998481D01*
X112455481Y-93110022D01*
X112324322Y-93197660D01*
X112178585Y-93258026D01*
X112023873Y-93288800D01*
X111866127Y-93288800D01*
X111711415Y-93258026D01*
X111565678Y-93197660D01*
X111434519Y-93110022D01*
X111322978Y-92998481D01*
X111235340Y-92867322D01*
X111174974Y-92721585D01*
X111144200Y-92566873D01*
X111144200Y-92409127D01*
X111174974Y-92254415D01*
X111235340Y-92108678D01*
X111322978Y-91977519D01*
X111434519Y-91865978D01*
X111565678Y-91778340D01*
X111711415Y-91717974D01*
X111866127Y-91687200D01*
X112023873Y-91687200D01*
X112178585Y-91717974D01*
X112178585Y-91717974D01*
G37*
G36*
X130178585Y-91717974D02*
X130324322Y-91778340D01*
X130455481Y-91865978D01*
X130567022Y-91977519D01*
X130654660Y-92108678D01*
X130715026Y-92254415D01*
X130745800Y-92409127D01*
X130745800Y-92566873D01*
X130715026Y-92721585D01*
X130654660Y-92867322D01*
X130567022Y-92998481D01*
X130455481Y-93110022D01*
X130324322Y-93197660D01*
X130178585Y-93258026D01*
X130023873Y-93288800D01*
X129866127Y-93288800D01*
X129711415Y-93258026D01*
X129565678Y-93197660D01*
X129434519Y-93110022D01*
X129322978Y-92998481D01*
X129235340Y-92867322D01*
X129174974Y-92721585D01*
X129144200Y-92566873D01*
X129144200Y-92409127D01*
X129174974Y-92254415D01*
X129235340Y-92108678D01*
X129322978Y-91977519D01*
X129434519Y-91865978D01*
X129565678Y-91778340D01*
X129711415Y-91717974D01*
X129866127Y-91687200D01*
X130023873Y-91687200D01*
X130178585Y-91717974D01*
X130178585Y-91717974D01*
G37*
G36*
X139178585Y-91717974D02*
X139324322Y-91778340D01*
X139455481Y-91865978D01*
X139567022Y-91977519D01*
X139654660Y-92108678D01*
X139715026Y-92254415D01*
X139745800Y-92409127D01*
X139745800Y-92566873D01*
X139715026Y-92721585D01*
X139654660Y-92867322D01*
X139567022Y-92998481D01*
X139455481Y-93110022D01*
X139324322Y-93197660D01*
X139178585Y-93258026D01*
X139023873Y-93288800D01*
X138866127Y-93288800D01*
X138711415Y-93258026D01*
X138565678Y-93197660D01*
X138434519Y-93110022D01*
X138322978Y-92998481D01*
X138235340Y-92867322D01*
X138174974Y-92721585D01*
X138144200Y-92566873D01*
X138144200Y-92409127D01*
X138174974Y-92254415D01*
X138235340Y-92108678D01*
X138322978Y-91977519D01*
X138434519Y-91865978D01*
X138565678Y-91778340D01*
X138711415Y-91717974D01*
X138866127Y-91687200D01*
X139023873Y-91687200D01*
X139178585Y-91717974D01*
X139178585Y-91717974D01*
G37*
G36*
X142178585Y-91717974D02*
X142324322Y-91778340D01*
X142455481Y-91865978D01*
X142567022Y-91977519D01*
X142654660Y-92108678D01*
X142715026Y-92254415D01*
X142745800Y-92409127D01*
X142745800Y-92566873D01*
X142715026Y-92721585D01*
X142654660Y-92867322D01*
X142567022Y-92998481D01*
X142455481Y-93110022D01*
X142324322Y-93197660D01*
X142178585Y-93258026D01*
X142023873Y-93288800D01*
X141866127Y-93288800D01*
X141711415Y-93258026D01*
X141565678Y-93197660D01*
X141434519Y-93110022D01*
X141322978Y-92998481D01*
X141235340Y-92867322D01*
X141174974Y-92721585D01*
X141144200Y-92566873D01*
X141144200Y-92409127D01*
X141174974Y-92254415D01*
X141235340Y-92108678D01*
X141322978Y-91977519D01*
X141434519Y-91865978D01*
X141565678Y-91778340D01*
X141711415Y-91717974D01*
X141866127Y-91687200D01*
X142023873Y-91687200D01*
X142178585Y-91717974D01*
X142178585Y-91717974D01*
G37*
G36*
X148178585Y-91717974D02*
X148324322Y-91778340D01*
X148455481Y-91865978D01*
X148567022Y-91977519D01*
X148654660Y-92108678D01*
X148715026Y-92254415D01*
X148745800Y-92409127D01*
X148745800Y-92566873D01*
X148715026Y-92721585D01*
X148654660Y-92867322D01*
X148567022Y-92998481D01*
X148455481Y-93110022D01*
X148324322Y-93197660D01*
X148178585Y-93258026D01*
X148023873Y-93288800D01*
X147866127Y-93288800D01*
X147711415Y-93258026D01*
X147565678Y-93197660D01*
X147434519Y-93110022D01*
X147322978Y-92998481D01*
X147235340Y-92867322D01*
X147174974Y-92721585D01*
X147144200Y-92566873D01*
X147144200Y-92409127D01*
X147174974Y-92254415D01*
X147235340Y-92108678D01*
X147322978Y-91977519D01*
X147434519Y-91865978D01*
X147565678Y-91778340D01*
X147711415Y-91717974D01*
X147866127Y-91687200D01*
X148023873Y-91687200D01*
X148178585Y-91717974D01*
X148178585Y-91717974D01*
G37*
G36*
X125381745Y-78671271D02*
X125744068Y-78743341D01*
X126426670Y-79026084D01*
X127040996Y-79436563D01*
X127563437Y-79959004D01*
X127973916Y-80573330D01*
X128256659Y-81255932D01*
X128400800Y-81980578D01*
X128400800Y-82719422D01*
X128256659Y-83444068D01*
X127973916Y-84126670D01*
X127563437Y-84740996D01*
X127040996Y-85263437D01*
X126426670Y-85673916D01*
X125744068Y-85956659D01*
X125381745Y-86028729D01*
X125019423Y-86100800D01*
X124280577Y-86100800D01*
X123918255Y-86028729D01*
X123555932Y-85956659D01*
X122873330Y-85673916D01*
X122259004Y-85263437D01*
X121736563Y-84740996D01*
X121326084Y-84126670D01*
X121043341Y-83444068D01*
X120899200Y-82719422D01*
X120899200Y-81980578D01*
X121043341Y-81255932D01*
X121326084Y-80573330D01*
X121736563Y-79959004D01*
X122259004Y-79436563D01*
X122873330Y-79026084D01*
X123555932Y-78743341D01*
X123918255Y-78671271D01*
X124280577Y-78599200D01*
X125019423Y-78599200D01*
X125381745Y-78671271D01*
X125381745Y-78671271D01*
G37*
G36*
X125000260Y-56145346D02*
X125218789Y-56235863D01*
X125415469Y-56367281D01*
X125582719Y-56534531D01*
X125714137Y-56731211D01*
X125804654Y-56949740D01*
X125850800Y-57181730D01*
X125850800Y-57418270D01*
X125804654Y-57650260D01*
X125714137Y-57868789D01*
X125582719Y-58065469D01*
X125415469Y-58232719D01*
X125218789Y-58364137D01*
X125000260Y-58454654D01*
X124768270Y-58500800D01*
X124531730Y-58500800D01*
X124299740Y-58454654D01*
X124081211Y-58364137D01*
X123884531Y-58232719D01*
X123717281Y-58065469D01*
X123585863Y-57868789D01*
X123495346Y-57650260D01*
X123449200Y-57418270D01*
X123449200Y-57181730D01*
X123495346Y-56949740D01*
X123585863Y-56731211D01*
X123717281Y-56534531D01*
X123884531Y-56367281D01*
X124081211Y-56235863D01*
X124299740Y-56145346D01*
X124531730Y-56099200D01*
X124768270Y-56099200D01*
X125000260Y-56145346D01*
X125000260Y-56145346D01*
G37*
G36*
X106004507Y-47335582D02*
X106195740Y-47414793D01*
X106366687Y-47529016D01*
X106367849Y-47529793D01*
X106514207Y-47676151D01*
X106514209Y-47676154D01*
X106629207Y-47848260D01*
X106708418Y-48039493D01*
X106748800Y-48242505D01*
X106748800Y-48449495D01*
X106708418Y-48652507D01*
X106629207Y-48843740D01*
X106514984Y-49014687D01*
X106514207Y-49015849D01*
X106367849Y-49162207D01*
X106367846Y-49162209D01*
X106195740Y-49277207D01*
X106004507Y-49356418D01*
X105801495Y-49396800D01*
X105594505Y-49396800D01*
X105391493Y-49356418D01*
X105200260Y-49277207D01*
X105028154Y-49162209D01*
X105028151Y-49162207D01*
X104881793Y-49015849D01*
X104881016Y-49014687D01*
X104766793Y-48843740D01*
X104687582Y-48652507D01*
X104647200Y-48449495D01*
X104647200Y-48242505D01*
X104687582Y-48039493D01*
X104766793Y-47848260D01*
X104881791Y-47676154D01*
X104881793Y-47676151D01*
X105028151Y-47529793D01*
X105029313Y-47529016D01*
X105200260Y-47414793D01*
X105391493Y-47335582D01*
X105594505Y-47295200D01*
X105801495Y-47295200D01*
X106004507Y-47335582D01*
X106004507Y-47335582D01*
G37*
G36*
X116672507Y-47335582D02*
X116863740Y-47414793D01*
X117034687Y-47529016D01*
X117035849Y-47529793D01*
X117182207Y-47676151D01*
X117182209Y-47676154D01*
X117297207Y-47848260D01*
X117376418Y-48039493D01*
X117416800Y-48242505D01*
X117416800Y-48449495D01*
X117376418Y-48652507D01*
X117297207Y-48843740D01*
X117182984Y-49014687D01*
X117182207Y-49015849D01*
X117035849Y-49162207D01*
X117035846Y-49162209D01*
X116863740Y-49277207D01*
X116672507Y-49356418D01*
X116469495Y-49396800D01*
X116262505Y-49396800D01*
X116059493Y-49356418D01*
X115868260Y-49277207D01*
X115696154Y-49162209D01*
X115696151Y-49162207D01*
X115549793Y-49015849D01*
X115549016Y-49014687D01*
X115434793Y-48843740D01*
X115355582Y-48652507D01*
X115315200Y-48449495D01*
X115315200Y-48242505D01*
X115355582Y-48039493D01*
X115434793Y-47848260D01*
X115549791Y-47676154D01*
X115549793Y-47676151D01*
X115696151Y-47529793D01*
X115697313Y-47529016D01*
X115868260Y-47414793D01*
X116059493Y-47335582D01*
X116262505Y-47295200D01*
X116469495Y-47295200D01*
X116672507Y-47335582D01*
X116672507Y-47335582D01*
G37*
G36*
X138678585Y-44717974D02*
X138824322Y-44778340D01*
X138955481Y-44865978D01*
X139067022Y-44977519D01*
X139154660Y-45108678D01*
X139215026Y-45254415D01*
X139245800Y-45409127D01*
X139245800Y-45566873D01*
X139215026Y-45721585D01*
X139154660Y-45867322D01*
X139067022Y-45998481D01*
X138955481Y-46110022D01*
X138824322Y-46197660D01*
X138678585Y-46258026D01*
X138523873Y-46288800D01*
X138366127Y-46288800D01*
X138211415Y-46258026D01*
X138065678Y-46197660D01*
X137934519Y-46110022D01*
X137822978Y-45998481D01*
X137735340Y-45867322D01*
X137674974Y-45721585D01*
X137644200Y-45566873D01*
X137644200Y-45409127D01*
X137674974Y-45254415D01*
X137735340Y-45108678D01*
X137822978Y-44977519D01*
X137934519Y-44865978D01*
X138065678Y-44778340D01*
X138211415Y-44717974D01*
X138366127Y-44687200D01*
X138523873Y-44687200D01*
X138678585Y-44717974D01*
X138678585Y-44717974D01*
G37*
G36*
X141678585Y-44717974D02*
X141824322Y-44778340D01*
X141955481Y-44865978D01*
X142067022Y-44977519D01*
X142154660Y-45108678D01*
X142215026Y-45254415D01*
X142245800Y-45409127D01*
X142245800Y-45566873D01*
X142215026Y-45721585D01*
X142154660Y-45867322D01*
X142067022Y-45998481D01*
X141955481Y-46110022D01*
X141824322Y-46197660D01*
X141678585Y-46258026D01*
X141523873Y-46288800D01*
X141366127Y-46288800D01*
X141211415Y-46258026D01*
X141065678Y-46197660D01*
X140934519Y-46110022D01*
X140822978Y-45998481D01*
X140735340Y-45867322D01*
X140674974Y-45721585D01*
X140644200Y-45566873D01*
X140644200Y-45409127D01*
X140674974Y-45254415D01*
X140735340Y-45108678D01*
X140822978Y-44977519D01*
X140934519Y-44865978D01*
X141065678Y-44778340D01*
X141211415Y-44717974D01*
X141366127Y-44687200D01*
X141523873Y-44687200D01*
X141678585Y-44717974D01*
X141678585Y-44717974D01*
G37*
G36*
X135678585Y-44717974D02*
X135824322Y-44778340D01*
X135955481Y-44865978D01*
X136067022Y-44977519D01*
X136154660Y-45108678D01*
X136215026Y-45254415D01*
X136245800Y-45409127D01*
X136245800Y-45566873D01*
X136215026Y-45721585D01*
X136154660Y-45867322D01*
X136067022Y-45998481D01*
X135955481Y-46110022D01*
X135824322Y-46197660D01*
X135678585Y-46258026D01*
X135523873Y-46288800D01*
X135366127Y-46288800D01*
X135211415Y-46258026D01*
X135065678Y-46197660D01*
X134934519Y-46110022D01*
X134822978Y-45998481D01*
X134735340Y-45867322D01*
X134674974Y-45721585D01*
X134644200Y-45566873D01*
X134644200Y-45409127D01*
X134674974Y-45254415D01*
X134735340Y-45108678D01*
X134822978Y-44977519D01*
X134934519Y-44865978D01*
X135065678Y-44778340D01*
X135211415Y-44717974D01*
X135366127Y-44687200D01*
X135523873Y-44687200D01*
X135678585Y-44717974D01*
X135678585Y-44717974D01*
G37*
G36*
X123852017Y-42910114D02*
X123965268Y-42957024D01*
X123965270Y-42957025D01*
X124020454Y-42993898D01*
X124067196Y-43025130D01*
X124153870Y-43111804D01*
X124221976Y-43213732D01*
X124268886Y-43326983D01*
X124292800Y-43447207D01*
X124292800Y-43569793D01*
X124268886Y-43690017D01*
X124221976Y-43803268D01*
X124153870Y-43905196D01*
X124067196Y-43991870D01*
X124067193Y-43991872D01*
X123965270Y-44059975D01*
X123965269Y-44059976D01*
X123965268Y-44059976D01*
X123852017Y-44106886D01*
X123731793Y-44130800D01*
X123609207Y-44130800D01*
X123488983Y-44106886D01*
X123375732Y-44059976D01*
X123375731Y-44059976D01*
X123375730Y-44059975D01*
X123273807Y-43991872D01*
X123273804Y-43991870D01*
X123187130Y-43905196D01*
X123119024Y-43803268D01*
X123072114Y-43690017D01*
X123048200Y-43569793D01*
X123048200Y-43447207D01*
X123072114Y-43326983D01*
X123119024Y-43213732D01*
X123187130Y-43111804D01*
X123273804Y-43025130D01*
X123320546Y-42993898D01*
X123375730Y-42957025D01*
X123375732Y-42957024D01*
X123488983Y-42910114D01*
X123609207Y-42886200D01*
X123731793Y-42886200D01*
X123852017Y-42910114D01*
X123852017Y-42910114D01*
G37*
G36*
X130452017Y-42910114D02*
X130565268Y-42957024D01*
X130565270Y-42957025D01*
X130620454Y-42993898D01*
X130667196Y-43025130D01*
X130753870Y-43111804D01*
X130821976Y-43213732D01*
X130868886Y-43326983D01*
X130892800Y-43447207D01*
X130892800Y-43569793D01*
X130868886Y-43690017D01*
X130821976Y-43803268D01*
X130753870Y-43905196D01*
X130667196Y-43991870D01*
X130667193Y-43991872D01*
X130565270Y-44059975D01*
X130565269Y-44059976D01*
X130565268Y-44059976D01*
X130452017Y-44106886D01*
X130331793Y-44130800D01*
X130209207Y-44130800D01*
X130088983Y-44106886D01*
X129975732Y-44059976D01*
X129975731Y-44059976D01*
X129975730Y-44059975D01*
X129873807Y-43991872D01*
X129873804Y-43991870D01*
X129787130Y-43905196D01*
X129719024Y-43803268D01*
X129672114Y-43690017D01*
X129648200Y-43569793D01*
X129648200Y-43447207D01*
X129672114Y-43326983D01*
X129719024Y-43213732D01*
X129787130Y-43111804D01*
X129873804Y-43025130D01*
X129920546Y-42993898D01*
X129975730Y-42957025D01*
X129975732Y-42957024D01*
X130088983Y-42910114D01*
X130209207Y-42886200D01*
X130331793Y-42886200D01*
X130452017Y-42910114D01*
X130452017Y-42910114D01*
G37*
G36*
X137178585Y-42217974D02*
X137324322Y-42278340D01*
X137455481Y-42365978D01*
X137567022Y-42477519D01*
X137654660Y-42608678D01*
X137715026Y-42754415D01*
X137745800Y-42909127D01*
X137745800Y-43066873D01*
X137715026Y-43221585D01*
X137654660Y-43367322D01*
X137567022Y-43498481D01*
X137455481Y-43610022D01*
X137324322Y-43697660D01*
X137178585Y-43758026D01*
X137023873Y-43788800D01*
X136866127Y-43788800D01*
X136711415Y-43758026D01*
X136565678Y-43697660D01*
X136434519Y-43610022D01*
X136322978Y-43498481D01*
X136235340Y-43367322D01*
X136174974Y-43221585D01*
X136144200Y-43066873D01*
X136144200Y-42909127D01*
X136174974Y-42754415D01*
X136235340Y-42608678D01*
X136322978Y-42477519D01*
X136434519Y-42365978D01*
X136565678Y-42278340D01*
X136711415Y-42217974D01*
X136866127Y-42187200D01*
X137023873Y-42187200D01*
X137178585Y-42217974D01*
X137178585Y-42217974D01*
G37*
G36*
X140178585Y-42217974D02*
X140324322Y-42278340D01*
X140455481Y-42365978D01*
X140567022Y-42477519D01*
X140654660Y-42608678D01*
X140715026Y-42754415D01*
X140745800Y-42909127D01*
X140745800Y-43066873D01*
X140715026Y-43221585D01*
X140654660Y-43367322D01*
X140567022Y-43498481D01*
X140455481Y-43610022D01*
X140324322Y-43697660D01*
X140178585Y-43758026D01*
X140023873Y-43788800D01*
X139866127Y-43788800D01*
X139711415Y-43758026D01*
X139565678Y-43697660D01*
X139434519Y-43610022D01*
X139322978Y-43498481D01*
X139235340Y-43367322D01*
X139174974Y-43221585D01*
X139144200Y-43066873D01*
X139144200Y-42909127D01*
X139174974Y-42754415D01*
X139235340Y-42608678D01*
X139322978Y-42477519D01*
X139434519Y-42365978D01*
X139565678Y-42278340D01*
X139711415Y-42217974D01*
X139866127Y-42187200D01*
X140023873Y-42187200D01*
X140178585Y-42217974D01*
X140178585Y-42217974D01*
G37*
G36*
X129037409Y-42223102D02*
X129110350Y-42253315D01*
X129175996Y-42297179D01*
X129231821Y-42353004D01*
X129275685Y-42418650D01*
X129305898Y-42491591D01*
X129321300Y-42569023D01*
X129321300Y-42647977D01*
X129305898Y-42725409D01*
X129275685Y-42798350D01*
X129231821Y-42863996D01*
X129175996Y-42919821D01*
X129110350Y-42963685D01*
X129037409Y-42993898D01*
X128959977Y-43009300D01*
X128881023Y-43009300D01*
X128803591Y-42993898D01*
X128730650Y-42963685D01*
X128665004Y-42919821D01*
X128609179Y-42863996D01*
X128565315Y-42798350D01*
X128535102Y-42725409D01*
X128519700Y-42647977D01*
X128519700Y-42569023D01*
X128535102Y-42491591D01*
X128565315Y-42418650D01*
X128609179Y-42353004D01*
X128665004Y-42297179D01*
X128730650Y-42253315D01*
X128803591Y-42223102D01*
X128881023Y-42207700D01*
X128959977Y-42207700D01*
X129037409Y-42223102D01*
X129037409Y-42223102D01*
G37*
G36*
X125137409Y-42223102D02*
X125210350Y-42253315D01*
X125275996Y-42297179D01*
X125331821Y-42353004D01*
X125375685Y-42418650D01*
X125405898Y-42491591D01*
X125421300Y-42569023D01*
X125421300Y-42647977D01*
X125405898Y-42725409D01*
X125375685Y-42798350D01*
X125331821Y-42863996D01*
X125275996Y-42919821D01*
X125210350Y-42963685D01*
X125137409Y-42993898D01*
X125059977Y-43009300D01*
X124981023Y-43009300D01*
X124903591Y-42993898D01*
X124830650Y-42963685D01*
X124765004Y-42919821D01*
X124709179Y-42863996D01*
X124665315Y-42798350D01*
X124635102Y-42725409D01*
X124619700Y-42647977D01*
X124619700Y-42569023D01*
X124635102Y-42491591D01*
X124665315Y-42418650D01*
X124709179Y-42353004D01*
X124765004Y-42297179D01*
X124830650Y-42253315D01*
X124903591Y-42223102D01*
X124981023Y-42207700D01*
X125059977Y-42207700D01*
X125137409Y-42223102D01*
X125137409Y-42223102D01*
G37*
G36*
X106004507Y-40335582D02*
X106195740Y-40414793D01*
X106289617Y-40477520D01*
X106367849Y-40529793D01*
X106514207Y-40676151D01*
X106514209Y-40676154D01*
X106629207Y-40848260D01*
X106708418Y-41039493D01*
X106748800Y-41242505D01*
X106748800Y-41449495D01*
X106708418Y-41652507D01*
X106629207Y-41843740D01*
X106547649Y-41965800D01*
X106514207Y-42015849D01*
X106367849Y-42162207D01*
X106367846Y-42162209D01*
X106195740Y-42277207D01*
X106004507Y-42356418D01*
X105801495Y-42396800D01*
X105594505Y-42396800D01*
X105391493Y-42356418D01*
X105200260Y-42277207D01*
X105028154Y-42162209D01*
X105028151Y-42162207D01*
X104881793Y-42015849D01*
X104848351Y-41965800D01*
X104766793Y-41843740D01*
X104687582Y-41652507D01*
X104647200Y-41449495D01*
X104647200Y-41242505D01*
X104687582Y-41039493D01*
X104766793Y-40848260D01*
X104881791Y-40676154D01*
X104881793Y-40676151D01*
X105028151Y-40529793D01*
X105106383Y-40477520D01*
X105200260Y-40414793D01*
X105391493Y-40335582D01*
X105594505Y-40295200D01*
X105801495Y-40295200D01*
X106004507Y-40335582D01*
X106004507Y-40335582D01*
G37*
G36*
X116672507Y-40335582D02*
X116863740Y-40414793D01*
X116957617Y-40477520D01*
X117035849Y-40529793D01*
X117182207Y-40676151D01*
X117182209Y-40676154D01*
X117297207Y-40848260D01*
X117376418Y-41039493D01*
X117416800Y-41242505D01*
X117416800Y-41449495D01*
X117376418Y-41652507D01*
X117297207Y-41843740D01*
X117215649Y-41965800D01*
X117182207Y-42015849D01*
X117035849Y-42162207D01*
X117035846Y-42162209D01*
X116863740Y-42277207D01*
X116672507Y-42356418D01*
X116469495Y-42396800D01*
X116262505Y-42396800D01*
X116059493Y-42356418D01*
X115868260Y-42277207D01*
X115696154Y-42162209D01*
X115696151Y-42162207D01*
X115549793Y-42015849D01*
X115516351Y-41965800D01*
X115434793Y-41843740D01*
X115355582Y-41652507D01*
X115315200Y-41449495D01*
X115315200Y-41242505D01*
X115355582Y-41039493D01*
X115434793Y-40848260D01*
X115549791Y-40676154D01*
X115549793Y-40676151D01*
X115696151Y-40529793D01*
X115774383Y-40477520D01*
X115868260Y-40414793D01*
X116059493Y-40335582D01*
X116262505Y-40295200D01*
X116469495Y-40295200D01*
X116672507Y-40335582D01*
X116672507Y-40335582D01*
G37*
G36*
X124627800Y-41965800D02*
X122113200Y-41965800D01*
X122113200Y-39451200D01*
X124627800Y-39451200D01*
X124627800Y-41965800D01*
X124627800Y-41965800D01*
G37*
G36*
X131827800Y-41965800D02*
X129313200Y-41965800D01*
X129313200Y-39451200D01*
X131827800Y-39451200D01*
X131827800Y-41965800D01*
X131827800Y-41965800D01*
G37*
G36*
X138678585Y-40217974D02*
X138824322Y-40278340D01*
X138955481Y-40365978D01*
X139067022Y-40477519D01*
X139154660Y-40608678D01*
X139215026Y-40754415D01*
X139245800Y-40909127D01*
X139245800Y-41066873D01*
X139215026Y-41221585D01*
X139154660Y-41367322D01*
X139067022Y-41498481D01*
X138955481Y-41610022D01*
X138824322Y-41697660D01*
X138678585Y-41758026D01*
X138523873Y-41788800D01*
X138366127Y-41788800D01*
X138211415Y-41758026D01*
X138065678Y-41697660D01*
X137934519Y-41610022D01*
X137822978Y-41498481D01*
X137735340Y-41367322D01*
X137674974Y-41221585D01*
X137644200Y-41066873D01*
X137644200Y-40909127D01*
X137674974Y-40754415D01*
X137735340Y-40608678D01*
X137822978Y-40477519D01*
X137934519Y-40365978D01*
X138065678Y-40278340D01*
X138211415Y-40217974D01*
X138366127Y-40187200D01*
X138523873Y-40187200D01*
X138678585Y-40217974D01*
X138678585Y-40217974D01*
G37*
M02*
