G04 #@! TF.GenerationSoftware,KiCad,Pcbnew,(5.0.0-rc2-dev-111-gc69db6c)*
G04 #@! TF.CreationDate,2018-05-02T00:45:48-07:00*
G04 #@! TF.ProjectId,pygameboy,707967616D65626F792E6B696361645F,rev?*
G04 #@! TF.SameCoordinates,Original*
G04 #@! TF.FileFunction,Paste,Top*
G04 #@! TF.FilePolarity,Positive*
%FSLAX46Y46*%
G04 Gerber Fmt 4.6, Leading zero omitted, Abs format (unit mm)*
G04 Created by KiCad (PCBNEW (5.0.0-rc2-dev-111-gc69db6c)) date Wednesday, May 02, 2018 at 12:45:48 AM*
%MOMM*%
%LPD*%
G01*
G04 APERTURE LIST*
%ADD10R,1.200000X0.900000*%
%ADD11R,0.900000X1.200000*%
%ADD12R,2.000000X1.400000*%
%ADD13R,0.400000X1.350000*%
%ADD14R,1.900000X1.900000*%
%ADD15R,0.750000X1.200000*%
%ADD16C,0.750000*%
%ADD17C,0.100000*%
%ADD18R,1.200000X0.750000*%
%ADD19R,0.740000X2.400000*%
%ADD20C,0.900000*%
%ADD21R,0.800000X0.900000*%
%ADD22R,1.060000X0.650000*%
%ADD23C,0.250000*%
%ADD24R,1.450000X0.450000*%
%ADD25R,0.450000X1.450000*%
%ADD26R,1.100000X0.400000*%
%ADD27R,1.400000X6.000000*%
%ADD28R,1.000000X6.000000*%
G04 APERTURE END LIST*
D10*
X133266000Y-39878000D03*
X135466000Y-39878000D03*
X135466000Y-41656000D03*
X133266000Y-41656000D03*
X138768000Y-61214000D03*
X136568000Y-61214000D03*
X101473000Y-72391000D03*
X101473000Y-75691000D03*
D11*
X126618000Y-47244000D03*
X123318000Y-47244000D03*
D12*
X128250000Y-42201000D03*
X121050000Y-42201000D03*
D13*
X125950000Y-42426000D03*
X125300000Y-42426000D03*
X124650000Y-42426000D03*
X124000000Y-42426000D03*
X123350000Y-42426000D03*
D14*
X125850000Y-39751000D03*
X123450000Y-39751000D03*
D15*
X106807000Y-65598000D03*
X106807000Y-67498000D03*
D16*
X120740249Y-79792751D03*
D17*
G36*
X120581150Y-80482180D02*
X120050820Y-79951850D01*
X120899348Y-79103322D01*
X121429678Y-79633652D01*
X120581150Y-80482180D01*
X120581150Y-80482180D01*
G37*
D16*
X122083751Y-78449249D03*
D17*
G36*
X121924652Y-79138678D02*
X121394322Y-78608348D01*
X122242850Y-77759820D01*
X122773180Y-78290150D01*
X121924652Y-79138678D01*
X121924652Y-79138678D01*
G37*
D18*
X112837000Y-77724000D03*
X110937000Y-77724000D03*
X104455000Y-69977000D03*
X102555000Y-69977000D03*
D15*
X131572000Y-81087000D03*
X131572000Y-79187000D03*
D18*
X136591000Y-59563000D03*
X138491000Y-59563000D03*
X140655000Y-59563000D03*
X142555000Y-59563000D03*
D16*
X127798751Y-58129249D03*
D17*
G36*
X127957850Y-57439820D02*
X128488180Y-57970150D01*
X127639652Y-58818678D01*
X127109322Y-58288348D01*
X127957850Y-57439820D01*
X127957850Y-57439820D01*
G37*
D16*
X126455249Y-59472751D03*
D17*
G36*
X126614348Y-58783322D02*
X127144678Y-59313652D01*
X126296150Y-60162180D01*
X125765820Y-59631850D01*
X126614348Y-58783322D01*
X126614348Y-58783322D01*
G37*
D16*
X132932249Y-65241249D03*
D17*
G36*
X133621678Y-65400348D02*
X133091348Y-65930678D01*
X132242820Y-65082150D01*
X132773150Y-64551820D01*
X133621678Y-65400348D01*
X133621678Y-65400348D01*
G37*
D16*
X134275751Y-66584751D03*
D17*
G36*
X134965180Y-66743850D02*
X134434850Y-67274180D01*
X133586322Y-66425652D01*
X134116652Y-65895322D01*
X134965180Y-66743850D01*
X134965180Y-66743850D01*
G37*
D16*
X127217249Y-76236751D03*
D17*
G36*
X127058150Y-76926180D02*
X126527820Y-76395850D01*
X127376348Y-75547322D01*
X127906678Y-76077652D01*
X127058150Y-76926180D01*
X127058150Y-76926180D01*
G37*
D16*
X128560751Y-74893249D03*
D17*
G36*
X128401652Y-75582678D02*
X127871322Y-75052348D01*
X128719850Y-74203820D01*
X129250180Y-74734150D01*
X128401652Y-75582678D01*
X128401652Y-75582678D01*
G37*
D16*
X118908751Y-73369249D03*
D17*
G36*
X118749652Y-74058678D02*
X118219322Y-73528348D01*
X119067850Y-72679820D01*
X119598180Y-73210150D01*
X118749652Y-74058678D01*
X118749652Y-74058678D01*
G37*
D16*
X117565249Y-74712751D03*
D17*
G36*
X117406150Y-75402180D02*
X116875820Y-74871850D01*
X117724348Y-74023322D01*
X118254678Y-74553652D01*
X117406150Y-75402180D01*
X117406150Y-75402180D01*
G37*
D16*
X119289751Y-60488751D03*
D17*
G36*
X119979180Y-60647850D02*
X119448850Y-61178180D01*
X118600322Y-60329652D01*
X119130652Y-59799322D01*
X119979180Y-60647850D01*
X119979180Y-60647850D01*
G37*
D16*
X117946249Y-59145249D03*
D17*
G36*
X118635678Y-59304348D02*
X118105348Y-59834678D01*
X117256820Y-58986150D01*
X117787150Y-58455820D01*
X118635678Y-59304348D01*
X118635678Y-59304348D01*
G37*
D16*
X118273751Y-61631751D03*
D17*
G36*
X117584322Y-61472652D02*
X118114652Y-60942322D01*
X118963180Y-61790850D01*
X118432850Y-62321180D01*
X117584322Y-61472652D01*
X117584322Y-61472652D01*
G37*
D16*
X116930249Y-60288249D03*
D17*
G36*
X116240820Y-60129150D02*
X116771150Y-59598820D01*
X117619678Y-60447348D01*
X117089348Y-60977678D01*
X116240820Y-60129150D01*
X116240820Y-60129150D01*
G37*
D19*
X110236000Y-41484000D03*
X110236000Y-45384000D03*
X108966000Y-41484000D03*
X108966000Y-45384000D03*
X107696000Y-41484000D03*
X107696000Y-45384000D03*
X106426000Y-41484000D03*
X106426000Y-45384000D03*
X105156000Y-41484000D03*
X105156000Y-45384000D03*
D11*
X137287000Y-64432000D03*
X137287000Y-66632000D03*
D20*
X120665817Y-59578817D03*
D17*
G36*
X119923355Y-59472751D02*
X120559751Y-58836355D01*
X121408279Y-59684883D01*
X120771883Y-60321279D01*
X119923355Y-59472751D01*
X119923355Y-59472751D01*
G37*
D20*
X119110183Y-58023183D03*
D17*
G36*
X118367721Y-57917117D02*
X119004117Y-57280721D01*
X119852645Y-58129249D01*
X119216249Y-58765645D01*
X118367721Y-57917117D01*
X118367721Y-57917117D01*
G37*
D21*
X136271000Y-70723000D03*
X135321000Y-68723000D03*
X137221000Y-68723000D03*
D22*
X104605000Y-65598000D03*
X104605000Y-67498000D03*
X102405000Y-67498000D03*
X102405000Y-66548000D03*
X102405000Y-65598000D03*
D23*
X118031841Y-66693142D03*
D17*
G36*
X118473783Y-66958307D02*
X118297006Y-67135084D01*
X117589899Y-66427977D01*
X117766676Y-66251200D01*
X118473783Y-66958307D01*
X118473783Y-66958307D01*
G37*
D23*
X118385394Y-66339588D03*
D17*
G36*
X118827336Y-66604753D02*
X118650559Y-66781530D01*
X117943452Y-66074423D01*
X118120229Y-65897646D01*
X118827336Y-66604753D01*
X118827336Y-66604753D01*
G37*
D23*
X118738948Y-65986035D03*
D17*
G36*
X119180890Y-66251200D02*
X119004113Y-66427977D01*
X118297006Y-65720870D01*
X118473783Y-65544093D01*
X119180890Y-66251200D01*
X119180890Y-66251200D01*
G37*
D23*
X119092501Y-65632482D03*
D17*
G36*
X119534443Y-65897647D02*
X119357666Y-66074424D01*
X118650559Y-65367317D01*
X118827336Y-65190540D01*
X119534443Y-65897647D01*
X119534443Y-65897647D01*
G37*
D23*
X119446054Y-65278928D03*
D17*
G36*
X119887996Y-65544093D02*
X119711219Y-65720870D01*
X119004112Y-65013763D01*
X119180889Y-64836986D01*
X119887996Y-65544093D01*
X119887996Y-65544093D01*
G37*
D23*
X119799608Y-64925375D03*
D17*
G36*
X120241550Y-65190540D02*
X120064773Y-65367317D01*
X119357666Y-64660210D01*
X119534443Y-64483433D01*
X120241550Y-65190540D01*
X120241550Y-65190540D01*
G37*
D23*
X120153161Y-64571821D03*
D17*
G36*
X120595103Y-64836986D02*
X120418326Y-65013763D01*
X119711219Y-64306656D01*
X119887996Y-64129879D01*
X120595103Y-64836986D01*
X120595103Y-64836986D01*
G37*
D23*
X120506715Y-64218268D03*
D17*
G36*
X120948657Y-64483433D02*
X120771880Y-64660210D01*
X120064773Y-63953103D01*
X120241550Y-63776326D01*
X120948657Y-64483433D01*
X120948657Y-64483433D01*
G37*
D23*
X120860268Y-63864715D03*
D17*
G36*
X121302210Y-64129880D02*
X121125433Y-64306657D01*
X120418326Y-63599550D01*
X120595103Y-63422773D01*
X121302210Y-64129880D01*
X121302210Y-64129880D01*
G37*
D23*
X121213821Y-63511161D03*
D17*
G36*
X121655763Y-63776326D02*
X121478986Y-63953103D01*
X120771879Y-63245996D01*
X120948656Y-63069219D01*
X121655763Y-63776326D01*
X121655763Y-63776326D01*
G37*
D23*
X121567375Y-63157608D03*
D17*
G36*
X122009317Y-63422773D02*
X121832540Y-63599550D01*
X121125433Y-62892443D01*
X121302210Y-62715666D01*
X122009317Y-63422773D01*
X122009317Y-63422773D01*
G37*
D23*
X121920928Y-62804054D03*
D17*
G36*
X122362870Y-63069219D02*
X122186093Y-63245996D01*
X121478986Y-62538889D01*
X121655763Y-62362112D01*
X122362870Y-63069219D01*
X122362870Y-63069219D01*
G37*
D23*
X122274482Y-62450501D03*
D17*
G36*
X122716424Y-62715666D02*
X122539647Y-62892443D01*
X121832540Y-62185336D01*
X122009317Y-62008559D01*
X122716424Y-62715666D01*
X122716424Y-62715666D01*
G37*
D23*
X122628035Y-62096948D03*
D17*
G36*
X123069977Y-62362113D02*
X122893200Y-62538890D01*
X122186093Y-61831783D01*
X122362870Y-61655006D01*
X123069977Y-62362113D01*
X123069977Y-62362113D01*
G37*
D23*
X122981588Y-61743394D03*
D17*
G36*
X123423530Y-62008559D02*
X123246753Y-62185336D01*
X122539646Y-61478229D01*
X122716423Y-61301452D01*
X123423530Y-62008559D01*
X123423530Y-62008559D01*
G37*
D23*
X123335142Y-61389841D03*
D17*
G36*
X123777084Y-61655006D02*
X123600307Y-61831783D01*
X122893200Y-61124676D01*
X123069977Y-60947899D01*
X123777084Y-61655006D01*
X123777084Y-61655006D01*
G37*
D23*
X126092858Y-61389841D03*
D17*
G36*
X125827693Y-61831783D02*
X125650916Y-61655006D01*
X126358023Y-60947899D01*
X126534800Y-61124676D01*
X125827693Y-61831783D01*
X125827693Y-61831783D01*
G37*
D23*
X126446412Y-61743394D03*
D17*
G36*
X126181247Y-62185336D02*
X126004470Y-62008559D01*
X126711577Y-61301452D01*
X126888354Y-61478229D01*
X126181247Y-62185336D01*
X126181247Y-62185336D01*
G37*
D23*
X126799965Y-62096948D03*
D17*
G36*
X126534800Y-62538890D02*
X126358023Y-62362113D01*
X127065130Y-61655006D01*
X127241907Y-61831783D01*
X126534800Y-62538890D01*
X126534800Y-62538890D01*
G37*
D23*
X127153518Y-62450501D03*
D17*
G36*
X126888353Y-62892443D02*
X126711576Y-62715666D01*
X127418683Y-62008559D01*
X127595460Y-62185336D01*
X126888353Y-62892443D01*
X126888353Y-62892443D01*
G37*
D23*
X127507072Y-62804054D03*
D17*
G36*
X127241907Y-63245996D02*
X127065130Y-63069219D01*
X127772237Y-62362112D01*
X127949014Y-62538889D01*
X127241907Y-63245996D01*
X127241907Y-63245996D01*
G37*
D23*
X127860625Y-63157608D03*
D17*
G36*
X127595460Y-63599550D02*
X127418683Y-63422773D01*
X128125790Y-62715666D01*
X128302567Y-62892443D01*
X127595460Y-63599550D01*
X127595460Y-63599550D01*
G37*
D23*
X128214179Y-63511161D03*
D17*
G36*
X127949014Y-63953103D02*
X127772237Y-63776326D01*
X128479344Y-63069219D01*
X128656121Y-63245996D01*
X127949014Y-63953103D01*
X127949014Y-63953103D01*
G37*
D23*
X128567732Y-63864715D03*
D17*
G36*
X128302567Y-64306657D02*
X128125790Y-64129880D01*
X128832897Y-63422773D01*
X129009674Y-63599550D01*
X128302567Y-64306657D01*
X128302567Y-64306657D01*
G37*
D23*
X128921285Y-64218268D03*
D17*
G36*
X128656120Y-64660210D02*
X128479343Y-64483433D01*
X129186450Y-63776326D01*
X129363227Y-63953103D01*
X128656120Y-64660210D01*
X128656120Y-64660210D01*
G37*
D23*
X129274839Y-64571821D03*
D17*
G36*
X129009674Y-65013763D02*
X128832897Y-64836986D01*
X129540004Y-64129879D01*
X129716781Y-64306656D01*
X129009674Y-65013763D01*
X129009674Y-65013763D01*
G37*
D23*
X129628392Y-64925375D03*
D17*
G36*
X129363227Y-65367317D02*
X129186450Y-65190540D01*
X129893557Y-64483433D01*
X130070334Y-64660210D01*
X129363227Y-65367317D01*
X129363227Y-65367317D01*
G37*
D23*
X129981946Y-65278928D03*
D17*
G36*
X129716781Y-65720870D02*
X129540004Y-65544093D01*
X130247111Y-64836986D01*
X130423888Y-65013763D01*
X129716781Y-65720870D01*
X129716781Y-65720870D01*
G37*
D23*
X130335499Y-65632482D03*
D17*
G36*
X130070334Y-66074424D02*
X129893557Y-65897647D01*
X130600664Y-65190540D01*
X130777441Y-65367317D01*
X130070334Y-66074424D01*
X130070334Y-66074424D01*
G37*
D23*
X130689052Y-65986035D03*
D17*
G36*
X130423887Y-66427977D02*
X130247110Y-66251200D01*
X130954217Y-65544093D01*
X131130994Y-65720870D01*
X130423887Y-66427977D01*
X130423887Y-66427977D01*
G37*
D23*
X131042606Y-66339588D03*
D17*
G36*
X130777441Y-66781530D02*
X130600664Y-66604753D01*
X131307771Y-65897646D01*
X131484548Y-66074423D01*
X130777441Y-66781530D01*
X130777441Y-66781530D01*
G37*
D23*
X131396159Y-66693142D03*
D17*
G36*
X131130994Y-67135084D02*
X130954217Y-66958307D01*
X131661324Y-66251200D01*
X131838101Y-66427977D01*
X131130994Y-67135084D01*
X131130994Y-67135084D01*
G37*
D23*
X131396159Y-69450858D03*
D17*
G36*
X131838101Y-69716023D02*
X131661324Y-69892800D01*
X130954217Y-69185693D01*
X131130994Y-69008916D01*
X131838101Y-69716023D01*
X131838101Y-69716023D01*
G37*
D23*
X131042606Y-69804412D03*
D17*
G36*
X131484548Y-70069577D02*
X131307771Y-70246354D01*
X130600664Y-69539247D01*
X130777441Y-69362470D01*
X131484548Y-70069577D01*
X131484548Y-70069577D01*
G37*
D23*
X130689052Y-70157965D03*
D17*
G36*
X131130994Y-70423130D02*
X130954217Y-70599907D01*
X130247110Y-69892800D01*
X130423887Y-69716023D01*
X131130994Y-70423130D01*
X131130994Y-70423130D01*
G37*
D23*
X130335499Y-70511518D03*
D17*
G36*
X130777441Y-70776683D02*
X130600664Y-70953460D01*
X129893557Y-70246353D01*
X130070334Y-70069576D01*
X130777441Y-70776683D01*
X130777441Y-70776683D01*
G37*
D23*
X129981946Y-70865072D03*
D17*
G36*
X130423888Y-71130237D02*
X130247111Y-71307014D01*
X129540004Y-70599907D01*
X129716781Y-70423130D01*
X130423888Y-71130237D01*
X130423888Y-71130237D01*
G37*
D23*
X129628392Y-71218625D03*
D17*
G36*
X130070334Y-71483790D02*
X129893557Y-71660567D01*
X129186450Y-70953460D01*
X129363227Y-70776683D01*
X130070334Y-71483790D01*
X130070334Y-71483790D01*
G37*
D23*
X129274839Y-71572179D03*
D17*
G36*
X129716781Y-71837344D02*
X129540004Y-72014121D01*
X128832897Y-71307014D01*
X129009674Y-71130237D01*
X129716781Y-71837344D01*
X129716781Y-71837344D01*
G37*
D23*
X128921285Y-71925732D03*
D17*
G36*
X129363227Y-72190897D02*
X129186450Y-72367674D01*
X128479343Y-71660567D01*
X128656120Y-71483790D01*
X129363227Y-72190897D01*
X129363227Y-72190897D01*
G37*
D23*
X128567732Y-72279285D03*
D17*
G36*
X129009674Y-72544450D02*
X128832897Y-72721227D01*
X128125790Y-72014120D01*
X128302567Y-71837343D01*
X129009674Y-72544450D01*
X129009674Y-72544450D01*
G37*
D23*
X128214179Y-72632839D03*
D17*
G36*
X128656121Y-72898004D02*
X128479344Y-73074781D01*
X127772237Y-72367674D01*
X127949014Y-72190897D01*
X128656121Y-72898004D01*
X128656121Y-72898004D01*
G37*
D23*
X127860625Y-72986392D03*
D17*
G36*
X128302567Y-73251557D02*
X128125790Y-73428334D01*
X127418683Y-72721227D01*
X127595460Y-72544450D01*
X128302567Y-73251557D01*
X128302567Y-73251557D01*
G37*
D23*
X127507072Y-73339946D03*
D17*
G36*
X127949014Y-73605111D02*
X127772237Y-73781888D01*
X127065130Y-73074781D01*
X127241907Y-72898004D01*
X127949014Y-73605111D01*
X127949014Y-73605111D01*
G37*
D23*
X127153518Y-73693499D03*
D17*
G36*
X127595460Y-73958664D02*
X127418683Y-74135441D01*
X126711576Y-73428334D01*
X126888353Y-73251557D01*
X127595460Y-73958664D01*
X127595460Y-73958664D01*
G37*
D23*
X126799965Y-74047052D03*
D17*
G36*
X127241907Y-74312217D02*
X127065130Y-74488994D01*
X126358023Y-73781887D01*
X126534800Y-73605110D01*
X127241907Y-74312217D01*
X127241907Y-74312217D01*
G37*
D23*
X126446412Y-74400606D03*
D17*
G36*
X126888354Y-74665771D02*
X126711577Y-74842548D01*
X126004470Y-74135441D01*
X126181247Y-73958664D01*
X126888354Y-74665771D01*
X126888354Y-74665771D01*
G37*
D23*
X126092858Y-74754159D03*
D17*
G36*
X126534800Y-75019324D02*
X126358023Y-75196101D01*
X125650916Y-74488994D01*
X125827693Y-74312217D01*
X126534800Y-75019324D01*
X126534800Y-75019324D01*
G37*
D23*
X123335142Y-74754159D03*
D17*
G36*
X123069977Y-75196101D02*
X122893200Y-75019324D01*
X123600307Y-74312217D01*
X123777084Y-74488994D01*
X123069977Y-75196101D01*
X123069977Y-75196101D01*
G37*
D23*
X122981588Y-74400606D03*
D17*
G36*
X122716423Y-74842548D02*
X122539646Y-74665771D01*
X123246753Y-73958664D01*
X123423530Y-74135441D01*
X122716423Y-74842548D01*
X122716423Y-74842548D01*
G37*
D23*
X122628035Y-74047052D03*
D17*
G36*
X122362870Y-74488994D02*
X122186093Y-74312217D01*
X122893200Y-73605110D01*
X123069977Y-73781887D01*
X122362870Y-74488994D01*
X122362870Y-74488994D01*
G37*
D23*
X122274482Y-73693499D03*
D17*
G36*
X122009317Y-74135441D02*
X121832540Y-73958664D01*
X122539647Y-73251557D01*
X122716424Y-73428334D01*
X122009317Y-74135441D01*
X122009317Y-74135441D01*
G37*
D23*
X121920928Y-73339946D03*
D17*
G36*
X121655763Y-73781888D02*
X121478986Y-73605111D01*
X122186093Y-72898004D01*
X122362870Y-73074781D01*
X121655763Y-73781888D01*
X121655763Y-73781888D01*
G37*
D23*
X121567375Y-72986392D03*
D17*
G36*
X121302210Y-73428334D02*
X121125433Y-73251557D01*
X121832540Y-72544450D01*
X122009317Y-72721227D01*
X121302210Y-73428334D01*
X121302210Y-73428334D01*
G37*
D23*
X121213821Y-72632839D03*
D17*
G36*
X120948656Y-73074781D02*
X120771879Y-72898004D01*
X121478986Y-72190897D01*
X121655763Y-72367674D01*
X120948656Y-73074781D01*
X120948656Y-73074781D01*
G37*
D23*
X120860268Y-72279285D03*
D17*
G36*
X120595103Y-72721227D02*
X120418326Y-72544450D01*
X121125433Y-71837343D01*
X121302210Y-72014120D01*
X120595103Y-72721227D01*
X120595103Y-72721227D01*
G37*
D23*
X120506715Y-71925732D03*
D17*
G36*
X120241550Y-72367674D02*
X120064773Y-72190897D01*
X120771880Y-71483790D01*
X120948657Y-71660567D01*
X120241550Y-72367674D01*
X120241550Y-72367674D01*
G37*
D23*
X120153161Y-71572179D03*
D17*
G36*
X119887996Y-72014121D02*
X119711219Y-71837344D01*
X120418326Y-71130237D01*
X120595103Y-71307014D01*
X119887996Y-72014121D01*
X119887996Y-72014121D01*
G37*
D23*
X119799608Y-71218625D03*
D17*
G36*
X119534443Y-71660567D02*
X119357666Y-71483790D01*
X120064773Y-70776683D01*
X120241550Y-70953460D01*
X119534443Y-71660567D01*
X119534443Y-71660567D01*
G37*
D23*
X119446054Y-70865072D03*
D17*
G36*
X119180889Y-71307014D02*
X119004112Y-71130237D01*
X119711219Y-70423130D01*
X119887996Y-70599907D01*
X119180889Y-71307014D01*
X119180889Y-71307014D01*
G37*
D23*
X119092501Y-70511518D03*
D17*
G36*
X118827336Y-70953460D02*
X118650559Y-70776683D01*
X119357666Y-70069576D01*
X119534443Y-70246353D01*
X118827336Y-70953460D01*
X118827336Y-70953460D01*
G37*
D23*
X118738948Y-70157965D03*
D17*
G36*
X118473783Y-70599907D02*
X118297006Y-70423130D01*
X119004113Y-69716023D01*
X119180890Y-69892800D01*
X118473783Y-70599907D01*
X118473783Y-70599907D01*
G37*
D23*
X118385394Y-69804412D03*
D17*
G36*
X118120229Y-70246354D02*
X117943452Y-70069577D01*
X118650559Y-69362470D01*
X118827336Y-69539247D01*
X118120229Y-70246354D01*
X118120229Y-70246354D01*
G37*
D23*
X118031841Y-69450858D03*
D17*
G36*
X117766676Y-69892800D02*
X117589899Y-69716023D01*
X118297006Y-69008916D01*
X118473783Y-69185693D01*
X117766676Y-69892800D01*
X117766676Y-69892800D01*
G37*
D24*
X108614000Y-79371000D03*
X108614000Y-80021000D03*
X108614000Y-80671000D03*
X108614000Y-81321000D03*
X108614000Y-81971000D03*
X108614000Y-82621000D03*
X108614000Y-83271000D03*
X108614000Y-83921000D03*
X108614000Y-84571000D03*
X108614000Y-85221000D03*
X102714000Y-85221000D03*
X102714000Y-84571000D03*
X102714000Y-83921000D03*
X102714000Y-83271000D03*
X102714000Y-82621000D03*
X102714000Y-81971000D03*
X102714000Y-81321000D03*
X102714000Y-80671000D03*
X102714000Y-80021000D03*
X102714000Y-79371000D03*
X112874000Y-79371000D03*
X112874000Y-80021000D03*
X112874000Y-80671000D03*
X112874000Y-81321000D03*
X112874000Y-81971000D03*
X112874000Y-82621000D03*
X112874000Y-83271000D03*
X112874000Y-83921000D03*
X112874000Y-84571000D03*
X112874000Y-85221000D03*
X118774000Y-85221000D03*
X118774000Y-84571000D03*
X118774000Y-83921000D03*
X118774000Y-83271000D03*
X118774000Y-82621000D03*
X118774000Y-81971000D03*
X118774000Y-81321000D03*
X118774000Y-80671000D03*
X118774000Y-80021000D03*
X118774000Y-79371000D03*
D25*
X133346000Y-79346000D03*
X133996000Y-79346000D03*
X134646000Y-79346000D03*
X135296000Y-79346000D03*
X135946000Y-79346000D03*
X136596000Y-79346000D03*
X137246000Y-79346000D03*
X137896000Y-79346000D03*
X138546000Y-79346000D03*
X139196000Y-79346000D03*
X139196000Y-85246000D03*
X138546000Y-85246000D03*
X137896000Y-85246000D03*
X137246000Y-85246000D03*
X136596000Y-85246000D03*
X135946000Y-85246000D03*
X135296000Y-85246000D03*
X134646000Y-85246000D03*
X133996000Y-85246000D03*
X133346000Y-85246000D03*
D26*
X136596000Y-57804000D03*
X136596000Y-57154000D03*
X136596000Y-56504000D03*
X136596000Y-55854000D03*
X136596000Y-55204000D03*
X136596000Y-54554000D03*
X136596000Y-53904000D03*
X136596000Y-53254000D03*
X136596000Y-52604000D03*
X136596000Y-51954000D03*
X136596000Y-51304000D03*
X136596000Y-50654000D03*
X142296000Y-50654000D03*
X142296000Y-51304000D03*
X142296000Y-51954000D03*
X142296000Y-52604000D03*
X142296000Y-53254000D03*
X142296000Y-53904000D03*
X142296000Y-54554000D03*
X142296000Y-55204000D03*
X142296000Y-55854000D03*
X142296000Y-56504000D03*
X142296000Y-57154000D03*
X142296000Y-57804000D03*
D27*
X101245000Y-94448000D03*
D28*
X102945000Y-94488000D03*
X104445000Y-94488000D03*
X105945000Y-94488000D03*
X107445000Y-94488000D03*
X108945000Y-94488000D03*
X110445000Y-94488000D03*
X111945000Y-94488000D03*
X113445000Y-94488000D03*
X114945000Y-94488000D03*
X116445000Y-94488000D03*
X117945000Y-94488000D03*
X119445000Y-94488000D03*
X120945000Y-94488000D03*
X122445000Y-94488000D03*
X123945000Y-94488000D03*
X125445000Y-94488000D03*
X126945000Y-94488000D03*
X128445000Y-94488000D03*
X129945000Y-94488000D03*
X131445000Y-94488000D03*
X132945000Y-94488000D03*
X134445000Y-94488000D03*
X135945000Y-94488000D03*
X137445000Y-94488000D03*
X138945000Y-94488000D03*
X140445000Y-94488000D03*
X141945000Y-94488000D03*
X143445000Y-94488000D03*
X144945000Y-94488000D03*
X146445000Y-94488000D03*
D27*
X148145000Y-94488000D03*
M02*
