G04 #@! TF.GenerationSoftware,KiCad,Pcbnew,(5.0.0-rc2-dev-111-gc69db6c)*
G04 #@! TF.CreationDate,2018-05-02T00:45:48-07:00*
G04 #@! TF.ProjectId,pygameboy,707967616D65626F792E6B696361645F,rev?*
G04 #@! TF.SameCoordinates,Original*
G04 #@! TF.FileFunction,Copper,L1,Top,Signal*
G04 #@! TF.FilePolarity,Positive*
%FSLAX46Y46*%
G04 Gerber Fmt 4.6, Leading zero omitted, Abs format (unit mm)*
G04 Created by KiCad (PCBNEW (5.0.0-rc2-dev-111-gc69db6c)) date Wednesday, May 02, 2018 at 12:45:48 AM*
%MOMM*%
%LPD*%
G01*
G04 APERTURE LIST*
%ADD10C,0.010000*%
%ADD11R,1.200000X0.900000*%
%ADD12R,0.900000X1.200000*%
%ADD13R,2.000000X1.400000*%
%ADD14R,0.400000X1.350000*%
%ADD15R,1.900000X1.900000*%
%ADD16O,2.600000X1.600000*%
%ADD17R,0.750000X1.200000*%
%ADD18C,0.750000*%
%ADD19C,0.100000*%
%ADD20R,1.200000X0.750000*%
%ADD21R,0.740000X2.400000*%
%ADD22C,0.900000*%
%ADD23R,0.800000X0.900000*%
%ADD24R,1.060000X0.650000*%
%ADD25C,7.400000*%
%ADD26C,2.300000*%
%ADD27C,0.250000*%
%ADD28R,1.450000X0.450000*%
%ADD29R,0.450000X1.450000*%
%ADD30R,1.100000X0.400000*%
%ADD31R,1.400000X6.000000*%
%ADD32R,1.000000X6.000000*%
%ADD33C,0.762000*%
%ADD34C,0.203200*%
%ADD35C,0.254000*%
G04 APERTURE END LIST*
D10*
G36*
X137942890Y-39031476D02*
X137964607Y-39031821D01*
X137983555Y-39032540D01*
X138000765Y-39033719D01*
X138017270Y-39035441D01*
X138034101Y-39037790D01*
X138052292Y-39040850D01*
X138067352Y-39043645D01*
X138107711Y-39052396D01*
X138149606Y-39063414D01*
X138191059Y-39076125D01*
X138230093Y-39089957D01*
X138237895Y-39092990D01*
X138267503Y-39104780D01*
X138296560Y-39116531D01*
X138325332Y-39128368D01*
X138354083Y-39140414D01*
X138383081Y-39152793D01*
X138412591Y-39165628D01*
X138442879Y-39179043D01*
X138474210Y-39193162D01*
X138506851Y-39208109D01*
X138541067Y-39224008D01*
X138577124Y-39240981D01*
X138615288Y-39259153D01*
X138655824Y-39278648D01*
X138698999Y-39299589D01*
X138745078Y-39322100D01*
X138794327Y-39346305D01*
X138847013Y-39372327D01*
X138903399Y-39400290D01*
X138963754Y-39430318D01*
X138979333Y-39438083D01*
X139031341Y-39463963D01*
X139079400Y-39487774D01*
X139123855Y-39509675D01*
X139165050Y-39529825D01*
X139203331Y-39548383D01*
X139239043Y-39565509D01*
X139272531Y-39581361D01*
X139304140Y-39596099D01*
X139334214Y-39609882D01*
X139363099Y-39622869D01*
X139391140Y-39635221D01*
X139418682Y-39647095D01*
X139446069Y-39658651D01*
X139473648Y-39670048D01*
X139501761Y-39681446D01*
X139530756Y-39693004D01*
X139536784Y-39695386D01*
X139554241Y-39702341D01*
X139570202Y-39708833D01*
X139584121Y-39714627D01*
X139595450Y-39719492D01*
X139603645Y-39723195D01*
X139608158Y-39725503D01*
X139608869Y-39726075D01*
X139607563Y-39728832D01*
X139603180Y-39734251D01*
X139596270Y-39741795D01*
X139587385Y-39750924D01*
X139577075Y-39761099D01*
X139565890Y-39771782D01*
X139554380Y-39782433D01*
X139543096Y-39792515D01*
X139532588Y-39801487D01*
X139528204Y-39805062D01*
X139477211Y-39843188D01*
X139421855Y-39879379D01*
X139362225Y-39913598D01*
X139298406Y-39945810D01*
X139230487Y-39975978D01*
X139158555Y-40004066D01*
X139082696Y-40030040D01*
X139002998Y-40053862D01*
X138919549Y-40075496D01*
X138832435Y-40094907D01*
X138818467Y-40097744D01*
X138758669Y-40108927D01*
X138702688Y-40117711D01*
X138650154Y-40124122D01*
X138600698Y-40128187D01*
X138553950Y-40129931D01*
X138509542Y-40129382D01*
X138467103Y-40126567D01*
X138447375Y-40124425D01*
X138402479Y-40117163D01*
X138361093Y-40106835D01*
X138323274Y-40093475D01*
X138289079Y-40077116D01*
X138258565Y-40057792D01*
X138231788Y-40035535D01*
X138208805Y-40010379D01*
X138189673Y-39982357D01*
X138182520Y-39969186D01*
X138173869Y-39950070D01*
X138166870Y-39929992D01*
X138161258Y-39907947D01*
X138156770Y-39882928D01*
X138153778Y-39859810D01*
X138152017Y-39844104D01*
X138104847Y-39839992D01*
X138090104Y-39838714D01*
X138076916Y-39837583D01*
X138066079Y-39836667D01*
X138058388Y-39836033D01*
X138054639Y-39835747D01*
X138054510Y-39835741D01*
X138052469Y-39834313D01*
X138052773Y-39833286D01*
X138051528Y-39832251D01*
X138046914Y-39831987D01*
X138040321Y-39832379D01*
X138033137Y-39833312D01*
X138026751Y-39834672D01*
X138023810Y-39835675D01*
X138020033Y-39836715D01*
X138012280Y-39838402D01*
X138001345Y-39840577D01*
X137988022Y-39843085D01*
X137973107Y-39845768D01*
X137969381Y-39846420D01*
X137913505Y-39855682D01*
X137860420Y-39863481D01*
X137808382Y-39870048D01*
X137755652Y-39875618D01*
X137739571Y-39877116D01*
X137724191Y-39878209D01*
X137705536Y-39879055D01*
X137684533Y-39879653D01*
X137662109Y-39880003D01*
X137639192Y-39880105D01*
X137616706Y-39879958D01*
X137595581Y-39879562D01*
X137576741Y-39878917D01*
X137561114Y-39878022D01*
X137552095Y-39877190D01*
X137502156Y-39870570D01*
X137453568Y-39862418D01*
X137405046Y-39852468D01*
X137355304Y-39840450D01*
X137303055Y-39826096D01*
X137292445Y-39822996D01*
X137276948Y-39818341D01*
X137265529Y-39814674D01*
X137257586Y-39811756D01*
X137252514Y-39809346D01*
X137249714Y-39807204D01*
X137248722Y-39805578D01*
X137248066Y-39802072D01*
X137246989Y-39794328D01*
X137245557Y-39782920D01*
X137243841Y-39768422D01*
X137241906Y-39751409D01*
X137239823Y-39732456D01*
X137237704Y-39712582D01*
X137235241Y-39688806D01*
X137233316Y-39669429D01*
X137231901Y-39654043D01*
X137230968Y-39642244D01*
X137230489Y-39633623D01*
X137230436Y-39627776D01*
X137230783Y-39624294D01*
X137231500Y-39622773D01*
X137231565Y-39622728D01*
X137235819Y-39621159D01*
X137242571Y-39619623D01*
X137244605Y-39619280D01*
X137252317Y-39617889D01*
X137264009Y-39615518D01*
X137278961Y-39612332D01*
X137296451Y-39608495D01*
X137315760Y-39604171D01*
X137336165Y-39599523D01*
X137356946Y-39594716D01*
X137377383Y-39589914D01*
X137396754Y-39585280D01*
X137414339Y-39580979D01*
X137427514Y-39577664D01*
X137497888Y-39558903D01*
X137563710Y-39539815D01*
X137625260Y-39520305D01*
X137682819Y-39500280D01*
X137736666Y-39479646D01*
X137787082Y-39458309D01*
X137795210Y-39454661D01*
X137843672Y-39431036D01*
X137893023Y-39403787D01*
X137942083Y-39373663D01*
X137989673Y-39341417D01*
X138034616Y-39307797D01*
X138064933Y-39282939D01*
X138077045Y-39272405D01*
X138089616Y-39261151D01*
X138102155Y-39249653D01*
X138114170Y-39238384D01*
X138125171Y-39227818D01*
X138134665Y-39218429D01*
X138142161Y-39210691D01*
X138147168Y-39205077D01*
X138149194Y-39202062D01*
X138149151Y-39201738D01*
X138145610Y-39199991D01*
X138138091Y-39197332D01*
X138127321Y-39193973D01*
X138114025Y-39190129D01*
X138098931Y-39186015D01*
X138082765Y-39181845D01*
X138075819Y-39180125D01*
X138027885Y-39170245D01*
X137979747Y-39164066D01*
X137930937Y-39161600D01*
X137880987Y-39162860D01*
X137829427Y-39167857D01*
X137775790Y-39176605D01*
X137719605Y-39189115D01*
X137718269Y-39189449D01*
X137661150Y-39205728D01*
X137606384Y-39225221D01*
X137554173Y-39247771D01*
X137504722Y-39273220D01*
X137458232Y-39301411D01*
X137414907Y-39332186D01*
X137374950Y-39365388D01*
X137338562Y-39400858D01*
X137305948Y-39438440D01*
X137277311Y-39477977D01*
X137252852Y-39519309D01*
X137232775Y-39562281D01*
X137230373Y-39568296D01*
X137222804Y-39587648D01*
X137121354Y-39684202D01*
X137102831Y-39701846D01*
X137085380Y-39718497D01*
X137069311Y-39733857D01*
X137054936Y-39747627D01*
X137042566Y-39759508D01*
X137032512Y-39769202D01*
X137025085Y-39776409D01*
X137020596Y-39780832D01*
X137019324Y-39782174D01*
X137021351Y-39783404D01*
X137027387Y-39786401D01*
X137037016Y-39790971D01*
X137049824Y-39796924D01*
X137065395Y-39804069D01*
X137083314Y-39812213D01*
X137103164Y-39821165D01*
X137124531Y-39830735D01*
X137129640Y-39833013D01*
X137240536Y-39882436D01*
X137252083Y-39923728D01*
X137257641Y-39942900D01*
X137264390Y-39965059D01*
X137271912Y-39988919D01*
X137279791Y-40013195D01*
X137287611Y-40036602D01*
X137294953Y-40057855D01*
X137301122Y-40074919D01*
X137304858Y-40084304D01*
X137307957Y-40090115D01*
X137311150Y-40093417D01*
X137315055Y-40095241D01*
X137320062Y-40096040D01*
X137329196Y-40096683D01*
X137341750Y-40097172D01*
X137357014Y-40097507D01*
X137374280Y-40097690D01*
X137392842Y-40097724D01*
X137411989Y-40097608D01*
X137431014Y-40097345D01*
X137449209Y-40096937D01*
X137465866Y-40096384D01*
X137480276Y-40095689D01*
X137491619Y-40094863D01*
X137603351Y-40082774D01*
X137671838Y-40073603D01*
X137701132Y-40069189D01*
X137726379Y-40064868D01*
X137748360Y-40060428D01*
X137767857Y-40055653D01*
X137785651Y-40050331D01*
X137802523Y-40044246D01*
X137819255Y-40037184D01*
X137836628Y-40028933D01*
X137838752Y-40027873D01*
X137877076Y-40006252D01*
X137914659Y-39980307D01*
X137950869Y-39950553D01*
X137985073Y-39917502D01*
X138012363Y-39886880D01*
X138025019Y-39871635D01*
X138025019Y-39879987D01*
X138025712Y-39890188D01*
X138027625Y-39903800D01*
X138030512Y-39919624D01*
X138034127Y-39936462D01*
X138038222Y-39953114D01*
X138042550Y-39968381D01*
X138044405Y-39974173D01*
X138060445Y-40014904D01*
X138080322Y-40052716D01*
X138103978Y-40087558D01*
X138131350Y-40119374D01*
X138162380Y-40148111D01*
X138197006Y-40173717D01*
X138235168Y-40196137D01*
X138276805Y-40215319D01*
X138321857Y-40231209D01*
X138341914Y-40236923D01*
X138377741Y-40245339D01*
X138414615Y-40251721D01*
X138453407Y-40256166D01*
X138494988Y-40258775D01*
X138540228Y-40259646D01*
X138541486Y-40259647D01*
X138576578Y-40259229D01*
X138610663Y-40257929D01*
X138644533Y-40255658D01*
X138678982Y-40252326D01*
X138714803Y-40247845D01*
X138752790Y-40242126D01*
X138793735Y-40235080D01*
X138838433Y-40226618D01*
X138841448Y-40226025D01*
X138926094Y-40207934D01*
X139008037Y-40187615D01*
X139087112Y-40165142D01*
X139163153Y-40140591D01*
X139235995Y-40114036D01*
X139305474Y-40085553D01*
X139371424Y-40055216D01*
X139433680Y-40023101D01*
X139492077Y-39989282D01*
X139546450Y-39953834D01*
X139596633Y-39916833D01*
X139642462Y-39878352D01*
X139674810Y-39847632D01*
X139685875Y-39836214D01*
X139697189Y-39824029D01*
X139707638Y-39812311D01*
X139716104Y-39802294D01*
X139718352Y-39799469D01*
X139725273Y-39790594D01*
X139731408Y-39782754D01*
X139735943Y-39776989D01*
X139737705Y-39774775D01*
X139739587Y-39772749D01*
X139741870Y-39771686D01*
X139745577Y-39771591D01*
X139751727Y-39772470D01*
X139761345Y-39774329D01*
X139764314Y-39774929D01*
X139835473Y-39786886D01*
X139907069Y-39794051D01*
X139979224Y-39796432D01*
X140052057Y-39794035D01*
X140063067Y-39793262D01*
X140120880Y-39788415D01*
X140183159Y-39782221D01*
X140249730Y-39774710D01*
X140320420Y-39765912D01*
X140395056Y-39755858D01*
X140473464Y-39744576D01*
X140555473Y-39732097D01*
X140640908Y-39718450D01*
X140729598Y-39703667D01*
X140821368Y-39687776D01*
X140916045Y-39670808D01*
X141013458Y-39652792D01*
X141113432Y-39633758D01*
X141215795Y-39613737D01*
X141320373Y-39592759D01*
X141426995Y-39570852D01*
X141535485Y-39548048D01*
X141645672Y-39524376D01*
X141750352Y-39501423D01*
X141780862Y-39494666D01*
X141807069Y-39488983D01*
X141829406Y-39484466D01*
X141848307Y-39481208D01*
X141864208Y-39479300D01*
X141877541Y-39478835D01*
X141888740Y-39479905D01*
X141898240Y-39482603D01*
X141906475Y-39487020D01*
X141913879Y-39493249D01*
X141920886Y-39501382D01*
X141927929Y-39511511D01*
X141935443Y-39523729D01*
X141943862Y-39538128D01*
X141946797Y-39543174D01*
X141972352Y-39588278D01*
X141996306Y-39633021D01*
X142018386Y-39676833D01*
X142038323Y-39719142D01*
X142055844Y-39759379D01*
X142070680Y-39796973D01*
X142080187Y-39824018D01*
X142090789Y-39859958D01*
X142098137Y-39893498D01*
X142102251Y-39924481D01*
X142103150Y-39952750D01*
X142100853Y-39978150D01*
X142095378Y-40000523D01*
X142086744Y-40019713D01*
X142074969Y-40035563D01*
X142060074Y-40047917D01*
X142052857Y-40052043D01*
X142045908Y-40055306D01*
X142038331Y-40058302D01*
X142029879Y-40061051D01*
X142020307Y-40063572D01*
X142009372Y-40065884D01*
X141996826Y-40068007D01*
X141982427Y-40069960D01*
X141965927Y-40071761D01*
X141947084Y-40073431D01*
X141925650Y-40074989D01*
X141901383Y-40076454D01*
X141874035Y-40077845D01*
X141843363Y-40079181D01*
X141809121Y-40080483D01*
X141771065Y-40081769D01*
X141728949Y-40083058D01*
X141682529Y-40084370D01*
X141631558Y-40085724D01*
X141622143Y-40085967D01*
X141538433Y-40088256D01*
X141459179Y-40090711D01*
X141383999Y-40093352D01*
X141312513Y-40096202D01*
X141244340Y-40099281D01*
X141179099Y-40102609D01*
X141116411Y-40106209D01*
X141055893Y-40110101D01*
X140997165Y-40114306D01*
X140939847Y-40118846D01*
X140883558Y-40123740D01*
X140827917Y-40129011D01*
X140809343Y-40130866D01*
X140721092Y-40140350D01*
X140635744Y-40150702D01*
X140552787Y-40162038D01*
X140471707Y-40174474D01*
X140391991Y-40188127D01*
X140313125Y-40203112D01*
X140234598Y-40219546D01*
X140155894Y-40237545D01*
X140076502Y-40257225D01*
X139995908Y-40278703D01*
X139913599Y-40302095D01*
X139829062Y-40327516D01*
X139741783Y-40355083D01*
X139651249Y-40384912D01*
X139579257Y-40409406D01*
X139545067Y-40421412D01*
X139512474Y-40433361D01*
X139481018Y-40445474D01*
X139450241Y-40457971D01*
X139419683Y-40471070D01*
X139388886Y-40484991D01*
X139357390Y-40499955D01*
X139324736Y-40516180D01*
X139290466Y-40533887D01*
X139254120Y-40553295D01*
X139215239Y-40574623D01*
X139173365Y-40598092D01*
X139128038Y-40623920D01*
X139113590Y-40632224D01*
X139073393Y-40655353D01*
X139037070Y-40676218D01*
X139004315Y-40694989D01*
X138974820Y-40711834D01*
X138948279Y-40726923D01*
X138924386Y-40740425D01*
X138902832Y-40752510D01*
X138883311Y-40763347D01*
X138865516Y-40773105D01*
X138849140Y-40781953D01*
X138833876Y-40790061D01*
X138819417Y-40797598D01*
X138805457Y-40804734D01*
X138791687Y-40811637D01*
X138777802Y-40818478D01*
X138763494Y-40825425D01*
X138762239Y-40826031D01*
X138715995Y-40847588D01*
X138672371Y-40866276D01*
X138630428Y-40882365D01*
X138589223Y-40896123D01*
X138547818Y-40907819D01*
X138505270Y-40917722D01*
X138460639Y-40926101D01*
X138412985Y-40933226D01*
X138368524Y-40938592D01*
X138340419Y-40941170D01*
X138308913Y-40943200D01*
X138275417Y-40944643D01*
X138241340Y-40945463D01*
X138208094Y-40945622D01*
X138177088Y-40945082D01*
X138156857Y-40944234D01*
X138102311Y-40939679D01*
X138047141Y-40932053D01*
X137992162Y-40921561D01*
X137938189Y-40908409D01*
X137886036Y-40892801D01*
X137836518Y-40874941D01*
X137790451Y-40855036D01*
X137778034Y-40849000D01*
X137722505Y-40818655D01*
X137668181Y-40783709D01*
X137615159Y-40744270D01*
X137563534Y-40700446D01*
X137513402Y-40652345D01*
X137464859Y-40600076D01*
X137418001Y-40543746D01*
X137372924Y-40483465D01*
X137329723Y-40419339D01*
X137288495Y-40351477D01*
X137249335Y-40279987D01*
X137218415Y-40217852D01*
X137205840Y-40190482D01*
X137193757Y-40162118D01*
X137181818Y-40131873D01*
X137169676Y-40098861D01*
X137156984Y-40062197D01*
X137154005Y-40053315D01*
X137148746Y-40037237D01*
X137143189Y-40019690D01*
X137137577Y-40001490D01*
X137132149Y-39983456D01*
X137127149Y-39966405D01*
X137122818Y-39951156D01*
X137119397Y-39938525D01*
X137117129Y-39929330D01*
X137116573Y-39926669D01*
X137115086Y-39918741D01*
X136974779Y-39862122D01*
X136950107Y-39852148D01*
X136926788Y-39842687D01*
X136905205Y-39833897D01*
X136885741Y-39825934D01*
X136868781Y-39818958D01*
X136854707Y-39813125D01*
X136843904Y-39808595D01*
X136836754Y-39805524D01*
X136833641Y-39804070D01*
X136833539Y-39803993D01*
X136835144Y-39802176D01*
X136840082Y-39797406D01*
X136848071Y-39789941D01*
X136858825Y-39780039D01*
X136872061Y-39767960D01*
X136887494Y-39753962D01*
X136904841Y-39738303D01*
X136923816Y-39721243D01*
X136944137Y-39703039D01*
X136961539Y-39687499D01*
X136986236Y-39665467D01*
X137007571Y-39646409D01*
X137025798Y-39630080D01*
X137041170Y-39616239D01*
X137053940Y-39604642D01*
X137064361Y-39595046D01*
X137072686Y-39587209D01*
X137079169Y-39580887D01*
X137084062Y-39575839D01*
X137087619Y-39571820D01*
X137090092Y-39568588D01*
X137091736Y-39565901D01*
X137092802Y-39563515D01*
X137093545Y-39561187D01*
X137093671Y-39560730D01*
X137098066Y-39546639D01*
X137104307Y-39529530D01*
X137111899Y-39510617D01*
X137120342Y-39491114D01*
X137129141Y-39472235D01*
X137133663Y-39463123D01*
X137155913Y-39423208D01*
X137181441Y-39384722D01*
X137210714Y-39347028D01*
X137244199Y-39309488D01*
X137253212Y-39300125D01*
X137291275Y-39263413D01*
X137330552Y-39230167D01*
X137371870Y-39199793D01*
X137416052Y-39171696D01*
X137463924Y-39145283D01*
X137478314Y-39138002D01*
X137524980Y-39116147D01*
X137571618Y-39097060D01*
X137619071Y-39080485D01*
X137668182Y-39066166D01*
X137719792Y-39053846D01*
X137774745Y-39043269D01*
X137806609Y-39038116D01*
X137820211Y-39036114D01*
X137832093Y-39034560D01*
X137843213Y-39033397D01*
X137854528Y-39032566D01*
X137866995Y-39032011D01*
X137881570Y-39031672D01*
X137899211Y-39031493D01*
X137917371Y-39031423D01*
X137942890Y-39031476D01*
X137942890Y-39031476D01*
G37*
X137942890Y-39031476D02*
X137964607Y-39031821D01*
X137983555Y-39032540D01*
X138000765Y-39033719D01*
X138017270Y-39035441D01*
X138034101Y-39037790D01*
X138052292Y-39040850D01*
X138067352Y-39043645D01*
X138107711Y-39052396D01*
X138149606Y-39063414D01*
X138191059Y-39076125D01*
X138230093Y-39089957D01*
X138237895Y-39092990D01*
X138267503Y-39104780D01*
X138296560Y-39116531D01*
X138325332Y-39128368D01*
X138354083Y-39140414D01*
X138383081Y-39152793D01*
X138412591Y-39165628D01*
X138442879Y-39179043D01*
X138474210Y-39193162D01*
X138506851Y-39208109D01*
X138541067Y-39224008D01*
X138577124Y-39240981D01*
X138615288Y-39259153D01*
X138655824Y-39278648D01*
X138698999Y-39299589D01*
X138745078Y-39322100D01*
X138794327Y-39346305D01*
X138847013Y-39372327D01*
X138903399Y-39400290D01*
X138963754Y-39430318D01*
X138979333Y-39438083D01*
X139031341Y-39463963D01*
X139079400Y-39487774D01*
X139123855Y-39509675D01*
X139165050Y-39529825D01*
X139203331Y-39548383D01*
X139239043Y-39565509D01*
X139272531Y-39581361D01*
X139304140Y-39596099D01*
X139334214Y-39609882D01*
X139363099Y-39622869D01*
X139391140Y-39635221D01*
X139418682Y-39647095D01*
X139446069Y-39658651D01*
X139473648Y-39670048D01*
X139501761Y-39681446D01*
X139530756Y-39693004D01*
X139536784Y-39695386D01*
X139554241Y-39702341D01*
X139570202Y-39708833D01*
X139584121Y-39714627D01*
X139595450Y-39719492D01*
X139603645Y-39723195D01*
X139608158Y-39725503D01*
X139608869Y-39726075D01*
X139607563Y-39728832D01*
X139603180Y-39734251D01*
X139596270Y-39741795D01*
X139587385Y-39750924D01*
X139577075Y-39761099D01*
X139565890Y-39771782D01*
X139554380Y-39782433D01*
X139543096Y-39792515D01*
X139532588Y-39801487D01*
X139528204Y-39805062D01*
X139477211Y-39843188D01*
X139421855Y-39879379D01*
X139362225Y-39913598D01*
X139298406Y-39945810D01*
X139230487Y-39975978D01*
X139158555Y-40004066D01*
X139082696Y-40030040D01*
X139002998Y-40053862D01*
X138919549Y-40075496D01*
X138832435Y-40094907D01*
X138818467Y-40097744D01*
X138758669Y-40108927D01*
X138702688Y-40117711D01*
X138650154Y-40124122D01*
X138600698Y-40128187D01*
X138553950Y-40129931D01*
X138509542Y-40129382D01*
X138467103Y-40126567D01*
X138447375Y-40124425D01*
X138402479Y-40117163D01*
X138361093Y-40106835D01*
X138323274Y-40093475D01*
X138289079Y-40077116D01*
X138258565Y-40057792D01*
X138231788Y-40035535D01*
X138208805Y-40010379D01*
X138189673Y-39982357D01*
X138182520Y-39969186D01*
X138173869Y-39950070D01*
X138166870Y-39929992D01*
X138161258Y-39907947D01*
X138156770Y-39882928D01*
X138153778Y-39859810D01*
X138152017Y-39844104D01*
X138104847Y-39839992D01*
X138090104Y-39838714D01*
X138076916Y-39837583D01*
X138066079Y-39836667D01*
X138058388Y-39836033D01*
X138054639Y-39835747D01*
X138054510Y-39835741D01*
X138052469Y-39834313D01*
X138052773Y-39833286D01*
X138051528Y-39832251D01*
X138046914Y-39831987D01*
X138040321Y-39832379D01*
X138033137Y-39833312D01*
X138026751Y-39834672D01*
X138023810Y-39835675D01*
X138020033Y-39836715D01*
X138012280Y-39838402D01*
X138001345Y-39840577D01*
X137988022Y-39843085D01*
X137973107Y-39845768D01*
X137969381Y-39846420D01*
X137913505Y-39855682D01*
X137860420Y-39863481D01*
X137808382Y-39870048D01*
X137755652Y-39875618D01*
X137739571Y-39877116D01*
X137724191Y-39878209D01*
X137705536Y-39879055D01*
X137684533Y-39879653D01*
X137662109Y-39880003D01*
X137639192Y-39880105D01*
X137616706Y-39879958D01*
X137595581Y-39879562D01*
X137576741Y-39878917D01*
X137561114Y-39878022D01*
X137552095Y-39877190D01*
X137502156Y-39870570D01*
X137453568Y-39862418D01*
X137405046Y-39852468D01*
X137355304Y-39840450D01*
X137303055Y-39826096D01*
X137292445Y-39822996D01*
X137276948Y-39818341D01*
X137265529Y-39814674D01*
X137257586Y-39811756D01*
X137252514Y-39809346D01*
X137249714Y-39807204D01*
X137248722Y-39805578D01*
X137248066Y-39802072D01*
X137246989Y-39794328D01*
X137245557Y-39782920D01*
X137243841Y-39768422D01*
X137241906Y-39751409D01*
X137239823Y-39732456D01*
X137237704Y-39712582D01*
X137235241Y-39688806D01*
X137233316Y-39669429D01*
X137231901Y-39654043D01*
X137230968Y-39642244D01*
X137230489Y-39633623D01*
X137230436Y-39627776D01*
X137230783Y-39624294D01*
X137231500Y-39622773D01*
X137231565Y-39622728D01*
X137235819Y-39621159D01*
X137242571Y-39619623D01*
X137244605Y-39619280D01*
X137252317Y-39617889D01*
X137264009Y-39615518D01*
X137278961Y-39612332D01*
X137296451Y-39608495D01*
X137315760Y-39604171D01*
X137336165Y-39599523D01*
X137356946Y-39594716D01*
X137377383Y-39589914D01*
X137396754Y-39585280D01*
X137414339Y-39580979D01*
X137427514Y-39577664D01*
X137497888Y-39558903D01*
X137563710Y-39539815D01*
X137625260Y-39520305D01*
X137682819Y-39500280D01*
X137736666Y-39479646D01*
X137787082Y-39458309D01*
X137795210Y-39454661D01*
X137843672Y-39431036D01*
X137893023Y-39403787D01*
X137942083Y-39373663D01*
X137989673Y-39341417D01*
X138034616Y-39307797D01*
X138064933Y-39282939D01*
X138077045Y-39272405D01*
X138089616Y-39261151D01*
X138102155Y-39249653D01*
X138114170Y-39238384D01*
X138125171Y-39227818D01*
X138134665Y-39218429D01*
X138142161Y-39210691D01*
X138147168Y-39205077D01*
X138149194Y-39202062D01*
X138149151Y-39201738D01*
X138145610Y-39199991D01*
X138138091Y-39197332D01*
X138127321Y-39193973D01*
X138114025Y-39190129D01*
X138098931Y-39186015D01*
X138082765Y-39181845D01*
X138075819Y-39180125D01*
X138027885Y-39170245D01*
X137979747Y-39164066D01*
X137930937Y-39161600D01*
X137880987Y-39162860D01*
X137829427Y-39167857D01*
X137775790Y-39176605D01*
X137719605Y-39189115D01*
X137718269Y-39189449D01*
X137661150Y-39205728D01*
X137606384Y-39225221D01*
X137554173Y-39247771D01*
X137504722Y-39273220D01*
X137458232Y-39301411D01*
X137414907Y-39332186D01*
X137374950Y-39365388D01*
X137338562Y-39400858D01*
X137305948Y-39438440D01*
X137277311Y-39477977D01*
X137252852Y-39519309D01*
X137232775Y-39562281D01*
X137230373Y-39568296D01*
X137222804Y-39587648D01*
X137121354Y-39684202D01*
X137102831Y-39701846D01*
X137085380Y-39718497D01*
X137069311Y-39733857D01*
X137054936Y-39747627D01*
X137042566Y-39759508D01*
X137032512Y-39769202D01*
X137025085Y-39776409D01*
X137020596Y-39780832D01*
X137019324Y-39782174D01*
X137021351Y-39783404D01*
X137027387Y-39786401D01*
X137037016Y-39790971D01*
X137049824Y-39796924D01*
X137065395Y-39804069D01*
X137083314Y-39812213D01*
X137103164Y-39821165D01*
X137124531Y-39830735D01*
X137129640Y-39833013D01*
X137240536Y-39882436D01*
X137252083Y-39923728D01*
X137257641Y-39942900D01*
X137264390Y-39965059D01*
X137271912Y-39988919D01*
X137279791Y-40013195D01*
X137287611Y-40036602D01*
X137294953Y-40057855D01*
X137301122Y-40074919D01*
X137304858Y-40084304D01*
X137307957Y-40090115D01*
X137311150Y-40093417D01*
X137315055Y-40095241D01*
X137320062Y-40096040D01*
X137329196Y-40096683D01*
X137341750Y-40097172D01*
X137357014Y-40097507D01*
X137374280Y-40097690D01*
X137392842Y-40097724D01*
X137411989Y-40097608D01*
X137431014Y-40097345D01*
X137449209Y-40096937D01*
X137465866Y-40096384D01*
X137480276Y-40095689D01*
X137491619Y-40094863D01*
X137603351Y-40082774D01*
X137671838Y-40073603D01*
X137701132Y-40069189D01*
X137726379Y-40064868D01*
X137748360Y-40060428D01*
X137767857Y-40055653D01*
X137785651Y-40050331D01*
X137802523Y-40044246D01*
X137819255Y-40037184D01*
X137836628Y-40028933D01*
X137838752Y-40027873D01*
X137877076Y-40006252D01*
X137914659Y-39980307D01*
X137950869Y-39950553D01*
X137985073Y-39917502D01*
X138012363Y-39886880D01*
X138025019Y-39871635D01*
X138025019Y-39879987D01*
X138025712Y-39890188D01*
X138027625Y-39903800D01*
X138030512Y-39919624D01*
X138034127Y-39936462D01*
X138038222Y-39953114D01*
X138042550Y-39968381D01*
X138044405Y-39974173D01*
X138060445Y-40014904D01*
X138080322Y-40052716D01*
X138103978Y-40087558D01*
X138131350Y-40119374D01*
X138162380Y-40148111D01*
X138197006Y-40173717D01*
X138235168Y-40196137D01*
X138276805Y-40215319D01*
X138321857Y-40231209D01*
X138341914Y-40236923D01*
X138377741Y-40245339D01*
X138414615Y-40251721D01*
X138453407Y-40256166D01*
X138494988Y-40258775D01*
X138540228Y-40259646D01*
X138541486Y-40259647D01*
X138576578Y-40259229D01*
X138610663Y-40257929D01*
X138644533Y-40255658D01*
X138678982Y-40252326D01*
X138714803Y-40247845D01*
X138752790Y-40242126D01*
X138793735Y-40235080D01*
X138838433Y-40226618D01*
X138841448Y-40226025D01*
X138926094Y-40207934D01*
X139008037Y-40187615D01*
X139087112Y-40165142D01*
X139163153Y-40140591D01*
X139235995Y-40114036D01*
X139305474Y-40085553D01*
X139371424Y-40055216D01*
X139433680Y-40023101D01*
X139492077Y-39989282D01*
X139546450Y-39953834D01*
X139596633Y-39916833D01*
X139642462Y-39878352D01*
X139674810Y-39847632D01*
X139685875Y-39836214D01*
X139697189Y-39824029D01*
X139707638Y-39812311D01*
X139716104Y-39802294D01*
X139718352Y-39799469D01*
X139725273Y-39790594D01*
X139731408Y-39782754D01*
X139735943Y-39776989D01*
X139737705Y-39774775D01*
X139739587Y-39772749D01*
X139741870Y-39771686D01*
X139745577Y-39771591D01*
X139751727Y-39772470D01*
X139761345Y-39774329D01*
X139764314Y-39774929D01*
X139835473Y-39786886D01*
X139907069Y-39794051D01*
X139979224Y-39796432D01*
X140052057Y-39794035D01*
X140063067Y-39793262D01*
X140120880Y-39788415D01*
X140183159Y-39782221D01*
X140249730Y-39774710D01*
X140320420Y-39765912D01*
X140395056Y-39755858D01*
X140473464Y-39744576D01*
X140555473Y-39732097D01*
X140640908Y-39718450D01*
X140729598Y-39703667D01*
X140821368Y-39687776D01*
X140916045Y-39670808D01*
X141013458Y-39652792D01*
X141113432Y-39633758D01*
X141215795Y-39613737D01*
X141320373Y-39592759D01*
X141426995Y-39570852D01*
X141535485Y-39548048D01*
X141645672Y-39524376D01*
X141750352Y-39501423D01*
X141780862Y-39494666D01*
X141807069Y-39488983D01*
X141829406Y-39484466D01*
X141848307Y-39481208D01*
X141864208Y-39479300D01*
X141877541Y-39478835D01*
X141888740Y-39479905D01*
X141898240Y-39482603D01*
X141906475Y-39487020D01*
X141913879Y-39493249D01*
X141920886Y-39501382D01*
X141927929Y-39511511D01*
X141935443Y-39523729D01*
X141943862Y-39538128D01*
X141946797Y-39543174D01*
X141972352Y-39588278D01*
X141996306Y-39633021D01*
X142018386Y-39676833D01*
X142038323Y-39719142D01*
X142055844Y-39759379D01*
X142070680Y-39796973D01*
X142080187Y-39824018D01*
X142090789Y-39859958D01*
X142098137Y-39893498D01*
X142102251Y-39924481D01*
X142103150Y-39952750D01*
X142100853Y-39978150D01*
X142095378Y-40000523D01*
X142086744Y-40019713D01*
X142074969Y-40035563D01*
X142060074Y-40047917D01*
X142052857Y-40052043D01*
X142045908Y-40055306D01*
X142038331Y-40058302D01*
X142029879Y-40061051D01*
X142020307Y-40063572D01*
X142009372Y-40065884D01*
X141996826Y-40068007D01*
X141982427Y-40069960D01*
X141965927Y-40071761D01*
X141947084Y-40073431D01*
X141925650Y-40074989D01*
X141901383Y-40076454D01*
X141874035Y-40077845D01*
X141843363Y-40079181D01*
X141809121Y-40080483D01*
X141771065Y-40081769D01*
X141728949Y-40083058D01*
X141682529Y-40084370D01*
X141631558Y-40085724D01*
X141622143Y-40085967D01*
X141538433Y-40088256D01*
X141459179Y-40090711D01*
X141383999Y-40093352D01*
X141312513Y-40096202D01*
X141244340Y-40099281D01*
X141179099Y-40102609D01*
X141116411Y-40106209D01*
X141055893Y-40110101D01*
X140997165Y-40114306D01*
X140939847Y-40118846D01*
X140883558Y-40123740D01*
X140827917Y-40129011D01*
X140809343Y-40130866D01*
X140721092Y-40140350D01*
X140635744Y-40150702D01*
X140552787Y-40162038D01*
X140471707Y-40174474D01*
X140391991Y-40188127D01*
X140313125Y-40203112D01*
X140234598Y-40219546D01*
X140155894Y-40237545D01*
X140076502Y-40257225D01*
X139995908Y-40278703D01*
X139913599Y-40302095D01*
X139829062Y-40327516D01*
X139741783Y-40355083D01*
X139651249Y-40384912D01*
X139579257Y-40409406D01*
X139545067Y-40421412D01*
X139512474Y-40433361D01*
X139481018Y-40445474D01*
X139450241Y-40457971D01*
X139419683Y-40471070D01*
X139388886Y-40484991D01*
X139357390Y-40499955D01*
X139324736Y-40516180D01*
X139290466Y-40533887D01*
X139254120Y-40553295D01*
X139215239Y-40574623D01*
X139173365Y-40598092D01*
X139128038Y-40623920D01*
X139113590Y-40632224D01*
X139073393Y-40655353D01*
X139037070Y-40676218D01*
X139004315Y-40694989D01*
X138974820Y-40711834D01*
X138948279Y-40726923D01*
X138924386Y-40740425D01*
X138902832Y-40752510D01*
X138883311Y-40763347D01*
X138865516Y-40773105D01*
X138849140Y-40781953D01*
X138833876Y-40790061D01*
X138819417Y-40797598D01*
X138805457Y-40804734D01*
X138791687Y-40811637D01*
X138777802Y-40818478D01*
X138763494Y-40825425D01*
X138762239Y-40826031D01*
X138715995Y-40847588D01*
X138672371Y-40866276D01*
X138630428Y-40882365D01*
X138589223Y-40896123D01*
X138547818Y-40907819D01*
X138505270Y-40917722D01*
X138460639Y-40926101D01*
X138412985Y-40933226D01*
X138368524Y-40938592D01*
X138340419Y-40941170D01*
X138308913Y-40943200D01*
X138275417Y-40944643D01*
X138241340Y-40945463D01*
X138208094Y-40945622D01*
X138177088Y-40945082D01*
X138156857Y-40944234D01*
X138102311Y-40939679D01*
X138047141Y-40932053D01*
X137992162Y-40921561D01*
X137938189Y-40908409D01*
X137886036Y-40892801D01*
X137836518Y-40874941D01*
X137790451Y-40855036D01*
X137778034Y-40849000D01*
X137722505Y-40818655D01*
X137668181Y-40783709D01*
X137615159Y-40744270D01*
X137563534Y-40700446D01*
X137513402Y-40652345D01*
X137464859Y-40600076D01*
X137418001Y-40543746D01*
X137372924Y-40483465D01*
X137329723Y-40419339D01*
X137288495Y-40351477D01*
X137249335Y-40279987D01*
X137218415Y-40217852D01*
X137205840Y-40190482D01*
X137193757Y-40162118D01*
X137181818Y-40131873D01*
X137169676Y-40098861D01*
X137156984Y-40062197D01*
X137154005Y-40053315D01*
X137148746Y-40037237D01*
X137143189Y-40019690D01*
X137137577Y-40001490D01*
X137132149Y-39983456D01*
X137127149Y-39966405D01*
X137122818Y-39951156D01*
X137119397Y-39938525D01*
X137117129Y-39929330D01*
X137116573Y-39926669D01*
X137115086Y-39918741D01*
X136974779Y-39862122D01*
X136950107Y-39852148D01*
X136926788Y-39842687D01*
X136905205Y-39833897D01*
X136885741Y-39825934D01*
X136868781Y-39818958D01*
X136854707Y-39813125D01*
X136843904Y-39808595D01*
X136836754Y-39805524D01*
X136833641Y-39804070D01*
X136833539Y-39803993D01*
X136835144Y-39802176D01*
X136840082Y-39797406D01*
X136848071Y-39789941D01*
X136858825Y-39780039D01*
X136872061Y-39767960D01*
X136887494Y-39753962D01*
X136904841Y-39738303D01*
X136923816Y-39721243D01*
X136944137Y-39703039D01*
X136961539Y-39687499D01*
X136986236Y-39665467D01*
X137007571Y-39646409D01*
X137025798Y-39630080D01*
X137041170Y-39616239D01*
X137053940Y-39604642D01*
X137064361Y-39595046D01*
X137072686Y-39587209D01*
X137079169Y-39580887D01*
X137084062Y-39575839D01*
X137087619Y-39571820D01*
X137090092Y-39568588D01*
X137091736Y-39565901D01*
X137092802Y-39563515D01*
X137093545Y-39561187D01*
X137093671Y-39560730D01*
X137098066Y-39546639D01*
X137104307Y-39529530D01*
X137111899Y-39510617D01*
X137120342Y-39491114D01*
X137129141Y-39472235D01*
X137133663Y-39463123D01*
X137155913Y-39423208D01*
X137181441Y-39384722D01*
X137210714Y-39347028D01*
X137244199Y-39309488D01*
X137253212Y-39300125D01*
X137291275Y-39263413D01*
X137330552Y-39230167D01*
X137371870Y-39199793D01*
X137416052Y-39171696D01*
X137463924Y-39145283D01*
X137478314Y-39138002D01*
X137524980Y-39116147D01*
X137571618Y-39097060D01*
X137619071Y-39080485D01*
X137668182Y-39066166D01*
X137719792Y-39053846D01*
X137774745Y-39043269D01*
X137806609Y-39038116D01*
X137820211Y-39036114D01*
X137832093Y-39034560D01*
X137843213Y-39033397D01*
X137854528Y-39032566D01*
X137866995Y-39032011D01*
X137881570Y-39031672D01*
X137899211Y-39031493D01*
X137917371Y-39031423D01*
X137942890Y-39031476D01*
D11*
X133266000Y-39878000D03*
X135466000Y-39878000D03*
X135466000Y-41656000D03*
X133266000Y-41656000D03*
X138768000Y-61214000D03*
X136568000Y-61214000D03*
X101473000Y-72391000D03*
X101473000Y-75691000D03*
D12*
X126618000Y-47244000D03*
X123318000Y-47244000D03*
D13*
X128250000Y-42201000D03*
X121050000Y-42201000D03*
D14*
X125950000Y-42426000D03*
X125300000Y-42426000D03*
X124650000Y-42426000D03*
X124000000Y-42426000D03*
X123350000Y-42426000D03*
D15*
X125850000Y-39751000D03*
X123450000Y-39751000D03*
D16*
X128450000Y-39751000D03*
X120850000Y-39751000D03*
D17*
X106807000Y-65598000D03*
X106807000Y-67498000D03*
D18*
X120740249Y-79792751D03*
D19*
G36*
X120581150Y-80482180D02*
X120050820Y-79951850D01*
X120899348Y-79103322D01*
X121429678Y-79633652D01*
X120581150Y-80482180D01*
X120581150Y-80482180D01*
G37*
D18*
X122083751Y-78449249D03*
D19*
G36*
X121924652Y-79138678D02*
X121394322Y-78608348D01*
X122242850Y-77759820D01*
X122773180Y-78290150D01*
X121924652Y-79138678D01*
X121924652Y-79138678D01*
G37*
D20*
X112837000Y-77724000D03*
X110937000Y-77724000D03*
X104455000Y-69977000D03*
X102555000Y-69977000D03*
D17*
X131572000Y-81087000D03*
X131572000Y-79187000D03*
D20*
X136591000Y-59563000D03*
X138491000Y-59563000D03*
X140655000Y-59563000D03*
X142555000Y-59563000D03*
D18*
X127798751Y-58129249D03*
D19*
G36*
X127957850Y-57439820D02*
X128488180Y-57970150D01*
X127639652Y-58818678D01*
X127109322Y-58288348D01*
X127957850Y-57439820D01*
X127957850Y-57439820D01*
G37*
D18*
X126455249Y-59472751D03*
D19*
G36*
X126614348Y-58783322D02*
X127144678Y-59313652D01*
X126296150Y-60162180D01*
X125765820Y-59631850D01*
X126614348Y-58783322D01*
X126614348Y-58783322D01*
G37*
D18*
X132932249Y-65241249D03*
D19*
G36*
X133621678Y-65400348D02*
X133091348Y-65930678D01*
X132242820Y-65082150D01*
X132773150Y-64551820D01*
X133621678Y-65400348D01*
X133621678Y-65400348D01*
G37*
D18*
X134275751Y-66584751D03*
D19*
G36*
X134965180Y-66743850D02*
X134434850Y-67274180D01*
X133586322Y-66425652D01*
X134116652Y-65895322D01*
X134965180Y-66743850D01*
X134965180Y-66743850D01*
G37*
D18*
X127217249Y-76236751D03*
D19*
G36*
X127058150Y-76926180D02*
X126527820Y-76395850D01*
X127376348Y-75547322D01*
X127906678Y-76077652D01*
X127058150Y-76926180D01*
X127058150Y-76926180D01*
G37*
D18*
X128560751Y-74893249D03*
D19*
G36*
X128401652Y-75582678D02*
X127871322Y-75052348D01*
X128719850Y-74203820D01*
X129250180Y-74734150D01*
X128401652Y-75582678D01*
X128401652Y-75582678D01*
G37*
D18*
X118908751Y-73369249D03*
D19*
G36*
X118749652Y-74058678D02*
X118219322Y-73528348D01*
X119067850Y-72679820D01*
X119598180Y-73210150D01*
X118749652Y-74058678D01*
X118749652Y-74058678D01*
G37*
D18*
X117565249Y-74712751D03*
D19*
G36*
X117406150Y-75402180D02*
X116875820Y-74871850D01*
X117724348Y-74023322D01*
X118254678Y-74553652D01*
X117406150Y-75402180D01*
X117406150Y-75402180D01*
G37*
D18*
X119289751Y-60488751D03*
D19*
G36*
X119979180Y-60647850D02*
X119448850Y-61178180D01*
X118600322Y-60329652D01*
X119130652Y-59799322D01*
X119979180Y-60647850D01*
X119979180Y-60647850D01*
G37*
D18*
X117946249Y-59145249D03*
D19*
G36*
X118635678Y-59304348D02*
X118105348Y-59834678D01*
X117256820Y-58986150D01*
X117787150Y-58455820D01*
X118635678Y-59304348D01*
X118635678Y-59304348D01*
G37*
D18*
X118273751Y-61631751D03*
D19*
G36*
X117584322Y-61472652D02*
X118114652Y-60942322D01*
X118963180Y-61790850D01*
X118432850Y-62321180D01*
X117584322Y-61472652D01*
X117584322Y-61472652D01*
G37*
D18*
X116930249Y-60288249D03*
D19*
G36*
X116240820Y-60129150D02*
X116771150Y-59598820D01*
X117619678Y-60447348D01*
X117089348Y-60977678D01*
X116240820Y-60129150D01*
X116240820Y-60129150D01*
G37*
D21*
X110236000Y-41484000D03*
X110236000Y-45384000D03*
X108966000Y-41484000D03*
X108966000Y-45384000D03*
X107696000Y-41484000D03*
X107696000Y-45384000D03*
X106426000Y-41484000D03*
X106426000Y-45384000D03*
X105156000Y-41484000D03*
X105156000Y-45384000D03*
D12*
X137287000Y-64432000D03*
X137287000Y-66632000D03*
D22*
X120665817Y-59578817D03*
D19*
G36*
X119923355Y-59472751D02*
X120559751Y-58836355D01*
X121408279Y-59684883D01*
X120771883Y-60321279D01*
X119923355Y-59472751D01*
X119923355Y-59472751D01*
G37*
D22*
X119110183Y-58023183D03*
D19*
G36*
X118367721Y-57917117D02*
X119004117Y-57280721D01*
X119852645Y-58129249D01*
X119216249Y-58765645D01*
X118367721Y-57917117D01*
X118367721Y-57917117D01*
G37*
D23*
X136271000Y-70723000D03*
X135321000Y-68723000D03*
X137221000Y-68723000D03*
D24*
X104605000Y-65598000D03*
X104605000Y-67498000D03*
X102405000Y-67498000D03*
X102405000Y-66548000D03*
X102405000Y-65598000D03*
D25*
X124650000Y-82350000D03*
D26*
X124650000Y-57300000D03*
D27*
X118031841Y-66693142D03*
D19*
G36*
X118473783Y-66958307D02*
X118297006Y-67135084D01*
X117589899Y-66427977D01*
X117766676Y-66251200D01*
X118473783Y-66958307D01*
X118473783Y-66958307D01*
G37*
D27*
X118385394Y-66339588D03*
D19*
G36*
X118827336Y-66604753D02*
X118650559Y-66781530D01*
X117943452Y-66074423D01*
X118120229Y-65897646D01*
X118827336Y-66604753D01*
X118827336Y-66604753D01*
G37*
D27*
X118738948Y-65986035D03*
D19*
G36*
X119180890Y-66251200D02*
X119004113Y-66427977D01*
X118297006Y-65720870D01*
X118473783Y-65544093D01*
X119180890Y-66251200D01*
X119180890Y-66251200D01*
G37*
D27*
X119092501Y-65632482D03*
D19*
G36*
X119534443Y-65897647D02*
X119357666Y-66074424D01*
X118650559Y-65367317D01*
X118827336Y-65190540D01*
X119534443Y-65897647D01*
X119534443Y-65897647D01*
G37*
D27*
X119446054Y-65278928D03*
D19*
G36*
X119887996Y-65544093D02*
X119711219Y-65720870D01*
X119004112Y-65013763D01*
X119180889Y-64836986D01*
X119887996Y-65544093D01*
X119887996Y-65544093D01*
G37*
D27*
X119799608Y-64925375D03*
D19*
G36*
X120241550Y-65190540D02*
X120064773Y-65367317D01*
X119357666Y-64660210D01*
X119534443Y-64483433D01*
X120241550Y-65190540D01*
X120241550Y-65190540D01*
G37*
D27*
X120153161Y-64571821D03*
D19*
G36*
X120595103Y-64836986D02*
X120418326Y-65013763D01*
X119711219Y-64306656D01*
X119887996Y-64129879D01*
X120595103Y-64836986D01*
X120595103Y-64836986D01*
G37*
D27*
X120506715Y-64218268D03*
D19*
G36*
X120948657Y-64483433D02*
X120771880Y-64660210D01*
X120064773Y-63953103D01*
X120241550Y-63776326D01*
X120948657Y-64483433D01*
X120948657Y-64483433D01*
G37*
D27*
X120860268Y-63864715D03*
D19*
G36*
X121302210Y-64129880D02*
X121125433Y-64306657D01*
X120418326Y-63599550D01*
X120595103Y-63422773D01*
X121302210Y-64129880D01*
X121302210Y-64129880D01*
G37*
D27*
X121213821Y-63511161D03*
D19*
G36*
X121655763Y-63776326D02*
X121478986Y-63953103D01*
X120771879Y-63245996D01*
X120948656Y-63069219D01*
X121655763Y-63776326D01*
X121655763Y-63776326D01*
G37*
D27*
X121567375Y-63157608D03*
D19*
G36*
X122009317Y-63422773D02*
X121832540Y-63599550D01*
X121125433Y-62892443D01*
X121302210Y-62715666D01*
X122009317Y-63422773D01*
X122009317Y-63422773D01*
G37*
D27*
X121920928Y-62804054D03*
D19*
G36*
X122362870Y-63069219D02*
X122186093Y-63245996D01*
X121478986Y-62538889D01*
X121655763Y-62362112D01*
X122362870Y-63069219D01*
X122362870Y-63069219D01*
G37*
D27*
X122274482Y-62450501D03*
D19*
G36*
X122716424Y-62715666D02*
X122539647Y-62892443D01*
X121832540Y-62185336D01*
X122009317Y-62008559D01*
X122716424Y-62715666D01*
X122716424Y-62715666D01*
G37*
D27*
X122628035Y-62096948D03*
D19*
G36*
X123069977Y-62362113D02*
X122893200Y-62538890D01*
X122186093Y-61831783D01*
X122362870Y-61655006D01*
X123069977Y-62362113D01*
X123069977Y-62362113D01*
G37*
D27*
X122981588Y-61743394D03*
D19*
G36*
X123423530Y-62008559D02*
X123246753Y-62185336D01*
X122539646Y-61478229D01*
X122716423Y-61301452D01*
X123423530Y-62008559D01*
X123423530Y-62008559D01*
G37*
D27*
X123335142Y-61389841D03*
D19*
G36*
X123777084Y-61655006D02*
X123600307Y-61831783D01*
X122893200Y-61124676D01*
X123069977Y-60947899D01*
X123777084Y-61655006D01*
X123777084Y-61655006D01*
G37*
D27*
X126092858Y-61389841D03*
D19*
G36*
X125827693Y-61831783D02*
X125650916Y-61655006D01*
X126358023Y-60947899D01*
X126534800Y-61124676D01*
X125827693Y-61831783D01*
X125827693Y-61831783D01*
G37*
D27*
X126446412Y-61743394D03*
D19*
G36*
X126181247Y-62185336D02*
X126004470Y-62008559D01*
X126711577Y-61301452D01*
X126888354Y-61478229D01*
X126181247Y-62185336D01*
X126181247Y-62185336D01*
G37*
D27*
X126799965Y-62096948D03*
D19*
G36*
X126534800Y-62538890D02*
X126358023Y-62362113D01*
X127065130Y-61655006D01*
X127241907Y-61831783D01*
X126534800Y-62538890D01*
X126534800Y-62538890D01*
G37*
D27*
X127153518Y-62450501D03*
D19*
G36*
X126888353Y-62892443D02*
X126711576Y-62715666D01*
X127418683Y-62008559D01*
X127595460Y-62185336D01*
X126888353Y-62892443D01*
X126888353Y-62892443D01*
G37*
D27*
X127507072Y-62804054D03*
D19*
G36*
X127241907Y-63245996D02*
X127065130Y-63069219D01*
X127772237Y-62362112D01*
X127949014Y-62538889D01*
X127241907Y-63245996D01*
X127241907Y-63245996D01*
G37*
D27*
X127860625Y-63157608D03*
D19*
G36*
X127595460Y-63599550D02*
X127418683Y-63422773D01*
X128125790Y-62715666D01*
X128302567Y-62892443D01*
X127595460Y-63599550D01*
X127595460Y-63599550D01*
G37*
D27*
X128214179Y-63511161D03*
D19*
G36*
X127949014Y-63953103D02*
X127772237Y-63776326D01*
X128479344Y-63069219D01*
X128656121Y-63245996D01*
X127949014Y-63953103D01*
X127949014Y-63953103D01*
G37*
D27*
X128567732Y-63864715D03*
D19*
G36*
X128302567Y-64306657D02*
X128125790Y-64129880D01*
X128832897Y-63422773D01*
X129009674Y-63599550D01*
X128302567Y-64306657D01*
X128302567Y-64306657D01*
G37*
D27*
X128921285Y-64218268D03*
D19*
G36*
X128656120Y-64660210D02*
X128479343Y-64483433D01*
X129186450Y-63776326D01*
X129363227Y-63953103D01*
X128656120Y-64660210D01*
X128656120Y-64660210D01*
G37*
D27*
X129274839Y-64571821D03*
D19*
G36*
X129009674Y-65013763D02*
X128832897Y-64836986D01*
X129540004Y-64129879D01*
X129716781Y-64306656D01*
X129009674Y-65013763D01*
X129009674Y-65013763D01*
G37*
D27*
X129628392Y-64925375D03*
D19*
G36*
X129363227Y-65367317D02*
X129186450Y-65190540D01*
X129893557Y-64483433D01*
X130070334Y-64660210D01*
X129363227Y-65367317D01*
X129363227Y-65367317D01*
G37*
D27*
X129981946Y-65278928D03*
D19*
G36*
X129716781Y-65720870D02*
X129540004Y-65544093D01*
X130247111Y-64836986D01*
X130423888Y-65013763D01*
X129716781Y-65720870D01*
X129716781Y-65720870D01*
G37*
D27*
X130335499Y-65632482D03*
D19*
G36*
X130070334Y-66074424D02*
X129893557Y-65897647D01*
X130600664Y-65190540D01*
X130777441Y-65367317D01*
X130070334Y-66074424D01*
X130070334Y-66074424D01*
G37*
D27*
X130689052Y-65986035D03*
D19*
G36*
X130423887Y-66427977D02*
X130247110Y-66251200D01*
X130954217Y-65544093D01*
X131130994Y-65720870D01*
X130423887Y-66427977D01*
X130423887Y-66427977D01*
G37*
D27*
X131042606Y-66339588D03*
D19*
G36*
X130777441Y-66781530D02*
X130600664Y-66604753D01*
X131307771Y-65897646D01*
X131484548Y-66074423D01*
X130777441Y-66781530D01*
X130777441Y-66781530D01*
G37*
D27*
X131396159Y-66693142D03*
D19*
G36*
X131130994Y-67135084D02*
X130954217Y-66958307D01*
X131661324Y-66251200D01*
X131838101Y-66427977D01*
X131130994Y-67135084D01*
X131130994Y-67135084D01*
G37*
D27*
X131396159Y-69450858D03*
D19*
G36*
X131838101Y-69716023D02*
X131661324Y-69892800D01*
X130954217Y-69185693D01*
X131130994Y-69008916D01*
X131838101Y-69716023D01*
X131838101Y-69716023D01*
G37*
D27*
X131042606Y-69804412D03*
D19*
G36*
X131484548Y-70069577D02*
X131307771Y-70246354D01*
X130600664Y-69539247D01*
X130777441Y-69362470D01*
X131484548Y-70069577D01*
X131484548Y-70069577D01*
G37*
D27*
X130689052Y-70157965D03*
D19*
G36*
X131130994Y-70423130D02*
X130954217Y-70599907D01*
X130247110Y-69892800D01*
X130423887Y-69716023D01*
X131130994Y-70423130D01*
X131130994Y-70423130D01*
G37*
D27*
X130335499Y-70511518D03*
D19*
G36*
X130777441Y-70776683D02*
X130600664Y-70953460D01*
X129893557Y-70246353D01*
X130070334Y-70069576D01*
X130777441Y-70776683D01*
X130777441Y-70776683D01*
G37*
D27*
X129981946Y-70865072D03*
D19*
G36*
X130423888Y-71130237D02*
X130247111Y-71307014D01*
X129540004Y-70599907D01*
X129716781Y-70423130D01*
X130423888Y-71130237D01*
X130423888Y-71130237D01*
G37*
D27*
X129628392Y-71218625D03*
D19*
G36*
X130070334Y-71483790D02*
X129893557Y-71660567D01*
X129186450Y-70953460D01*
X129363227Y-70776683D01*
X130070334Y-71483790D01*
X130070334Y-71483790D01*
G37*
D27*
X129274839Y-71572179D03*
D19*
G36*
X129716781Y-71837344D02*
X129540004Y-72014121D01*
X128832897Y-71307014D01*
X129009674Y-71130237D01*
X129716781Y-71837344D01*
X129716781Y-71837344D01*
G37*
D27*
X128921285Y-71925732D03*
D19*
G36*
X129363227Y-72190897D02*
X129186450Y-72367674D01*
X128479343Y-71660567D01*
X128656120Y-71483790D01*
X129363227Y-72190897D01*
X129363227Y-72190897D01*
G37*
D27*
X128567732Y-72279285D03*
D19*
G36*
X129009674Y-72544450D02*
X128832897Y-72721227D01*
X128125790Y-72014120D01*
X128302567Y-71837343D01*
X129009674Y-72544450D01*
X129009674Y-72544450D01*
G37*
D27*
X128214179Y-72632839D03*
D19*
G36*
X128656121Y-72898004D02*
X128479344Y-73074781D01*
X127772237Y-72367674D01*
X127949014Y-72190897D01*
X128656121Y-72898004D01*
X128656121Y-72898004D01*
G37*
D27*
X127860625Y-72986392D03*
D19*
G36*
X128302567Y-73251557D02*
X128125790Y-73428334D01*
X127418683Y-72721227D01*
X127595460Y-72544450D01*
X128302567Y-73251557D01*
X128302567Y-73251557D01*
G37*
D27*
X127507072Y-73339946D03*
D19*
G36*
X127949014Y-73605111D02*
X127772237Y-73781888D01*
X127065130Y-73074781D01*
X127241907Y-72898004D01*
X127949014Y-73605111D01*
X127949014Y-73605111D01*
G37*
D27*
X127153518Y-73693499D03*
D19*
G36*
X127595460Y-73958664D02*
X127418683Y-74135441D01*
X126711576Y-73428334D01*
X126888353Y-73251557D01*
X127595460Y-73958664D01*
X127595460Y-73958664D01*
G37*
D27*
X126799965Y-74047052D03*
D19*
G36*
X127241907Y-74312217D02*
X127065130Y-74488994D01*
X126358023Y-73781887D01*
X126534800Y-73605110D01*
X127241907Y-74312217D01*
X127241907Y-74312217D01*
G37*
D27*
X126446412Y-74400606D03*
D19*
G36*
X126888354Y-74665771D02*
X126711577Y-74842548D01*
X126004470Y-74135441D01*
X126181247Y-73958664D01*
X126888354Y-74665771D01*
X126888354Y-74665771D01*
G37*
D27*
X126092858Y-74754159D03*
D19*
G36*
X126534800Y-75019324D02*
X126358023Y-75196101D01*
X125650916Y-74488994D01*
X125827693Y-74312217D01*
X126534800Y-75019324D01*
X126534800Y-75019324D01*
G37*
D27*
X123335142Y-74754159D03*
D19*
G36*
X123069977Y-75196101D02*
X122893200Y-75019324D01*
X123600307Y-74312217D01*
X123777084Y-74488994D01*
X123069977Y-75196101D01*
X123069977Y-75196101D01*
G37*
D27*
X122981588Y-74400606D03*
D19*
G36*
X122716423Y-74842548D02*
X122539646Y-74665771D01*
X123246753Y-73958664D01*
X123423530Y-74135441D01*
X122716423Y-74842548D01*
X122716423Y-74842548D01*
G37*
D27*
X122628035Y-74047052D03*
D19*
G36*
X122362870Y-74488994D02*
X122186093Y-74312217D01*
X122893200Y-73605110D01*
X123069977Y-73781887D01*
X122362870Y-74488994D01*
X122362870Y-74488994D01*
G37*
D27*
X122274482Y-73693499D03*
D19*
G36*
X122009317Y-74135441D02*
X121832540Y-73958664D01*
X122539647Y-73251557D01*
X122716424Y-73428334D01*
X122009317Y-74135441D01*
X122009317Y-74135441D01*
G37*
D27*
X121920928Y-73339946D03*
D19*
G36*
X121655763Y-73781888D02*
X121478986Y-73605111D01*
X122186093Y-72898004D01*
X122362870Y-73074781D01*
X121655763Y-73781888D01*
X121655763Y-73781888D01*
G37*
D27*
X121567375Y-72986392D03*
D19*
G36*
X121302210Y-73428334D02*
X121125433Y-73251557D01*
X121832540Y-72544450D01*
X122009317Y-72721227D01*
X121302210Y-73428334D01*
X121302210Y-73428334D01*
G37*
D27*
X121213821Y-72632839D03*
D19*
G36*
X120948656Y-73074781D02*
X120771879Y-72898004D01*
X121478986Y-72190897D01*
X121655763Y-72367674D01*
X120948656Y-73074781D01*
X120948656Y-73074781D01*
G37*
D27*
X120860268Y-72279285D03*
D19*
G36*
X120595103Y-72721227D02*
X120418326Y-72544450D01*
X121125433Y-71837343D01*
X121302210Y-72014120D01*
X120595103Y-72721227D01*
X120595103Y-72721227D01*
G37*
D27*
X120506715Y-71925732D03*
D19*
G36*
X120241550Y-72367674D02*
X120064773Y-72190897D01*
X120771880Y-71483790D01*
X120948657Y-71660567D01*
X120241550Y-72367674D01*
X120241550Y-72367674D01*
G37*
D27*
X120153161Y-71572179D03*
D19*
G36*
X119887996Y-72014121D02*
X119711219Y-71837344D01*
X120418326Y-71130237D01*
X120595103Y-71307014D01*
X119887996Y-72014121D01*
X119887996Y-72014121D01*
G37*
D27*
X119799608Y-71218625D03*
D19*
G36*
X119534443Y-71660567D02*
X119357666Y-71483790D01*
X120064773Y-70776683D01*
X120241550Y-70953460D01*
X119534443Y-71660567D01*
X119534443Y-71660567D01*
G37*
D27*
X119446054Y-70865072D03*
D19*
G36*
X119180889Y-71307014D02*
X119004112Y-71130237D01*
X119711219Y-70423130D01*
X119887996Y-70599907D01*
X119180889Y-71307014D01*
X119180889Y-71307014D01*
G37*
D27*
X119092501Y-70511518D03*
D19*
G36*
X118827336Y-70953460D02*
X118650559Y-70776683D01*
X119357666Y-70069576D01*
X119534443Y-70246353D01*
X118827336Y-70953460D01*
X118827336Y-70953460D01*
G37*
D27*
X118738948Y-70157965D03*
D19*
G36*
X118473783Y-70599907D02*
X118297006Y-70423130D01*
X119004113Y-69716023D01*
X119180890Y-69892800D01*
X118473783Y-70599907D01*
X118473783Y-70599907D01*
G37*
D27*
X118385394Y-69804412D03*
D19*
G36*
X118120229Y-70246354D02*
X117943452Y-70069577D01*
X118650559Y-69362470D01*
X118827336Y-69539247D01*
X118120229Y-70246354D01*
X118120229Y-70246354D01*
G37*
D27*
X118031841Y-69450858D03*
D19*
G36*
X117766676Y-69892800D02*
X117589899Y-69716023D01*
X118297006Y-69008916D01*
X118473783Y-69185693D01*
X117766676Y-69892800D01*
X117766676Y-69892800D01*
G37*
D28*
X108614000Y-79371000D03*
X108614000Y-80021000D03*
X108614000Y-80671000D03*
X108614000Y-81321000D03*
X108614000Y-81971000D03*
X108614000Y-82621000D03*
X108614000Y-83271000D03*
X108614000Y-83921000D03*
X108614000Y-84571000D03*
X108614000Y-85221000D03*
X102714000Y-85221000D03*
X102714000Y-84571000D03*
X102714000Y-83921000D03*
X102714000Y-83271000D03*
X102714000Y-82621000D03*
X102714000Y-81971000D03*
X102714000Y-81321000D03*
X102714000Y-80671000D03*
X102714000Y-80021000D03*
X102714000Y-79371000D03*
X112874000Y-79371000D03*
X112874000Y-80021000D03*
X112874000Y-80671000D03*
X112874000Y-81321000D03*
X112874000Y-81971000D03*
X112874000Y-82621000D03*
X112874000Y-83271000D03*
X112874000Y-83921000D03*
X112874000Y-84571000D03*
X112874000Y-85221000D03*
X118774000Y-85221000D03*
X118774000Y-84571000D03*
X118774000Y-83921000D03*
X118774000Y-83271000D03*
X118774000Y-82621000D03*
X118774000Y-81971000D03*
X118774000Y-81321000D03*
X118774000Y-80671000D03*
X118774000Y-80021000D03*
X118774000Y-79371000D03*
D29*
X133346000Y-79346000D03*
X133996000Y-79346000D03*
X134646000Y-79346000D03*
X135296000Y-79346000D03*
X135946000Y-79346000D03*
X136596000Y-79346000D03*
X137246000Y-79346000D03*
X137896000Y-79346000D03*
X138546000Y-79346000D03*
X139196000Y-79346000D03*
X139196000Y-85246000D03*
X138546000Y-85246000D03*
X137896000Y-85246000D03*
X137246000Y-85246000D03*
X136596000Y-85246000D03*
X135946000Y-85246000D03*
X135296000Y-85246000D03*
X134646000Y-85246000D03*
X133996000Y-85246000D03*
X133346000Y-85246000D03*
D30*
X136596000Y-57804000D03*
X136596000Y-57154000D03*
X136596000Y-56504000D03*
X136596000Y-55854000D03*
X136596000Y-55204000D03*
X136596000Y-54554000D03*
X136596000Y-53904000D03*
X136596000Y-53254000D03*
X136596000Y-52604000D03*
X136596000Y-51954000D03*
X136596000Y-51304000D03*
X136596000Y-50654000D03*
X142296000Y-50654000D03*
X142296000Y-51304000D03*
X142296000Y-51954000D03*
X142296000Y-52604000D03*
X142296000Y-53254000D03*
X142296000Y-53904000D03*
X142296000Y-54554000D03*
X142296000Y-55204000D03*
X142296000Y-55854000D03*
X142296000Y-56504000D03*
X142296000Y-57154000D03*
X142296000Y-57804000D03*
D31*
X101245000Y-94448000D03*
D32*
X102945000Y-94488000D03*
X104445000Y-94488000D03*
X105945000Y-94488000D03*
X107445000Y-94488000D03*
X108945000Y-94488000D03*
X110445000Y-94488000D03*
X111945000Y-94488000D03*
X113445000Y-94488000D03*
X114945000Y-94488000D03*
X116445000Y-94488000D03*
X117945000Y-94488000D03*
X119445000Y-94488000D03*
X120945000Y-94488000D03*
X122445000Y-94488000D03*
X123945000Y-94488000D03*
X125445000Y-94488000D03*
X126945000Y-94488000D03*
X128445000Y-94488000D03*
X129945000Y-94488000D03*
X131445000Y-94488000D03*
X132945000Y-94488000D03*
X134445000Y-94488000D03*
X135945000Y-94488000D03*
X137445000Y-94488000D03*
X138945000Y-94488000D03*
X140445000Y-94488000D03*
X141945000Y-94488000D03*
X143445000Y-94488000D03*
X144945000Y-94488000D03*
X146445000Y-94488000D03*
D31*
X148145000Y-94488000D03*
D33*
X129286000Y-55499000D03*
X141097000Y-61722000D03*
X108966000Y-57785000D03*
X115570000Y-51181000D03*
X120248818Y-62234191D03*
X146945000Y-87988000D03*
X147945000Y-87488000D03*
X146945000Y-86988000D03*
X102781256Y-86057885D03*
X112471190Y-86918810D03*
X120206079Y-80949810D03*
X127635000Y-60071000D03*
X135382000Y-50673000D03*
X143764000Y-51054000D03*
X123679049Y-78166931D03*
X102743000Y-78486000D03*
X116547596Y-75153434D03*
X126111000Y-75819000D03*
X110998000Y-78994000D03*
X107823000Y-48006000D03*
X118872000Y-42545000D03*
X116832971Y-58214019D03*
X120904000Y-70358000D03*
X127050810Y-72136000D03*
X133731000Y-81026000D03*
X139192000Y-82423000D03*
X103505000Y-66548000D03*
X114145000Y-67338000D03*
X119962239Y-68713644D03*
X116975010Y-69389916D03*
X119975274Y-78378094D03*
X110744000Y-47879000D03*
X112141000Y-46990000D03*
X122047000Y-45212000D03*
X127381000Y-45085000D03*
X113411000Y-75057000D03*
X104775000Y-83885190D03*
X141478000Y-83947000D03*
X143891000Y-87630000D03*
X126365000Y-70485000D03*
X124714000Y-74676000D03*
X132588000Y-74168000D03*
X128960399Y-76345824D03*
X129032000Y-56515000D03*
X137922000Y-62230000D03*
X116505943Y-79582057D03*
X115189000Y-82550000D03*
X114122190Y-81874717D03*
X115823985Y-78767350D03*
X119239189Y-76631810D03*
X114351494Y-83076310D03*
X115189421Y-84606810D03*
X117654182Y-77407992D03*
X113992320Y-76860501D03*
X116176032Y-77557817D03*
X114042707Y-75896589D03*
X116448327Y-76631810D03*
X115062703Y-74801241D03*
X116426642Y-74195831D03*
X120634644Y-75455118D03*
X110236000Y-80772000D03*
X106857810Y-81915000D03*
X121599489Y-75428499D03*
X107032488Y-83202606D03*
X122555000Y-75565000D03*
X124714000Y-66167000D03*
X122936000Y-67056000D03*
X129159000Y-50038000D03*
X125984000Y-53213000D03*
X101219000Y-87630000D03*
X101346000Y-77089000D03*
X105918000Y-69088000D03*
X132715000Y-66421000D03*
X139573000Y-58928000D03*
X104775000Y-85979000D03*
D34*
X129286000Y-55499000D02*
X123318000Y-49531000D01*
X123318000Y-49531000D02*
X123318000Y-47244000D01*
X142555000Y-60141200D02*
X141097000Y-61599200D01*
X142555000Y-59563000D02*
X142555000Y-60141200D01*
X141097000Y-61599200D02*
X141097000Y-61722000D01*
X100711000Y-69723000D02*
X100965000Y-69977000D01*
X100965000Y-69977000D02*
X102555000Y-69977000D01*
X100711000Y-65501185D02*
X100711000Y-69723000D01*
X108966000Y-57785000D02*
X108427185Y-57785000D01*
X108427185Y-57785000D02*
X100711000Y-65501185D01*
X123318000Y-47244000D02*
X119507000Y-47244000D01*
X119507000Y-47244000D02*
X115570000Y-51181000D01*
X101346000Y-69571200D02*
X101346000Y-67691000D01*
X101346000Y-67691000D02*
X101346000Y-65923800D01*
X102405000Y-67498000D02*
X101539000Y-67498000D01*
X101539000Y-67498000D02*
X101346000Y-67691000D01*
X101346000Y-65923800D02*
X101671800Y-65598000D01*
X101671800Y-65598000D02*
X102405000Y-65598000D01*
X102555000Y-69977000D02*
X101751800Y-69977000D01*
X101751800Y-69977000D02*
X101346000Y-69571200D01*
X101473000Y-72391000D02*
X101473000Y-70834000D01*
X101473000Y-70834000D02*
X102330000Y-69977000D01*
X102330000Y-69977000D02*
X102555000Y-69977000D01*
X143459801Y-56914601D02*
X143049200Y-56504000D01*
X143459801Y-83022954D02*
X143459801Y-56914601D01*
X143049200Y-56504000D02*
X142296000Y-56504000D01*
X137303000Y-87630000D02*
X138852755Y-87630000D01*
X138852755Y-87630000D02*
X143459801Y-83022954D01*
X132945000Y-91988000D02*
X137303000Y-87630000D01*
X132945000Y-94488000D02*
X132945000Y-91988000D01*
X143866212Y-83191294D02*
X143866212Y-56671012D01*
X143866212Y-56671012D02*
X143049200Y-55854000D01*
X138944917Y-88112589D02*
X143866212Y-83191294D01*
X134445000Y-94488000D02*
X134445000Y-91284800D01*
X134445000Y-91284800D02*
X137617211Y-88112589D01*
X143049200Y-55854000D02*
X142296000Y-55854000D01*
X137617211Y-88112589D02*
X138944917Y-88112589D01*
X138430000Y-88519000D02*
X139113257Y-88519000D01*
X135890000Y-91229800D02*
X135890000Y-91059000D01*
X135945000Y-91284800D02*
X135890000Y-91229800D01*
X144272623Y-83359634D02*
X144272623Y-56427423D01*
X135945000Y-94488000D02*
X135945000Y-91284800D01*
X144272623Y-56427423D02*
X143049200Y-55204000D01*
X139113257Y-88519000D02*
X144272623Y-83359634D01*
X143049200Y-55204000D02*
X142296000Y-55204000D01*
X135890000Y-91059000D02*
X138430000Y-88519000D01*
X120380009Y-62103000D02*
X120248818Y-62234191D01*
X120512767Y-62103000D02*
X120380009Y-62103000D01*
X147945000Y-88988000D02*
X147325999Y-88368999D01*
X147945000Y-91313000D02*
X147945000Y-88988000D01*
X147445000Y-87488000D02*
X146945000Y-87988000D01*
X147445000Y-87988000D02*
X146945000Y-87988000D01*
X147945000Y-87488000D02*
X147445000Y-87988000D01*
X147325999Y-88368999D02*
X146945000Y-87988000D01*
X146945000Y-86988000D02*
X147445000Y-87488000D01*
X147445000Y-87488000D02*
X147945000Y-87488000D01*
X147945000Y-94488000D02*
X147945000Y-87488000D01*
X147945000Y-91313000D02*
X147945000Y-87488000D01*
X102714000Y-85990629D02*
X102781256Y-86057885D01*
X102714000Y-85221000D02*
X102714000Y-85990629D01*
X112874000Y-85221000D02*
X112874000Y-86516000D01*
X112874000Y-86516000D02*
X112852189Y-86537811D01*
X112852189Y-86537811D02*
X112471190Y-86918810D01*
X119825080Y-80568811D02*
X120206079Y-80949810D01*
X118774000Y-80021000D02*
X119622642Y-80021000D01*
X119825080Y-80223438D02*
X119825080Y-80568811D01*
X119622642Y-80021000D02*
X119825080Y-80223438D01*
X127798751Y-60391055D02*
X127798751Y-60234751D01*
X127798751Y-60234751D02*
X127635000Y-60071000D01*
X127798751Y-58129249D02*
X127798751Y-60391055D01*
X127798751Y-60391055D02*
X126446412Y-61743394D01*
X136596000Y-50654000D02*
X135401000Y-50654000D01*
X135401000Y-50654000D02*
X135382000Y-50673000D01*
X143637000Y-51054000D02*
X143387000Y-51304000D01*
X143387000Y-51304000D02*
X142296000Y-51304000D01*
X143764000Y-51054000D02*
X143637000Y-51054000D01*
X142296000Y-50654000D02*
X143364000Y-50654000D01*
X143364000Y-50654000D02*
X143764000Y-51054000D01*
X122083751Y-78449249D02*
X123396731Y-78449249D01*
X123396731Y-78449249D02*
X123679049Y-78166931D01*
X102714000Y-79371000D02*
X102714000Y-78515000D01*
X102714000Y-78515000D02*
X102743000Y-78486000D01*
X117565249Y-74712751D02*
X116934919Y-74712751D01*
X116547596Y-75100074D02*
X116547596Y-75153434D01*
X116934919Y-74712751D02*
X116547596Y-75100074D01*
X127217249Y-76236751D02*
X126528751Y-76236751D01*
X126528751Y-76236751D02*
X126111000Y-75819000D01*
X112837000Y-77724000D02*
X112837000Y-78302200D01*
X112837000Y-78302200D02*
X112145200Y-78994000D01*
X112145200Y-78994000D02*
X111536815Y-78994000D01*
X111536815Y-78994000D02*
X110998000Y-78994000D01*
X112874000Y-79371000D02*
X111375000Y-79371000D01*
X111375000Y-79371000D02*
X110998000Y-78994000D01*
X108614000Y-80021000D02*
X109971000Y-80021000D01*
X109971000Y-80021000D02*
X110998000Y-78994000D01*
X107696000Y-45384000D02*
X107696000Y-47879000D01*
X107696000Y-47879000D02*
X107823000Y-48006000D01*
X106426000Y-45384000D02*
X106426000Y-46214000D01*
X106426000Y-46214000D02*
X107823000Y-47611000D01*
X107823000Y-47611000D02*
X107823000Y-48006000D01*
X106426000Y-45384000D02*
X107696000Y-45384000D01*
X127950000Y-39751000D02*
X127950000Y-42101000D01*
X127950000Y-42101000D02*
X128050000Y-42201000D01*
X125850000Y-39751000D02*
X127003200Y-39751000D01*
X127003200Y-39751000D02*
X127950000Y-39751000D01*
X123450000Y-39751000D02*
X125850000Y-39751000D01*
X121350000Y-39751000D02*
X123450000Y-39751000D01*
X121350000Y-39751000D02*
X121350000Y-42101000D01*
X121350000Y-42101000D02*
X121250000Y-42201000D01*
X123350000Y-42426000D02*
X122946800Y-42426000D01*
X122946800Y-42426000D02*
X122721800Y-42201000D01*
X122721800Y-42201000D02*
X121250000Y-42201000D01*
X121250000Y-42201000D02*
X119216000Y-42201000D01*
X119216000Y-42201000D02*
X118872000Y-42545000D01*
X117015019Y-58214019D02*
X116832971Y-58214019D01*
X117946249Y-59145249D02*
X117015019Y-58214019D01*
X120512767Y-62103000D02*
X119892757Y-61482990D01*
X121567375Y-63157608D02*
X120512767Y-62103000D01*
X116930249Y-60161249D02*
X117528498Y-59563000D01*
X117528498Y-59563000D02*
X117946249Y-59145249D01*
X119892757Y-61482990D02*
X119322592Y-61482990D01*
X119322592Y-61482990D02*
X117528498Y-59688896D01*
X117528498Y-59688896D02*
X117528498Y-59563000D01*
X116930249Y-60288249D02*
X116930249Y-60161249D01*
X120153161Y-71572179D02*
X120904000Y-70821340D01*
X120904000Y-70821340D02*
X120904000Y-70358000D01*
X127860625Y-72986392D02*
X127050810Y-72176577D01*
X127050810Y-72176577D02*
X127050810Y-72136000D01*
X137144200Y-81026000D02*
X137795000Y-81026000D01*
X137795000Y-81026000D02*
X139192000Y-82423000D01*
X135844200Y-81026000D02*
X137144200Y-81026000D01*
X137144200Y-81026000D02*
X137896000Y-80274200D01*
X137896000Y-80274200D02*
X137896000Y-79346000D01*
X134544200Y-81026000D02*
X135844200Y-81026000D01*
X135844200Y-81026000D02*
X136596000Y-80274200D01*
X136596000Y-80274200D02*
X136596000Y-79346000D01*
X133731000Y-81026000D02*
X134544200Y-81026000D01*
X134544200Y-81026000D02*
X135296000Y-80274200D01*
X135296000Y-80274200D02*
X135296000Y-79346000D01*
X131572000Y-81087000D02*
X133670000Y-81087000D01*
X133670000Y-81087000D02*
X133731000Y-81026000D01*
X139196000Y-79346000D02*
X139196000Y-82419000D01*
X139196000Y-82419000D02*
X139192000Y-82423000D01*
X139196000Y-85246000D02*
X139196000Y-82427000D01*
X139196000Y-82427000D02*
X139192000Y-82423000D01*
X103632000Y-67041800D02*
X103632000Y-66675000D01*
X103632000Y-66675000D02*
X103505000Y-66548000D01*
X103632000Y-67041800D02*
X103632000Y-68575800D01*
X103632000Y-68575800D02*
X104455000Y-69398800D01*
X104455000Y-69398800D02*
X104455000Y-69977000D01*
X102405000Y-66548000D02*
X103138200Y-66548000D01*
X103138200Y-66548000D02*
X103632000Y-67041800D01*
X143049200Y-54554000D02*
X142296000Y-54554000D01*
X144679034Y-83527974D02*
X144679034Y-56183834D01*
X137445000Y-90762008D02*
X144679034Y-83527974D01*
X137445000Y-94488000D02*
X137445000Y-90762008D01*
X144679034Y-56183834D02*
X143049200Y-54554000D01*
X141985965Y-86795794D02*
X145085445Y-83696314D01*
X141985965Y-87376035D02*
X141985965Y-86795794D01*
X143049200Y-53904000D02*
X142296000Y-53904000D01*
X138241800Y-91120200D02*
X141985965Y-87376035D01*
X138241800Y-91284800D02*
X138241800Y-91120200D01*
X138945000Y-94488000D02*
X138945000Y-91988000D01*
X138945000Y-91988000D02*
X138241800Y-91284800D01*
X145085445Y-55940245D02*
X143049200Y-53904000D01*
X145085445Y-83696314D02*
X145085445Y-55940245D01*
X145491856Y-83864654D02*
X145491856Y-55696656D01*
X140445000Y-94488000D02*
X140445000Y-91263250D01*
X143049200Y-53254000D02*
X142296000Y-53254000D01*
X142392376Y-89315874D02*
X142392376Y-86964134D01*
X142392376Y-86964134D02*
X145491856Y-83864654D01*
X140445000Y-91263250D02*
X142392376Y-89315874D01*
X145491856Y-55696656D02*
X143049200Y-53254000D01*
X141945000Y-94488000D02*
X141945000Y-90338000D01*
X143049200Y-52604000D02*
X142296000Y-52604000D01*
X142798787Y-89484213D02*
X142798787Y-87132474D01*
X141945000Y-90338000D02*
X142798787Y-89484213D01*
X145898267Y-55453067D02*
X143049200Y-52604000D01*
X142798787Y-87132474D02*
X145898267Y-84032994D01*
X145898267Y-84032994D02*
X145898267Y-55453067D01*
X146304678Y-84201334D02*
X146304678Y-55209478D01*
X143205198Y-88086186D02*
X143205198Y-87300814D01*
X143049200Y-51954000D02*
X142296000Y-51954000D01*
X146304678Y-55209478D02*
X143049200Y-51954000D01*
X143445000Y-88325988D02*
X143205198Y-88086186D01*
X143205198Y-87300814D02*
X146304678Y-84201334D01*
X143445000Y-94488000D02*
X143445000Y-88325988D01*
X106807000Y-65598000D02*
X112405000Y-65598000D01*
X112405000Y-65598000D02*
X113764001Y-66957001D01*
X113764001Y-66957001D02*
X114145000Y-67338000D01*
X120501054Y-68713644D02*
X119962239Y-68713644D01*
X123952000Y-67054988D02*
X122293344Y-68713644D01*
X123952000Y-66956447D02*
X123952000Y-67054988D01*
X122293344Y-68713644D02*
X120501054Y-68713644D01*
X113411000Y-75057000D02*
X113411000Y-72953926D01*
X116594011Y-69770915D02*
X116975010Y-69389916D01*
X113411000Y-72953926D02*
X116594011Y-69770915D01*
X120356273Y-77997095D02*
X119975274Y-78378094D01*
X121264368Y-77089000D02*
X120356273Y-77997095D01*
X130993800Y-79187000D02*
X130419800Y-78613000D01*
X124968000Y-77089000D02*
X121264368Y-77089000D01*
X131572000Y-79187000D02*
X130993800Y-79187000D01*
X120356273Y-78759093D02*
X119975274Y-78378094D01*
X120740249Y-79143069D02*
X120356273Y-78759093D01*
X120740249Y-79792751D02*
X120740249Y-79143069D01*
X130419800Y-78613000D02*
X126492000Y-78613000D01*
X126492000Y-78613000D02*
X124968000Y-77089000D01*
X115062000Y-57531000D02*
X108077000Y-50546000D01*
X108077000Y-50546000D02*
X105156000Y-47625000D01*
X110744000Y-47879000D02*
X108077000Y-50546000D01*
X113919000Y-45212000D02*
X112141000Y-46990000D01*
X114173000Y-45212000D02*
X113919000Y-45212000D01*
X114554000Y-45212000D02*
X114173000Y-45212000D01*
X122047000Y-45212000D02*
X114554000Y-45212000D01*
X133266000Y-39878000D02*
X133116000Y-39878000D01*
X133116000Y-39878000D02*
X127909000Y-45085000D01*
X127909000Y-45085000D02*
X127381000Y-45085000D01*
X126455249Y-59472751D02*
X126791124Y-59808626D01*
X126791124Y-60691575D02*
X126517121Y-60965578D01*
X126791124Y-59808626D02*
X126791124Y-60691575D01*
X126517121Y-60965578D02*
X126092858Y-61389841D01*
X137287000Y-64432000D02*
X137287000Y-63628800D01*
X137287000Y-63628800D02*
X136568000Y-62909800D01*
X136568000Y-61867200D02*
X136568000Y-61214000D01*
X136568000Y-62909800D02*
X136568000Y-61867200D01*
X113411000Y-75057000D02*
X112872185Y-75057000D01*
X110937000Y-76992185D02*
X110937000Y-77145800D01*
X112872185Y-75057000D02*
X110937000Y-76992185D01*
X110937000Y-77145800D02*
X110937000Y-77724000D01*
X127507072Y-73339946D02*
X128560751Y-74393625D01*
X128560751Y-74393625D02*
X128560751Y-74893249D01*
X120740249Y-79792751D02*
X120318498Y-79371000D01*
X120318498Y-79371000D02*
X118774000Y-79371000D01*
X110937000Y-77724000D02*
X110712000Y-77724000D01*
X110712000Y-77724000D02*
X109065000Y-79371000D01*
X109065000Y-79371000D02*
X108614000Y-79371000D01*
X105156000Y-47625000D02*
X105156000Y-45384000D01*
X115062000Y-58166000D02*
X115062000Y-57531000D01*
X115699791Y-57528209D02*
X115062000Y-58166000D01*
X117643421Y-61631751D02*
X118273751Y-61631751D01*
X115062000Y-58166000D02*
X115062000Y-60004250D01*
X119110183Y-58023183D02*
X118615209Y-57528209D01*
X115062000Y-60004250D02*
X116689501Y-61631751D01*
X116689501Y-61631751D02*
X117643421Y-61631751D01*
X118615209Y-57528209D02*
X115699791Y-57528209D01*
X123952000Y-70739000D02*
X123952000Y-67945000D01*
X123952000Y-67945000D02*
X123952000Y-66956447D01*
X120506715Y-71925732D02*
X119063198Y-73369249D01*
X119063198Y-73369249D02*
X118908751Y-73369249D01*
X118273751Y-61631751D02*
X118768725Y-62126725D01*
X119122278Y-62126725D02*
X120436005Y-63440452D01*
X118768725Y-62126725D02*
X119122278Y-62126725D01*
X120436005Y-63440452D02*
X120860268Y-63864715D01*
X120506715Y-71925732D02*
X123952000Y-68480447D01*
X123952000Y-68480447D02*
X123952000Y-66956447D01*
X131042606Y-66339588D02*
X130425747Y-66956447D01*
X130425747Y-66956447D02*
X123952000Y-66956447D01*
X126092858Y-61389841D02*
X125816081Y-61389841D01*
X125816081Y-61389841D02*
X123952000Y-63253922D01*
X123952000Y-63253922D02*
X123952000Y-66956447D01*
X123952000Y-66956447D02*
X120860268Y-63864715D01*
X126128683Y-72915683D02*
X123952000Y-70739000D01*
X127507072Y-73339946D02*
X127082809Y-72915683D01*
X127082809Y-72915683D02*
X126128683Y-72915683D01*
X133346000Y-79346000D02*
X131731000Y-79346000D01*
X131731000Y-79346000D02*
X131572000Y-79187000D01*
X105156000Y-42314000D02*
X105156000Y-41484000D01*
X103733589Y-51409589D02*
X103733589Y-43736411D01*
X120153161Y-64571821D02*
X119728898Y-64147558D01*
X103733589Y-43736411D02*
X105156000Y-42314000D01*
X116471558Y-64147558D02*
X103733589Y-51409589D01*
X119728898Y-64147558D02*
X116471558Y-64147558D01*
X104987358Y-43434000D02*
X105306000Y-43434000D01*
X105306000Y-43434000D02*
X106426000Y-42314000D01*
X106426000Y-42314000D02*
X106426000Y-41484000D01*
X104140000Y-51054000D02*
X104140000Y-44281358D01*
X104140000Y-44281358D02*
X104987358Y-43434000D01*
X116586000Y-63500000D02*
X104140000Y-51054000D01*
X120506715Y-64218268D02*
X119788447Y-63500000D01*
X119788447Y-63500000D02*
X116586000Y-63500000D01*
X102945000Y-94488000D02*
X102945000Y-89484014D01*
X101904801Y-87300815D02*
X100871377Y-86267391D01*
X101785800Y-80021000D02*
X102714000Y-80021000D01*
X100871377Y-80935423D02*
X101785800Y-80021000D01*
X102945000Y-89484014D02*
X101904801Y-88443815D01*
X101904801Y-88443815D02*
X101904801Y-87300815D01*
X100871377Y-86267391D02*
X100871377Y-80935423D01*
X101785800Y-81321000D02*
X102714000Y-81321000D01*
X102311212Y-87132475D02*
X101277788Y-86099051D01*
X102311212Y-88275475D02*
X102311212Y-87132475D01*
X104445000Y-94488000D02*
X104445000Y-90409263D01*
X104445000Y-90409263D02*
X102311212Y-88275475D01*
X101277788Y-81829012D02*
X101785800Y-81321000D01*
X101277788Y-86099051D02*
X101277788Y-81829012D01*
X101785800Y-82621000D02*
X102714000Y-82621000D01*
X105241800Y-91284800D02*
X105241800Y-90631312D01*
X105241800Y-90631312D02*
X102717623Y-88107133D01*
X105945000Y-94488000D02*
X105945000Y-91988000D01*
X105945000Y-91988000D02*
X105241800Y-91284800D01*
X101684199Y-82722601D02*
X101785800Y-82621000D01*
X101684199Y-85930711D02*
X101684199Y-82722601D01*
X102717623Y-86964135D02*
X101684199Y-85930711D01*
X102717623Y-88107133D02*
X102717623Y-86964135D01*
X102714000Y-83921000D02*
X104739190Y-83921000D01*
X104739190Y-83921000D02*
X104775000Y-83885190D01*
X111945000Y-89706612D02*
X110050212Y-87811824D01*
X110050212Y-87811824D02*
X110050212Y-83129012D01*
X109542200Y-82621000D02*
X108614000Y-82621000D01*
X111945000Y-94488000D02*
X111945000Y-89706612D01*
X110050212Y-83129012D02*
X109542200Y-82621000D01*
X110540822Y-82319622D02*
X109542200Y-81321000D01*
X113445000Y-94488000D02*
X113445000Y-90631861D01*
X110540822Y-87727683D02*
X110540822Y-82319622D01*
X109542200Y-81321000D02*
X108614000Y-81321000D01*
X113445000Y-90631861D02*
X110540822Y-87727683D01*
X114241800Y-91284800D02*
X114241800Y-90853910D01*
X114241800Y-90853910D02*
X110947233Y-87559343D01*
X110947233Y-81019567D02*
X111945800Y-80021000D01*
X111945800Y-80021000D02*
X112874000Y-80021000D01*
X114945000Y-94488000D02*
X114945000Y-91988000D01*
X114945000Y-91988000D02*
X114241800Y-91284800D01*
X110947233Y-87559343D02*
X110947233Y-81019567D01*
X111945800Y-81321000D02*
X112874000Y-81321000D01*
X111973664Y-88011023D02*
X111353644Y-87391003D01*
X116445000Y-91988000D02*
X112468023Y-88011023D01*
X116445000Y-94488000D02*
X116445000Y-91988000D01*
X111353644Y-87391003D02*
X111353644Y-81913156D01*
X112468023Y-88011023D02*
X111973664Y-88011023D01*
X111353644Y-81913156D02*
X111945800Y-81321000D01*
X117241800Y-91127045D02*
X113719367Y-87604612D01*
X117241800Y-91284800D02*
X117241800Y-91127045D01*
X112142004Y-87604612D02*
X111760055Y-87222663D01*
X111760055Y-87222663D02*
X111760055Y-82806745D01*
X111945800Y-82621000D02*
X112874000Y-82621000D01*
X111760055Y-82806745D02*
X111945800Y-82621000D01*
X117945000Y-91988000D02*
X117241800Y-91284800D01*
X117945000Y-94488000D02*
X117945000Y-91988000D01*
X113719367Y-87604612D02*
X112142004Y-87604612D01*
X119445000Y-94488000D02*
X119445000Y-87822000D01*
X115544000Y-83921000D02*
X112874000Y-83921000D01*
X119445000Y-87822000D02*
X115544000Y-83921000D01*
X119583198Y-81321000D02*
X118774000Y-81321000D01*
X120645199Y-84062697D02*
X120645199Y-82383001D01*
X120645199Y-82383001D02*
X119583198Y-81321000D01*
X125445000Y-88862498D02*
X120645199Y-84062697D01*
X125445000Y-94488000D02*
X125445000Y-88862498D01*
X141478000Y-83947000D02*
X141478000Y-75326800D01*
X141478000Y-75326800D02*
X136874200Y-70723000D01*
X136874200Y-70723000D02*
X136271000Y-70723000D01*
X144945000Y-88684000D02*
X143891000Y-87630000D01*
X144945000Y-94488000D02*
X144945000Y-88684000D01*
X138768000Y-61867200D02*
X138768000Y-61214000D01*
X139827000Y-67515642D02*
X139827000Y-62926200D01*
X139827000Y-62926200D02*
X138768000Y-61867200D01*
X134761146Y-69561788D02*
X137780854Y-69561788D01*
X137780854Y-69561788D02*
X139827000Y-67515642D01*
X126365000Y-70485000D02*
X128145894Y-68704106D01*
X133903464Y-68704106D02*
X134761146Y-69561788D01*
X128145894Y-68704106D02*
X133903464Y-68704106D01*
X123335142Y-74754159D02*
X124635841Y-74754159D01*
X124635841Y-74754159D02*
X124714000Y-74676000D01*
X141542800Y-57154000D02*
X142296000Y-57154000D01*
X141559801Y-58366443D02*
X141441199Y-58247841D01*
X138184801Y-69968199D02*
X141559801Y-66593199D01*
X141559801Y-60244211D02*
X141559801Y-58366443D01*
X140411198Y-62051186D02*
X140411198Y-61392814D01*
X141559801Y-63199789D02*
X140411198Y-62051186D01*
X141559801Y-66593199D02*
X141559801Y-63199789D01*
X140411198Y-61392814D02*
X141559801Y-60244211D01*
X132588000Y-73007358D02*
X135627159Y-69968199D01*
X135627159Y-69968199D02*
X138184801Y-69968199D01*
X141441199Y-58247841D02*
X141441199Y-57255601D01*
X141441199Y-57255601D02*
X141542800Y-57154000D01*
X132588000Y-74168000D02*
X132588000Y-73007358D01*
X128733730Y-76345824D02*
X128960399Y-76345824D01*
X127566512Y-74106493D02*
X127566512Y-75178606D01*
X127153518Y-73693499D02*
X127566512Y-74106493D01*
X127566512Y-75178606D02*
X128733730Y-76345824D01*
X122682000Y-60198000D02*
X122682000Y-60736699D01*
X122682000Y-60736699D02*
X123335142Y-61389841D01*
X122936000Y-59944000D02*
X122682000Y-60198000D01*
X124159106Y-59944000D02*
X122936000Y-59944000D01*
X129032000Y-56515000D02*
X127588106Y-56515000D01*
X127588106Y-56515000D02*
X124159106Y-59944000D01*
X138430000Y-66142200D02*
X138430000Y-62738000D01*
X138430000Y-62738000D02*
X137922000Y-62230000D01*
X137287000Y-66632000D02*
X137940200Y-66632000D01*
X137940200Y-66632000D02*
X138430000Y-66142200D01*
X111455198Y-46660814D02*
X111506000Y-46610012D01*
X111506000Y-44157200D02*
X110236000Y-42887200D01*
X110236000Y-42887200D02*
X110236000Y-41484000D01*
X120665817Y-57673817D02*
X111455198Y-48463198D01*
X111506000Y-46610012D02*
X111506000Y-44157200D01*
X111455198Y-48463198D02*
X111455198Y-46660814D01*
X120665817Y-59578817D02*
X120665817Y-57673817D01*
X122274482Y-62450501D02*
X120665817Y-60841836D01*
X120665817Y-60841836D02*
X120665817Y-59578817D01*
X120100599Y-60983725D02*
X121496665Y-62379791D01*
X119784725Y-60983725D02*
X120100599Y-60983725D01*
X119289751Y-60488751D02*
X119784725Y-60983725D01*
X121496665Y-62379791D02*
X121920928Y-62804054D01*
X126618000Y-47244000D02*
X126618000Y-44068000D01*
X126618000Y-44068000D02*
X125950000Y-43400000D01*
X125950000Y-43400000D02*
X125950000Y-42426000D01*
X134646000Y-79346000D02*
X134525801Y-79346000D01*
X134525801Y-78377159D02*
X134464841Y-78316199D01*
X129314484Y-72418191D02*
X128921285Y-72024992D01*
X134525801Y-79346000D02*
X134525801Y-78377159D01*
X134464841Y-78316199D02*
X133434199Y-78316199D01*
X133434199Y-78316199D02*
X130459022Y-75341022D01*
X130459021Y-73595824D02*
X129314484Y-72451287D01*
X130459022Y-75341022D02*
X130459021Y-73595824D01*
X129314484Y-72451287D02*
X129314484Y-72418191D01*
X128921285Y-72024992D02*
X128921285Y-71925732D01*
X129668037Y-72196994D02*
X129668037Y-71965377D01*
X129720894Y-72249851D02*
X129668037Y-72196994D01*
X129668037Y-71965377D02*
X129274839Y-71572179D01*
X133723037Y-77909789D02*
X130865430Y-75052182D01*
X130865430Y-73427483D02*
X129720894Y-72282947D01*
X134633181Y-77909789D02*
X133723037Y-77909789D01*
X135825801Y-78377159D02*
X135764841Y-78316199D01*
X130865430Y-75052182D02*
X130865430Y-73427483D01*
X135039591Y-78316199D02*
X134633181Y-77909789D01*
X129720894Y-72282947D02*
X129720894Y-72249851D01*
X135825801Y-79225801D02*
X135825801Y-78377159D01*
X135946000Y-79346000D02*
X135825801Y-79225801D01*
X135764841Y-78316199D02*
X135039591Y-78316199D01*
X129628392Y-71317886D02*
X129628392Y-71218625D01*
X137125801Y-78377159D02*
X137064841Y-78316199D01*
X130127304Y-72081511D02*
X130074447Y-72028654D01*
X131271840Y-74883842D02*
X131271839Y-73259142D01*
X130074447Y-72028654D02*
X130074447Y-71797037D01*
X133891377Y-77503379D02*
X131271840Y-74883842D01*
X130074447Y-71797037D02*
X130021591Y-71744181D01*
X130021591Y-71744181D02*
X130021591Y-71711085D01*
X135207931Y-77909789D02*
X134801521Y-77503379D01*
X131271839Y-73259142D02*
X130127304Y-72114607D01*
X136339591Y-78316199D02*
X135933181Y-77909789D01*
X130127304Y-72114607D02*
X130127304Y-72081511D01*
X137125801Y-79225801D02*
X137125801Y-78377159D01*
X134801521Y-77503379D02*
X133891377Y-77503379D01*
X137246000Y-79346000D02*
X137125801Y-79225801D01*
X135933181Y-77909789D02*
X135207931Y-77909789D01*
X137064841Y-78316199D02*
X136339591Y-78316199D01*
X130021591Y-71711085D02*
X129628392Y-71317886D01*
X138462874Y-79346000D02*
X138425801Y-79308927D01*
X136507930Y-77909788D02*
X136101521Y-77503378D01*
X134969861Y-77096968D02*
X134059716Y-77096968D01*
X135376270Y-77503378D02*
X134969861Y-77096968D01*
X138546000Y-79346000D02*
X138462874Y-79346000D01*
X131678248Y-73090801D02*
X130533715Y-71946268D01*
X138425801Y-79308927D02*
X138425801Y-78377159D01*
X134059716Y-77096968D02*
X131678249Y-74715501D01*
X138425801Y-78377159D02*
X138364841Y-78316199D01*
X136101521Y-77503378D02*
X135376270Y-77503378D01*
X130375144Y-71258270D02*
X129981946Y-70865072D01*
X138364841Y-78316199D02*
X137532212Y-78316199D01*
X137532212Y-78316199D02*
X137532212Y-78208819D01*
X130375146Y-71489889D02*
X130375146Y-71258272D01*
X137532212Y-78208819D02*
X137233181Y-77909788D01*
X137233181Y-77909788D02*
X136507930Y-77909788D01*
X131678249Y-74715501D02*
X131678248Y-73090801D01*
X130533715Y-71946268D02*
X130533715Y-71913171D01*
X130480858Y-71628697D02*
X130428002Y-71575841D01*
X130533715Y-71913171D02*
X130480858Y-71860314D01*
X130480858Y-71860314D02*
X130480858Y-71628697D01*
X130428002Y-71575841D02*
X130428002Y-71542745D01*
X130428002Y-71542745D02*
X130375146Y-71489889D01*
X130375146Y-71258272D02*
X130375144Y-71258270D01*
X126304750Y-77851000D02*
X125110963Y-76657213D01*
X129044962Y-77851000D02*
X126304750Y-77851000D01*
X118126610Y-78500205D02*
X117044758Y-79582057D01*
X119654502Y-77700706D02*
X118855003Y-78500205D01*
X125110963Y-76657213D02*
X120803524Y-76657213D01*
X119760031Y-77700706D02*
X119654502Y-77700706D01*
X118855003Y-78500205D02*
X118126610Y-78500205D01*
X120803524Y-76657213D02*
X119760031Y-77700706D01*
X128567732Y-72279285D02*
X130052612Y-73764165D01*
X117044758Y-79582057D02*
X116505943Y-79582057D01*
X130052612Y-73764165D02*
X130052612Y-76843350D01*
X130052612Y-76843350D02*
X129044962Y-77851000D01*
X113933459Y-80671000D02*
X112874000Y-80671000D01*
X115189000Y-82550000D02*
X114807991Y-82168991D01*
X114807991Y-82168991D02*
X114807991Y-81545532D01*
X114807991Y-81545532D02*
X113933459Y-80671000D01*
X117879821Y-78093794D02*
X117206265Y-78767350D01*
X129646201Y-76675010D02*
X128876622Y-77444589D01*
X119486162Y-77294295D02*
X118686663Y-78093794D01*
X118686663Y-78093794D02*
X117879821Y-78093794D01*
X119591691Y-77294295D02*
X119486162Y-77294295D01*
X120635184Y-76250802D02*
X119591691Y-77294295D01*
X125279303Y-76250802D02*
X120635184Y-76250802D01*
X128876622Y-77444589D02*
X126473090Y-77444589D01*
X129646201Y-74064861D02*
X129646201Y-76675010D01*
X128214179Y-72632839D02*
X129646201Y-74064861D01*
X116362800Y-78767350D02*
X115823985Y-78767350D01*
X117206265Y-78767350D02*
X116362800Y-78767350D01*
X126473090Y-77444589D02*
X125279303Y-76250802D01*
X114025907Y-81971000D02*
X114122190Y-81874717D01*
X112874000Y-81971000D02*
X114025907Y-81971000D01*
X119239189Y-75835585D02*
X119239189Y-76092995D01*
X120491558Y-74769316D02*
X120305458Y-74769316D01*
X121920928Y-73339946D02*
X120491558Y-74769316D01*
X120305458Y-74769316D02*
X119239189Y-75835585D01*
X119239189Y-76092995D02*
X119239189Y-76631810D01*
X114156804Y-83271000D02*
X114351494Y-83076310D01*
X112874000Y-83271000D02*
X114156804Y-83271000D01*
X117654182Y-76869177D02*
X117654182Y-77407992D01*
X121143112Y-73410655D02*
X121089368Y-73410655D01*
X121567375Y-72986392D02*
X121143112Y-73410655D01*
X121089368Y-73410655D02*
X117654182Y-76845841D01*
X117654182Y-76845841D02*
X117654182Y-76869177D01*
X112874000Y-84571000D02*
X115153611Y-84571000D01*
X115153611Y-84571000D02*
X115189421Y-84606810D01*
X121213821Y-72632839D02*
X120789558Y-73057102D01*
X117134129Y-76960913D02*
X116537225Y-77557817D01*
X117134129Y-76791143D02*
X117134129Y-76960913D01*
X120789558Y-73057102D02*
X120789558Y-73135714D01*
X120789558Y-73135714D02*
X117134129Y-76791143D01*
X116537225Y-77557817D02*
X116176032Y-77557817D01*
X113918951Y-77472685D02*
X113992320Y-77399316D01*
X115214411Y-81111660D02*
X115214411Y-80984660D01*
X115874801Y-81772050D02*
X115214411Y-81111660D01*
X117845800Y-84571000D02*
X115874801Y-82600001D01*
X113918951Y-79689200D02*
X113918951Y-77472685D01*
X115874801Y-82600001D02*
X115874801Y-81772050D01*
X115214411Y-80984660D02*
X113918951Y-79689200D01*
X118774000Y-84571000D02*
X117845800Y-84571000D01*
X113992320Y-77399316D02*
X113992320Y-76860501D01*
X114325363Y-78101484D02*
X114677409Y-77749439D01*
X114325362Y-79520860D02*
X114325363Y-78101484D01*
X115620822Y-80943320D02*
X115620822Y-80816320D01*
X114677409Y-77749439D02*
X114677409Y-76891952D01*
X114677409Y-76891952D02*
X114709862Y-76859499D01*
X114709862Y-76563744D02*
X114423706Y-76277588D01*
X114709862Y-76859499D02*
X114709862Y-76563744D01*
X117948502Y-83271000D02*
X115620822Y-80943320D01*
X114423706Y-76277588D02*
X114042707Y-75896589D01*
X118774000Y-83271000D02*
X117948502Y-83271000D01*
X115620822Y-80816320D02*
X114325362Y-79520860D01*
X116829326Y-76250811D02*
X116448327Y-76631810D01*
X120361354Y-72973273D02*
X117083816Y-76250811D01*
X120361354Y-72778199D02*
X120361354Y-72973273D01*
X120860268Y-72279285D02*
X120361354Y-72778199D01*
X117083816Y-76250811D02*
X116829326Y-76250811D01*
X115116273Y-77027784D02*
X115116273Y-75393626D01*
X115083820Y-77917779D02*
X115083820Y-77060237D01*
X114731773Y-79352520D02*
X114731773Y-78269825D01*
X117350253Y-81971000D02*
X114731773Y-79352520D01*
X114731773Y-78269825D02*
X115083820Y-77917779D01*
X118774000Y-81971000D02*
X117350253Y-81971000D01*
X115083820Y-77060237D02*
X115116273Y-77027784D01*
X115062703Y-75340056D02*
X115062703Y-74801241D01*
X115116273Y-75393626D02*
X115062703Y-75340056D01*
X116822402Y-74195831D02*
X116426642Y-74195831D01*
X119799608Y-71218625D02*
X116822402Y-74195831D01*
X115760813Y-76957995D02*
X115760813Y-74544988D01*
X115490231Y-78114002D02*
X115490231Y-77228577D01*
X118774000Y-80671000D02*
X116625004Y-80671000D01*
X118318152Y-71289335D02*
X119021791Y-71289335D01*
X115740841Y-73866646D02*
X118318152Y-71289335D01*
X115740841Y-74525016D02*
X115740841Y-73866646D01*
X115490231Y-77228577D02*
X115760813Y-76957995D01*
X119021791Y-71289335D02*
X119446054Y-70865072D01*
X115760813Y-74544988D02*
X115740841Y-74525016D01*
X115138184Y-78466049D02*
X115490231Y-78114002D01*
X115138184Y-79184180D02*
X115138184Y-78466049D01*
X116625004Y-80671000D02*
X115138184Y-79184180D01*
X120634644Y-75333337D02*
X120634644Y-75455118D01*
X122274482Y-73693499D02*
X120634644Y-75333337D01*
X110236000Y-80772000D02*
X108715000Y-80772000D01*
X108715000Y-80772000D02*
X108614000Y-80671000D01*
X122274482Y-73693499D02*
X123450981Y-72517000D01*
X126075007Y-73322094D02*
X126375702Y-73622789D01*
X125155250Y-72517000D02*
X125960343Y-73322094D01*
X126375702Y-73622789D02*
X126799965Y-74047052D01*
X125960343Y-73322094D02*
X126075007Y-73322094D01*
X123450981Y-72517000D02*
X125155250Y-72517000D01*
X106913810Y-81971000D02*
X106857810Y-81915000D01*
X108614000Y-81971000D02*
X106913810Y-81971000D01*
X122628035Y-74047052D02*
X121599489Y-75075598D01*
X121599489Y-75075598D02*
X121599489Y-75428499D01*
X122628035Y-74047052D02*
X123523087Y-73152000D01*
X123523087Y-73152000D02*
X125197806Y-73152000D01*
X125197806Y-73152000D02*
X126022149Y-73976343D01*
X126022149Y-73976343D02*
X126446412Y-74400606D01*
X108614000Y-83271000D02*
X107100882Y-83271000D01*
X107100882Y-83271000D02*
X107032488Y-83202606D01*
X122981588Y-74400606D02*
X122555000Y-74827194D01*
X122555000Y-74827194D02*
X122555000Y-75565000D01*
X122981588Y-74400606D02*
X123405851Y-73976343D01*
X123405851Y-73976343D02*
X125315042Y-73976343D01*
X125315042Y-73976343D02*
X125668595Y-74329896D01*
X125668595Y-74329896D02*
X126092858Y-74754159D01*
X124714000Y-66167000D02*
X127679660Y-66167000D01*
X127679660Y-66167000D02*
X129274839Y-64571821D01*
X119001894Y-68704106D02*
X120650000Y-67056000D01*
X120650000Y-67056000D02*
X122936000Y-67056000D01*
X112649000Y-72263000D02*
X116207894Y-68704106D01*
X116207894Y-68704106D02*
X119001894Y-68704106D01*
X112649000Y-73406000D02*
X112649000Y-72263000D01*
X106045000Y-80010000D02*
X112649000Y-73406000D01*
X106045000Y-83439000D02*
X106045000Y-80010000D01*
X107177000Y-84571000D02*
X106045000Y-83439000D01*
X108614000Y-84571000D02*
X107177000Y-84571000D01*
X105664000Y-79054249D02*
X105638589Y-79079660D01*
X111754417Y-72567822D02*
X108788178Y-72567822D01*
X103642200Y-84571000D02*
X102714000Y-84571000D01*
X105802000Y-84571000D02*
X103642200Y-84571000D01*
X119591415Y-67421246D02*
X118714966Y-68297695D01*
X105638589Y-79079660D02*
X105638589Y-83607340D01*
X118714966Y-68297695D02*
X116024544Y-68297695D01*
X119092501Y-65632482D02*
X119591415Y-66131396D01*
X106172000Y-84140750D02*
X106172000Y-84201000D01*
X108788178Y-72567822D02*
X105664000Y-75692000D01*
X106172000Y-84201000D02*
X105802000Y-84571000D01*
X119591415Y-66131396D02*
X119591415Y-67421246D01*
X116024544Y-68297695D02*
X111754417Y-72567822D01*
X105664000Y-75692000D02*
X105664000Y-79054249D01*
X105638589Y-83607340D02*
X106172000Y-84140750D01*
X119185004Y-67252906D02*
X118546626Y-67891284D01*
X118546626Y-67891284D02*
X115856204Y-67891284D01*
X108499340Y-72161411D02*
X105029000Y-75631750D01*
X105029000Y-81884200D02*
X103642200Y-83271000D01*
X119185004Y-66432091D02*
X119185004Y-67252906D01*
X111586077Y-72161411D02*
X108499340Y-72161411D01*
X115856204Y-67891284D02*
X111586077Y-72161411D01*
X105029000Y-75631750D02*
X105029000Y-81884200D01*
X103642200Y-83271000D02*
X102714000Y-83271000D01*
X118738948Y-65986035D02*
X119185004Y-66432091D01*
X104521000Y-81092200D02*
X103642200Y-81971000D01*
X115732843Y-67439894D02*
X111417737Y-71755000D01*
X118778593Y-66732787D02*
X118778593Y-67084566D01*
X118385394Y-66339588D02*
X118778593Y-66732787D01*
X118423265Y-67439894D02*
X115732843Y-67439894D01*
X108330999Y-71755000D02*
X104521000Y-75565000D01*
X118778593Y-67084566D02*
X118423265Y-67439894D01*
X111417737Y-71755000D02*
X108330999Y-71755000D01*
X104521000Y-75565000D02*
X104521000Y-81092200D01*
X103642200Y-81971000D02*
X102714000Y-81971000D01*
X103642200Y-80671000D02*
X104013000Y-80300200D01*
X111427199Y-68023801D02*
X114474185Y-68023801D01*
X104013000Y-80300200D02*
X104013000Y-75438000D01*
X117755064Y-66693142D02*
X118031841Y-66693142D01*
X115804844Y-66693142D02*
X117755064Y-66693142D01*
X114474185Y-68023801D02*
X115804844Y-66693142D01*
X102714000Y-80671000D02*
X103642200Y-80671000D01*
X104013000Y-75438000D02*
X111427199Y-68023801D01*
X130378200Y-54017830D02*
X125178200Y-48817830D01*
X125178200Y-43560301D02*
X125300000Y-43438501D01*
X125178200Y-48817830D02*
X125178200Y-43560301D01*
X125300000Y-43438501D02*
X125300000Y-42426000D01*
X130378200Y-59159635D02*
X130378200Y-54017830D01*
X127153518Y-62450501D02*
X127153518Y-62384317D01*
X127153518Y-62384317D02*
X130378200Y-59159635D01*
X129971800Y-54186170D02*
X124771800Y-48986170D01*
X124771800Y-48986170D02*
X124771800Y-43560301D01*
X124771800Y-43560301D02*
X124650000Y-43438501D01*
X124650000Y-43438501D02*
X124650000Y-42426000D01*
X129971800Y-58991297D02*
X129971800Y-54186170D01*
X126799965Y-62096948D02*
X126866149Y-62096948D01*
X126866149Y-62096948D02*
X129971800Y-58991297D01*
X135466000Y-39878000D02*
X135466000Y-41656000D01*
X129159000Y-50038000D02*
X133266000Y-45931000D01*
X133266000Y-45931000D02*
X133266000Y-41656000D01*
X122047000Y-57150000D02*
X125984000Y-53213000D01*
X122047000Y-61214000D02*
X122047000Y-57150000D01*
X122152131Y-61319131D02*
X122047000Y-61214000D01*
X122981588Y-61743394D02*
X122557325Y-61319131D01*
X122557325Y-61319131D02*
X122152131Y-61319131D01*
X101219000Y-94222000D02*
X101219000Y-88168815D01*
X101445000Y-94448000D02*
X101219000Y-94222000D01*
X101219000Y-88168815D02*
X101219000Y-87630000D01*
X101346000Y-77089000D02*
X101346000Y-76550185D01*
X101346000Y-76550185D02*
X101473000Y-76423185D01*
X101473000Y-76423185D02*
X101473000Y-76344200D01*
X101473000Y-76344200D02*
X101473000Y-75691000D01*
X142296000Y-57804000D02*
X142296000Y-59304000D01*
X142296000Y-59304000D02*
X142555000Y-59563000D01*
X105791000Y-68866000D02*
X106807000Y-67850000D01*
X105791000Y-68866000D02*
X105791000Y-68961000D01*
X104680000Y-69977000D02*
X105791000Y-68866000D01*
X105791000Y-68961000D02*
X105918000Y-69088000D01*
X104455000Y-69977000D02*
X104680000Y-69977000D01*
X106807000Y-67850000D02*
X106807000Y-67498000D01*
X135321000Y-68723000D02*
X135321000Y-67630000D01*
X135321000Y-67630000D02*
X134275751Y-66584751D01*
X132715000Y-66693142D02*
X134167360Y-66693142D01*
X131396159Y-66693142D02*
X132715000Y-66693142D01*
X132715000Y-66693142D02*
X132715000Y-66421000D01*
X134167360Y-66693142D02*
X134275751Y-66584751D01*
X147945000Y-94488000D02*
X147945000Y-91313000D01*
X140655000Y-59563000D02*
X140208000Y-59563000D01*
X140208000Y-59563000D02*
X139573000Y-58928000D01*
X138491000Y-59563000D02*
X138938000Y-59563000D01*
X138938000Y-59563000D02*
X139573000Y-58928000D01*
X140655000Y-59563000D02*
X138491000Y-59563000D01*
X106807000Y-65598000D02*
X106228800Y-65598000D01*
X106228800Y-65598000D02*
X104605000Y-65598000D01*
X136568000Y-61214000D02*
X136568000Y-59586000D01*
X136568000Y-59586000D02*
X136591000Y-59563000D01*
X132932249Y-65241249D02*
X136627751Y-65241249D01*
X136627751Y-65241249D02*
X137287000Y-64582000D01*
X137287000Y-64582000D02*
X137287000Y-64432000D01*
X131042606Y-66339588D02*
X132140945Y-65241249D01*
X132140945Y-65241249D02*
X132932249Y-65241249D01*
X135759000Y-57154000D02*
X135382000Y-57531000D01*
X135382000Y-57531000D02*
X135382000Y-58264800D01*
X136596000Y-57154000D02*
X135759000Y-57154000D01*
X136596000Y-57804000D02*
X135842800Y-57804000D01*
X135842800Y-57804000D02*
X135382000Y-58264800D01*
X135382000Y-58264800D02*
X135382000Y-59309000D01*
X135636000Y-59563000D02*
X136591000Y-59563000D01*
X135382000Y-59309000D02*
X135636000Y-59563000D01*
X104775000Y-88614800D02*
X104775000Y-85979000D01*
X107445000Y-94488000D02*
X107445000Y-91284800D01*
X107445000Y-91284800D02*
X104775000Y-88614800D01*
X108945000Y-94488000D02*
X108945000Y-85552000D01*
X108945000Y-85552000D02*
X108614000Y-85221000D01*
X109643801Y-91186801D02*
X109643801Y-84022601D01*
X109542200Y-83921000D02*
X108614000Y-83921000D01*
X110445000Y-94488000D02*
X110445000Y-91988000D01*
X110445000Y-91988000D02*
X109643801Y-91186801D01*
X109643801Y-84022601D02*
X109542200Y-83921000D01*
X121031000Y-86487000D02*
X119765000Y-85221000D01*
X119765000Y-85221000D02*
X118774000Y-85221000D01*
X121031000Y-87187000D02*
X121031000Y-86487000D01*
X120945000Y-94488000D02*
X120945000Y-87273000D01*
X120945000Y-87273000D02*
X121031000Y-87187000D01*
X120945000Y-94488000D02*
X120945000Y-91988000D01*
X119803801Y-84370801D02*
X119803801Y-84022601D01*
X122445000Y-94488000D02*
X122445000Y-87012000D01*
X119803801Y-84022601D02*
X119702200Y-83921000D01*
X122445000Y-87012000D02*
X119803801Y-84370801D01*
X119702200Y-83921000D02*
X118774000Y-83921000D01*
X119702200Y-82621000D02*
X118774000Y-82621000D01*
X120210212Y-84202462D02*
X120210212Y-83129012D01*
X123945000Y-87937250D02*
X120210212Y-84202462D01*
X123945000Y-94488000D02*
X123945000Y-87937250D01*
X120210212Y-83129012D02*
X119702200Y-82621000D01*
X133096000Y-87503000D02*
X133996000Y-86603000D01*
X133996000Y-86603000D02*
X133996000Y-85246000D01*
X131430000Y-87503000D02*
X133096000Y-87503000D01*
X126945000Y-94488000D02*
X126945000Y-91988000D01*
X126945000Y-91988000D02*
X131430000Y-87503000D01*
X133858000Y-88265000D02*
X135296000Y-86827000D01*
X135296000Y-86827000D02*
X135296000Y-85246000D01*
X132168000Y-88265000D02*
X133858000Y-88265000D01*
X128445000Y-94488000D02*
X128445000Y-91988000D01*
X128445000Y-91988000D02*
X132168000Y-88265000D01*
X134239000Y-89281000D02*
X136596000Y-86924000D01*
X136596000Y-86924000D02*
X136596000Y-85246000D01*
X132652000Y-89281000D02*
X134239000Y-89281000D01*
X129945000Y-94488000D02*
X129945000Y-91988000D01*
X129945000Y-91988000D02*
X132652000Y-89281000D01*
X137896000Y-86174200D02*
X137896000Y-85246000D01*
X137896000Y-86462250D02*
X137896000Y-86174200D01*
X134594661Y-89763589D02*
X137896000Y-86462250D01*
X133669411Y-89763589D02*
X134594661Y-89763589D01*
X131445000Y-94488000D02*
X131445000Y-91988000D01*
X131445000Y-91988000D02*
X133669411Y-89763589D01*
X137541000Y-56695800D02*
X137541000Y-60137000D01*
X138618000Y-61214000D02*
X138768000Y-61214000D01*
X137541000Y-60137000D02*
X138618000Y-61214000D01*
X136596000Y-56504000D02*
X137349200Y-56504000D01*
X137349200Y-56504000D02*
X137541000Y-56695800D01*
X130689052Y-65986035D02*
X134620000Y-62055087D01*
X134620000Y-62055087D02*
X134620000Y-57076800D01*
X134620000Y-57076800D02*
X135842800Y-55854000D01*
X135842800Y-55854000D02*
X136596000Y-55854000D01*
X133858000Y-62109981D02*
X133858000Y-57188800D01*
X130335499Y-65632482D02*
X133858000Y-62109981D01*
X133858000Y-57188800D02*
X135842800Y-55204000D01*
X135842800Y-55204000D02*
X136596000Y-55204000D01*
X135842800Y-54554000D02*
X136596000Y-54554000D01*
X133451589Y-61809285D02*
X133451589Y-56945211D01*
X133451589Y-56945211D02*
X135842800Y-54554000D01*
X129981946Y-65278928D02*
X133451589Y-61809285D01*
X132816591Y-61737176D02*
X132816591Y-56930209D01*
X135842800Y-53904000D02*
X136596000Y-53904000D01*
X129628392Y-64925375D02*
X132816591Y-61737176D01*
X132816591Y-56930209D02*
X135842800Y-53904000D01*
X132410180Y-60022267D02*
X132410180Y-56686620D01*
X128567732Y-63864715D02*
X132410180Y-60022267D01*
X135842800Y-53254000D02*
X136596000Y-53254000D01*
X132410180Y-56686620D02*
X135842800Y-53254000D01*
X135842800Y-52604000D02*
X136596000Y-52604000D01*
X132003769Y-59721571D02*
X132003769Y-56443031D01*
X128214179Y-63511161D02*
X132003769Y-59721571D01*
X132003769Y-56443031D02*
X135842800Y-52604000D01*
X127860625Y-63157608D02*
X131597358Y-59420875D01*
X131597358Y-56199442D02*
X135842800Y-51954000D01*
X131597358Y-59420875D02*
X131597358Y-56199442D01*
X135842800Y-51954000D02*
X136596000Y-51954000D01*
X131190947Y-55955853D02*
X135842800Y-51304000D01*
X131190947Y-59120179D02*
X131190947Y-55955853D01*
X135842800Y-51304000D02*
X136596000Y-51304000D01*
X127507072Y-62804054D02*
X131190947Y-59120179D01*
X137221000Y-68723000D02*
X137221000Y-66698000D01*
X137221000Y-66698000D02*
X137287000Y-66632000D01*
D35*
G36*
X142590000Y-42230074D02*
X142576091Y-42300000D01*
X142631195Y-42577028D01*
X142788119Y-42811881D01*
X143022972Y-42968805D01*
X143219321Y-43007861D01*
X143300000Y-43023909D01*
X143369925Y-43010000D01*
X148590000Y-43010000D01*
X148590001Y-90853000D01*
X148430750Y-90853000D01*
X148272000Y-91011750D01*
X148272000Y-94361000D01*
X148292000Y-94361000D01*
X148292000Y-94615000D01*
X148272000Y-94615000D01*
X148272000Y-94635000D01*
X148018000Y-94635000D01*
X148018000Y-94615000D01*
X147998000Y-94615000D01*
X147998000Y-94361000D01*
X148018000Y-94361000D01*
X148018000Y-91011750D01*
X147859250Y-90853000D01*
X147318691Y-90853000D01*
X147206916Y-90899299D01*
X147192765Y-90889843D01*
X146945000Y-90840560D01*
X145945000Y-90840560D01*
X145697235Y-90889843D01*
X145695000Y-90891336D01*
X145692765Y-90889843D01*
X145681600Y-90887622D01*
X145681600Y-88756540D01*
X145696029Y-88683999D01*
X145681600Y-88611459D01*
X145681600Y-88611456D01*
X145638861Y-88396593D01*
X145602972Y-88342882D01*
X145517151Y-88214441D01*
X145517149Y-88214439D01*
X145476058Y-88152942D01*
X145414560Y-88111850D01*
X144907000Y-87604291D01*
X144907000Y-87427905D01*
X144752324Y-87054482D01*
X144622782Y-86924940D01*
X146774239Y-84773483D01*
X146835736Y-84732392D01*
X146876827Y-84670895D01*
X146876829Y-84670893D01*
X146998539Y-84488741D01*
X147015253Y-84404715D01*
X147041278Y-84273878D01*
X147041278Y-84273875D01*
X147055707Y-84201334D01*
X147041278Y-84128794D01*
X147041278Y-55282018D01*
X147055707Y-55209477D01*
X147041278Y-55136937D01*
X147041278Y-55136934D01*
X146998539Y-54922071D01*
X146889716Y-54759206D01*
X146876829Y-54739919D01*
X146876827Y-54739917D01*
X146835736Y-54678420D01*
X146774239Y-54637329D01*
X143621351Y-51484442D01*
X143580258Y-51422942D01*
X143337374Y-51260652D01*
X143384327Y-51213699D01*
X143435080Y-51091170D01*
X143481000Y-51045250D01*
X143481000Y-50912750D01*
X143435080Y-50866830D01*
X143384327Y-50744301D01*
X143205698Y-50565673D01*
X143177517Y-50554000D01*
X143322250Y-50554000D01*
X143481000Y-50395250D01*
X143481000Y-50327690D01*
X143384327Y-50094301D01*
X143205698Y-49915673D01*
X142972309Y-49819000D01*
X142581750Y-49819000D01*
X142423000Y-49977750D01*
X142423000Y-50554000D01*
X142496750Y-50554000D01*
X142423000Y-50627750D01*
X142423000Y-50801000D01*
X142169000Y-50801000D01*
X142169000Y-50627750D01*
X142095250Y-50554000D01*
X142169000Y-50554000D01*
X142169000Y-49977750D01*
X142010250Y-49819000D01*
X141619691Y-49819000D01*
X141386302Y-49915673D01*
X141207673Y-50094301D01*
X141111000Y-50327690D01*
X141111000Y-50395250D01*
X141269750Y-50554000D01*
X141414483Y-50554000D01*
X141386302Y-50565673D01*
X141207673Y-50744301D01*
X141156920Y-50866830D01*
X141111000Y-50912750D01*
X141111000Y-51045250D01*
X141156920Y-51091170D01*
X141207673Y-51213699D01*
X141289375Y-51295400D01*
X141288191Y-51296191D01*
X141147843Y-51506235D01*
X141142958Y-51530792D01*
X141111000Y-51562750D01*
X141111000Y-51630310D01*
X141119217Y-51650148D01*
X141098560Y-51754000D01*
X141098560Y-52154000D01*
X141123424Y-52279000D01*
X141098560Y-52404000D01*
X141098560Y-52804000D01*
X141123424Y-52929000D01*
X141098560Y-53054000D01*
X141098560Y-53454000D01*
X141123424Y-53579000D01*
X141098560Y-53704000D01*
X141098560Y-54104000D01*
X141123424Y-54229000D01*
X141098560Y-54354000D01*
X141098560Y-54754000D01*
X141123424Y-54879000D01*
X141098560Y-55004000D01*
X141098560Y-55404000D01*
X141123424Y-55529000D01*
X141098560Y-55654000D01*
X141098560Y-56054000D01*
X141123424Y-56179000D01*
X141098560Y-56304000D01*
X141098560Y-56564932D01*
X141011742Y-56622942D01*
X140971045Y-56683848D01*
X140910142Y-56724543D01*
X140869051Y-56786040D01*
X140869048Y-56786043D01*
X140747338Y-56968195D01*
X140690170Y-57255601D01*
X140704600Y-57328146D01*
X140704599Y-58175300D01*
X140690170Y-58247841D01*
X140704599Y-58320381D01*
X140704599Y-58320384D01*
X140747338Y-58535247D01*
X140823202Y-58648785D01*
X140823202Y-58670548D01*
X140782000Y-58711750D01*
X140782000Y-59436000D01*
X140802000Y-59436000D01*
X140802000Y-59690000D01*
X140782000Y-59690000D01*
X140782000Y-59710000D01*
X140528000Y-59710000D01*
X140528000Y-59690000D01*
X139578750Y-59690000D01*
X139573000Y-59695750D01*
X139567250Y-59690000D01*
X138618000Y-59690000D01*
X138618000Y-59710000D01*
X138364000Y-59710000D01*
X138364000Y-59690000D01*
X138344000Y-59690000D01*
X138344000Y-59436000D01*
X138364000Y-59436000D01*
X138364000Y-58711750D01*
X138618000Y-58711750D01*
X138618000Y-59436000D01*
X139567250Y-59436000D01*
X139573000Y-59430250D01*
X139578750Y-59436000D01*
X140528000Y-59436000D01*
X140528000Y-58711750D01*
X140369250Y-58553000D01*
X139928691Y-58553000D01*
X139695302Y-58649673D01*
X139573000Y-58771974D01*
X139450698Y-58649673D01*
X139217309Y-58553000D01*
X138776750Y-58553000D01*
X138618000Y-58711750D01*
X138364000Y-58711750D01*
X138277600Y-58625350D01*
X138277600Y-56768340D01*
X138292029Y-56695799D01*
X138277600Y-56623257D01*
X138277600Y-56623256D01*
X138234861Y-56408393D01*
X138072058Y-56164742D01*
X138010558Y-56123649D01*
X137921351Y-56034442D01*
X137880258Y-55972942D01*
X137793440Y-55914932D01*
X137793440Y-55654000D01*
X137768576Y-55529000D01*
X137793440Y-55404000D01*
X137793440Y-55004000D01*
X137768576Y-54879000D01*
X137793440Y-54754000D01*
X137793440Y-54354000D01*
X137768576Y-54229000D01*
X137793440Y-54104000D01*
X137793440Y-53704000D01*
X137768576Y-53579000D01*
X137793440Y-53454000D01*
X137793440Y-53054000D01*
X137768576Y-52929000D01*
X137793440Y-52804000D01*
X137793440Y-52404000D01*
X137768576Y-52279000D01*
X137793440Y-52154000D01*
X137793440Y-51754000D01*
X137768576Y-51629000D01*
X137793440Y-51504000D01*
X137793440Y-51104000D01*
X137772783Y-51000148D01*
X137781000Y-50980310D01*
X137781000Y-50912750D01*
X137749042Y-50880792D01*
X137744157Y-50856235D01*
X137603809Y-50646191D01*
X137465836Y-50554000D01*
X137622250Y-50554000D01*
X137781000Y-50395250D01*
X137781000Y-50327690D01*
X137684327Y-50094301D01*
X137505698Y-49915673D01*
X137272309Y-49819000D01*
X136881750Y-49819000D01*
X136723000Y-49977750D01*
X136723000Y-50456560D01*
X136469000Y-50456560D01*
X136469000Y-49977750D01*
X136310250Y-49819000D01*
X135919691Y-49819000D01*
X135686302Y-49915673D01*
X135507673Y-50094301D01*
X135411000Y-50327690D01*
X135411000Y-50395250D01*
X135569750Y-50554000D01*
X135726164Y-50554000D01*
X135678919Y-50585568D01*
X135555393Y-50610139D01*
X135373241Y-50731849D01*
X135373239Y-50731851D01*
X135311742Y-50772942D01*
X135270651Y-50834439D01*
X131114800Y-54990291D01*
X131114800Y-54090370D01*
X131129229Y-54017830D01*
X131114800Y-53945289D01*
X131114800Y-53945286D01*
X131072061Y-53730423D01*
X130996002Y-53616593D01*
X130950351Y-53548271D01*
X130950349Y-53548269D01*
X130909258Y-53486772D01*
X130847761Y-53445681D01*
X125914800Y-48512721D01*
X125914800Y-48438525D01*
X125920235Y-48442157D01*
X126168000Y-48491440D01*
X127068000Y-48491440D01*
X127315765Y-48442157D01*
X127525809Y-48301809D01*
X127666157Y-48091765D01*
X127715440Y-47844000D01*
X127715440Y-46644000D01*
X127666157Y-46396235D01*
X127525809Y-46186191D01*
X127398313Y-46101000D01*
X127583095Y-46101000D01*
X127956518Y-45946324D01*
X128105997Y-45796845D01*
X128196407Y-45778861D01*
X128440058Y-45616058D01*
X128481151Y-45554558D01*
X132018560Y-42017150D01*
X132018560Y-42106000D01*
X132067843Y-42353765D01*
X132208191Y-42563809D01*
X132418235Y-42704157D01*
X132529401Y-42726269D01*
X132529400Y-45625890D01*
X129133291Y-49022000D01*
X128956905Y-49022000D01*
X128583482Y-49176676D01*
X128297676Y-49462482D01*
X128143000Y-49835905D01*
X128143000Y-50240095D01*
X128297676Y-50613518D01*
X128583482Y-50899324D01*
X128956905Y-51054000D01*
X129361095Y-51054000D01*
X129734518Y-50899324D01*
X130020324Y-50613518D01*
X130175000Y-50240095D01*
X130175000Y-50063709D01*
X133735561Y-46503149D01*
X133797058Y-46462058D01*
X133838149Y-46400561D01*
X133838151Y-46400559D01*
X133959861Y-46218407D01*
X133977495Y-46129756D01*
X134002600Y-46003544D01*
X134002600Y-46003541D01*
X134017029Y-45931001D01*
X134002600Y-45858460D01*
X134002600Y-42726269D01*
X134113765Y-42704157D01*
X134323809Y-42563809D01*
X134366000Y-42500666D01*
X134408191Y-42563809D01*
X134618235Y-42704157D01*
X134866000Y-42753440D01*
X136066000Y-42753440D01*
X136313765Y-42704157D01*
X136523809Y-42563809D01*
X136664157Y-42353765D01*
X136713440Y-42106000D01*
X136713440Y-41206000D01*
X136664157Y-40958235D01*
X136536377Y-40767000D01*
X136664157Y-40575765D01*
X136669155Y-40550639D01*
X136676358Y-40565115D01*
X136684188Y-40575244D01*
X136688029Y-40587453D01*
X136727189Y-40658943D01*
X136736538Y-40670099D01*
X136741524Y-40683777D01*
X136782752Y-40751639D01*
X136793052Y-40762868D01*
X136798937Y-40776924D01*
X136842139Y-40841050D01*
X136853487Y-40852312D01*
X136860379Y-40866737D01*
X136905456Y-40927018D01*
X136917956Y-40938258D01*
X136925980Y-40953033D01*
X136972838Y-41009363D01*
X136986612Y-41020515D01*
X136995905Y-41035601D01*
X137044448Y-41087870D01*
X137059599Y-41098824D01*
X137070305Y-41114151D01*
X137120437Y-41162252D01*
X137137080Y-41172881D01*
X137149353Y-41188354D01*
X137200978Y-41232178D01*
X137219208Y-41242315D01*
X137233192Y-41257788D01*
X137286214Y-41297228D01*
X137306099Y-41306667D01*
X137321932Y-41321958D01*
X137376255Y-41356903D01*
X137397820Y-41365399D01*
X137415600Y-41380268D01*
X137471128Y-41410613D01*
X137485899Y-41415244D01*
X137498232Y-41424596D01*
X137510649Y-41430632D01*
X137524670Y-41434304D01*
X137536598Y-41442538D01*
X137582665Y-41462443D01*
X137602235Y-41466645D01*
X137619377Y-41476979D01*
X137668894Y-41494839D01*
X137686664Y-41497521D01*
X137702542Y-41505932D01*
X137754695Y-41521540D01*
X137771428Y-41523125D01*
X137786669Y-41530214D01*
X137840642Y-41543366D01*
X137857009Y-41544065D01*
X137872192Y-41550216D01*
X137927171Y-41560708D01*
X137943798Y-41560579D01*
X137959509Y-41566025D01*
X138014679Y-41573651D01*
X138032191Y-41572617D01*
X138049052Y-41577459D01*
X138103598Y-41582014D01*
X138116972Y-41580496D01*
X138130054Y-41583673D01*
X138150286Y-41584521D01*
X138158159Y-41583295D01*
X138165943Y-41584985D01*
X138196950Y-41585525D01*
X138204060Y-41584239D01*
X138211155Y-41585615D01*
X138244400Y-41585456D01*
X138250551Y-41584202D01*
X138256736Y-41585278D01*
X138290813Y-41584458D01*
X138296850Y-41583105D01*
X138302963Y-41584050D01*
X138336458Y-41582607D01*
X138343192Y-41580963D01*
X138350064Y-41581876D01*
X138381570Y-41579846D01*
X138390102Y-41577570D01*
X138398879Y-41578494D01*
X138426984Y-41575916D01*
X138435918Y-41573271D01*
X138445209Y-41573981D01*
X138489671Y-41568615D01*
X138498424Y-41565749D01*
X138507623Y-41566190D01*
X138555277Y-41559065D01*
X138566647Y-41554982D01*
X138578729Y-41555112D01*
X138623360Y-41546733D01*
X138636355Y-41541514D01*
X138650351Y-41541061D01*
X138692899Y-41531158D01*
X138706697Y-41524913D01*
X138721796Y-41523718D01*
X138763201Y-41512022D01*
X138776784Y-41505094D01*
X138791914Y-41503179D01*
X138833119Y-41489421D01*
X138845544Y-41482330D01*
X138859642Y-41479911D01*
X138901585Y-41463822D01*
X138912159Y-41457154D01*
X138924388Y-41454568D01*
X138968012Y-41435880D01*
X138976456Y-41430090D01*
X138986399Y-41427658D01*
X139032644Y-41406101D01*
X139036229Y-41403473D01*
X139040530Y-41402359D01*
X139041785Y-41401753D01*
X139042347Y-41401329D01*
X139043028Y-41401151D01*
X139057336Y-41394204D01*
X139058837Y-41393067D01*
X139060656Y-41392580D01*
X139074542Y-41385739D01*
X139076330Y-41384368D01*
X139078502Y-41383771D01*
X139092272Y-41376868D01*
X139094294Y-41375295D01*
X139096757Y-41374597D01*
X139110717Y-41367462D01*
X139112756Y-41365850D01*
X139115249Y-41365122D01*
X139129707Y-41357585D01*
X139131681Y-41355999D01*
X139134106Y-41355270D01*
X139149371Y-41347162D01*
X139151160Y-41345701D01*
X139153367Y-41345021D01*
X139169743Y-41336173D01*
X139171303Y-41334881D01*
X139173236Y-41334272D01*
X139191031Y-41324514D01*
X139192331Y-41323423D01*
X139193947Y-41322905D01*
X139213468Y-41312068D01*
X139214518Y-41311178D01*
X139215829Y-41310751D01*
X139237383Y-41298666D01*
X139238214Y-41297955D01*
X139239254Y-41297613D01*
X139263147Y-41284111D01*
X139263787Y-41283560D01*
X139264586Y-41283295D01*
X139291127Y-41268206D01*
X139291610Y-41267788D01*
X139292217Y-41267585D01*
X139321712Y-41250740D01*
X139322075Y-41250424D01*
X139322532Y-41250271D01*
X139355287Y-41231500D01*
X139355538Y-41231282D01*
X139355854Y-41231175D01*
X139392176Y-41210310D01*
X139392354Y-41210155D01*
X139392578Y-41210079D01*
X139432504Y-41187105D01*
X139432508Y-41187104D01*
X139445883Y-41179416D01*
X139488205Y-41155301D01*
X139525645Y-41134316D01*
X139558789Y-41116136D01*
X139588109Y-41100480D01*
X139614023Y-41087091D01*
X139637175Y-41075587D01*
X139658020Y-41065683D01*
X139677594Y-41056835D01*
X139696732Y-41048632D01*
X139716397Y-41040647D01*
X139737672Y-41032454D01*
X139761185Y-41023834D01*
X139788295Y-41014314D01*
X139854454Y-40991804D01*
X139938358Y-40964159D01*
X140017578Y-40939137D01*
X140093249Y-40916383D01*
X140165805Y-40895763D01*
X140235954Y-40877069D01*
X140304219Y-40860147D01*
X140371502Y-40844760D01*
X140438419Y-40830756D01*
X140505742Y-40817964D01*
X140574270Y-40806227D01*
X140644623Y-40795436D01*
X140717572Y-40785468D01*
X140793850Y-40776216D01*
X140875316Y-40767461D01*
X140890003Y-40765994D01*
X140941351Y-40761130D01*
X140992851Y-40756652D01*
X141045283Y-40752499D01*
X141099262Y-40748634D01*
X141155392Y-40745025D01*
X141213693Y-40741677D01*
X141275135Y-40738542D01*
X141339642Y-40735629D01*
X141408080Y-40732900D01*
X141480246Y-40730365D01*
X141557000Y-40727988D01*
X141639194Y-40725740D01*
X141648071Y-40725511D01*
X141648312Y-40725457D01*
X141648553Y-40725498D01*
X141699524Y-40724144D01*
X141700063Y-40724022D01*
X141700611Y-40724115D01*
X141747031Y-40722803D01*
X141747777Y-40722632D01*
X141748528Y-40722758D01*
X141790644Y-40721469D01*
X141791654Y-40721236D01*
X141792680Y-40721404D01*
X141830736Y-40720118D01*
X141832077Y-40719804D01*
X141833438Y-40720021D01*
X141867681Y-40718719D01*
X141869433Y-40718301D01*
X141871213Y-40718575D01*
X141901885Y-40717239D01*
X141904194Y-40716674D01*
X141906545Y-40717019D01*
X141933893Y-40715628D01*
X141936889Y-40714872D01*
X141939950Y-40715291D01*
X141964216Y-40713826D01*
X141968082Y-40712812D01*
X141972048Y-40713305D01*
X141993483Y-40711747D01*
X141998457Y-40710376D01*
X142003584Y-40710932D01*
X142022427Y-40709262D01*
X142028779Y-40707403D01*
X142035372Y-40707982D01*
X142051872Y-40706181D01*
X142059970Y-40703631D01*
X142068445Y-40704153D01*
X142082845Y-40702200D01*
X142092939Y-40698730D01*
X142103607Y-40699036D01*
X142116153Y-40696913D01*
X142128525Y-40692200D01*
X142141761Y-40692041D01*
X142152696Y-40689729D01*
X142167370Y-40683443D01*
X142183307Y-40682467D01*
X142192878Y-40679946D01*
X142209484Y-40671845D01*
X142227831Y-40669668D01*
X142236283Y-40666919D01*
X142253850Y-40657074D01*
X142273663Y-40653465D01*
X142281240Y-40650469D01*
X142298267Y-40639486D01*
X142317932Y-40634618D01*
X142324881Y-40631355D01*
X142345825Y-40615912D01*
X142370502Y-40607652D01*
X142377719Y-40603526D01*
X142396315Y-40587357D01*
X142403552Y-40584774D01*
X142428338Y-40562345D01*
X142468649Y-40540529D01*
X142483544Y-40528175D01*
X142510405Y-40495096D01*
X142525473Y-40485671D01*
X142545361Y-40457763D01*
X142566162Y-40439676D01*
X142568018Y-40435952D01*
X142588714Y-40417225D01*
X142590000Y-40415493D01*
X142590000Y-42230074D01*
X142590000Y-42230074D01*
G37*
X142590000Y-42230074D02*
X142576091Y-42300000D01*
X142631195Y-42577028D01*
X142788119Y-42811881D01*
X143022972Y-42968805D01*
X143219321Y-43007861D01*
X143300000Y-43023909D01*
X143369925Y-43010000D01*
X148590000Y-43010000D01*
X148590001Y-90853000D01*
X148430750Y-90853000D01*
X148272000Y-91011750D01*
X148272000Y-94361000D01*
X148292000Y-94361000D01*
X148292000Y-94615000D01*
X148272000Y-94615000D01*
X148272000Y-94635000D01*
X148018000Y-94635000D01*
X148018000Y-94615000D01*
X147998000Y-94615000D01*
X147998000Y-94361000D01*
X148018000Y-94361000D01*
X148018000Y-91011750D01*
X147859250Y-90853000D01*
X147318691Y-90853000D01*
X147206916Y-90899299D01*
X147192765Y-90889843D01*
X146945000Y-90840560D01*
X145945000Y-90840560D01*
X145697235Y-90889843D01*
X145695000Y-90891336D01*
X145692765Y-90889843D01*
X145681600Y-90887622D01*
X145681600Y-88756540D01*
X145696029Y-88683999D01*
X145681600Y-88611459D01*
X145681600Y-88611456D01*
X145638861Y-88396593D01*
X145602972Y-88342882D01*
X145517151Y-88214441D01*
X145517149Y-88214439D01*
X145476058Y-88152942D01*
X145414560Y-88111850D01*
X144907000Y-87604291D01*
X144907000Y-87427905D01*
X144752324Y-87054482D01*
X144622782Y-86924940D01*
X146774239Y-84773483D01*
X146835736Y-84732392D01*
X146876827Y-84670895D01*
X146876829Y-84670893D01*
X146998539Y-84488741D01*
X147015253Y-84404715D01*
X147041278Y-84273878D01*
X147041278Y-84273875D01*
X147055707Y-84201334D01*
X147041278Y-84128794D01*
X147041278Y-55282018D01*
X147055707Y-55209477D01*
X147041278Y-55136937D01*
X147041278Y-55136934D01*
X146998539Y-54922071D01*
X146889716Y-54759206D01*
X146876829Y-54739919D01*
X146876827Y-54739917D01*
X146835736Y-54678420D01*
X146774239Y-54637329D01*
X143621351Y-51484442D01*
X143580258Y-51422942D01*
X143337374Y-51260652D01*
X143384327Y-51213699D01*
X143435080Y-51091170D01*
X143481000Y-51045250D01*
X143481000Y-50912750D01*
X143435080Y-50866830D01*
X143384327Y-50744301D01*
X143205698Y-50565673D01*
X143177517Y-50554000D01*
X143322250Y-50554000D01*
X143481000Y-50395250D01*
X143481000Y-50327690D01*
X143384327Y-50094301D01*
X143205698Y-49915673D01*
X142972309Y-49819000D01*
X142581750Y-49819000D01*
X142423000Y-49977750D01*
X142423000Y-50554000D01*
X142496750Y-50554000D01*
X142423000Y-50627750D01*
X142423000Y-50801000D01*
X142169000Y-50801000D01*
X142169000Y-50627750D01*
X142095250Y-50554000D01*
X142169000Y-50554000D01*
X142169000Y-49977750D01*
X142010250Y-49819000D01*
X141619691Y-49819000D01*
X141386302Y-49915673D01*
X141207673Y-50094301D01*
X141111000Y-50327690D01*
X141111000Y-50395250D01*
X141269750Y-50554000D01*
X141414483Y-50554000D01*
X141386302Y-50565673D01*
X141207673Y-50744301D01*
X141156920Y-50866830D01*
X141111000Y-50912750D01*
X141111000Y-51045250D01*
X141156920Y-51091170D01*
X141207673Y-51213699D01*
X141289375Y-51295400D01*
X141288191Y-51296191D01*
X141147843Y-51506235D01*
X141142958Y-51530792D01*
X141111000Y-51562750D01*
X141111000Y-51630310D01*
X141119217Y-51650148D01*
X141098560Y-51754000D01*
X141098560Y-52154000D01*
X141123424Y-52279000D01*
X141098560Y-52404000D01*
X141098560Y-52804000D01*
X141123424Y-52929000D01*
X141098560Y-53054000D01*
X141098560Y-53454000D01*
X141123424Y-53579000D01*
X141098560Y-53704000D01*
X141098560Y-54104000D01*
X141123424Y-54229000D01*
X141098560Y-54354000D01*
X141098560Y-54754000D01*
X141123424Y-54879000D01*
X141098560Y-55004000D01*
X141098560Y-55404000D01*
X141123424Y-55529000D01*
X141098560Y-55654000D01*
X141098560Y-56054000D01*
X141123424Y-56179000D01*
X141098560Y-56304000D01*
X141098560Y-56564932D01*
X141011742Y-56622942D01*
X140971045Y-56683848D01*
X140910142Y-56724543D01*
X140869051Y-56786040D01*
X140869048Y-56786043D01*
X140747338Y-56968195D01*
X140690170Y-57255601D01*
X140704600Y-57328146D01*
X140704599Y-58175300D01*
X140690170Y-58247841D01*
X140704599Y-58320381D01*
X140704599Y-58320384D01*
X140747338Y-58535247D01*
X140823202Y-58648785D01*
X140823202Y-58670548D01*
X140782000Y-58711750D01*
X140782000Y-59436000D01*
X140802000Y-59436000D01*
X140802000Y-59690000D01*
X140782000Y-59690000D01*
X140782000Y-59710000D01*
X140528000Y-59710000D01*
X140528000Y-59690000D01*
X139578750Y-59690000D01*
X139573000Y-59695750D01*
X139567250Y-59690000D01*
X138618000Y-59690000D01*
X138618000Y-59710000D01*
X138364000Y-59710000D01*
X138364000Y-59690000D01*
X138344000Y-59690000D01*
X138344000Y-59436000D01*
X138364000Y-59436000D01*
X138364000Y-58711750D01*
X138618000Y-58711750D01*
X138618000Y-59436000D01*
X139567250Y-59436000D01*
X139573000Y-59430250D01*
X139578750Y-59436000D01*
X140528000Y-59436000D01*
X140528000Y-58711750D01*
X140369250Y-58553000D01*
X139928691Y-58553000D01*
X139695302Y-58649673D01*
X139573000Y-58771974D01*
X139450698Y-58649673D01*
X139217309Y-58553000D01*
X138776750Y-58553000D01*
X138618000Y-58711750D01*
X138364000Y-58711750D01*
X138277600Y-58625350D01*
X138277600Y-56768340D01*
X138292029Y-56695799D01*
X138277600Y-56623257D01*
X138277600Y-56623256D01*
X138234861Y-56408393D01*
X138072058Y-56164742D01*
X138010558Y-56123649D01*
X137921351Y-56034442D01*
X137880258Y-55972942D01*
X137793440Y-55914932D01*
X137793440Y-55654000D01*
X137768576Y-55529000D01*
X137793440Y-55404000D01*
X137793440Y-55004000D01*
X137768576Y-54879000D01*
X137793440Y-54754000D01*
X137793440Y-54354000D01*
X137768576Y-54229000D01*
X137793440Y-54104000D01*
X137793440Y-53704000D01*
X137768576Y-53579000D01*
X137793440Y-53454000D01*
X137793440Y-53054000D01*
X137768576Y-52929000D01*
X137793440Y-52804000D01*
X137793440Y-52404000D01*
X137768576Y-52279000D01*
X137793440Y-52154000D01*
X137793440Y-51754000D01*
X137768576Y-51629000D01*
X137793440Y-51504000D01*
X137793440Y-51104000D01*
X137772783Y-51000148D01*
X137781000Y-50980310D01*
X137781000Y-50912750D01*
X137749042Y-50880792D01*
X137744157Y-50856235D01*
X137603809Y-50646191D01*
X137465836Y-50554000D01*
X137622250Y-50554000D01*
X137781000Y-50395250D01*
X137781000Y-50327690D01*
X137684327Y-50094301D01*
X137505698Y-49915673D01*
X137272309Y-49819000D01*
X136881750Y-49819000D01*
X136723000Y-49977750D01*
X136723000Y-50456560D01*
X136469000Y-50456560D01*
X136469000Y-49977750D01*
X136310250Y-49819000D01*
X135919691Y-49819000D01*
X135686302Y-49915673D01*
X135507673Y-50094301D01*
X135411000Y-50327690D01*
X135411000Y-50395250D01*
X135569750Y-50554000D01*
X135726164Y-50554000D01*
X135678919Y-50585568D01*
X135555393Y-50610139D01*
X135373241Y-50731849D01*
X135373239Y-50731851D01*
X135311742Y-50772942D01*
X135270651Y-50834439D01*
X131114800Y-54990291D01*
X131114800Y-54090370D01*
X131129229Y-54017830D01*
X131114800Y-53945289D01*
X131114800Y-53945286D01*
X131072061Y-53730423D01*
X130996002Y-53616593D01*
X130950351Y-53548271D01*
X130950349Y-53548269D01*
X130909258Y-53486772D01*
X130847761Y-53445681D01*
X125914800Y-48512721D01*
X125914800Y-48438525D01*
X125920235Y-48442157D01*
X126168000Y-48491440D01*
X127068000Y-48491440D01*
X127315765Y-48442157D01*
X127525809Y-48301809D01*
X127666157Y-48091765D01*
X127715440Y-47844000D01*
X127715440Y-46644000D01*
X127666157Y-46396235D01*
X127525809Y-46186191D01*
X127398313Y-46101000D01*
X127583095Y-46101000D01*
X127956518Y-45946324D01*
X128105997Y-45796845D01*
X128196407Y-45778861D01*
X128440058Y-45616058D01*
X128481151Y-45554558D01*
X132018560Y-42017150D01*
X132018560Y-42106000D01*
X132067843Y-42353765D01*
X132208191Y-42563809D01*
X132418235Y-42704157D01*
X132529401Y-42726269D01*
X132529400Y-45625890D01*
X129133291Y-49022000D01*
X128956905Y-49022000D01*
X128583482Y-49176676D01*
X128297676Y-49462482D01*
X128143000Y-49835905D01*
X128143000Y-50240095D01*
X128297676Y-50613518D01*
X128583482Y-50899324D01*
X128956905Y-51054000D01*
X129361095Y-51054000D01*
X129734518Y-50899324D01*
X130020324Y-50613518D01*
X130175000Y-50240095D01*
X130175000Y-50063709D01*
X133735561Y-46503149D01*
X133797058Y-46462058D01*
X133838149Y-46400561D01*
X133838151Y-46400559D01*
X133959861Y-46218407D01*
X133977495Y-46129756D01*
X134002600Y-46003544D01*
X134002600Y-46003541D01*
X134017029Y-45931001D01*
X134002600Y-45858460D01*
X134002600Y-42726269D01*
X134113765Y-42704157D01*
X134323809Y-42563809D01*
X134366000Y-42500666D01*
X134408191Y-42563809D01*
X134618235Y-42704157D01*
X134866000Y-42753440D01*
X136066000Y-42753440D01*
X136313765Y-42704157D01*
X136523809Y-42563809D01*
X136664157Y-42353765D01*
X136713440Y-42106000D01*
X136713440Y-41206000D01*
X136664157Y-40958235D01*
X136536377Y-40767000D01*
X136664157Y-40575765D01*
X136669155Y-40550639D01*
X136676358Y-40565115D01*
X136684188Y-40575244D01*
X136688029Y-40587453D01*
X136727189Y-40658943D01*
X136736538Y-40670099D01*
X136741524Y-40683777D01*
X136782752Y-40751639D01*
X136793052Y-40762868D01*
X136798937Y-40776924D01*
X136842139Y-40841050D01*
X136853487Y-40852312D01*
X136860379Y-40866737D01*
X136905456Y-40927018D01*
X136917956Y-40938258D01*
X136925980Y-40953033D01*
X136972838Y-41009363D01*
X136986612Y-41020515D01*
X136995905Y-41035601D01*
X137044448Y-41087870D01*
X137059599Y-41098824D01*
X137070305Y-41114151D01*
X137120437Y-41162252D01*
X137137080Y-41172881D01*
X137149353Y-41188354D01*
X137200978Y-41232178D01*
X137219208Y-41242315D01*
X137233192Y-41257788D01*
X137286214Y-41297228D01*
X137306099Y-41306667D01*
X137321932Y-41321958D01*
X137376255Y-41356903D01*
X137397820Y-41365399D01*
X137415600Y-41380268D01*
X137471128Y-41410613D01*
X137485899Y-41415244D01*
X137498232Y-41424596D01*
X137510649Y-41430632D01*
X137524670Y-41434304D01*
X137536598Y-41442538D01*
X137582665Y-41462443D01*
X137602235Y-41466645D01*
X137619377Y-41476979D01*
X137668894Y-41494839D01*
X137686664Y-41497521D01*
X137702542Y-41505932D01*
X137754695Y-41521540D01*
X137771428Y-41523125D01*
X137786669Y-41530214D01*
X137840642Y-41543366D01*
X137857009Y-41544065D01*
X137872192Y-41550216D01*
X137927171Y-41560708D01*
X137943798Y-41560579D01*
X137959509Y-41566025D01*
X138014679Y-41573651D01*
X138032191Y-41572617D01*
X138049052Y-41577459D01*
X138103598Y-41582014D01*
X138116972Y-41580496D01*
X138130054Y-41583673D01*
X138150286Y-41584521D01*
X138158159Y-41583295D01*
X138165943Y-41584985D01*
X138196950Y-41585525D01*
X138204060Y-41584239D01*
X138211155Y-41585615D01*
X138244400Y-41585456D01*
X138250551Y-41584202D01*
X138256736Y-41585278D01*
X138290813Y-41584458D01*
X138296850Y-41583105D01*
X138302963Y-41584050D01*
X138336458Y-41582607D01*
X138343192Y-41580963D01*
X138350064Y-41581876D01*
X138381570Y-41579846D01*
X138390102Y-41577570D01*
X138398879Y-41578494D01*
X138426984Y-41575916D01*
X138435918Y-41573271D01*
X138445209Y-41573981D01*
X138489671Y-41568615D01*
X138498424Y-41565749D01*
X138507623Y-41566190D01*
X138555277Y-41559065D01*
X138566647Y-41554982D01*
X138578729Y-41555112D01*
X138623360Y-41546733D01*
X138636355Y-41541514D01*
X138650351Y-41541061D01*
X138692899Y-41531158D01*
X138706697Y-41524913D01*
X138721796Y-41523718D01*
X138763201Y-41512022D01*
X138776784Y-41505094D01*
X138791914Y-41503179D01*
X138833119Y-41489421D01*
X138845544Y-41482330D01*
X138859642Y-41479911D01*
X138901585Y-41463822D01*
X138912159Y-41457154D01*
X138924388Y-41454568D01*
X138968012Y-41435880D01*
X138976456Y-41430090D01*
X138986399Y-41427658D01*
X139032644Y-41406101D01*
X139036229Y-41403473D01*
X139040530Y-41402359D01*
X139041785Y-41401753D01*
X139042347Y-41401329D01*
X139043028Y-41401151D01*
X139057336Y-41394204D01*
X139058837Y-41393067D01*
X139060656Y-41392580D01*
X139074542Y-41385739D01*
X139076330Y-41384368D01*
X139078502Y-41383771D01*
X139092272Y-41376868D01*
X139094294Y-41375295D01*
X139096757Y-41374597D01*
X139110717Y-41367462D01*
X139112756Y-41365850D01*
X139115249Y-41365122D01*
X139129707Y-41357585D01*
X139131681Y-41355999D01*
X139134106Y-41355270D01*
X139149371Y-41347162D01*
X139151160Y-41345701D01*
X139153367Y-41345021D01*
X139169743Y-41336173D01*
X139171303Y-41334881D01*
X139173236Y-41334272D01*
X139191031Y-41324514D01*
X139192331Y-41323423D01*
X139193947Y-41322905D01*
X139213468Y-41312068D01*
X139214518Y-41311178D01*
X139215829Y-41310751D01*
X139237383Y-41298666D01*
X139238214Y-41297955D01*
X139239254Y-41297613D01*
X139263147Y-41284111D01*
X139263787Y-41283560D01*
X139264586Y-41283295D01*
X139291127Y-41268206D01*
X139291610Y-41267788D01*
X139292217Y-41267585D01*
X139321712Y-41250740D01*
X139322075Y-41250424D01*
X139322532Y-41250271D01*
X139355287Y-41231500D01*
X139355538Y-41231282D01*
X139355854Y-41231175D01*
X139392176Y-41210310D01*
X139392354Y-41210155D01*
X139392578Y-41210079D01*
X139432504Y-41187105D01*
X139432508Y-41187104D01*
X139445883Y-41179416D01*
X139488205Y-41155301D01*
X139525645Y-41134316D01*
X139558789Y-41116136D01*
X139588109Y-41100480D01*
X139614023Y-41087091D01*
X139637175Y-41075587D01*
X139658020Y-41065683D01*
X139677594Y-41056835D01*
X139696732Y-41048632D01*
X139716397Y-41040647D01*
X139737672Y-41032454D01*
X139761185Y-41023834D01*
X139788295Y-41014314D01*
X139854454Y-40991804D01*
X139938358Y-40964159D01*
X140017578Y-40939137D01*
X140093249Y-40916383D01*
X140165805Y-40895763D01*
X140235954Y-40877069D01*
X140304219Y-40860147D01*
X140371502Y-40844760D01*
X140438419Y-40830756D01*
X140505742Y-40817964D01*
X140574270Y-40806227D01*
X140644623Y-40795436D01*
X140717572Y-40785468D01*
X140793850Y-40776216D01*
X140875316Y-40767461D01*
X140890003Y-40765994D01*
X140941351Y-40761130D01*
X140992851Y-40756652D01*
X141045283Y-40752499D01*
X141099262Y-40748634D01*
X141155392Y-40745025D01*
X141213693Y-40741677D01*
X141275135Y-40738542D01*
X141339642Y-40735629D01*
X141408080Y-40732900D01*
X141480246Y-40730365D01*
X141557000Y-40727988D01*
X141639194Y-40725740D01*
X141648071Y-40725511D01*
X141648312Y-40725457D01*
X141648553Y-40725498D01*
X141699524Y-40724144D01*
X141700063Y-40724022D01*
X141700611Y-40724115D01*
X141747031Y-40722803D01*
X141747777Y-40722632D01*
X141748528Y-40722758D01*
X141790644Y-40721469D01*
X141791654Y-40721236D01*
X141792680Y-40721404D01*
X141830736Y-40720118D01*
X141832077Y-40719804D01*
X141833438Y-40720021D01*
X141867681Y-40718719D01*
X141869433Y-40718301D01*
X141871213Y-40718575D01*
X141901885Y-40717239D01*
X141904194Y-40716674D01*
X141906545Y-40717019D01*
X141933893Y-40715628D01*
X141936889Y-40714872D01*
X141939950Y-40715291D01*
X141964216Y-40713826D01*
X141968082Y-40712812D01*
X141972048Y-40713305D01*
X141993483Y-40711747D01*
X141998457Y-40710376D01*
X142003584Y-40710932D01*
X142022427Y-40709262D01*
X142028779Y-40707403D01*
X142035372Y-40707982D01*
X142051872Y-40706181D01*
X142059970Y-40703631D01*
X142068445Y-40704153D01*
X142082845Y-40702200D01*
X142092939Y-40698730D01*
X142103607Y-40699036D01*
X142116153Y-40696913D01*
X142128525Y-40692200D01*
X142141761Y-40692041D01*
X142152696Y-40689729D01*
X142167370Y-40683443D01*
X142183307Y-40682467D01*
X142192878Y-40679946D01*
X142209484Y-40671845D01*
X142227831Y-40669668D01*
X142236283Y-40666919D01*
X142253850Y-40657074D01*
X142273663Y-40653465D01*
X142281240Y-40650469D01*
X142298267Y-40639486D01*
X142317932Y-40634618D01*
X142324881Y-40631355D01*
X142345825Y-40615912D01*
X142370502Y-40607652D01*
X142377719Y-40603526D01*
X142396315Y-40587357D01*
X142403552Y-40584774D01*
X142428338Y-40562345D01*
X142468649Y-40540529D01*
X142483544Y-40528175D01*
X142510405Y-40495096D01*
X142525473Y-40485671D01*
X142545361Y-40457763D01*
X142566162Y-40439676D01*
X142568018Y-40435952D01*
X142588714Y-40417225D01*
X142590000Y-40415493D01*
X142590000Y-42230074D01*
G36*
X135272843Y-71420765D02*
X135413191Y-71630809D01*
X135623235Y-71771157D01*
X135871000Y-71820440D01*
X136671000Y-71820440D01*
X136886972Y-71777481D01*
X140741401Y-75631910D01*
X140741400Y-83246758D01*
X140616676Y-83371482D01*
X140462000Y-83744905D01*
X140462000Y-84149095D01*
X140616676Y-84522518D01*
X140767602Y-84673444D01*
X139982648Y-85458398D01*
X139897250Y-85373000D01*
X139418440Y-85373000D01*
X139418440Y-85119000D01*
X139897250Y-85119000D01*
X140056000Y-84960250D01*
X140056000Y-84394691D01*
X139959327Y-84161302D01*
X139780699Y-83982673D01*
X139547310Y-83886000D01*
X139467250Y-83886000D01*
X139308500Y-84044750D01*
X139308500Y-84182456D01*
X139228809Y-84063191D01*
X139018765Y-83922843D01*
X138947397Y-83908647D01*
X138924750Y-83886000D01*
X138844690Y-83886000D01*
X138841073Y-83887498D01*
X138771000Y-83873560D01*
X138321000Y-83873560D01*
X138221000Y-83893451D01*
X138121000Y-83873560D01*
X137671000Y-83873560D01*
X137571000Y-83893451D01*
X137471000Y-83873560D01*
X137021000Y-83873560D01*
X136921000Y-83893451D01*
X136821000Y-83873560D01*
X136371000Y-83873560D01*
X136271000Y-83893451D01*
X136171000Y-83873560D01*
X135721000Y-83873560D01*
X135621000Y-83893451D01*
X135521000Y-83873560D01*
X135071000Y-83873560D01*
X134971000Y-83893451D01*
X134871000Y-83873560D01*
X134421000Y-83873560D01*
X134321000Y-83893451D01*
X134221000Y-83873560D01*
X133771000Y-83873560D01*
X133671000Y-83893451D01*
X133571000Y-83873560D01*
X133121000Y-83873560D01*
X132873235Y-83922843D01*
X132663191Y-84063191D01*
X132522843Y-84273235D01*
X132473560Y-84521000D01*
X132473560Y-85971000D01*
X132522843Y-86218765D01*
X132663191Y-86428809D01*
X132873235Y-86569157D01*
X132969071Y-86588220D01*
X132790891Y-86766400D01*
X131502540Y-86766400D01*
X131430000Y-86751971D01*
X131357459Y-86766400D01*
X131357456Y-86766400D01*
X131171234Y-86803442D01*
X131142593Y-86809139D01*
X130960441Y-86930849D01*
X130960439Y-86930851D01*
X130898942Y-86971942D01*
X130857851Y-87033439D01*
X127050731Y-90840560D01*
X126445000Y-90840560D01*
X126197235Y-90889843D01*
X126195000Y-90891336D01*
X126192765Y-90889843D01*
X126181600Y-90887622D01*
X126181600Y-88935038D01*
X126196029Y-88862498D01*
X126181600Y-88789957D01*
X126181600Y-88789954D01*
X126138861Y-88575091D01*
X126130703Y-88562881D01*
X126017151Y-88392939D01*
X126017149Y-88392937D01*
X125976058Y-88331440D01*
X125914561Y-88290349D01*
X124309212Y-86685000D01*
X125512285Y-86685000D01*
X127105580Y-86025036D01*
X128325036Y-84805580D01*
X128985000Y-83212285D01*
X128985000Y-81487715D01*
X128937380Y-81372750D01*
X130562000Y-81372750D01*
X130562000Y-81813309D01*
X130658673Y-82046698D01*
X130837301Y-82225327D01*
X131070690Y-82322000D01*
X131286250Y-82322000D01*
X131445000Y-82163250D01*
X131445000Y-81214000D01*
X131699000Y-81214000D01*
X131699000Y-82163250D01*
X131857750Y-82322000D01*
X132073310Y-82322000D01*
X132306699Y-82225327D01*
X132485327Y-82046698D01*
X132582000Y-81813309D01*
X132582000Y-81372750D01*
X132423250Y-81214000D01*
X131699000Y-81214000D01*
X131445000Y-81214000D01*
X130720750Y-81214000D01*
X130562000Y-81372750D01*
X128937380Y-81372750D01*
X128325036Y-79894420D01*
X127780216Y-79349600D01*
X130114691Y-79349600D01*
X130421650Y-79656560D01*
X130462742Y-79718058D01*
X130524239Y-79759149D01*
X130524241Y-79759151D01*
X130549560Y-79776069D01*
X130549560Y-79787000D01*
X130598843Y-80034765D01*
X130659873Y-80126102D01*
X130658673Y-80127302D01*
X130562000Y-80360691D01*
X130562000Y-80801250D01*
X130720750Y-80960000D01*
X131445000Y-80960000D01*
X131445000Y-80940000D01*
X131699000Y-80940000D01*
X131699000Y-80960000D01*
X132423250Y-80960000D01*
X132582000Y-80801250D01*
X132582000Y-80407299D01*
X132663191Y-80528809D01*
X132873235Y-80669157D01*
X133121000Y-80718440D01*
X133571000Y-80718440D01*
X133671000Y-80698549D01*
X133771000Y-80718440D01*
X134221000Y-80718440D01*
X134321000Y-80698549D01*
X134421000Y-80718440D01*
X134871000Y-80718440D01*
X134941073Y-80704502D01*
X134944690Y-80706000D01*
X135024750Y-80706000D01*
X135047397Y-80683353D01*
X135118765Y-80669157D01*
X135296000Y-80550731D01*
X135473235Y-80669157D01*
X135544603Y-80683353D01*
X135567250Y-80706000D01*
X135647310Y-80706000D01*
X135650927Y-80704502D01*
X135721000Y-80718440D01*
X136171000Y-80718440D01*
X136241073Y-80704502D01*
X136244690Y-80706000D01*
X136324750Y-80706000D01*
X136347397Y-80683353D01*
X136418765Y-80669157D01*
X136596000Y-80550731D01*
X136773235Y-80669157D01*
X136844603Y-80683353D01*
X136867250Y-80706000D01*
X136947310Y-80706000D01*
X136950927Y-80704502D01*
X137021000Y-80718440D01*
X137471000Y-80718440D01*
X137541073Y-80704502D01*
X137544690Y-80706000D01*
X137624750Y-80706000D01*
X137647397Y-80683353D01*
X137718765Y-80669157D01*
X137896000Y-80550731D01*
X138073235Y-80669157D01*
X138144603Y-80683353D01*
X138167250Y-80706000D01*
X138247310Y-80706000D01*
X138250927Y-80704502D01*
X138321000Y-80718440D01*
X138771000Y-80718440D01*
X138841073Y-80704502D01*
X138844690Y-80706000D01*
X138924750Y-80706000D01*
X138947397Y-80683353D01*
X139018765Y-80669157D01*
X139228809Y-80528809D01*
X139308500Y-80409544D01*
X139308500Y-80547250D01*
X139467250Y-80706000D01*
X139547310Y-80706000D01*
X139780699Y-80609327D01*
X139959327Y-80430698D01*
X140056000Y-80197309D01*
X140056000Y-79631750D01*
X139897250Y-79473000D01*
X139418440Y-79473000D01*
X139418440Y-79219000D01*
X139897250Y-79219000D01*
X140056000Y-79060250D01*
X140056000Y-78494691D01*
X139959327Y-78261302D01*
X139780699Y-78082673D01*
X139547310Y-77986000D01*
X139467250Y-77986000D01*
X139308500Y-78144750D01*
X139308500Y-78282456D01*
X139228809Y-78163191D01*
X139119779Y-78090339D01*
X139119662Y-78089752D01*
X138956859Y-77846101D01*
X138920316Y-77821684D01*
X138895899Y-77785141D01*
X138652248Y-77622338D01*
X138437385Y-77579599D01*
X138437381Y-77579599D01*
X138364841Y-77565170D01*
X138292301Y-77579599D01*
X137944701Y-77579599D01*
X137805332Y-77440230D01*
X137764239Y-77378730D01*
X137520588Y-77215927D01*
X137305725Y-77173188D01*
X137305721Y-77173188D01*
X137233181Y-77158759D01*
X137160641Y-77173188D01*
X136813039Y-77173188D01*
X136673672Y-77033820D01*
X136632579Y-76972320D01*
X136388928Y-76809517D01*
X136174065Y-76766778D01*
X136174060Y-76766778D01*
X136101521Y-76752349D01*
X136028981Y-76766778D01*
X135681379Y-76766778D01*
X135542011Y-76627409D01*
X135500919Y-76565910D01*
X135257268Y-76403107D01*
X135042405Y-76360368D01*
X135042400Y-76360368D01*
X134969861Y-76345939D01*
X134897321Y-76360368D01*
X134364826Y-76360368D01*
X133071780Y-75067323D01*
X133163518Y-75029324D01*
X133449324Y-74743518D01*
X133604000Y-74370095D01*
X133604000Y-73965905D01*
X133449324Y-73592482D01*
X133324600Y-73467758D01*
X133324600Y-73312467D01*
X135263462Y-71373605D01*
X135272843Y-71420765D01*
X135272843Y-71420765D01*
G37*
X135272843Y-71420765D02*
X135413191Y-71630809D01*
X135623235Y-71771157D01*
X135871000Y-71820440D01*
X136671000Y-71820440D01*
X136886972Y-71777481D01*
X140741401Y-75631910D01*
X140741400Y-83246758D01*
X140616676Y-83371482D01*
X140462000Y-83744905D01*
X140462000Y-84149095D01*
X140616676Y-84522518D01*
X140767602Y-84673444D01*
X139982648Y-85458398D01*
X139897250Y-85373000D01*
X139418440Y-85373000D01*
X139418440Y-85119000D01*
X139897250Y-85119000D01*
X140056000Y-84960250D01*
X140056000Y-84394691D01*
X139959327Y-84161302D01*
X139780699Y-83982673D01*
X139547310Y-83886000D01*
X139467250Y-83886000D01*
X139308500Y-84044750D01*
X139308500Y-84182456D01*
X139228809Y-84063191D01*
X139018765Y-83922843D01*
X138947397Y-83908647D01*
X138924750Y-83886000D01*
X138844690Y-83886000D01*
X138841073Y-83887498D01*
X138771000Y-83873560D01*
X138321000Y-83873560D01*
X138221000Y-83893451D01*
X138121000Y-83873560D01*
X137671000Y-83873560D01*
X137571000Y-83893451D01*
X137471000Y-83873560D01*
X137021000Y-83873560D01*
X136921000Y-83893451D01*
X136821000Y-83873560D01*
X136371000Y-83873560D01*
X136271000Y-83893451D01*
X136171000Y-83873560D01*
X135721000Y-83873560D01*
X135621000Y-83893451D01*
X135521000Y-83873560D01*
X135071000Y-83873560D01*
X134971000Y-83893451D01*
X134871000Y-83873560D01*
X134421000Y-83873560D01*
X134321000Y-83893451D01*
X134221000Y-83873560D01*
X133771000Y-83873560D01*
X133671000Y-83893451D01*
X133571000Y-83873560D01*
X133121000Y-83873560D01*
X132873235Y-83922843D01*
X132663191Y-84063191D01*
X132522843Y-84273235D01*
X132473560Y-84521000D01*
X132473560Y-85971000D01*
X132522843Y-86218765D01*
X132663191Y-86428809D01*
X132873235Y-86569157D01*
X132969071Y-86588220D01*
X132790891Y-86766400D01*
X131502540Y-86766400D01*
X131430000Y-86751971D01*
X131357459Y-86766400D01*
X131357456Y-86766400D01*
X131171234Y-86803442D01*
X131142593Y-86809139D01*
X130960441Y-86930849D01*
X130960439Y-86930851D01*
X130898942Y-86971942D01*
X130857851Y-87033439D01*
X127050731Y-90840560D01*
X126445000Y-90840560D01*
X126197235Y-90889843D01*
X126195000Y-90891336D01*
X126192765Y-90889843D01*
X126181600Y-90887622D01*
X126181600Y-88935038D01*
X126196029Y-88862498D01*
X126181600Y-88789957D01*
X126181600Y-88789954D01*
X126138861Y-88575091D01*
X126130703Y-88562881D01*
X126017151Y-88392939D01*
X126017149Y-88392937D01*
X125976058Y-88331440D01*
X125914561Y-88290349D01*
X124309212Y-86685000D01*
X125512285Y-86685000D01*
X127105580Y-86025036D01*
X128325036Y-84805580D01*
X128985000Y-83212285D01*
X128985000Y-81487715D01*
X128937380Y-81372750D01*
X130562000Y-81372750D01*
X130562000Y-81813309D01*
X130658673Y-82046698D01*
X130837301Y-82225327D01*
X131070690Y-82322000D01*
X131286250Y-82322000D01*
X131445000Y-82163250D01*
X131445000Y-81214000D01*
X131699000Y-81214000D01*
X131699000Y-82163250D01*
X131857750Y-82322000D01*
X132073310Y-82322000D01*
X132306699Y-82225327D01*
X132485327Y-82046698D01*
X132582000Y-81813309D01*
X132582000Y-81372750D01*
X132423250Y-81214000D01*
X131699000Y-81214000D01*
X131445000Y-81214000D01*
X130720750Y-81214000D01*
X130562000Y-81372750D01*
X128937380Y-81372750D01*
X128325036Y-79894420D01*
X127780216Y-79349600D01*
X130114691Y-79349600D01*
X130421650Y-79656560D01*
X130462742Y-79718058D01*
X130524239Y-79759149D01*
X130524241Y-79759151D01*
X130549560Y-79776069D01*
X130549560Y-79787000D01*
X130598843Y-80034765D01*
X130659873Y-80126102D01*
X130658673Y-80127302D01*
X130562000Y-80360691D01*
X130562000Y-80801250D01*
X130720750Y-80960000D01*
X131445000Y-80960000D01*
X131445000Y-80940000D01*
X131699000Y-80940000D01*
X131699000Y-80960000D01*
X132423250Y-80960000D01*
X132582000Y-80801250D01*
X132582000Y-80407299D01*
X132663191Y-80528809D01*
X132873235Y-80669157D01*
X133121000Y-80718440D01*
X133571000Y-80718440D01*
X133671000Y-80698549D01*
X133771000Y-80718440D01*
X134221000Y-80718440D01*
X134321000Y-80698549D01*
X134421000Y-80718440D01*
X134871000Y-80718440D01*
X134941073Y-80704502D01*
X134944690Y-80706000D01*
X135024750Y-80706000D01*
X135047397Y-80683353D01*
X135118765Y-80669157D01*
X135296000Y-80550731D01*
X135473235Y-80669157D01*
X135544603Y-80683353D01*
X135567250Y-80706000D01*
X135647310Y-80706000D01*
X135650927Y-80704502D01*
X135721000Y-80718440D01*
X136171000Y-80718440D01*
X136241073Y-80704502D01*
X136244690Y-80706000D01*
X136324750Y-80706000D01*
X136347397Y-80683353D01*
X136418765Y-80669157D01*
X136596000Y-80550731D01*
X136773235Y-80669157D01*
X136844603Y-80683353D01*
X136867250Y-80706000D01*
X136947310Y-80706000D01*
X136950927Y-80704502D01*
X137021000Y-80718440D01*
X137471000Y-80718440D01*
X137541073Y-80704502D01*
X137544690Y-80706000D01*
X137624750Y-80706000D01*
X137647397Y-80683353D01*
X137718765Y-80669157D01*
X137896000Y-80550731D01*
X138073235Y-80669157D01*
X138144603Y-80683353D01*
X138167250Y-80706000D01*
X138247310Y-80706000D01*
X138250927Y-80704502D01*
X138321000Y-80718440D01*
X138771000Y-80718440D01*
X138841073Y-80704502D01*
X138844690Y-80706000D01*
X138924750Y-80706000D01*
X138947397Y-80683353D01*
X139018765Y-80669157D01*
X139228809Y-80528809D01*
X139308500Y-80409544D01*
X139308500Y-80547250D01*
X139467250Y-80706000D01*
X139547310Y-80706000D01*
X139780699Y-80609327D01*
X139959327Y-80430698D01*
X140056000Y-80197309D01*
X140056000Y-79631750D01*
X139897250Y-79473000D01*
X139418440Y-79473000D01*
X139418440Y-79219000D01*
X139897250Y-79219000D01*
X140056000Y-79060250D01*
X140056000Y-78494691D01*
X139959327Y-78261302D01*
X139780699Y-78082673D01*
X139547310Y-77986000D01*
X139467250Y-77986000D01*
X139308500Y-78144750D01*
X139308500Y-78282456D01*
X139228809Y-78163191D01*
X139119779Y-78090339D01*
X139119662Y-78089752D01*
X138956859Y-77846101D01*
X138920316Y-77821684D01*
X138895899Y-77785141D01*
X138652248Y-77622338D01*
X138437385Y-77579599D01*
X138437381Y-77579599D01*
X138364841Y-77565170D01*
X138292301Y-77579599D01*
X137944701Y-77579599D01*
X137805332Y-77440230D01*
X137764239Y-77378730D01*
X137520588Y-77215927D01*
X137305725Y-77173188D01*
X137305721Y-77173188D01*
X137233181Y-77158759D01*
X137160641Y-77173188D01*
X136813039Y-77173188D01*
X136673672Y-77033820D01*
X136632579Y-76972320D01*
X136388928Y-76809517D01*
X136174065Y-76766778D01*
X136174060Y-76766778D01*
X136101521Y-76752349D01*
X136028981Y-76766778D01*
X135681379Y-76766778D01*
X135542011Y-76627409D01*
X135500919Y-76565910D01*
X135257268Y-76403107D01*
X135042405Y-76360368D01*
X135042400Y-76360368D01*
X134969861Y-76345939D01*
X134897321Y-76360368D01*
X134364826Y-76360368D01*
X133071780Y-75067323D01*
X133163518Y-75029324D01*
X133449324Y-74743518D01*
X133604000Y-74370095D01*
X133604000Y-73965905D01*
X133449324Y-73592482D01*
X133324600Y-73467758D01*
X133324600Y-73312467D01*
X135263462Y-71373605D01*
X135272843Y-71420765D01*
G36*
X114613903Y-85468134D02*
X114987326Y-85622810D01*
X115391516Y-85622810D01*
X115764939Y-85468134D01*
X115907182Y-85325891D01*
X118708401Y-88127111D01*
X118708401Y-90887622D01*
X118697235Y-90889843D01*
X118695000Y-90891336D01*
X118692765Y-90889843D01*
X118445000Y-90840560D01*
X117935844Y-90840560D01*
X117935661Y-90839638D01*
X117813951Y-90657486D01*
X117813949Y-90657484D01*
X117772858Y-90595987D01*
X117711361Y-90554896D01*
X114291518Y-87135054D01*
X114250425Y-87073554D01*
X114006774Y-86910751D01*
X113791911Y-86868012D01*
X113791907Y-86868012D01*
X113719367Y-86853583D01*
X113646827Y-86868012D01*
X112496655Y-86868012D01*
X112496655Y-86081000D01*
X112588250Y-86081000D01*
X112747000Y-85922250D01*
X112747000Y-85443440D01*
X113001000Y-85443440D01*
X113001000Y-85922250D01*
X113159750Y-86081000D01*
X113725309Y-86081000D01*
X113958698Y-85984327D01*
X114137327Y-85805699D01*
X114234000Y-85572310D01*
X114234000Y-85492250D01*
X114089752Y-85348002D01*
X114234000Y-85348002D01*
X114234000Y-85307600D01*
X114453369Y-85307600D01*
X114613903Y-85468134D01*
X114613903Y-85468134D01*
G37*
X114613903Y-85468134D02*
X114987326Y-85622810D01*
X115391516Y-85622810D01*
X115764939Y-85468134D01*
X115907182Y-85325891D01*
X118708401Y-88127111D01*
X118708401Y-90887622D01*
X118697235Y-90889843D01*
X118695000Y-90891336D01*
X118692765Y-90889843D01*
X118445000Y-90840560D01*
X117935844Y-90840560D01*
X117935661Y-90839638D01*
X117813951Y-90657486D01*
X117813949Y-90657484D01*
X117772858Y-90595987D01*
X117711361Y-90554896D01*
X114291518Y-87135054D01*
X114250425Y-87073554D01*
X114006774Y-86910751D01*
X113791911Y-86868012D01*
X113791907Y-86868012D01*
X113719367Y-86853583D01*
X113646827Y-86868012D01*
X112496655Y-86868012D01*
X112496655Y-86081000D01*
X112588250Y-86081000D01*
X112747000Y-85922250D01*
X112747000Y-85443440D01*
X113001000Y-85443440D01*
X113001000Y-85922250D01*
X113159750Y-86081000D01*
X113725309Y-86081000D01*
X113958698Y-85984327D01*
X114137327Y-85805699D01*
X114234000Y-85572310D01*
X114234000Y-85492250D01*
X114089752Y-85348002D01*
X114234000Y-85348002D01*
X114234000Y-85307600D01*
X114453369Y-85307600D01*
X114613903Y-85468134D01*
G36*
X105833843Y-66445765D02*
X105894873Y-66537102D01*
X105893673Y-66538302D01*
X105797000Y-66771691D01*
X105797000Y-67212250D01*
X105955750Y-67371000D01*
X106680000Y-67371000D01*
X106680000Y-67351000D01*
X106934000Y-67351000D01*
X106934000Y-67371000D01*
X107658250Y-67371000D01*
X107817000Y-67212250D01*
X107817000Y-66771691D01*
X107720327Y-66538302D01*
X107719127Y-66537102D01*
X107780157Y-66445765D01*
X107802269Y-66334600D01*
X112099891Y-66334600D01*
X113052491Y-67287201D01*
X111499739Y-67287201D01*
X111427199Y-67272772D01*
X111354658Y-67287201D01*
X111354655Y-67287201D01*
X111139792Y-67329940D01*
X110957640Y-67451650D01*
X110957638Y-67451652D01*
X110896141Y-67492743D01*
X110855050Y-67554240D01*
X103543440Y-74865851D01*
X103481943Y-74906942D01*
X103440852Y-74968439D01*
X103440849Y-74968442D01*
X103319139Y-75150594D01*
X103261971Y-75438000D01*
X103276401Y-75510545D01*
X103276400Y-78511000D01*
X102999750Y-78511000D01*
X102841000Y-78669750D01*
X102841000Y-79148560D01*
X102587000Y-79148560D01*
X102587000Y-78669750D01*
X102428250Y-78511000D01*
X101862691Y-78511000D01*
X101629302Y-78607673D01*
X101450673Y-78786301D01*
X101354000Y-79019690D01*
X101354000Y-79099750D01*
X101512750Y-79258500D01*
X101650456Y-79258500D01*
X101568645Y-79313165D01*
X101498393Y-79327139D01*
X101254742Y-79489942D01*
X101213649Y-79551442D01*
X100710000Y-80055091D01*
X100710000Y-77889842D01*
X100770482Y-77950324D01*
X101143905Y-78105000D01*
X101548095Y-78105000D01*
X101921518Y-77950324D01*
X102207324Y-77664518D01*
X102362000Y-77291095D01*
X102362000Y-76886905D01*
X102302321Y-76742826D01*
X102320765Y-76739157D01*
X102530809Y-76598809D01*
X102671157Y-76388765D01*
X102720440Y-76141000D01*
X102720440Y-75241000D01*
X102671157Y-74993235D01*
X102530809Y-74783191D01*
X102320765Y-74642843D01*
X102073000Y-74593560D01*
X100873000Y-74593560D01*
X100710000Y-74625982D01*
X100710000Y-73456018D01*
X100873000Y-73488440D01*
X102073000Y-73488440D01*
X102320765Y-73439157D01*
X102530809Y-73298809D01*
X102671157Y-73088765D01*
X102720440Y-72841000D01*
X102720440Y-71941000D01*
X102671157Y-71693235D01*
X102530809Y-71483191D01*
X102320765Y-71342843D01*
X102209600Y-71320731D01*
X102209600Y-71139109D01*
X102349269Y-70999440D01*
X103155000Y-70999440D01*
X103402765Y-70950157D01*
X103494102Y-70889127D01*
X103495302Y-70890327D01*
X103728691Y-70987000D01*
X104169250Y-70987000D01*
X104328000Y-70828250D01*
X104328000Y-70104000D01*
X104582000Y-70104000D01*
X104582000Y-70828250D01*
X104740750Y-70987000D01*
X105181309Y-70987000D01*
X105414698Y-70890327D01*
X105593327Y-70711699D01*
X105690000Y-70478310D01*
X105690000Y-70262750D01*
X105531250Y-70104000D01*
X104582000Y-70104000D01*
X104328000Y-70104000D01*
X104308000Y-70104000D01*
X104308000Y-69850000D01*
X104328000Y-69850000D01*
X104328000Y-69125750D01*
X104582000Y-69125750D01*
X104582000Y-69850000D01*
X105531250Y-69850000D01*
X105690000Y-69691250D01*
X105690000Y-69475690D01*
X105593327Y-69242301D01*
X105414698Y-69063673D01*
X105181309Y-68967000D01*
X104740750Y-68967000D01*
X104582000Y-69125750D01*
X104328000Y-69125750D01*
X104169250Y-68967000D01*
X103728691Y-68967000D01*
X103495302Y-69063673D01*
X103494102Y-69064873D01*
X103402765Y-69003843D01*
X103155000Y-68954560D01*
X102082600Y-68954560D01*
X102082600Y-68470440D01*
X102935000Y-68470440D01*
X103182765Y-68421157D01*
X103392809Y-68280809D01*
X103505000Y-68112905D01*
X103617191Y-68280809D01*
X103827235Y-68421157D01*
X104075000Y-68470440D01*
X105135000Y-68470440D01*
X105382765Y-68421157D01*
X105592809Y-68280809D01*
X105733157Y-68070765D01*
X105782440Y-67823000D01*
X105782440Y-67783750D01*
X105797000Y-67783750D01*
X105797000Y-68224309D01*
X105893673Y-68457698D01*
X106072301Y-68636327D01*
X106305690Y-68733000D01*
X106521250Y-68733000D01*
X106680000Y-68574250D01*
X106680000Y-67625000D01*
X106934000Y-67625000D01*
X106934000Y-68574250D01*
X107092750Y-68733000D01*
X107308310Y-68733000D01*
X107541699Y-68636327D01*
X107720327Y-68457698D01*
X107817000Y-68224309D01*
X107817000Y-67783750D01*
X107658250Y-67625000D01*
X106934000Y-67625000D01*
X106680000Y-67625000D01*
X105955750Y-67625000D01*
X105797000Y-67783750D01*
X105782440Y-67783750D01*
X105782440Y-67173000D01*
X105733157Y-66925235D01*
X105592809Y-66715191D01*
X105382765Y-66574843D01*
X105247815Y-66548000D01*
X105382765Y-66521157D01*
X105592809Y-66380809D01*
X105623685Y-66334600D01*
X105811731Y-66334600D01*
X105833843Y-66445765D01*
X105833843Y-66445765D01*
G37*
X105833843Y-66445765D02*
X105894873Y-66537102D01*
X105893673Y-66538302D01*
X105797000Y-66771691D01*
X105797000Y-67212250D01*
X105955750Y-67371000D01*
X106680000Y-67371000D01*
X106680000Y-67351000D01*
X106934000Y-67351000D01*
X106934000Y-67371000D01*
X107658250Y-67371000D01*
X107817000Y-67212250D01*
X107817000Y-66771691D01*
X107720327Y-66538302D01*
X107719127Y-66537102D01*
X107780157Y-66445765D01*
X107802269Y-66334600D01*
X112099891Y-66334600D01*
X113052491Y-67287201D01*
X111499739Y-67287201D01*
X111427199Y-67272772D01*
X111354658Y-67287201D01*
X111354655Y-67287201D01*
X111139792Y-67329940D01*
X110957640Y-67451650D01*
X110957638Y-67451652D01*
X110896141Y-67492743D01*
X110855050Y-67554240D01*
X103543440Y-74865851D01*
X103481943Y-74906942D01*
X103440852Y-74968439D01*
X103440849Y-74968442D01*
X103319139Y-75150594D01*
X103261971Y-75438000D01*
X103276401Y-75510545D01*
X103276400Y-78511000D01*
X102999750Y-78511000D01*
X102841000Y-78669750D01*
X102841000Y-79148560D01*
X102587000Y-79148560D01*
X102587000Y-78669750D01*
X102428250Y-78511000D01*
X101862691Y-78511000D01*
X101629302Y-78607673D01*
X101450673Y-78786301D01*
X101354000Y-79019690D01*
X101354000Y-79099750D01*
X101512750Y-79258500D01*
X101650456Y-79258500D01*
X101568645Y-79313165D01*
X101498393Y-79327139D01*
X101254742Y-79489942D01*
X101213649Y-79551442D01*
X100710000Y-80055091D01*
X100710000Y-77889842D01*
X100770482Y-77950324D01*
X101143905Y-78105000D01*
X101548095Y-78105000D01*
X101921518Y-77950324D01*
X102207324Y-77664518D01*
X102362000Y-77291095D01*
X102362000Y-76886905D01*
X102302321Y-76742826D01*
X102320765Y-76739157D01*
X102530809Y-76598809D01*
X102671157Y-76388765D01*
X102720440Y-76141000D01*
X102720440Y-75241000D01*
X102671157Y-74993235D01*
X102530809Y-74783191D01*
X102320765Y-74642843D01*
X102073000Y-74593560D01*
X100873000Y-74593560D01*
X100710000Y-74625982D01*
X100710000Y-73456018D01*
X100873000Y-73488440D01*
X102073000Y-73488440D01*
X102320765Y-73439157D01*
X102530809Y-73298809D01*
X102671157Y-73088765D01*
X102720440Y-72841000D01*
X102720440Y-71941000D01*
X102671157Y-71693235D01*
X102530809Y-71483191D01*
X102320765Y-71342843D01*
X102209600Y-71320731D01*
X102209600Y-71139109D01*
X102349269Y-70999440D01*
X103155000Y-70999440D01*
X103402765Y-70950157D01*
X103494102Y-70889127D01*
X103495302Y-70890327D01*
X103728691Y-70987000D01*
X104169250Y-70987000D01*
X104328000Y-70828250D01*
X104328000Y-70104000D01*
X104582000Y-70104000D01*
X104582000Y-70828250D01*
X104740750Y-70987000D01*
X105181309Y-70987000D01*
X105414698Y-70890327D01*
X105593327Y-70711699D01*
X105690000Y-70478310D01*
X105690000Y-70262750D01*
X105531250Y-70104000D01*
X104582000Y-70104000D01*
X104328000Y-70104000D01*
X104308000Y-70104000D01*
X104308000Y-69850000D01*
X104328000Y-69850000D01*
X104328000Y-69125750D01*
X104582000Y-69125750D01*
X104582000Y-69850000D01*
X105531250Y-69850000D01*
X105690000Y-69691250D01*
X105690000Y-69475690D01*
X105593327Y-69242301D01*
X105414698Y-69063673D01*
X105181309Y-68967000D01*
X104740750Y-68967000D01*
X104582000Y-69125750D01*
X104328000Y-69125750D01*
X104169250Y-68967000D01*
X103728691Y-68967000D01*
X103495302Y-69063673D01*
X103494102Y-69064873D01*
X103402765Y-69003843D01*
X103155000Y-68954560D01*
X102082600Y-68954560D01*
X102082600Y-68470440D01*
X102935000Y-68470440D01*
X103182765Y-68421157D01*
X103392809Y-68280809D01*
X103505000Y-68112905D01*
X103617191Y-68280809D01*
X103827235Y-68421157D01*
X104075000Y-68470440D01*
X105135000Y-68470440D01*
X105382765Y-68421157D01*
X105592809Y-68280809D01*
X105733157Y-68070765D01*
X105782440Y-67823000D01*
X105782440Y-67783750D01*
X105797000Y-67783750D01*
X105797000Y-68224309D01*
X105893673Y-68457698D01*
X106072301Y-68636327D01*
X106305690Y-68733000D01*
X106521250Y-68733000D01*
X106680000Y-68574250D01*
X106680000Y-67625000D01*
X106934000Y-67625000D01*
X106934000Y-68574250D01*
X107092750Y-68733000D01*
X107308310Y-68733000D01*
X107541699Y-68636327D01*
X107720327Y-68457698D01*
X107817000Y-68224309D01*
X107817000Y-67783750D01*
X107658250Y-67625000D01*
X106934000Y-67625000D01*
X106680000Y-67625000D01*
X105955750Y-67625000D01*
X105797000Y-67783750D01*
X105782440Y-67783750D01*
X105782440Y-67173000D01*
X105733157Y-66925235D01*
X105592809Y-66715191D01*
X105382765Y-66574843D01*
X105247815Y-66548000D01*
X105382765Y-66521157D01*
X105592809Y-66380809D01*
X105623685Y-66334600D01*
X105811731Y-66334600D01*
X105833843Y-66445765D01*
G36*
X111610673Y-78786301D02*
X111514000Y-79019690D01*
X111514000Y-79099750D01*
X111672750Y-79258500D01*
X111810456Y-79258500D01*
X111728645Y-79313165D01*
X111678231Y-79323193D01*
X111658393Y-79327139D01*
X111476241Y-79448849D01*
X111476240Y-79448850D01*
X111414742Y-79489942D01*
X111373650Y-79551440D01*
X110912966Y-80012124D01*
X110811518Y-79910676D01*
X110438095Y-79756000D01*
X110033905Y-79756000D01*
X109947495Y-79791792D01*
X109951353Y-79772397D01*
X109974000Y-79749750D01*
X109974000Y-79669690D01*
X109972502Y-79666073D01*
X109986440Y-79596000D01*
X109986440Y-79491269D01*
X110731270Y-78746440D01*
X111537000Y-78746440D01*
X111678725Y-78718249D01*
X111610673Y-78786301D01*
X111610673Y-78786301D01*
G37*
X111610673Y-78786301D02*
X111514000Y-79019690D01*
X111514000Y-79099750D01*
X111672750Y-79258500D01*
X111810456Y-79258500D01*
X111728645Y-79313165D01*
X111678231Y-79323193D01*
X111658393Y-79327139D01*
X111476241Y-79448849D01*
X111476240Y-79448850D01*
X111414742Y-79489942D01*
X111373650Y-79551440D01*
X110912966Y-80012124D01*
X110811518Y-79910676D01*
X110438095Y-79756000D01*
X110033905Y-79756000D01*
X109947495Y-79791792D01*
X109951353Y-79772397D01*
X109974000Y-79749750D01*
X109974000Y-79669690D01*
X109972502Y-79666073D01*
X109986440Y-79596000D01*
X109986440Y-79491269D01*
X110731270Y-78746440D01*
X111537000Y-78746440D01*
X111678725Y-78718249D01*
X111610673Y-78786301D01*
G36*
X113026707Y-75997532D02*
X113026707Y-76098684D01*
X113117435Y-76317722D01*
X112976320Y-76658406D01*
X112976320Y-76860430D01*
X112964000Y-76872750D01*
X112964000Y-77597000D01*
X112984000Y-77597000D01*
X112984000Y-77851000D01*
X112964000Y-77851000D01*
X112964000Y-78575250D01*
X113029750Y-78641000D01*
X113001000Y-78669750D01*
X113001000Y-79148560D01*
X112747000Y-79148560D01*
X112747000Y-78669750D01*
X112681250Y-78604000D01*
X112710000Y-78575250D01*
X112710000Y-77851000D01*
X112690000Y-77851000D01*
X112690000Y-77597000D01*
X112710000Y-77597000D01*
X112710000Y-76872750D01*
X112551250Y-76714000D01*
X112256894Y-76714000D01*
X112988987Y-75981908D01*
X113026707Y-75997532D01*
X113026707Y-75997532D01*
G37*
X113026707Y-75997532D02*
X113026707Y-76098684D01*
X113117435Y-76317722D01*
X112976320Y-76658406D01*
X112976320Y-76860430D01*
X112964000Y-76872750D01*
X112964000Y-77597000D01*
X112984000Y-77597000D01*
X112984000Y-77851000D01*
X112964000Y-77851000D01*
X112964000Y-78575250D01*
X113029750Y-78641000D01*
X113001000Y-78669750D01*
X113001000Y-79148560D01*
X112747000Y-79148560D01*
X112747000Y-78669750D01*
X112681250Y-78604000D01*
X112710000Y-78575250D01*
X112710000Y-77851000D01*
X112690000Y-77851000D01*
X112690000Y-77597000D01*
X112710000Y-77597000D01*
X112710000Y-76872750D01*
X112551250Y-76714000D01*
X112256894Y-76714000D01*
X112988987Y-75981908D01*
X113026707Y-75997532D01*
G36*
X122277499Y-78435107D02*
X122263356Y-78449249D01*
X122277499Y-78463392D01*
X122097894Y-78642997D01*
X122083751Y-78628854D01*
X122069609Y-78642997D01*
X121890004Y-78463392D01*
X121904146Y-78449249D01*
X121890004Y-78435107D01*
X122069609Y-78255502D01*
X122083751Y-78269644D01*
X122097894Y-78255502D01*
X122277499Y-78435107D01*
X122277499Y-78435107D01*
G37*
X122277499Y-78435107D02*
X122263356Y-78449249D01*
X122277499Y-78463392D01*
X122097894Y-78642997D01*
X122083751Y-78628854D01*
X122069609Y-78642997D01*
X121890004Y-78463392D01*
X121904146Y-78449249D01*
X121890004Y-78435107D01*
X122069609Y-78255502D01*
X122083751Y-78269644D01*
X122097894Y-78255502D01*
X122277499Y-78435107D01*
G36*
X124852291Y-78015000D02*
X123787715Y-78015000D01*
X123408180Y-78172208D01*
X123408180Y-78163841D01*
X123311508Y-77930452D01*
X123206656Y-77825600D01*
X124662891Y-77825600D01*
X124852291Y-78015000D01*
X124852291Y-78015000D01*
G37*
X124852291Y-78015000D02*
X123787715Y-78015000D01*
X123408180Y-78172208D01*
X123408180Y-78163841D01*
X123311508Y-77930452D01*
X123206656Y-77825600D01*
X124662891Y-77825600D01*
X124852291Y-78015000D01*
G36*
X127410997Y-76222609D02*
X127396854Y-76236751D01*
X127410997Y-76250894D01*
X127231392Y-76430499D01*
X127217249Y-76416356D01*
X127203107Y-76430499D01*
X127023502Y-76250894D01*
X127037644Y-76236751D01*
X127023502Y-76222609D01*
X127203107Y-76043004D01*
X127217249Y-76057146D01*
X127231392Y-76043004D01*
X127410997Y-76222609D01*
X127410997Y-76222609D01*
G37*
X127410997Y-76222609D02*
X127396854Y-76236751D01*
X127410997Y-76250894D01*
X127231392Y-76430499D01*
X127217249Y-76416356D01*
X127203107Y-76430499D01*
X127023502Y-76250894D01*
X127037644Y-76236751D01*
X127023502Y-76222609D01*
X127203107Y-76043004D01*
X127217249Y-76057146D01*
X127231392Y-76043004D01*
X127410997Y-76222609D01*
G36*
X125900214Y-75653910D02*
X126110258Y-75794258D01*
X126211290Y-75814354D01*
X126047927Y-75977717D01*
X125851454Y-75781244D01*
X125810361Y-75719744D01*
X125566710Y-75556941D01*
X125351847Y-75514202D01*
X125351843Y-75514202D01*
X125319144Y-75507698D01*
X125536573Y-75290269D01*
X125900214Y-75653910D01*
X125900214Y-75653910D01*
G37*
X125900214Y-75653910D02*
X126110258Y-75794258D01*
X126211290Y-75814354D01*
X126047927Y-75977717D01*
X125851454Y-75781244D01*
X125810361Y-75719744D01*
X125566710Y-75556941D01*
X125351847Y-75514202D01*
X125351843Y-75514202D01*
X125319144Y-75507698D01*
X125536573Y-75290269D01*
X125900214Y-75653910D01*
G36*
X117676653Y-74616265D02*
X117468763Y-74824155D01*
X117371502Y-74726894D01*
X117385644Y-74712751D01*
X117372014Y-74699121D01*
X117374078Y-74696032D01*
X117551107Y-74519004D01*
X117565249Y-74533146D01*
X117579392Y-74519004D01*
X117676653Y-74616265D01*
X117676653Y-74616265D01*
G37*
X117676653Y-74616265D02*
X117468763Y-74824155D01*
X117371502Y-74726894D01*
X117385644Y-74712751D01*
X117372014Y-74699121D01*
X117374078Y-74696032D01*
X117551107Y-74519004D01*
X117565249Y-74533146D01*
X117579392Y-74519004D01*
X117676653Y-74616265D01*
G36*
X136189560Y-66032000D02*
X136189560Y-67232000D01*
X136238843Y-67479765D01*
X136379191Y-67689809D01*
X136465014Y-67747155D01*
X136363191Y-67815191D01*
X136273987Y-67948694D01*
X136259327Y-67913302D01*
X136080699Y-67734673D01*
X135847310Y-67638000D01*
X135606750Y-67638000D01*
X135448000Y-67796750D01*
X135448000Y-68596000D01*
X135468000Y-68596000D01*
X135468000Y-68825188D01*
X135174000Y-68825188D01*
X135174000Y-68596000D01*
X135194000Y-68596000D01*
X135194000Y-67796750D01*
X135035250Y-67638000D01*
X134946972Y-67638000D01*
X134946972Y-67435577D01*
X134275751Y-66764356D01*
X133763629Y-67276478D01*
X133763629Y-67500985D01*
X134075151Y-67812507D01*
X134308540Y-67909180D01*
X134386795Y-67909180D01*
X134382673Y-67913302D01*
X134309645Y-68089607D01*
X134190871Y-68010245D01*
X133976008Y-67967506D01*
X133976004Y-67967506D01*
X133903464Y-67953077D01*
X133830924Y-67967506D01*
X128218432Y-67967506D01*
X128145893Y-67953077D01*
X128073354Y-67967506D01*
X128073350Y-67967506D01*
X127858487Y-68010245D01*
X127614836Y-68173048D01*
X127573743Y-68234548D01*
X126339291Y-69469000D01*
X126162905Y-69469000D01*
X125789482Y-69623676D01*
X125503676Y-69909482D01*
X125349000Y-70282905D01*
X125349000Y-70687095D01*
X125503676Y-71060518D01*
X125789482Y-71346324D01*
X126162905Y-71501000D01*
X126567095Y-71501000D01*
X126940518Y-71346324D01*
X127226324Y-71060518D01*
X127381000Y-70687095D01*
X127381000Y-70510709D01*
X128451003Y-69440706D01*
X129785482Y-69440706D01*
X129718494Y-69540960D01*
X129612525Y-69611767D01*
X129435748Y-69788544D01*
X129364940Y-69894515D01*
X129258972Y-69965321D01*
X129082195Y-70142098D01*
X129011389Y-70248066D01*
X128905418Y-70318874D01*
X128728641Y-70495651D01*
X128657833Y-70601622D01*
X128551865Y-70672428D01*
X128375088Y-70849205D01*
X128304282Y-70955173D01*
X128198311Y-71025981D01*
X128021534Y-71202758D01*
X127950727Y-71308727D01*
X127844758Y-71379534D01*
X127667981Y-71556311D01*
X127597173Y-71662282D01*
X127491205Y-71733088D01*
X127314428Y-71909865D01*
X127255601Y-71997906D01*
X127235762Y-72006123D01*
X127214506Y-72027379D01*
X127214506Y-72059408D01*
X127174080Y-72119909D01*
X127174025Y-72120184D01*
X127147863Y-72094022D01*
X127075846Y-72166039D01*
X127075845Y-72166039D01*
X127010269Y-72179083D01*
X126433793Y-72179083D01*
X126341351Y-72086641D01*
X127155243Y-72086641D01*
X127214506Y-72027379D01*
X127214506Y-72027378D01*
X127155243Y-72086641D01*
X126341351Y-72086641D01*
X124688600Y-70433891D01*
X124688600Y-68552988D01*
X124703029Y-68480447D01*
X124688600Y-68407907D01*
X124688600Y-67693047D01*
X130353207Y-67693047D01*
X130425747Y-67707476D01*
X130498287Y-67693047D01*
X130498291Y-67693047D01*
X130713154Y-67650308D01*
X130734158Y-67636274D01*
X130750040Y-67652156D01*
X130750040Y-67652155D01*
X130771296Y-67673411D01*
X131004685Y-67770084D01*
X131257304Y-67770083D01*
X131490693Y-67673410D01*
X131731504Y-67432599D01*
X131731504Y-67208093D01*
X131499000Y-66975589D01*
X131678606Y-66795983D01*
X131911110Y-67028487D01*
X132135616Y-67028487D01*
X132376427Y-66787676D01*
X132473100Y-66554287D01*
X132473101Y-66301668D01*
X132421044Y-66175992D01*
X132633539Y-66388487D01*
X132843583Y-66528835D01*
X132951322Y-66550265D01*
X132951322Y-66551962D01*
X133047995Y-66785351D01*
X133359517Y-67096873D01*
X133584024Y-67096873D01*
X134096146Y-66584751D01*
X134082004Y-66570609D01*
X134261609Y-66391004D01*
X134275751Y-66405146D01*
X134289894Y-66391004D01*
X134469499Y-66570609D01*
X134455356Y-66584751D01*
X135126577Y-67255972D01*
X135351084Y-67255972D01*
X135503508Y-67103548D01*
X135600180Y-66870159D01*
X135600180Y-66617540D01*
X135503507Y-66384151D01*
X135191985Y-66072629D01*
X134967481Y-66072629D01*
X135062261Y-65977849D01*
X136200331Y-65977849D01*
X136189560Y-66032000D01*
X136189560Y-66032000D01*
G37*
X136189560Y-66032000D02*
X136189560Y-67232000D01*
X136238843Y-67479765D01*
X136379191Y-67689809D01*
X136465014Y-67747155D01*
X136363191Y-67815191D01*
X136273987Y-67948694D01*
X136259327Y-67913302D01*
X136080699Y-67734673D01*
X135847310Y-67638000D01*
X135606750Y-67638000D01*
X135448000Y-67796750D01*
X135448000Y-68596000D01*
X135468000Y-68596000D01*
X135468000Y-68825188D01*
X135174000Y-68825188D01*
X135174000Y-68596000D01*
X135194000Y-68596000D01*
X135194000Y-67796750D01*
X135035250Y-67638000D01*
X134946972Y-67638000D01*
X134946972Y-67435577D01*
X134275751Y-66764356D01*
X133763629Y-67276478D01*
X133763629Y-67500985D01*
X134075151Y-67812507D01*
X134308540Y-67909180D01*
X134386795Y-67909180D01*
X134382673Y-67913302D01*
X134309645Y-68089607D01*
X134190871Y-68010245D01*
X133976008Y-67967506D01*
X133976004Y-67967506D01*
X133903464Y-67953077D01*
X133830924Y-67967506D01*
X128218432Y-67967506D01*
X128145893Y-67953077D01*
X128073354Y-67967506D01*
X128073350Y-67967506D01*
X127858487Y-68010245D01*
X127614836Y-68173048D01*
X127573743Y-68234548D01*
X126339291Y-69469000D01*
X126162905Y-69469000D01*
X125789482Y-69623676D01*
X125503676Y-69909482D01*
X125349000Y-70282905D01*
X125349000Y-70687095D01*
X125503676Y-71060518D01*
X125789482Y-71346324D01*
X126162905Y-71501000D01*
X126567095Y-71501000D01*
X126940518Y-71346324D01*
X127226324Y-71060518D01*
X127381000Y-70687095D01*
X127381000Y-70510709D01*
X128451003Y-69440706D01*
X129785482Y-69440706D01*
X129718494Y-69540960D01*
X129612525Y-69611767D01*
X129435748Y-69788544D01*
X129364940Y-69894515D01*
X129258972Y-69965321D01*
X129082195Y-70142098D01*
X129011389Y-70248066D01*
X128905418Y-70318874D01*
X128728641Y-70495651D01*
X128657833Y-70601622D01*
X128551865Y-70672428D01*
X128375088Y-70849205D01*
X128304282Y-70955173D01*
X128198311Y-71025981D01*
X128021534Y-71202758D01*
X127950727Y-71308727D01*
X127844758Y-71379534D01*
X127667981Y-71556311D01*
X127597173Y-71662282D01*
X127491205Y-71733088D01*
X127314428Y-71909865D01*
X127255601Y-71997906D01*
X127235762Y-72006123D01*
X127214506Y-72027379D01*
X127214506Y-72059408D01*
X127174080Y-72119909D01*
X127174025Y-72120184D01*
X127147863Y-72094022D01*
X127075846Y-72166039D01*
X127075845Y-72166039D01*
X127010269Y-72179083D01*
X126433793Y-72179083D01*
X126341351Y-72086641D01*
X127155243Y-72086641D01*
X127214506Y-72027379D01*
X127214506Y-72027378D01*
X127155243Y-72086641D01*
X126341351Y-72086641D01*
X124688600Y-70433891D01*
X124688600Y-68552988D01*
X124703029Y-68480447D01*
X124688600Y-68407907D01*
X124688600Y-67693047D01*
X130353207Y-67693047D01*
X130425747Y-67707476D01*
X130498287Y-67693047D01*
X130498291Y-67693047D01*
X130713154Y-67650308D01*
X130734158Y-67636274D01*
X130750040Y-67652156D01*
X130750040Y-67652155D01*
X130771296Y-67673411D01*
X131004685Y-67770084D01*
X131257304Y-67770083D01*
X131490693Y-67673410D01*
X131731504Y-67432599D01*
X131731504Y-67208093D01*
X131499000Y-66975589D01*
X131678606Y-66795983D01*
X131911110Y-67028487D01*
X132135616Y-67028487D01*
X132376427Y-66787676D01*
X132473100Y-66554287D01*
X132473101Y-66301668D01*
X132421044Y-66175992D01*
X132633539Y-66388487D01*
X132843583Y-66528835D01*
X132951322Y-66550265D01*
X132951322Y-66551962D01*
X133047995Y-66785351D01*
X133359517Y-67096873D01*
X133584024Y-67096873D01*
X134096146Y-66584751D01*
X134082004Y-66570609D01*
X134261609Y-66391004D01*
X134275751Y-66405146D01*
X134289894Y-66391004D01*
X134469499Y-66570609D01*
X134455356Y-66584751D01*
X135126577Y-67255972D01*
X135351084Y-67255972D01*
X135503508Y-67103548D01*
X135600180Y-66870159D01*
X135600180Y-66617540D01*
X135503507Y-66384151D01*
X135191985Y-66072629D01*
X134967481Y-66072629D01*
X135062261Y-65977849D01*
X136200331Y-65977849D01*
X136189560Y-66032000D01*
G36*
X120788426Y-70602312D02*
X120778024Y-70591910D01*
X120758188Y-70583693D01*
X120699359Y-70495651D01*
X120522582Y-70318874D01*
X120416611Y-70248066D01*
X120345805Y-70142098D01*
X120169028Y-69965321D01*
X120063060Y-69894515D01*
X119992252Y-69788544D01*
X119933352Y-69729644D01*
X120164334Y-69729644D01*
X120537757Y-69574968D01*
X120662481Y-69450244D01*
X121940493Y-69450244D01*
X120788426Y-70602312D01*
X120788426Y-70602312D01*
G37*
X120788426Y-70602312D02*
X120778024Y-70591910D01*
X120758188Y-70583693D01*
X120699359Y-70495651D01*
X120522582Y-70318874D01*
X120416611Y-70248066D01*
X120345805Y-70142098D01*
X120169028Y-69965321D01*
X120063060Y-69894515D01*
X119992252Y-69788544D01*
X119933352Y-69729644D01*
X120164334Y-69729644D01*
X120537757Y-69574968D01*
X120662481Y-69450244D01*
X121940493Y-69450244D01*
X120788426Y-70602312D01*
G36*
X103617191Y-66380809D02*
X103827235Y-66521157D01*
X103962185Y-66548000D01*
X103827235Y-66574843D01*
X103617191Y-66715191D01*
X103550801Y-66814551D01*
X103411250Y-66675000D01*
X103332659Y-66675000D01*
X103182765Y-66574843D01*
X103047815Y-66548000D01*
X103182765Y-66521157D01*
X103332659Y-66421000D01*
X103411250Y-66421000D01*
X103550801Y-66281449D01*
X103617191Y-66380809D01*
X103617191Y-66380809D01*
G37*
X103617191Y-66380809D02*
X103827235Y-66521157D01*
X103962185Y-66548000D01*
X103827235Y-66574843D01*
X103617191Y-66715191D01*
X103550801Y-66814551D01*
X103411250Y-66675000D01*
X103332659Y-66675000D01*
X103182765Y-66574843D01*
X103047815Y-66548000D01*
X103182765Y-66521157D01*
X103332659Y-66421000D01*
X103411250Y-66421000D01*
X103550801Y-66281449D01*
X103617191Y-66380809D01*
G36*
X118975633Y-39319181D02*
X118958096Y-39401961D01*
X119080085Y-39624000D01*
X120723000Y-39624000D01*
X120723000Y-39604000D01*
X120977000Y-39604000D01*
X120977000Y-39624000D01*
X123323000Y-39624000D01*
X123323000Y-39604000D01*
X123577000Y-39604000D01*
X123577000Y-39624000D01*
X125723000Y-39624000D01*
X125723000Y-39604000D01*
X125977000Y-39604000D01*
X125977000Y-39624000D01*
X128323000Y-39624000D01*
X128323000Y-39604000D01*
X128577000Y-39604000D01*
X128577000Y-39624000D01*
X130219915Y-39624000D01*
X130341904Y-39401961D01*
X130324367Y-39319181D01*
X130155149Y-39010000D01*
X132181591Y-39010000D01*
X132067843Y-39180235D01*
X132018560Y-39428000D01*
X132018560Y-39933730D01*
X129878293Y-42073998D01*
X129726252Y-42073998D01*
X129885000Y-41915250D01*
X129885000Y-41374690D01*
X129788327Y-41141301D01*
X129649022Y-41001997D01*
X130054500Y-40675896D01*
X130324367Y-40182819D01*
X130341904Y-40100039D01*
X130219915Y-39878000D01*
X128577000Y-39878000D01*
X128577000Y-39898000D01*
X128323000Y-39898000D01*
X128323000Y-39878000D01*
X125977000Y-39878000D01*
X125977000Y-39898000D01*
X125723000Y-39898000D01*
X125723000Y-39878000D01*
X123577000Y-39878000D01*
X123577000Y-39898000D01*
X123323000Y-39898000D01*
X123323000Y-39878000D01*
X120977000Y-39878000D01*
X120977000Y-39898000D01*
X120723000Y-39898000D01*
X120723000Y-39878000D01*
X119080085Y-39878000D01*
X118958096Y-40100039D01*
X118975633Y-40182819D01*
X119245500Y-40675896D01*
X119650978Y-41001997D01*
X119511673Y-41141301D01*
X119415000Y-41374690D01*
X119415000Y-41915250D01*
X119573750Y-42074000D01*
X120923000Y-42074000D01*
X120923000Y-42054000D01*
X121177000Y-42054000D01*
X121177000Y-42074000D01*
X121197000Y-42074000D01*
X121197000Y-42328000D01*
X121177000Y-42328000D01*
X121177000Y-43377250D01*
X121335750Y-43536000D01*
X122176309Y-43536000D01*
X122409698Y-43439327D01*
X122546256Y-43302769D01*
X122611673Y-43460699D01*
X122790302Y-43639327D01*
X123023691Y-43736000D01*
X123091250Y-43736000D01*
X123250000Y-43577250D01*
X123250000Y-43420836D01*
X123342191Y-43558809D01*
X123552235Y-43699157D01*
X123576792Y-43704042D01*
X123608750Y-43736000D01*
X123676309Y-43736000D01*
X123696147Y-43727783D01*
X123800000Y-43748440D01*
X123971195Y-43748440D01*
X124035201Y-43844232D01*
X124035201Y-46058830D01*
X124015765Y-46045843D01*
X123768000Y-45996560D01*
X122868000Y-45996560D01*
X122657389Y-46038453D01*
X122908324Y-45787518D01*
X123063000Y-45414095D01*
X123063000Y-45009905D01*
X122908324Y-44636482D01*
X122622518Y-44350676D01*
X122249095Y-44196000D01*
X121844905Y-44196000D01*
X121471482Y-44350676D01*
X121346758Y-44475400D01*
X113991540Y-44475400D01*
X113919000Y-44460971D01*
X113846459Y-44475400D01*
X113846456Y-44475400D01*
X113675115Y-44509482D01*
X113631593Y-44518139D01*
X113449441Y-44639849D01*
X113449439Y-44639851D01*
X113387942Y-44680942D01*
X113346850Y-44742440D01*
X112242600Y-45846691D01*
X112242600Y-44229740D01*
X112257029Y-44157199D01*
X112242600Y-44084659D01*
X112242600Y-44084656D01*
X112199861Y-43869793D01*
X112161111Y-43811800D01*
X112078151Y-43687641D01*
X112078149Y-43687639D01*
X112037058Y-43626142D01*
X111975560Y-43585050D01*
X111223754Y-42833244D01*
X111253440Y-42684000D01*
X111253440Y-42486750D01*
X119415000Y-42486750D01*
X119415000Y-43027310D01*
X119511673Y-43260699D01*
X119690302Y-43439327D01*
X119923691Y-43536000D01*
X120764250Y-43536000D01*
X120923000Y-43377250D01*
X120923000Y-42328000D01*
X119573750Y-42328000D01*
X119415000Y-42486750D01*
X111253440Y-42486750D01*
X111253440Y-40284000D01*
X111204157Y-40036235D01*
X111063809Y-39826191D01*
X110853765Y-39685843D01*
X110606000Y-39636560D01*
X109866000Y-39636560D01*
X109618235Y-39685843D01*
X109601000Y-39697359D01*
X109583765Y-39685843D01*
X109336000Y-39636560D01*
X108596000Y-39636560D01*
X108348235Y-39685843D01*
X108331000Y-39697359D01*
X108313765Y-39685843D01*
X108066000Y-39636560D01*
X107326000Y-39636560D01*
X107078235Y-39685843D01*
X107061000Y-39697359D01*
X107043765Y-39685843D01*
X106796000Y-39636560D01*
X106056000Y-39636560D01*
X105808235Y-39685843D01*
X105791000Y-39697359D01*
X105773765Y-39685843D01*
X105526000Y-39636560D01*
X104786000Y-39636560D01*
X104538235Y-39685843D01*
X104328191Y-39826191D01*
X104187843Y-40036235D01*
X104138560Y-40284000D01*
X104138560Y-42289730D01*
X103264029Y-43164262D01*
X103202532Y-43205353D01*
X103161441Y-43266850D01*
X103161438Y-43266853D01*
X103039728Y-43449005D01*
X102982560Y-43736411D01*
X102996990Y-43808956D01*
X102996989Y-51337049D01*
X102982560Y-51409589D01*
X102996989Y-51482129D01*
X102996989Y-51482132D01*
X103018725Y-51591407D01*
X103039728Y-51696995D01*
X103077818Y-51754000D01*
X103202531Y-51940647D01*
X103264031Y-51981740D01*
X108298224Y-57015934D01*
X108243688Y-57070470D01*
X108139778Y-57091139D01*
X107896127Y-57253942D01*
X107855034Y-57315442D01*
X100710000Y-64460476D01*
X100710000Y-39010000D01*
X119144851Y-39010000D01*
X118975633Y-39319181D01*
X118975633Y-39319181D01*
G37*
X118975633Y-39319181D02*
X118958096Y-39401961D01*
X119080085Y-39624000D01*
X120723000Y-39624000D01*
X120723000Y-39604000D01*
X120977000Y-39604000D01*
X120977000Y-39624000D01*
X123323000Y-39624000D01*
X123323000Y-39604000D01*
X123577000Y-39604000D01*
X123577000Y-39624000D01*
X125723000Y-39624000D01*
X125723000Y-39604000D01*
X125977000Y-39604000D01*
X125977000Y-39624000D01*
X128323000Y-39624000D01*
X128323000Y-39604000D01*
X128577000Y-39604000D01*
X128577000Y-39624000D01*
X130219915Y-39624000D01*
X130341904Y-39401961D01*
X130324367Y-39319181D01*
X130155149Y-39010000D01*
X132181591Y-39010000D01*
X132067843Y-39180235D01*
X132018560Y-39428000D01*
X132018560Y-39933730D01*
X129878293Y-42073998D01*
X129726252Y-42073998D01*
X129885000Y-41915250D01*
X129885000Y-41374690D01*
X129788327Y-41141301D01*
X129649022Y-41001997D01*
X130054500Y-40675896D01*
X130324367Y-40182819D01*
X130341904Y-40100039D01*
X130219915Y-39878000D01*
X128577000Y-39878000D01*
X128577000Y-39898000D01*
X128323000Y-39898000D01*
X128323000Y-39878000D01*
X125977000Y-39878000D01*
X125977000Y-39898000D01*
X125723000Y-39898000D01*
X125723000Y-39878000D01*
X123577000Y-39878000D01*
X123577000Y-39898000D01*
X123323000Y-39898000D01*
X123323000Y-39878000D01*
X120977000Y-39878000D01*
X120977000Y-39898000D01*
X120723000Y-39898000D01*
X120723000Y-39878000D01*
X119080085Y-39878000D01*
X118958096Y-40100039D01*
X118975633Y-40182819D01*
X119245500Y-40675896D01*
X119650978Y-41001997D01*
X119511673Y-41141301D01*
X119415000Y-41374690D01*
X119415000Y-41915250D01*
X119573750Y-42074000D01*
X120923000Y-42074000D01*
X120923000Y-42054000D01*
X121177000Y-42054000D01*
X121177000Y-42074000D01*
X121197000Y-42074000D01*
X121197000Y-42328000D01*
X121177000Y-42328000D01*
X121177000Y-43377250D01*
X121335750Y-43536000D01*
X122176309Y-43536000D01*
X122409698Y-43439327D01*
X122546256Y-43302769D01*
X122611673Y-43460699D01*
X122790302Y-43639327D01*
X123023691Y-43736000D01*
X123091250Y-43736000D01*
X123250000Y-43577250D01*
X123250000Y-43420836D01*
X123342191Y-43558809D01*
X123552235Y-43699157D01*
X123576792Y-43704042D01*
X123608750Y-43736000D01*
X123676309Y-43736000D01*
X123696147Y-43727783D01*
X123800000Y-43748440D01*
X123971195Y-43748440D01*
X124035201Y-43844232D01*
X124035201Y-46058830D01*
X124015765Y-46045843D01*
X123768000Y-45996560D01*
X122868000Y-45996560D01*
X122657389Y-46038453D01*
X122908324Y-45787518D01*
X123063000Y-45414095D01*
X123063000Y-45009905D01*
X122908324Y-44636482D01*
X122622518Y-44350676D01*
X122249095Y-44196000D01*
X121844905Y-44196000D01*
X121471482Y-44350676D01*
X121346758Y-44475400D01*
X113991540Y-44475400D01*
X113919000Y-44460971D01*
X113846459Y-44475400D01*
X113846456Y-44475400D01*
X113675115Y-44509482D01*
X113631593Y-44518139D01*
X113449441Y-44639849D01*
X113449439Y-44639851D01*
X113387942Y-44680942D01*
X113346850Y-44742440D01*
X112242600Y-45846691D01*
X112242600Y-44229740D01*
X112257029Y-44157199D01*
X112242600Y-44084659D01*
X112242600Y-44084656D01*
X112199861Y-43869793D01*
X112161111Y-43811800D01*
X112078151Y-43687641D01*
X112078149Y-43687639D01*
X112037058Y-43626142D01*
X111975560Y-43585050D01*
X111223754Y-42833244D01*
X111253440Y-42684000D01*
X111253440Y-42486750D01*
X119415000Y-42486750D01*
X119415000Y-43027310D01*
X119511673Y-43260699D01*
X119690302Y-43439327D01*
X119923691Y-43536000D01*
X120764250Y-43536000D01*
X120923000Y-43377250D01*
X120923000Y-42328000D01*
X119573750Y-42328000D01*
X119415000Y-42486750D01*
X111253440Y-42486750D01*
X111253440Y-40284000D01*
X111204157Y-40036235D01*
X111063809Y-39826191D01*
X110853765Y-39685843D01*
X110606000Y-39636560D01*
X109866000Y-39636560D01*
X109618235Y-39685843D01*
X109601000Y-39697359D01*
X109583765Y-39685843D01*
X109336000Y-39636560D01*
X108596000Y-39636560D01*
X108348235Y-39685843D01*
X108331000Y-39697359D01*
X108313765Y-39685843D01*
X108066000Y-39636560D01*
X107326000Y-39636560D01*
X107078235Y-39685843D01*
X107061000Y-39697359D01*
X107043765Y-39685843D01*
X106796000Y-39636560D01*
X106056000Y-39636560D01*
X105808235Y-39685843D01*
X105791000Y-39697359D01*
X105773765Y-39685843D01*
X105526000Y-39636560D01*
X104786000Y-39636560D01*
X104538235Y-39685843D01*
X104328191Y-39826191D01*
X104187843Y-40036235D01*
X104138560Y-40284000D01*
X104138560Y-42289730D01*
X103264029Y-43164262D01*
X103202532Y-43205353D01*
X103161441Y-43266850D01*
X103161438Y-43266853D01*
X103039728Y-43449005D01*
X102982560Y-43736411D01*
X102996990Y-43808956D01*
X102996989Y-51337049D01*
X102982560Y-51409589D01*
X102996989Y-51482129D01*
X102996989Y-51482132D01*
X103018725Y-51591407D01*
X103039728Y-51696995D01*
X103077818Y-51754000D01*
X103202531Y-51940647D01*
X103264031Y-51981740D01*
X108298224Y-57015934D01*
X108243688Y-57070470D01*
X108139778Y-57091139D01*
X107896127Y-57253942D01*
X107855034Y-57315442D01*
X100710000Y-64460476D01*
X100710000Y-39010000D01*
X119144851Y-39010000D01*
X118975633Y-39319181D01*
G36*
X120597508Y-62522343D02*
X120587106Y-62532745D01*
X120582098Y-62544835D01*
X119768861Y-61731598D01*
X119784725Y-61734754D01*
X119805739Y-61730574D01*
X120597508Y-62522343D01*
X120597508Y-62522343D01*
G37*
X120597508Y-62522343D02*
X120587106Y-62532745D01*
X120582098Y-62544835D01*
X119768861Y-61731598D01*
X119784725Y-61734754D01*
X119805739Y-61730574D01*
X120597508Y-62522343D01*
G36*
X117275028Y-58294423D02*
X117946249Y-58965644D01*
X117960392Y-58951502D01*
X118139997Y-59131107D01*
X118125854Y-59145249D01*
X118139997Y-59159392D01*
X117960392Y-59338997D01*
X117946249Y-59324854D01*
X117434127Y-59836976D01*
X117434127Y-59963976D01*
X117109854Y-60288249D01*
X117123997Y-60302392D01*
X116944392Y-60481997D01*
X116930249Y-60467854D01*
X116916107Y-60481997D01*
X116736502Y-60302392D01*
X116750644Y-60288249D01*
X116079423Y-59617028D01*
X115854916Y-59617028D01*
X115798600Y-59673344D01*
X115798600Y-59212916D01*
X116259028Y-59212916D01*
X116259028Y-59437423D01*
X116930249Y-60108644D01*
X117442371Y-59596522D01*
X117442371Y-59469522D01*
X117766644Y-59145249D01*
X117095423Y-58474028D01*
X116870916Y-58474028D01*
X116718492Y-58626452D01*
X116621820Y-58859841D01*
X116621820Y-58973356D01*
X116411452Y-59060492D01*
X116259028Y-59212916D01*
X115798600Y-59212916D01*
X115798600Y-58471109D01*
X116004901Y-58264809D01*
X117275028Y-58264809D01*
X117275028Y-58294423D01*
X117275028Y-58294423D01*
G37*
X117275028Y-58294423D02*
X117946249Y-58965644D01*
X117960392Y-58951502D01*
X118139997Y-59131107D01*
X118125854Y-59145249D01*
X118139997Y-59159392D01*
X117960392Y-59338997D01*
X117946249Y-59324854D01*
X117434127Y-59836976D01*
X117434127Y-59963976D01*
X117109854Y-60288249D01*
X117123997Y-60302392D01*
X116944392Y-60481997D01*
X116930249Y-60467854D01*
X116916107Y-60481997D01*
X116736502Y-60302392D01*
X116750644Y-60288249D01*
X116079423Y-59617028D01*
X115854916Y-59617028D01*
X115798600Y-59673344D01*
X115798600Y-59212916D01*
X116259028Y-59212916D01*
X116259028Y-59437423D01*
X116930249Y-60108644D01*
X117442371Y-59596522D01*
X117442371Y-59469522D01*
X117766644Y-59145249D01*
X117095423Y-58474028D01*
X116870916Y-58474028D01*
X116718492Y-58626452D01*
X116621820Y-58859841D01*
X116621820Y-58973356D01*
X116411452Y-59060492D01*
X116259028Y-59212916D01*
X115798600Y-59212916D01*
X115798600Y-58471109D01*
X116004901Y-58264809D01*
X117275028Y-58264809D01*
X117275028Y-58294423D01*
G36*
X129235200Y-58686187D02*
X127527724Y-60393664D01*
X127527724Y-59881166D01*
X127536400Y-59837548D01*
X127602487Y-59771461D01*
X127742835Y-59561417D01*
X127764265Y-59453678D01*
X127765962Y-59453678D01*
X127999351Y-59357005D01*
X128310873Y-59045483D01*
X128310873Y-58820976D01*
X127798751Y-58308854D01*
X127784609Y-58322997D01*
X127605004Y-58143392D01*
X127619146Y-58129249D01*
X127605004Y-58115107D01*
X127784609Y-57935502D01*
X127798751Y-57949644D01*
X127812894Y-57935502D01*
X127992499Y-58115107D01*
X127978356Y-58129249D01*
X128490478Y-58641371D01*
X128714985Y-58641371D01*
X129026507Y-58329849D01*
X129123180Y-58096460D01*
X129123180Y-57843841D01*
X129026508Y-57610452D01*
X128947056Y-57531000D01*
X129234095Y-57531000D01*
X129235200Y-57530542D01*
X129235200Y-58686187D01*
X129235200Y-58686187D01*
G37*
X129235200Y-58686187D02*
X127527724Y-60393664D01*
X127527724Y-59881166D01*
X127536400Y-59837548D01*
X127602487Y-59771461D01*
X127742835Y-59561417D01*
X127764265Y-59453678D01*
X127765962Y-59453678D01*
X127999351Y-59357005D01*
X128310873Y-59045483D01*
X128310873Y-58820976D01*
X127798751Y-58308854D01*
X127784609Y-58322997D01*
X127605004Y-58143392D01*
X127619146Y-58129249D01*
X127605004Y-58115107D01*
X127784609Y-57935502D01*
X127798751Y-57949644D01*
X127812894Y-57935502D01*
X127992499Y-58115107D01*
X127978356Y-58129249D01*
X128490478Y-58641371D01*
X128714985Y-58641371D01*
X129026507Y-58329849D01*
X129123180Y-58096460D01*
X129123180Y-57843841D01*
X129026508Y-57610452D01*
X128947056Y-57531000D01*
X129234095Y-57531000D01*
X129235200Y-57530542D01*
X129235200Y-58686187D01*
G36*
X109610588Y-43277048D02*
X109704942Y-43418258D01*
X109766442Y-43459351D01*
X109847359Y-43540268D01*
X109618235Y-43585843D01*
X109601000Y-43597359D01*
X109583765Y-43585843D01*
X109336000Y-43536560D01*
X108596000Y-43536560D01*
X108348235Y-43585843D01*
X108322604Y-43602969D01*
X108192310Y-43549000D01*
X107981750Y-43549000D01*
X107823000Y-43707750D01*
X107823000Y-45257000D01*
X107843000Y-45257000D01*
X107843000Y-45511000D01*
X107823000Y-45511000D01*
X107823000Y-47060250D01*
X107981750Y-47219000D01*
X108192310Y-47219000D01*
X108322604Y-47165031D01*
X108348235Y-47182157D01*
X108596000Y-47231440D01*
X109336000Y-47231440D01*
X109583765Y-47182157D01*
X109601000Y-47170641D01*
X109618235Y-47182157D01*
X109866000Y-47231440D01*
X109954718Y-47231440D01*
X109882676Y-47303482D01*
X109728000Y-47676905D01*
X109728000Y-47853290D01*
X108077000Y-49504290D01*
X105892600Y-47319891D01*
X105892600Y-47203637D01*
X105929690Y-47219000D01*
X106140250Y-47219000D01*
X106299000Y-47060250D01*
X106299000Y-45511000D01*
X106553000Y-45511000D01*
X106553000Y-47060250D01*
X106711750Y-47219000D01*
X106922310Y-47219000D01*
X107061000Y-47161553D01*
X107199690Y-47219000D01*
X107410250Y-47219000D01*
X107569000Y-47060250D01*
X107569000Y-45511000D01*
X106553000Y-45511000D01*
X106299000Y-45511000D01*
X106279000Y-45511000D01*
X106279000Y-45257000D01*
X106299000Y-45257000D01*
X106299000Y-43707750D01*
X106553000Y-43707750D01*
X106553000Y-45257000D01*
X107569000Y-45257000D01*
X107569000Y-43707750D01*
X107410250Y-43549000D01*
X107199690Y-43549000D01*
X107061000Y-43606447D01*
X106922310Y-43549000D01*
X106711750Y-43549000D01*
X106553000Y-43707750D01*
X106299000Y-43707750D01*
X106186480Y-43595230D01*
X106450270Y-43331440D01*
X106796000Y-43331440D01*
X107043765Y-43282157D01*
X107061000Y-43270641D01*
X107078235Y-43282157D01*
X107326000Y-43331440D01*
X108066000Y-43331440D01*
X108313765Y-43282157D01*
X108331000Y-43270641D01*
X108348235Y-43282157D01*
X108596000Y-43331440D01*
X109336000Y-43331440D01*
X109583765Y-43282157D01*
X109601000Y-43270641D01*
X109610588Y-43277048D01*
X109610588Y-43277048D01*
G37*
X109610588Y-43277048D02*
X109704942Y-43418258D01*
X109766442Y-43459351D01*
X109847359Y-43540268D01*
X109618235Y-43585843D01*
X109601000Y-43597359D01*
X109583765Y-43585843D01*
X109336000Y-43536560D01*
X108596000Y-43536560D01*
X108348235Y-43585843D01*
X108322604Y-43602969D01*
X108192310Y-43549000D01*
X107981750Y-43549000D01*
X107823000Y-43707750D01*
X107823000Y-45257000D01*
X107843000Y-45257000D01*
X107843000Y-45511000D01*
X107823000Y-45511000D01*
X107823000Y-47060250D01*
X107981750Y-47219000D01*
X108192310Y-47219000D01*
X108322604Y-47165031D01*
X108348235Y-47182157D01*
X108596000Y-47231440D01*
X109336000Y-47231440D01*
X109583765Y-47182157D01*
X109601000Y-47170641D01*
X109618235Y-47182157D01*
X109866000Y-47231440D01*
X109954718Y-47231440D01*
X109882676Y-47303482D01*
X109728000Y-47676905D01*
X109728000Y-47853290D01*
X108077000Y-49504290D01*
X105892600Y-47319891D01*
X105892600Y-47203637D01*
X105929690Y-47219000D01*
X106140250Y-47219000D01*
X106299000Y-47060250D01*
X106299000Y-45511000D01*
X106553000Y-45511000D01*
X106553000Y-47060250D01*
X106711750Y-47219000D01*
X106922310Y-47219000D01*
X107061000Y-47161553D01*
X107199690Y-47219000D01*
X107410250Y-47219000D01*
X107569000Y-47060250D01*
X107569000Y-45511000D01*
X106553000Y-45511000D01*
X106299000Y-45511000D01*
X106279000Y-45511000D01*
X106279000Y-45257000D01*
X106299000Y-45257000D01*
X106299000Y-43707750D01*
X106553000Y-43707750D01*
X106553000Y-45257000D01*
X107569000Y-45257000D01*
X107569000Y-43707750D01*
X107410250Y-43549000D01*
X107199690Y-43549000D01*
X107061000Y-43606447D01*
X106922310Y-43549000D01*
X106711750Y-43549000D01*
X106553000Y-43707750D01*
X106299000Y-43707750D01*
X106186480Y-43595230D01*
X106450270Y-43331440D01*
X106796000Y-43331440D01*
X107043765Y-43282157D01*
X107061000Y-43270641D01*
X107078235Y-43282157D01*
X107326000Y-43331440D01*
X108066000Y-43331440D01*
X108313765Y-43282157D01*
X108331000Y-43270641D01*
X108348235Y-43282157D01*
X108596000Y-43331440D01*
X109336000Y-43331440D01*
X109583765Y-43282157D01*
X109601000Y-43270641D01*
X109610588Y-43277048D01*
G36*
X128377000Y-42074000D02*
X128397000Y-42074000D01*
X128397000Y-42328000D01*
X128377000Y-42328000D01*
X128377000Y-43377250D01*
X128476020Y-43476270D01*
X127795366Y-44156925D01*
X127583095Y-44069000D01*
X127368830Y-44069000D01*
X127369029Y-44068000D01*
X127354600Y-43995459D01*
X127354600Y-43995456D01*
X127311861Y-43780593D01*
X127290377Y-43748440D01*
X127190151Y-43598441D01*
X127190149Y-43598439D01*
X127149058Y-43536942D01*
X127147648Y-43536000D01*
X127964250Y-43536000D01*
X128123000Y-43377250D01*
X128123000Y-42328000D01*
X128103000Y-42328000D01*
X128103000Y-42074000D01*
X128123000Y-42074000D01*
X128123000Y-42054000D01*
X128377000Y-42054000D01*
X128377000Y-42074000D01*
X128377000Y-42074000D01*
G37*
X128377000Y-42074000D02*
X128397000Y-42074000D01*
X128397000Y-42328000D01*
X128377000Y-42328000D01*
X128377000Y-43377250D01*
X128476020Y-43476270D01*
X127795366Y-44156925D01*
X127583095Y-44069000D01*
X127368830Y-44069000D01*
X127369029Y-44068000D01*
X127354600Y-43995459D01*
X127354600Y-43995456D01*
X127311861Y-43780593D01*
X127290377Y-43748440D01*
X127190151Y-43598441D01*
X127190149Y-43598439D01*
X127149058Y-43536942D01*
X127147648Y-43536000D01*
X127964250Y-43536000D01*
X128123000Y-43377250D01*
X128123000Y-42328000D01*
X128103000Y-42328000D01*
X128103000Y-42074000D01*
X128123000Y-42074000D01*
X128123000Y-42054000D01*
X128377000Y-42054000D01*
X128377000Y-42074000D01*
M02*
