G04 #@! TF.GenerationSoftware,KiCad,Pcbnew,(5.0.1-3-g963ef8bb5)*
G04 #@! TF.CreationDate,2019-01-28T00:30:59-08:00*
G04 #@! TF.ProjectId,pygameboy,707967616D65626F792E6B696361645F,rev?*
G04 #@! TF.SameCoordinates,Original*
G04 #@! TF.FileFunction,Paste,Top*
G04 #@! TF.FilePolarity,Positive*
%FSLAX46Y46*%
G04 Gerber Fmt 4.6, Leading zero omitted, Abs format (unit mm)*
G04 Created by KiCad (PCBNEW (5.0.1-3-g963ef8bb5)) date Monday, January 28, 2019 at 12:30:59 AM*
%MOMM*%
%LPD*%
G01*
G04 APERTURE LIST*
%ADD10R,1.000000X0.900000*%
%ADD11R,2.800000X2.200000*%
%ADD12R,2.800000X2.800000*%
%ADD13R,1.780000X3.430000*%
%ADD14C,0.100000*%
%ADD15C,0.950000*%
%ADD16R,2.800000X2.300000*%
%ADD17R,2.600000X2.800000*%
%ADD18R,2.550000X2.400000*%
%ADD19R,0.900000X1.200000*%
%ADD20R,1.780000X2.000000*%
%ADD21C,1.780000*%
%ADD22R,3.430000X1.780000*%
%ADD23C,0.750000*%
%ADD24R,1.200000X0.900000*%
%ADD25R,2.000000X1.400000*%
%ADD26R,0.400000X1.350000*%
%ADD27R,1.900000X1.900000*%
%ADD28R,0.750000X1.200000*%
%ADD29R,1.200000X0.750000*%
%ADD30R,0.740000X2.400000*%
%ADD31C,0.900000*%
%ADD32R,0.800000X0.900000*%
%ADD33R,1.060000X0.650000*%
%ADD34C,0.250000*%
%ADD35R,1.450000X0.450000*%
%ADD36R,0.450000X1.450000*%
%ADD37R,1.100000X0.400000*%
G04 APERTURE END LIST*
D10*
G04 #@! TO.C,SW1*
X128449000Y-46266000D03*
X128449000Y-44666000D03*
X124349000Y-46266000D03*
X124349000Y-44666000D03*
G04 #@! TD*
D11*
G04 #@! TO.C,J6*
X119977500Y-42739000D03*
D12*
X112627500Y-50139000D03*
D11*
X112627500Y-40739000D03*
G04 #@! TD*
D13*
G04 #@! TO.C,TP47*
X142210500Y-77978000D03*
G04 #@! TD*
D14*
G04 #@! TO.C,C17*
G36*
X113324779Y-66137144D02*
X113347834Y-66140563D01*
X113370443Y-66146227D01*
X113392387Y-66154079D01*
X113413457Y-66164044D01*
X113433448Y-66176026D01*
X113452168Y-66189910D01*
X113469438Y-66205562D01*
X113485090Y-66222832D01*
X113498974Y-66241552D01*
X113510956Y-66261543D01*
X113520921Y-66282613D01*
X113528773Y-66304557D01*
X113534437Y-66327166D01*
X113537856Y-66350221D01*
X113539000Y-66373500D01*
X113539000Y-66948500D01*
X113537856Y-66971779D01*
X113534437Y-66994834D01*
X113528773Y-67017443D01*
X113520921Y-67039387D01*
X113510956Y-67060457D01*
X113498974Y-67080448D01*
X113485090Y-67099168D01*
X113469438Y-67116438D01*
X113452168Y-67132090D01*
X113433448Y-67145974D01*
X113413457Y-67157956D01*
X113392387Y-67167921D01*
X113370443Y-67175773D01*
X113347834Y-67181437D01*
X113324779Y-67184856D01*
X113301500Y-67186000D01*
X112826500Y-67186000D01*
X112803221Y-67184856D01*
X112780166Y-67181437D01*
X112757557Y-67175773D01*
X112735613Y-67167921D01*
X112714543Y-67157956D01*
X112694552Y-67145974D01*
X112675832Y-67132090D01*
X112658562Y-67116438D01*
X112642910Y-67099168D01*
X112629026Y-67080448D01*
X112617044Y-67060457D01*
X112607079Y-67039387D01*
X112599227Y-67017443D01*
X112593563Y-66994834D01*
X112590144Y-66971779D01*
X112589000Y-66948500D01*
X112589000Y-66373500D01*
X112590144Y-66350221D01*
X112593563Y-66327166D01*
X112599227Y-66304557D01*
X112607079Y-66282613D01*
X112617044Y-66261543D01*
X112629026Y-66241552D01*
X112642910Y-66222832D01*
X112658562Y-66205562D01*
X112675832Y-66189910D01*
X112694552Y-66176026D01*
X112714543Y-66164044D01*
X112735613Y-66154079D01*
X112757557Y-66146227D01*
X112780166Y-66140563D01*
X112803221Y-66137144D01*
X112826500Y-66136000D01*
X113301500Y-66136000D01*
X113324779Y-66137144D01*
X113324779Y-66137144D01*
G37*
D15*
X113064000Y-66661000D03*
D14*
G36*
X113324779Y-64387144D02*
X113347834Y-64390563D01*
X113370443Y-64396227D01*
X113392387Y-64404079D01*
X113413457Y-64414044D01*
X113433448Y-64426026D01*
X113452168Y-64439910D01*
X113469438Y-64455562D01*
X113485090Y-64472832D01*
X113498974Y-64491552D01*
X113510956Y-64511543D01*
X113520921Y-64532613D01*
X113528773Y-64554557D01*
X113534437Y-64577166D01*
X113537856Y-64600221D01*
X113539000Y-64623500D01*
X113539000Y-65198500D01*
X113537856Y-65221779D01*
X113534437Y-65244834D01*
X113528773Y-65267443D01*
X113520921Y-65289387D01*
X113510956Y-65310457D01*
X113498974Y-65330448D01*
X113485090Y-65349168D01*
X113469438Y-65366438D01*
X113452168Y-65382090D01*
X113433448Y-65395974D01*
X113413457Y-65407956D01*
X113392387Y-65417921D01*
X113370443Y-65425773D01*
X113347834Y-65431437D01*
X113324779Y-65434856D01*
X113301500Y-65436000D01*
X112826500Y-65436000D01*
X112803221Y-65434856D01*
X112780166Y-65431437D01*
X112757557Y-65425773D01*
X112735613Y-65417921D01*
X112714543Y-65407956D01*
X112694552Y-65395974D01*
X112675832Y-65382090D01*
X112658562Y-65366438D01*
X112642910Y-65349168D01*
X112629026Y-65330448D01*
X112617044Y-65310457D01*
X112607079Y-65289387D01*
X112599227Y-65267443D01*
X112593563Y-65244834D01*
X112590144Y-65221779D01*
X112589000Y-65198500D01*
X112589000Y-64623500D01*
X112590144Y-64600221D01*
X112593563Y-64577166D01*
X112599227Y-64554557D01*
X112607079Y-64532613D01*
X112617044Y-64511543D01*
X112629026Y-64491552D01*
X112642910Y-64472832D01*
X112658562Y-64455562D01*
X112675832Y-64439910D01*
X112694552Y-64426026D01*
X112714543Y-64414044D01*
X112735613Y-64404079D01*
X112757557Y-64396227D01*
X112780166Y-64390563D01*
X112803221Y-64387144D01*
X112826500Y-64386000D01*
X113301500Y-64386000D01*
X113324779Y-64387144D01*
X113324779Y-64387144D01*
G37*
D15*
X113064000Y-64911000D03*
G04 #@! TD*
D16*
G04 #@! TO.C,J5*
X102150000Y-40739000D03*
D17*
X102150000Y-50039000D03*
D18*
X109500000Y-42639000D03*
G04 #@! TD*
D14*
G04 #@! TO.C,C16*
G36*
X122052642Y-56081631D02*
X122075697Y-56085050D01*
X122098306Y-56090714D01*
X122120250Y-56098566D01*
X122141320Y-56108531D01*
X122161311Y-56120513D01*
X122180031Y-56134397D01*
X122197301Y-56150049D01*
X122603887Y-56556635D01*
X122619539Y-56573905D01*
X122633423Y-56592625D01*
X122645405Y-56612616D01*
X122655370Y-56633686D01*
X122663222Y-56655630D01*
X122668886Y-56678239D01*
X122672305Y-56701294D01*
X122673449Y-56724573D01*
X122672305Y-56747852D01*
X122668886Y-56770907D01*
X122663222Y-56793516D01*
X122655370Y-56815460D01*
X122645405Y-56836530D01*
X122633423Y-56856521D01*
X122619539Y-56875241D01*
X122603887Y-56892511D01*
X122268011Y-57228387D01*
X122250741Y-57244039D01*
X122232021Y-57257923D01*
X122212030Y-57269905D01*
X122190960Y-57279870D01*
X122169016Y-57287722D01*
X122146407Y-57293386D01*
X122123352Y-57296805D01*
X122100073Y-57297949D01*
X122076794Y-57296805D01*
X122053739Y-57293386D01*
X122031130Y-57287722D01*
X122009186Y-57279870D01*
X121988116Y-57269905D01*
X121968125Y-57257923D01*
X121949405Y-57244039D01*
X121932135Y-57228387D01*
X121525549Y-56821801D01*
X121509897Y-56804531D01*
X121496013Y-56785811D01*
X121484031Y-56765820D01*
X121474066Y-56744750D01*
X121466214Y-56722806D01*
X121460550Y-56700197D01*
X121457131Y-56677142D01*
X121455987Y-56653863D01*
X121457131Y-56630584D01*
X121460550Y-56607529D01*
X121466214Y-56584920D01*
X121474066Y-56562976D01*
X121484031Y-56541906D01*
X121496013Y-56521915D01*
X121509897Y-56503195D01*
X121525549Y-56485925D01*
X121861425Y-56150049D01*
X121878695Y-56134397D01*
X121897415Y-56120513D01*
X121917406Y-56108531D01*
X121938476Y-56098566D01*
X121960420Y-56090714D01*
X121983029Y-56085050D01*
X122006084Y-56081631D01*
X122029363Y-56080487D01*
X122052642Y-56081631D01*
X122052642Y-56081631D01*
G37*
D15*
X122064718Y-56689218D03*
D14*
G36*
X120815206Y-54844195D02*
X120838261Y-54847614D01*
X120860870Y-54853278D01*
X120882814Y-54861130D01*
X120903884Y-54871095D01*
X120923875Y-54883077D01*
X120942595Y-54896961D01*
X120959865Y-54912613D01*
X121366451Y-55319199D01*
X121382103Y-55336469D01*
X121395987Y-55355189D01*
X121407969Y-55375180D01*
X121417934Y-55396250D01*
X121425786Y-55418194D01*
X121431450Y-55440803D01*
X121434869Y-55463858D01*
X121436013Y-55487137D01*
X121434869Y-55510416D01*
X121431450Y-55533471D01*
X121425786Y-55556080D01*
X121417934Y-55578024D01*
X121407969Y-55599094D01*
X121395987Y-55619085D01*
X121382103Y-55637805D01*
X121366451Y-55655075D01*
X121030575Y-55990951D01*
X121013305Y-56006603D01*
X120994585Y-56020487D01*
X120974594Y-56032469D01*
X120953524Y-56042434D01*
X120931580Y-56050286D01*
X120908971Y-56055950D01*
X120885916Y-56059369D01*
X120862637Y-56060513D01*
X120839358Y-56059369D01*
X120816303Y-56055950D01*
X120793694Y-56050286D01*
X120771750Y-56042434D01*
X120750680Y-56032469D01*
X120730689Y-56020487D01*
X120711969Y-56006603D01*
X120694699Y-55990951D01*
X120288113Y-55584365D01*
X120272461Y-55567095D01*
X120258577Y-55548375D01*
X120246595Y-55528384D01*
X120236630Y-55507314D01*
X120228778Y-55485370D01*
X120223114Y-55462761D01*
X120219695Y-55439706D01*
X120218551Y-55416427D01*
X120219695Y-55393148D01*
X120223114Y-55370093D01*
X120228778Y-55347484D01*
X120236630Y-55325540D01*
X120246595Y-55304470D01*
X120258577Y-55284479D01*
X120272461Y-55265759D01*
X120288113Y-55248489D01*
X120623989Y-54912613D01*
X120641259Y-54896961D01*
X120659979Y-54883077D01*
X120679970Y-54871095D01*
X120701040Y-54861130D01*
X120722984Y-54853278D01*
X120745593Y-54847614D01*
X120768648Y-54844195D01*
X120791927Y-54843051D01*
X120815206Y-54844195D01*
X120815206Y-54844195D01*
G37*
D15*
X120827282Y-55451782D03*
G04 #@! TD*
D19*
G04 #@! TO.C,D4*
X107856000Y-54165500D03*
X104556000Y-54165500D03*
G04 #@! TD*
D20*
G04 #@! TO.C,U8*
X110397000Y-56639500D03*
X102777000Y-66169500D03*
X107857000Y-56639500D03*
X105317000Y-66169500D03*
X105317000Y-56639500D03*
X107857000Y-66169500D03*
X102777000Y-56639500D03*
X110397000Y-66169500D03*
G04 #@! TD*
D14*
G04 #@! TO.C,R5*
G36*
X110340279Y-51941144D02*
X110363334Y-51944563D01*
X110385943Y-51950227D01*
X110407887Y-51958079D01*
X110428957Y-51968044D01*
X110448948Y-51980026D01*
X110467668Y-51993910D01*
X110484938Y-52009562D01*
X110500590Y-52026832D01*
X110514474Y-52045552D01*
X110526456Y-52065543D01*
X110536421Y-52086613D01*
X110544273Y-52108557D01*
X110549937Y-52131166D01*
X110553356Y-52154221D01*
X110554500Y-52177500D01*
X110554500Y-52752500D01*
X110553356Y-52775779D01*
X110549937Y-52798834D01*
X110544273Y-52821443D01*
X110536421Y-52843387D01*
X110526456Y-52864457D01*
X110514474Y-52884448D01*
X110500590Y-52903168D01*
X110484938Y-52920438D01*
X110467668Y-52936090D01*
X110448948Y-52949974D01*
X110428957Y-52961956D01*
X110407887Y-52971921D01*
X110385943Y-52979773D01*
X110363334Y-52985437D01*
X110340279Y-52988856D01*
X110317000Y-52990000D01*
X109842000Y-52990000D01*
X109818721Y-52988856D01*
X109795666Y-52985437D01*
X109773057Y-52979773D01*
X109751113Y-52971921D01*
X109730043Y-52961956D01*
X109710052Y-52949974D01*
X109691332Y-52936090D01*
X109674062Y-52920438D01*
X109658410Y-52903168D01*
X109644526Y-52884448D01*
X109632544Y-52864457D01*
X109622579Y-52843387D01*
X109614727Y-52821443D01*
X109609063Y-52798834D01*
X109605644Y-52775779D01*
X109604500Y-52752500D01*
X109604500Y-52177500D01*
X109605644Y-52154221D01*
X109609063Y-52131166D01*
X109614727Y-52108557D01*
X109622579Y-52086613D01*
X109632544Y-52065543D01*
X109644526Y-52045552D01*
X109658410Y-52026832D01*
X109674062Y-52009562D01*
X109691332Y-51993910D01*
X109710052Y-51980026D01*
X109730043Y-51968044D01*
X109751113Y-51958079D01*
X109773057Y-51950227D01*
X109795666Y-51944563D01*
X109818721Y-51941144D01*
X109842000Y-51940000D01*
X110317000Y-51940000D01*
X110340279Y-51941144D01*
X110340279Y-51941144D01*
G37*
D15*
X110079500Y-52465000D03*
D14*
G36*
X110340279Y-53691144D02*
X110363334Y-53694563D01*
X110385943Y-53700227D01*
X110407887Y-53708079D01*
X110428957Y-53718044D01*
X110448948Y-53730026D01*
X110467668Y-53743910D01*
X110484938Y-53759562D01*
X110500590Y-53776832D01*
X110514474Y-53795552D01*
X110526456Y-53815543D01*
X110536421Y-53836613D01*
X110544273Y-53858557D01*
X110549937Y-53881166D01*
X110553356Y-53904221D01*
X110554500Y-53927500D01*
X110554500Y-54502500D01*
X110553356Y-54525779D01*
X110549937Y-54548834D01*
X110544273Y-54571443D01*
X110536421Y-54593387D01*
X110526456Y-54614457D01*
X110514474Y-54634448D01*
X110500590Y-54653168D01*
X110484938Y-54670438D01*
X110467668Y-54686090D01*
X110448948Y-54699974D01*
X110428957Y-54711956D01*
X110407887Y-54721921D01*
X110385943Y-54729773D01*
X110363334Y-54735437D01*
X110340279Y-54738856D01*
X110317000Y-54740000D01*
X109842000Y-54740000D01*
X109818721Y-54738856D01*
X109795666Y-54735437D01*
X109773057Y-54729773D01*
X109751113Y-54721921D01*
X109730043Y-54711956D01*
X109710052Y-54699974D01*
X109691332Y-54686090D01*
X109674062Y-54670438D01*
X109658410Y-54653168D01*
X109644526Y-54634448D01*
X109632544Y-54614457D01*
X109622579Y-54593387D01*
X109614727Y-54571443D01*
X109609063Y-54548834D01*
X109605644Y-54525779D01*
X109604500Y-54502500D01*
X109604500Y-53927500D01*
X109605644Y-53904221D01*
X109609063Y-53881166D01*
X109614727Y-53858557D01*
X109622579Y-53836613D01*
X109632544Y-53815543D01*
X109644526Y-53795552D01*
X109658410Y-53776832D01*
X109674062Y-53759562D01*
X109691332Y-53743910D01*
X109710052Y-53730026D01*
X109730043Y-53718044D01*
X109751113Y-53708079D01*
X109773057Y-53700227D01*
X109795666Y-53694563D01*
X109818721Y-53691144D01*
X109842000Y-53690000D01*
X110317000Y-53690000D01*
X110340279Y-53691144D01*
X110340279Y-53691144D01*
G37*
D15*
X110079500Y-54215000D03*
G04 #@! TD*
D14*
G04 #@! TO.C,R6*
G36*
X112435779Y-53818144D02*
X112458834Y-53821563D01*
X112481443Y-53827227D01*
X112503387Y-53835079D01*
X112524457Y-53845044D01*
X112544448Y-53857026D01*
X112563168Y-53870910D01*
X112580438Y-53886562D01*
X112596090Y-53903832D01*
X112609974Y-53922552D01*
X112621956Y-53942543D01*
X112631921Y-53963613D01*
X112639773Y-53985557D01*
X112645437Y-54008166D01*
X112648856Y-54031221D01*
X112650000Y-54054500D01*
X112650000Y-54629500D01*
X112648856Y-54652779D01*
X112645437Y-54675834D01*
X112639773Y-54698443D01*
X112631921Y-54720387D01*
X112621956Y-54741457D01*
X112609974Y-54761448D01*
X112596090Y-54780168D01*
X112580438Y-54797438D01*
X112563168Y-54813090D01*
X112544448Y-54826974D01*
X112524457Y-54838956D01*
X112503387Y-54848921D01*
X112481443Y-54856773D01*
X112458834Y-54862437D01*
X112435779Y-54865856D01*
X112412500Y-54867000D01*
X111937500Y-54867000D01*
X111914221Y-54865856D01*
X111891166Y-54862437D01*
X111868557Y-54856773D01*
X111846613Y-54848921D01*
X111825543Y-54838956D01*
X111805552Y-54826974D01*
X111786832Y-54813090D01*
X111769562Y-54797438D01*
X111753910Y-54780168D01*
X111740026Y-54761448D01*
X111728044Y-54741457D01*
X111718079Y-54720387D01*
X111710227Y-54698443D01*
X111704563Y-54675834D01*
X111701144Y-54652779D01*
X111700000Y-54629500D01*
X111700000Y-54054500D01*
X111701144Y-54031221D01*
X111704563Y-54008166D01*
X111710227Y-53985557D01*
X111718079Y-53963613D01*
X111728044Y-53942543D01*
X111740026Y-53922552D01*
X111753910Y-53903832D01*
X111769562Y-53886562D01*
X111786832Y-53870910D01*
X111805552Y-53857026D01*
X111825543Y-53845044D01*
X111846613Y-53835079D01*
X111868557Y-53827227D01*
X111891166Y-53821563D01*
X111914221Y-53818144D01*
X111937500Y-53817000D01*
X112412500Y-53817000D01*
X112435779Y-53818144D01*
X112435779Y-53818144D01*
G37*
D15*
X112175000Y-54342000D03*
D14*
G36*
X112435779Y-52068144D02*
X112458834Y-52071563D01*
X112481443Y-52077227D01*
X112503387Y-52085079D01*
X112524457Y-52095044D01*
X112544448Y-52107026D01*
X112563168Y-52120910D01*
X112580438Y-52136562D01*
X112596090Y-52153832D01*
X112609974Y-52172552D01*
X112621956Y-52192543D01*
X112631921Y-52213613D01*
X112639773Y-52235557D01*
X112645437Y-52258166D01*
X112648856Y-52281221D01*
X112650000Y-52304500D01*
X112650000Y-52879500D01*
X112648856Y-52902779D01*
X112645437Y-52925834D01*
X112639773Y-52948443D01*
X112631921Y-52970387D01*
X112621956Y-52991457D01*
X112609974Y-53011448D01*
X112596090Y-53030168D01*
X112580438Y-53047438D01*
X112563168Y-53063090D01*
X112544448Y-53076974D01*
X112524457Y-53088956D01*
X112503387Y-53098921D01*
X112481443Y-53106773D01*
X112458834Y-53112437D01*
X112435779Y-53115856D01*
X112412500Y-53117000D01*
X111937500Y-53117000D01*
X111914221Y-53115856D01*
X111891166Y-53112437D01*
X111868557Y-53106773D01*
X111846613Y-53098921D01*
X111825543Y-53088956D01*
X111805552Y-53076974D01*
X111786832Y-53063090D01*
X111769562Y-53047438D01*
X111753910Y-53030168D01*
X111740026Y-53011448D01*
X111728044Y-52991457D01*
X111718079Y-52970387D01*
X111710227Y-52948443D01*
X111704563Y-52925834D01*
X111701144Y-52902779D01*
X111700000Y-52879500D01*
X111700000Y-52304500D01*
X111701144Y-52281221D01*
X111704563Y-52258166D01*
X111710227Y-52235557D01*
X111718079Y-52213613D01*
X111728044Y-52192543D01*
X111740026Y-52172552D01*
X111753910Y-52153832D01*
X111769562Y-52136562D01*
X111786832Y-52120910D01*
X111805552Y-52107026D01*
X111825543Y-52095044D01*
X111846613Y-52085079D01*
X111868557Y-52077227D01*
X111891166Y-52071563D01*
X111914221Y-52068144D01*
X111937500Y-52067000D01*
X112412500Y-52067000D01*
X112435779Y-52068144D01*
X112435779Y-52068144D01*
G37*
D15*
X112175000Y-52592000D03*
G04 #@! TD*
D14*
G04 #@! TO.C,R7*
G36*
X120944779Y-45400644D02*
X120967834Y-45404063D01*
X120990443Y-45409727D01*
X121012387Y-45417579D01*
X121033457Y-45427544D01*
X121053448Y-45439526D01*
X121072168Y-45453410D01*
X121089438Y-45469062D01*
X121105090Y-45486332D01*
X121118974Y-45505052D01*
X121130956Y-45525043D01*
X121140921Y-45546113D01*
X121148773Y-45568057D01*
X121154437Y-45590666D01*
X121157856Y-45613721D01*
X121159000Y-45637000D01*
X121159000Y-46212000D01*
X121157856Y-46235279D01*
X121154437Y-46258334D01*
X121148773Y-46280943D01*
X121140921Y-46302887D01*
X121130956Y-46323957D01*
X121118974Y-46343948D01*
X121105090Y-46362668D01*
X121089438Y-46379938D01*
X121072168Y-46395590D01*
X121053448Y-46409474D01*
X121033457Y-46421456D01*
X121012387Y-46431421D01*
X120990443Y-46439273D01*
X120967834Y-46444937D01*
X120944779Y-46448356D01*
X120921500Y-46449500D01*
X120446500Y-46449500D01*
X120423221Y-46448356D01*
X120400166Y-46444937D01*
X120377557Y-46439273D01*
X120355613Y-46431421D01*
X120334543Y-46421456D01*
X120314552Y-46409474D01*
X120295832Y-46395590D01*
X120278562Y-46379938D01*
X120262910Y-46362668D01*
X120249026Y-46343948D01*
X120237044Y-46323957D01*
X120227079Y-46302887D01*
X120219227Y-46280943D01*
X120213563Y-46258334D01*
X120210144Y-46235279D01*
X120209000Y-46212000D01*
X120209000Y-45637000D01*
X120210144Y-45613721D01*
X120213563Y-45590666D01*
X120219227Y-45568057D01*
X120227079Y-45546113D01*
X120237044Y-45525043D01*
X120249026Y-45505052D01*
X120262910Y-45486332D01*
X120278562Y-45469062D01*
X120295832Y-45453410D01*
X120314552Y-45439526D01*
X120334543Y-45427544D01*
X120355613Y-45417579D01*
X120377557Y-45409727D01*
X120400166Y-45404063D01*
X120423221Y-45400644D01*
X120446500Y-45399500D01*
X120921500Y-45399500D01*
X120944779Y-45400644D01*
X120944779Y-45400644D01*
G37*
D15*
X120684000Y-45924500D03*
D14*
G36*
X120944779Y-47150644D02*
X120967834Y-47154063D01*
X120990443Y-47159727D01*
X121012387Y-47167579D01*
X121033457Y-47177544D01*
X121053448Y-47189526D01*
X121072168Y-47203410D01*
X121089438Y-47219062D01*
X121105090Y-47236332D01*
X121118974Y-47255052D01*
X121130956Y-47275043D01*
X121140921Y-47296113D01*
X121148773Y-47318057D01*
X121154437Y-47340666D01*
X121157856Y-47363721D01*
X121159000Y-47387000D01*
X121159000Y-47962000D01*
X121157856Y-47985279D01*
X121154437Y-48008334D01*
X121148773Y-48030943D01*
X121140921Y-48052887D01*
X121130956Y-48073957D01*
X121118974Y-48093948D01*
X121105090Y-48112668D01*
X121089438Y-48129938D01*
X121072168Y-48145590D01*
X121053448Y-48159474D01*
X121033457Y-48171456D01*
X121012387Y-48181421D01*
X120990443Y-48189273D01*
X120967834Y-48194937D01*
X120944779Y-48198356D01*
X120921500Y-48199500D01*
X120446500Y-48199500D01*
X120423221Y-48198356D01*
X120400166Y-48194937D01*
X120377557Y-48189273D01*
X120355613Y-48181421D01*
X120334543Y-48171456D01*
X120314552Y-48159474D01*
X120295832Y-48145590D01*
X120278562Y-48129938D01*
X120262910Y-48112668D01*
X120249026Y-48093948D01*
X120237044Y-48073957D01*
X120227079Y-48052887D01*
X120219227Y-48030943D01*
X120213563Y-48008334D01*
X120210144Y-47985279D01*
X120209000Y-47962000D01*
X120209000Y-47387000D01*
X120210144Y-47363721D01*
X120213563Y-47340666D01*
X120219227Y-47318057D01*
X120227079Y-47296113D01*
X120237044Y-47275043D01*
X120249026Y-47255052D01*
X120262910Y-47236332D01*
X120278562Y-47219062D01*
X120295832Y-47203410D01*
X120314552Y-47189526D01*
X120334543Y-47177544D01*
X120355613Y-47167579D01*
X120377557Y-47159727D01*
X120400166Y-47154063D01*
X120423221Y-47150644D01*
X120446500Y-47149500D01*
X120921500Y-47149500D01*
X120944779Y-47150644D01*
X120944779Y-47150644D01*
G37*
D15*
X120684000Y-47674500D03*
G04 #@! TD*
D14*
G04 #@! TO.C,R8*
G36*
X110503279Y-67788644D02*
X110526334Y-67792063D01*
X110548943Y-67797727D01*
X110570887Y-67805579D01*
X110591957Y-67815544D01*
X110611948Y-67827526D01*
X110630668Y-67841410D01*
X110647938Y-67857062D01*
X110663590Y-67874332D01*
X110677474Y-67893052D01*
X110689456Y-67913043D01*
X110699421Y-67934113D01*
X110707273Y-67956057D01*
X110712937Y-67978666D01*
X110716356Y-68001721D01*
X110717500Y-68025000D01*
X110717500Y-68500000D01*
X110716356Y-68523279D01*
X110712937Y-68546334D01*
X110707273Y-68568943D01*
X110699421Y-68590887D01*
X110689456Y-68611957D01*
X110677474Y-68631948D01*
X110663590Y-68650668D01*
X110647938Y-68667938D01*
X110630668Y-68683590D01*
X110611948Y-68697474D01*
X110591957Y-68709456D01*
X110570887Y-68719421D01*
X110548943Y-68727273D01*
X110526334Y-68732937D01*
X110503279Y-68736356D01*
X110480000Y-68737500D01*
X109905000Y-68737500D01*
X109881721Y-68736356D01*
X109858666Y-68732937D01*
X109836057Y-68727273D01*
X109814113Y-68719421D01*
X109793043Y-68709456D01*
X109773052Y-68697474D01*
X109754332Y-68683590D01*
X109737062Y-68667938D01*
X109721410Y-68650668D01*
X109707526Y-68631948D01*
X109695544Y-68611957D01*
X109685579Y-68590887D01*
X109677727Y-68568943D01*
X109672063Y-68546334D01*
X109668644Y-68523279D01*
X109667500Y-68500000D01*
X109667500Y-68025000D01*
X109668644Y-68001721D01*
X109672063Y-67978666D01*
X109677727Y-67956057D01*
X109685579Y-67934113D01*
X109695544Y-67913043D01*
X109707526Y-67893052D01*
X109721410Y-67874332D01*
X109737062Y-67857062D01*
X109754332Y-67841410D01*
X109773052Y-67827526D01*
X109793043Y-67815544D01*
X109814113Y-67805579D01*
X109836057Y-67797727D01*
X109858666Y-67792063D01*
X109881721Y-67788644D01*
X109905000Y-67787500D01*
X110480000Y-67787500D01*
X110503279Y-67788644D01*
X110503279Y-67788644D01*
G37*
D15*
X110192500Y-68262500D03*
D14*
G36*
X108753279Y-67788644D02*
X108776334Y-67792063D01*
X108798943Y-67797727D01*
X108820887Y-67805579D01*
X108841957Y-67815544D01*
X108861948Y-67827526D01*
X108880668Y-67841410D01*
X108897938Y-67857062D01*
X108913590Y-67874332D01*
X108927474Y-67893052D01*
X108939456Y-67913043D01*
X108949421Y-67934113D01*
X108957273Y-67956057D01*
X108962937Y-67978666D01*
X108966356Y-68001721D01*
X108967500Y-68025000D01*
X108967500Y-68500000D01*
X108966356Y-68523279D01*
X108962937Y-68546334D01*
X108957273Y-68568943D01*
X108949421Y-68590887D01*
X108939456Y-68611957D01*
X108927474Y-68631948D01*
X108913590Y-68650668D01*
X108897938Y-68667938D01*
X108880668Y-68683590D01*
X108861948Y-68697474D01*
X108841957Y-68709456D01*
X108820887Y-68719421D01*
X108798943Y-68727273D01*
X108776334Y-68732937D01*
X108753279Y-68736356D01*
X108730000Y-68737500D01*
X108155000Y-68737500D01*
X108131721Y-68736356D01*
X108108666Y-68732937D01*
X108086057Y-68727273D01*
X108064113Y-68719421D01*
X108043043Y-68709456D01*
X108023052Y-68697474D01*
X108004332Y-68683590D01*
X107987062Y-68667938D01*
X107971410Y-68650668D01*
X107957526Y-68631948D01*
X107945544Y-68611957D01*
X107935579Y-68590887D01*
X107927727Y-68568943D01*
X107922063Y-68546334D01*
X107918644Y-68523279D01*
X107917500Y-68500000D01*
X107917500Y-68025000D01*
X107918644Y-68001721D01*
X107922063Y-67978666D01*
X107927727Y-67956057D01*
X107935579Y-67934113D01*
X107945544Y-67913043D01*
X107957526Y-67893052D01*
X107971410Y-67874332D01*
X107987062Y-67857062D01*
X108004332Y-67841410D01*
X108023052Y-67827526D01*
X108043043Y-67815544D01*
X108064113Y-67805579D01*
X108086057Y-67797727D01*
X108108666Y-67792063D01*
X108131721Y-67788644D01*
X108155000Y-67787500D01*
X108730000Y-67787500D01*
X108753279Y-67788644D01*
X108753279Y-67788644D01*
G37*
D15*
X108442500Y-68262500D03*
G04 #@! TD*
D13*
G04 #@! TO.C,TP46*
X135162000Y-64579500D03*
G04 #@! TD*
G04 #@! TO.C,TP33*
X142195000Y-67988000D03*
G04 #@! TD*
D21*
G04 #@! TO.C,TP40*
X133695000Y-71738000D03*
D14*
G36*
X135537013Y-72321363D02*
X134278363Y-73580013D01*
X131852987Y-71154637D01*
X133111637Y-69895987D01*
X135537013Y-72321363D01*
X135537013Y-72321363D01*
G37*
G04 #@! TD*
D13*
G04 #@! TO.C,TP41*
X104364500Y-76708000D03*
G04 #@! TD*
D21*
G04 #@! TO.C,TP42*
X108682500Y-73723500D03*
D14*
G36*
X108099137Y-75565513D02*
X106840487Y-74306863D01*
X109265863Y-71881487D01*
X110524513Y-73140137D01*
X108099137Y-75565513D01*
X108099137Y-75565513D01*
G37*
G04 #@! TD*
D22*
G04 #@! TO.C,TP43*
X137945000Y-74988000D03*
G04 #@! TD*
D21*
G04 #@! TO.C,TP44*
X133003000Y-51752500D03*
D14*
G36*
X132419637Y-53594513D02*
X131160987Y-52335863D01*
X133586363Y-49910487D01*
X134845013Y-51169137D01*
X132419637Y-53594513D01*
X132419637Y-53594513D01*
G37*
G04 #@! TD*
D21*
G04 #@! TO.C,TP45*
X112238500Y-69596000D03*
D14*
G36*
X111655137Y-71438013D02*
X110396487Y-70179363D01*
X112821863Y-67753987D01*
X114080513Y-69012637D01*
X111655137Y-71438013D01*
X111655137Y-71438013D01*
G37*
G04 #@! TD*
D13*
G04 #@! TO.C,TP35*
X139445000Y-65488000D03*
G04 #@! TD*
G04 #@! TO.C,TP34*
X139445000Y-69738000D03*
G04 #@! TD*
G04 #@! TO.C,TP38*
X113762500Y-60833000D03*
G04 #@! TD*
G04 #@! TO.C,TP39*
X101507000Y-69723000D03*
G04 #@! TD*
D22*
G04 #@! TO.C,TP37*
X145945000Y-47738000D03*
G04 #@! TD*
D21*
G04 #@! TO.C,TP36*
X122081000Y-53975000D03*
D14*
G36*
X123923013Y-54558363D02*
X122664363Y-55817013D01*
X120238987Y-53391637D01*
X121497637Y-52132987D01*
X123923013Y-54558363D01*
X123923013Y-54558363D01*
G37*
G04 #@! TD*
D23*
G04 #@! TO.C,C14*
X119073249Y-58016249D03*
D14*
G36*
X118383820Y-57857150D02*
X118914150Y-57326820D01*
X119762678Y-58175348D01*
X119232348Y-58705678D01*
X118383820Y-57857150D01*
X118383820Y-57857150D01*
G37*
D23*
X120416751Y-59359751D03*
D14*
G36*
X119727322Y-59200652D02*
X120257652Y-58670322D01*
X121106180Y-59518850D01*
X120575850Y-60049180D01*
X119727322Y-59200652D01*
X119727322Y-59200652D01*
G37*
G04 #@! TD*
D23*
G04 #@! TO.C,C15*
X121516751Y-58309751D03*
D14*
G36*
X120827322Y-58150652D02*
X121357652Y-57620322D01*
X122206180Y-58468850D01*
X121675850Y-58999180D01*
X120827322Y-58150652D01*
X120827322Y-58150652D01*
G37*
D23*
X120173249Y-56966249D03*
D14*
G36*
X119483820Y-56807150D02*
X120014150Y-56276820D01*
X120862678Y-57125348D01*
X120332348Y-57655678D01*
X119483820Y-56807150D01*
X119483820Y-56807150D01*
G37*
G04 #@! TD*
D19*
G04 #@! TO.C,D3*
X132685500Y-41676500D03*
X132685500Y-39476500D03*
G04 #@! TD*
G04 #@! TO.C,R4*
X134463500Y-39476500D03*
X134463500Y-41676500D03*
G04 #@! TD*
D24*
G04 #@! TO.C,R3*
X138768000Y-61214000D03*
X136568000Y-61214000D03*
G04 #@! TD*
G04 #@! TO.C,D2*
X101473000Y-72391000D03*
X101473000Y-75691000D03*
G04 #@! TD*
D19*
G04 #@! TO.C,D1*
X127858500Y-48768000D03*
X124558500Y-48768000D03*
G04 #@! TD*
D25*
G04 #@! TO.C,J4*
X129999000Y-42010500D03*
X122799000Y-42010500D03*
D26*
X127699000Y-42235500D03*
X127049000Y-42235500D03*
X126399000Y-42235500D03*
X125749000Y-42235500D03*
X125099000Y-42235500D03*
D27*
X127599000Y-39560500D03*
X125199000Y-39560500D03*
G04 #@! TD*
D28*
G04 #@! TO.C,C13*
X107476000Y-70106500D03*
X107476000Y-72006500D03*
G04 #@! TD*
D23*
G04 #@! TO.C,C12*
X120740249Y-79792751D03*
D14*
G36*
X120581150Y-80482180D02*
X120050820Y-79951850D01*
X120899348Y-79103322D01*
X121429678Y-79633652D01*
X120581150Y-80482180D01*
X120581150Y-80482180D01*
G37*
D23*
X122083751Y-78449249D03*
D14*
G36*
X121924652Y-79138678D02*
X121394322Y-78608348D01*
X122242850Y-77759820D01*
X122773180Y-78290150D01*
X121924652Y-79138678D01*
X121924652Y-79138678D01*
G37*
G04 #@! TD*
D29*
G04 #@! TO.C,C11*
X112837000Y-77724000D03*
X110937000Y-77724000D03*
G04 #@! TD*
G04 #@! TO.C,C10*
X105632000Y-73914000D03*
X103732000Y-73914000D03*
G04 #@! TD*
D28*
G04 #@! TO.C,C9*
X129445000Y-81087000D03*
X129445000Y-79187000D03*
G04 #@! TD*
D29*
G04 #@! TO.C,C8*
X136591000Y-59563000D03*
X138491000Y-59563000D03*
G04 #@! TD*
G04 #@! TO.C,C7*
X140655000Y-59563000D03*
X142555000Y-59563000D03*
G04 #@! TD*
D23*
G04 #@! TO.C,C6*
X128594751Y-58319749D03*
D14*
G36*
X128753850Y-57630320D02*
X129284180Y-58160650D01*
X128435652Y-59009178D01*
X127905322Y-58478848D01*
X128753850Y-57630320D01*
X128753850Y-57630320D01*
G37*
D23*
X127251249Y-59663251D03*
D14*
G36*
X127410348Y-58973822D02*
X127940678Y-59504152D01*
X127092150Y-60352680D01*
X126561820Y-59822350D01*
X127410348Y-58973822D01*
X127410348Y-58973822D01*
G37*
G04 #@! TD*
D28*
G04 #@! TO.C,C5*
X133320500Y-66360001D03*
X133320500Y-68259999D03*
G04 #@! TD*
D23*
G04 #@! TO.C,C4*
X127217249Y-76236751D03*
D14*
G36*
X127058150Y-76926180D02*
X126527820Y-76395850D01*
X127376348Y-75547322D01*
X127906678Y-76077652D01*
X127058150Y-76926180D01*
X127058150Y-76926180D01*
G37*
D23*
X128560751Y-74893249D03*
D14*
G36*
X128401652Y-75582678D02*
X127871322Y-75052348D01*
X128719850Y-74203820D01*
X129250180Y-74734150D01*
X128401652Y-75582678D01*
X128401652Y-75582678D01*
G37*
G04 #@! TD*
D23*
G04 #@! TO.C,C3*
X118908751Y-73369249D03*
D14*
G36*
X118749652Y-74058678D02*
X118219322Y-73528348D01*
X119067850Y-72679820D01*
X119598180Y-73210150D01*
X118749652Y-74058678D01*
X118749652Y-74058678D01*
G37*
D23*
X117565249Y-74712751D03*
D14*
G36*
X117406150Y-75402180D02*
X116875820Y-74871850D01*
X117724348Y-74023322D01*
X118254678Y-74553652D01*
X117406150Y-75402180D01*
X117406150Y-75402180D01*
G37*
G04 #@! TD*
D23*
G04 #@! TO.C,C2*
X119289751Y-60488751D03*
D14*
G36*
X119979180Y-60647850D02*
X119448850Y-61178180D01*
X118600322Y-60329652D01*
X119130652Y-59799322D01*
X119979180Y-60647850D01*
X119979180Y-60647850D01*
G37*
D23*
X117946249Y-59145249D03*
D14*
G36*
X118635678Y-59304348D02*
X118105348Y-59834678D01*
X117256820Y-58986150D01*
X117787150Y-58455820D01*
X118635678Y-59304348D01*
X118635678Y-59304348D01*
G37*
G04 #@! TD*
D23*
G04 #@! TO.C,C1*
X118273751Y-61631751D03*
D14*
G36*
X117584322Y-61472652D02*
X118114652Y-60942322D01*
X118963180Y-61790850D01*
X118432850Y-62321180D01*
X117584322Y-61472652D01*
X117584322Y-61472652D01*
G37*
D23*
X116930249Y-60288249D03*
D14*
G36*
X116240820Y-60129150D02*
X116771150Y-59598820D01*
X117619678Y-60447348D01*
X117089348Y-60977678D01*
X116240820Y-60129150D01*
X116240820Y-60129150D01*
G37*
G04 #@! TD*
D30*
G04 #@! TO.C,J3*
X136622500Y-45447500D03*
X136622500Y-41547500D03*
X137892500Y-45447500D03*
X137892500Y-41547500D03*
X139162500Y-45447500D03*
X139162500Y-41547500D03*
X140432500Y-45447500D03*
X140432500Y-41547500D03*
X141702500Y-45447500D03*
X141702500Y-41547500D03*
G04 #@! TD*
D19*
G04 #@! TO.C,R2*
X137287000Y-64432000D03*
X137287000Y-66632000D03*
G04 #@! TD*
D31*
G04 #@! TO.C,R1*
X123049317Y-51704817D03*
D14*
G36*
X122306855Y-51598751D02*
X122943251Y-50962355D01*
X123791779Y-51810883D01*
X123155383Y-52447279D01*
X122306855Y-51598751D01*
X122306855Y-51598751D01*
G37*
D31*
X121493683Y-50149183D03*
D14*
G36*
X120751221Y-50043117D02*
X121387617Y-49406721D01*
X122236145Y-50255249D01*
X121599749Y-50891645D01*
X120751221Y-50043117D01*
X120751221Y-50043117D01*
G37*
G04 #@! TD*
D32*
G04 #@! TO.C,Q1*
X136271000Y-70723000D03*
X135321000Y-68723000D03*
X137221000Y-68723000D03*
G04 #@! TD*
D33*
G04 #@! TO.C,U7*
X105782000Y-70170000D03*
X105782000Y-72070000D03*
X103582000Y-72070000D03*
X103582000Y-71120000D03*
X103582000Y-70170000D03*
G04 #@! TD*
D34*
G04 #@! TO.C,U2*
X118031841Y-66693142D03*
D14*
G36*
X118473783Y-66958307D02*
X118297006Y-67135084D01*
X117589899Y-66427977D01*
X117766676Y-66251200D01*
X118473783Y-66958307D01*
X118473783Y-66958307D01*
G37*
D34*
X118385394Y-66339588D03*
D14*
G36*
X118827336Y-66604753D02*
X118650559Y-66781530D01*
X117943452Y-66074423D01*
X118120229Y-65897646D01*
X118827336Y-66604753D01*
X118827336Y-66604753D01*
G37*
D34*
X118738948Y-65986035D03*
D14*
G36*
X119180890Y-66251200D02*
X119004113Y-66427977D01*
X118297006Y-65720870D01*
X118473783Y-65544093D01*
X119180890Y-66251200D01*
X119180890Y-66251200D01*
G37*
D34*
X119092501Y-65632482D03*
D14*
G36*
X119534443Y-65897647D02*
X119357666Y-66074424D01*
X118650559Y-65367317D01*
X118827336Y-65190540D01*
X119534443Y-65897647D01*
X119534443Y-65897647D01*
G37*
D34*
X119446054Y-65278928D03*
D14*
G36*
X119887996Y-65544093D02*
X119711219Y-65720870D01*
X119004112Y-65013763D01*
X119180889Y-64836986D01*
X119887996Y-65544093D01*
X119887996Y-65544093D01*
G37*
D34*
X119799608Y-64925375D03*
D14*
G36*
X120241550Y-65190540D02*
X120064773Y-65367317D01*
X119357666Y-64660210D01*
X119534443Y-64483433D01*
X120241550Y-65190540D01*
X120241550Y-65190540D01*
G37*
D34*
X120153161Y-64571821D03*
D14*
G36*
X120595103Y-64836986D02*
X120418326Y-65013763D01*
X119711219Y-64306656D01*
X119887996Y-64129879D01*
X120595103Y-64836986D01*
X120595103Y-64836986D01*
G37*
D34*
X120506715Y-64218268D03*
D14*
G36*
X120948657Y-64483433D02*
X120771880Y-64660210D01*
X120064773Y-63953103D01*
X120241550Y-63776326D01*
X120948657Y-64483433D01*
X120948657Y-64483433D01*
G37*
D34*
X120860268Y-63864715D03*
D14*
G36*
X121302210Y-64129880D02*
X121125433Y-64306657D01*
X120418326Y-63599550D01*
X120595103Y-63422773D01*
X121302210Y-64129880D01*
X121302210Y-64129880D01*
G37*
D34*
X121213821Y-63511161D03*
D14*
G36*
X121655763Y-63776326D02*
X121478986Y-63953103D01*
X120771879Y-63245996D01*
X120948656Y-63069219D01*
X121655763Y-63776326D01*
X121655763Y-63776326D01*
G37*
D34*
X121567375Y-63157608D03*
D14*
G36*
X122009317Y-63422773D02*
X121832540Y-63599550D01*
X121125433Y-62892443D01*
X121302210Y-62715666D01*
X122009317Y-63422773D01*
X122009317Y-63422773D01*
G37*
D34*
X121920928Y-62804054D03*
D14*
G36*
X122362870Y-63069219D02*
X122186093Y-63245996D01*
X121478986Y-62538889D01*
X121655763Y-62362112D01*
X122362870Y-63069219D01*
X122362870Y-63069219D01*
G37*
D34*
X122274482Y-62450501D03*
D14*
G36*
X122716424Y-62715666D02*
X122539647Y-62892443D01*
X121832540Y-62185336D01*
X122009317Y-62008559D01*
X122716424Y-62715666D01*
X122716424Y-62715666D01*
G37*
D34*
X122628035Y-62096948D03*
D14*
G36*
X123069977Y-62362113D02*
X122893200Y-62538890D01*
X122186093Y-61831783D01*
X122362870Y-61655006D01*
X123069977Y-62362113D01*
X123069977Y-62362113D01*
G37*
D34*
X122981588Y-61743394D03*
D14*
G36*
X123423530Y-62008559D02*
X123246753Y-62185336D01*
X122539646Y-61478229D01*
X122716423Y-61301452D01*
X123423530Y-62008559D01*
X123423530Y-62008559D01*
G37*
D34*
X123335142Y-61389841D03*
D14*
G36*
X123777084Y-61655006D02*
X123600307Y-61831783D01*
X122893200Y-61124676D01*
X123069977Y-60947899D01*
X123777084Y-61655006D01*
X123777084Y-61655006D01*
G37*
D34*
X126092858Y-61389841D03*
D14*
G36*
X125827693Y-61831783D02*
X125650916Y-61655006D01*
X126358023Y-60947899D01*
X126534800Y-61124676D01*
X125827693Y-61831783D01*
X125827693Y-61831783D01*
G37*
D34*
X126446412Y-61743394D03*
D14*
G36*
X126181247Y-62185336D02*
X126004470Y-62008559D01*
X126711577Y-61301452D01*
X126888354Y-61478229D01*
X126181247Y-62185336D01*
X126181247Y-62185336D01*
G37*
D34*
X126799965Y-62096948D03*
D14*
G36*
X126534800Y-62538890D02*
X126358023Y-62362113D01*
X127065130Y-61655006D01*
X127241907Y-61831783D01*
X126534800Y-62538890D01*
X126534800Y-62538890D01*
G37*
D34*
X127153518Y-62450501D03*
D14*
G36*
X126888353Y-62892443D02*
X126711576Y-62715666D01*
X127418683Y-62008559D01*
X127595460Y-62185336D01*
X126888353Y-62892443D01*
X126888353Y-62892443D01*
G37*
D34*
X127507072Y-62804054D03*
D14*
G36*
X127241907Y-63245996D02*
X127065130Y-63069219D01*
X127772237Y-62362112D01*
X127949014Y-62538889D01*
X127241907Y-63245996D01*
X127241907Y-63245996D01*
G37*
D34*
X127860625Y-63157608D03*
D14*
G36*
X127595460Y-63599550D02*
X127418683Y-63422773D01*
X128125790Y-62715666D01*
X128302567Y-62892443D01*
X127595460Y-63599550D01*
X127595460Y-63599550D01*
G37*
D34*
X128214179Y-63511161D03*
D14*
G36*
X127949014Y-63953103D02*
X127772237Y-63776326D01*
X128479344Y-63069219D01*
X128656121Y-63245996D01*
X127949014Y-63953103D01*
X127949014Y-63953103D01*
G37*
D34*
X128567732Y-63864715D03*
D14*
G36*
X128302567Y-64306657D02*
X128125790Y-64129880D01*
X128832897Y-63422773D01*
X129009674Y-63599550D01*
X128302567Y-64306657D01*
X128302567Y-64306657D01*
G37*
D34*
X128921285Y-64218268D03*
D14*
G36*
X128656120Y-64660210D02*
X128479343Y-64483433D01*
X129186450Y-63776326D01*
X129363227Y-63953103D01*
X128656120Y-64660210D01*
X128656120Y-64660210D01*
G37*
D34*
X129274839Y-64571821D03*
D14*
G36*
X129009674Y-65013763D02*
X128832897Y-64836986D01*
X129540004Y-64129879D01*
X129716781Y-64306656D01*
X129009674Y-65013763D01*
X129009674Y-65013763D01*
G37*
D34*
X129628392Y-64925375D03*
D14*
G36*
X129363227Y-65367317D02*
X129186450Y-65190540D01*
X129893557Y-64483433D01*
X130070334Y-64660210D01*
X129363227Y-65367317D01*
X129363227Y-65367317D01*
G37*
D34*
X129981946Y-65278928D03*
D14*
G36*
X129716781Y-65720870D02*
X129540004Y-65544093D01*
X130247111Y-64836986D01*
X130423888Y-65013763D01*
X129716781Y-65720870D01*
X129716781Y-65720870D01*
G37*
D34*
X130335499Y-65632482D03*
D14*
G36*
X130070334Y-66074424D02*
X129893557Y-65897647D01*
X130600664Y-65190540D01*
X130777441Y-65367317D01*
X130070334Y-66074424D01*
X130070334Y-66074424D01*
G37*
D34*
X130689052Y-65986035D03*
D14*
G36*
X130423887Y-66427977D02*
X130247110Y-66251200D01*
X130954217Y-65544093D01*
X131130994Y-65720870D01*
X130423887Y-66427977D01*
X130423887Y-66427977D01*
G37*
D34*
X131042606Y-66339588D03*
D14*
G36*
X130777441Y-66781530D02*
X130600664Y-66604753D01*
X131307771Y-65897646D01*
X131484548Y-66074423D01*
X130777441Y-66781530D01*
X130777441Y-66781530D01*
G37*
D34*
X131396159Y-66693142D03*
D14*
G36*
X131130994Y-67135084D02*
X130954217Y-66958307D01*
X131661324Y-66251200D01*
X131838101Y-66427977D01*
X131130994Y-67135084D01*
X131130994Y-67135084D01*
G37*
D34*
X131396159Y-69450858D03*
D14*
G36*
X131838101Y-69716023D02*
X131661324Y-69892800D01*
X130954217Y-69185693D01*
X131130994Y-69008916D01*
X131838101Y-69716023D01*
X131838101Y-69716023D01*
G37*
D34*
X131042606Y-69804412D03*
D14*
G36*
X131484548Y-70069577D02*
X131307771Y-70246354D01*
X130600664Y-69539247D01*
X130777441Y-69362470D01*
X131484548Y-70069577D01*
X131484548Y-70069577D01*
G37*
D34*
X130689052Y-70157965D03*
D14*
G36*
X131130994Y-70423130D02*
X130954217Y-70599907D01*
X130247110Y-69892800D01*
X130423887Y-69716023D01*
X131130994Y-70423130D01*
X131130994Y-70423130D01*
G37*
D34*
X130335499Y-70511518D03*
D14*
G36*
X130777441Y-70776683D02*
X130600664Y-70953460D01*
X129893557Y-70246353D01*
X130070334Y-70069576D01*
X130777441Y-70776683D01*
X130777441Y-70776683D01*
G37*
D34*
X129981946Y-70865072D03*
D14*
G36*
X130423888Y-71130237D02*
X130247111Y-71307014D01*
X129540004Y-70599907D01*
X129716781Y-70423130D01*
X130423888Y-71130237D01*
X130423888Y-71130237D01*
G37*
D34*
X129628392Y-71218625D03*
D14*
G36*
X130070334Y-71483790D02*
X129893557Y-71660567D01*
X129186450Y-70953460D01*
X129363227Y-70776683D01*
X130070334Y-71483790D01*
X130070334Y-71483790D01*
G37*
D34*
X129274839Y-71572179D03*
D14*
G36*
X129716781Y-71837344D02*
X129540004Y-72014121D01*
X128832897Y-71307014D01*
X129009674Y-71130237D01*
X129716781Y-71837344D01*
X129716781Y-71837344D01*
G37*
D34*
X128921285Y-71925732D03*
D14*
G36*
X129363227Y-72190897D02*
X129186450Y-72367674D01*
X128479343Y-71660567D01*
X128656120Y-71483790D01*
X129363227Y-72190897D01*
X129363227Y-72190897D01*
G37*
D34*
X128567732Y-72279285D03*
D14*
G36*
X129009674Y-72544450D02*
X128832897Y-72721227D01*
X128125790Y-72014120D01*
X128302567Y-71837343D01*
X129009674Y-72544450D01*
X129009674Y-72544450D01*
G37*
D34*
X128214179Y-72632839D03*
D14*
G36*
X128656121Y-72898004D02*
X128479344Y-73074781D01*
X127772237Y-72367674D01*
X127949014Y-72190897D01*
X128656121Y-72898004D01*
X128656121Y-72898004D01*
G37*
D34*
X127860625Y-72986392D03*
D14*
G36*
X128302567Y-73251557D02*
X128125790Y-73428334D01*
X127418683Y-72721227D01*
X127595460Y-72544450D01*
X128302567Y-73251557D01*
X128302567Y-73251557D01*
G37*
D34*
X127507072Y-73339946D03*
D14*
G36*
X127949014Y-73605111D02*
X127772237Y-73781888D01*
X127065130Y-73074781D01*
X127241907Y-72898004D01*
X127949014Y-73605111D01*
X127949014Y-73605111D01*
G37*
D34*
X127153518Y-73693499D03*
D14*
G36*
X127595460Y-73958664D02*
X127418683Y-74135441D01*
X126711576Y-73428334D01*
X126888353Y-73251557D01*
X127595460Y-73958664D01*
X127595460Y-73958664D01*
G37*
D34*
X126799965Y-74047052D03*
D14*
G36*
X127241907Y-74312217D02*
X127065130Y-74488994D01*
X126358023Y-73781887D01*
X126534800Y-73605110D01*
X127241907Y-74312217D01*
X127241907Y-74312217D01*
G37*
D34*
X126446412Y-74400606D03*
D14*
G36*
X126888354Y-74665771D02*
X126711577Y-74842548D01*
X126004470Y-74135441D01*
X126181247Y-73958664D01*
X126888354Y-74665771D01*
X126888354Y-74665771D01*
G37*
D34*
X126092858Y-74754159D03*
D14*
G36*
X126534800Y-75019324D02*
X126358023Y-75196101D01*
X125650916Y-74488994D01*
X125827693Y-74312217D01*
X126534800Y-75019324D01*
X126534800Y-75019324D01*
G37*
D34*
X123335142Y-74754159D03*
D14*
G36*
X123069977Y-75196101D02*
X122893200Y-75019324D01*
X123600307Y-74312217D01*
X123777084Y-74488994D01*
X123069977Y-75196101D01*
X123069977Y-75196101D01*
G37*
D34*
X122981588Y-74400606D03*
D14*
G36*
X122716423Y-74842548D02*
X122539646Y-74665771D01*
X123246753Y-73958664D01*
X123423530Y-74135441D01*
X122716423Y-74842548D01*
X122716423Y-74842548D01*
G37*
D34*
X122628035Y-74047052D03*
D14*
G36*
X122362870Y-74488994D02*
X122186093Y-74312217D01*
X122893200Y-73605110D01*
X123069977Y-73781887D01*
X122362870Y-74488994D01*
X122362870Y-74488994D01*
G37*
D34*
X122274482Y-73693499D03*
D14*
G36*
X122009317Y-74135441D02*
X121832540Y-73958664D01*
X122539647Y-73251557D01*
X122716424Y-73428334D01*
X122009317Y-74135441D01*
X122009317Y-74135441D01*
G37*
D34*
X121920928Y-73339946D03*
D14*
G36*
X121655763Y-73781888D02*
X121478986Y-73605111D01*
X122186093Y-72898004D01*
X122362870Y-73074781D01*
X121655763Y-73781888D01*
X121655763Y-73781888D01*
G37*
D34*
X121567375Y-72986392D03*
D14*
G36*
X121302210Y-73428334D02*
X121125433Y-73251557D01*
X121832540Y-72544450D01*
X122009317Y-72721227D01*
X121302210Y-73428334D01*
X121302210Y-73428334D01*
G37*
D34*
X121213821Y-72632839D03*
D14*
G36*
X120948656Y-73074781D02*
X120771879Y-72898004D01*
X121478986Y-72190897D01*
X121655763Y-72367674D01*
X120948656Y-73074781D01*
X120948656Y-73074781D01*
G37*
D34*
X120860268Y-72279285D03*
D14*
G36*
X120595103Y-72721227D02*
X120418326Y-72544450D01*
X121125433Y-71837343D01*
X121302210Y-72014120D01*
X120595103Y-72721227D01*
X120595103Y-72721227D01*
G37*
D34*
X120506715Y-71925732D03*
D14*
G36*
X120241550Y-72367674D02*
X120064773Y-72190897D01*
X120771880Y-71483790D01*
X120948657Y-71660567D01*
X120241550Y-72367674D01*
X120241550Y-72367674D01*
G37*
D34*
X120153161Y-71572179D03*
D14*
G36*
X119887996Y-72014121D02*
X119711219Y-71837344D01*
X120418326Y-71130237D01*
X120595103Y-71307014D01*
X119887996Y-72014121D01*
X119887996Y-72014121D01*
G37*
D34*
X119799608Y-71218625D03*
D14*
G36*
X119534443Y-71660567D02*
X119357666Y-71483790D01*
X120064773Y-70776683D01*
X120241550Y-70953460D01*
X119534443Y-71660567D01*
X119534443Y-71660567D01*
G37*
D34*
X119446054Y-70865072D03*
D14*
G36*
X119180889Y-71307014D02*
X119004112Y-71130237D01*
X119711219Y-70423130D01*
X119887996Y-70599907D01*
X119180889Y-71307014D01*
X119180889Y-71307014D01*
G37*
D34*
X119092501Y-70511518D03*
D14*
G36*
X118827336Y-70953460D02*
X118650559Y-70776683D01*
X119357666Y-70069576D01*
X119534443Y-70246353D01*
X118827336Y-70953460D01*
X118827336Y-70953460D01*
G37*
D34*
X118738948Y-70157965D03*
D14*
G36*
X118473783Y-70599907D02*
X118297006Y-70423130D01*
X119004113Y-69716023D01*
X119180890Y-69892800D01*
X118473783Y-70599907D01*
X118473783Y-70599907D01*
G37*
D34*
X118385394Y-69804412D03*
D14*
G36*
X118120229Y-70246354D02*
X117943452Y-70069577D01*
X118650559Y-69362470D01*
X118827336Y-69539247D01*
X118120229Y-70246354D01*
X118120229Y-70246354D01*
G37*
D34*
X118031841Y-69450858D03*
D14*
G36*
X117766676Y-69892800D02*
X117589899Y-69716023D01*
X118297006Y-69008916D01*
X118473783Y-69185693D01*
X117766676Y-69892800D01*
X117766676Y-69892800D01*
G37*
G04 #@! TD*
D35*
G04 #@! TO.C,U6*
X108614000Y-79371000D03*
X108614000Y-80021000D03*
X108614000Y-80671000D03*
X108614000Y-81321000D03*
X108614000Y-81971000D03*
X108614000Y-82621000D03*
X108614000Y-83271000D03*
X108614000Y-83921000D03*
X108614000Y-84571000D03*
X108614000Y-85221000D03*
X102714000Y-85221000D03*
X102714000Y-84571000D03*
X102714000Y-83921000D03*
X102714000Y-83271000D03*
X102714000Y-82621000D03*
X102714000Y-81971000D03*
X102714000Y-81321000D03*
X102714000Y-80671000D03*
X102714000Y-80021000D03*
X102714000Y-79371000D03*
G04 #@! TD*
G04 #@! TO.C,U4*
X112874000Y-79371000D03*
X112874000Y-80021000D03*
X112874000Y-80671000D03*
X112874000Y-81321000D03*
X112874000Y-81971000D03*
X112874000Y-82621000D03*
X112874000Y-83271000D03*
X112874000Y-83921000D03*
X112874000Y-84571000D03*
X112874000Y-85221000D03*
X118774000Y-85221000D03*
X118774000Y-84571000D03*
X118774000Y-83921000D03*
X118774000Y-83271000D03*
X118774000Y-82621000D03*
X118774000Y-81971000D03*
X118774000Y-81321000D03*
X118774000Y-80671000D03*
X118774000Y-80021000D03*
X118774000Y-79371000D03*
G04 #@! TD*
D36*
G04 #@! TO.C,U3*
X131020000Y-77788000D03*
X131670000Y-77788000D03*
X132320000Y-77788000D03*
X132970000Y-77788000D03*
X133620000Y-77788000D03*
X134270000Y-77788000D03*
X134920000Y-77788000D03*
X135570000Y-77788000D03*
X136220000Y-77788000D03*
X136870000Y-77788000D03*
X136870000Y-83688000D03*
X136220000Y-83688000D03*
X135570000Y-83688000D03*
X134920000Y-83688000D03*
X134270000Y-83688000D03*
X133620000Y-83688000D03*
X132970000Y-83688000D03*
X132320000Y-83688000D03*
X131670000Y-83688000D03*
X131020000Y-83688000D03*
G04 #@! TD*
D37*
G04 #@! TO.C,U5*
X136596000Y-57804000D03*
X136596000Y-57154000D03*
X136596000Y-56504000D03*
X136596000Y-55854000D03*
X136596000Y-55204000D03*
X136596000Y-54554000D03*
X136596000Y-53904000D03*
X136596000Y-53254000D03*
X136596000Y-52604000D03*
X136596000Y-51954000D03*
X136596000Y-51304000D03*
X136596000Y-50654000D03*
X142296000Y-50654000D03*
X142296000Y-51304000D03*
X142296000Y-51954000D03*
X142296000Y-52604000D03*
X142296000Y-53254000D03*
X142296000Y-53904000D03*
X142296000Y-54554000D03*
X142296000Y-55204000D03*
X142296000Y-55854000D03*
X142296000Y-56504000D03*
X142296000Y-57154000D03*
X142296000Y-57804000D03*
G04 #@! TD*
M02*
