G04 #@! TF.GenerationSoftware,KiCad,Pcbnew,(5.0.1-3-g963ef8bb5)*
G04 #@! TF.CreationDate,2019-01-28T00:30:59-08:00*
G04 #@! TF.ProjectId,pygameboy,707967616D65626F792E6B696361645F,rev?*
G04 #@! TF.SameCoordinates,Original*
G04 #@! TF.FileFunction,Soldermask,Top*
G04 #@! TF.FilePolarity,Negative*
%FSLAX46Y46*%
G04 Gerber Fmt 4.6, Leading zero omitted, Abs format (unit mm)*
G04 Created by KiCad (PCBNEW (5.0.1-3-g963ef8bb5)) date Monday, January 28, 2019 at 12:30:59 AM*
%MOMM*%
%LPD*%
G01*
G04 APERTURE LIST*
%ADD10C,0.100000*%
G04 APERTURE END LIST*
D10*
G36*
X148895800Y-97538800D02*
X147394200Y-97538800D01*
X147394200Y-91437200D01*
X148895800Y-91437200D01*
X148895800Y-97538800D01*
X148895800Y-97538800D01*
G37*
G36*
X146995800Y-97538800D02*
X145894200Y-97538800D01*
X145894200Y-91437200D01*
X146995800Y-91437200D01*
X146995800Y-97538800D01*
X146995800Y-97538800D01*
G37*
G36*
X145495800Y-97538800D02*
X144394200Y-97538800D01*
X144394200Y-91437200D01*
X145495800Y-91437200D01*
X145495800Y-97538800D01*
X145495800Y-97538800D01*
G37*
G36*
X143995800Y-97538800D02*
X142894200Y-97538800D01*
X142894200Y-91437200D01*
X143995800Y-91437200D01*
X143995800Y-97538800D01*
X143995800Y-97538800D01*
G37*
G36*
X142495800Y-97538800D02*
X141394200Y-97538800D01*
X141394200Y-91437200D01*
X142495800Y-91437200D01*
X142495800Y-97538800D01*
X142495800Y-97538800D01*
G37*
G36*
X140995800Y-97538800D02*
X139894200Y-97538800D01*
X139894200Y-91437200D01*
X140995800Y-91437200D01*
X140995800Y-97538800D01*
X140995800Y-97538800D01*
G37*
G36*
X139495800Y-97538800D02*
X138394200Y-97538800D01*
X138394200Y-91437200D01*
X139495800Y-91437200D01*
X139495800Y-97538800D01*
X139495800Y-97538800D01*
G37*
G36*
X137995800Y-97538800D02*
X136894200Y-97538800D01*
X136894200Y-91437200D01*
X137995800Y-91437200D01*
X137995800Y-97538800D01*
X137995800Y-97538800D01*
G37*
G36*
X136495800Y-97538800D02*
X135394200Y-97538800D01*
X135394200Y-91437200D01*
X136495800Y-91437200D01*
X136495800Y-97538800D01*
X136495800Y-97538800D01*
G37*
G36*
X134995800Y-97538800D02*
X133894200Y-97538800D01*
X133894200Y-91437200D01*
X134995800Y-91437200D01*
X134995800Y-97538800D01*
X134995800Y-97538800D01*
G37*
G36*
X133495800Y-97538800D02*
X132394200Y-97538800D01*
X132394200Y-91437200D01*
X133495800Y-91437200D01*
X133495800Y-97538800D01*
X133495800Y-97538800D01*
G37*
G36*
X131995800Y-97538800D02*
X130894200Y-97538800D01*
X130894200Y-91437200D01*
X131995800Y-91437200D01*
X131995800Y-97538800D01*
X131995800Y-97538800D01*
G37*
G36*
X130495800Y-97538800D02*
X129394200Y-97538800D01*
X129394200Y-91437200D01*
X130495800Y-91437200D01*
X130495800Y-97538800D01*
X130495800Y-97538800D01*
G37*
G36*
X128995800Y-97538800D02*
X127894200Y-97538800D01*
X127894200Y-91437200D01*
X128995800Y-91437200D01*
X128995800Y-97538800D01*
X128995800Y-97538800D01*
G37*
G36*
X127495800Y-97538800D02*
X126394200Y-97538800D01*
X126394200Y-91437200D01*
X127495800Y-91437200D01*
X127495800Y-97538800D01*
X127495800Y-97538800D01*
G37*
G36*
X125995800Y-97538800D02*
X124894200Y-97538800D01*
X124894200Y-91437200D01*
X125995800Y-91437200D01*
X125995800Y-97538800D01*
X125995800Y-97538800D01*
G37*
G36*
X124495800Y-97538800D02*
X123394200Y-97538800D01*
X123394200Y-91437200D01*
X124495800Y-91437200D01*
X124495800Y-97538800D01*
X124495800Y-97538800D01*
G37*
G36*
X122995800Y-97538800D02*
X121894200Y-97538800D01*
X121894200Y-91437200D01*
X122995800Y-91437200D01*
X122995800Y-97538800D01*
X122995800Y-97538800D01*
G37*
G36*
X121495800Y-97538800D02*
X120394200Y-97538800D01*
X120394200Y-91437200D01*
X121495800Y-91437200D01*
X121495800Y-97538800D01*
X121495800Y-97538800D01*
G37*
G36*
X119995800Y-97538800D02*
X118894200Y-97538800D01*
X118894200Y-91437200D01*
X119995800Y-91437200D01*
X119995800Y-97538800D01*
X119995800Y-97538800D01*
G37*
G36*
X118495800Y-97538800D02*
X117394200Y-97538800D01*
X117394200Y-91437200D01*
X118495800Y-91437200D01*
X118495800Y-97538800D01*
X118495800Y-97538800D01*
G37*
G36*
X116995800Y-97538800D02*
X115894200Y-97538800D01*
X115894200Y-91437200D01*
X116995800Y-91437200D01*
X116995800Y-97538800D01*
X116995800Y-97538800D01*
G37*
G36*
X115495800Y-97538800D02*
X114394200Y-97538800D01*
X114394200Y-91437200D01*
X115495800Y-91437200D01*
X115495800Y-97538800D01*
X115495800Y-97538800D01*
G37*
G36*
X113995800Y-97538800D02*
X112894200Y-97538800D01*
X112894200Y-91437200D01*
X113995800Y-91437200D01*
X113995800Y-97538800D01*
X113995800Y-97538800D01*
G37*
G36*
X112495800Y-97538800D02*
X111394200Y-97538800D01*
X111394200Y-91437200D01*
X112495800Y-91437200D01*
X112495800Y-97538800D01*
X112495800Y-97538800D01*
G37*
G36*
X110995800Y-97538800D02*
X109894200Y-97538800D01*
X109894200Y-91437200D01*
X110995800Y-91437200D01*
X110995800Y-97538800D01*
X110995800Y-97538800D01*
G37*
G36*
X109495800Y-97538800D02*
X108394200Y-97538800D01*
X108394200Y-91437200D01*
X109495800Y-91437200D01*
X109495800Y-97538800D01*
X109495800Y-97538800D01*
G37*
G36*
X107995800Y-97538800D02*
X106894200Y-97538800D01*
X106894200Y-91437200D01*
X107995800Y-91437200D01*
X107995800Y-97538800D01*
X107995800Y-97538800D01*
G37*
G36*
X106495800Y-97538800D02*
X105394200Y-97538800D01*
X105394200Y-91437200D01*
X106495800Y-91437200D01*
X106495800Y-97538800D01*
X106495800Y-97538800D01*
G37*
G36*
X104995800Y-97538800D02*
X103894200Y-97538800D01*
X103894200Y-91437200D01*
X104995800Y-91437200D01*
X104995800Y-97538800D01*
X104995800Y-97538800D01*
G37*
G36*
X103495800Y-97538800D02*
X102394200Y-97538800D01*
X102394200Y-91437200D01*
X103495800Y-91437200D01*
X103495800Y-97538800D01*
X103495800Y-97538800D01*
G37*
G36*
X101995800Y-97498800D02*
X100494200Y-97498800D01*
X100494200Y-91397200D01*
X101995800Y-91397200D01*
X101995800Y-97498800D01*
X101995800Y-97498800D01*
G37*
G36*
X121495800Y-88288800D02*
X120394200Y-88288800D01*
X120394200Y-87187200D01*
X121495800Y-87187200D01*
X121495800Y-88288800D01*
X121495800Y-88288800D01*
G37*
G36*
X110995800Y-88288800D02*
X109894200Y-88288800D01*
X109894200Y-87187200D01*
X110995800Y-87187200D01*
X110995800Y-88288800D01*
X110995800Y-88288800D01*
G37*
G36*
X109495800Y-88288800D02*
X108394200Y-88288800D01*
X108394200Y-87187200D01*
X109495800Y-87187200D01*
X109495800Y-88288800D01*
X109495800Y-88288800D01*
G37*
G36*
X107995800Y-88288800D02*
X106894200Y-88288800D01*
X106894200Y-87187200D01*
X107995800Y-87187200D01*
X107995800Y-88288800D01*
X107995800Y-88288800D01*
G37*
G36*
X106495800Y-88288800D02*
X105394200Y-88288800D01*
X105394200Y-87187200D01*
X106495800Y-87187200D01*
X106495800Y-88288800D01*
X106495800Y-88288800D01*
G37*
G36*
X104995800Y-88288800D02*
X103894200Y-88288800D01*
X103894200Y-87187200D01*
X104995800Y-87187200D01*
X104995800Y-88288800D01*
X104995800Y-88288800D01*
G37*
G36*
X103495800Y-88288800D02*
X102394200Y-88288800D01*
X102394200Y-87187200D01*
X103495800Y-87187200D01*
X103495800Y-88288800D01*
X103495800Y-88288800D01*
G37*
G36*
X101769800Y-88288800D02*
X100668200Y-88288800D01*
X100668200Y-87187200D01*
X101769800Y-87187200D01*
X101769800Y-88288800D01*
X101769800Y-88288800D01*
G37*
G36*
X113995800Y-88288800D02*
X112894200Y-88288800D01*
X112894200Y-87187200D01*
X113995800Y-87187200D01*
X113995800Y-88288800D01*
X113995800Y-88288800D01*
G37*
G36*
X119995800Y-88288800D02*
X118894200Y-88288800D01*
X118894200Y-87187200D01*
X119995800Y-87187200D01*
X119995800Y-88288800D01*
X119995800Y-88288800D01*
G37*
G36*
X112495800Y-88288800D02*
X111394200Y-88288800D01*
X111394200Y-87187200D01*
X112495800Y-87187200D01*
X112495800Y-88288800D01*
X112495800Y-88288800D01*
G37*
G36*
X115495800Y-88288800D02*
X114394200Y-88288800D01*
X114394200Y-87187200D01*
X115495800Y-87187200D01*
X115495800Y-88288800D01*
X115495800Y-88288800D01*
G37*
G36*
X116995800Y-88288800D02*
X115894200Y-88288800D01*
X115894200Y-87187200D01*
X116995800Y-87187200D01*
X116995800Y-88288800D01*
X116995800Y-88288800D01*
G37*
G36*
X118495800Y-88288800D02*
X117394200Y-88288800D01*
X117394200Y-87187200D01*
X118495800Y-87187200D01*
X118495800Y-88288800D01*
X118495800Y-88288800D01*
G37*
G36*
X122995800Y-88288800D02*
X121894200Y-88288800D01*
X121894200Y-87187200D01*
X122995800Y-87187200D01*
X122995800Y-88288800D01*
X122995800Y-88288800D01*
G37*
G36*
X124495800Y-88288800D02*
X123394200Y-88288800D01*
X123394200Y-87187200D01*
X124495800Y-87187200D01*
X124495800Y-88288800D01*
X124495800Y-88288800D01*
G37*
G36*
X125995800Y-88288800D02*
X124894200Y-88288800D01*
X124894200Y-87187200D01*
X125995800Y-87187200D01*
X125995800Y-88288800D01*
X125995800Y-88288800D01*
G37*
G36*
X127495800Y-88288800D02*
X126394200Y-88288800D01*
X126394200Y-87187200D01*
X127495800Y-87187200D01*
X127495800Y-88288800D01*
X127495800Y-88288800D01*
G37*
G36*
X128995800Y-88288800D02*
X127894200Y-88288800D01*
X127894200Y-87187200D01*
X128995800Y-87187200D01*
X128995800Y-88288800D01*
X128995800Y-88288800D01*
G37*
G36*
X130495800Y-88288800D02*
X129394200Y-88288800D01*
X129394200Y-87187200D01*
X130495800Y-87187200D01*
X130495800Y-88288800D01*
X130495800Y-88288800D01*
G37*
G36*
X131995800Y-88288800D02*
X130894200Y-88288800D01*
X130894200Y-87187200D01*
X131995800Y-87187200D01*
X131995800Y-88288800D01*
X131995800Y-88288800D01*
G37*
G36*
X133495800Y-88288800D02*
X132394200Y-88288800D01*
X132394200Y-87187200D01*
X133495800Y-87187200D01*
X133495800Y-88288800D01*
X133495800Y-88288800D01*
G37*
G36*
X134995800Y-88288800D02*
X133894200Y-88288800D01*
X133894200Y-87187200D01*
X134995800Y-87187200D01*
X134995800Y-88288800D01*
X134995800Y-88288800D01*
G37*
G36*
X136495800Y-88288800D02*
X135394200Y-88288800D01*
X135394200Y-87187200D01*
X136495800Y-87187200D01*
X136495800Y-88288800D01*
X136495800Y-88288800D01*
G37*
G36*
X137995800Y-88288800D02*
X136894200Y-88288800D01*
X136894200Y-87187200D01*
X137995800Y-87187200D01*
X137995800Y-88288800D01*
X137995800Y-88288800D01*
G37*
G36*
X139495800Y-88288800D02*
X138394200Y-88288800D01*
X138394200Y-87187200D01*
X139495800Y-87187200D01*
X139495800Y-88288800D01*
X139495800Y-88288800D01*
G37*
G36*
X140995800Y-88288800D02*
X139894200Y-88288800D01*
X139894200Y-87187200D01*
X140995800Y-87187200D01*
X140995800Y-88288800D01*
X140995800Y-88288800D01*
G37*
G36*
X142495800Y-88288800D02*
X141394200Y-88288800D01*
X141394200Y-87187200D01*
X142495800Y-87187200D01*
X142495800Y-88288800D01*
X142495800Y-88288800D01*
G37*
G36*
X143995800Y-88288800D02*
X142894200Y-88288800D01*
X142894200Y-87187200D01*
X143995800Y-87187200D01*
X143995800Y-88288800D01*
X143995800Y-88288800D01*
G37*
G36*
X145495800Y-88288800D02*
X144394200Y-88288800D01*
X144394200Y-87187200D01*
X145495800Y-87187200D01*
X145495800Y-88288800D01*
X145495800Y-88288800D01*
G37*
G36*
X148595800Y-88238800D02*
X147494200Y-88238800D01*
X147494200Y-87137200D01*
X148595800Y-87137200D01*
X148595800Y-88238800D01*
X148595800Y-88238800D01*
G37*
G36*
X146345800Y-86288800D02*
X145244200Y-86288800D01*
X145244200Y-85187200D01*
X146345800Y-85187200D01*
X146345800Y-86288800D01*
X146345800Y-86288800D01*
G37*
G36*
X125381745Y-78671271D02*
X125744068Y-78743341D01*
X126426670Y-79026084D01*
X127040996Y-79436563D01*
X127563437Y-79959004D01*
X127973916Y-80573330D01*
X127973916Y-80573331D01*
X128256659Y-81255933D01*
X128352509Y-81737800D01*
X128400800Y-81980578D01*
X128400800Y-82719422D01*
X128256659Y-83444068D01*
X127973916Y-84126670D01*
X127563437Y-84740996D01*
X127040996Y-85263437D01*
X126426670Y-85673916D01*
X125744068Y-85956659D01*
X125381745Y-86028729D01*
X125019423Y-86100800D01*
X124280577Y-86100800D01*
X123918255Y-86028729D01*
X123555932Y-85956659D01*
X122873330Y-85673916D01*
X122259004Y-85263437D01*
X121736563Y-84740996D01*
X121326084Y-84126670D01*
X121043341Y-83444068D01*
X120899200Y-82719422D01*
X120899200Y-81980578D01*
X120947492Y-81737800D01*
X121043341Y-81255933D01*
X121326084Y-80573331D01*
X121326084Y-80573330D01*
X121736563Y-79959004D01*
X122259004Y-79436563D01*
X122873330Y-79026084D01*
X123555932Y-78743341D01*
X123918255Y-78671271D01*
X124280577Y-78599200D01*
X125019423Y-78599200D01*
X125381745Y-78671271D01*
X125381745Y-78671271D01*
G37*
G36*
X119549800Y-85496800D02*
X117998200Y-85496800D01*
X117998200Y-79095200D01*
X119549800Y-79095200D01*
X119549800Y-85496800D01*
X119549800Y-85496800D01*
G37*
G36*
X113649800Y-85496800D02*
X112098200Y-85496800D01*
X112098200Y-79095200D01*
X113649800Y-79095200D01*
X113649800Y-85496800D01*
X113649800Y-85496800D01*
G37*
G36*
X103489800Y-85496800D02*
X101938200Y-85496800D01*
X101938200Y-79095200D01*
X103489800Y-79095200D01*
X103489800Y-85496800D01*
X103489800Y-85496800D01*
G37*
G36*
X109389800Y-85496800D02*
X107838200Y-85496800D01*
X107838200Y-79095200D01*
X109389800Y-79095200D01*
X109389800Y-85496800D01*
X109389800Y-85496800D01*
G37*
G36*
X137145800Y-84463800D02*
X130744200Y-84463800D01*
X130744200Y-82912200D01*
X137145800Y-82912200D01*
X137145800Y-84463800D01*
X137145800Y-84463800D01*
G37*
G36*
X129870800Y-81737800D02*
X129019200Y-81737800D01*
X129019200Y-80436200D01*
X129870800Y-80436200D01*
X129870800Y-81737800D01*
X129870800Y-81737800D01*
G37*
G36*
X121501521Y-79633652D02*
X120581150Y-80554023D01*
X119978977Y-79951850D01*
X120899348Y-79031479D01*
X121501521Y-79633652D01*
X121501521Y-79633652D01*
G37*
G36*
X129870800Y-79837800D02*
X129019200Y-79837800D01*
X129019200Y-78536200D01*
X129870800Y-78536200D01*
X129870800Y-79837800D01*
X129870800Y-79837800D01*
G37*
G36*
X143151300Y-79743800D02*
X141269700Y-79743800D01*
X141269700Y-76212200D01*
X143151300Y-76212200D01*
X143151300Y-79743800D01*
X143151300Y-79743800D01*
G37*
G36*
X122845023Y-78290150D02*
X121924652Y-79210521D01*
X121322479Y-78608348D01*
X122242850Y-77687977D01*
X122845023Y-78290150D01*
X122845023Y-78290150D01*
G37*
G36*
X137145800Y-78563800D02*
X130744200Y-78563800D01*
X130744200Y-77012200D01*
X137145800Y-77012200D01*
X137145800Y-78563800D01*
X137145800Y-78563800D01*
G37*
G36*
X105305300Y-78473800D02*
X103423700Y-78473800D01*
X103423700Y-74942200D01*
X105305300Y-74942200D01*
X105305300Y-78473800D01*
X105305300Y-78473800D01*
G37*
G36*
X111587800Y-78149800D02*
X110286200Y-78149800D01*
X110286200Y-77298200D01*
X111587800Y-77298200D01*
X111587800Y-78149800D01*
X111587800Y-78149800D01*
G37*
G36*
X113487800Y-78149800D02*
X112186200Y-78149800D01*
X112186200Y-77298200D01*
X113487800Y-77298200D01*
X113487800Y-78149800D01*
X113487800Y-78149800D01*
G37*
G36*
X127978521Y-76077652D02*
X127058150Y-76998023D01*
X126455977Y-76395850D01*
X127376348Y-75475479D01*
X127978521Y-76077652D01*
X127978521Y-76077652D01*
G37*
G36*
X102123800Y-76191800D02*
X100822200Y-76191800D01*
X100822200Y-75190200D01*
X102123800Y-75190200D01*
X102123800Y-76191800D01*
X102123800Y-76191800D01*
G37*
G36*
X139710800Y-75928800D02*
X136179200Y-75928800D01*
X136179200Y-74047200D01*
X139710800Y-74047200D01*
X139710800Y-75928800D01*
X139710800Y-75928800D01*
G37*
G36*
X129322023Y-74734150D02*
X128401652Y-75654521D01*
X127799479Y-75052348D01*
X128719850Y-74131977D01*
X129322023Y-74734150D01*
X129322023Y-74734150D01*
G37*
G36*
X110596356Y-73140137D02*
X108099137Y-75637356D01*
X106768644Y-74306863D01*
X109265863Y-71809644D01*
X110596356Y-73140137D01*
X110596356Y-73140137D01*
G37*
G36*
X118326521Y-74553652D02*
X117406150Y-75474023D01*
X116803977Y-74871850D01*
X117724348Y-73951479D01*
X118326521Y-74553652D01*
X118326521Y-74553652D01*
G37*
G36*
X118634008Y-69274076D02*
X118634013Y-69274082D01*
X118915725Y-69555794D01*
X118915731Y-69555799D01*
X119694668Y-70334736D01*
X119694673Y-70334742D01*
X119976385Y-70616454D01*
X119976391Y-70616459D01*
X120401775Y-71041843D01*
X120401780Y-71041849D01*
X120683492Y-71323561D01*
X120683498Y-71323566D01*
X121462435Y-72102503D01*
X121462440Y-72102509D01*
X121744152Y-72384221D01*
X121744158Y-72384226D01*
X122169542Y-72809610D01*
X122169547Y-72809616D01*
X122451259Y-73091328D01*
X122451265Y-73091333D01*
X123230202Y-73870270D01*
X123230207Y-73870276D01*
X123511919Y-74151988D01*
X123511925Y-74151993D01*
X123848926Y-74488994D01*
X123069977Y-75267943D01*
X122804812Y-75002778D01*
X122804806Y-75002773D01*
X122379422Y-74577389D01*
X122379417Y-74577383D01*
X121744152Y-73942118D01*
X121744146Y-73942113D01*
X121318762Y-73516729D01*
X121318757Y-73516723D01*
X121037045Y-73235011D01*
X121037039Y-73235006D01*
X120611655Y-72809622D01*
X120611650Y-72809616D01*
X119976385Y-72174351D01*
X119976379Y-72174346D01*
X119550995Y-71748962D01*
X119550990Y-71748956D01*
X119269278Y-71467244D01*
X119269272Y-71467239D01*
X118843888Y-71041855D01*
X118843883Y-71041849D01*
X118208618Y-70406584D01*
X118208612Y-70406579D01*
X117783228Y-69981195D01*
X117783223Y-69981189D01*
X117518057Y-69716023D01*
X118297006Y-68937074D01*
X118634008Y-69274076D01*
X118634008Y-69274076D01*
G37*
G36*
X131909943Y-69716023D02*
X131644778Y-69981189D01*
X131219383Y-70406584D01*
X130865829Y-70760137D01*
X130600664Y-71025302D01*
X130495730Y-71130237D01*
X130247111Y-71378856D01*
X130142176Y-71483790D01*
X129893557Y-71732409D01*
X129788623Y-71837344D01*
X129540004Y-72085963D01*
X129451615Y-72174351D01*
X129186450Y-72439516D01*
X129098061Y-72527904D01*
X129081516Y-72544450D01*
X128816350Y-72809616D01*
X128727963Y-72898004D01*
X128479344Y-73146623D01*
X128374409Y-73251557D01*
X128125790Y-73500176D01*
X128020856Y-73605111D01*
X127772237Y-73853730D01*
X127683848Y-73942118D01*
X127418683Y-74207283D01*
X127330294Y-74295671D01*
X127313749Y-74312217D01*
X127048583Y-74577383D01*
X126960196Y-74665771D01*
X126711577Y-74914390D01*
X126358023Y-75267943D01*
X125579074Y-74488994D01*
X125916071Y-74151997D01*
X125916082Y-74151988D01*
X125932629Y-74135442D01*
X125932628Y-74135441D01*
X126181247Y-73886822D01*
X126181248Y-73886823D01*
X126197794Y-73870276D01*
X126197803Y-73870265D01*
X126976731Y-73091337D01*
X126976742Y-73091328D01*
X126993289Y-73074782D01*
X126993288Y-73074781D01*
X127241907Y-72826162D01*
X127241908Y-72826163D01*
X127258454Y-72809616D01*
X127258463Y-72809605D01*
X127683838Y-72384230D01*
X127683849Y-72384221D01*
X127700396Y-72367675D01*
X127700395Y-72367674D01*
X127949014Y-72119055D01*
X127949015Y-72119056D01*
X127965561Y-72102509D01*
X127965570Y-72102498D01*
X128744498Y-71323570D01*
X128744509Y-71323561D01*
X128761056Y-71307015D01*
X128761055Y-71307014D01*
X129009674Y-71058395D01*
X129009675Y-71058396D01*
X129026221Y-71041849D01*
X129026230Y-71041838D01*
X129451605Y-70616463D01*
X129451616Y-70616454D01*
X129468163Y-70599908D01*
X129468162Y-70599907D01*
X129716781Y-70351288D01*
X129716782Y-70351289D01*
X129733328Y-70334742D01*
X129733337Y-70334731D01*
X130512265Y-69555803D01*
X130512276Y-69555794D01*
X130528823Y-69539248D01*
X130528822Y-69539247D01*
X130777441Y-69290628D01*
X130777442Y-69290629D01*
X130793988Y-69274082D01*
X130793997Y-69274071D01*
X131130994Y-68937074D01*
X131909943Y-69716023D01*
X131909943Y-69716023D01*
G37*
G36*
X104382800Y-74339800D02*
X103081200Y-74339800D01*
X103081200Y-73488200D01*
X104382800Y-73488200D01*
X104382800Y-74339800D01*
X104382800Y-74339800D01*
G37*
G36*
X106282800Y-74339800D02*
X104981200Y-74339800D01*
X104981200Y-73488200D01*
X106282800Y-73488200D01*
X106282800Y-74339800D01*
X106282800Y-74339800D01*
G37*
G36*
X119670023Y-73210150D02*
X118749652Y-74130521D01*
X118147479Y-73528348D01*
X119067850Y-72607977D01*
X119670023Y-73210150D01*
X119670023Y-73210150D01*
G37*
G36*
X135608856Y-72321363D02*
X134278363Y-73651856D01*
X131781144Y-71154637D01*
X133111637Y-69824144D01*
X135608856Y-72321363D01*
X135608856Y-72321363D01*
G37*
G36*
X102123800Y-72891800D02*
X100822200Y-72891800D01*
X100822200Y-71890200D01*
X102123800Y-71890200D01*
X102123800Y-72891800D01*
X102123800Y-72891800D01*
G37*
G36*
X107901800Y-72657300D02*
X107050200Y-72657300D01*
X107050200Y-71355700D01*
X107901800Y-71355700D01*
X107901800Y-72657300D01*
X107901800Y-72657300D01*
G37*
G36*
X104162800Y-72445800D02*
X103001200Y-72445800D01*
X103001200Y-69794200D01*
X104162800Y-69794200D01*
X104162800Y-72445800D01*
X104162800Y-72445800D01*
G37*
G36*
X106362800Y-72445800D02*
X105201200Y-72445800D01*
X105201200Y-71694200D01*
X106362800Y-71694200D01*
X106362800Y-72445800D01*
X106362800Y-72445800D01*
G37*
G36*
X114152356Y-69012637D02*
X111655137Y-71509856D01*
X110324644Y-70179363D01*
X112821863Y-67682144D01*
X114152356Y-69012637D01*
X114152356Y-69012637D01*
G37*
G36*
X140385800Y-71503800D02*
X138504200Y-71503800D01*
X138504200Y-67972200D01*
X140385800Y-67972200D01*
X140385800Y-71503800D01*
X140385800Y-71503800D01*
G37*
G36*
X102447800Y-71488800D02*
X100566200Y-71488800D01*
X100566200Y-67957200D01*
X102447800Y-67957200D01*
X102447800Y-71488800D01*
X102447800Y-71488800D01*
G37*
G36*
X136721800Y-71223800D02*
X135820200Y-71223800D01*
X135820200Y-70222200D01*
X136721800Y-70222200D01*
X136721800Y-71223800D01*
X136721800Y-71223800D01*
G37*
G36*
X107901800Y-70757300D02*
X107050200Y-70757300D01*
X107050200Y-69455700D01*
X107901800Y-69455700D01*
X107901800Y-70757300D01*
X107901800Y-70757300D01*
G37*
G36*
X106362800Y-70545800D02*
X105201200Y-70545800D01*
X105201200Y-69794200D01*
X106362800Y-69794200D01*
X106362800Y-70545800D01*
X106362800Y-70545800D01*
G37*
G36*
X143135800Y-69753800D02*
X141254200Y-69753800D01*
X141254200Y-66222200D01*
X143135800Y-66222200D01*
X143135800Y-69753800D01*
X143135800Y-69753800D01*
G37*
G36*
X135771800Y-69223800D02*
X134870200Y-69223800D01*
X134870200Y-68222200D01*
X135771800Y-68222200D01*
X135771800Y-69223800D01*
X135771800Y-69223800D01*
G37*
G36*
X137671800Y-69223800D02*
X136770200Y-69223800D01*
X136770200Y-68222200D01*
X137671800Y-68222200D01*
X137671800Y-69223800D01*
X137671800Y-69223800D01*
G37*
G36*
X133746300Y-68910799D02*
X132894700Y-68910799D01*
X132894700Y-67609199D01*
X133746300Y-67609199D01*
X133746300Y-68910799D01*
X133746300Y-68910799D01*
G37*
G36*
X110606877Y-67741143D02*
X110644355Y-67752513D01*
X110678904Y-67770979D01*
X110709177Y-67795823D01*
X110734021Y-67826096D01*
X110752487Y-67860645D01*
X110763857Y-67898123D01*
X110768300Y-67943238D01*
X110768300Y-68581762D01*
X110763857Y-68626877D01*
X110752487Y-68664355D01*
X110734021Y-68698904D01*
X110709177Y-68729177D01*
X110678904Y-68754021D01*
X110644355Y-68772487D01*
X110606877Y-68783857D01*
X110561762Y-68788300D01*
X109823238Y-68788300D01*
X109778123Y-68783857D01*
X109740645Y-68772487D01*
X109706096Y-68754021D01*
X109675823Y-68729177D01*
X109650979Y-68698904D01*
X109632513Y-68664355D01*
X109621143Y-68626877D01*
X109616700Y-68581762D01*
X109616700Y-67943238D01*
X109621143Y-67898123D01*
X109632513Y-67860645D01*
X109650979Y-67826096D01*
X109675823Y-67795823D01*
X109706096Y-67770979D01*
X109740645Y-67752513D01*
X109778123Y-67741143D01*
X109823238Y-67736700D01*
X110561762Y-67736700D01*
X110606877Y-67741143D01*
X110606877Y-67741143D01*
G37*
G36*
X108856877Y-67741143D02*
X108894355Y-67752513D01*
X108928904Y-67770979D01*
X108959177Y-67795823D01*
X108984021Y-67826096D01*
X109002487Y-67860645D01*
X109013857Y-67898123D01*
X109018300Y-67943238D01*
X109018300Y-68581762D01*
X109013857Y-68626877D01*
X109002487Y-68664355D01*
X108984021Y-68698904D01*
X108959177Y-68729177D01*
X108928904Y-68754021D01*
X108894355Y-68772487D01*
X108856877Y-68783857D01*
X108811762Y-68788300D01*
X108073238Y-68788300D01*
X108028123Y-68783857D01*
X107990645Y-68772487D01*
X107956096Y-68754021D01*
X107925823Y-68729177D01*
X107900979Y-68698904D01*
X107882513Y-68664355D01*
X107871143Y-68626877D01*
X107866700Y-68581762D01*
X107866700Y-67943238D01*
X107871143Y-67898123D01*
X107882513Y-67860645D01*
X107900979Y-67826096D01*
X107925823Y-67795823D01*
X107956096Y-67770979D01*
X107990645Y-67752513D01*
X108028123Y-67741143D01*
X108073238Y-67736700D01*
X108811762Y-67736700D01*
X108856877Y-67741143D01*
X108856877Y-67741143D01*
G37*
G36*
X137787800Y-67282800D02*
X136786200Y-67282800D01*
X136786200Y-65981200D01*
X137787800Y-65981200D01*
X137787800Y-67282800D01*
X137787800Y-67282800D01*
G37*
G36*
X140385800Y-67253800D02*
X138504200Y-67253800D01*
X138504200Y-63722200D01*
X140385800Y-63722200D01*
X140385800Y-67253800D01*
X140385800Y-67253800D01*
G37*
G36*
X113428377Y-66089643D02*
X113465855Y-66101013D01*
X113500404Y-66119479D01*
X113530677Y-66144323D01*
X113555521Y-66174596D01*
X113573987Y-66209145D01*
X113585357Y-66246623D01*
X113589800Y-66291738D01*
X113589800Y-67030262D01*
X113585357Y-67075377D01*
X113573987Y-67112855D01*
X113555521Y-67147404D01*
X113530677Y-67177677D01*
X113500404Y-67202521D01*
X113465855Y-67220987D01*
X113428377Y-67232357D01*
X113383262Y-67236800D01*
X112744738Y-67236800D01*
X112699623Y-67232357D01*
X112662145Y-67220987D01*
X112627596Y-67202521D01*
X112597323Y-67177677D01*
X112572479Y-67147404D01*
X112554013Y-67112855D01*
X112542643Y-67075377D01*
X112538200Y-67030262D01*
X112538200Y-66291738D01*
X112542643Y-66246623D01*
X112554013Y-66209145D01*
X112572479Y-66174596D01*
X112597323Y-66144323D01*
X112627596Y-66119479D01*
X112662145Y-66101013D01*
X112699623Y-66089643D01*
X112744738Y-66085200D01*
X113383262Y-66085200D01*
X113428377Y-66089643D01*
X113428377Y-66089643D01*
G37*
G36*
X111337800Y-67220300D02*
X109456200Y-67220300D01*
X109456200Y-65118700D01*
X111337800Y-65118700D01*
X111337800Y-67220300D01*
X111337800Y-67220300D01*
G37*
G36*
X108797800Y-67220300D02*
X106916200Y-67220300D01*
X106916200Y-65118700D01*
X108797800Y-65118700D01*
X108797800Y-67220300D01*
X108797800Y-67220300D01*
G37*
G36*
X106257800Y-67220300D02*
X104376200Y-67220300D01*
X104376200Y-65118700D01*
X106257800Y-65118700D01*
X106257800Y-67220300D01*
X106257800Y-67220300D01*
G37*
G36*
X103717800Y-67220300D02*
X101836200Y-67220300D01*
X101836200Y-65118700D01*
X103717800Y-65118700D01*
X103717800Y-67220300D01*
X103717800Y-67220300D01*
G37*
G36*
X123848926Y-61655006D02*
X118297006Y-67206926D01*
X117518057Y-66427977D01*
X117766676Y-66179358D01*
X117783223Y-66162812D01*
X117783232Y-66162801D01*
X118208607Y-65737426D01*
X118208618Y-65737417D01*
X118225164Y-65720870D01*
X118827336Y-65118698D01*
X118843883Y-65102152D01*
X118843892Y-65102141D01*
X119269267Y-64676766D01*
X119269278Y-64676757D01*
X119285825Y-64660211D01*
X119285824Y-64660210D01*
X119534443Y-64411591D01*
X119534444Y-64411592D01*
X119550990Y-64395045D01*
X119550999Y-64395034D01*
X119976374Y-63969659D01*
X119976385Y-63969650D01*
X119992931Y-63953103D01*
X120595103Y-63350931D01*
X120611650Y-63334385D01*
X120611659Y-63334374D01*
X121037034Y-62908999D01*
X121037045Y-62908990D01*
X121053592Y-62892444D01*
X121053591Y-62892443D01*
X121302210Y-62643824D01*
X121302211Y-62643825D01*
X121318757Y-62627278D01*
X121318766Y-62627267D01*
X121744141Y-62201892D01*
X121744152Y-62201883D01*
X121760698Y-62185336D01*
X122362870Y-61583164D01*
X122379417Y-61566618D01*
X122379426Y-61566607D01*
X122804801Y-61141232D01*
X122804812Y-61141223D01*
X122821358Y-61124676D01*
X123069977Y-60876057D01*
X123848926Y-61655006D01*
X123848926Y-61655006D01*
G37*
G36*
X126623189Y-61141223D02*
X126623195Y-61141228D01*
X127048579Y-61566612D01*
X127048584Y-61566618D01*
X127683849Y-62201883D01*
X127683855Y-62201888D01*
X128109239Y-62627272D01*
X128109244Y-62627278D01*
X128390956Y-62908990D01*
X128390962Y-62908995D01*
X128816346Y-63334379D01*
X128816351Y-63334385D01*
X129451616Y-63969650D01*
X129451622Y-63969655D01*
X129877006Y-64395039D01*
X129877011Y-64395045D01*
X130158723Y-64676757D01*
X130158729Y-64676762D01*
X130584113Y-65102146D01*
X130584118Y-65102152D01*
X131219383Y-65737417D01*
X131219389Y-65737422D01*
X131644773Y-66162806D01*
X131644778Y-66162812D01*
X131909943Y-66427977D01*
X131130994Y-67206926D01*
X130793993Y-66869925D01*
X130793988Y-66869919D01*
X130512276Y-66588207D01*
X130512270Y-66588202D01*
X129733333Y-65809265D01*
X129733328Y-65809259D01*
X129451616Y-65527547D01*
X129451610Y-65527542D01*
X129026226Y-65102158D01*
X129026221Y-65102152D01*
X128744509Y-64820440D01*
X128744503Y-64820435D01*
X127965566Y-64041498D01*
X127965561Y-64041492D01*
X127683849Y-63759780D01*
X127683843Y-63759775D01*
X127258459Y-63334391D01*
X127258454Y-63334385D01*
X126976742Y-63052673D01*
X126976736Y-63052668D01*
X126197799Y-62273731D01*
X126197794Y-62273725D01*
X125916082Y-61992013D01*
X125916076Y-61992008D01*
X125579074Y-61655006D01*
X126358023Y-60876057D01*
X126623189Y-61141223D01*
X126623189Y-61141223D01*
G37*
G36*
X133746300Y-67010801D02*
X132894700Y-67010801D01*
X132894700Y-65709201D01*
X133746300Y-65709201D01*
X133746300Y-67010801D01*
X133746300Y-67010801D01*
G37*
G36*
X136102800Y-66345300D02*
X134221200Y-66345300D01*
X134221200Y-62813700D01*
X136102800Y-62813700D01*
X136102800Y-66345300D01*
X136102800Y-66345300D01*
G37*
G36*
X113428377Y-64339643D02*
X113465855Y-64351013D01*
X113500404Y-64369479D01*
X113530677Y-64394323D01*
X113555521Y-64424596D01*
X113573987Y-64459145D01*
X113585357Y-64496623D01*
X113589800Y-64541738D01*
X113589800Y-65280262D01*
X113585357Y-65325377D01*
X113573987Y-65362855D01*
X113555521Y-65397404D01*
X113530677Y-65427677D01*
X113500404Y-65452521D01*
X113465855Y-65470987D01*
X113428377Y-65482357D01*
X113383262Y-65486800D01*
X112744738Y-65486800D01*
X112699623Y-65482357D01*
X112662145Y-65470987D01*
X112627596Y-65452521D01*
X112597323Y-65427677D01*
X112572479Y-65397404D01*
X112554013Y-65362855D01*
X112542643Y-65325377D01*
X112538200Y-65280262D01*
X112538200Y-64541738D01*
X112542643Y-64496623D01*
X112554013Y-64459145D01*
X112572479Y-64424596D01*
X112597323Y-64394323D01*
X112627596Y-64369479D01*
X112662145Y-64351013D01*
X112699623Y-64339643D01*
X112744738Y-64335200D01*
X113383262Y-64335200D01*
X113428377Y-64339643D01*
X113428377Y-64339643D01*
G37*
G36*
X137787800Y-65082800D02*
X136786200Y-65082800D01*
X136786200Y-63781200D01*
X137787800Y-63781200D01*
X137787800Y-65082800D01*
X137787800Y-65082800D01*
G37*
G36*
X114703300Y-62598800D02*
X112821700Y-62598800D01*
X112821700Y-59067200D01*
X114703300Y-59067200D01*
X114703300Y-62598800D01*
X114703300Y-62598800D01*
G37*
G36*
X119035023Y-61790850D02*
X118432850Y-62393023D01*
X117512479Y-61472652D01*
X118114652Y-60870479D01*
X119035023Y-61790850D01*
X119035023Y-61790850D01*
G37*
G36*
X139418800Y-61714800D02*
X138117200Y-61714800D01*
X138117200Y-60713200D01*
X139418800Y-60713200D01*
X139418800Y-61714800D01*
X139418800Y-61714800D01*
G37*
G36*
X137218800Y-61714800D02*
X135917200Y-61714800D01*
X135917200Y-60713200D01*
X137218800Y-60713200D01*
X137218800Y-61714800D01*
X137218800Y-61714800D01*
G37*
G36*
X120051023Y-60647850D02*
X119448850Y-61250023D01*
X118528479Y-60329652D01*
X119130652Y-59727479D01*
X120051023Y-60647850D01*
X120051023Y-60647850D01*
G37*
G36*
X117691521Y-60447348D02*
X117089348Y-61049521D01*
X116168977Y-60129150D01*
X116771150Y-59526977D01*
X117691521Y-60447348D01*
X117691521Y-60447348D01*
G37*
G36*
X128012521Y-59504152D02*
X127092150Y-60424523D01*
X126489977Y-59822350D01*
X127410348Y-58901979D01*
X128012521Y-59504152D01*
X128012521Y-59504152D01*
G37*
G36*
X121178023Y-59518850D02*
X120575850Y-60121023D01*
X119655479Y-59200652D01*
X120257652Y-58598479D01*
X121178023Y-59518850D01*
X121178023Y-59518850D01*
G37*
G36*
X137241800Y-59988800D02*
X135940200Y-59988800D01*
X135940200Y-59137200D01*
X137241800Y-59137200D01*
X137241800Y-59988800D01*
X137241800Y-59988800D01*
G37*
G36*
X139141800Y-59988800D02*
X137840200Y-59988800D01*
X137840200Y-59137200D01*
X139141800Y-59137200D01*
X139141800Y-59988800D01*
X139141800Y-59988800D01*
G37*
G36*
X141305800Y-59988800D02*
X140004200Y-59988800D01*
X140004200Y-59137200D01*
X141305800Y-59137200D01*
X141305800Y-59988800D01*
X141305800Y-59988800D01*
G37*
G36*
X143205800Y-59988800D02*
X141904200Y-59988800D01*
X141904200Y-59137200D01*
X143205800Y-59137200D01*
X143205800Y-59988800D01*
X143205800Y-59988800D01*
G37*
G36*
X118707521Y-59304348D02*
X118105348Y-59906521D01*
X117184977Y-58986150D01*
X117787150Y-58383977D01*
X118707521Y-59304348D01*
X118707521Y-59304348D01*
G37*
G36*
X129356023Y-58160650D02*
X128435652Y-59081021D01*
X127833479Y-58478848D01*
X128753850Y-57558477D01*
X129356023Y-58160650D01*
X129356023Y-58160650D01*
G37*
G36*
X122278023Y-58468850D02*
X121675850Y-59071023D01*
X120755479Y-58150652D01*
X121357652Y-57548479D01*
X122278023Y-58468850D01*
X122278023Y-58468850D01*
G37*
G36*
X119834521Y-58175348D02*
X119232348Y-58777521D01*
X118311977Y-57857150D01*
X118914150Y-57254977D01*
X119834521Y-58175348D01*
X119834521Y-58175348D01*
G37*
G36*
X125000260Y-56145346D02*
X125218789Y-56235863D01*
X125415469Y-56367281D01*
X125582719Y-56534531D01*
X125582721Y-56534534D01*
X125582722Y-56534535D01*
X125675431Y-56673284D01*
X125714137Y-56731211D01*
X125804654Y-56949740D01*
X125850800Y-57181730D01*
X125850800Y-57418270D01*
X125804654Y-57650260D01*
X125714137Y-57868789D01*
X125582719Y-58065469D01*
X125415469Y-58232719D01*
X125218789Y-58364137D01*
X125000260Y-58454654D01*
X124768270Y-58500800D01*
X124531730Y-58500800D01*
X124299740Y-58454654D01*
X124081211Y-58364137D01*
X123884531Y-58232719D01*
X123717281Y-58065469D01*
X123585863Y-57868789D01*
X123495346Y-57650260D01*
X123449200Y-57418270D01*
X123449200Y-57181730D01*
X123495346Y-56949740D01*
X123585863Y-56731211D01*
X123624569Y-56673284D01*
X123717278Y-56534535D01*
X123717279Y-56534534D01*
X123717281Y-56534531D01*
X123884531Y-56367281D01*
X124081211Y-56235863D01*
X124299740Y-56145346D01*
X124531730Y-56099200D01*
X124768270Y-56099200D01*
X125000260Y-56145346D01*
X125000260Y-56145346D01*
G37*
G36*
X142896800Y-58054800D02*
X141695200Y-58054800D01*
X141695200Y-50403200D01*
X142896800Y-50403200D01*
X142896800Y-58054800D01*
X142896800Y-58054800D01*
G37*
G36*
X137196800Y-58054800D02*
X135995200Y-58054800D01*
X135995200Y-50403200D01*
X137196800Y-50403200D01*
X137196800Y-58054800D01*
X137196800Y-58054800D01*
G37*
G36*
X120934521Y-57125348D02*
X120332348Y-57727521D01*
X119411977Y-56807150D01*
X120014150Y-56204977D01*
X120934521Y-57125348D01*
X120934521Y-57125348D01*
G37*
G36*
X103717800Y-57690300D02*
X101836200Y-57690300D01*
X101836200Y-55588700D01*
X103717800Y-55588700D01*
X103717800Y-57690300D01*
X103717800Y-57690300D01*
G37*
G36*
X106257800Y-57690300D02*
X104376200Y-57690300D01*
X104376200Y-55588700D01*
X106257800Y-55588700D01*
X106257800Y-57690300D01*
X106257800Y-57690300D01*
G37*
G36*
X108797800Y-57690300D02*
X106916200Y-57690300D01*
X106916200Y-55588700D01*
X108797800Y-55588700D01*
X108797800Y-57690300D01*
X108797800Y-57690300D01*
G37*
G36*
X111337800Y-57690300D02*
X109456200Y-57690300D01*
X109456200Y-55588700D01*
X111337800Y-55588700D01*
X111337800Y-57690300D01*
X111337800Y-57690300D01*
G37*
G36*
X122068340Y-55997721D02*
X122105818Y-56009091D01*
X122140367Y-56027557D01*
X122175413Y-56056318D01*
X122697618Y-56578523D01*
X122726379Y-56613569D01*
X122744845Y-56648118D01*
X122756215Y-56685596D01*
X122760053Y-56724573D01*
X122756215Y-56763550D01*
X122744845Y-56801028D01*
X122726379Y-56835577D01*
X122697618Y-56870623D01*
X122246123Y-57322118D01*
X122211077Y-57350879D01*
X122176528Y-57369345D01*
X122139050Y-57380715D01*
X122100073Y-57384553D01*
X122061096Y-57380715D01*
X122023618Y-57369345D01*
X121989069Y-57350879D01*
X121954023Y-57322118D01*
X121431818Y-56799913D01*
X121403057Y-56764867D01*
X121384591Y-56730318D01*
X121373221Y-56692840D01*
X121369383Y-56653863D01*
X121373221Y-56614886D01*
X121384591Y-56577408D01*
X121403057Y-56542859D01*
X121431818Y-56507813D01*
X121883313Y-56056318D01*
X121918359Y-56027557D01*
X121952908Y-56009091D01*
X121990386Y-55997721D01*
X122029363Y-55993883D01*
X122068340Y-55997721D01*
X122068340Y-55997721D01*
G37*
G36*
X120830904Y-54760285D02*
X120868382Y-54771655D01*
X120902931Y-54790121D01*
X120937977Y-54818882D01*
X121460182Y-55341087D01*
X121488943Y-55376133D01*
X121507409Y-55410682D01*
X121518779Y-55448160D01*
X121522617Y-55487137D01*
X121518779Y-55526114D01*
X121507409Y-55563592D01*
X121488943Y-55598141D01*
X121460182Y-55633187D01*
X121008687Y-56084682D01*
X120973641Y-56113443D01*
X120939092Y-56131909D01*
X120901614Y-56143279D01*
X120862637Y-56147117D01*
X120823660Y-56143279D01*
X120786182Y-56131909D01*
X120751633Y-56113443D01*
X120716587Y-56084682D01*
X120194382Y-55562477D01*
X120165621Y-55527431D01*
X120147155Y-55492882D01*
X120135785Y-55455404D01*
X120131947Y-55416427D01*
X120135785Y-55377450D01*
X120147155Y-55339972D01*
X120165621Y-55305423D01*
X120194382Y-55270377D01*
X120645877Y-54818882D01*
X120680923Y-54790121D01*
X120715472Y-54771655D01*
X120752950Y-54760285D01*
X120791927Y-54756447D01*
X120830904Y-54760285D01*
X120830904Y-54760285D01*
G37*
G36*
X123994856Y-54558363D02*
X122664363Y-55888856D01*
X120167144Y-53391637D01*
X121497637Y-52061144D01*
X123994856Y-54558363D01*
X123994856Y-54558363D01*
G37*
G36*
X112539377Y-53770643D02*
X112576855Y-53782013D01*
X112611404Y-53800479D01*
X112641677Y-53825323D01*
X112666521Y-53855596D01*
X112684987Y-53890145D01*
X112696357Y-53927623D01*
X112700800Y-53972738D01*
X112700800Y-54711262D01*
X112696357Y-54756377D01*
X112684987Y-54793855D01*
X112666521Y-54828404D01*
X112641677Y-54858677D01*
X112611404Y-54883521D01*
X112576855Y-54901987D01*
X112539377Y-54913357D01*
X112494262Y-54917800D01*
X111855738Y-54917800D01*
X111810623Y-54913357D01*
X111773145Y-54901987D01*
X111738596Y-54883521D01*
X111708323Y-54858677D01*
X111683479Y-54828404D01*
X111665013Y-54793855D01*
X111653643Y-54756377D01*
X111649200Y-54711262D01*
X111649200Y-53972738D01*
X111653643Y-53927623D01*
X111665013Y-53890145D01*
X111683479Y-53855596D01*
X111708323Y-53825323D01*
X111738596Y-53800479D01*
X111773145Y-53782013D01*
X111810623Y-53770643D01*
X111855738Y-53766200D01*
X112494262Y-53766200D01*
X112539377Y-53770643D01*
X112539377Y-53770643D01*
G37*
G36*
X108356800Y-54816300D02*
X107355200Y-54816300D01*
X107355200Y-53514700D01*
X108356800Y-53514700D01*
X108356800Y-54816300D01*
X108356800Y-54816300D01*
G37*
G36*
X105056800Y-54816300D02*
X104055200Y-54816300D01*
X104055200Y-53514700D01*
X105056800Y-53514700D01*
X105056800Y-54816300D01*
X105056800Y-54816300D01*
G37*
G36*
X110443877Y-53643643D02*
X110481355Y-53655013D01*
X110515904Y-53673479D01*
X110546177Y-53698323D01*
X110571021Y-53728596D01*
X110589487Y-53763145D01*
X110600857Y-53800623D01*
X110605300Y-53845738D01*
X110605300Y-54584262D01*
X110600857Y-54629377D01*
X110589487Y-54666855D01*
X110571021Y-54701404D01*
X110546177Y-54731677D01*
X110515904Y-54756521D01*
X110481355Y-54774987D01*
X110443877Y-54786357D01*
X110398762Y-54790800D01*
X109760238Y-54790800D01*
X109715123Y-54786357D01*
X109677645Y-54774987D01*
X109643096Y-54756521D01*
X109612823Y-54731677D01*
X109587979Y-54701404D01*
X109569513Y-54666855D01*
X109558143Y-54629377D01*
X109553700Y-54584262D01*
X109553700Y-53845738D01*
X109558143Y-53800623D01*
X109569513Y-53763145D01*
X109587979Y-53728596D01*
X109612823Y-53698323D01*
X109643096Y-53673479D01*
X109677645Y-53655013D01*
X109715123Y-53643643D01*
X109760238Y-53639200D01*
X110398762Y-53639200D01*
X110443877Y-53643643D01*
X110443877Y-53643643D01*
G37*
G36*
X134916856Y-51169137D02*
X132419637Y-53666356D01*
X131089144Y-52335863D01*
X133586363Y-49838644D01*
X134916856Y-51169137D01*
X134916856Y-51169137D01*
G37*
G36*
X112539377Y-52020643D02*
X112576855Y-52032013D01*
X112611404Y-52050479D01*
X112641677Y-52075323D01*
X112666521Y-52105596D01*
X112684987Y-52140145D01*
X112696357Y-52177623D01*
X112700800Y-52222738D01*
X112700800Y-52961262D01*
X112696357Y-53006377D01*
X112684987Y-53043855D01*
X112666521Y-53078404D01*
X112641677Y-53108677D01*
X112611404Y-53133521D01*
X112576855Y-53151987D01*
X112539377Y-53163357D01*
X112494262Y-53167800D01*
X111855738Y-53167800D01*
X111810623Y-53163357D01*
X111773145Y-53151987D01*
X111738596Y-53133521D01*
X111708323Y-53108677D01*
X111683479Y-53078404D01*
X111665013Y-53043855D01*
X111653643Y-53006377D01*
X111649200Y-52961262D01*
X111649200Y-52222738D01*
X111653643Y-52177623D01*
X111665013Y-52140145D01*
X111683479Y-52105596D01*
X111708323Y-52075323D01*
X111738596Y-52050479D01*
X111773145Y-52032013D01*
X111810623Y-52020643D01*
X111855738Y-52016200D01*
X112494262Y-52016200D01*
X112539377Y-52020643D01*
X112539377Y-52020643D01*
G37*
G36*
X110443877Y-51893643D02*
X110481355Y-51905013D01*
X110515904Y-51923479D01*
X110546177Y-51948323D01*
X110571021Y-51978596D01*
X110589487Y-52013145D01*
X110600857Y-52050623D01*
X110605300Y-52095738D01*
X110605300Y-52834262D01*
X110600857Y-52879377D01*
X110589487Y-52916855D01*
X110571021Y-52951404D01*
X110546177Y-52981677D01*
X110515904Y-53006521D01*
X110481355Y-53024987D01*
X110443877Y-53036357D01*
X110398762Y-53040800D01*
X109760238Y-53040800D01*
X109715123Y-53036357D01*
X109677645Y-53024987D01*
X109643096Y-53006521D01*
X109612823Y-52981677D01*
X109587979Y-52951404D01*
X109569513Y-52916855D01*
X109558143Y-52879377D01*
X109553700Y-52834262D01*
X109553700Y-52095738D01*
X109558143Y-52050623D01*
X109569513Y-52013145D01*
X109587979Y-51978596D01*
X109612823Y-51948323D01*
X109643096Y-51923479D01*
X109677645Y-51905013D01*
X109715123Y-51893643D01*
X109760238Y-51889200D01*
X110398762Y-51889200D01*
X110443877Y-51893643D01*
X110443877Y-51893643D01*
G37*
G36*
X123863622Y-51810883D02*
X123155383Y-52519122D01*
X122235012Y-51598751D01*
X122943251Y-50890512D01*
X123863622Y-51810883D01*
X123863622Y-51810883D01*
G37*
G36*
X114078300Y-51589800D02*
X111176700Y-51589800D01*
X111176700Y-48688200D01*
X114078300Y-48688200D01*
X114078300Y-51589800D01*
X114078300Y-51589800D01*
G37*
G36*
X103500800Y-51489800D02*
X100799200Y-51489800D01*
X100799200Y-48588200D01*
X103500800Y-48588200D01*
X103500800Y-51489800D01*
X103500800Y-51489800D01*
G37*
G36*
X122307988Y-50255249D02*
X121599749Y-50963488D01*
X120679378Y-50043117D01*
X121387617Y-49334878D01*
X122307988Y-50255249D01*
X122307988Y-50255249D01*
G37*
G36*
X105957229Y-47946854D02*
X106087754Y-47972817D01*
X106251689Y-48040721D01*
X106399227Y-48139303D01*
X106524697Y-48264773D01*
X106623279Y-48412311D01*
X106691183Y-48576246D01*
X106725800Y-48750279D01*
X106725800Y-48927721D01*
X106691183Y-49101754D01*
X106623279Y-49265689D01*
X106524697Y-49413227D01*
X106399227Y-49538697D01*
X106251689Y-49637279D01*
X106087754Y-49705183D01*
X105957229Y-49731146D01*
X105913722Y-49739800D01*
X105736278Y-49739800D01*
X105692771Y-49731146D01*
X105562246Y-49705183D01*
X105398311Y-49637279D01*
X105250773Y-49538697D01*
X105125303Y-49413227D01*
X105026721Y-49265689D01*
X104958817Y-49101754D01*
X104924200Y-48927721D01*
X104924200Y-48750279D01*
X104958817Y-48576246D01*
X105026721Y-48412311D01*
X105125303Y-48264773D01*
X105250773Y-48139303D01*
X105398311Y-48040721D01*
X105562246Y-47972817D01*
X105692771Y-47946854D01*
X105736278Y-47938200D01*
X105913722Y-47938200D01*
X105957229Y-47946854D01*
X105957229Y-47946854D01*
G37*
G36*
X116434729Y-47946854D02*
X116565254Y-47972817D01*
X116729189Y-48040721D01*
X116876727Y-48139303D01*
X117002197Y-48264773D01*
X117100779Y-48412311D01*
X117168683Y-48576246D01*
X117203300Y-48750279D01*
X117203300Y-48927721D01*
X117168683Y-49101754D01*
X117100779Y-49265689D01*
X117002197Y-49413227D01*
X116876727Y-49538697D01*
X116729189Y-49637279D01*
X116565254Y-49705183D01*
X116434729Y-49731146D01*
X116391222Y-49739800D01*
X116213778Y-49739800D01*
X116170271Y-49731146D01*
X116039746Y-49705183D01*
X115875811Y-49637279D01*
X115728273Y-49538697D01*
X115602803Y-49413227D01*
X115504221Y-49265689D01*
X115436317Y-49101754D01*
X115401700Y-48927721D01*
X115401700Y-48750279D01*
X115436317Y-48576246D01*
X115504221Y-48412311D01*
X115602803Y-48264773D01*
X115728273Y-48139303D01*
X115875811Y-48040721D01*
X116039746Y-47972817D01*
X116170271Y-47946854D01*
X116213778Y-47938200D01*
X116391222Y-47938200D01*
X116434729Y-47946854D01*
X116434729Y-47946854D01*
G37*
G36*
X125059300Y-49418800D02*
X124057700Y-49418800D01*
X124057700Y-48117200D01*
X125059300Y-48117200D01*
X125059300Y-49418800D01*
X125059300Y-49418800D01*
G37*
G36*
X128359300Y-49418800D02*
X127357700Y-49418800D01*
X127357700Y-48117200D01*
X128359300Y-48117200D01*
X128359300Y-49418800D01*
X128359300Y-49418800D01*
G37*
G36*
X147710800Y-48678800D02*
X144179200Y-48678800D01*
X144179200Y-46797200D01*
X147710800Y-46797200D01*
X147710800Y-48678800D01*
X147710800Y-48678800D01*
G37*
G36*
X121048377Y-47103143D02*
X121085855Y-47114513D01*
X121120404Y-47132979D01*
X121150677Y-47157823D01*
X121175521Y-47188096D01*
X121193987Y-47222645D01*
X121205357Y-47260123D01*
X121209800Y-47305238D01*
X121209800Y-48043762D01*
X121205357Y-48088877D01*
X121193987Y-48126355D01*
X121175521Y-48160904D01*
X121150677Y-48191177D01*
X121120404Y-48216021D01*
X121085855Y-48234487D01*
X121048377Y-48245857D01*
X121003262Y-48250300D01*
X120364738Y-48250300D01*
X120319623Y-48245857D01*
X120282145Y-48234487D01*
X120247596Y-48216021D01*
X120217323Y-48191177D01*
X120192479Y-48160904D01*
X120174013Y-48126355D01*
X120162643Y-48088877D01*
X120158200Y-48043762D01*
X120158200Y-47305238D01*
X120162643Y-47260123D01*
X120174013Y-47222645D01*
X120192479Y-47188096D01*
X120217323Y-47157823D01*
X120247596Y-47132979D01*
X120282145Y-47114513D01*
X120319623Y-47103143D01*
X120364738Y-47098700D01*
X121003262Y-47098700D01*
X121048377Y-47103143D01*
X121048377Y-47103143D01*
G37*
G36*
X128999800Y-46766800D02*
X127898200Y-46766800D01*
X127898200Y-45765200D01*
X128999800Y-45765200D01*
X128999800Y-46766800D01*
X128999800Y-46766800D01*
G37*
G36*
X124899800Y-46766800D02*
X123798200Y-46766800D01*
X123798200Y-45765200D01*
X124899800Y-45765200D01*
X124899800Y-46766800D01*
X124899800Y-46766800D01*
G37*
G36*
X142123300Y-46698300D02*
X141281700Y-46698300D01*
X141281700Y-44196700D01*
X142123300Y-44196700D01*
X142123300Y-46698300D01*
X142123300Y-46698300D01*
G37*
G36*
X140853300Y-46698300D02*
X140011700Y-46698300D01*
X140011700Y-44196700D01*
X140853300Y-44196700D01*
X140853300Y-46698300D01*
X140853300Y-46698300D01*
G37*
G36*
X139583300Y-46698300D02*
X138741700Y-46698300D01*
X138741700Y-44196700D01*
X139583300Y-44196700D01*
X139583300Y-46698300D01*
X139583300Y-46698300D01*
G37*
G36*
X138313300Y-46698300D02*
X137471700Y-46698300D01*
X137471700Y-44196700D01*
X138313300Y-44196700D01*
X138313300Y-46698300D01*
X138313300Y-46698300D01*
G37*
G36*
X137043300Y-46698300D02*
X136201700Y-46698300D01*
X136201700Y-44196700D01*
X137043300Y-44196700D01*
X137043300Y-46698300D01*
X137043300Y-46698300D01*
G37*
G36*
X121048377Y-45353143D02*
X121085855Y-45364513D01*
X121120404Y-45382979D01*
X121150677Y-45407823D01*
X121175521Y-45438096D01*
X121193987Y-45472645D01*
X121205357Y-45510123D01*
X121209800Y-45555238D01*
X121209800Y-46293762D01*
X121205357Y-46338877D01*
X121193987Y-46376355D01*
X121175521Y-46410904D01*
X121150677Y-46441177D01*
X121120404Y-46466021D01*
X121085855Y-46484487D01*
X121048377Y-46495857D01*
X121003262Y-46500300D01*
X120364738Y-46500300D01*
X120319623Y-46495857D01*
X120282145Y-46484487D01*
X120247596Y-46466021D01*
X120217323Y-46441177D01*
X120192479Y-46410904D01*
X120174013Y-46376355D01*
X120162643Y-46338877D01*
X120158200Y-46293762D01*
X120158200Y-45555238D01*
X120162643Y-45510123D01*
X120174013Y-45472645D01*
X120192479Y-45438096D01*
X120217323Y-45407823D01*
X120247596Y-45382979D01*
X120282145Y-45364513D01*
X120319623Y-45353143D01*
X120364738Y-45348700D01*
X121003262Y-45348700D01*
X121048377Y-45353143D01*
X121048377Y-45353143D01*
G37*
G36*
X128999800Y-45166800D02*
X127898200Y-45166800D01*
X127898200Y-44165200D01*
X128999800Y-44165200D01*
X128999800Y-45166800D01*
X128999800Y-45166800D01*
G37*
G36*
X124899800Y-45166800D02*
X123798200Y-45166800D01*
X123798200Y-44165200D01*
X124899800Y-44165200D01*
X124899800Y-45166800D01*
X124899800Y-45166800D01*
G37*
G36*
X121428300Y-43889800D02*
X118526700Y-43889800D01*
X118526700Y-41588200D01*
X121428300Y-41588200D01*
X121428300Y-43889800D01*
X121428300Y-43889800D01*
G37*
G36*
X110825800Y-43889800D02*
X108174200Y-43889800D01*
X108174200Y-41388200D01*
X110825800Y-41388200D01*
X110825800Y-43889800D01*
X110825800Y-43889800D01*
G37*
G36*
X127949800Y-42961300D02*
X124848200Y-42961300D01*
X124848200Y-41509700D01*
X127949800Y-41509700D01*
X127949800Y-42961300D01*
X127949800Y-42961300D01*
G37*
G36*
X142123300Y-42798300D02*
X141281700Y-42798300D01*
X141281700Y-40296700D01*
X142123300Y-40296700D01*
X142123300Y-42798300D01*
X142123300Y-42798300D01*
G37*
G36*
X140853300Y-42798300D02*
X140011700Y-42798300D01*
X140011700Y-40296700D01*
X140853300Y-40296700D01*
X140853300Y-42798300D01*
X140853300Y-42798300D01*
G37*
G36*
X139583300Y-42798300D02*
X138741700Y-42798300D01*
X138741700Y-40296700D01*
X139583300Y-40296700D01*
X139583300Y-42798300D01*
X139583300Y-42798300D01*
G37*
G36*
X138313300Y-42798300D02*
X137471700Y-42798300D01*
X137471700Y-40296700D01*
X138313300Y-40296700D01*
X138313300Y-42798300D01*
X138313300Y-42798300D01*
G37*
G36*
X137043300Y-42798300D02*
X136201700Y-42798300D01*
X136201700Y-40296700D01*
X137043300Y-40296700D01*
X137043300Y-42798300D01*
X137043300Y-42798300D01*
G37*
G36*
X131049800Y-42761300D02*
X128948200Y-42761300D01*
X128948200Y-41259700D01*
X131049800Y-41259700D01*
X131049800Y-42761300D01*
X131049800Y-42761300D01*
G37*
G36*
X123849800Y-42761300D02*
X121748200Y-42761300D01*
X121748200Y-41259700D01*
X123849800Y-41259700D01*
X123849800Y-42761300D01*
X123849800Y-42761300D01*
G37*
G36*
X116434729Y-40946854D02*
X116565254Y-40972817D01*
X116729189Y-41040721D01*
X116876727Y-41139303D01*
X117002197Y-41264773D01*
X117100779Y-41412311D01*
X117168683Y-41576246D01*
X117194646Y-41706771D01*
X117203300Y-41750278D01*
X117203300Y-41927722D01*
X117194646Y-41971229D01*
X117168683Y-42101754D01*
X117100779Y-42265689D01*
X117002197Y-42413227D01*
X116876727Y-42538697D01*
X116729189Y-42637279D01*
X116565254Y-42705183D01*
X116434729Y-42731146D01*
X116391222Y-42739800D01*
X116213778Y-42739800D01*
X116170271Y-42731146D01*
X116039746Y-42705183D01*
X115875811Y-42637279D01*
X115728273Y-42538697D01*
X115602803Y-42413227D01*
X115504221Y-42265689D01*
X115436317Y-42101754D01*
X115410354Y-41971229D01*
X115401700Y-41927722D01*
X115401700Y-41750278D01*
X115410354Y-41706771D01*
X115436317Y-41576246D01*
X115504221Y-41412311D01*
X115602803Y-41264773D01*
X115728273Y-41139303D01*
X115875811Y-41040721D01*
X116039746Y-40972817D01*
X116170271Y-40946854D01*
X116213778Y-40938200D01*
X116391222Y-40938200D01*
X116434729Y-40946854D01*
X116434729Y-40946854D01*
G37*
G36*
X105957229Y-40946854D02*
X106087754Y-40972817D01*
X106251689Y-41040721D01*
X106399227Y-41139303D01*
X106524697Y-41264773D01*
X106623279Y-41412311D01*
X106691183Y-41576246D01*
X106717146Y-41706771D01*
X106725800Y-41750278D01*
X106725800Y-41927722D01*
X106717146Y-41971229D01*
X106691183Y-42101754D01*
X106623279Y-42265689D01*
X106524697Y-42413227D01*
X106399227Y-42538697D01*
X106251689Y-42637279D01*
X106087754Y-42705183D01*
X105957229Y-42731146D01*
X105913722Y-42739800D01*
X105736278Y-42739800D01*
X105692771Y-42731146D01*
X105562246Y-42705183D01*
X105398311Y-42637279D01*
X105250773Y-42538697D01*
X105125303Y-42413227D01*
X105026721Y-42265689D01*
X104958817Y-42101754D01*
X104932854Y-41971229D01*
X104924200Y-41927722D01*
X104924200Y-41750278D01*
X104932854Y-41706771D01*
X104958817Y-41576246D01*
X105026721Y-41412311D01*
X105125303Y-41264773D01*
X105250773Y-41139303D01*
X105398311Y-41040721D01*
X105562246Y-40972817D01*
X105692771Y-40946854D01*
X105736278Y-40938200D01*
X105913722Y-40938200D01*
X105957229Y-40946854D01*
X105957229Y-40946854D01*
G37*
G36*
X134964300Y-42327300D02*
X133962700Y-42327300D01*
X133962700Y-41025700D01*
X134964300Y-41025700D01*
X134964300Y-42327300D01*
X134964300Y-42327300D01*
G37*
G36*
X133186300Y-42327300D02*
X132184700Y-42327300D01*
X132184700Y-41025700D01*
X133186300Y-41025700D01*
X133186300Y-42327300D01*
X133186300Y-42327300D01*
G37*
G36*
X103600800Y-41939800D02*
X100699200Y-41939800D01*
X100699200Y-39538200D01*
X103600800Y-39538200D01*
X103600800Y-41939800D01*
X103600800Y-41939800D01*
G37*
G36*
X114078300Y-41889800D02*
X111176700Y-41889800D01*
X111176700Y-39588200D01*
X114078300Y-39588200D01*
X114078300Y-41889800D01*
X114078300Y-41889800D01*
G37*
G36*
X128599800Y-39496320D02*
X128602202Y-39520706D01*
X128609315Y-39544155D01*
X128618060Y-39560517D01*
X128614560Y-39565755D01*
X128605183Y-39588394D01*
X128600402Y-39612428D01*
X128599800Y-39624680D01*
X128599800Y-40561300D01*
X126598200Y-40561300D01*
X126598200Y-38559700D01*
X128599800Y-38559700D01*
X128599800Y-39496320D01*
X128599800Y-39496320D01*
G37*
G36*
X126199800Y-40561300D02*
X124198200Y-40561300D01*
X124198200Y-39624680D01*
X124195798Y-39600294D01*
X124188685Y-39576845D01*
X124179940Y-39560483D01*
X124183440Y-39555245D01*
X124192817Y-39532606D01*
X124197598Y-39508572D01*
X124198200Y-39496320D01*
X124198200Y-38559700D01*
X126199800Y-38559700D01*
X126199800Y-40561300D01*
X126199800Y-40561300D01*
G37*
G36*
X130865787Y-38722010D02*
X131026160Y-38770660D01*
X131026162Y-38770661D01*
X131173966Y-38849663D01*
X131303517Y-38955983D01*
X131409837Y-39085534D01*
X131488839Y-39233338D01*
X131488840Y-39233340D01*
X131537490Y-39393713D01*
X131553916Y-39560500D01*
X131537490Y-39727287D01*
X131488840Y-39887660D01*
X131488839Y-39887662D01*
X131409837Y-40035466D01*
X131303517Y-40165017D01*
X131173966Y-40271337D01*
X131026162Y-40350339D01*
X131026160Y-40350340D01*
X130865787Y-40398990D01*
X130740794Y-40411300D01*
X129657206Y-40411300D01*
X129532213Y-40398990D01*
X129371840Y-40350340D01*
X129371838Y-40350339D01*
X129224034Y-40271337D01*
X129094483Y-40165017D01*
X128988163Y-40035466D01*
X128909161Y-39887662D01*
X128909160Y-39887660D01*
X128860510Y-39727287D01*
X128849198Y-39612428D01*
X128844418Y-39588395D01*
X128835040Y-39565756D01*
X128831540Y-39560517D01*
X128840285Y-39544155D01*
X128847398Y-39520706D01*
X128849198Y-39508572D01*
X128860510Y-39393713D01*
X128909160Y-39233340D01*
X128909161Y-39233338D01*
X128988163Y-39085534D01*
X129094483Y-38955983D01*
X129224034Y-38849663D01*
X129371838Y-38770661D01*
X129371840Y-38770660D01*
X129532213Y-38722010D01*
X129657206Y-38709700D01*
X130740794Y-38709700D01*
X130865787Y-38722010D01*
X130865787Y-38722010D01*
G37*
G36*
X123265787Y-38722010D02*
X123426160Y-38770660D01*
X123426162Y-38770661D01*
X123573966Y-38849663D01*
X123703517Y-38955983D01*
X123809837Y-39085534D01*
X123888839Y-39233338D01*
X123888840Y-39233340D01*
X123937490Y-39393713D01*
X123948802Y-39508572D01*
X123953582Y-39532605D01*
X123962960Y-39555244D01*
X123966460Y-39560483D01*
X123957715Y-39576845D01*
X123950602Y-39600294D01*
X123948802Y-39612428D01*
X123937490Y-39727287D01*
X123888840Y-39887660D01*
X123888839Y-39887662D01*
X123809837Y-40035466D01*
X123703517Y-40165017D01*
X123573966Y-40271337D01*
X123426162Y-40350339D01*
X123426160Y-40350340D01*
X123265787Y-40398990D01*
X123140794Y-40411300D01*
X122057206Y-40411300D01*
X121932213Y-40398990D01*
X121771840Y-40350340D01*
X121771838Y-40350339D01*
X121624034Y-40271337D01*
X121494483Y-40165017D01*
X121388163Y-40035466D01*
X121309161Y-39887662D01*
X121309160Y-39887660D01*
X121260510Y-39727287D01*
X121244084Y-39560500D01*
X121260510Y-39393713D01*
X121309160Y-39233340D01*
X121309161Y-39233338D01*
X121388163Y-39085534D01*
X121494483Y-38955983D01*
X121624034Y-38849663D01*
X121771838Y-38770661D01*
X121771840Y-38770660D01*
X121932213Y-38722010D01*
X122057206Y-38709700D01*
X123140794Y-38709700D01*
X123265787Y-38722010D01*
X123265787Y-38722010D01*
G37*
G36*
X134964300Y-40127300D02*
X133962700Y-40127300D01*
X133962700Y-38825700D01*
X134964300Y-38825700D01*
X134964300Y-40127300D01*
X134964300Y-40127300D01*
G37*
G36*
X133186300Y-40127300D02*
X132184700Y-40127300D01*
X132184700Y-38825700D01*
X133186300Y-38825700D01*
X133186300Y-40127300D01*
X133186300Y-40127300D01*
G37*
M02*
