G04 #@! TF.GenerationSoftware,KiCad,Pcbnew,(5.0.2-5)-5*
G04 #@! TF.CreationDate,2019-03-10T20:48:22-07:00*
G04 #@! TF.ProjectId,pygameboy,70796761-6d65-4626-9f79-2e6b69636164,rev?*
G04 #@! TF.SameCoordinates,Original*
G04 #@! TF.FileFunction,Legend,Top*
G04 #@! TF.FilePolarity,Positive*
%FSLAX46Y46*%
G04 Gerber Fmt 4.6, Leading zero omitted, Abs format (unit mm)*
G04 Created by KiCad (PCBNEW (5.0.2-5)-5) date Sunday, March 10, 2019 at 08:48:22 PM*
%MOMM*%
%LPD*%
G01*
G04 APERTURE LIST*
%ADD10C,0.120000*%
%ADD11C,0.300000*%
%ADD12C,0.200000*%
%ADD13C,0.127000*%
%ADD14C,0.150000*%
%ADD15C,0.203200*%
%ADD16C,0.010000*%
G04 APERTURE END LIST*
D10*
X144667904Y-46691404D02*
X144286952Y-46958071D01*
X144667904Y-47148547D02*
X143867904Y-47148547D01*
X143867904Y-46843785D01*
X143906000Y-46767595D01*
X143944095Y-46729500D01*
X144020285Y-46691404D01*
X144134571Y-46691404D01*
X144210761Y-46729500D01*
X144248857Y-46767595D01*
X144286952Y-46843785D01*
X144286952Y-47148547D01*
X144248857Y-46348547D02*
X144248857Y-46081880D01*
X144667904Y-45967595D02*
X144667904Y-46348547D01*
X143867904Y-46348547D01*
X143867904Y-45967595D01*
X144629809Y-45662833D02*
X144667904Y-45548547D01*
X144667904Y-45358071D01*
X144629809Y-45281880D01*
X144591714Y-45243785D01*
X144515523Y-45205690D01*
X144439333Y-45205690D01*
X144363142Y-45243785D01*
X144325047Y-45281880D01*
X144286952Y-45358071D01*
X144248857Y-45510452D01*
X144210761Y-45586642D01*
X144172666Y-45624738D01*
X144096476Y-45662833D01*
X144020285Y-45662833D01*
X143944095Y-45624738D01*
X143906000Y-45586642D01*
X143867904Y-45510452D01*
X143867904Y-45319976D01*
X143906000Y-45205690D01*
X144248857Y-44862833D02*
X144248857Y-44596166D01*
X144667904Y-44481880D02*
X144667904Y-44862833D01*
X143867904Y-44862833D01*
X143867904Y-44481880D01*
X143867904Y-44253309D02*
X143867904Y-43796166D01*
X144667904Y-44024738D02*
X143867904Y-44024738D01*
X141620023Y-75926904D02*
X141620023Y-75126904D01*
X141810500Y-75126904D01*
X141924785Y-75165000D01*
X142000976Y-75241190D01*
X142039071Y-75317380D01*
X142077166Y-75469761D01*
X142077166Y-75584047D01*
X142039071Y-75736428D01*
X142000976Y-75812619D01*
X141924785Y-75888809D01*
X141810500Y-75926904D01*
X141620023Y-75926904D01*
X142572404Y-75126904D02*
X142648595Y-75126904D01*
X142724785Y-75165000D01*
X142762880Y-75203095D01*
X142800976Y-75279285D01*
X142839071Y-75431666D01*
X142839071Y-75622142D01*
X142800976Y-75774523D01*
X142762880Y-75850714D01*
X142724785Y-75888809D01*
X142648595Y-75926904D01*
X142572404Y-75926904D01*
X142496214Y-75888809D01*
X142458119Y-75850714D01*
X142420023Y-75774523D01*
X142381928Y-75622142D01*
X142381928Y-75431666D01*
X142420023Y-75279285D01*
X142458119Y-75203095D01*
X142496214Y-75165000D01*
X142572404Y-75126904D01*
D11*
X111290071Y-46966000D02*
X111290071Y-46680285D01*
X111361500Y-46537428D01*
X111504357Y-46394571D01*
X111790071Y-46323142D01*
X112290071Y-46323142D01*
X112575785Y-46394571D01*
X112718642Y-46537428D01*
X112790071Y-46680285D01*
X112790071Y-46966000D01*
X112718642Y-47108857D01*
X112575785Y-47251714D01*
X112290071Y-47323142D01*
X111790071Y-47323142D01*
X111504357Y-47251714D01*
X111361500Y-47108857D01*
X111290071Y-46966000D01*
X111290071Y-45680285D02*
X112504357Y-45680285D01*
X112647214Y-45608857D01*
X112718642Y-45537428D01*
X112790071Y-45394571D01*
X112790071Y-45108857D01*
X112718642Y-44966000D01*
X112647214Y-44894571D01*
X112504357Y-44823142D01*
X111290071Y-44823142D01*
X111290071Y-44323142D02*
X111290071Y-43466000D01*
X112790071Y-43894571D02*
X111290071Y-43894571D01*
X102312571Y-46315214D02*
X100812571Y-46315214D01*
X102312571Y-45600928D02*
X100812571Y-45600928D01*
X102312571Y-44743785D01*
X100812571Y-44743785D01*
D10*
X145340476Y-51380000D02*
X145264285Y-51341904D01*
X145150000Y-51341904D01*
X145035714Y-51380000D01*
X144959523Y-51456190D01*
X144921428Y-51532380D01*
X144883333Y-51684761D01*
X144883333Y-51799047D01*
X144921428Y-51951428D01*
X144959523Y-52027619D01*
X145035714Y-52103809D01*
X145150000Y-52141904D01*
X145226190Y-52141904D01*
X145340476Y-52103809D01*
X145378571Y-52065714D01*
X145378571Y-51799047D01*
X145226190Y-51799047D01*
X145721428Y-52141904D02*
X145721428Y-51341904D01*
X146178571Y-52141904D01*
X146178571Y-51341904D01*
X146559523Y-52141904D02*
X146559523Y-51341904D01*
X146750000Y-51341904D01*
X146864285Y-51380000D01*
X146940476Y-51456190D01*
X146978571Y-51532380D01*
X147016666Y-51684761D01*
X147016666Y-51799047D01*
X146978571Y-51951428D01*
X146940476Y-52027619D01*
X146864285Y-52103809D01*
X146750000Y-52141904D01*
X146559523Y-52141904D01*
X133305158Y-54248151D02*
X132739473Y-53682466D01*
X132954972Y-53466967D01*
X133035784Y-53440029D01*
X133089659Y-53440029D01*
X133170471Y-53466967D01*
X133251284Y-53547779D01*
X133278221Y-53628591D01*
X133278221Y-53682466D01*
X133251284Y-53763278D01*
X133035784Y-53978777D01*
X133763094Y-53197593D02*
X133870844Y-53143718D01*
X133924719Y-53143718D01*
X134005531Y-53170655D01*
X134086343Y-53251467D01*
X134113280Y-53332280D01*
X134113280Y-53386154D01*
X134086343Y-53466967D01*
X133870844Y-53682466D01*
X133305158Y-53116780D01*
X133493720Y-52928219D01*
X133574532Y-52901281D01*
X133628407Y-52901281D01*
X133709219Y-52928219D01*
X133763094Y-52982093D01*
X133790032Y-53062906D01*
X133790032Y-53116780D01*
X133763094Y-53197593D01*
X133574532Y-53386154D01*
X134732841Y-52820469D02*
X134409592Y-53143718D01*
X134571216Y-52982093D02*
X134005531Y-52416408D01*
X134032468Y-52551095D01*
X134032468Y-52658845D01*
X134005531Y-52739657D01*
X134355717Y-52066222D02*
X134732841Y-51689098D01*
X135056089Y-52497220D01*
X112168642Y-62496500D02*
X112168642Y-61886976D01*
X112473404Y-62191738D02*
X111863880Y-62191738D01*
X111673404Y-61582214D02*
X111673404Y-61086976D01*
X111978166Y-61353642D01*
X111978166Y-61239357D01*
X112016261Y-61163166D01*
X112054357Y-61125071D01*
X112130547Y-61086976D01*
X112321023Y-61086976D01*
X112397214Y-61125071D01*
X112435309Y-61163166D01*
X112473404Y-61239357D01*
X112473404Y-61467928D01*
X112435309Y-61544119D01*
X112397214Y-61582214D01*
X112397214Y-60744119D02*
X112435309Y-60706023D01*
X112473404Y-60744119D01*
X112435309Y-60782214D01*
X112397214Y-60744119D01*
X112473404Y-60744119D01*
X111673404Y-60439357D02*
X111673404Y-59944119D01*
X111978166Y-60210785D01*
X111978166Y-60096500D01*
X112016261Y-60020309D01*
X112054357Y-59982214D01*
X112130547Y-59944119D01*
X112321023Y-59944119D01*
X112397214Y-59982214D01*
X112435309Y-60020309D01*
X112473404Y-60096500D01*
X112473404Y-60325071D01*
X112435309Y-60401261D01*
X112397214Y-60439357D01*
X111673404Y-59715547D02*
X112473404Y-59448880D01*
X111673404Y-59182214D01*
X101119642Y-67513071D02*
X101119642Y-66903547D01*
X101424404Y-67208309D02*
X100814880Y-67208309D01*
X100624404Y-66141642D02*
X100624404Y-66522595D01*
X101005357Y-66560690D01*
X100967261Y-66522595D01*
X100929166Y-66446404D01*
X100929166Y-66255928D01*
X100967261Y-66179738D01*
X101005357Y-66141642D01*
X101081547Y-66103547D01*
X101272023Y-66103547D01*
X101348214Y-66141642D01*
X101386309Y-66179738D01*
X101424404Y-66255928D01*
X101424404Y-66446404D01*
X101386309Y-66522595D01*
X101348214Y-66560690D01*
X100624404Y-65874976D02*
X101424404Y-65608309D01*
X100624404Y-65341642D01*
X122112503Y-52329814D02*
X122193316Y-51871878D01*
X121789255Y-52006565D02*
X122354940Y-51440880D01*
X122570439Y-51656379D01*
X122597377Y-51737191D01*
X122597377Y-51791066D01*
X122570439Y-51871878D01*
X122489627Y-51952690D01*
X122408815Y-51979628D01*
X122354940Y-51979628D01*
X122274128Y-51952690D01*
X122058629Y-51737191D01*
X122651251Y-52275939D02*
X122839813Y-52464501D01*
X122624314Y-52841625D02*
X122354940Y-52572251D01*
X122920625Y-52006565D01*
X123190000Y-52275939D01*
X122866751Y-53030187D02*
X122920625Y-53137936D01*
X123055312Y-53272623D01*
X123136125Y-53299561D01*
X123190000Y-53299561D01*
X123270812Y-53272623D01*
X123324687Y-53218748D01*
X123351624Y-53137936D01*
X123351624Y-53084061D01*
X123324687Y-53003249D01*
X123243874Y-52868562D01*
X123216937Y-52787750D01*
X123216937Y-52733875D01*
X123243874Y-52653063D01*
X123297749Y-52599188D01*
X123378561Y-52572251D01*
X123432436Y-52572251D01*
X123513248Y-52599188D01*
X123647935Y-52733875D01*
X123701810Y-52841625D01*
X123701810Y-53326498D02*
X123890372Y-53515060D01*
X123674873Y-53892183D02*
X123405499Y-53622809D01*
X123971184Y-53057124D01*
X124240558Y-53326498D01*
X124402183Y-53488122D02*
X124725431Y-53811371D01*
X123998122Y-54215432D02*
X124563807Y-53649747D01*
X131656251Y-72503312D02*
X131602377Y-72503312D01*
X131494627Y-72449438D01*
X131440752Y-72395563D01*
X131386877Y-72287813D01*
X131386877Y-72180064D01*
X131413815Y-72099251D01*
X131494627Y-71964564D01*
X131575439Y-71883752D01*
X131710126Y-71802940D01*
X131790938Y-71776003D01*
X131898688Y-71776003D01*
X132006438Y-71829877D01*
X132060312Y-71883752D01*
X132114187Y-71991502D01*
X132114187Y-72045377D01*
X132114187Y-73068998D02*
X131844813Y-72799624D01*
X132410499Y-72233938D01*
X132302749Y-73257560D02*
X132868435Y-72691874D01*
X132625998Y-73580809D02*
X132706810Y-73015123D01*
X133191683Y-73015123D02*
X132545186Y-73015123D01*
X136892619Y-73621333D02*
X137273571Y-73621333D01*
X136816428Y-73849904D02*
X137083095Y-73049904D01*
X137349761Y-73849904D01*
X138035476Y-73849904D02*
X137578333Y-73849904D01*
X137806904Y-73849904D02*
X137806904Y-73049904D01*
X137730714Y-73164190D01*
X137654523Y-73240380D01*
X137578333Y-73278476D01*
X138759285Y-73049904D02*
X138378333Y-73049904D01*
X138340238Y-73430857D01*
X138378333Y-73392761D01*
X138454523Y-73354666D01*
X138645000Y-73354666D01*
X138721190Y-73392761D01*
X138759285Y-73430857D01*
X138797380Y-73507047D01*
X138797380Y-73697523D01*
X138759285Y-73773714D01*
X138721190Y-73811809D01*
X138645000Y-73849904D01*
X138454523Y-73849904D01*
X138378333Y-73811809D01*
X138340238Y-73773714D01*
X138978404Y-71697904D02*
X139130785Y-71697904D01*
X139206976Y-71736000D01*
X139283166Y-71812190D01*
X139321261Y-71964571D01*
X139321261Y-72231238D01*
X139283166Y-72383619D01*
X139206976Y-72459809D01*
X139130785Y-72497904D01*
X138978404Y-72497904D01*
X138902214Y-72459809D01*
X138826023Y-72383619D01*
X138787928Y-72231238D01*
X138787928Y-71964571D01*
X138826023Y-71812190D01*
X138902214Y-71736000D01*
X138978404Y-71697904D01*
X139664119Y-72078857D02*
X139930785Y-72078857D01*
X140045071Y-72497904D02*
X139664119Y-72497904D01*
X139664119Y-71697904D01*
X140045071Y-71697904D01*
X141347000Y-70783404D02*
X141347000Y-69983404D01*
X141537476Y-69983404D01*
X141651761Y-70021500D01*
X141727952Y-70097690D01*
X141766047Y-70173880D01*
X141804142Y-70326261D01*
X141804142Y-70440547D01*
X141766047Y-70592928D01*
X141727952Y-70669119D01*
X141651761Y-70745309D01*
X141537476Y-70783404D01*
X141347000Y-70783404D01*
X142147000Y-70783404D02*
X142147000Y-69983404D01*
X142985095Y-70783404D02*
X142718428Y-70402452D01*
X142527952Y-70783404D02*
X142527952Y-69983404D01*
X142832714Y-69983404D01*
X142908904Y-70021500D01*
X142947000Y-70059595D01*
X142985095Y-70135785D01*
X142985095Y-70250071D01*
X142947000Y-70326261D01*
X142908904Y-70364357D01*
X142832714Y-70402452D01*
X142527952Y-70402452D01*
X139219809Y-62655500D02*
X139143619Y-62617404D01*
X139029333Y-62617404D01*
X138915047Y-62655500D01*
X138838857Y-62731690D01*
X138800761Y-62807880D01*
X138762666Y-62960261D01*
X138762666Y-63074547D01*
X138800761Y-63226928D01*
X138838857Y-63303119D01*
X138915047Y-63379309D01*
X139029333Y-63417404D01*
X139105523Y-63417404D01*
X139219809Y-63379309D01*
X139257904Y-63341214D01*
X139257904Y-63074547D01*
X139105523Y-63074547D01*
X139867428Y-62998357D02*
X139981714Y-63036452D01*
X140019809Y-63074547D01*
X140057904Y-63150738D01*
X140057904Y-63265023D01*
X140019809Y-63341214D01*
X139981714Y-63379309D01*
X139905523Y-63417404D01*
X139600761Y-63417404D01*
X139600761Y-62617404D01*
X139867428Y-62617404D01*
X139943619Y-62655500D01*
X139981714Y-62693595D01*
X140019809Y-62769785D01*
X140019809Y-62845976D01*
X139981714Y-62922166D01*
X139943619Y-62960261D01*
X139867428Y-62998357D01*
X139600761Y-62998357D01*
X140210285Y-63493595D02*
X140819809Y-63493595D01*
X141467428Y-63417404D02*
X141200761Y-63036452D01*
X141010285Y-63417404D02*
X141010285Y-62617404D01*
X141315047Y-62617404D01*
X141391238Y-62655500D01*
X141429333Y-62693595D01*
X141467428Y-62769785D01*
X141467428Y-62884071D01*
X141429333Y-62960261D01*
X141391238Y-62998357D01*
X141315047Y-63036452D01*
X141010285Y-63036452D01*
X141772190Y-63379309D02*
X141886476Y-63417404D01*
X142076952Y-63417404D01*
X142153142Y-63379309D01*
X142191238Y-63341214D01*
X142229333Y-63265023D01*
X142229333Y-63188833D01*
X142191238Y-63112642D01*
X142153142Y-63074547D01*
X142076952Y-63036452D01*
X141924571Y-62998357D01*
X141848380Y-62960261D01*
X141810285Y-62922166D01*
X141772190Y-62845976D01*
X141772190Y-62769785D01*
X141810285Y-62693595D01*
X141848380Y-62655500D01*
X141924571Y-62617404D01*
X142115047Y-62617404D01*
X142229333Y-62655500D01*
X106377404Y-75653880D02*
X105996452Y-75920547D01*
X106377404Y-76111023D02*
X105577404Y-76111023D01*
X105577404Y-75806261D01*
X105615500Y-75730071D01*
X105653595Y-75691976D01*
X105729785Y-75653880D01*
X105844071Y-75653880D01*
X105920261Y-75691976D01*
X105958357Y-75730071D01*
X105996452Y-75806261D01*
X105996452Y-76111023D01*
X106377404Y-75311023D02*
X105577404Y-75311023D01*
X105577404Y-75120547D01*
X105615500Y-75006261D01*
X105691690Y-74930071D01*
X105767880Y-74891976D01*
X105920261Y-74853880D01*
X106034547Y-74853880D01*
X106186928Y-74891976D01*
X106263119Y-74930071D01*
X106339309Y-75006261D01*
X106377404Y-75120547D01*
X106377404Y-75311023D01*
X109019940Y-75081999D02*
X109720312Y-75512997D01*
X109424001Y-75001187D01*
X109935812Y-75297498D01*
X109504813Y-74597125D01*
X110609247Y-74624063D02*
X110151311Y-74543251D01*
X110285998Y-74947312D02*
X109720312Y-74381626D01*
X109935812Y-74166127D01*
X110016624Y-74139190D01*
X110070499Y-74139190D01*
X110151311Y-74166127D01*
X110232123Y-74246939D01*
X110259061Y-74327751D01*
X110259061Y-74381626D01*
X110232123Y-74462438D01*
X110016624Y-74677938D01*
X113455249Y-71098811D02*
X113455249Y-71152686D01*
X113401374Y-71260435D01*
X113347499Y-71314310D01*
X113239750Y-71368185D01*
X113132000Y-71368185D01*
X113051188Y-71341248D01*
X112916501Y-71260435D01*
X112835689Y-71179623D01*
X112754877Y-71044936D01*
X112727939Y-70964124D01*
X112727939Y-70856374D01*
X112781814Y-70748625D01*
X112835689Y-70694750D01*
X112943438Y-70640875D01*
X112997313Y-70640875D01*
X113697686Y-70910249D02*
X113805435Y-70856374D01*
X113940122Y-70721687D01*
X113967060Y-70640875D01*
X113967060Y-70587000D01*
X113940122Y-70506188D01*
X113886248Y-70452313D01*
X113805435Y-70425376D01*
X113751561Y-70425376D01*
X113670748Y-70452313D01*
X113536061Y-70533125D01*
X113455249Y-70560063D01*
X113401374Y-70560063D01*
X113320562Y-70533125D01*
X113266687Y-70479251D01*
X113239750Y-70398438D01*
X113239750Y-70344564D01*
X113266687Y-70263751D01*
X113401374Y-70129064D01*
X113509124Y-70075190D01*
D11*
X128449133Y-63963011D02*
X127388473Y-62902350D01*
X127641011Y-62649812D01*
X127843042Y-62548797D01*
X128045072Y-62548797D01*
X128196595Y-62599305D01*
X128449133Y-62750827D01*
X128600656Y-62902350D01*
X128752179Y-63154888D01*
X128802687Y-63306411D01*
X128802687Y-63508442D01*
X128701672Y-63710472D01*
X128449133Y-63963011D01*
X129964362Y-62447782D02*
X129408778Y-61892198D01*
X129257255Y-61841690D01*
X129105733Y-61892198D01*
X128903702Y-62094228D01*
X128853194Y-62245751D01*
X129913855Y-62397274D02*
X129863347Y-62548797D01*
X129610809Y-62801335D01*
X129459286Y-62851843D01*
X129307763Y-62801335D01*
X129206748Y-62700320D01*
X129156240Y-62548797D01*
X129206748Y-62397274D01*
X129459286Y-62144736D01*
X129509794Y-61993213D01*
X129610809Y-61387122D02*
X130014870Y-60983061D01*
X129408778Y-60882045D02*
X130317916Y-61791183D01*
X130469438Y-61841690D01*
X130620961Y-61791183D01*
X130721977Y-61690167D01*
X131530099Y-60882045D02*
X130974515Y-60326461D01*
X130822992Y-60275954D01*
X130671469Y-60326461D01*
X130469438Y-60528492D01*
X130418931Y-60680015D01*
X131479591Y-60831538D02*
X131429083Y-60983061D01*
X131176545Y-61235599D01*
X131025022Y-61286106D01*
X130873500Y-61235599D01*
X130772484Y-61134583D01*
X130721977Y-60983061D01*
X130772484Y-60831538D01*
X131025022Y-60579000D01*
X131075530Y-60427477D01*
X131681622Y-58609202D02*
X132338221Y-57952603D01*
X132388728Y-58710217D01*
X132540251Y-58558694D01*
X132691774Y-58508187D01*
X132792789Y-58508187D01*
X132944312Y-58558694D01*
X133196850Y-58811233D01*
X133247358Y-58962755D01*
X133247358Y-59063771D01*
X133196850Y-59215294D01*
X132893805Y-59518339D01*
X132742282Y-59568847D01*
X132641266Y-59568847D01*
X132641266Y-57649557D02*
X134055480Y-58356664D01*
X133348373Y-56942450D01*
X117984626Y-67024003D02*
X118186656Y-66922988D01*
X118439194Y-66670450D01*
X118489702Y-66518927D01*
X118489702Y-66417911D01*
X118439194Y-66266388D01*
X118338179Y-66165373D01*
X118186656Y-66114866D01*
X118085641Y-66114866D01*
X117934118Y-66165373D01*
X117681580Y-66316896D01*
X117530057Y-66367404D01*
X117429042Y-66367404D01*
X117277519Y-66316896D01*
X117176504Y-66215881D01*
X117125996Y-66064358D01*
X117125996Y-65963343D01*
X117176504Y-65811820D01*
X117429042Y-65559282D01*
X117631072Y-65458266D01*
X118742240Y-65761312D02*
X119247316Y-65256236D01*
X118944271Y-66165373D02*
X118237164Y-64751160D01*
X119651377Y-65458266D01*
X120004931Y-65104713D02*
X118944271Y-64044053D01*
X120055438Y-64448114D01*
X119651377Y-63336946D01*
X120712038Y-64397606D01*
X121217114Y-63892530D02*
X120156454Y-62831870D01*
X120408992Y-62579332D01*
X120611022Y-62478316D01*
X120813053Y-62478316D01*
X120964576Y-62528824D01*
X121217114Y-62680347D01*
X121368637Y-62831870D01*
X121520160Y-63084408D01*
X121570667Y-63235931D01*
X121570667Y-63437961D01*
X121469652Y-63639992D01*
X121217114Y-63892530D01*
X121722190Y-61266133D02*
X121217114Y-61771210D01*
X121671683Y-62326794D01*
X121671683Y-62225778D01*
X121722190Y-62074255D01*
X121974728Y-61821717D01*
X122126251Y-61771210D01*
X122227266Y-61771210D01*
X122378789Y-61821717D01*
X122631327Y-62074255D01*
X122681835Y-62225778D01*
X122681835Y-62326794D01*
X122631327Y-62478316D01*
X122378789Y-62730855D01*
X122227266Y-62781362D01*
X122126251Y-62781362D01*
X123843511Y-61266133D02*
X123237419Y-61872225D01*
X123540465Y-61569179D02*
X122479805Y-60508519D01*
X122530312Y-60761057D01*
X122530312Y-60963088D01*
X122479805Y-61114611D01*
D12*
X135897880Y-40711357D02*
X135897880Y-41187547D01*
X134897880Y-41187547D01*
X135374071Y-40378023D02*
X135374071Y-40044690D01*
X135897880Y-39901833D02*
X135897880Y-40378023D01*
X134897880Y-40378023D01*
X134897880Y-39901833D01*
X135897880Y-39473261D02*
X134897880Y-39473261D01*
X134897880Y-39235166D01*
X134945500Y-39092309D01*
X135040738Y-38997071D01*
X135135976Y-38949452D01*
X135326452Y-38901833D01*
X135469309Y-38901833D01*
X135659785Y-38949452D01*
X135755023Y-38997071D01*
X135850261Y-39092309D01*
X135897880Y-39235166D01*
X135897880Y-39473261D01*
D11*
X127482885Y-50912710D02*
X126624255Y-51771339D01*
X126573748Y-51922862D01*
X126573748Y-52023877D01*
X126624255Y-52175400D01*
X126826286Y-52377431D01*
X126977809Y-52427938D01*
X127078824Y-52427938D01*
X127230347Y-52377431D01*
X128088977Y-51518801D01*
X127533393Y-52983522D02*
X127634408Y-53185553D01*
X127886946Y-53438091D01*
X128038469Y-53488599D01*
X128139484Y-53488599D01*
X128291007Y-53438091D01*
X128392022Y-53337076D01*
X128442530Y-53185553D01*
X128442530Y-53084538D01*
X128392022Y-52933015D01*
X128240500Y-52680477D01*
X128189992Y-52528954D01*
X128189992Y-52427938D01*
X128240500Y-52276416D01*
X128341515Y-52175400D01*
X128493038Y-52124893D01*
X128594053Y-52124893D01*
X128745576Y-52175400D01*
X128998114Y-52427938D01*
X129099129Y-52629969D01*
X129452683Y-53892660D02*
X129553698Y-54094690D01*
X129553698Y-54195705D01*
X129503190Y-54347228D01*
X129351667Y-54498751D01*
X129200144Y-54549259D01*
X129099129Y-54549259D01*
X128947606Y-54498751D01*
X128543545Y-54094690D01*
X129604205Y-53034030D01*
X129957759Y-53387583D01*
X130008266Y-53539106D01*
X130008266Y-53640122D01*
X129957759Y-53791644D01*
X129856744Y-53892660D01*
X129705221Y-53943167D01*
X129604205Y-53943167D01*
X129452683Y-53892660D01*
X129099129Y-53539106D01*
X136027571Y-48875071D02*
X136027571Y-47375071D01*
X136384714Y-47375071D01*
X136599000Y-47446500D01*
X136741857Y-47589357D01*
X136813285Y-47732214D01*
X136884714Y-48017928D01*
X136884714Y-48232214D01*
X136813285Y-48517928D01*
X136741857Y-48660785D01*
X136599000Y-48803642D01*
X136384714Y-48875071D01*
X136027571Y-48875071D01*
X138099000Y-48803642D02*
X137956142Y-48875071D01*
X137670428Y-48875071D01*
X137527571Y-48803642D01*
X137456142Y-48660785D01*
X137456142Y-48089357D01*
X137527571Y-47946500D01*
X137670428Y-47875071D01*
X137956142Y-47875071D01*
X138099000Y-47946500D01*
X138170428Y-48089357D01*
X138170428Y-48232214D01*
X137456142Y-48375071D01*
X138813285Y-48875071D02*
X138813285Y-47375071D01*
X138813285Y-47946500D02*
X138956142Y-47875071D01*
X139241857Y-47875071D01*
X139384714Y-47946500D01*
X139456142Y-48017928D01*
X139527571Y-48160785D01*
X139527571Y-48589357D01*
X139456142Y-48732214D01*
X139384714Y-48803642D01*
X139241857Y-48875071D01*
X138956142Y-48875071D01*
X138813285Y-48803642D01*
X140813285Y-47875071D02*
X140813285Y-48875071D01*
X140170428Y-47875071D02*
X140170428Y-48660785D01*
X140241857Y-48803642D01*
X140384714Y-48875071D01*
X140599000Y-48875071D01*
X140741857Y-48803642D01*
X140813285Y-48732214D01*
X142170428Y-47875071D02*
X142170428Y-49089357D01*
X142099000Y-49232214D01*
X142027571Y-49303642D01*
X141884714Y-49375071D01*
X141670428Y-49375071D01*
X141527571Y-49303642D01*
X142170428Y-48803642D02*
X142027571Y-48875071D01*
X141741857Y-48875071D01*
X141599000Y-48803642D01*
X141527571Y-48732214D01*
X141456142Y-48589357D01*
X141456142Y-48160785D01*
X141527571Y-48017928D01*
X141599000Y-47946500D01*
X141741857Y-47875071D01*
X142027571Y-47875071D01*
X142170428Y-47946500D01*
X117048042Y-69776595D02*
X117553118Y-70281672D01*
X116643981Y-69978626D02*
X118058194Y-69271519D01*
X117351088Y-70685733D01*
X118159210Y-71493855D02*
X119219870Y-70433194D01*
X118209717Y-71443347D02*
X118058194Y-71392839D01*
X117856164Y-71190809D01*
X117805656Y-71039286D01*
X117805656Y-70938271D01*
X117856164Y-70786748D01*
X118159210Y-70483702D01*
X118310733Y-70433194D01*
X118411748Y-70433194D01*
X118563271Y-70483702D01*
X118765301Y-70685733D01*
X118815809Y-70837255D01*
X119118855Y-72453500D02*
X120179515Y-71392839D01*
X119169362Y-72402992D02*
X119017839Y-72352484D01*
X118815809Y-72150454D01*
X118765301Y-71998931D01*
X118765301Y-71897916D01*
X118815809Y-71746393D01*
X119118855Y-71443347D01*
X119270377Y-71392839D01*
X119371393Y-71392839D01*
X119522916Y-71443347D01*
X119724946Y-71645377D01*
X119775454Y-71796900D01*
X119623931Y-72958576D02*
X120331038Y-72251469D01*
X120129007Y-72453500D02*
X120280530Y-72402992D01*
X120381545Y-72402992D01*
X120533068Y-72453500D01*
X120634083Y-72554515D01*
X120735099Y-73968728D02*
X120583576Y-73918221D01*
X120381545Y-73716190D01*
X120331038Y-73564667D01*
X120381545Y-73413144D01*
X120785606Y-73009083D01*
X120937129Y-72958576D01*
X121088652Y-73009083D01*
X121290683Y-73211114D01*
X121341190Y-73362637D01*
X121290683Y-73514160D01*
X121189667Y-73615175D01*
X120583576Y-73211114D01*
X121189667Y-74423297D02*
X121240175Y-74574820D01*
X121442205Y-74776850D01*
X121593728Y-74827358D01*
X121745251Y-74776850D01*
X121795759Y-74726343D01*
X121846266Y-74574820D01*
X121795759Y-74423297D01*
X121644236Y-74271774D01*
X121593728Y-74120251D01*
X121644236Y-73968728D01*
X121694744Y-73918221D01*
X121846266Y-73867713D01*
X121997789Y-73918221D01*
X122149312Y-74069744D01*
X122199820Y-74221266D01*
X122048297Y-75281927D02*
X122098805Y-75433450D01*
X122300835Y-75635480D01*
X122452358Y-75685988D01*
X122603881Y-75635480D01*
X122654388Y-75584972D01*
X122704896Y-75433450D01*
X122654388Y-75281927D01*
X122502866Y-75130404D01*
X122452358Y-74978881D01*
X122502866Y-74827358D01*
X122553373Y-74776850D01*
X122704896Y-74726343D01*
X122856419Y-74776850D01*
X123007942Y-74928373D01*
X123058450Y-75079896D01*
X141721339Y-84316305D02*
X140660679Y-83255644D01*
X140913217Y-83003106D01*
X141115248Y-82902091D01*
X141317278Y-82902091D01*
X141468801Y-82952599D01*
X141721339Y-83104122D01*
X141872862Y-83255644D01*
X142024385Y-83508183D01*
X142074893Y-83659705D01*
X142074893Y-83861736D01*
X141973877Y-84063766D01*
X141721339Y-84316305D01*
X143236568Y-82801076D02*
X142680984Y-82245492D01*
X142529461Y-82194984D01*
X142377938Y-82245492D01*
X142175908Y-82447522D01*
X142125400Y-82599045D01*
X143186061Y-82750568D02*
X143135553Y-82902091D01*
X142883015Y-83154629D01*
X142731492Y-83205137D01*
X142579969Y-83154629D01*
X142478954Y-83053614D01*
X142428446Y-82902091D01*
X142478954Y-82750568D01*
X142731492Y-82498030D01*
X142782000Y-82346507D01*
X142883015Y-81740416D02*
X143287076Y-81336355D01*
X142680984Y-81235339D02*
X143590122Y-82144477D01*
X143741644Y-82194984D01*
X143893167Y-82144477D01*
X143994183Y-82043461D01*
X144802305Y-81235339D02*
X144246721Y-80679755D01*
X144095198Y-80629248D01*
X143943675Y-80679755D01*
X143741644Y-80881786D01*
X143691137Y-81033309D01*
X144751797Y-81184832D02*
X144701289Y-81336355D01*
X144448751Y-81588893D01*
X144297228Y-81639400D01*
X144145705Y-81588893D01*
X144044690Y-81487877D01*
X143994183Y-81336355D01*
X144044690Y-81184832D01*
X144297228Y-80932294D01*
X144347736Y-80780771D01*
X145452142Y-77630857D02*
X145523571Y-77773714D01*
X145523571Y-78059428D01*
X145452142Y-78202285D01*
X145380714Y-78273714D01*
X145237857Y-78345142D01*
X144809285Y-78345142D01*
X144666428Y-78273714D01*
X144595000Y-78202285D01*
X144523571Y-78059428D01*
X144523571Y-77773714D01*
X144595000Y-77630857D01*
X145523571Y-76988000D02*
X144023571Y-76988000D01*
X144952142Y-76845142D02*
X145523571Y-76416571D01*
X144523571Y-76416571D02*
X145095000Y-76988000D01*
X145523571Y-75130857D02*
X144023571Y-75130857D01*
X145452142Y-75130857D02*
X145523571Y-75273714D01*
X145523571Y-75559428D01*
X145452142Y-75702285D01*
X145380714Y-75773714D01*
X145237857Y-75845142D01*
X144809285Y-75845142D01*
X144666428Y-75773714D01*
X144595000Y-75702285D01*
X144523571Y-75559428D01*
X144523571Y-75273714D01*
X144595000Y-75130857D01*
X145380714Y-74416571D02*
X145452142Y-74345142D01*
X145523571Y-74416571D01*
X145452142Y-74488000D01*
X145380714Y-74416571D01*
X145523571Y-74416571D01*
X144523571Y-73916571D02*
X144523571Y-73345142D01*
X144023571Y-73702285D02*
X145309285Y-73702285D01*
X145452142Y-73630857D01*
X145523571Y-73488000D01*
X145523571Y-73345142D01*
X145452142Y-72273714D02*
X145523571Y-72416571D01*
X145523571Y-72702285D01*
X145452142Y-72845142D01*
X145309285Y-72916571D01*
X144737857Y-72916571D01*
X144595000Y-72845142D01*
X144523571Y-72702285D01*
X144523571Y-72416571D01*
X144595000Y-72273714D01*
X144737857Y-72202285D01*
X144880714Y-72202285D01*
X145023571Y-72916571D01*
X145452142Y-70916571D02*
X145523571Y-71059428D01*
X145523571Y-71345142D01*
X145452142Y-71488000D01*
X145380714Y-71559428D01*
X145237857Y-71630857D01*
X144809285Y-71630857D01*
X144666428Y-71559428D01*
X144595000Y-71488000D01*
X144523571Y-71345142D01*
X144523571Y-71059428D01*
X144595000Y-70916571D01*
X145523571Y-70273714D02*
X144023571Y-70273714D01*
X145523571Y-69630857D02*
X144737857Y-69630857D01*
X144595000Y-69702285D01*
X144523571Y-69845142D01*
X144523571Y-70059428D01*
X144595000Y-70202285D01*
X144666428Y-70273714D01*
X143952142Y-67845142D02*
X145880714Y-69130857D01*
X144523571Y-67345142D02*
X146023571Y-67345142D01*
X144595000Y-67345142D02*
X144523571Y-67202285D01*
X144523571Y-66916571D01*
X144595000Y-66773714D01*
X144666428Y-66702285D01*
X144809285Y-66630857D01*
X145237857Y-66630857D01*
X145380714Y-66702285D01*
X145452142Y-66773714D01*
X145523571Y-66916571D01*
X145523571Y-67202285D01*
X145452142Y-67345142D01*
X144523571Y-66130857D02*
X145523571Y-65773714D01*
X144523571Y-65416571D02*
X145523571Y-65773714D01*
X145880714Y-65916571D01*
X145952142Y-65988000D01*
X146023571Y-66130857D01*
X144523571Y-64202285D02*
X145737857Y-64202285D01*
X145880714Y-64273714D01*
X145952142Y-64345142D01*
X146023571Y-64488000D01*
X146023571Y-64702285D01*
X145952142Y-64845142D01*
X145452142Y-64202285D02*
X145523571Y-64345142D01*
X145523571Y-64630857D01*
X145452142Y-64773714D01*
X145380714Y-64845142D01*
X145237857Y-64916571D01*
X144809285Y-64916571D01*
X144666428Y-64845142D01*
X144595000Y-64773714D01*
X144523571Y-64630857D01*
X144523571Y-64345142D01*
X144595000Y-64202285D01*
X145523571Y-63488000D02*
X144023571Y-63488000D01*
X144595000Y-63488000D02*
X144523571Y-63345142D01*
X144523571Y-63059428D01*
X144595000Y-62916571D01*
X144666428Y-62845142D01*
X144809285Y-62773714D01*
X145237857Y-62773714D01*
X145380714Y-62845142D01*
X145452142Y-62916571D01*
X145523571Y-63059428D01*
X145523571Y-63345142D01*
X145452142Y-63488000D01*
X143952142Y-61059428D02*
X145880714Y-62345142D01*
X144523571Y-60702285D02*
X145523571Y-60345142D01*
X144523571Y-59988000D01*
X144023571Y-58702285D02*
X144023571Y-59416571D01*
X144737857Y-59488000D01*
X144666428Y-59416571D01*
X144595000Y-59273714D01*
X144595000Y-58916571D01*
X144666428Y-58773714D01*
X144737857Y-58702285D01*
X144880714Y-58630857D01*
X145237857Y-58630857D01*
X145380714Y-58702285D01*
X145452142Y-58773714D01*
X145523571Y-58916571D01*
X145523571Y-59273714D01*
X145452142Y-59416571D01*
X145380714Y-59488000D01*
D12*
X147445000Y-90548095D02*
X147397380Y-90643333D01*
X147397380Y-90786190D01*
X147445000Y-90929047D01*
X147540238Y-91024285D01*
X147635476Y-91071904D01*
X147825952Y-91119523D01*
X147968809Y-91119523D01*
X148159285Y-91071904D01*
X148254523Y-91024285D01*
X148349761Y-90929047D01*
X148397380Y-90786190D01*
X148397380Y-90690952D01*
X148349761Y-90548095D01*
X148302142Y-90500476D01*
X147968809Y-90500476D01*
X147968809Y-90690952D01*
X148397380Y-90071904D02*
X147397380Y-90071904D01*
X148397380Y-89500476D01*
X147397380Y-89500476D01*
X148397380Y-89024285D02*
X147397380Y-89024285D01*
X147397380Y-88786190D01*
X147445000Y-88643333D01*
X147540238Y-88548095D01*
X147635476Y-88500476D01*
X147825952Y-88452857D01*
X147968809Y-88452857D01*
X148159285Y-88500476D01*
X148254523Y-88548095D01*
X148349761Y-88643333D01*
X148397380Y-88786190D01*
X148397380Y-89024285D01*
X146611666Y-91119523D02*
X146611666Y-90643333D01*
X146897380Y-91214761D02*
X145897380Y-90881428D01*
X146897380Y-90548095D01*
X145897380Y-90214761D02*
X146706904Y-90214761D01*
X146802142Y-90167142D01*
X146849761Y-90119523D01*
X146897380Y-90024285D01*
X146897380Y-89833809D01*
X146849761Y-89738571D01*
X146802142Y-89690952D01*
X146706904Y-89643333D01*
X145897380Y-89643333D01*
X146897380Y-89167142D02*
X145897380Y-89167142D01*
X145897380Y-88929047D01*
X145945000Y-88786190D01*
X146040238Y-88690952D01*
X146135476Y-88643333D01*
X146325952Y-88595714D01*
X146468809Y-88595714D01*
X146659285Y-88643333D01*
X146754523Y-88690952D01*
X146849761Y-88786190D01*
X146897380Y-88929047D01*
X146897380Y-89167142D01*
X145397380Y-90500476D02*
X144921190Y-90833809D01*
X145397380Y-91071904D02*
X144397380Y-91071904D01*
X144397380Y-90690952D01*
X144445000Y-90595714D01*
X144492619Y-90548095D01*
X144587857Y-90500476D01*
X144730714Y-90500476D01*
X144825952Y-90548095D01*
X144873571Y-90595714D01*
X144921190Y-90690952D01*
X144921190Y-91071904D01*
X145349761Y-90119523D02*
X145397380Y-89976666D01*
X145397380Y-89738571D01*
X145349761Y-89643333D01*
X145302142Y-89595714D01*
X145206904Y-89548095D01*
X145111666Y-89548095D01*
X145016428Y-89595714D01*
X144968809Y-89643333D01*
X144921190Y-89738571D01*
X144873571Y-89929047D01*
X144825952Y-90024285D01*
X144778333Y-90071904D01*
X144683095Y-90119523D01*
X144587857Y-90119523D01*
X144492619Y-90071904D01*
X144445000Y-90024285D01*
X144397380Y-89929047D01*
X144397380Y-89690952D01*
X144445000Y-89548095D01*
X144397380Y-89262380D02*
X144397380Y-88690952D01*
X145397380Y-88976666D02*
X144397380Y-88976666D01*
X143897380Y-91071904D02*
X142897380Y-91071904D01*
X142897380Y-90833809D01*
X142945000Y-90690952D01*
X143040238Y-90595714D01*
X143135476Y-90548095D01*
X143325952Y-90500476D01*
X143468809Y-90500476D01*
X143659285Y-90548095D01*
X143754523Y-90595714D01*
X143849761Y-90690952D01*
X143897380Y-90833809D01*
X143897380Y-91071904D01*
X142897380Y-90167142D02*
X142897380Y-89500476D01*
X143897380Y-89929047D01*
X142397380Y-91071904D02*
X141397380Y-91071904D01*
X141397380Y-90833809D01*
X141445000Y-90690952D01*
X141540238Y-90595714D01*
X141635476Y-90548095D01*
X141825952Y-90500476D01*
X141968809Y-90500476D01*
X142159285Y-90548095D01*
X142254523Y-90595714D01*
X142349761Y-90690952D01*
X142397380Y-90833809D01*
X142397380Y-91071904D01*
X141397380Y-89643333D02*
X141397380Y-89833809D01*
X141445000Y-89929047D01*
X141492619Y-89976666D01*
X141635476Y-90071904D01*
X141825952Y-90119523D01*
X142206904Y-90119523D01*
X142302142Y-90071904D01*
X142349761Y-90024285D01*
X142397380Y-89929047D01*
X142397380Y-89738571D01*
X142349761Y-89643333D01*
X142302142Y-89595714D01*
X142206904Y-89548095D01*
X141968809Y-89548095D01*
X141873571Y-89595714D01*
X141825952Y-89643333D01*
X141778333Y-89738571D01*
X141778333Y-89929047D01*
X141825952Y-90024285D01*
X141873571Y-90071904D01*
X141968809Y-90119523D01*
X140897380Y-91071904D02*
X139897380Y-91071904D01*
X139897380Y-90833809D01*
X139945000Y-90690952D01*
X140040238Y-90595714D01*
X140135476Y-90548095D01*
X140325952Y-90500476D01*
X140468809Y-90500476D01*
X140659285Y-90548095D01*
X140754523Y-90595714D01*
X140849761Y-90690952D01*
X140897380Y-90833809D01*
X140897380Y-91071904D01*
X139897380Y-89595714D02*
X139897380Y-90071904D01*
X140373571Y-90119523D01*
X140325952Y-90071904D01*
X140278333Y-89976666D01*
X140278333Y-89738571D01*
X140325952Y-89643333D01*
X140373571Y-89595714D01*
X140468809Y-89548095D01*
X140706904Y-89548095D01*
X140802142Y-89595714D01*
X140849761Y-89643333D01*
X140897380Y-89738571D01*
X140897380Y-89976666D01*
X140849761Y-90071904D01*
X140802142Y-90119523D01*
X139397380Y-91071904D02*
X138397380Y-91071904D01*
X138397380Y-90833809D01*
X138445000Y-90690952D01*
X138540238Y-90595714D01*
X138635476Y-90548095D01*
X138825952Y-90500476D01*
X138968809Y-90500476D01*
X139159285Y-90548095D01*
X139254523Y-90595714D01*
X139349761Y-90690952D01*
X139397380Y-90833809D01*
X139397380Y-91071904D01*
X138730714Y-89643333D02*
X139397380Y-89643333D01*
X138349761Y-89881428D02*
X139064047Y-90119523D01*
X139064047Y-89500476D01*
X137897380Y-91071904D02*
X136897380Y-91071904D01*
X136897380Y-90833809D01*
X136945000Y-90690952D01*
X137040238Y-90595714D01*
X137135476Y-90548095D01*
X137325952Y-90500476D01*
X137468809Y-90500476D01*
X137659285Y-90548095D01*
X137754523Y-90595714D01*
X137849761Y-90690952D01*
X137897380Y-90833809D01*
X137897380Y-91071904D01*
X136897380Y-90167142D02*
X136897380Y-89548095D01*
X137278333Y-89881428D01*
X137278333Y-89738571D01*
X137325952Y-89643333D01*
X137373571Y-89595714D01*
X137468809Y-89548095D01*
X137706904Y-89548095D01*
X137802142Y-89595714D01*
X137849761Y-89643333D01*
X137897380Y-89738571D01*
X137897380Y-90024285D01*
X137849761Y-90119523D01*
X137802142Y-90167142D01*
X136397380Y-91071904D02*
X135397380Y-91071904D01*
X135397380Y-90833809D01*
X135445000Y-90690952D01*
X135540238Y-90595714D01*
X135635476Y-90548095D01*
X135825952Y-90500476D01*
X135968809Y-90500476D01*
X136159285Y-90548095D01*
X136254523Y-90595714D01*
X136349761Y-90690952D01*
X136397380Y-90833809D01*
X136397380Y-91071904D01*
X135492619Y-90119523D02*
X135445000Y-90071904D01*
X135397380Y-89976666D01*
X135397380Y-89738571D01*
X135445000Y-89643333D01*
X135492619Y-89595714D01*
X135587857Y-89548095D01*
X135683095Y-89548095D01*
X135825952Y-89595714D01*
X136397380Y-90167142D01*
X136397380Y-89548095D01*
X134897380Y-91071904D02*
X133897380Y-91071904D01*
X133897380Y-90833809D01*
X133945000Y-90690952D01*
X134040238Y-90595714D01*
X134135476Y-90548095D01*
X134325952Y-90500476D01*
X134468809Y-90500476D01*
X134659285Y-90548095D01*
X134754523Y-90595714D01*
X134849761Y-90690952D01*
X134897380Y-90833809D01*
X134897380Y-91071904D01*
X134897380Y-89548095D02*
X134897380Y-90119523D01*
X134897380Y-89833809D02*
X133897380Y-89833809D01*
X134040238Y-89929047D01*
X134135476Y-90024285D01*
X134183095Y-90119523D01*
X133397380Y-91071904D02*
X132397380Y-91071904D01*
X132397380Y-90833809D01*
X132445000Y-90690952D01*
X132540238Y-90595714D01*
X132635476Y-90548095D01*
X132825952Y-90500476D01*
X132968809Y-90500476D01*
X133159285Y-90548095D01*
X133254523Y-90595714D01*
X133349761Y-90690952D01*
X133397380Y-90833809D01*
X133397380Y-91071904D01*
X132397380Y-89881428D02*
X132397380Y-89786190D01*
X132445000Y-89690952D01*
X132492619Y-89643333D01*
X132587857Y-89595714D01*
X132778333Y-89548095D01*
X133016428Y-89548095D01*
X133206904Y-89595714D01*
X133302142Y-89643333D01*
X133349761Y-89690952D01*
X133397380Y-89786190D01*
X133397380Y-89881428D01*
X133349761Y-89976666D01*
X133302142Y-90024285D01*
X133206904Y-90071904D01*
X133016428Y-90119523D01*
X132778333Y-90119523D01*
X132587857Y-90071904D01*
X132492619Y-90024285D01*
X132445000Y-89976666D01*
X132397380Y-89881428D01*
X131611666Y-91119523D02*
X131611666Y-90643333D01*
X131897380Y-91214761D02*
X130897380Y-90881428D01*
X131897380Y-90548095D01*
X131897380Y-89690952D02*
X131897380Y-90262380D01*
X131897380Y-89976666D02*
X130897380Y-89976666D01*
X131040238Y-90071904D01*
X131135476Y-90167142D01*
X131183095Y-90262380D01*
X130897380Y-88786190D02*
X130897380Y-89262380D01*
X131373571Y-89310000D01*
X131325952Y-89262380D01*
X131278333Y-89167142D01*
X131278333Y-88929047D01*
X131325952Y-88833809D01*
X131373571Y-88786190D01*
X131468809Y-88738571D01*
X131706904Y-88738571D01*
X131802142Y-88786190D01*
X131849761Y-88833809D01*
X131897380Y-88929047D01*
X131897380Y-89167142D01*
X131849761Y-89262380D01*
X131802142Y-89310000D01*
X130111666Y-91119523D02*
X130111666Y-90643333D01*
X130397380Y-91214761D02*
X129397380Y-90881428D01*
X130397380Y-90548095D01*
X130397380Y-89690952D02*
X130397380Y-90262380D01*
X130397380Y-89976666D02*
X129397380Y-89976666D01*
X129540238Y-90071904D01*
X129635476Y-90167142D01*
X129683095Y-90262380D01*
X129730714Y-88833809D02*
X130397380Y-88833809D01*
X129349761Y-89071904D02*
X130064047Y-89310000D01*
X130064047Y-88690952D01*
X128611666Y-91119523D02*
X128611666Y-90643333D01*
X128897380Y-91214761D02*
X127897380Y-90881428D01*
X128897380Y-90548095D01*
X128897380Y-89690952D02*
X128897380Y-90262380D01*
X128897380Y-89976666D02*
X127897380Y-89976666D01*
X128040238Y-90071904D01*
X128135476Y-90167142D01*
X128183095Y-90262380D01*
X127897380Y-89357619D02*
X127897380Y-88738571D01*
X128278333Y-89071904D01*
X128278333Y-88929047D01*
X128325952Y-88833809D01*
X128373571Y-88786190D01*
X128468809Y-88738571D01*
X128706904Y-88738571D01*
X128802142Y-88786190D01*
X128849761Y-88833809D01*
X128897380Y-88929047D01*
X128897380Y-89214761D01*
X128849761Y-89310000D01*
X128802142Y-89357619D01*
X127111666Y-91119523D02*
X127111666Y-90643333D01*
X127397380Y-91214761D02*
X126397380Y-90881428D01*
X127397380Y-90548095D01*
X127397380Y-89690952D02*
X127397380Y-90262380D01*
X127397380Y-89976666D02*
X126397380Y-89976666D01*
X126540238Y-90071904D01*
X126635476Y-90167142D01*
X126683095Y-90262380D01*
X126492619Y-89310000D02*
X126445000Y-89262380D01*
X126397380Y-89167142D01*
X126397380Y-88929047D01*
X126445000Y-88833809D01*
X126492619Y-88786190D01*
X126587857Y-88738571D01*
X126683095Y-88738571D01*
X126825952Y-88786190D01*
X127397380Y-89357619D01*
X127397380Y-88738571D01*
X125611666Y-91119523D02*
X125611666Y-90643333D01*
X125897380Y-91214761D02*
X124897380Y-90881428D01*
X125897380Y-90548095D01*
X125897380Y-89690952D02*
X125897380Y-90262380D01*
X125897380Y-89976666D02*
X124897380Y-89976666D01*
X125040238Y-90071904D01*
X125135476Y-90167142D01*
X125183095Y-90262380D01*
X125897380Y-88738571D02*
X125897380Y-89310000D01*
X125897380Y-89024285D02*
X124897380Y-89024285D01*
X125040238Y-89119523D01*
X125135476Y-89214761D01*
X125183095Y-89310000D01*
X124111666Y-91119523D02*
X124111666Y-90643333D01*
X124397380Y-91214761D02*
X123397380Y-90881428D01*
X124397380Y-90548095D01*
X124397380Y-89690952D02*
X124397380Y-90262380D01*
X124397380Y-89976666D02*
X123397380Y-89976666D01*
X123540238Y-90071904D01*
X123635476Y-90167142D01*
X123683095Y-90262380D01*
X123397380Y-89071904D02*
X123397380Y-88976666D01*
X123445000Y-88881428D01*
X123492619Y-88833809D01*
X123587857Y-88786190D01*
X123778333Y-88738571D01*
X124016428Y-88738571D01*
X124206904Y-88786190D01*
X124302142Y-88833809D01*
X124349761Y-88881428D01*
X124397380Y-88976666D01*
X124397380Y-89071904D01*
X124349761Y-89167142D01*
X124302142Y-89214761D01*
X124206904Y-89262380D01*
X124016428Y-89310000D01*
X123778333Y-89310000D01*
X123587857Y-89262380D01*
X123492619Y-89214761D01*
X123445000Y-89167142D01*
X123397380Y-89071904D01*
X122611666Y-91119523D02*
X122611666Y-90643333D01*
X122897380Y-91214761D02*
X121897380Y-90881428D01*
X122897380Y-90548095D01*
X122897380Y-90167142D02*
X122897380Y-89976666D01*
X122849761Y-89881428D01*
X122802142Y-89833809D01*
X122659285Y-89738571D01*
X122468809Y-89690952D01*
X122087857Y-89690952D01*
X121992619Y-89738571D01*
X121945000Y-89786190D01*
X121897380Y-89881428D01*
X121897380Y-90071904D01*
X121945000Y-90167142D01*
X121992619Y-90214761D01*
X122087857Y-90262380D01*
X122325952Y-90262380D01*
X122421190Y-90214761D01*
X122468809Y-90167142D01*
X122516428Y-90071904D01*
X122516428Y-89881428D01*
X122468809Y-89786190D01*
X122421190Y-89738571D01*
X122325952Y-89690952D01*
X121111666Y-91119523D02*
X121111666Y-90643333D01*
X121397380Y-91214761D02*
X120397380Y-90881428D01*
X121397380Y-90548095D01*
X120825952Y-90071904D02*
X120778333Y-90167142D01*
X120730714Y-90214761D01*
X120635476Y-90262380D01*
X120587857Y-90262380D01*
X120492619Y-90214761D01*
X120445000Y-90167142D01*
X120397380Y-90071904D01*
X120397380Y-89881428D01*
X120445000Y-89786190D01*
X120492619Y-89738571D01*
X120587857Y-89690952D01*
X120635476Y-89690952D01*
X120730714Y-89738571D01*
X120778333Y-89786190D01*
X120825952Y-89881428D01*
X120825952Y-90071904D01*
X120873571Y-90167142D01*
X120921190Y-90214761D01*
X121016428Y-90262380D01*
X121206904Y-90262380D01*
X121302142Y-90214761D01*
X121349761Y-90167142D01*
X121397380Y-90071904D01*
X121397380Y-89881428D01*
X121349761Y-89786190D01*
X121302142Y-89738571D01*
X121206904Y-89690952D01*
X121016428Y-89690952D01*
X120921190Y-89738571D01*
X120873571Y-89786190D01*
X120825952Y-89881428D01*
X119611666Y-91119523D02*
X119611666Y-90643333D01*
X119897380Y-91214761D02*
X118897380Y-90881428D01*
X119897380Y-90548095D01*
X118897380Y-90310000D02*
X118897380Y-89643333D01*
X119897380Y-90071904D01*
X118111666Y-91119523D02*
X118111666Y-90643333D01*
X118397380Y-91214761D02*
X117397380Y-90881428D01*
X118397380Y-90548095D01*
X117397380Y-89786190D02*
X117397380Y-89976666D01*
X117445000Y-90071904D01*
X117492619Y-90119523D01*
X117635476Y-90214761D01*
X117825952Y-90262380D01*
X118206904Y-90262380D01*
X118302142Y-90214761D01*
X118349761Y-90167142D01*
X118397380Y-90071904D01*
X118397380Y-89881428D01*
X118349761Y-89786190D01*
X118302142Y-89738571D01*
X118206904Y-89690952D01*
X117968809Y-89690952D01*
X117873571Y-89738571D01*
X117825952Y-89786190D01*
X117778333Y-89881428D01*
X117778333Y-90071904D01*
X117825952Y-90167142D01*
X117873571Y-90214761D01*
X117968809Y-90262380D01*
X116611666Y-91119523D02*
X116611666Y-90643333D01*
X116897380Y-91214761D02*
X115897380Y-90881428D01*
X116897380Y-90548095D01*
X115897380Y-89738571D02*
X115897380Y-90214761D01*
X116373571Y-90262380D01*
X116325952Y-90214761D01*
X116278333Y-90119523D01*
X116278333Y-89881428D01*
X116325952Y-89786190D01*
X116373571Y-89738571D01*
X116468809Y-89690952D01*
X116706904Y-89690952D01*
X116802142Y-89738571D01*
X116849761Y-89786190D01*
X116897380Y-89881428D01*
X116897380Y-90119523D01*
X116849761Y-90214761D01*
X116802142Y-90262380D01*
X115111666Y-91119523D02*
X115111666Y-90643333D01*
X115397380Y-91214761D02*
X114397380Y-90881428D01*
X115397380Y-90548095D01*
X114730714Y-89786190D02*
X115397380Y-89786190D01*
X114349761Y-90024285D02*
X115064047Y-90262380D01*
X115064047Y-89643333D01*
X113611666Y-91119523D02*
X113611666Y-90643333D01*
X113897380Y-91214761D02*
X112897380Y-90881428D01*
X113897380Y-90548095D01*
X112897380Y-90310000D02*
X112897380Y-89690952D01*
X113278333Y-90024285D01*
X113278333Y-89881428D01*
X113325952Y-89786190D01*
X113373571Y-89738571D01*
X113468809Y-89690952D01*
X113706904Y-89690952D01*
X113802142Y-89738571D01*
X113849761Y-89786190D01*
X113897380Y-89881428D01*
X113897380Y-90167142D01*
X113849761Y-90262380D01*
X113802142Y-90310000D01*
X112111666Y-91119523D02*
X112111666Y-90643333D01*
X112397380Y-91214761D02*
X111397380Y-90881428D01*
X112397380Y-90548095D01*
X111492619Y-90262380D02*
X111445000Y-90214761D01*
X111397380Y-90119523D01*
X111397380Y-89881428D01*
X111445000Y-89786190D01*
X111492619Y-89738571D01*
X111587857Y-89690952D01*
X111683095Y-89690952D01*
X111825952Y-89738571D01*
X112397380Y-90310000D01*
X112397380Y-89690952D01*
X110611666Y-91119523D02*
X110611666Y-90643333D01*
X110897380Y-91214761D02*
X109897380Y-90881428D01*
X110897380Y-90548095D01*
X110897380Y-89690952D02*
X110897380Y-90262380D01*
X110897380Y-89976666D02*
X109897380Y-89976666D01*
X110040238Y-90071904D01*
X110135476Y-90167142D01*
X110183095Y-90262380D01*
X109111666Y-91119523D02*
X109111666Y-90643333D01*
X109397380Y-91214761D02*
X108397380Y-90881428D01*
X109397380Y-90548095D01*
X108397380Y-90024285D02*
X108397380Y-89929047D01*
X108445000Y-89833809D01*
X108492619Y-89786190D01*
X108587857Y-89738571D01*
X108778333Y-89690952D01*
X109016428Y-89690952D01*
X109206904Y-89738571D01*
X109302142Y-89786190D01*
X109349761Y-89833809D01*
X109397380Y-89929047D01*
X109397380Y-90024285D01*
X109349761Y-90119523D01*
X109302142Y-90167142D01*
X109206904Y-90214761D01*
X109016428Y-90262380D01*
X108778333Y-90262380D01*
X108587857Y-90214761D01*
X108492619Y-90167142D01*
X108445000Y-90119523D01*
X108397380Y-90024285D01*
X107799142Y-90500476D02*
X107846761Y-90548095D01*
X107894380Y-90690952D01*
X107894380Y-90786190D01*
X107846761Y-90929047D01*
X107751523Y-91024285D01*
X107656285Y-91071904D01*
X107465809Y-91119523D01*
X107322952Y-91119523D01*
X107132476Y-91071904D01*
X107037238Y-91024285D01*
X106942000Y-90929047D01*
X106894380Y-90786190D01*
X106894380Y-90690952D01*
X106942000Y-90548095D01*
X106989619Y-90500476D01*
X107846761Y-90119523D02*
X107894380Y-89976666D01*
X107894380Y-89738571D01*
X107846761Y-89643333D01*
X107799142Y-89595714D01*
X107703904Y-89548095D01*
X107608666Y-89548095D01*
X107513428Y-89595714D01*
X107465809Y-89643333D01*
X107418190Y-89738571D01*
X107370571Y-89929047D01*
X107322952Y-90024285D01*
X107275333Y-90071904D01*
X107180095Y-90119523D01*
X107084857Y-90119523D01*
X106989619Y-90071904D01*
X106942000Y-90024285D01*
X106894380Y-89929047D01*
X106894380Y-89690952D01*
X106942000Y-89548095D01*
X106397380Y-90500476D02*
X105921190Y-90833809D01*
X106397380Y-91071904D02*
X105397380Y-91071904D01*
X105397380Y-90690952D01*
X105445000Y-90595714D01*
X105492619Y-90548095D01*
X105587857Y-90500476D01*
X105730714Y-90500476D01*
X105825952Y-90548095D01*
X105873571Y-90595714D01*
X105921190Y-90690952D01*
X105921190Y-91071904D01*
X106397380Y-90071904D02*
X105397380Y-90071904D01*
X105397380Y-89833809D01*
X105445000Y-89690952D01*
X105540238Y-89595714D01*
X105635476Y-89548095D01*
X105825952Y-89500476D01*
X105968809Y-89500476D01*
X106159285Y-89548095D01*
X106254523Y-89595714D01*
X106349761Y-89690952D01*
X106397380Y-89833809D01*
X106397380Y-90071904D01*
X103897380Y-91167142D02*
X104897380Y-90929047D01*
X104183095Y-90738571D01*
X104897380Y-90548095D01*
X103897380Y-90310000D01*
X104897380Y-89357619D02*
X104421190Y-89690952D01*
X104897380Y-89929047D02*
X103897380Y-89929047D01*
X103897380Y-89548095D01*
X103945000Y-89452857D01*
X103992619Y-89405238D01*
X104087857Y-89357619D01*
X104230714Y-89357619D01*
X104325952Y-89405238D01*
X104373571Y-89452857D01*
X104421190Y-89548095D01*
X104421190Y-89929047D01*
X103302142Y-90500476D02*
X103349761Y-90548095D01*
X103397380Y-90690952D01*
X103397380Y-90786190D01*
X103349761Y-90929047D01*
X103254523Y-91024285D01*
X103159285Y-91071904D01*
X102968809Y-91119523D01*
X102825952Y-91119523D01*
X102635476Y-91071904D01*
X102540238Y-91024285D01*
X102445000Y-90929047D01*
X102397380Y-90786190D01*
X102397380Y-90690952D01*
X102445000Y-90548095D01*
X102492619Y-90500476D01*
X103397380Y-89595714D02*
X103397380Y-90071904D01*
X102397380Y-90071904D01*
X103397380Y-89262380D02*
X102397380Y-89262380D01*
X103397380Y-88690952D02*
X102825952Y-89119523D01*
X102397380Y-88690952D02*
X102968809Y-89262380D01*
X101290428Y-91071904D02*
X101290428Y-90310000D01*
X101671380Y-90690952D02*
X100909476Y-90690952D01*
X100671380Y-89357619D02*
X100671380Y-89833809D01*
X101147571Y-89881428D01*
X101099952Y-89833809D01*
X101052333Y-89738571D01*
X101052333Y-89500476D01*
X101099952Y-89405238D01*
X101147571Y-89357619D01*
X101242809Y-89310000D01*
X101480904Y-89310000D01*
X101576142Y-89357619D01*
X101623761Y-89405238D01*
X101671380Y-89500476D01*
X101671380Y-89738571D01*
X101623761Y-89833809D01*
X101576142Y-89881428D01*
X100671380Y-89024285D02*
X101671380Y-88690952D01*
X100671380Y-88357619D01*
D13*
G04 #@! TO.C,J4*
X123170500Y-38308500D02*
X123170500Y-39208500D01*
X130770500Y-38308500D02*
X123170500Y-38308500D01*
X130770500Y-39208500D02*
X130770500Y-38308500D01*
X125270500Y-43708500D02*
X124470500Y-43708500D01*
X129470500Y-43708500D02*
X128670500Y-43708500D01*
D10*
G04 #@! TO.C,R8*
X112016000Y-65995733D02*
X112016000Y-66338267D01*
X110996000Y-65995733D02*
X110996000Y-66338267D01*
G04 #@! TO.C,D3*
X132678000Y-39640000D02*
X132678000Y-42500000D01*
X132678000Y-42500000D02*
X134598000Y-42500000D01*
X134598000Y-42500000D02*
X134598000Y-39640000D01*
G04 #@! TO.C,C14*
X119887813Y-58050721D02*
X120257279Y-58420187D01*
X118883721Y-59054813D02*
X119253187Y-59424279D01*
G04 #@! TO.C,U2*
X124296447Y-62096529D02*
X124650000Y-61742975D01*
X124650000Y-61742975D02*
X125003553Y-62096529D01*
X125003553Y-74428471D02*
X124650000Y-74782025D01*
X124650000Y-74782025D02*
X124296447Y-74428471D01*
X130815971Y-68616053D02*
X131169525Y-68262500D01*
X131169525Y-68262500D02*
X130815971Y-67908947D01*
X118484029Y-67908947D02*
X118130475Y-68262500D01*
G04 #@! TO.C,D1*
X124466500Y-45990000D02*
X128366500Y-45990000D01*
X124466500Y-47990000D02*
X128366500Y-47990000D01*
X124466500Y-45990000D02*
X124466500Y-47990000D01*
G04 #@! TO.C,D2*
X102473000Y-71791000D02*
X100473000Y-71791000D01*
X100473000Y-71791000D02*
X100473000Y-75691000D01*
X102473000Y-71791000D02*
X102473000Y-75691000D01*
D14*
G04 #@! TO.C,U3*
X137395000Y-82963000D02*
X137395000Y-78513000D01*
X130495000Y-84488000D02*
X130495000Y-78513000D01*
G04 #@! TO.C,U4*
X112074000Y-78846000D02*
X118049000Y-78846000D01*
X113599000Y-85746000D02*
X118049000Y-85746000D01*
G04 #@! TO.C,U6*
X103439000Y-85746000D02*
X107889000Y-85746000D01*
X101914000Y-78846000D02*
X107889000Y-78846000D01*
G04 #@! TO.C,U5*
X137121000Y-58254000D02*
X137121000Y-58229000D01*
X137121000Y-50204000D02*
X137121000Y-50229000D01*
X141771000Y-50204000D02*
X141771000Y-50229000D01*
X142846000Y-58304000D02*
X137121000Y-58304000D01*
X141771000Y-50204000D02*
X137121000Y-50204000D01*
D10*
G04 #@! TO.C,U7*
X103782000Y-72730000D02*
X105582000Y-72730000D01*
X105582000Y-69510000D02*
X103132000Y-69510000D01*
G04 #@! TO.C,R1*
X120140000Y-50374733D02*
X120140000Y-50717267D01*
X121160000Y-50374733D02*
X121160000Y-50717267D01*
G04 #@! TO.C,R2*
X137797000Y-65360733D02*
X137797000Y-65703267D01*
X136777000Y-65360733D02*
X136777000Y-65703267D01*
G04 #@! TO.C,R3*
X137496733Y-61724000D02*
X137839267Y-61724000D01*
X137496733Y-60704000D02*
X137839267Y-60704000D01*
G04 #@! TO.C,R4*
X134148000Y-44659733D02*
X134148000Y-45002267D01*
X133128000Y-44659733D02*
X133128000Y-45002267D01*
G04 #@! TO.C,C1*
X117333520Y-60922771D02*
X117575729Y-61164980D01*
X116612271Y-61644020D02*
X116854480Y-61886229D01*
G04 #@! TO.C,C2*
X118909229Y-59831480D02*
X118667020Y-59589271D01*
X118187980Y-60552729D02*
X117945771Y-60310520D01*
G04 #@! TO.C,C3*
X117755271Y-73801480D02*
X117997480Y-73559271D01*
X118476520Y-74522729D02*
X118718729Y-74280520D01*
G04 #@! TO.C,C4*
X128128520Y-76046729D02*
X128370729Y-75804520D01*
X127407271Y-75325480D02*
X127649480Y-75083271D01*
G04 #@! TO.C,C5*
X132810500Y-67481267D02*
X132810500Y-67138733D01*
X133830500Y-67481267D02*
X133830500Y-67138733D01*
G04 #@! TO.C,C6*
X127683480Y-58509771D02*
X127441271Y-58751980D01*
X128404729Y-59231020D02*
X128162520Y-59473229D01*
G04 #@! TO.C,C7*
X141776267Y-60073000D02*
X141433733Y-60073000D01*
X141776267Y-59053000D02*
X141433733Y-59053000D01*
G04 #@! TO.C,C8*
X137369733Y-60073000D02*
X137712267Y-60073000D01*
X137369733Y-59053000D02*
X137712267Y-59053000D01*
G04 #@! TO.C,C9*
X129955000Y-79965733D02*
X129955000Y-80308267D01*
X128935000Y-79965733D02*
X128935000Y-80308267D01*
G04 #@! TO.C,C10*
X104853267Y-73404000D02*
X104510733Y-73404000D01*
X104853267Y-74424000D02*
X104510733Y-74424000D01*
G04 #@! TO.C,C11*
X111715733Y-77214000D02*
X112058267Y-77214000D01*
X111715733Y-78234000D02*
X112058267Y-78234000D01*
G04 #@! TO.C,C12*
X121651520Y-79602729D02*
X121893729Y-79360520D01*
X120930271Y-78881480D02*
X121172480Y-78639271D01*
G04 #@! TO.C,C13*
X106966000Y-71227767D02*
X106966000Y-70885233D01*
X107986000Y-71227767D02*
X107986000Y-70885233D01*
G04 #@! TO.C,C15*
X121084520Y-57156271D02*
X121326729Y-57398480D01*
X120363271Y-57877520D02*
X120605480Y-58119729D01*
D15*
G04 #@! TO.C,J6*
X113366000Y-52346000D02*
X115766000Y-52346000D01*
X119366000Y-52346000D02*
X118466000Y-52346000D01*
X113366000Y-52346000D02*
X113366000Y-50846000D01*
X113366000Y-41696000D02*
X113366000Y-48196000D01*
X113366000Y-37896000D02*
X113366000Y-38996000D01*
X119366000Y-52346000D02*
X119366000Y-43496000D01*
X119366000Y-40246000D02*
X119366000Y-40846000D01*
X119366000Y-37846000D02*
X119366000Y-38446000D01*
X119366000Y-37846000D02*
X113366000Y-37846000D01*
D10*
G04 #@! TO.C,D4*
X110234000Y-57324500D02*
X110234000Y-55324500D01*
X110234000Y-55324500D02*
X106334000Y-55324500D01*
X110234000Y-57324500D02*
X106334000Y-57324500D01*
D15*
G04 #@! TO.C,J5*
X108698000Y-37846000D02*
X102698000Y-37846000D01*
X108698000Y-37846000D02*
X108698000Y-38446000D01*
X108698000Y-40246000D02*
X108698000Y-40846000D01*
X108698000Y-52346000D02*
X108698000Y-43496000D01*
X102698000Y-37896000D02*
X102698000Y-38996000D01*
X102698000Y-41696000D02*
X102698000Y-48196000D01*
X102698000Y-52346000D02*
X102698000Y-50846000D01*
X108698000Y-52346000D02*
X107798000Y-52346000D01*
X102698000Y-52346000D02*
X105098000Y-52346000D01*
D10*
G04 #@! TO.C,U8*
X110457000Y-63801500D02*
G75*
G02X110457000Y-61801500I0J1000000D01*
G01*
X110457000Y-61801500D02*
X110457000Y-60351500D01*
X110457000Y-60351500D02*
X102717000Y-60351500D01*
X102717000Y-60351500D02*
X102717000Y-65251500D01*
X102717000Y-65251500D02*
X110457000Y-65251500D01*
X110457000Y-65251500D02*
X110457000Y-63801500D01*
G04 #@! TO.C,SW1*
X146959500Y-43456500D02*
X146859500Y-43456500D01*
X148459500Y-47856500D02*
X148459500Y-43456500D01*
X145359500Y-43456500D02*
X145359500Y-47856500D01*
X146959500Y-47856500D02*
X146859500Y-47856500D01*
G04 #@! TO.C,C17*
X112554000Y-65957267D02*
X112554000Y-65614733D01*
X113574000Y-65957267D02*
X113574000Y-65614733D01*
G04 #@! TO.C,C16*
X121206480Y-56552229D02*
X120964271Y-56310020D01*
X121927729Y-55830980D02*
X121685520Y-55588771D01*
G04 #@! TO.C,R5*
X110589500Y-53511267D02*
X110589500Y-53168733D01*
X109569500Y-53511267D02*
X109569500Y-53168733D01*
G04 #@! TO.C,R6*
X111665000Y-53638267D02*
X111665000Y-53295733D01*
X112685000Y-53638267D02*
X112685000Y-53295733D01*
G04 #@! TO.C,R7*
X121194000Y-46970767D02*
X121194000Y-46628233D01*
X120174000Y-46970767D02*
X120174000Y-46628233D01*
G04 #@! TO.C,J3*
X135992500Y-45262500D02*
X135927500Y-45262500D01*
X135992500Y-41732500D02*
X135927500Y-41732500D01*
X142397500Y-45262500D02*
X142332500Y-45262500D01*
X142397500Y-41732500D02*
X142332500Y-41732500D01*
X142332500Y-40407500D02*
X142332500Y-41732500D01*
X135927500Y-41732500D02*
X135927500Y-45262500D01*
X142397500Y-41732500D02*
X142397500Y-45262500D01*
G04 #@! TO.C,Q1*
X134691000Y-70483000D02*
X134691000Y-69023000D01*
X137851000Y-70483000D02*
X137851000Y-68323000D01*
X137851000Y-70483000D02*
X136921000Y-70483000D01*
X134691000Y-70483000D02*
X135621000Y-70483000D01*
D16*
G04 #@! TO.C,G\002A\002A\002A*
G36*
X120593945Y-44409738D02*
X120604803Y-44409910D01*
X120614277Y-44410270D01*
X120622882Y-44410859D01*
X120631135Y-44411720D01*
X120639550Y-44412895D01*
X120648646Y-44414425D01*
X120656176Y-44415822D01*
X120676355Y-44420198D01*
X120697303Y-44425707D01*
X120718029Y-44432062D01*
X120737546Y-44438978D01*
X120741447Y-44440495D01*
X120756251Y-44446390D01*
X120770780Y-44452265D01*
X120785166Y-44458184D01*
X120799541Y-44464207D01*
X120814040Y-44470396D01*
X120828795Y-44476814D01*
X120843939Y-44483521D01*
X120859605Y-44490581D01*
X120875925Y-44498054D01*
X120893033Y-44506004D01*
X120911062Y-44514490D01*
X120930144Y-44523576D01*
X120950412Y-44533324D01*
X120971999Y-44543794D01*
X120995039Y-44555050D01*
X121019663Y-44567152D01*
X121046006Y-44580163D01*
X121074199Y-44594145D01*
X121104377Y-44609159D01*
X121112166Y-44613041D01*
X121138170Y-44625981D01*
X121162200Y-44637887D01*
X121184427Y-44648837D01*
X121205025Y-44658912D01*
X121224165Y-44668191D01*
X121242021Y-44676754D01*
X121258765Y-44684680D01*
X121274570Y-44692049D01*
X121289607Y-44698941D01*
X121304049Y-44705434D01*
X121318070Y-44711610D01*
X121331841Y-44717547D01*
X121345534Y-44723325D01*
X121359324Y-44729024D01*
X121373380Y-44734723D01*
X121387878Y-44740502D01*
X121390892Y-44741693D01*
X121399620Y-44745170D01*
X121407601Y-44748416D01*
X121414560Y-44751313D01*
X121420225Y-44753746D01*
X121424322Y-44755597D01*
X121426579Y-44756751D01*
X121426934Y-44757037D01*
X121426281Y-44758416D01*
X121424090Y-44761125D01*
X121420635Y-44764897D01*
X121416192Y-44769462D01*
X121411037Y-44774549D01*
X121405445Y-44779891D01*
X121399690Y-44785216D01*
X121394048Y-44790257D01*
X121388794Y-44794743D01*
X121386602Y-44796531D01*
X121361105Y-44815594D01*
X121333427Y-44833689D01*
X121303612Y-44850799D01*
X121271703Y-44866905D01*
X121237743Y-44881989D01*
X121201777Y-44896033D01*
X121163848Y-44909020D01*
X121123999Y-44920931D01*
X121082274Y-44931748D01*
X121038717Y-44941453D01*
X121031733Y-44942872D01*
X121001834Y-44948463D01*
X120973844Y-44952855D01*
X120947577Y-44956061D01*
X120922849Y-44958093D01*
X120899475Y-44958965D01*
X120877271Y-44958691D01*
X120856051Y-44957283D01*
X120846187Y-44956212D01*
X120823739Y-44952581D01*
X120803046Y-44947417D01*
X120784137Y-44940737D01*
X120767039Y-44932558D01*
X120751782Y-44922896D01*
X120738394Y-44911767D01*
X120726902Y-44899189D01*
X120717336Y-44885178D01*
X120713760Y-44878593D01*
X120709434Y-44869035D01*
X120705935Y-44858996D01*
X120703129Y-44847973D01*
X120700885Y-44835464D01*
X120699389Y-44823905D01*
X120698508Y-44816052D01*
X120674923Y-44813996D01*
X120667552Y-44813357D01*
X120660958Y-44812791D01*
X120655539Y-44812333D01*
X120651694Y-44812016D01*
X120649819Y-44811873D01*
X120649755Y-44811870D01*
X120648734Y-44811156D01*
X120648886Y-44810643D01*
X120648264Y-44810125D01*
X120645957Y-44809993D01*
X120642660Y-44810189D01*
X120639068Y-44810656D01*
X120635875Y-44811336D01*
X120634405Y-44811837D01*
X120632516Y-44812357D01*
X120628640Y-44813201D01*
X120623172Y-44814288D01*
X120616511Y-44815542D01*
X120609053Y-44816884D01*
X120607190Y-44817210D01*
X120579252Y-44821841D01*
X120552710Y-44825740D01*
X120526691Y-44829024D01*
X120500326Y-44831809D01*
X120492285Y-44832558D01*
X120484595Y-44833104D01*
X120475268Y-44833527D01*
X120464766Y-44833826D01*
X120453554Y-44834001D01*
X120442096Y-44834052D01*
X120430853Y-44833979D01*
X120420290Y-44833781D01*
X120410870Y-44833458D01*
X120403057Y-44833011D01*
X120398547Y-44832595D01*
X120373578Y-44829285D01*
X120349284Y-44825209D01*
X120325023Y-44820234D01*
X120300152Y-44814225D01*
X120274027Y-44807048D01*
X120268722Y-44805498D01*
X120260974Y-44803170D01*
X120255264Y-44801337D01*
X120251293Y-44799878D01*
X120248757Y-44798673D01*
X120247357Y-44797602D01*
X120246861Y-44796789D01*
X120246533Y-44795036D01*
X120245994Y-44791164D01*
X120245278Y-44785460D01*
X120244420Y-44778211D01*
X120243453Y-44769704D01*
X120242411Y-44760228D01*
X120241352Y-44750291D01*
X120240120Y-44738403D01*
X120239158Y-44728714D01*
X120238450Y-44721021D01*
X120237984Y-44715122D01*
X120237744Y-44710811D01*
X120237718Y-44707888D01*
X120237891Y-44706147D01*
X120238250Y-44705386D01*
X120238282Y-44705364D01*
X120240409Y-44704579D01*
X120243785Y-44703811D01*
X120244802Y-44703640D01*
X120248658Y-44702944D01*
X120254504Y-44701759D01*
X120261980Y-44700166D01*
X120270725Y-44698247D01*
X120280380Y-44696085D01*
X120290582Y-44693761D01*
X120300973Y-44691358D01*
X120311191Y-44688957D01*
X120320877Y-44686640D01*
X120329669Y-44684489D01*
X120336257Y-44682832D01*
X120371444Y-44673451D01*
X120404355Y-44663907D01*
X120435130Y-44654152D01*
X120463909Y-44644140D01*
X120490833Y-44633823D01*
X120516041Y-44623154D01*
X120520105Y-44621330D01*
X120544336Y-44609518D01*
X120569011Y-44595893D01*
X120593541Y-44580831D01*
X120617336Y-44564708D01*
X120639808Y-44547898D01*
X120654966Y-44535469D01*
X120661022Y-44530202D01*
X120667308Y-44524575D01*
X120673577Y-44518826D01*
X120679585Y-44513192D01*
X120685085Y-44507909D01*
X120689832Y-44503214D01*
X120693580Y-44499345D01*
X120696084Y-44496538D01*
X120697097Y-44495031D01*
X120697075Y-44494869D01*
X120695305Y-44493995D01*
X120691545Y-44492666D01*
X120686160Y-44490986D01*
X120679512Y-44489064D01*
X120671965Y-44487007D01*
X120663882Y-44484922D01*
X120660409Y-44484062D01*
X120636442Y-44479122D01*
X120612373Y-44476033D01*
X120587968Y-44474800D01*
X120562993Y-44475430D01*
X120537213Y-44477928D01*
X120510395Y-44482302D01*
X120482302Y-44488557D01*
X120481634Y-44488724D01*
X120453075Y-44496864D01*
X120425692Y-44506610D01*
X120399586Y-44517885D01*
X120374861Y-44530610D01*
X120351616Y-44544705D01*
X120329953Y-44560093D01*
X120309975Y-44576694D01*
X120291781Y-44594429D01*
X120275474Y-44613220D01*
X120261155Y-44632988D01*
X120248926Y-44653654D01*
X120238887Y-44675140D01*
X120237686Y-44678148D01*
X120233902Y-44687824D01*
X120183177Y-44736101D01*
X120173915Y-44744923D01*
X120165190Y-44753248D01*
X120157155Y-44760928D01*
X120149968Y-44767813D01*
X120143783Y-44773754D01*
X120138756Y-44778601D01*
X120135042Y-44782204D01*
X120132798Y-44784416D01*
X120132162Y-44785087D01*
X120133175Y-44785702D01*
X120136193Y-44787200D01*
X120141008Y-44789485D01*
X120147412Y-44792462D01*
X120155197Y-44796034D01*
X120164157Y-44800106D01*
X120174082Y-44804582D01*
X120184765Y-44809367D01*
X120187320Y-44810506D01*
X120242768Y-44835218D01*
X120248541Y-44855864D01*
X120251320Y-44865450D01*
X120254695Y-44876529D01*
X120258456Y-44888459D01*
X120262395Y-44900597D01*
X120266305Y-44912301D01*
X120269976Y-44922927D01*
X120273061Y-44931459D01*
X120274929Y-44936152D01*
X120276478Y-44939057D01*
X120278075Y-44940708D01*
X120280027Y-44941620D01*
X120282531Y-44942020D01*
X120287098Y-44942341D01*
X120293375Y-44942586D01*
X120301007Y-44942753D01*
X120309640Y-44942845D01*
X120318921Y-44942862D01*
X120328494Y-44942804D01*
X120338007Y-44942672D01*
X120347104Y-44942468D01*
X120355433Y-44942192D01*
X120362638Y-44941844D01*
X120368309Y-44941431D01*
X120424175Y-44935387D01*
X120458419Y-44930801D01*
X120473066Y-44928594D01*
X120485689Y-44926434D01*
X120496680Y-44924214D01*
X120506428Y-44921826D01*
X120515325Y-44919165D01*
X120523761Y-44916123D01*
X120532127Y-44912592D01*
X120540814Y-44908466D01*
X120541876Y-44907936D01*
X120561038Y-44897126D01*
X120579829Y-44884153D01*
X120597934Y-44869276D01*
X120615036Y-44852751D01*
X120628681Y-44837440D01*
X120635009Y-44829817D01*
X120635009Y-44833993D01*
X120635356Y-44839094D01*
X120636312Y-44845900D01*
X120637756Y-44853812D01*
X120639563Y-44862231D01*
X120641611Y-44870557D01*
X120643775Y-44878190D01*
X120644702Y-44881086D01*
X120652722Y-44901452D01*
X120662661Y-44920358D01*
X120674489Y-44937779D01*
X120688175Y-44953687D01*
X120703690Y-44968055D01*
X120721003Y-44980858D01*
X120740084Y-44992068D01*
X120760902Y-45001659D01*
X120783428Y-45009604D01*
X120793457Y-45012461D01*
X120811370Y-45016669D01*
X120829807Y-45019860D01*
X120849203Y-45022083D01*
X120869994Y-45023387D01*
X120892614Y-45023823D01*
X120893243Y-45023823D01*
X120910789Y-45023614D01*
X120927831Y-45022964D01*
X120944766Y-45021829D01*
X120961991Y-45020163D01*
X120979901Y-45017922D01*
X120998895Y-45015063D01*
X121019367Y-45011540D01*
X121041716Y-45007309D01*
X121043224Y-45007012D01*
X121085547Y-44997967D01*
X121126518Y-44987807D01*
X121166056Y-44976571D01*
X121204076Y-44964295D01*
X121240497Y-44951018D01*
X121275237Y-44936776D01*
X121308212Y-44921608D01*
X121339340Y-44905550D01*
X121368538Y-44888641D01*
X121395725Y-44870917D01*
X121420816Y-44852416D01*
X121443731Y-44833176D01*
X121459905Y-44817816D01*
X121465437Y-44812107D01*
X121471094Y-44806014D01*
X121476319Y-44800155D01*
X121480552Y-44795147D01*
X121481676Y-44793734D01*
X121485136Y-44789297D01*
X121488204Y-44785377D01*
X121490471Y-44782494D01*
X121491352Y-44781387D01*
X121492293Y-44780374D01*
X121493435Y-44779843D01*
X121495288Y-44779795D01*
X121498363Y-44780235D01*
X121503172Y-44781164D01*
X121504657Y-44781464D01*
X121540236Y-44787443D01*
X121576034Y-44791025D01*
X121612112Y-44792216D01*
X121648528Y-44791017D01*
X121654033Y-44790631D01*
X121682940Y-44788207D01*
X121714079Y-44785110D01*
X121747365Y-44781355D01*
X121782710Y-44776956D01*
X121820028Y-44771929D01*
X121859232Y-44766288D01*
X121900236Y-44760048D01*
X121942954Y-44753225D01*
X121987299Y-44745833D01*
X122033184Y-44737888D01*
X122080522Y-44729404D01*
X122129229Y-44720396D01*
X122179216Y-44710879D01*
X122230397Y-44700868D01*
X122282686Y-44690379D01*
X122335997Y-44679426D01*
X122390242Y-44668024D01*
X122445336Y-44656188D01*
X122497676Y-44644711D01*
X122512931Y-44641333D01*
X122526034Y-44638491D01*
X122537203Y-44636233D01*
X122546653Y-44634604D01*
X122554604Y-44633650D01*
X122561270Y-44633417D01*
X122566870Y-44633952D01*
X122571620Y-44635301D01*
X122575737Y-44637510D01*
X122579439Y-44640624D01*
X122582943Y-44644691D01*
X122586464Y-44649755D01*
X122590221Y-44655864D01*
X122594431Y-44663064D01*
X122595898Y-44665587D01*
X122608676Y-44688139D01*
X122620653Y-44710510D01*
X122631693Y-44732416D01*
X122641661Y-44753571D01*
X122650422Y-44773689D01*
X122657840Y-44792486D01*
X122662593Y-44806009D01*
X122667894Y-44823979D01*
X122671568Y-44840749D01*
X122673625Y-44856240D01*
X122674075Y-44870375D01*
X122672926Y-44883075D01*
X122670189Y-44894261D01*
X122665872Y-44903856D01*
X122659984Y-44911781D01*
X122652537Y-44917958D01*
X122648928Y-44920021D01*
X122645454Y-44921653D01*
X122641665Y-44923151D01*
X122637439Y-44924525D01*
X122632653Y-44925786D01*
X122627186Y-44926942D01*
X122620913Y-44928003D01*
X122613713Y-44928980D01*
X122605463Y-44929880D01*
X122596042Y-44930715D01*
X122585325Y-44931494D01*
X122573191Y-44932227D01*
X122559517Y-44932922D01*
X122544181Y-44933590D01*
X122527060Y-44934241D01*
X122508032Y-44934884D01*
X122486974Y-44935529D01*
X122463764Y-44936185D01*
X122438279Y-44936862D01*
X122433571Y-44936983D01*
X122391716Y-44938128D01*
X122352089Y-44939355D01*
X122314499Y-44940676D01*
X122278756Y-44942101D01*
X122244670Y-44943640D01*
X122212049Y-44945304D01*
X122180705Y-44947104D01*
X122150446Y-44949050D01*
X122121082Y-44951153D01*
X122092423Y-44953423D01*
X122064279Y-44955870D01*
X122036458Y-44958505D01*
X122027171Y-44959433D01*
X121983046Y-44964175D01*
X121940372Y-44969351D01*
X121898893Y-44975019D01*
X121858353Y-44981237D01*
X121818495Y-44988063D01*
X121779062Y-44995556D01*
X121739799Y-45003773D01*
X121700447Y-45012772D01*
X121660751Y-45022612D01*
X121620454Y-45033351D01*
X121579299Y-45045047D01*
X121537031Y-45057758D01*
X121493391Y-45071541D01*
X121448124Y-45086456D01*
X121412128Y-45098703D01*
X121395033Y-45104706D01*
X121378737Y-45110680D01*
X121363009Y-45116737D01*
X121347620Y-45122985D01*
X121332341Y-45129535D01*
X121316943Y-45136495D01*
X121301195Y-45143977D01*
X121284868Y-45152090D01*
X121267733Y-45160943D01*
X121249560Y-45170647D01*
X121230119Y-45181311D01*
X121209182Y-45193046D01*
X121186519Y-45205960D01*
X121179295Y-45210112D01*
X121159196Y-45221676D01*
X121141035Y-45232109D01*
X121124657Y-45241494D01*
X121109910Y-45249917D01*
X121096639Y-45257461D01*
X121084693Y-45264212D01*
X121073916Y-45270255D01*
X121064155Y-45275673D01*
X121055258Y-45280552D01*
X121047070Y-45284976D01*
X121039438Y-45289030D01*
X121032208Y-45292799D01*
X121025228Y-45296367D01*
X121018343Y-45299818D01*
X121011401Y-45303239D01*
X121004247Y-45306712D01*
X121003619Y-45307015D01*
X120980497Y-45317794D01*
X120958685Y-45327138D01*
X120937714Y-45335182D01*
X120917111Y-45342061D01*
X120896409Y-45347909D01*
X120875135Y-45352861D01*
X120852819Y-45357050D01*
X120828992Y-45360613D01*
X120806762Y-45363296D01*
X120792709Y-45364585D01*
X120776956Y-45365600D01*
X120760208Y-45366321D01*
X120743170Y-45366731D01*
X120726547Y-45366811D01*
X120711044Y-45366541D01*
X120700928Y-45366117D01*
X120673655Y-45363839D01*
X120646070Y-45360026D01*
X120618581Y-45354780D01*
X120591594Y-45348204D01*
X120565518Y-45340400D01*
X120540759Y-45331470D01*
X120517725Y-45321518D01*
X120511517Y-45318500D01*
X120483752Y-45303327D01*
X120456590Y-45285854D01*
X120430079Y-45266135D01*
X120404267Y-45244223D01*
X120379201Y-45220172D01*
X120354929Y-45194038D01*
X120331500Y-45165873D01*
X120308962Y-45135732D01*
X120287361Y-45103669D01*
X120266747Y-45069738D01*
X120247167Y-45033993D01*
X120231707Y-45002926D01*
X120225420Y-44989241D01*
X120219378Y-44975059D01*
X120213409Y-44959936D01*
X120207338Y-44943430D01*
X120200992Y-44925098D01*
X120199502Y-44920657D01*
X120196873Y-44912618D01*
X120194094Y-44903845D01*
X120191288Y-44894745D01*
X120188574Y-44885728D01*
X120186074Y-44877202D01*
X120183909Y-44869578D01*
X120182198Y-44863262D01*
X120181064Y-44858665D01*
X120180786Y-44857334D01*
X120180043Y-44853370D01*
X120109889Y-44825061D01*
X120097553Y-44820074D01*
X120085894Y-44815343D01*
X120075102Y-44810948D01*
X120065370Y-44806967D01*
X120056890Y-44803479D01*
X120049853Y-44800562D01*
X120044452Y-44798297D01*
X120040877Y-44796762D01*
X120039320Y-44796035D01*
X120039269Y-44795996D01*
X120040072Y-44795088D01*
X120042541Y-44792703D01*
X120046535Y-44788970D01*
X120051912Y-44784019D01*
X120058530Y-44777980D01*
X120066247Y-44770981D01*
X120074920Y-44763151D01*
X120084408Y-44754621D01*
X120094568Y-44745519D01*
X120103269Y-44737749D01*
X120115618Y-44726733D01*
X120126285Y-44717204D01*
X120135399Y-44709040D01*
X120143085Y-44702119D01*
X120149470Y-44696321D01*
X120154680Y-44691523D01*
X120158843Y-44687604D01*
X120162084Y-44684443D01*
X120164531Y-44681919D01*
X120166309Y-44679910D01*
X120167546Y-44678294D01*
X120168368Y-44676950D01*
X120168901Y-44675757D01*
X120169272Y-44674593D01*
X120169335Y-44674365D01*
X120171533Y-44667319D01*
X120174653Y-44658765D01*
X120178449Y-44649308D01*
X120182671Y-44639557D01*
X120187070Y-44630117D01*
X120189331Y-44625561D01*
X120200456Y-44605604D01*
X120213220Y-44586361D01*
X120227857Y-44567514D01*
X120244599Y-44548744D01*
X120249106Y-44544062D01*
X120268137Y-44525706D01*
X120287776Y-44509083D01*
X120308435Y-44493896D01*
X120330526Y-44479848D01*
X120354462Y-44466641D01*
X120361657Y-44463001D01*
X120384990Y-44452073D01*
X120408309Y-44442530D01*
X120432035Y-44434242D01*
X120456591Y-44427083D01*
X120482396Y-44420923D01*
X120509872Y-44415634D01*
X120525804Y-44413058D01*
X120532605Y-44412057D01*
X120538546Y-44411280D01*
X120544106Y-44410698D01*
X120549764Y-44410283D01*
X120555997Y-44410005D01*
X120563285Y-44409836D01*
X120572105Y-44409746D01*
X120581185Y-44409711D01*
X120593945Y-44409738D01*
X120593945Y-44409738D01*
G37*
X120593945Y-44409738D02*
X120604803Y-44409910D01*
X120614277Y-44410270D01*
X120622882Y-44410859D01*
X120631135Y-44411720D01*
X120639550Y-44412895D01*
X120648646Y-44414425D01*
X120656176Y-44415822D01*
X120676355Y-44420198D01*
X120697303Y-44425707D01*
X120718029Y-44432062D01*
X120737546Y-44438978D01*
X120741447Y-44440495D01*
X120756251Y-44446390D01*
X120770780Y-44452265D01*
X120785166Y-44458184D01*
X120799541Y-44464207D01*
X120814040Y-44470396D01*
X120828795Y-44476814D01*
X120843939Y-44483521D01*
X120859605Y-44490581D01*
X120875925Y-44498054D01*
X120893033Y-44506004D01*
X120911062Y-44514490D01*
X120930144Y-44523576D01*
X120950412Y-44533324D01*
X120971999Y-44543794D01*
X120995039Y-44555050D01*
X121019663Y-44567152D01*
X121046006Y-44580163D01*
X121074199Y-44594145D01*
X121104377Y-44609159D01*
X121112166Y-44613041D01*
X121138170Y-44625981D01*
X121162200Y-44637887D01*
X121184427Y-44648837D01*
X121205025Y-44658912D01*
X121224165Y-44668191D01*
X121242021Y-44676754D01*
X121258765Y-44684680D01*
X121274570Y-44692049D01*
X121289607Y-44698941D01*
X121304049Y-44705434D01*
X121318070Y-44711610D01*
X121331841Y-44717547D01*
X121345534Y-44723325D01*
X121359324Y-44729024D01*
X121373380Y-44734723D01*
X121387878Y-44740502D01*
X121390892Y-44741693D01*
X121399620Y-44745170D01*
X121407601Y-44748416D01*
X121414560Y-44751313D01*
X121420225Y-44753746D01*
X121424322Y-44755597D01*
X121426579Y-44756751D01*
X121426934Y-44757037D01*
X121426281Y-44758416D01*
X121424090Y-44761125D01*
X121420635Y-44764897D01*
X121416192Y-44769462D01*
X121411037Y-44774549D01*
X121405445Y-44779891D01*
X121399690Y-44785216D01*
X121394048Y-44790257D01*
X121388794Y-44794743D01*
X121386602Y-44796531D01*
X121361105Y-44815594D01*
X121333427Y-44833689D01*
X121303612Y-44850799D01*
X121271703Y-44866905D01*
X121237743Y-44881989D01*
X121201777Y-44896033D01*
X121163848Y-44909020D01*
X121123999Y-44920931D01*
X121082274Y-44931748D01*
X121038717Y-44941453D01*
X121031733Y-44942872D01*
X121001834Y-44948463D01*
X120973844Y-44952855D01*
X120947577Y-44956061D01*
X120922849Y-44958093D01*
X120899475Y-44958965D01*
X120877271Y-44958691D01*
X120856051Y-44957283D01*
X120846187Y-44956212D01*
X120823739Y-44952581D01*
X120803046Y-44947417D01*
X120784137Y-44940737D01*
X120767039Y-44932558D01*
X120751782Y-44922896D01*
X120738394Y-44911767D01*
X120726902Y-44899189D01*
X120717336Y-44885178D01*
X120713760Y-44878593D01*
X120709434Y-44869035D01*
X120705935Y-44858996D01*
X120703129Y-44847973D01*
X120700885Y-44835464D01*
X120699389Y-44823905D01*
X120698508Y-44816052D01*
X120674923Y-44813996D01*
X120667552Y-44813357D01*
X120660958Y-44812791D01*
X120655539Y-44812333D01*
X120651694Y-44812016D01*
X120649819Y-44811873D01*
X120649755Y-44811870D01*
X120648734Y-44811156D01*
X120648886Y-44810643D01*
X120648264Y-44810125D01*
X120645957Y-44809993D01*
X120642660Y-44810189D01*
X120639068Y-44810656D01*
X120635875Y-44811336D01*
X120634405Y-44811837D01*
X120632516Y-44812357D01*
X120628640Y-44813201D01*
X120623172Y-44814288D01*
X120616511Y-44815542D01*
X120609053Y-44816884D01*
X120607190Y-44817210D01*
X120579252Y-44821841D01*
X120552710Y-44825740D01*
X120526691Y-44829024D01*
X120500326Y-44831809D01*
X120492285Y-44832558D01*
X120484595Y-44833104D01*
X120475268Y-44833527D01*
X120464766Y-44833826D01*
X120453554Y-44834001D01*
X120442096Y-44834052D01*
X120430853Y-44833979D01*
X120420290Y-44833781D01*
X120410870Y-44833458D01*
X120403057Y-44833011D01*
X120398547Y-44832595D01*
X120373578Y-44829285D01*
X120349284Y-44825209D01*
X120325023Y-44820234D01*
X120300152Y-44814225D01*
X120274027Y-44807048D01*
X120268722Y-44805498D01*
X120260974Y-44803170D01*
X120255264Y-44801337D01*
X120251293Y-44799878D01*
X120248757Y-44798673D01*
X120247357Y-44797602D01*
X120246861Y-44796789D01*
X120246533Y-44795036D01*
X120245994Y-44791164D01*
X120245278Y-44785460D01*
X120244420Y-44778211D01*
X120243453Y-44769704D01*
X120242411Y-44760228D01*
X120241352Y-44750291D01*
X120240120Y-44738403D01*
X120239158Y-44728714D01*
X120238450Y-44721021D01*
X120237984Y-44715122D01*
X120237744Y-44710811D01*
X120237718Y-44707888D01*
X120237891Y-44706147D01*
X120238250Y-44705386D01*
X120238282Y-44705364D01*
X120240409Y-44704579D01*
X120243785Y-44703811D01*
X120244802Y-44703640D01*
X120248658Y-44702944D01*
X120254504Y-44701759D01*
X120261980Y-44700166D01*
X120270725Y-44698247D01*
X120280380Y-44696085D01*
X120290582Y-44693761D01*
X120300973Y-44691358D01*
X120311191Y-44688957D01*
X120320877Y-44686640D01*
X120329669Y-44684489D01*
X120336257Y-44682832D01*
X120371444Y-44673451D01*
X120404355Y-44663907D01*
X120435130Y-44654152D01*
X120463909Y-44644140D01*
X120490833Y-44633823D01*
X120516041Y-44623154D01*
X120520105Y-44621330D01*
X120544336Y-44609518D01*
X120569011Y-44595893D01*
X120593541Y-44580831D01*
X120617336Y-44564708D01*
X120639808Y-44547898D01*
X120654966Y-44535469D01*
X120661022Y-44530202D01*
X120667308Y-44524575D01*
X120673577Y-44518826D01*
X120679585Y-44513192D01*
X120685085Y-44507909D01*
X120689832Y-44503214D01*
X120693580Y-44499345D01*
X120696084Y-44496538D01*
X120697097Y-44495031D01*
X120697075Y-44494869D01*
X120695305Y-44493995D01*
X120691545Y-44492666D01*
X120686160Y-44490986D01*
X120679512Y-44489064D01*
X120671965Y-44487007D01*
X120663882Y-44484922D01*
X120660409Y-44484062D01*
X120636442Y-44479122D01*
X120612373Y-44476033D01*
X120587968Y-44474800D01*
X120562993Y-44475430D01*
X120537213Y-44477928D01*
X120510395Y-44482302D01*
X120482302Y-44488557D01*
X120481634Y-44488724D01*
X120453075Y-44496864D01*
X120425692Y-44506610D01*
X120399586Y-44517885D01*
X120374861Y-44530610D01*
X120351616Y-44544705D01*
X120329953Y-44560093D01*
X120309975Y-44576694D01*
X120291781Y-44594429D01*
X120275474Y-44613220D01*
X120261155Y-44632988D01*
X120248926Y-44653654D01*
X120238887Y-44675140D01*
X120237686Y-44678148D01*
X120233902Y-44687824D01*
X120183177Y-44736101D01*
X120173915Y-44744923D01*
X120165190Y-44753248D01*
X120157155Y-44760928D01*
X120149968Y-44767813D01*
X120143783Y-44773754D01*
X120138756Y-44778601D01*
X120135042Y-44782204D01*
X120132798Y-44784416D01*
X120132162Y-44785087D01*
X120133175Y-44785702D01*
X120136193Y-44787200D01*
X120141008Y-44789485D01*
X120147412Y-44792462D01*
X120155197Y-44796034D01*
X120164157Y-44800106D01*
X120174082Y-44804582D01*
X120184765Y-44809367D01*
X120187320Y-44810506D01*
X120242768Y-44835218D01*
X120248541Y-44855864D01*
X120251320Y-44865450D01*
X120254695Y-44876529D01*
X120258456Y-44888459D01*
X120262395Y-44900597D01*
X120266305Y-44912301D01*
X120269976Y-44922927D01*
X120273061Y-44931459D01*
X120274929Y-44936152D01*
X120276478Y-44939057D01*
X120278075Y-44940708D01*
X120280027Y-44941620D01*
X120282531Y-44942020D01*
X120287098Y-44942341D01*
X120293375Y-44942586D01*
X120301007Y-44942753D01*
X120309640Y-44942845D01*
X120318921Y-44942862D01*
X120328494Y-44942804D01*
X120338007Y-44942672D01*
X120347104Y-44942468D01*
X120355433Y-44942192D01*
X120362638Y-44941844D01*
X120368309Y-44941431D01*
X120424175Y-44935387D01*
X120458419Y-44930801D01*
X120473066Y-44928594D01*
X120485689Y-44926434D01*
X120496680Y-44924214D01*
X120506428Y-44921826D01*
X120515325Y-44919165D01*
X120523761Y-44916123D01*
X120532127Y-44912592D01*
X120540814Y-44908466D01*
X120541876Y-44907936D01*
X120561038Y-44897126D01*
X120579829Y-44884153D01*
X120597934Y-44869276D01*
X120615036Y-44852751D01*
X120628681Y-44837440D01*
X120635009Y-44829817D01*
X120635009Y-44833993D01*
X120635356Y-44839094D01*
X120636312Y-44845900D01*
X120637756Y-44853812D01*
X120639563Y-44862231D01*
X120641611Y-44870557D01*
X120643775Y-44878190D01*
X120644702Y-44881086D01*
X120652722Y-44901452D01*
X120662661Y-44920358D01*
X120674489Y-44937779D01*
X120688175Y-44953687D01*
X120703690Y-44968055D01*
X120721003Y-44980858D01*
X120740084Y-44992068D01*
X120760902Y-45001659D01*
X120783428Y-45009604D01*
X120793457Y-45012461D01*
X120811370Y-45016669D01*
X120829807Y-45019860D01*
X120849203Y-45022083D01*
X120869994Y-45023387D01*
X120892614Y-45023823D01*
X120893243Y-45023823D01*
X120910789Y-45023614D01*
X120927831Y-45022964D01*
X120944766Y-45021829D01*
X120961991Y-45020163D01*
X120979901Y-45017922D01*
X120998895Y-45015063D01*
X121019367Y-45011540D01*
X121041716Y-45007309D01*
X121043224Y-45007012D01*
X121085547Y-44997967D01*
X121126518Y-44987807D01*
X121166056Y-44976571D01*
X121204076Y-44964295D01*
X121240497Y-44951018D01*
X121275237Y-44936776D01*
X121308212Y-44921608D01*
X121339340Y-44905550D01*
X121368538Y-44888641D01*
X121395725Y-44870917D01*
X121420816Y-44852416D01*
X121443731Y-44833176D01*
X121459905Y-44817816D01*
X121465437Y-44812107D01*
X121471094Y-44806014D01*
X121476319Y-44800155D01*
X121480552Y-44795147D01*
X121481676Y-44793734D01*
X121485136Y-44789297D01*
X121488204Y-44785377D01*
X121490471Y-44782494D01*
X121491352Y-44781387D01*
X121492293Y-44780374D01*
X121493435Y-44779843D01*
X121495288Y-44779795D01*
X121498363Y-44780235D01*
X121503172Y-44781164D01*
X121504657Y-44781464D01*
X121540236Y-44787443D01*
X121576034Y-44791025D01*
X121612112Y-44792216D01*
X121648528Y-44791017D01*
X121654033Y-44790631D01*
X121682940Y-44788207D01*
X121714079Y-44785110D01*
X121747365Y-44781355D01*
X121782710Y-44776956D01*
X121820028Y-44771929D01*
X121859232Y-44766288D01*
X121900236Y-44760048D01*
X121942954Y-44753225D01*
X121987299Y-44745833D01*
X122033184Y-44737888D01*
X122080522Y-44729404D01*
X122129229Y-44720396D01*
X122179216Y-44710879D01*
X122230397Y-44700868D01*
X122282686Y-44690379D01*
X122335997Y-44679426D01*
X122390242Y-44668024D01*
X122445336Y-44656188D01*
X122497676Y-44644711D01*
X122512931Y-44641333D01*
X122526034Y-44638491D01*
X122537203Y-44636233D01*
X122546653Y-44634604D01*
X122554604Y-44633650D01*
X122561270Y-44633417D01*
X122566870Y-44633952D01*
X122571620Y-44635301D01*
X122575737Y-44637510D01*
X122579439Y-44640624D01*
X122582943Y-44644691D01*
X122586464Y-44649755D01*
X122590221Y-44655864D01*
X122594431Y-44663064D01*
X122595898Y-44665587D01*
X122608676Y-44688139D01*
X122620653Y-44710510D01*
X122631693Y-44732416D01*
X122641661Y-44753571D01*
X122650422Y-44773689D01*
X122657840Y-44792486D01*
X122662593Y-44806009D01*
X122667894Y-44823979D01*
X122671568Y-44840749D01*
X122673625Y-44856240D01*
X122674075Y-44870375D01*
X122672926Y-44883075D01*
X122670189Y-44894261D01*
X122665872Y-44903856D01*
X122659984Y-44911781D01*
X122652537Y-44917958D01*
X122648928Y-44920021D01*
X122645454Y-44921653D01*
X122641665Y-44923151D01*
X122637439Y-44924525D01*
X122632653Y-44925786D01*
X122627186Y-44926942D01*
X122620913Y-44928003D01*
X122613713Y-44928980D01*
X122605463Y-44929880D01*
X122596042Y-44930715D01*
X122585325Y-44931494D01*
X122573191Y-44932227D01*
X122559517Y-44932922D01*
X122544181Y-44933590D01*
X122527060Y-44934241D01*
X122508032Y-44934884D01*
X122486974Y-44935529D01*
X122463764Y-44936185D01*
X122438279Y-44936862D01*
X122433571Y-44936983D01*
X122391716Y-44938128D01*
X122352089Y-44939355D01*
X122314499Y-44940676D01*
X122278756Y-44942101D01*
X122244670Y-44943640D01*
X122212049Y-44945304D01*
X122180705Y-44947104D01*
X122150446Y-44949050D01*
X122121082Y-44951153D01*
X122092423Y-44953423D01*
X122064279Y-44955870D01*
X122036458Y-44958505D01*
X122027171Y-44959433D01*
X121983046Y-44964175D01*
X121940372Y-44969351D01*
X121898893Y-44975019D01*
X121858353Y-44981237D01*
X121818495Y-44988063D01*
X121779062Y-44995556D01*
X121739799Y-45003773D01*
X121700447Y-45012772D01*
X121660751Y-45022612D01*
X121620454Y-45033351D01*
X121579299Y-45045047D01*
X121537031Y-45057758D01*
X121493391Y-45071541D01*
X121448124Y-45086456D01*
X121412128Y-45098703D01*
X121395033Y-45104706D01*
X121378737Y-45110680D01*
X121363009Y-45116737D01*
X121347620Y-45122985D01*
X121332341Y-45129535D01*
X121316943Y-45136495D01*
X121301195Y-45143977D01*
X121284868Y-45152090D01*
X121267733Y-45160943D01*
X121249560Y-45170647D01*
X121230119Y-45181311D01*
X121209182Y-45193046D01*
X121186519Y-45205960D01*
X121179295Y-45210112D01*
X121159196Y-45221676D01*
X121141035Y-45232109D01*
X121124657Y-45241494D01*
X121109910Y-45249917D01*
X121096639Y-45257461D01*
X121084693Y-45264212D01*
X121073916Y-45270255D01*
X121064155Y-45275673D01*
X121055258Y-45280552D01*
X121047070Y-45284976D01*
X121039438Y-45289030D01*
X121032208Y-45292799D01*
X121025228Y-45296367D01*
X121018343Y-45299818D01*
X121011401Y-45303239D01*
X121004247Y-45306712D01*
X121003619Y-45307015D01*
X120980497Y-45317794D01*
X120958685Y-45327138D01*
X120937714Y-45335182D01*
X120917111Y-45342061D01*
X120896409Y-45347909D01*
X120875135Y-45352861D01*
X120852819Y-45357050D01*
X120828992Y-45360613D01*
X120806762Y-45363296D01*
X120792709Y-45364585D01*
X120776956Y-45365600D01*
X120760208Y-45366321D01*
X120743170Y-45366731D01*
X120726547Y-45366811D01*
X120711044Y-45366541D01*
X120700928Y-45366117D01*
X120673655Y-45363839D01*
X120646070Y-45360026D01*
X120618581Y-45354780D01*
X120591594Y-45348204D01*
X120565518Y-45340400D01*
X120540759Y-45331470D01*
X120517725Y-45321518D01*
X120511517Y-45318500D01*
X120483752Y-45303327D01*
X120456590Y-45285854D01*
X120430079Y-45266135D01*
X120404267Y-45244223D01*
X120379201Y-45220172D01*
X120354929Y-45194038D01*
X120331500Y-45165873D01*
X120308962Y-45135732D01*
X120287361Y-45103669D01*
X120266747Y-45069738D01*
X120247167Y-45033993D01*
X120231707Y-45002926D01*
X120225420Y-44989241D01*
X120219378Y-44975059D01*
X120213409Y-44959936D01*
X120207338Y-44943430D01*
X120200992Y-44925098D01*
X120199502Y-44920657D01*
X120196873Y-44912618D01*
X120194094Y-44903845D01*
X120191288Y-44894745D01*
X120188574Y-44885728D01*
X120186074Y-44877202D01*
X120183909Y-44869578D01*
X120182198Y-44863262D01*
X120181064Y-44858665D01*
X120180786Y-44857334D01*
X120180043Y-44853370D01*
X120109889Y-44825061D01*
X120097553Y-44820074D01*
X120085894Y-44815343D01*
X120075102Y-44810948D01*
X120065370Y-44806967D01*
X120056890Y-44803479D01*
X120049853Y-44800562D01*
X120044452Y-44798297D01*
X120040877Y-44796762D01*
X120039320Y-44796035D01*
X120039269Y-44795996D01*
X120040072Y-44795088D01*
X120042541Y-44792703D01*
X120046535Y-44788970D01*
X120051912Y-44784019D01*
X120058530Y-44777980D01*
X120066247Y-44770981D01*
X120074920Y-44763151D01*
X120084408Y-44754621D01*
X120094568Y-44745519D01*
X120103269Y-44737749D01*
X120115618Y-44726733D01*
X120126285Y-44717204D01*
X120135399Y-44709040D01*
X120143085Y-44702119D01*
X120149470Y-44696321D01*
X120154680Y-44691523D01*
X120158843Y-44687604D01*
X120162084Y-44684443D01*
X120164531Y-44681919D01*
X120166309Y-44679910D01*
X120167546Y-44678294D01*
X120168368Y-44676950D01*
X120168901Y-44675757D01*
X120169272Y-44674593D01*
X120169335Y-44674365D01*
X120171533Y-44667319D01*
X120174653Y-44658765D01*
X120178449Y-44649308D01*
X120182671Y-44639557D01*
X120187070Y-44630117D01*
X120189331Y-44625561D01*
X120200456Y-44605604D01*
X120213220Y-44586361D01*
X120227857Y-44567514D01*
X120244599Y-44548744D01*
X120249106Y-44544062D01*
X120268137Y-44525706D01*
X120287776Y-44509083D01*
X120308435Y-44493896D01*
X120330526Y-44479848D01*
X120354462Y-44466641D01*
X120361657Y-44463001D01*
X120384990Y-44452073D01*
X120408309Y-44442530D01*
X120432035Y-44434242D01*
X120456591Y-44427083D01*
X120482396Y-44420923D01*
X120509872Y-44415634D01*
X120525804Y-44413058D01*
X120532605Y-44412057D01*
X120538546Y-44411280D01*
X120544106Y-44410698D01*
X120549764Y-44410283D01*
X120555997Y-44410005D01*
X120563285Y-44409836D01*
X120572105Y-44409746D01*
X120581185Y-44409711D01*
X120593945Y-44409738D01*
G04 #@! TO.C,R8*
D14*
X111047030Y-69225732D02*
X110474610Y-69124717D01*
X110642969Y-69629793D02*
X109935862Y-68922687D01*
X110205236Y-68653312D01*
X110306251Y-68619641D01*
X110373595Y-68619641D01*
X110474610Y-68653312D01*
X110575625Y-68754328D01*
X110609297Y-68855343D01*
X110609297Y-68922687D01*
X110575625Y-69023702D01*
X110306251Y-69293076D01*
X111047030Y-68417610D02*
X110946015Y-68451282D01*
X110878671Y-68451282D01*
X110777656Y-68417610D01*
X110743984Y-68383938D01*
X110710312Y-68282923D01*
X110710312Y-68215580D01*
X110743984Y-68114564D01*
X110878671Y-67979877D01*
X110979687Y-67946206D01*
X111047030Y-67946206D01*
X111148045Y-67979877D01*
X111181717Y-68013549D01*
X111215389Y-68114564D01*
X111215389Y-68181908D01*
X111181717Y-68282923D01*
X111047030Y-68417610D01*
X111013358Y-68518625D01*
X111013358Y-68585969D01*
X111047030Y-68686984D01*
X111181717Y-68821671D01*
X111282732Y-68855343D01*
X111350076Y-68855343D01*
X111451091Y-68821671D01*
X111585778Y-68686984D01*
X111619450Y-68585969D01*
X111619450Y-68518625D01*
X111585778Y-68417610D01*
X111451091Y-68282923D01*
X111350076Y-68249251D01*
X111282732Y-68249251D01*
X111181717Y-68282923D01*
G04 #@! TO.C,C14*
X116132893Y-56693969D02*
X116065549Y-56693969D01*
X115930862Y-56626625D01*
X115863519Y-56559282D01*
X115796175Y-56424595D01*
X115796175Y-56289908D01*
X115829847Y-56188893D01*
X115930862Y-56020534D01*
X116031877Y-55919519D01*
X116200236Y-55818503D01*
X116301251Y-55784832D01*
X116435938Y-55784832D01*
X116570625Y-55852175D01*
X116637969Y-55919519D01*
X116705312Y-56054206D01*
X116705312Y-56121549D01*
X116738984Y-57434748D02*
X116334923Y-57030687D01*
X116536954Y-57232717D02*
X117244061Y-56525610D01*
X117075702Y-56559282D01*
X116941015Y-56559282D01*
X116840000Y-56525610D01*
X117816480Y-57569435D02*
X117345076Y-58040839D01*
X117917496Y-57131702D02*
X117244061Y-57468419D01*
X117681793Y-57906152D01*
G04 #@! TO.C,U2*
X128360026Y-72351021D02*
X128932446Y-72923441D01*
X129033461Y-72957113D01*
X129100805Y-72957113D01*
X129201820Y-72923441D01*
X129336507Y-72788754D01*
X129370179Y-72687739D01*
X129370179Y-72620395D01*
X129336507Y-72519380D01*
X128764087Y-71946960D01*
X129134477Y-71711258D02*
X129134477Y-71643915D01*
X129168148Y-71542899D01*
X129336507Y-71374541D01*
X129437522Y-71340869D01*
X129504866Y-71340869D01*
X129605881Y-71374541D01*
X129673225Y-71441884D01*
X129740568Y-71576571D01*
X129740568Y-72384693D01*
X130178301Y-71946960D01*
G04 #@! TO.C,D1*
X125978404Y-45442380D02*
X125978404Y-44442380D01*
X126216500Y-44442380D01*
X126359357Y-44490000D01*
X126454595Y-44585238D01*
X126502214Y-44680476D01*
X126549833Y-44870952D01*
X126549833Y-45013809D01*
X126502214Y-45204285D01*
X126454595Y-45299523D01*
X126359357Y-45394761D01*
X126216500Y-45442380D01*
X125978404Y-45442380D01*
X127502214Y-45442380D02*
X126930785Y-45442380D01*
X127216500Y-45442380D02*
X127216500Y-44442380D01*
X127121261Y-44585238D01*
X127026023Y-44680476D01*
X126930785Y-44728095D01*
G04 #@! TO.C,D2*
X102397380Y-78326095D02*
X101397380Y-78326095D01*
X101397380Y-78088000D01*
X101445000Y-77945142D01*
X101540238Y-77849904D01*
X101635476Y-77802285D01*
X101825952Y-77754666D01*
X101968809Y-77754666D01*
X102159285Y-77802285D01*
X102254523Y-77849904D01*
X102349761Y-77945142D01*
X102397380Y-78088000D01*
X102397380Y-78326095D01*
X101492619Y-77373714D02*
X101445000Y-77326095D01*
X101397380Y-77230857D01*
X101397380Y-76992761D01*
X101445000Y-76897523D01*
X101492619Y-76849904D01*
X101587857Y-76802285D01*
X101683095Y-76802285D01*
X101825952Y-76849904D01*
X102397380Y-77421333D01*
X102397380Y-76802285D01*
G04 #@! TO.C,U3*
X137702095Y-80190380D02*
X137702095Y-80999904D01*
X137749714Y-81095142D01*
X137797333Y-81142761D01*
X137892571Y-81190380D01*
X138083047Y-81190380D01*
X138178285Y-81142761D01*
X138225904Y-81095142D01*
X138273523Y-80999904D01*
X138273523Y-80190380D01*
X138654476Y-80190380D02*
X139273523Y-80190380D01*
X138940190Y-80571333D01*
X139083047Y-80571333D01*
X139178285Y-80618952D01*
X139225904Y-80666571D01*
X139273523Y-80761809D01*
X139273523Y-80999904D01*
X139225904Y-81095142D01*
X139178285Y-81142761D01*
X139083047Y-81190380D01*
X138797333Y-81190380D01*
X138702095Y-81142761D01*
X138654476Y-81095142D01*
G04 #@! TO.C,U4*
X115032595Y-86002880D02*
X115032595Y-86812404D01*
X115080214Y-86907642D01*
X115127833Y-86955261D01*
X115223071Y-87002880D01*
X115413547Y-87002880D01*
X115508785Y-86955261D01*
X115556404Y-86907642D01*
X115604023Y-86812404D01*
X115604023Y-86002880D01*
X116508785Y-86336214D02*
X116508785Y-87002880D01*
X116270690Y-85955261D02*
X116032595Y-86669547D01*
X116651642Y-86669547D01*
G04 #@! TO.C,U6*
X105063095Y-86002880D02*
X105063095Y-86812404D01*
X105110714Y-86907642D01*
X105158333Y-86955261D01*
X105253571Y-87002880D01*
X105444047Y-87002880D01*
X105539285Y-86955261D01*
X105586904Y-86907642D01*
X105634523Y-86812404D01*
X105634523Y-86002880D01*
X106539285Y-86002880D02*
X106348809Y-86002880D01*
X106253571Y-86050500D01*
X106205952Y-86098119D01*
X106110714Y-86240976D01*
X106063095Y-86431452D01*
X106063095Y-86812404D01*
X106110714Y-86907642D01*
X106158333Y-86955261D01*
X106253571Y-87002880D01*
X106444047Y-87002880D01*
X106539285Y-86955261D01*
X106586904Y-86907642D01*
X106634523Y-86812404D01*
X106634523Y-86574309D01*
X106586904Y-86479071D01*
X106539285Y-86431452D01*
X106444047Y-86383833D01*
X106253571Y-86383833D01*
X106158333Y-86431452D01*
X106110714Y-86479071D01*
X106063095Y-86574309D01*
G04 #@! TO.C,U5*
X143290095Y-53681380D02*
X143290095Y-54490904D01*
X143337714Y-54586142D01*
X143385333Y-54633761D01*
X143480571Y-54681380D01*
X143671047Y-54681380D01*
X143766285Y-54633761D01*
X143813904Y-54586142D01*
X143861523Y-54490904D01*
X143861523Y-53681380D01*
X144813904Y-53681380D02*
X144337714Y-53681380D01*
X144290095Y-54157571D01*
X144337714Y-54109952D01*
X144432952Y-54062333D01*
X144671047Y-54062333D01*
X144766285Y-54109952D01*
X144813904Y-54157571D01*
X144861523Y-54252809D01*
X144861523Y-54490904D01*
X144813904Y-54586142D01*
X144766285Y-54633761D01*
X144671047Y-54681380D01*
X144432952Y-54681380D01*
X144337714Y-54633761D01*
X144290095Y-54586142D01*
G04 #@! TO.C,U7*
X103856595Y-68222880D02*
X103856595Y-69032404D01*
X103904214Y-69127642D01*
X103951833Y-69175261D01*
X104047071Y-69222880D01*
X104237547Y-69222880D01*
X104332785Y-69175261D01*
X104380404Y-69127642D01*
X104428023Y-69032404D01*
X104428023Y-68222880D01*
X104808976Y-68222880D02*
X105475642Y-68222880D01*
X105047071Y-69222880D01*
G04 #@! TO.C,R1*
X122532380Y-49823666D02*
X122056190Y-50157000D01*
X122532380Y-50395095D02*
X121532380Y-50395095D01*
X121532380Y-50014142D01*
X121580000Y-49918904D01*
X121627619Y-49871285D01*
X121722857Y-49823666D01*
X121865714Y-49823666D01*
X121960952Y-49871285D01*
X122008571Y-49918904D01*
X122056190Y-50014142D01*
X122056190Y-50395095D01*
X122532380Y-48871285D02*
X122532380Y-49442714D01*
X122532380Y-49157000D02*
X121532380Y-49157000D01*
X121675238Y-49252238D01*
X121770476Y-49347476D01*
X121818095Y-49442714D01*
G04 #@! TO.C,R2*
X137773380Y-63158666D02*
X137297190Y-63492000D01*
X137773380Y-63730095D02*
X136773380Y-63730095D01*
X136773380Y-63349142D01*
X136821000Y-63253904D01*
X136868619Y-63206285D01*
X136963857Y-63158666D01*
X137106714Y-63158666D01*
X137201952Y-63206285D01*
X137249571Y-63253904D01*
X137297190Y-63349142D01*
X137297190Y-63730095D01*
X136868619Y-62777714D02*
X136821000Y-62730095D01*
X136773380Y-62634857D01*
X136773380Y-62396761D01*
X136821000Y-62301523D01*
X136868619Y-62253904D01*
X136963857Y-62206285D01*
X137059095Y-62206285D01*
X137201952Y-62253904D01*
X137773380Y-62825333D01*
X137773380Y-62206285D01*
G04 #@! TO.C,R3*
X134804833Y-61602880D02*
X134471500Y-61126690D01*
X134233404Y-61602880D02*
X134233404Y-60602880D01*
X134614357Y-60602880D01*
X134709595Y-60650500D01*
X134757214Y-60698119D01*
X134804833Y-60793357D01*
X134804833Y-60936214D01*
X134757214Y-61031452D01*
X134709595Y-61079071D01*
X134614357Y-61126690D01*
X134233404Y-61126690D01*
X135138166Y-60602880D02*
X135757214Y-60602880D01*
X135423880Y-60983833D01*
X135566738Y-60983833D01*
X135661976Y-61031452D01*
X135709595Y-61079071D01*
X135757214Y-61174309D01*
X135757214Y-61412404D01*
X135709595Y-61507642D01*
X135661976Y-61555261D01*
X135566738Y-61602880D01*
X135281023Y-61602880D01*
X135185785Y-61555261D01*
X135138166Y-61507642D01*
G04 #@! TO.C,R4*
X135520380Y-44997666D02*
X135044190Y-45331000D01*
X135520380Y-45569095D02*
X134520380Y-45569095D01*
X134520380Y-45188142D01*
X134568000Y-45092904D01*
X134615619Y-45045285D01*
X134710857Y-44997666D01*
X134853714Y-44997666D01*
X134948952Y-45045285D01*
X134996571Y-45092904D01*
X135044190Y-45188142D01*
X135044190Y-45569095D01*
X134853714Y-44140523D02*
X135520380Y-44140523D01*
X134472761Y-44378619D02*
X135187047Y-44616714D01*
X135187047Y-43997666D01*
G04 #@! TO.C,C1*
X114916110Y-59761188D02*
X114848767Y-59761188D01*
X114714080Y-59693844D01*
X114646736Y-59626501D01*
X114579393Y-59491813D01*
X114579393Y-59357126D01*
X114613064Y-59256111D01*
X114714080Y-59087752D01*
X114815095Y-58986737D01*
X114983454Y-58885722D01*
X115084469Y-58852050D01*
X115219156Y-58852050D01*
X115353843Y-58919394D01*
X115421187Y-58986737D01*
X115488530Y-59121424D01*
X115488530Y-59188768D01*
X115522202Y-60501966D02*
X115118141Y-60097905D01*
X115320171Y-60299936D02*
X116027278Y-59592829D01*
X115858919Y-59626501D01*
X115724232Y-59626501D01*
X115623217Y-59592829D01*
G04 #@! TO.C,C2*
X116122610Y-58491186D02*
X116055267Y-58491186D01*
X115920580Y-58423842D01*
X115853236Y-58356499D01*
X115785893Y-58221811D01*
X115785893Y-58087124D01*
X115819564Y-57986109D01*
X115920580Y-57817750D01*
X116021595Y-57716735D01*
X116189954Y-57615720D01*
X116290969Y-57582048D01*
X116425656Y-57582048D01*
X116560343Y-57649392D01*
X116627687Y-57716735D01*
X116695030Y-57851422D01*
X116695030Y-57918766D01*
X116964404Y-58188140D02*
X117031748Y-58188140D01*
X117132763Y-58221811D01*
X117301122Y-58390170D01*
X117334793Y-58491186D01*
X117334793Y-58558529D01*
X117301122Y-58659544D01*
X117233778Y-58726888D01*
X117099091Y-58794231D01*
X116290969Y-58794231D01*
X116728702Y-59231964D01*
G04 #@! TO.C,C3*
X117360524Y-73400226D02*
X117360524Y-73467569D01*
X117293180Y-73602256D01*
X117225837Y-73669600D01*
X117091149Y-73736943D01*
X116956462Y-73736943D01*
X116855447Y-73703272D01*
X116687088Y-73602256D01*
X116586073Y-73501241D01*
X116485058Y-73332882D01*
X116451386Y-73231867D01*
X116451386Y-73097180D01*
X116518730Y-72962493D01*
X116586073Y-72895149D01*
X116720760Y-72827806D01*
X116788104Y-72827806D01*
X116956462Y-72524760D02*
X117394195Y-72087027D01*
X117427867Y-72592104D01*
X117528882Y-72491088D01*
X117629898Y-72457417D01*
X117697241Y-72457417D01*
X117798256Y-72491088D01*
X117966615Y-72659447D01*
X118000287Y-72760462D01*
X118000287Y-72827806D01*
X117966615Y-72928821D01*
X117764585Y-73130852D01*
X117663569Y-73164524D01*
X117596226Y-73164524D01*
G04 #@! TO.C,C4*
X129962687Y-74157389D02*
X129962687Y-74224732D01*
X129895343Y-74359419D01*
X129828000Y-74426763D01*
X129693312Y-74494106D01*
X129558625Y-74494106D01*
X129457610Y-74460435D01*
X129289251Y-74359419D01*
X129188236Y-74258404D01*
X129087221Y-74090045D01*
X129053549Y-73989030D01*
X129053549Y-73854343D01*
X129120893Y-73719656D01*
X129188236Y-73652312D01*
X129322923Y-73584969D01*
X129390267Y-73584969D01*
X130164717Y-73147236D02*
X130636122Y-73618641D01*
X129726984Y-73046221D02*
X130063702Y-73719656D01*
X130501435Y-73281923D01*
G04 #@! TO.C,C5*
X133677642Y-64936666D02*
X133725261Y-64984285D01*
X133772880Y-65127142D01*
X133772880Y-65222380D01*
X133725261Y-65365238D01*
X133630023Y-65460476D01*
X133534785Y-65508095D01*
X133344309Y-65555714D01*
X133201452Y-65555714D01*
X133010976Y-65508095D01*
X132915738Y-65460476D01*
X132820500Y-65365238D01*
X132772880Y-65222380D01*
X132772880Y-65127142D01*
X132820500Y-64984285D01*
X132868119Y-64936666D01*
X132772880Y-64031904D02*
X132772880Y-64508095D01*
X133249071Y-64555714D01*
X133201452Y-64508095D01*
X133153833Y-64412857D01*
X133153833Y-64174761D01*
X133201452Y-64079523D01*
X133249071Y-64031904D01*
X133344309Y-63984285D01*
X133582404Y-63984285D01*
X133677642Y-64031904D01*
X133725261Y-64079523D01*
X133772880Y-64174761D01*
X133772880Y-64412857D01*
X133725261Y-64508095D01*
X133677642Y-64555714D01*
G04 #@! TO.C,C6*
X126216186Y-59234889D02*
X126216186Y-59302232D01*
X126148842Y-59436919D01*
X126081499Y-59504263D01*
X125946811Y-59571606D01*
X125812124Y-59571606D01*
X125711109Y-59537935D01*
X125542750Y-59436919D01*
X125441735Y-59335904D01*
X125340720Y-59167545D01*
X125307048Y-59066530D01*
X125307048Y-58931843D01*
X125374392Y-58797156D01*
X125441735Y-58729812D01*
X125576422Y-58662469D01*
X125643766Y-58662469D01*
X126182514Y-57989034D02*
X126047827Y-58123721D01*
X126014155Y-58224736D01*
X126014155Y-58292080D01*
X126047827Y-58460438D01*
X126148842Y-58628797D01*
X126418216Y-58898171D01*
X126519231Y-58931843D01*
X126586575Y-58931843D01*
X126687590Y-58898171D01*
X126822277Y-58763484D01*
X126855949Y-58662469D01*
X126855949Y-58595125D01*
X126822277Y-58494110D01*
X126653918Y-58325751D01*
X126552903Y-58292080D01*
X126485560Y-58292080D01*
X126384544Y-58325751D01*
X126249857Y-58460438D01*
X126216186Y-58561454D01*
X126216186Y-58628797D01*
X126249857Y-58729812D01*
G04 #@! TO.C,C7*
X141438333Y-61350142D02*
X141390714Y-61397761D01*
X141247857Y-61445380D01*
X141152619Y-61445380D01*
X141009761Y-61397761D01*
X140914523Y-61302523D01*
X140866904Y-61207285D01*
X140819285Y-61016809D01*
X140819285Y-60873952D01*
X140866904Y-60683476D01*
X140914523Y-60588238D01*
X141009761Y-60493000D01*
X141152619Y-60445380D01*
X141247857Y-60445380D01*
X141390714Y-60493000D01*
X141438333Y-60540619D01*
X141771666Y-60445380D02*
X142438333Y-60445380D01*
X142009761Y-61445380D01*
G04 #@! TO.C,C8*
X134614333Y-59920142D02*
X134566714Y-59967761D01*
X134423857Y-60015380D01*
X134328619Y-60015380D01*
X134185761Y-59967761D01*
X134090523Y-59872523D01*
X134042904Y-59777285D01*
X133995285Y-59586809D01*
X133995285Y-59443952D01*
X134042904Y-59253476D01*
X134090523Y-59158238D01*
X134185761Y-59063000D01*
X134328619Y-59015380D01*
X134423857Y-59015380D01*
X134566714Y-59063000D01*
X134614333Y-59110619D01*
X135185761Y-59443952D02*
X135090523Y-59396333D01*
X135042904Y-59348714D01*
X134995285Y-59253476D01*
X134995285Y-59205857D01*
X135042904Y-59110619D01*
X135090523Y-59063000D01*
X135185761Y-59015380D01*
X135376238Y-59015380D01*
X135471476Y-59063000D01*
X135519095Y-59110619D01*
X135566714Y-59205857D01*
X135566714Y-59253476D01*
X135519095Y-59348714D01*
X135471476Y-59396333D01*
X135376238Y-59443952D01*
X135185761Y-59443952D01*
X135090523Y-59491571D01*
X135042904Y-59539190D01*
X134995285Y-59634428D01*
X134995285Y-59824904D01*
X135042904Y-59920142D01*
X135090523Y-59967761D01*
X135185761Y-60015380D01*
X135376238Y-60015380D01*
X135471476Y-59967761D01*
X135519095Y-59920142D01*
X135566714Y-59824904D01*
X135566714Y-59634428D01*
X135519095Y-59539190D01*
X135471476Y-59491571D01*
X135376238Y-59443952D01*
G04 #@! TO.C,C9*
X129867642Y-77763666D02*
X129915261Y-77811285D01*
X129962880Y-77954142D01*
X129962880Y-78049380D01*
X129915261Y-78192238D01*
X129820023Y-78287476D01*
X129724785Y-78335095D01*
X129534309Y-78382714D01*
X129391452Y-78382714D01*
X129200976Y-78335095D01*
X129105738Y-78287476D01*
X129010500Y-78192238D01*
X128962880Y-78049380D01*
X128962880Y-77954142D01*
X129010500Y-77811285D01*
X129058119Y-77763666D01*
X129962880Y-77287476D02*
X129962880Y-77097000D01*
X129915261Y-77001761D01*
X129867642Y-76954142D01*
X129724785Y-76858904D01*
X129534309Y-76811285D01*
X129153357Y-76811285D01*
X129058119Y-76858904D01*
X129010500Y-76906523D01*
X128962880Y-77001761D01*
X128962880Y-77192238D01*
X129010500Y-77287476D01*
X129058119Y-77335095D01*
X129153357Y-77382714D01*
X129391452Y-77382714D01*
X129486690Y-77335095D01*
X129534309Y-77287476D01*
X129581928Y-77192238D01*
X129581928Y-77001761D01*
X129534309Y-76906523D01*
X129486690Y-76858904D01*
X129391452Y-76811285D01*
G04 #@! TO.C,C10*
X100927642Y-74334642D02*
X100880023Y-74382261D01*
X100737166Y-74429880D01*
X100641928Y-74429880D01*
X100499071Y-74382261D01*
X100403833Y-74287023D01*
X100356214Y-74191785D01*
X100308595Y-74001309D01*
X100308595Y-73858452D01*
X100356214Y-73667976D01*
X100403833Y-73572738D01*
X100499071Y-73477500D01*
X100641928Y-73429880D01*
X100737166Y-73429880D01*
X100880023Y-73477500D01*
X100927642Y-73525119D01*
X101880023Y-74429880D02*
X101308595Y-74429880D01*
X101594309Y-74429880D02*
X101594309Y-73429880D01*
X101499071Y-73572738D01*
X101403833Y-73667976D01*
X101308595Y-73715595D01*
X102499071Y-73429880D02*
X102594309Y-73429880D01*
X102689547Y-73477500D01*
X102737166Y-73525119D01*
X102784785Y-73620357D01*
X102832404Y-73810833D01*
X102832404Y-74048928D01*
X102784785Y-74239404D01*
X102737166Y-74334642D01*
X102689547Y-74382261D01*
X102594309Y-74429880D01*
X102499071Y-74429880D01*
X102403833Y-74382261D01*
X102356214Y-74334642D01*
X102308595Y-74239404D01*
X102260976Y-74048928D01*
X102260976Y-73810833D01*
X102308595Y-73620357D01*
X102356214Y-73525119D01*
X102403833Y-73477500D01*
X102499071Y-73429880D01*
G04 #@! TO.C,C11*
X114262642Y-78144642D02*
X114215023Y-78192261D01*
X114072166Y-78239880D01*
X113976928Y-78239880D01*
X113834071Y-78192261D01*
X113738833Y-78097023D01*
X113691214Y-78001785D01*
X113643595Y-77811309D01*
X113643595Y-77668452D01*
X113691214Y-77477976D01*
X113738833Y-77382738D01*
X113834071Y-77287500D01*
X113976928Y-77239880D01*
X114072166Y-77239880D01*
X114215023Y-77287500D01*
X114262642Y-77335119D01*
X115215023Y-78239880D02*
X114643595Y-78239880D01*
X114929309Y-78239880D02*
X114929309Y-77239880D01*
X114834071Y-77382738D01*
X114738833Y-77477976D01*
X114643595Y-77525595D01*
X116167404Y-78239880D02*
X115595976Y-78239880D01*
X115881690Y-78239880D02*
X115881690Y-77239880D01*
X115786452Y-77382738D01*
X115691214Y-77477976D01*
X115595976Y-77525595D01*
G04 #@! TO.C,C12*
X120198806Y-78816943D02*
X120198806Y-78884287D01*
X120131462Y-79018974D01*
X120064119Y-79086317D01*
X119929432Y-79153661D01*
X119794745Y-79153661D01*
X119693730Y-79119989D01*
X119525371Y-79018974D01*
X119424356Y-78917959D01*
X119323340Y-78749600D01*
X119289669Y-78648585D01*
X119289669Y-78513898D01*
X119357012Y-78379211D01*
X119424356Y-78311867D01*
X119559043Y-78244524D01*
X119626386Y-78244524D01*
X120939585Y-78210852D02*
X120535524Y-78614913D01*
X120737554Y-78412882D02*
X120030447Y-77705775D01*
X120064119Y-77874134D01*
X120064119Y-78008821D01*
X120030447Y-78109837D01*
X120569195Y-77301714D02*
X120569195Y-77234371D01*
X120602867Y-77133356D01*
X120771226Y-76964997D01*
X120872241Y-76931325D01*
X120939585Y-76931325D01*
X121040600Y-76964997D01*
X121107943Y-77032340D01*
X121175287Y-77167027D01*
X121175287Y-77975149D01*
X121613020Y-77537417D01*
G04 #@! TO.C,C13*
X109357142Y-70683357D02*
X109404761Y-70730976D01*
X109452380Y-70873833D01*
X109452380Y-70969071D01*
X109404761Y-71111928D01*
X109309523Y-71207166D01*
X109214285Y-71254785D01*
X109023809Y-71302404D01*
X108880952Y-71302404D01*
X108690476Y-71254785D01*
X108595238Y-71207166D01*
X108500000Y-71111928D01*
X108452380Y-70969071D01*
X108452380Y-70873833D01*
X108500000Y-70730976D01*
X108547619Y-70683357D01*
X109452380Y-69730976D02*
X109452380Y-70302404D01*
X109452380Y-70016690D02*
X108452380Y-70016690D01*
X108595238Y-70111928D01*
X108690476Y-70207166D01*
X108738095Y-70302404D01*
X108452380Y-69397642D02*
X108452380Y-68778595D01*
X108833333Y-69111928D01*
X108833333Y-68969071D01*
X108880952Y-68873833D01*
X108928571Y-68826214D01*
X109023809Y-68778595D01*
X109261904Y-68778595D01*
X109357142Y-68826214D01*
X109404761Y-68873833D01*
X109452380Y-68969071D01*
X109452380Y-69254785D01*
X109404761Y-69350023D01*
X109357142Y-69397642D01*
G04 #@! TO.C,C15*
X117564642Y-56237142D02*
X117517023Y-56284761D01*
X117374166Y-56332380D01*
X117278928Y-56332380D01*
X117136071Y-56284761D01*
X117040833Y-56189523D01*
X116993214Y-56094285D01*
X116945595Y-55903809D01*
X116945595Y-55760952D01*
X116993214Y-55570476D01*
X117040833Y-55475238D01*
X117136071Y-55380000D01*
X117278928Y-55332380D01*
X117374166Y-55332380D01*
X117517023Y-55380000D01*
X117564642Y-55427619D01*
X118517023Y-56332380D02*
X117945595Y-56332380D01*
X118231309Y-56332380D02*
X118231309Y-55332380D01*
X118136071Y-55475238D01*
X118040833Y-55570476D01*
X117945595Y-55618095D01*
X119421785Y-55332380D02*
X118945595Y-55332380D01*
X118897976Y-55808571D01*
X118945595Y-55760952D01*
X119040833Y-55713333D01*
X119278928Y-55713333D01*
X119374166Y-55760952D01*
X119421785Y-55808571D01*
X119469404Y-55903809D01*
X119469404Y-56141904D01*
X119421785Y-56237142D01*
X119374166Y-56284761D01*
X119278928Y-56332380D01*
X119040833Y-56332380D01*
X118945595Y-56284761D01*
X118897976Y-56237142D01*
G04 #@! TO.C,D4*
X103816904Y-56776880D02*
X103816904Y-55776880D01*
X104055000Y-55776880D01*
X104197857Y-55824500D01*
X104293095Y-55919738D01*
X104340714Y-56014976D01*
X104388333Y-56205452D01*
X104388333Y-56348309D01*
X104340714Y-56538785D01*
X104293095Y-56634023D01*
X104197857Y-56729261D01*
X104055000Y-56776880D01*
X103816904Y-56776880D01*
X105245476Y-56110214D02*
X105245476Y-56776880D01*
X105007380Y-55729261D02*
X104769285Y-56443547D01*
X105388333Y-56443547D01*
G04 #@! TO.C,U8*
X100618095Y-61364880D02*
X100618095Y-62174404D01*
X100665714Y-62269642D01*
X100713333Y-62317261D01*
X100808571Y-62364880D01*
X100999047Y-62364880D01*
X101094285Y-62317261D01*
X101141904Y-62269642D01*
X101189523Y-62174404D01*
X101189523Y-61364880D01*
X101808571Y-61793452D02*
X101713333Y-61745833D01*
X101665714Y-61698214D01*
X101618095Y-61602976D01*
X101618095Y-61555357D01*
X101665714Y-61460119D01*
X101713333Y-61412500D01*
X101808571Y-61364880D01*
X101999047Y-61364880D01*
X102094285Y-61412500D01*
X102141904Y-61460119D01*
X102189523Y-61555357D01*
X102189523Y-61602976D01*
X102141904Y-61698214D01*
X102094285Y-61745833D01*
X101999047Y-61793452D01*
X101808571Y-61793452D01*
X101713333Y-61841071D01*
X101665714Y-61888690D01*
X101618095Y-61983928D01*
X101618095Y-62174404D01*
X101665714Y-62269642D01*
X101713333Y-62317261D01*
X101808571Y-62364880D01*
X101999047Y-62364880D01*
X102094285Y-62317261D01*
X102141904Y-62269642D01*
X102189523Y-62174404D01*
X102189523Y-61983928D01*
X102141904Y-61888690D01*
X102094285Y-61841071D01*
X101999047Y-61793452D01*
G04 #@! TO.C,C17*
X114945142Y-66238357D02*
X114992761Y-66285976D01*
X115040380Y-66428833D01*
X115040380Y-66524071D01*
X114992761Y-66666928D01*
X114897523Y-66762166D01*
X114802285Y-66809785D01*
X114611809Y-66857404D01*
X114468952Y-66857404D01*
X114278476Y-66809785D01*
X114183238Y-66762166D01*
X114088000Y-66666928D01*
X114040380Y-66524071D01*
X114040380Y-66428833D01*
X114088000Y-66285976D01*
X114135619Y-66238357D01*
X115040380Y-65285976D02*
X115040380Y-65857404D01*
X115040380Y-65571690D02*
X114040380Y-65571690D01*
X114183238Y-65666928D01*
X114278476Y-65762166D01*
X114326095Y-65857404D01*
X114040380Y-64952642D02*
X114040380Y-64285976D01*
X115040380Y-64714547D01*
G04 #@! TO.C,C16*
X122643893Y-58217969D02*
X122576549Y-58217969D01*
X122441862Y-58150625D01*
X122374519Y-58083282D01*
X122307175Y-57948595D01*
X122307175Y-57813908D01*
X122340847Y-57712893D01*
X122441862Y-57544534D01*
X122542877Y-57443519D01*
X122711236Y-57342503D01*
X122812251Y-57308832D01*
X122946938Y-57308832D01*
X123081625Y-57376175D01*
X123148969Y-57443519D01*
X123216312Y-57578206D01*
X123216312Y-57645549D01*
X123249984Y-58958748D02*
X122845923Y-58554687D01*
X123047954Y-58756717D02*
X123755061Y-58049610D01*
X123586702Y-58083282D01*
X123452015Y-58083282D01*
X123351000Y-58049610D01*
X124563183Y-58857732D02*
X124428496Y-58723045D01*
X124327480Y-58689374D01*
X124260137Y-58689374D01*
X124091778Y-58723045D01*
X123923419Y-58824061D01*
X123654045Y-59093435D01*
X123620374Y-59194450D01*
X123620374Y-59261793D01*
X123654045Y-59362809D01*
X123788732Y-59497496D01*
X123889748Y-59531167D01*
X123957091Y-59531167D01*
X124058106Y-59497496D01*
X124226465Y-59329137D01*
X124260137Y-59228122D01*
X124260137Y-59160778D01*
X124226465Y-59059763D01*
X124091778Y-58925076D01*
X123990763Y-58891404D01*
X123923419Y-58891404D01*
X123822404Y-58925076D01*
G04 #@! TO.C,R5*
X110531880Y-50839666D02*
X110055690Y-51173000D01*
X110531880Y-51411095D02*
X109531880Y-51411095D01*
X109531880Y-51030142D01*
X109579500Y-50934904D01*
X109627119Y-50887285D01*
X109722357Y-50839666D01*
X109865214Y-50839666D01*
X109960452Y-50887285D01*
X110008071Y-50934904D01*
X110055690Y-51030142D01*
X110055690Y-51411095D01*
X109531880Y-49934904D02*
X109531880Y-50411095D01*
X110008071Y-50458714D01*
X109960452Y-50411095D01*
X109912833Y-50315857D01*
X109912833Y-50077761D01*
X109960452Y-49982523D01*
X110008071Y-49934904D01*
X110103309Y-49887285D01*
X110341404Y-49887285D01*
X110436642Y-49934904D01*
X110484261Y-49982523D01*
X110531880Y-50077761D01*
X110531880Y-50315857D01*
X110484261Y-50411095D01*
X110436642Y-50458714D01*
G04 #@! TO.C,R6*
X112627380Y-56554666D02*
X112151190Y-56888000D01*
X112627380Y-57126095D02*
X111627380Y-57126095D01*
X111627380Y-56745142D01*
X111675000Y-56649904D01*
X111722619Y-56602285D01*
X111817857Y-56554666D01*
X111960714Y-56554666D01*
X112055952Y-56602285D01*
X112103571Y-56649904D01*
X112151190Y-56745142D01*
X112151190Y-57126095D01*
X111627380Y-55697523D02*
X111627380Y-55888000D01*
X111675000Y-55983238D01*
X111722619Y-56030857D01*
X111865476Y-56126095D01*
X112055952Y-56173714D01*
X112436904Y-56173714D01*
X112532142Y-56126095D01*
X112579761Y-56078476D01*
X112627380Y-55983238D01*
X112627380Y-55792761D01*
X112579761Y-55697523D01*
X112532142Y-55649904D01*
X112436904Y-55602285D01*
X112198809Y-55602285D01*
X112103571Y-55649904D01*
X112055952Y-55697523D01*
X112008333Y-55792761D01*
X112008333Y-55983238D01*
X112055952Y-56078476D01*
X112103571Y-56126095D01*
X112198809Y-56173714D01*
G04 #@! TO.C,R7*
X122596880Y-46966166D02*
X122120690Y-47299500D01*
X122596880Y-47537595D02*
X121596880Y-47537595D01*
X121596880Y-47156642D01*
X121644500Y-47061404D01*
X121692119Y-47013785D01*
X121787357Y-46966166D01*
X121930214Y-46966166D01*
X122025452Y-47013785D01*
X122073071Y-47061404D01*
X122120690Y-47156642D01*
X122120690Y-47537595D01*
X121596880Y-46632833D02*
X121596880Y-45966166D01*
X122596880Y-46394738D01*
G04 #@! TO.C,Q1*
X136849761Y-72785619D02*
X136754523Y-72738000D01*
X136659285Y-72642761D01*
X136516428Y-72499904D01*
X136421190Y-72452285D01*
X136325952Y-72452285D01*
X136373571Y-72690380D02*
X136278333Y-72642761D01*
X136183095Y-72547523D01*
X136135476Y-72357047D01*
X136135476Y-72023714D01*
X136183095Y-71833238D01*
X136278333Y-71738000D01*
X136373571Y-71690380D01*
X136564047Y-71690380D01*
X136659285Y-71738000D01*
X136754523Y-71833238D01*
X136802142Y-72023714D01*
X136802142Y-72357047D01*
X136754523Y-72547523D01*
X136659285Y-72642761D01*
X136564047Y-72690380D01*
X136373571Y-72690380D01*
X137754523Y-72690380D02*
X137183095Y-72690380D01*
X137468809Y-72690380D02*
X137468809Y-71690380D01*
X137373571Y-71833238D01*
X137278333Y-71928476D01*
X137183095Y-71976095D01*
G04 #@! TD*
M02*
