M48
;DRILL file {KiCad (5.0.0-rc2-dev-111-gc69db6c)} date Monday, June 11, 2018 at 12:16:07 AM
;FORMAT={2:4/ absolute / inch / suppress leading zeros}
FMAT,2
INCH,TZ
T1C0.0150
T2C0.0472
T3C0.0866
T4C0.2874
%
G90
G05
M72
T1
X39850Y-34500
X39900Y-30350
X40450Y-30900
X40530Y-34543
X40750Y-26200
X41002Y-33578
X41120Y-34543
X41250Y-33026
X41343Y-33692
X41671Y-30231
X41700Y-27200
X41711Y-34543
X42026Y-30094
X42070Y-32250
X42139Y-32757
X42301Y-34543
X42450Y-18900
X42702Y-22699
X42892Y-34543
X43400Y-31800
X43482Y-34543
X43600Y-18850
X43700Y-31100
X44073Y-34543
X44150Y-18500
X44650Y-29550
X44663Y-34543
X44879Y-30260
X44899Y-29881
X44900Y-26924
X44930Y-32234
X44939Y-26511
X44939Y-33617
X45020Y-32707
X45254Y-34543
X45300Y-29449
X45350Y-32500
X45353Y-33307
X45500Y-20150
X45600Y-31011
X45739Y-30535
X45766Y-27869
X45837Y-29211
X45844Y-34543
X45846Y-30170
X45868Y-31332
X45885Y-29588
X45997Y-22919
X46053Y-27319
X46321Y-30476
X46435Y-34543
X46800Y-16750
X46945Y-30170
X47026Y-34543
X47229Y-27053
X47234Y-30858
X47325Y-31870
X47342Y-24502
X47494Y-29707
X47600Y-27700
X47616Y-34543
X48050Y-17800
X48207Y-34543
X48250Y-29750
X48400Y-26400
X48561Y-30015
X48640Y-30812
X48699Y-28243
X48797Y-34543
X48876Y-28873
X49093Y-27850
X49100Y-26050
X49301Y-29008
X49388Y-34543
X49585Y-28342
X49600Y-20950
X49762Y-27421
X49978Y-34543
X50085Y-28383
X50150Y-17750
X50250Y-23650
X50333Y-30271
X50569Y-34543
X50772Y-30057
X50800Y-22250
X50850Y-19700
X50900Y-21850
X51159Y-34543
X51494Y-23125
X51750Y-34543
X51927Y-24208
X52144Y-31688
X52250Y-26150
X52341Y-34543
X52557Y-29070
X52931Y-34543
X53300Y-19950
X53522Y-34543
X54112Y-34543
X54300Y-24500
X54703Y-34543
X54950Y-23200
X55293Y-34543
X55550Y-24300
X55785Y-31885
X55884Y-34543
X56474Y-34543
X56600Y-20100
X56868Y-32968
X57065Y-34543
X57400Y-33755
X57852Y-34247
X57852Y-34641
X58285Y-34523
T2
X47776Y-15650
X50374Y-15650
T3
X49075Y-22559
T4
X49075Y-32421
T0
M30
