G04 #@! TF.GenerationSoftware,KiCad,Pcbnew,(5.0.0-rc2-dev-111-gc69db6c)*
G04 #@! TF.CreationDate,2018-06-11T00:16:04-07:00*
G04 #@! TF.ProjectId,pygameboy,707967616D65626F792E6B696361645F,rev?*
G04 #@! TF.SameCoordinates,Original*
G04 #@! TF.FileFunction,Copper,L2,Bot,Signal*
G04 #@! TF.FilePolarity,Positive*
%FSLAX46Y46*%
G04 Gerber Fmt 4.6, Leading zero omitted, Abs format (unit mm)*
G04 Created by KiCad (PCBNEW (5.0.0-rc2-dev-111-gc69db6c)) date Monday, June 11, 2018 at 12:16:04 AM*
%MOMM*%
%LPD*%
G01*
G04 APERTURE LIST*
%ADD10O,2.600000X1.600000*%
%ADD11C,7.400000*%
%ADD12C,2.300000*%
%ADD13C,0.762000*%
%ADD14C,0.203200*%
%ADD15C,0.254000*%
G04 APERTURE END LIST*
D10*
X128450000Y-39751000D03*
X120850000Y-39751000D03*
D11*
X124650000Y-82350000D03*
D12*
X124650000Y-57300000D03*
D13*
X108463541Y-57654581D03*
X129286000Y-55499000D03*
X141097000Y-61722000D03*
X115570000Y-51181000D03*
X132945000Y-87738000D03*
X134445000Y-87738000D03*
X135945000Y-87738000D03*
X148045000Y-87687994D03*
X123545025Y-78263338D03*
X127845000Y-76888000D03*
X114145000Y-85388000D03*
X104145000Y-85288000D03*
X127215011Y-72092149D03*
X132445000Y-80488000D03*
X120248818Y-62234191D03*
X146945000Y-87988000D03*
X146945000Y-86988000D03*
X120206079Y-80949810D03*
X127635000Y-60071000D03*
X135382000Y-50673000D03*
X143764000Y-51054000D03*
X102743000Y-78486000D03*
X116547596Y-75153434D03*
X110998000Y-78994000D03*
X107823000Y-48006000D03*
X118872000Y-42545000D03*
X116832971Y-58214019D03*
X120904000Y-70358000D03*
X103505000Y-66548000D03*
X137445000Y-87738000D03*
X138945000Y-87738000D03*
X140445000Y-87738000D03*
X141945000Y-87738000D03*
X143445000Y-87738000D03*
X114145000Y-67338000D03*
X119962239Y-68713644D03*
X116975010Y-69389916D03*
X119975274Y-78378094D03*
X110744000Y-47879000D03*
X112141000Y-46990000D03*
X122047000Y-45212000D03*
X127381000Y-45085000D03*
X113411000Y-75057000D03*
X102945000Y-87738000D03*
X104445000Y-87738000D03*
X105945000Y-87738000D03*
X107445000Y-87738000D03*
X105011950Y-85578771D03*
X104775000Y-83885190D03*
X108945000Y-87738000D03*
X110445000Y-87738000D03*
X111945000Y-87738000D03*
X113445000Y-87738000D03*
X114945000Y-87738000D03*
X116445000Y-87738000D03*
X117945000Y-87738000D03*
X119445000Y-87738000D03*
X120945000Y-87738000D03*
X122445000Y-87738000D03*
X123945000Y-87738000D03*
X125445000Y-87738000D03*
X126945000Y-87738000D03*
X128445000Y-87738000D03*
X129945000Y-87738000D03*
X131445000Y-87738000D03*
X144945000Y-87738000D03*
X141695000Y-80988000D03*
X144445000Y-83738000D03*
X124145000Y-73338000D03*
X126396489Y-69650469D03*
X133495000Y-73838000D03*
X128960399Y-76345824D03*
X129032000Y-56515000D03*
X137922000Y-62230000D03*
X125224823Y-73680906D03*
X125945000Y-71988000D03*
X115195537Y-84600694D03*
X124695000Y-70738000D03*
X123695000Y-71738000D03*
X123345000Y-76238000D03*
X106745000Y-76438000D03*
X105845000Y-76788000D03*
X114045000Y-68388000D03*
X116245000Y-70788000D03*
X145795000Y-85738000D03*
X116505943Y-79582057D03*
X115189000Y-82550000D03*
X114122190Y-81874717D03*
X115823985Y-78767350D03*
X119239189Y-76631810D03*
X114351494Y-83076310D03*
X117654182Y-77407992D03*
X113992320Y-76860501D03*
X116176032Y-77557817D03*
X114042707Y-75896589D03*
X116448327Y-76631810D03*
X115062703Y-74801241D03*
X116426642Y-74195831D03*
X120634644Y-75455118D03*
X110236000Y-80772000D03*
X106857810Y-81915000D03*
X107032488Y-83202606D03*
X122555000Y-75565000D03*
X124714000Y-66167000D03*
X122936000Y-67056000D03*
X129159000Y-50038000D03*
X125984000Y-53213000D03*
X101219000Y-87630000D03*
X101346000Y-77089000D03*
X105918000Y-69088000D03*
X132715000Y-66421000D03*
X139573000Y-58928000D03*
X130795000Y-58738000D03*
X131895000Y-61488000D03*
D14*
X115570000Y-51181000D02*
X114937122Y-51181000D01*
X108844540Y-57273582D02*
X108463541Y-57654581D01*
X114937122Y-51181000D02*
X108844540Y-57273582D01*
X129824815Y-55499000D02*
X129286000Y-55499000D01*
X134874000Y-55499000D02*
X129824815Y-55499000D01*
X141097000Y-61722000D02*
X134874000Y-55499000D01*
X114525999Y-67718999D02*
X114145000Y-67338000D01*
X116196916Y-69389916D02*
X114525999Y-67718999D01*
X116975010Y-69389916D02*
X116196916Y-69389916D01*
X119423424Y-68713644D02*
X119962239Y-68713644D01*
X116975010Y-69389916D02*
X117651282Y-68713644D01*
X117651282Y-68713644D02*
X119423424Y-68713644D01*
X115062000Y-75946000D02*
X120015000Y-75946000D01*
X120015000Y-75946000D02*
X120356273Y-76287273D01*
X120356273Y-77997095D02*
X119975274Y-78378094D01*
X114173000Y-75057000D02*
X115062000Y-75946000D01*
X120356273Y-76287273D02*
X120356273Y-77997095D01*
X113411000Y-75057000D02*
X114173000Y-75057000D01*
X112141000Y-46990000D02*
X111633000Y-46990000D01*
X111633000Y-46990000D02*
X110744000Y-47879000D01*
X127381000Y-45085000D02*
X122174000Y-45085000D01*
X122174000Y-45085000D02*
X122047000Y-45212000D01*
X105011950Y-85039956D02*
X105011950Y-85578771D01*
X104775000Y-84803006D02*
X105011950Y-85039956D01*
X104775000Y-83885190D02*
X104775000Y-84803006D01*
X144445000Y-83738000D02*
X141695000Y-80988000D01*
X124145000Y-72799185D02*
X124145000Y-73338000D01*
X124145000Y-72440773D02*
X124145000Y-72799185D01*
X126396489Y-70189284D02*
X124145000Y-72440773D01*
X126396489Y-69650469D02*
X126396489Y-70189284D01*
X132588000Y-74168000D02*
X133165000Y-74168000D01*
X133165000Y-74168000D02*
X133495000Y-73838000D01*
X128960399Y-76345824D02*
X130410176Y-76345824D01*
X130410176Y-76345824D02*
X132588000Y-74168000D01*
X137922000Y-62230000D02*
X132207000Y-56515000D01*
X132207000Y-56515000D02*
X129032000Y-56515000D01*
X125945000Y-72960729D02*
X125605822Y-73299907D01*
X125605822Y-73299907D02*
X125224823Y-73680906D01*
X125945000Y-71988000D02*
X125945000Y-72960729D01*
X115576536Y-84219695D02*
X115195537Y-84600694D01*
X117654182Y-80646565D02*
X116382767Y-81917980D01*
X117654182Y-77407992D02*
X117654182Y-80646565D01*
X116382767Y-81917980D02*
X116382767Y-83413464D01*
X116382767Y-83413464D02*
X115576536Y-84219695D01*
X114989980Y-85293178D02*
X115487322Y-85293178D01*
X121015643Y-78307607D02*
X121015643Y-75836117D01*
X116789178Y-82086320D02*
X119551320Y-79324178D01*
X114216999Y-84752999D02*
X114449801Y-84752999D01*
X116789178Y-83991322D02*
X116789178Y-82086320D01*
X114449801Y-84752999D02*
X114989980Y-85293178D01*
X115487322Y-85293178D02*
X116789178Y-83991322D01*
X119551320Y-79324178D02*
X119999072Y-79324178D01*
X119999072Y-79324178D02*
X121015643Y-78307607D01*
X110236000Y-80772000D02*
X114216999Y-84752999D01*
X121015643Y-75836117D02*
X120634644Y-75455118D01*
X123695000Y-71738000D02*
X124695000Y-70738000D01*
X121599489Y-78298511D02*
X121599489Y-75333511D01*
X106857810Y-81915000D02*
X110965811Y-86023001D01*
X119719660Y-79730589D02*
X120167411Y-79730589D01*
X123345000Y-75699185D02*
X123345000Y-76238000D01*
X115332249Y-86023001D02*
X117195589Y-84159661D01*
X110965811Y-86023001D02*
X115332249Y-86023001D01*
X123345000Y-75449185D02*
X123345000Y-75699185D01*
X121599489Y-75333511D02*
X122195000Y-74738000D01*
X117195589Y-82254660D02*
X119719660Y-79730589D01*
X122195000Y-74738000D02*
X122633815Y-74738000D01*
X122633815Y-74738000D02*
X123345000Y-75449185D01*
X117195589Y-84159661D02*
X117195589Y-82254660D01*
X120167411Y-79730589D02*
X121599489Y-78298511D01*
X106857810Y-81915000D02*
X106857810Y-76550810D01*
X106857810Y-76550810D02*
X106745000Y-76438000D01*
X106651489Y-82694489D02*
X105845000Y-81888000D01*
X105845000Y-81888000D02*
X105845000Y-76788000D01*
X107032488Y-83202606D02*
X106651489Y-82821607D01*
X106651489Y-82821607D02*
X106651489Y-82694489D01*
X122555000Y-77978000D02*
X120269000Y-80264000D01*
X122555000Y-75565000D02*
X122555000Y-77978000D01*
X117602000Y-84328000D02*
X115551388Y-86378612D01*
X115551388Y-86378612D02*
X110208494Y-86378612D01*
X120269000Y-80264000D02*
X119761000Y-80264000D01*
X119761000Y-80264000D02*
X117602000Y-82423000D01*
X110208494Y-86378612D02*
X107413487Y-83583605D01*
X107413487Y-83583605D02*
X107032488Y-83202606D01*
X117602000Y-82423000D02*
X117602000Y-84328000D01*
X116245000Y-70788000D02*
X114045000Y-68588000D01*
X114045000Y-68588000D02*
X114045000Y-68388000D01*
X116124944Y-79963056D02*
X116505943Y-79582057D01*
X115189000Y-80899000D02*
X116124944Y-79963056D01*
X115189000Y-82550000D02*
X115189000Y-80899000D01*
X114122190Y-81335902D02*
X114122190Y-81874717D01*
X114122190Y-80469145D02*
X114122190Y-81335902D01*
X115823985Y-78767350D02*
X114122190Y-80469145D01*
X118700374Y-76631810D02*
X119239189Y-76631810D01*
X116894296Y-78955422D02*
X116894296Y-77200744D01*
X114732493Y-83457309D02*
X115296679Y-83457309D01*
X117323266Y-76631810D02*
X118700374Y-76631810D01*
X117134128Y-76820948D02*
X117323266Y-76631810D01*
X116894296Y-77200744D02*
X117134128Y-76960912D01*
X117134128Y-76960912D02*
X117134128Y-76820948D01*
X114351494Y-83076310D02*
X114732493Y-83457309D01*
X117191745Y-79252871D02*
X116894296Y-78955422D01*
X115976356Y-82777632D02*
X115976356Y-81749640D01*
X117191745Y-80534251D02*
X117191745Y-79252871D01*
X115976356Y-81749640D02*
X117191745Y-80534251D01*
X115296679Y-83457309D02*
X115976356Y-82777632D01*
X114689636Y-77557817D02*
X114373319Y-77241500D01*
X116176032Y-77557817D02*
X114689636Y-77557817D01*
X114373319Y-77241500D02*
X113992320Y-76860501D01*
X114777928Y-76631810D02*
X114423706Y-76277588D01*
X114423706Y-76277588D02*
X114042707Y-75896589D01*
X116448327Y-76631810D02*
X114777928Y-76631810D01*
X115601518Y-74801241D02*
X115062703Y-74801241D01*
X116426642Y-74195831D02*
X115821232Y-74801241D01*
X115821232Y-74801241D02*
X115601518Y-74801241D01*
X122936000Y-67056000D02*
X123825000Y-67056000D01*
X123825000Y-67056000D02*
X124714000Y-66167000D01*
X125984000Y-53213000D02*
X129159000Y-50038000D01*
X101346000Y-87503000D02*
X101219000Y-87630000D01*
X101346000Y-77089000D02*
X101346000Y-87503000D01*
X131895000Y-59838000D02*
X130795000Y-58738000D01*
X131895000Y-61488000D02*
X131895000Y-59838000D01*
D15*
G36*
X119245500Y-38826104D02*
X118975633Y-39319181D01*
X118958096Y-39401961D01*
X119080085Y-39624000D01*
X120723000Y-39624000D01*
X120723000Y-39604000D01*
X120977000Y-39604000D01*
X120977000Y-39624000D01*
X122619915Y-39624000D01*
X122741904Y-39401961D01*
X122724367Y-39319181D01*
X122454500Y-38826104D01*
X122367332Y-38756000D01*
X126932668Y-38756000D01*
X126845500Y-38826104D01*
X126575633Y-39319181D01*
X126558096Y-39401961D01*
X126680085Y-39624000D01*
X128323000Y-39624000D01*
X128323000Y-39604000D01*
X128577000Y-39604000D01*
X128577000Y-39624000D01*
X130219915Y-39624000D01*
X130341904Y-39401961D01*
X130324367Y-39319181D01*
X130054500Y-38826104D01*
X129967332Y-38756000D01*
X142844001Y-38756000D01*
X142844000Y-42255091D01*
X142835067Y-42300000D01*
X142870458Y-42477922D01*
X142971243Y-42628757D01*
X143122078Y-42729542D01*
X143300000Y-42764933D01*
X143344909Y-42756000D01*
X148844000Y-42756000D01*
X148844001Y-97544000D01*
X100456000Y-97544000D01*
X100456000Y-87478429D01*
X100457000Y-87478429D01*
X100457000Y-87781571D01*
X100573008Y-88061638D01*
X100787362Y-88275992D01*
X101067429Y-88392000D01*
X101370571Y-88392000D01*
X101650638Y-88275992D01*
X101864992Y-88061638D01*
X101981000Y-87781571D01*
X101981000Y-87586429D01*
X102183000Y-87586429D01*
X102183000Y-87889571D01*
X102299008Y-88169638D01*
X102513362Y-88383992D01*
X102793429Y-88500000D01*
X103096571Y-88500000D01*
X103376638Y-88383992D01*
X103590992Y-88169638D01*
X103695000Y-87918541D01*
X103799008Y-88169638D01*
X104013362Y-88383992D01*
X104293429Y-88500000D01*
X104596571Y-88500000D01*
X104876638Y-88383992D01*
X105090992Y-88169638D01*
X105195000Y-87918541D01*
X105299008Y-88169638D01*
X105513362Y-88383992D01*
X105793429Y-88500000D01*
X106096571Y-88500000D01*
X106376638Y-88383992D01*
X106590992Y-88169638D01*
X106695000Y-87918541D01*
X106799008Y-88169638D01*
X107013362Y-88383992D01*
X107293429Y-88500000D01*
X107596571Y-88500000D01*
X107876638Y-88383992D01*
X108090992Y-88169638D01*
X108195000Y-87918541D01*
X108299008Y-88169638D01*
X108513362Y-88383992D01*
X108793429Y-88500000D01*
X109096571Y-88500000D01*
X109376638Y-88383992D01*
X109590992Y-88169638D01*
X109695000Y-87918541D01*
X109799008Y-88169638D01*
X110013362Y-88383992D01*
X110293429Y-88500000D01*
X110596571Y-88500000D01*
X110876638Y-88383992D01*
X111090992Y-88169638D01*
X111195000Y-87918541D01*
X111299008Y-88169638D01*
X111513362Y-88383992D01*
X111793429Y-88500000D01*
X112096571Y-88500000D01*
X112376638Y-88383992D01*
X112590992Y-88169638D01*
X112695000Y-87918541D01*
X112799008Y-88169638D01*
X113013362Y-88383992D01*
X113293429Y-88500000D01*
X113596571Y-88500000D01*
X113876638Y-88383992D01*
X114090992Y-88169638D01*
X114195000Y-87918541D01*
X114299008Y-88169638D01*
X114513362Y-88383992D01*
X114793429Y-88500000D01*
X115096571Y-88500000D01*
X115376638Y-88383992D01*
X115590992Y-88169638D01*
X115695000Y-87918541D01*
X115799008Y-88169638D01*
X116013362Y-88383992D01*
X116293429Y-88500000D01*
X116596571Y-88500000D01*
X116876638Y-88383992D01*
X117090992Y-88169638D01*
X117195000Y-87918541D01*
X117299008Y-88169638D01*
X117513362Y-88383992D01*
X117793429Y-88500000D01*
X118096571Y-88500000D01*
X118376638Y-88383992D01*
X118590992Y-88169638D01*
X118695000Y-87918541D01*
X118799008Y-88169638D01*
X119013362Y-88383992D01*
X119293429Y-88500000D01*
X119596571Y-88500000D01*
X119876638Y-88383992D01*
X120090992Y-88169638D01*
X120195000Y-87918541D01*
X120299008Y-88169638D01*
X120513362Y-88383992D01*
X120793429Y-88500000D01*
X121096571Y-88500000D01*
X121376638Y-88383992D01*
X121590992Y-88169638D01*
X121695000Y-87918541D01*
X121799008Y-88169638D01*
X122013362Y-88383992D01*
X122293429Y-88500000D01*
X122596571Y-88500000D01*
X122876638Y-88383992D01*
X123090992Y-88169638D01*
X123195000Y-87918541D01*
X123299008Y-88169638D01*
X123513362Y-88383992D01*
X123793429Y-88500000D01*
X124096571Y-88500000D01*
X124376638Y-88383992D01*
X124590992Y-88169638D01*
X124695000Y-87918541D01*
X124799008Y-88169638D01*
X125013362Y-88383992D01*
X125293429Y-88500000D01*
X125596571Y-88500000D01*
X125876638Y-88383992D01*
X126090992Y-88169638D01*
X126195000Y-87918541D01*
X126299008Y-88169638D01*
X126513362Y-88383992D01*
X126793429Y-88500000D01*
X127096571Y-88500000D01*
X127376638Y-88383992D01*
X127590992Y-88169638D01*
X127695000Y-87918541D01*
X127799008Y-88169638D01*
X128013362Y-88383992D01*
X128293429Y-88500000D01*
X128596571Y-88500000D01*
X128876638Y-88383992D01*
X129090992Y-88169638D01*
X129195000Y-87918541D01*
X129299008Y-88169638D01*
X129513362Y-88383992D01*
X129793429Y-88500000D01*
X130096571Y-88500000D01*
X130376638Y-88383992D01*
X130590992Y-88169638D01*
X130695000Y-87918541D01*
X130799008Y-88169638D01*
X131013362Y-88383992D01*
X131293429Y-88500000D01*
X131596571Y-88500000D01*
X131876638Y-88383992D01*
X132090992Y-88169638D01*
X132195000Y-87918541D01*
X132299008Y-88169638D01*
X132513362Y-88383992D01*
X132793429Y-88500000D01*
X133096571Y-88500000D01*
X133376638Y-88383992D01*
X133590992Y-88169638D01*
X133695000Y-87918541D01*
X133799008Y-88169638D01*
X134013362Y-88383992D01*
X134293429Y-88500000D01*
X134596571Y-88500000D01*
X134876638Y-88383992D01*
X135090992Y-88169638D01*
X135195000Y-87918541D01*
X135299008Y-88169638D01*
X135513362Y-88383992D01*
X135793429Y-88500000D01*
X136096571Y-88500000D01*
X136376638Y-88383992D01*
X136590992Y-88169638D01*
X136695000Y-87918541D01*
X136799008Y-88169638D01*
X137013362Y-88383992D01*
X137293429Y-88500000D01*
X137596571Y-88500000D01*
X137876638Y-88383992D01*
X138090992Y-88169638D01*
X138195000Y-87918541D01*
X138299008Y-88169638D01*
X138513362Y-88383992D01*
X138793429Y-88500000D01*
X139096571Y-88500000D01*
X139376638Y-88383992D01*
X139590992Y-88169638D01*
X139695000Y-87918541D01*
X139799008Y-88169638D01*
X140013362Y-88383992D01*
X140293429Y-88500000D01*
X140596571Y-88500000D01*
X140876638Y-88383992D01*
X141090992Y-88169638D01*
X141195000Y-87918541D01*
X141299008Y-88169638D01*
X141513362Y-88383992D01*
X141793429Y-88500000D01*
X142096571Y-88500000D01*
X142376638Y-88383992D01*
X142590992Y-88169638D01*
X142695000Y-87918541D01*
X142799008Y-88169638D01*
X143013362Y-88383992D01*
X143293429Y-88500000D01*
X143596571Y-88500000D01*
X143876638Y-88383992D01*
X144090992Y-88169638D01*
X144195000Y-87918541D01*
X144299008Y-88169638D01*
X144513362Y-88383992D01*
X144793429Y-88500000D01*
X145096571Y-88500000D01*
X145376638Y-88383992D01*
X145590992Y-88169638D01*
X145707000Y-87889571D01*
X145707000Y-87586429D01*
X145590992Y-87306362D01*
X145376638Y-87092008D01*
X145096571Y-86976000D01*
X144793429Y-86976000D01*
X144513362Y-87092008D01*
X144299008Y-87306362D01*
X144195000Y-87557459D01*
X144090992Y-87306362D01*
X143876638Y-87092008D01*
X143596571Y-86976000D01*
X143293429Y-86976000D01*
X143013362Y-87092008D01*
X142799008Y-87306362D01*
X142695000Y-87557459D01*
X142590992Y-87306362D01*
X142376638Y-87092008D01*
X142096571Y-86976000D01*
X141793429Y-86976000D01*
X141513362Y-87092008D01*
X141299008Y-87306362D01*
X141195000Y-87557459D01*
X141090992Y-87306362D01*
X140876638Y-87092008D01*
X140596571Y-86976000D01*
X140293429Y-86976000D01*
X140013362Y-87092008D01*
X139799008Y-87306362D01*
X139695000Y-87557459D01*
X139590992Y-87306362D01*
X139376638Y-87092008D01*
X139096571Y-86976000D01*
X138793429Y-86976000D01*
X138513362Y-87092008D01*
X138299008Y-87306362D01*
X138195000Y-87557459D01*
X138090992Y-87306362D01*
X137876638Y-87092008D01*
X137596571Y-86976000D01*
X137293429Y-86976000D01*
X137013362Y-87092008D01*
X136799008Y-87306362D01*
X136695000Y-87557459D01*
X136590992Y-87306362D01*
X136376638Y-87092008D01*
X136096571Y-86976000D01*
X135793429Y-86976000D01*
X135513362Y-87092008D01*
X135299008Y-87306362D01*
X135195000Y-87557459D01*
X135090992Y-87306362D01*
X134876638Y-87092008D01*
X134596571Y-86976000D01*
X134293429Y-86976000D01*
X134013362Y-87092008D01*
X133799008Y-87306362D01*
X133695000Y-87557459D01*
X133590992Y-87306362D01*
X133376638Y-87092008D01*
X133096571Y-86976000D01*
X132793429Y-86976000D01*
X132513362Y-87092008D01*
X132299008Y-87306362D01*
X132195000Y-87557459D01*
X132090992Y-87306362D01*
X131876638Y-87092008D01*
X131596571Y-86976000D01*
X131293429Y-86976000D01*
X131013362Y-87092008D01*
X130799008Y-87306362D01*
X130695000Y-87557459D01*
X130590992Y-87306362D01*
X130376638Y-87092008D01*
X130096571Y-86976000D01*
X129793429Y-86976000D01*
X129513362Y-87092008D01*
X129299008Y-87306362D01*
X129195000Y-87557459D01*
X129090992Y-87306362D01*
X128876638Y-87092008D01*
X128596571Y-86976000D01*
X128293429Y-86976000D01*
X128013362Y-87092008D01*
X127799008Y-87306362D01*
X127695000Y-87557459D01*
X127590992Y-87306362D01*
X127376638Y-87092008D01*
X127096571Y-86976000D01*
X126793429Y-86976000D01*
X126513362Y-87092008D01*
X126299008Y-87306362D01*
X126195000Y-87557459D01*
X126090992Y-87306362D01*
X125876638Y-87092008D01*
X125596571Y-86976000D01*
X125293429Y-86976000D01*
X125013362Y-87092008D01*
X124799008Y-87306362D01*
X124695000Y-87557459D01*
X124590992Y-87306362D01*
X124376638Y-87092008D01*
X124096571Y-86976000D01*
X123793429Y-86976000D01*
X123513362Y-87092008D01*
X123299008Y-87306362D01*
X123195000Y-87557459D01*
X123090992Y-87306362D01*
X122876638Y-87092008D01*
X122596571Y-86976000D01*
X122293429Y-86976000D01*
X122013362Y-87092008D01*
X121799008Y-87306362D01*
X121695000Y-87557459D01*
X121590992Y-87306362D01*
X121376638Y-87092008D01*
X121096571Y-86976000D01*
X120793429Y-86976000D01*
X120513362Y-87092008D01*
X120299008Y-87306362D01*
X120195000Y-87557459D01*
X120090992Y-87306362D01*
X119876638Y-87092008D01*
X119596571Y-86976000D01*
X119293429Y-86976000D01*
X119013362Y-87092008D01*
X118799008Y-87306362D01*
X118695000Y-87557459D01*
X118590992Y-87306362D01*
X118376638Y-87092008D01*
X118096571Y-86976000D01*
X117793429Y-86976000D01*
X117513362Y-87092008D01*
X117299008Y-87306362D01*
X117195000Y-87557459D01*
X117090992Y-87306362D01*
X116876638Y-87092008D01*
X116596571Y-86976000D01*
X116293429Y-86976000D01*
X116013362Y-87092008D01*
X115799008Y-87306362D01*
X115695000Y-87557459D01*
X115590992Y-87306362D01*
X115376638Y-87092008D01*
X115096571Y-86976000D01*
X114793429Y-86976000D01*
X114513362Y-87092008D01*
X114299008Y-87306362D01*
X114195000Y-87557459D01*
X114090992Y-87306362D01*
X113876638Y-87092008D01*
X113596571Y-86976000D01*
X113293429Y-86976000D01*
X113013362Y-87092008D01*
X112799008Y-87306362D01*
X112695000Y-87557459D01*
X112590992Y-87306362D01*
X112376638Y-87092008D01*
X112096571Y-86976000D01*
X111793429Y-86976000D01*
X111513362Y-87092008D01*
X111299008Y-87306362D01*
X111195000Y-87557459D01*
X111090992Y-87306362D01*
X110876638Y-87092008D01*
X110596571Y-86976000D01*
X110293429Y-86976000D01*
X110013362Y-87092008D01*
X109799008Y-87306362D01*
X109695000Y-87557459D01*
X109590992Y-87306362D01*
X109376638Y-87092008D01*
X109096571Y-86976000D01*
X108793429Y-86976000D01*
X108513362Y-87092008D01*
X108299008Y-87306362D01*
X108195000Y-87557459D01*
X108090992Y-87306362D01*
X107876638Y-87092008D01*
X107596571Y-86976000D01*
X107293429Y-86976000D01*
X107013362Y-87092008D01*
X106799008Y-87306362D01*
X106695000Y-87557459D01*
X106590992Y-87306362D01*
X106376638Y-87092008D01*
X106096571Y-86976000D01*
X105793429Y-86976000D01*
X105513362Y-87092008D01*
X105299008Y-87306362D01*
X105195000Y-87557459D01*
X105090992Y-87306362D01*
X104876638Y-87092008D01*
X104596571Y-86976000D01*
X104293429Y-86976000D01*
X104013362Y-87092008D01*
X103799008Y-87306362D01*
X103695000Y-87557459D01*
X103590992Y-87306362D01*
X103376638Y-87092008D01*
X103096571Y-86976000D01*
X102793429Y-86976000D01*
X102513362Y-87092008D01*
X102299008Y-87306362D01*
X102183000Y-87586429D01*
X101981000Y-87586429D01*
X101981000Y-87478429D01*
X101864992Y-87198362D01*
X101828600Y-87161970D01*
X101828600Y-83733619D01*
X104013000Y-83733619D01*
X104013000Y-84036761D01*
X104129008Y-84316828D01*
X104292401Y-84480221D01*
X104292401Y-84755474D01*
X104282946Y-84803006D01*
X104317268Y-84975551D01*
X104320402Y-84991307D01*
X104401064Y-85112027D01*
X104365958Y-85147133D01*
X104249950Y-85427200D01*
X104249950Y-85730342D01*
X104365958Y-86010409D01*
X104580312Y-86224763D01*
X104860379Y-86340771D01*
X105163521Y-86340771D01*
X105443588Y-86224763D01*
X105657942Y-86010409D01*
X105773950Y-85730342D01*
X105773950Y-85427200D01*
X105657942Y-85147133D01*
X105492393Y-84981584D01*
X105466549Y-84851654D01*
X105434043Y-84803006D01*
X105359885Y-84692021D01*
X105319587Y-84665095D01*
X105257600Y-84603108D01*
X105257600Y-84480220D01*
X105420992Y-84316828D01*
X105537000Y-84036761D01*
X105537000Y-83733619D01*
X105420992Y-83453552D01*
X105206638Y-83239198D01*
X104926571Y-83123190D01*
X104623429Y-83123190D01*
X104343362Y-83239198D01*
X104129008Y-83453552D01*
X104013000Y-83733619D01*
X101828600Y-83733619D01*
X101828600Y-77684030D01*
X101991992Y-77520638D01*
X102108000Y-77240571D01*
X102108000Y-76937429D01*
X101991992Y-76657362D01*
X101971059Y-76636429D01*
X105083000Y-76636429D01*
X105083000Y-76939571D01*
X105199008Y-77219638D01*
X105362401Y-77383031D01*
X105362400Y-81840472D01*
X105352946Y-81888000D01*
X105362400Y-81935528D01*
X105390401Y-82076300D01*
X105497065Y-82235935D01*
X105537363Y-82262861D01*
X106175159Y-82900659D01*
X106196890Y-83009907D01*
X106270488Y-83120055D01*
X106270488Y-83354177D01*
X106386496Y-83634244D01*
X106600850Y-83848598D01*
X106880917Y-83964606D01*
X107111990Y-83964606D01*
X109833634Y-86686251D01*
X109860559Y-86726547D01*
X110020192Y-86833210D01*
X110020193Y-86833211D01*
X110208494Y-86870666D01*
X110256023Y-86861212D01*
X115503860Y-86861212D01*
X115551388Y-86870666D01*
X115598916Y-86861212D01*
X115598917Y-86861212D01*
X115739689Y-86833211D01*
X115899323Y-86726547D01*
X115926250Y-86686248D01*
X117909639Y-84702860D01*
X117949935Y-84675935D01*
X118056599Y-84516301D01*
X118084600Y-84375529D01*
X118094054Y-84328001D01*
X118084600Y-84280473D01*
X118084600Y-82622898D01*
X119169259Y-81538239D01*
X120569000Y-81538239D01*
X120569000Y-83161761D01*
X121190295Y-84661701D01*
X122338299Y-85809705D01*
X123838239Y-86431000D01*
X125461761Y-86431000D01*
X126961701Y-85809705D01*
X127184977Y-85586429D01*
X145033000Y-85586429D01*
X145033000Y-85889571D01*
X145149008Y-86169638D01*
X145363362Y-86383992D01*
X145643429Y-86500000D01*
X145946571Y-86500000D01*
X146226638Y-86383992D01*
X146440992Y-86169638D01*
X146557000Y-85889571D01*
X146557000Y-85586429D01*
X146440992Y-85306362D01*
X146226638Y-85092008D01*
X145946571Y-84976000D01*
X145643429Y-84976000D01*
X145363362Y-85092008D01*
X145149008Y-85306362D01*
X145033000Y-85586429D01*
X127184977Y-85586429D01*
X128109705Y-84661701D01*
X128731000Y-83161761D01*
X128731000Y-81538239D01*
X128440302Y-80836429D01*
X140933000Y-80836429D01*
X140933000Y-81139571D01*
X141049008Y-81419638D01*
X141263362Y-81633992D01*
X141543429Y-81750000D01*
X141774502Y-81750000D01*
X143683000Y-83658499D01*
X143683000Y-83889571D01*
X143799008Y-84169638D01*
X144013362Y-84383992D01*
X144293429Y-84500000D01*
X144596571Y-84500000D01*
X144876638Y-84383992D01*
X145090992Y-84169638D01*
X145207000Y-83889571D01*
X145207000Y-83586429D01*
X145090992Y-83306362D01*
X144876638Y-83092008D01*
X144596571Y-82976000D01*
X144365499Y-82976000D01*
X142457000Y-81067502D01*
X142457000Y-80836429D01*
X142340992Y-80556362D01*
X142126638Y-80342008D01*
X141846571Y-80226000D01*
X141543429Y-80226000D01*
X141263362Y-80342008D01*
X141049008Y-80556362D01*
X140933000Y-80836429D01*
X128440302Y-80836429D01*
X128109705Y-80038299D01*
X126961701Y-78890295D01*
X125461761Y-78269000D01*
X123838239Y-78269000D01*
X122338299Y-78890295D01*
X121190295Y-80038299D01*
X120569000Y-81538239D01*
X119169259Y-81538239D01*
X119960899Y-80746600D01*
X120221472Y-80746600D01*
X120269000Y-80756054D01*
X120316528Y-80746600D01*
X120316529Y-80746600D01*
X120457301Y-80718599D01*
X120616935Y-80611935D01*
X120643862Y-80571636D01*
X122862639Y-78352860D01*
X122902935Y-78325935D01*
X123009599Y-78166301D01*
X123037600Y-78025529D01*
X123047054Y-77978001D01*
X123037600Y-77930473D01*
X123037600Y-76935453D01*
X123193429Y-77000000D01*
X123496571Y-77000000D01*
X123776638Y-76883992D01*
X123990992Y-76669638D01*
X124107000Y-76389571D01*
X124107000Y-76194253D01*
X128198399Y-76194253D01*
X128198399Y-76497395D01*
X128314407Y-76777462D01*
X128528761Y-76991816D01*
X128808828Y-77107824D01*
X129111970Y-77107824D01*
X129392037Y-76991816D01*
X129555429Y-76828424D01*
X130362648Y-76828424D01*
X130410176Y-76837878D01*
X130457704Y-76828424D01*
X130457705Y-76828424D01*
X130598477Y-76800423D01*
X130758111Y-76693759D01*
X130785038Y-76653460D01*
X132787899Y-74650600D01*
X133117472Y-74650600D01*
X133165000Y-74660054D01*
X133212528Y-74650600D01*
X133212529Y-74650600D01*
X133353301Y-74622599D01*
X133387123Y-74600000D01*
X133646571Y-74600000D01*
X133926638Y-74483992D01*
X134140992Y-74269638D01*
X134257000Y-73989571D01*
X134257000Y-73686429D01*
X134140992Y-73406362D01*
X133926638Y-73192008D01*
X133646571Y-73076000D01*
X133343429Y-73076000D01*
X133063362Y-73192008D01*
X132849008Y-73406362D01*
X132733426Y-73685400D01*
X132635527Y-73685400D01*
X132587999Y-73675946D01*
X132540471Y-73685400D01*
X132399699Y-73713401D01*
X132240065Y-73820065D01*
X132213140Y-73860361D01*
X130210278Y-75863224D01*
X129555429Y-75863224D01*
X129392037Y-75699832D01*
X129111970Y-75583824D01*
X128808828Y-75583824D01*
X128528761Y-75699832D01*
X128314407Y-75914186D01*
X128198399Y-76194253D01*
X124107000Y-76194253D01*
X124107000Y-76086429D01*
X123990992Y-75806362D01*
X123827600Y-75642970D01*
X123827600Y-75496712D01*
X123837054Y-75449184D01*
X123820237Y-75364641D01*
X123799599Y-75260884D01*
X123692935Y-75101250D01*
X123652639Y-75074326D01*
X123008677Y-74430364D01*
X122981750Y-74390065D01*
X122822116Y-74283401D01*
X122681344Y-74255400D01*
X122681343Y-74255400D01*
X122633815Y-74245946D01*
X122586287Y-74255400D01*
X122242529Y-74255400D01*
X122195000Y-74245946D01*
X122147471Y-74255400D01*
X122006699Y-74283401D01*
X121847065Y-74390065D01*
X121820140Y-74430361D01*
X121291850Y-74958651D01*
X121251555Y-74985576D01*
X121248021Y-74990865D01*
X121066282Y-74809126D01*
X120786215Y-74693118D01*
X120483073Y-74693118D01*
X120203006Y-74809126D01*
X119988652Y-75023480D01*
X119872644Y-75303547D01*
X119872644Y-75463400D01*
X115455311Y-75463400D01*
X115494341Y-75447233D01*
X115657733Y-75283841D01*
X115773704Y-75283841D01*
X115821232Y-75293295D01*
X115868760Y-75283841D01*
X115868761Y-75283841D01*
X116009533Y-75255840D01*
X116169167Y-75149176D01*
X116196094Y-75108878D01*
X116347140Y-74957831D01*
X116578213Y-74957831D01*
X116858280Y-74841823D01*
X117072634Y-74627469D01*
X117188642Y-74347402D01*
X117188642Y-74044260D01*
X117072634Y-73764193D01*
X116858280Y-73549839D01*
X116578213Y-73433831D01*
X116275071Y-73433831D01*
X115995004Y-73549839D01*
X115780650Y-73764193D01*
X115664642Y-74044260D01*
X115664642Y-74275333D01*
X115639533Y-74300441D01*
X115494341Y-74155249D01*
X115214274Y-74039241D01*
X114911132Y-74039241D01*
X114631065Y-74155249D01*
X114416711Y-74369603D01*
X114323405Y-74594863D01*
X114220529Y-74574400D01*
X114220528Y-74574400D01*
X114173000Y-74564946D01*
X114125472Y-74574400D01*
X114006030Y-74574400D01*
X113842638Y-74411008D01*
X113562571Y-74295000D01*
X113259429Y-74295000D01*
X112979362Y-74411008D01*
X112765008Y-74625362D01*
X112649000Y-74905429D01*
X112649000Y-75208571D01*
X112765008Y-75488638D01*
X112979362Y-75702992D01*
X113259429Y-75819000D01*
X113280707Y-75819000D01*
X113280707Y-76048160D01*
X113396715Y-76328227D01*
X113421840Y-76353352D01*
X113346328Y-76428863D01*
X113230320Y-76708930D01*
X113230320Y-77012072D01*
X113346328Y-77292139D01*
X113560682Y-77506493D01*
X113840749Y-77622501D01*
X114071822Y-77622501D01*
X114314776Y-77865456D01*
X114341701Y-77905752D01*
X114490760Y-78005350D01*
X114501335Y-78012416D01*
X114689636Y-78049871D01*
X114737165Y-78040417D01*
X115581002Y-78040417D01*
X115582980Y-78042395D01*
X115392347Y-78121358D01*
X115177993Y-78335712D01*
X115061985Y-78615779D01*
X115061985Y-78846851D01*
X113814554Y-80094283D01*
X113774255Y-80121210D01*
X113667591Y-80280845D01*
X113654641Y-80345950D01*
X113630136Y-80469145D01*
X113639590Y-80516673D01*
X113639591Y-81279686D01*
X113476198Y-81443079D01*
X113360190Y-81723146D01*
X113360190Y-82026288D01*
X113476198Y-82306355D01*
X113690552Y-82520709D01*
X113788778Y-82561396D01*
X113705502Y-82644672D01*
X113589494Y-82924739D01*
X113589494Y-83227881D01*
X113705502Y-83507948D01*
X113919856Y-83722302D01*
X114199923Y-83838310D01*
X114434045Y-83838310D01*
X114544192Y-83911908D01*
X114684964Y-83939909D01*
X114684965Y-83939909D01*
X114732493Y-83949363D01*
X114780021Y-83939909D01*
X114799612Y-83939909D01*
X114763899Y-83954702D01*
X114549545Y-84169056D01*
X114506788Y-84272280D01*
X114497330Y-84270399D01*
X114497329Y-84270399D01*
X114449801Y-84260945D01*
X114414472Y-84267973D01*
X110998000Y-80851502D01*
X110998000Y-80620429D01*
X110881992Y-80340362D01*
X110667638Y-80126008D01*
X110387571Y-80010000D01*
X110084429Y-80010000D01*
X109804362Y-80126008D01*
X109590008Y-80340362D01*
X109474000Y-80620429D01*
X109474000Y-80923571D01*
X109590008Y-81203638D01*
X109804362Y-81417992D01*
X110084429Y-81534000D01*
X110315502Y-81534000D01*
X113842139Y-85060638D01*
X113869064Y-85100934D01*
X114028698Y-85207598D01*
X114216999Y-85245053D01*
X114252329Y-85238025D01*
X114554704Y-85540401D01*
X111165711Y-85540401D01*
X107619810Y-81994502D01*
X107619810Y-81763429D01*
X107503802Y-81483362D01*
X107340410Y-81319970D01*
X107340410Y-76920220D01*
X107390992Y-76869638D01*
X107507000Y-76589571D01*
X107507000Y-76286429D01*
X107390992Y-76006362D01*
X107176638Y-75792008D01*
X106896571Y-75676000D01*
X106593429Y-75676000D01*
X106313362Y-75792008D01*
X106099008Y-76006362D01*
X106077063Y-76059341D01*
X105996571Y-76026000D01*
X105693429Y-76026000D01*
X105413362Y-76142008D01*
X105199008Y-76356362D01*
X105083000Y-76636429D01*
X101971059Y-76636429D01*
X101777638Y-76443008D01*
X101497571Y-76327000D01*
X101194429Y-76327000D01*
X100914362Y-76443008D01*
X100700008Y-76657362D01*
X100584000Y-76937429D01*
X100584000Y-77240571D01*
X100700008Y-77520638D01*
X100863400Y-77684030D01*
X100863401Y-86952512D01*
X100787362Y-86984008D01*
X100573008Y-87198362D01*
X100457000Y-87478429D01*
X100456000Y-87478429D01*
X100456000Y-71586429D01*
X122933000Y-71586429D01*
X122933000Y-71889571D01*
X123049008Y-72169638D01*
X123263362Y-72383992D01*
X123543429Y-72500000D01*
X123662400Y-72500000D01*
X123662400Y-72742970D01*
X123499008Y-72906362D01*
X123383000Y-73186429D01*
X123383000Y-73489571D01*
X123499008Y-73769638D01*
X123713362Y-73983992D01*
X123993429Y-74100000D01*
X124296571Y-74100000D01*
X124533060Y-74002043D01*
X124578831Y-74112544D01*
X124793185Y-74326898D01*
X125073252Y-74442906D01*
X125376394Y-74442906D01*
X125656461Y-74326898D01*
X125870815Y-74112544D01*
X125986823Y-73832477D01*
X125986823Y-73601404D01*
X126252639Y-73335589D01*
X126292935Y-73308664D01*
X126399599Y-73149030D01*
X126427600Y-73008258D01*
X126437054Y-72960730D01*
X126427600Y-72913202D01*
X126427600Y-72583030D01*
X126590992Y-72419638D01*
X126707000Y-72139571D01*
X126707000Y-71836429D01*
X126590992Y-71556362D01*
X126376638Y-71342008D01*
X126096571Y-71226000D01*
X126042272Y-71226000D01*
X126704128Y-70564144D01*
X126744424Y-70537219D01*
X126851088Y-70377585D01*
X126876932Y-70247656D01*
X127042481Y-70082107D01*
X127158489Y-69802040D01*
X127158489Y-69498898D01*
X127042481Y-69218831D01*
X126828127Y-69004477D01*
X126548060Y-68888469D01*
X126244918Y-68888469D01*
X125964851Y-69004477D01*
X125750497Y-69218831D01*
X125634489Y-69498898D01*
X125634489Y-69802040D01*
X125750497Y-70082107D01*
X125785832Y-70117442D01*
X125415950Y-70487325D01*
X125340992Y-70306362D01*
X125126638Y-70092008D01*
X124846571Y-69976000D01*
X124543429Y-69976000D01*
X124263362Y-70092008D01*
X124049008Y-70306362D01*
X123933000Y-70586429D01*
X123933000Y-70817501D01*
X123774501Y-70976000D01*
X123543429Y-70976000D01*
X123263362Y-71092008D01*
X123049008Y-71306362D01*
X122933000Y-71586429D01*
X100456000Y-71586429D01*
X100456000Y-68236429D01*
X113283000Y-68236429D01*
X113283000Y-68539571D01*
X113399008Y-68819638D01*
X113613362Y-69033992D01*
X113893429Y-69150000D01*
X113924502Y-69150000D01*
X115483000Y-70708499D01*
X115483000Y-70939571D01*
X115599008Y-71219638D01*
X115813362Y-71433992D01*
X116093429Y-71550000D01*
X116396571Y-71550000D01*
X116676638Y-71433992D01*
X116890992Y-71219638D01*
X117007000Y-70939571D01*
X117007000Y-70636429D01*
X116890992Y-70356362D01*
X116676638Y-70142008D01*
X116396571Y-70026000D01*
X116165499Y-70026000D01*
X115934475Y-69794976D01*
X116008615Y-69844515D01*
X116149387Y-69872516D01*
X116196915Y-69881970D01*
X116244443Y-69872516D01*
X116379980Y-69872516D01*
X116543372Y-70035908D01*
X116823439Y-70151916D01*
X117126581Y-70151916D01*
X117406648Y-70035908D01*
X117621002Y-69821554D01*
X117737010Y-69541487D01*
X117737010Y-69310415D01*
X117851181Y-69196244D01*
X119367209Y-69196244D01*
X119530601Y-69359636D01*
X119810668Y-69475644D01*
X120113810Y-69475644D01*
X120393877Y-69359636D01*
X120608231Y-69145282D01*
X120724239Y-68865215D01*
X120724239Y-68562073D01*
X120608231Y-68282006D01*
X120393877Y-68067652D01*
X120113810Y-67951644D01*
X119810668Y-67951644D01*
X119530601Y-68067652D01*
X119367209Y-68231044D01*
X117698809Y-68231044D01*
X117651281Y-68221590D01*
X117603753Y-68231044D01*
X117462981Y-68259045D01*
X117303347Y-68365709D01*
X117276422Y-68406005D01*
X117054511Y-68627916D01*
X116823439Y-68627916D01*
X116543372Y-68743924D01*
X116388397Y-68898899D01*
X114907000Y-67417502D01*
X114907000Y-67186429D01*
X114790992Y-66906362D01*
X114789059Y-66904429D01*
X122174000Y-66904429D01*
X122174000Y-67207571D01*
X122290008Y-67487638D01*
X122504362Y-67701992D01*
X122784429Y-67818000D01*
X123087571Y-67818000D01*
X123367638Y-67701992D01*
X123531030Y-67538600D01*
X123777472Y-67538600D01*
X123825000Y-67548054D01*
X123872528Y-67538600D01*
X123872529Y-67538600D01*
X124013301Y-67510599D01*
X124172935Y-67403935D01*
X124199862Y-67363636D01*
X124634499Y-66929000D01*
X124865571Y-66929000D01*
X125145638Y-66812992D01*
X125359992Y-66598638D01*
X125476000Y-66318571D01*
X125476000Y-66015429D01*
X125359992Y-65735362D01*
X125145638Y-65521008D01*
X124865571Y-65405000D01*
X124562429Y-65405000D01*
X124282362Y-65521008D01*
X124068008Y-65735362D01*
X123952000Y-66015429D01*
X123952000Y-66246501D01*
X123625102Y-66573400D01*
X123531030Y-66573400D01*
X123367638Y-66410008D01*
X123087571Y-66294000D01*
X122784429Y-66294000D01*
X122504362Y-66410008D01*
X122290008Y-66624362D01*
X122174000Y-66904429D01*
X114789059Y-66904429D01*
X114576638Y-66692008D01*
X114296571Y-66576000D01*
X113993429Y-66576000D01*
X113713362Y-66692008D01*
X113499008Y-66906362D01*
X113383000Y-67186429D01*
X113383000Y-67489571D01*
X113499008Y-67769638D01*
X113542370Y-67813000D01*
X113399008Y-67956362D01*
X113283000Y-68236429D01*
X100456000Y-68236429D01*
X100456000Y-57503010D01*
X107701541Y-57503010D01*
X107701541Y-57806152D01*
X107817549Y-58086219D01*
X108031903Y-58300573D01*
X108311970Y-58416581D01*
X108615112Y-58416581D01*
X108895179Y-58300573D01*
X109109533Y-58086219D01*
X109225541Y-57806152D01*
X109225541Y-57575079D01*
X109805155Y-56995465D01*
X123119000Y-56995465D01*
X123119000Y-57604535D01*
X123352081Y-58167242D01*
X123782758Y-58597919D01*
X124345465Y-58831000D01*
X124954535Y-58831000D01*
X125517242Y-58597919D01*
X125528732Y-58586429D01*
X130033000Y-58586429D01*
X130033000Y-58889571D01*
X130149008Y-59169638D01*
X130363362Y-59383992D01*
X130643429Y-59500000D01*
X130874502Y-59500000D01*
X131412401Y-60037900D01*
X131412400Y-60892970D01*
X131249008Y-61056362D01*
X131133000Y-61336429D01*
X131133000Y-61639571D01*
X131249008Y-61919638D01*
X131463362Y-62133992D01*
X131743429Y-62250000D01*
X132046571Y-62250000D01*
X132326638Y-62133992D01*
X132540992Y-61919638D01*
X132657000Y-61639571D01*
X132657000Y-61336429D01*
X132540992Y-61056362D01*
X132377600Y-60892970D01*
X132377600Y-59885529D01*
X132387054Y-59838000D01*
X132349599Y-59649698D01*
X132315936Y-59599319D01*
X132242935Y-59490065D01*
X132202639Y-59463140D01*
X131557000Y-58817502D01*
X131557000Y-58586429D01*
X131440992Y-58306362D01*
X131226638Y-58092008D01*
X130946571Y-57976000D01*
X130643429Y-57976000D01*
X130363362Y-58092008D01*
X130149008Y-58306362D01*
X130033000Y-58586429D01*
X125528732Y-58586429D01*
X125947919Y-58167242D01*
X126181000Y-57604535D01*
X126181000Y-56995465D01*
X125947919Y-56432758D01*
X125878590Y-56363429D01*
X128270000Y-56363429D01*
X128270000Y-56666571D01*
X128386008Y-56946638D01*
X128600362Y-57160992D01*
X128880429Y-57277000D01*
X129183571Y-57277000D01*
X129463638Y-57160992D01*
X129627030Y-56997600D01*
X132007102Y-56997600D01*
X137160000Y-62150500D01*
X137160000Y-62381571D01*
X137276008Y-62661638D01*
X137490362Y-62875992D01*
X137770429Y-62992000D01*
X138073571Y-62992000D01*
X138353638Y-62875992D01*
X138567992Y-62661638D01*
X138684000Y-62381571D01*
X138684000Y-62078429D01*
X138567992Y-61798362D01*
X138353638Y-61584008D01*
X138073571Y-61468000D01*
X137842500Y-61468000D01*
X132581862Y-56207364D01*
X132554935Y-56167065D01*
X132395301Y-56060401D01*
X132254529Y-56032400D01*
X132254528Y-56032400D01*
X132207000Y-56022946D01*
X132159472Y-56032400D01*
X129830230Y-56032400D01*
X129881030Y-55981600D01*
X134674102Y-55981600D01*
X140335000Y-61642499D01*
X140335000Y-61873571D01*
X140451008Y-62153638D01*
X140665362Y-62367992D01*
X140945429Y-62484000D01*
X141248571Y-62484000D01*
X141528638Y-62367992D01*
X141742992Y-62153638D01*
X141859000Y-61873571D01*
X141859000Y-61570429D01*
X141742992Y-61290362D01*
X141528638Y-61076008D01*
X141248571Y-60960000D01*
X141017499Y-60960000D01*
X135248862Y-55191364D01*
X135221935Y-55151065D01*
X135062301Y-55044401D01*
X134921529Y-55016400D01*
X134921528Y-55016400D01*
X134874000Y-55006946D01*
X134826472Y-55016400D01*
X129881030Y-55016400D01*
X129717638Y-54853008D01*
X129437571Y-54737000D01*
X129134429Y-54737000D01*
X128854362Y-54853008D01*
X128640008Y-55067362D01*
X128524000Y-55347429D01*
X128524000Y-55650571D01*
X128612412Y-55864017D01*
X128600362Y-55869008D01*
X128386008Y-56083362D01*
X128270000Y-56363429D01*
X125878590Y-56363429D01*
X125517242Y-56002081D01*
X124954535Y-55769000D01*
X124345465Y-55769000D01*
X123782758Y-56002081D01*
X123352081Y-56432758D01*
X123119000Y-56995465D01*
X109805155Y-56995465D01*
X113739191Y-53061429D01*
X125222000Y-53061429D01*
X125222000Y-53364571D01*
X125338008Y-53644638D01*
X125552362Y-53858992D01*
X125832429Y-53975000D01*
X126135571Y-53975000D01*
X126415638Y-53858992D01*
X126629992Y-53644638D01*
X126746000Y-53364571D01*
X126746000Y-53133498D01*
X129079499Y-50800000D01*
X129310571Y-50800000D01*
X129590638Y-50683992D01*
X129804992Y-50469638D01*
X129921000Y-50189571D01*
X129921000Y-49886429D01*
X129804992Y-49606362D01*
X129590638Y-49392008D01*
X129310571Y-49276000D01*
X129007429Y-49276000D01*
X128727362Y-49392008D01*
X128513008Y-49606362D01*
X128397000Y-49886429D01*
X128397000Y-50117501D01*
X126063502Y-52451000D01*
X125832429Y-52451000D01*
X125552362Y-52567008D01*
X125338008Y-52781362D01*
X125222000Y-53061429D01*
X113739191Y-53061429D01*
X115055995Y-51744625D01*
X115138362Y-51826992D01*
X115418429Y-51943000D01*
X115721571Y-51943000D01*
X116001638Y-51826992D01*
X116215992Y-51612638D01*
X116332000Y-51332571D01*
X116332000Y-51029429D01*
X116215992Y-50749362D01*
X116001638Y-50535008D01*
X115721571Y-50419000D01*
X115418429Y-50419000D01*
X115138362Y-50535008D01*
X114976576Y-50696794D01*
X114937121Y-50688946D01*
X114889593Y-50698400D01*
X114748821Y-50726401D01*
X114589187Y-50833065D01*
X114562262Y-50873361D01*
X108543043Y-56892581D01*
X108311970Y-56892581D01*
X108031903Y-57008589D01*
X107817549Y-57222943D01*
X107701541Y-57503010D01*
X100456000Y-57503010D01*
X100456000Y-47727429D01*
X109982000Y-47727429D01*
X109982000Y-48030571D01*
X110098008Y-48310638D01*
X110312362Y-48524992D01*
X110592429Y-48641000D01*
X110895571Y-48641000D01*
X111175638Y-48524992D01*
X111389992Y-48310638D01*
X111506000Y-48030571D01*
X111506000Y-47799498D01*
X111689434Y-47616064D01*
X111709362Y-47635992D01*
X111989429Y-47752000D01*
X112292571Y-47752000D01*
X112572638Y-47635992D01*
X112786992Y-47421638D01*
X112903000Y-47141571D01*
X112903000Y-46838429D01*
X112786992Y-46558362D01*
X112572638Y-46344008D01*
X112292571Y-46228000D01*
X111989429Y-46228000D01*
X111709362Y-46344008D01*
X111536162Y-46517208D01*
X111444698Y-46535401D01*
X111410335Y-46558362D01*
X111285065Y-46642065D01*
X111258140Y-46682361D01*
X110823502Y-47117000D01*
X110592429Y-47117000D01*
X110312362Y-47233008D01*
X110098008Y-47447362D01*
X109982000Y-47727429D01*
X100456000Y-47727429D01*
X100456000Y-45060429D01*
X121285000Y-45060429D01*
X121285000Y-45363571D01*
X121401008Y-45643638D01*
X121615362Y-45857992D01*
X121895429Y-45974000D01*
X122198571Y-45974000D01*
X122478638Y-45857992D01*
X122692992Y-45643638D01*
X122724488Y-45567600D01*
X126785970Y-45567600D01*
X126949362Y-45730992D01*
X127229429Y-45847000D01*
X127532571Y-45847000D01*
X127812638Y-45730992D01*
X128026992Y-45516638D01*
X128143000Y-45236571D01*
X128143000Y-44933429D01*
X128026992Y-44653362D01*
X127812638Y-44439008D01*
X127532571Y-44323000D01*
X127229429Y-44323000D01*
X126949362Y-44439008D01*
X126785970Y-44602400D01*
X122515030Y-44602400D01*
X122478638Y-44566008D01*
X122198571Y-44450000D01*
X121895429Y-44450000D01*
X121615362Y-44566008D01*
X121401008Y-44780362D01*
X121285000Y-45060429D01*
X100456000Y-45060429D01*
X100456000Y-40100039D01*
X118958096Y-40100039D01*
X118975633Y-40182819D01*
X119245500Y-40675896D01*
X119683517Y-41028166D01*
X120223000Y-41186000D01*
X120723000Y-41186000D01*
X120723000Y-39878000D01*
X120977000Y-39878000D01*
X120977000Y-41186000D01*
X121477000Y-41186000D01*
X122016483Y-41028166D01*
X122454500Y-40675896D01*
X122724367Y-40182819D01*
X122741904Y-40100039D01*
X126558096Y-40100039D01*
X126575633Y-40182819D01*
X126845500Y-40675896D01*
X127283517Y-41028166D01*
X127823000Y-41186000D01*
X128323000Y-41186000D01*
X128323000Y-39878000D01*
X128577000Y-39878000D01*
X128577000Y-41186000D01*
X129077000Y-41186000D01*
X129616483Y-41028166D01*
X130054500Y-40675896D01*
X130324367Y-40182819D01*
X130341904Y-40100039D01*
X130219915Y-39878000D01*
X128577000Y-39878000D01*
X128323000Y-39878000D01*
X126680085Y-39878000D01*
X126558096Y-40100039D01*
X122741904Y-40100039D01*
X122619915Y-39878000D01*
X120977000Y-39878000D01*
X120723000Y-39878000D01*
X119080085Y-39878000D01*
X118958096Y-40100039D01*
X100456000Y-40100039D01*
X100456000Y-38756000D01*
X119332668Y-38756000D01*
X119245500Y-38826104D01*
X119245500Y-38826104D01*
G37*
X119245500Y-38826104D02*
X118975633Y-39319181D01*
X118958096Y-39401961D01*
X119080085Y-39624000D01*
X120723000Y-39624000D01*
X120723000Y-39604000D01*
X120977000Y-39604000D01*
X120977000Y-39624000D01*
X122619915Y-39624000D01*
X122741904Y-39401961D01*
X122724367Y-39319181D01*
X122454500Y-38826104D01*
X122367332Y-38756000D01*
X126932668Y-38756000D01*
X126845500Y-38826104D01*
X126575633Y-39319181D01*
X126558096Y-39401961D01*
X126680085Y-39624000D01*
X128323000Y-39624000D01*
X128323000Y-39604000D01*
X128577000Y-39604000D01*
X128577000Y-39624000D01*
X130219915Y-39624000D01*
X130341904Y-39401961D01*
X130324367Y-39319181D01*
X130054500Y-38826104D01*
X129967332Y-38756000D01*
X142844001Y-38756000D01*
X142844000Y-42255091D01*
X142835067Y-42300000D01*
X142870458Y-42477922D01*
X142971243Y-42628757D01*
X143122078Y-42729542D01*
X143300000Y-42764933D01*
X143344909Y-42756000D01*
X148844000Y-42756000D01*
X148844001Y-97544000D01*
X100456000Y-97544000D01*
X100456000Y-87478429D01*
X100457000Y-87478429D01*
X100457000Y-87781571D01*
X100573008Y-88061638D01*
X100787362Y-88275992D01*
X101067429Y-88392000D01*
X101370571Y-88392000D01*
X101650638Y-88275992D01*
X101864992Y-88061638D01*
X101981000Y-87781571D01*
X101981000Y-87586429D01*
X102183000Y-87586429D01*
X102183000Y-87889571D01*
X102299008Y-88169638D01*
X102513362Y-88383992D01*
X102793429Y-88500000D01*
X103096571Y-88500000D01*
X103376638Y-88383992D01*
X103590992Y-88169638D01*
X103695000Y-87918541D01*
X103799008Y-88169638D01*
X104013362Y-88383992D01*
X104293429Y-88500000D01*
X104596571Y-88500000D01*
X104876638Y-88383992D01*
X105090992Y-88169638D01*
X105195000Y-87918541D01*
X105299008Y-88169638D01*
X105513362Y-88383992D01*
X105793429Y-88500000D01*
X106096571Y-88500000D01*
X106376638Y-88383992D01*
X106590992Y-88169638D01*
X106695000Y-87918541D01*
X106799008Y-88169638D01*
X107013362Y-88383992D01*
X107293429Y-88500000D01*
X107596571Y-88500000D01*
X107876638Y-88383992D01*
X108090992Y-88169638D01*
X108195000Y-87918541D01*
X108299008Y-88169638D01*
X108513362Y-88383992D01*
X108793429Y-88500000D01*
X109096571Y-88500000D01*
X109376638Y-88383992D01*
X109590992Y-88169638D01*
X109695000Y-87918541D01*
X109799008Y-88169638D01*
X110013362Y-88383992D01*
X110293429Y-88500000D01*
X110596571Y-88500000D01*
X110876638Y-88383992D01*
X111090992Y-88169638D01*
X111195000Y-87918541D01*
X111299008Y-88169638D01*
X111513362Y-88383992D01*
X111793429Y-88500000D01*
X112096571Y-88500000D01*
X112376638Y-88383992D01*
X112590992Y-88169638D01*
X112695000Y-87918541D01*
X112799008Y-88169638D01*
X113013362Y-88383992D01*
X113293429Y-88500000D01*
X113596571Y-88500000D01*
X113876638Y-88383992D01*
X114090992Y-88169638D01*
X114195000Y-87918541D01*
X114299008Y-88169638D01*
X114513362Y-88383992D01*
X114793429Y-88500000D01*
X115096571Y-88500000D01*
X115376638Y-88383992D01*
X115590992Y-88169638D01*
X115695000Y-87918541D01*
X115799008Y-88169638D01*
X116013362Y-88383992D01*
X116293429Y-88500000D01*
X116596571Y-88500000D01*
X116876638Y-88383992D01*
X117090992Y-88169638D01*
X117195000Y-87918541D01*
X117299008Y-88169638D01*
X117513362Y-88383992D01*
X117793429Y-88500000D01*
X118096571Y-88500000D01*
X118376638Y-88383992D01*
X118590992Y-88169638D01*
X118695000Y-87918541D01*
X118799008Y-88169638D01*
X119013362Y-88383992D01*
X119293429Y-88500000D01*
X119596571Y-88500000D01*
X119876638Y-88383992D01*
X120090992Y-88169638D01*
X120195000Y-87918541D01*
X120299008Y-88169638D01*
X120513362Y-88383992D01*
X120793429Y-88500000D01*
X121096571Y-88500000D01*
X121376638Y-88383992D01*
X121590992Y-88169638D01*
X121695000Y-87918541D01*
X121799008Y-88169638D01*
X122013362Y-88383992D01*
X122293429Y-88500000D01*
X122596571Y-88500000D01*
X122876638Y-88383992D01*
X123090992Y-88169638D01*
X123195000Y-87918541D01*
X123299008Y-88169638D01*
X123513362Y-88383992D01*
X123793429Y-88500000D01*
X124096571Y-88500000D01*
X124376638Y-88383992D01*
X124590992Y-88169638D01*
X124695000Y-87918541D01*
X124799008Y-88169638D01*
X125013362Y-88383992D01*
X125293429Y-88500000D01*
X125596571Y-88500000D01*
X125876638Y-88383992D01*
X126090992Y-88169638D01*
X126195000Y-87918541D01*
X126299008Y-88169638D01*
X126513362Y-88383992D01*
X126793429Y-88500000D01*
X127096571Y-88500000D01*
X127376638Y-88383992D01*
X127590992Y-88169638D01*
X127695000Y-87918541D01*
X127799008Y-88169638D01*
X128013362Y-88383992D01*
X128293429Y-88500000D01*
X128596571Y-88500000D01*
X128876638Y-88383992D01*
X129090992Y-88169638D01*
X129195000Y-87918541D01*
X129299008Y-88169638D01*
X129513362Y-88383992D01*
X129793429Y-88500000D01*
X130096571Y-88500000D01*
X130376638Y-88383992D01*
X130590992Y-88169638D01*
X130695000Y-87918541D01*
X130799008Y-88169638D01*
X131013362Y-88383992D01*
X131293429Y-88500000D01*
X131596571Y-88500000D01*
X131876638Y-88383992D01*
X132090992Y-88169638D01*
X132195000Y-87918541D01*
X132299008Y-88169638D01*
X132513362Y-88383992D01*
X132793429Y-88500000D01*
X133096571Y-88500000D01*
X133376638Y-88383992D01*
X133590992Y-88169638D01*
X133695000Y-87918541D01*
X133799008Y-88169638D01*
X134013362Y-88383992D01*
X134293429Y-88500000D01*
X134596571Y-88500000D01*
X134876638Y-88383992D01*
X135090992Y-88169638D01*
X135195000Y-87918541D01*
X135299008Y-88169638D01*
X135513362Y-88383992D01*
X135793429Y-88500000D01*
X136096571Y-88500000D01*
X136376638Y-88383992D01*
X136590992Y-88169638D01*
X136695000Y-87918541D01*
X136799008Y-88169638D01*
X137013362Y-88383992D01*
X137293429Y-88500000D01*
X137596571Y-88500000D01*
X137876638Y-88383992D01*
X138090992Y-88169638D01*
X138195000Y-87918541D01*
X138299008Y-88169638D01*
X138513362Y-88383992D01*
X138793429Y-88500000D01*
X139096571Y-88500000D01*
X139376638Y-88383992D01*
X139590992Y-88169638D01*
X139695000Y-87918541D01*
X139799008Y-88169638D01*
X140013362Y-88383992D01*
X140293429Y-88500000D01*
X140596571Y-88500000D01*
X140876638Y-88383992D01*
X141090992Y-88169638D01*
X141195000Y-87918541D01*
X141299008Y-88169638D01*
X141513362Y-88383992D01*
X141793429Y-88500000D01*
X142096571Y-88500000D01*
X142376638Y-88383992D01*
X142590992Y-88169638D01*
X142695000Y-87918541D01*
X142799008Y-88169638D01*
X143013362Y-88383992D01*
X143293429Y-88500000D01*
X143596571Y-88500000D01*
X143876638Y-88383992D01*
X144090992Y-88169638D01*
X144195000Y-87918541D01*
X144299008Y-88169638D01*
X144513362Y-88383992D01*
X144793429Y-88500000D01*
X145096571Y-88500000D01*
X145376638Y-88383992D01*
X145590992Y-88169638D01*
X145707000Y-87889571D01*
X145707000Y-87586429D01*
X145590992Y-87306362D01*
X145376638Y-87092008D01*
X145096571Y-86976000D01*
X144793429Y-86976000D01*
X144513362Y-87092008D01*
X144299008Y-87306362D01*
X144195000Y-87557459D01*
X144090992Y-87306362D01*
X143876638Y-87092008D01*
X143596571Y-86976000D01*
X143293429Y-86976000D01*
X143013362Y-87092008D01*
X142799008Y-87306362D01*
X142695000Y-87557459D01*
X142590992Y-87306362D01*
X142376638Y-87092008D01*
X142096571Y-86976000D01*
X141793429Y-86976000D01*
X141513362Y-87092008D01*
X141299008Y-87306362D01*
X141195000Y-87557459D01*
X141090992Y-87306362D01*
X140876638Y-87092008D01*
X140596571Y-86976000D01*
X140293429Y-86976000D01*
X140013362Y-87092008D01*
X139799008Y-87306362D01*
X139695000Y-87557459D01*
X139590992Y-87306362D01*
X139376638Y-87092008D01*
X139096571Y-86976000D01*
X138793429Y-86976000D01*
X138513362Y-87092008D01*
X138299008Y-87306362D01*
X138195000Y-87557459D01*
X138090992Y-87306362D01*
X137876638Y-87092008D01*
X137596571Y-86976000D01*
X137293429Y-86976000D01*
X137013362Y-87092008D01*
X136799008Y-87306362D01*
X136695000Y-87557459D01*
X136590992Y-87306362D01*
X136376638Y-87092008D01*
X136096571Y-86976000D01*
X135793429Y-86976000D01*
X135513362Y-87092008D01*
X135299008Y-87306362D01*
X135195000Y-87557459D01*
X135090992Y-87306362D01*
X134876638Y-87092008D01*
X134596571Y-86976000D01*
X134293429Y-86976000D01*
X134013362Y-87092008D01*
X133799008Y-87306362D01*
X133695000Y-87557459D01*
X133590992Y-87306362D01*
X133376638Y-87092008D01*
X133096571Y-86976000D01*
X132793429Y-86976000D01*
X132513362Y-87092008D01*
X132299008Y-87306362D01*
X132195000Y-87557459D01*
X132090992Y-87306362D01*
X131876638Y-87092008D01*
X131596571Y-86976000D01*
X131293429Y-86976000D01*
X131013362Y-87092008D01*
X130799008Y-87306362D01*
X130695000Y-87557459D01*
X130590992Y-87306362D01*
X130376638Y-87092008D01*
X130096571Y-86976000D01*
X129793429Y-86976000D01*
X129513362Y-87092008D01*
X129299008Y-87306362D01*
X129195000Y-87557459D01*
X129090992Y-87306362D01*
X128876638Y-87092008D01*
X128596571Y-86976000D01*
X128293429Y-86976000D01*
X128013362Y-87092008D01*
X127799008Y-87306362D01*
X127695000Y-87557459D01*
X127590992Y-87306362D01*
X127376638Y-87092008D01*
X127096571Y-86976000D01*
X126793429Y-86976000D01*
X126513362Y-87092008D01*
X126299008Y-87306362D01*
X126195000Y-87557459D01*
X126090992Y-87306362D01*
X125876638Y-87092008D01*
X125596571Y-86976000D01*
X125293429Y-86976000D01*
X125013362Y-87092008D01*
X124799008Y-87306362D01*
X124695000Y-87557459D01*
X124590992Y-87306362D01*
X124376638Y-87092008D01*
X124096571Y-86976000D01*
X123793429Y-86976000D01*
X123513362Y-87092008D01*
X123299008Y-87306362D01*
X123195000Y-87557459D01*
X123090992Y-87306362D01*
X122876638Y-87092008D01*
X122596571Y-86976000D01*
X122293429Y-86976000D01*
X122013362Y-87092008D01*
X121799008Y-87306362D01*
X121695000Y-87557459D01*
X121590992Y-87306362D01*
X121376638Y-87092008D01*
X121096571Y-86976000D01*
X120793429Y-86976000D01*
X120513362Y-87092008D01*
X120299008Y-87306362D01*
X120195000Y-87557459D01*
X120090992Y-87306362D01*
X119876638Y-87092008D01*
X119596571Y-86976000D01*
X119293429Y-86976000D01*
X119013362Y-87092008D01*
X118799008Y-87306362D01*
X118695000Y-87557459D01*
X118590992Y-87306362D01*
X118376638Y-87092008D01*
X118096571Y-86976000D01*
X117793429Y-86976000D01*
X117513362Y-87092008D01*
X117299008Y-87306362D01*
X117195000Y-87557459D01*
X117090992Y-87306362D01*
X116876638Y-87092008D01*
X116596571Y-86976000D01*
X116293429Y-86976000D01*
X116013362Y-87092008D01*
X115799008Y-87306362D01*
X115695000Y-87557459D01*
X115590992Y-87306362D01*
X115376638Y-87092008D01*
X115096571Y-86976000D01*
X114793429Y-86976000D01*
X114513362Y-87092008D01*
X114299008Y-87306362D01*
X114195000Y-87557459D01*
X114090992Y-87306362D01*
X113876638Y-87092008D01*
X113596571Y-86976000D01*
X113293429Y-86976000D01*
X113013362Y-87092008D01*
X112799008Y-87306362D01*
X112695000Y-87557459D01*
X112590992Y-87306362D01*
X112376638Y-87092008D01*
X112096571Y-86976000D01*
X111793429Y-86976000D01*
X111513362Y-87092008D01*
X111299008Y-87306362D01*
X111195000Y-87557459D01*
X111090992Y-87306362D01*
X110876638Y-87092008D01*
X110596571Y-86976000D01*
X110293429Y-86976000D01*
X110013362Y-87092008D01*
X109799008Y-87306362D01*
X109695000Y-87557459D01*
X109590992Y-87306362D01*
X109376638Y-87092008D01*
X109096571Y-86976000D01*
X108793429Y-86976000D01*
X108513362Y-87092008D01*
X108299008Y-87306362D01*
X108195000Y-87557459D01*
X108090992Y-87306362D01*
X107876638Y-87092008D01*
X107596571Y-86976000D01*
X107293429Y-86976000D01*
X107013362Y-87092008D01*
X106799008Y-87306362D01*
X106695000Y-87557459D01*
X106590992Y-87306362D01*
X106376638Y-87092008D01*
X106096571Y-86976000D01*
X105793429Y-86976000D01*
X105513362Y-87092008D01*
X105299008Y-87306362D01*
X105195000Y-87557459D01*
X105090992Y-87306362D01*
X104876638Y-87092008D01*
X104596571Y-86976000D01*
X104293429Y-86976000D01*
X104013362Y-87092008D01*
X103799008Y-87306362D01*
X103695000Y-87557459D01*
X103590992Y-87306362D01*
X103376638Y-87092008D01*
X103096571Y-86976000D01*
X102793429Y-86976000D01*
X102513362Y-87092008D01*
X102299008Y-87306362D01*
X102183000Y-87586429D01*
X101981000Y-87586429D01*
X101981000Y-87478429D01*
X101864992Y-87198362D01*
X101828600Y-87161970D01*
X101828600Y-83733619D01*
X104013000Y-83733619D01*
X104013000Y-84036761D01*
X104129008Y-84316828D01*
X104292401Y-84480221D01*
X104292401Y-84755474D01*
X104282946Y-84803006D01*
X104317268Y-84975551D01*
X104320402Y-84991307D01*
X104401064Y-85112027D01*
X104365958Y-85147133D01*
X104249950Y-85427200D01*
X104249950Y-85730342D01*
X104365958Y-86010409D01*
X104580312Y-86224763D01*
X104860379Y-86340771D01*
X105163521Y-86340771D01*
X105443588Y-86224763D01*
X105657942Y-86010409D01*
X105773950Y-85730342D01*
X105773950Y-85427200D01*
X105657942Y-85147133D01*
X105492393Y-84981584D01*
X105466549Y-84851654D01*
X105434043Y-84803006D01*
X105359885Y-84692021D01*
X105319587Y-84665095D01*
X105257600Y-84603108D01*
X105257600Y-84480220D01*
X105420992Y-84316828D01*
X105537000Y-84036761D01*
X105537000Y-83733619D01*
X105420992Y-83453552D01*
X105206638Y-83239198D01*
X104926571Y-83123190D01*
X104623429Y-83123190D01*
X104343362Y-83239198D01*
X104129008Y-83453552D01*
X104013000Y-83733619D01*
X101828600Y-83733619D01*
X101828600Y-77684030D01*
X101991992Y-77520638D01*
X102108000Y-77240571D01*
X102108000Y-76937429D01*
X101991992Y-76657362D01*
X101971059Y-76636429D01*
X105083000Y-76636429D01*
X105083000Y-76939571D01*
X105199008Y-77219638D01*
X105362401Y-77383031D01*
X105362400Y-81840472D01*
X105352946Y-81888000D01*
X105362400Y-81935528D01*
X105390401Y-82076300D01*
X105497065Y-82235935D01*
X105537363Y-82262861D01*
X106175159Y-82900659D01*
X106196890Y-83009907D01*
X106270488Y-83120055D01*
X106270488Y-83354177D01*
X106386496Y-83634244D01*
X106600850Y-83848598D01*
X106880917Y-83964606D01*
X107111990Y-83964606D01*
X109833634Y-86686251D01*
X109860559Y-86726547D01*
X110020192Y-86833210D01*
X110020193Y-86833211D01*
X110208494Y-86870666D01*
X110256023Y-86861212D01*
X115503860Y-86861212D01*
X115551388Y-86870666D01*
X115598916Y-86861212D01*
X115598917Y-86861212D01*
X115739689Y-86833211D01*
X115899323Y-86726547D01*
X115926250Y-86686248D01*
X117909639Y-84702860D01*
X117949935Y-84675935D01*
X118056599Y-84516301D01*
X118084600Y-84375529D01*
X118094054Y-84328001D01*
X118084600Y-84280473D01*
X118084600Y-82622898D01*
X119169259Y-81538239D01*
X120569000Y-81538239D01*
X120569000Y-83161761D01*
X121190295Y-84661701D01*
X122338299Y-85809705D01*
X123838239Y-86431000D01*
X125461761Y-86431000D01*
X126961701Y-85809705D01*
X127184977Y-85586429D01*
X145033000Y-85586429D01*
X145033000Y-85889571D01*
X145149008Y-86169638D01*
X145363362Y-86383992D01*
X145643429Y-86500000D01*
X145946571Y-86500000D01*
X146226638Y-86383992D01*
X146440992Y-86169638D01*
X146557000Y-85889571D01*
X146557000Y-85586429D01*
X146440992Y-85306362D01*
X146226638Y-85092008D01*
X145946571Y-84976000D01*
X145643429Y-84976000D01*
X145363362Y-85092008D01*
X145149008Y-85306362D01*
X145033000Y-85586429D01*
X127184977Y-85586429D01*
X128109705Y-84661701D01*
X128731000Y-83161761D01*
X128731000Y-81538239D01*
X128440302Y-80836429D01*
X140933000Y-80836429D01*
X140933000Y-81139571D01*
X141049008Y-81419638D01*
X141263362Y-81633992D01*
X141543429Y-81750000D01*
X141774502Y-81750000D01*
X143683000Y-83658499D01*
X143683000Y-83889571D01*
X143799008Y-84169638D01*
X144013362Y-84383992D01*
X144293429Y-84500000D01*
X144596571Y-84500000D01*
X144876638Y-84383992D01*
X145090992Y-84169638D01*
X145207000Y-83889571D01*
X145207000Y-83586429D01*
X145090992Y-83306362D01*
X144876638Y-83092008D01*
X144596571Y-82976000D01*
X144365499Y-82976000D01*
X142457000Y-81067502D01*
X142457000Y-80836429D01*
X142340992Y-80556362D01*
X142126638Y-80342008D01*
X141846571Y-80226000D01*
X141543429Y-80226000D01*
X141263362Y-80342008D01*
X141049008Y-80556362D01*
X140933000Y-80836429D01*
X128440302Y-80836429D01*
X128109705Y-80038299D01*
X126961701Y-78890295D01*
X125461761Y-78269000D01*
X123838239Y-78269000D01*
X122338299Y-78890295D01*
X121190295Y-80038299D01*
X120569000Y-81538239D01*
X119169259Y-81538239D01*
X119960899Y-80746600D01*
X120221472Y-80746600D01*
X120269000Y-80756054D01*
X120316528Y-80746600D01*
X120316529Y-80746600D01*
X120457301Y-80718599D01*
X120616935Y-80611935D01*
X120643862Y-80571636D01*
X122862639Y-78352860D01*
X122902935Y-78325935D01*
X123009599Y-78166301D01*
X123037600Y-78025529D01*
X123047054Y-77978001D01*
X123037600Y-77930473D01*
X123037600Y-76935453D01*
X123193429Y-77000000D01*
X123496571Y-77000000D01*
X123776638Y-76883992D01*
X123990992Y-76669638D01*
X124107000Y-76389571D01*
X124107000Y-76194253D01*
X128198399Y-76194253D01*
X128198399Y-76497395D01*
X128314407Y-76777462D01*
X128528761Y-76991816D01*
X128808828Y-77107824D01*
X129111970Y-77107824D01*
X129392037Y-76991816D01*
X129555429Y-76828424D01*
X130362648Y-76828424D01*
X130410176Y-76837878D01*
X130457704Y-76828424D01*
X130457705Y-76828424D01*
X130598477Y-76800423D01*
X130758111Y-76693759D01*
X130785038Y-76653460D01*
X132787899Y-74650600D01*
X133117472Y-74650600D01*
X133165000Y-74660054D01*
X133212528Y-74650600D01*
X133212529Y-74650600D01*
X133353301Y-74622599D01*
X133387123Y-74600000D01*
X133646571Y-74600000D01*
X133926638Y-74483992D01*
X134140992Y-74269638D01*
X134257000Y-73989571D01*
X134257000Y-73686429D01*
X134140992Y-73406362D01*
X133926638Y-73192008D01*
X133646571Y-73076000D01*
X133343429Y-73076000D01*
X133063362Y-73192008D01*
X132849008Y-73406362D01*
X132733426Y-73685400D01*
X132635527Y-73685400D01*
X132587999Y-73675946D01*
X132540471Y-73685400D01*
X132399699Y-73713401D01*
X132240065Y-73820065D01*
X132213140Y-73860361D01*
X130210278Y-75863224D01*
X129555429Y-75863224D01*
X129392037Y-75699832D01*
X129111970Y-75583824D01*
X128808828Y-75583824D01*
X128528761Y-75699832D01*
X128314407Y-75914186D01*
X128198399Y-76194253D01*
X124107000Y-76194253D01*
X124107000Y-76086429D01*
X123990992Y-75806362D01*
X123827600Y-75642970D01*
X123827600Y-75496712D01*
X123837054Y-75449184D01*
X123820237Y-75364641D01*
X123799599Y-75260884D01*
X123692935Y-75101250D01*
X123652639Y-75074326D01*
X123008677Y-74430364D01*
X122981750Y-74390065D01*
X122822116Y-74283401D01*
X122681344Y-74255400D01*
X122681343Y-74255400D01*
X122633815Y-74245946D01*
X122586287Y-74255400D01*
X122242529Y-74255400D01*
X122195000Y-74245946D01*
X122147471Y-74255400D01*
X122006699Y-74283401D01*
X121847065Y-74390065D01*
X121820140Y-74430361D01*
X121291850Y-74958651D01*
X121251555Y-74985576D01*
X121248021Y-74990865D01*
X121066282Y-74809126D01*
X120786215Y-74693118D01*
X120483073Y-74693118D01*
X120203006Y-74809126D01*
X119988652Y-75023480D01*
X119872644Y-75303547D01*
X119872644Y-75463400D01*
X115455311Y-75463400D01*
X115494341Y-75447233D01*
X115657733Y-75283841D01*
X115773704Y-75283841D01*
X115821232Y-75293295D01*
X115868760Y-75283841D01*
X115868761Y-75283841D01*
X116009533Y-75255840D01*
X116169167Y-75149176D01*
X116196094Y-75108878D01*
X116347140Y-74957831D01*
X116578213Y-74957831D01*
X116858280Y-74841823D01*
X117072634Y-74627469D01*
X117188642Y-74347402D01*
X117188642Y-74044260D01*
X117072634Y-73764193D01*
X116858280Y-73549839D01*
X116578213Y-73433831D01*
X116275071Y-73433831D01*
X115995004Y-73549839D01*
X115780650Y-73764193D01*
X115664642Y-74044260D01*
X115664642Y-74275333D01*
X115639533Y-74300441D01*
X115494341Y-74155249D01*
X115214274Y-74039241D01*
X114911132Y-74039241D01*
X114631065Y-74155249D01*
X114416711Y-74369603D01*
X114323405Y-74594863D01*
X114220529Y-74574400D01*
X114220528Y-74574400D01*
X114173000Y-74564946D01*
X114125472Y-74574400D01*
X114006030Y-74574400D01*
X113842638Y-74411008D01*
X113562571Y-74295000D01*
X113259429Y-74295000D01*
X112979362Y-74411008D01*
X112765008Y-74625362D01*
X112649000Y-74905429D01*
X112649000Y-75208571D01*
X112765008Y-75488638D01*
X112979362Y-75702992D01*
X113259429Y-75819000D01*
X113280707Y-75819000D01*
X113280707Y-76048160D01*
X113396715Y-76328227D01*
X113421840Y-76353352D01*
X113346328Y-76428863D01*
X113230320Y-76708930D01*
X113230320Y-77012072D01*
X113346328Y-77292139D01*
X113560682Y-77506493D01*
X113840749Y-77622501D01*
X114071822Y-77622501D01*
X114314776Y-77865456D01*
X114341701Y-77905752D01*
X114490760Y-78005350D01*
X114501335Y-78012416D01*
X114689636Y-78049871D01*
X114737165Y-78040417D01*
X115581002Y-78040417D01*
X115582980Y-78042395D01*
X115392347Y-78121358D01*
X115177993Y-78335712D01*
X115061985Y-78615779D01*
X115061985Y-78846851D01*
X113814554Y-80094283D01*
X113774255Y-80121210D01*
X113667591Y-80280845D01*
X113654641Y-80345950D01*
X113630136Y-80469145D01*
X113639590Y-80516673D01*
X113639591Y-81279686D01*
X113476198Y-81443079D01*
X113360190Y-81723146D01*
X113360190Y-82026288D01*
X113476198Y-82306355D01*
X113690552Y-82520709D01*
X113788778Y-82561396D01*
X113705502Y-82644672D01*
X113589494Y-82924739D01*
X113589494Y-83227881D01*
X113705502Y-83507948D01*
X113919856Y-83722302D01*
X114199923Y-83838310D01*
X114434045Y-83838310D01*
X114544192Y-83911908D01*
X114684964Y-83939909D01*
X114684965Y-83939909D01*
X114732493Y-83949363D01*
X114780021Y-83939909D01*
X114799612Y-83939909D01*
X114763899Y-83954702D01*
X114549545Y-84169056D01*
X114506788Y-84272280D01*
X114497330Y-84270399D01*
X114497329Y-84270399D01*
X114449801Y-84260945D01*
X114414472Y-84267973D01*
X110998000Y-80851502D01*
X110998000Y-80620429D01*
X110881992Y-80340362D01*
X110667638Y-80126008D01*
X110387571Y-80010000D01*
X110084429Y-80010000D01*
X109804362Y-80126008D01*
X109590008Y-80340362D01*
X109474000Y-80620429D01*
X109474000Y-80923571D01*
X109590008Y-81203638D01*
X109804362Y-81417992D01*
X110084429Y-81534000D01*
X110315502Y-81534000D01*
X113842139Y-85060638D01*
X113869064Y-85100934D01*
X114028698Y-85207598D01*
X114216999Y-85245053D01*
X114252329Y-85238025D01*
X114554704Y-85540401D01*
X111165711Y-85540401D01*
X107619810Y-81994502D01*
X107619810Y-81763429D01*
X107503802Y-81483362D01*
X107340410Y-81319970D01*
X107340410Y-76920220D01*
X107390992Y-76869638D01*
X107507000Y-76589571D01*
X107507000Y-76286429D01*
X107390992Y-76006362D01*
X107176638Y-75792008D01*
X106896571Y-75676000D01*
X106593429Y-75676000D01*
X106313362Y-75792008D01*
X106099008Y-76006362D01*
X106077063Y-76059341D01*
X105996571Y-76026000D01*
X105693429Y-76026000D01*
X105413362Y-76142008D01*
X105199008Y-76356362D01*
X105083000Y-76636429D01*
X101971059Y-76636429D01*
X101777638Y-76443008D01*
X101497571Y-76327000D01*
X101194429Y-76327000D01*
X100914362Y-76443008D01*
X100700008Y-76657362D01*
X100584000Y-76937429D01*
X100584000Y-77240571D01*
X100700008Y-77520638D01*
X100863400Y-77684030D01*
X100863401Y-86952512D01*
X100787362Y-86984008D01*
X100573008Y-87198362D01*
X100457000Y-87478429D01*
X100456000Y-87478429D01*
X100456000Y-71586429D01*
X122933000Y-71586429D01*
X122933000Y-71889571D01*
X123049008Y-72169638D01*
X123263362Y-72383992D01*
X123543429Y-72500000D01*
X123662400Y-72500000D01*
X123662400Y-72742970D01*
X123499008Y-72906362D01*
X123383000Y-73186429D01*
X123383000Y-73489571D01*
X123499008Y-73769638D01*
X123713362Y-73983992D01*
X123993429Y-74100000D01*
X124296571Y-74100000D01*
X124533060Y-74002043D01*
X124578831Y-74112544D01*
X124793185Y-74326898D01*
X125073252Y-74442906D01*
X125376394Y-74442906D01*
X125656461Y-74326898D01*
X125870815Y-74112544D01*
X125986823Y-73832477D01*
X125986823Y-73601404D01*
X126252639Y-73335589D01*
X126292935Y-73308664D01*
X126399599Y-73149030D01*
X126427600Y-73008258D01*
X126437054Y-72960730D01*
X126427600Y-72913202D01*
X126427600Y-72583030D01*
X126590992Y-72419638D01*
X126707000Y-72139571D01*
X126707000Y-71836429D01*
X126590992Y-71556362D01*
X126376638Y-71342008D01*
X126096571Y-71226000D01*
X126042272Y-71226000D01*
X126704128Y-70564144D01*
X126744424Y-70537219D01*
X126851088Y-70377585D01*
X126876932Y-70247656D01*
X127042481Y-70082107D01*
X127158489Y-69802040D01*
X127158489Y-69498898D01*
X127042481Y-69218831D01*
X126828127Y-69004477D01*
X126548060Y-68888469D01*
X126244918Y-68888469D01*
X125964851Y-69004477D01*
X125750497Y-69218831D01*
X125634489Y-69498898D01*
X125634489Y-69802040D01*
X125750497Y-70082107D01*
X125785832Y-70117442D01*
X125415950Y-70487325D01*
X125340992Y-70306362D01*
X125126638Y-70092008D01*
X124846571Y-69976000D01*
X124543429Y-69976000D01*
X124263362Y-70092008D01*
X124049008Y-70306362D01*
X123933000Y-70586429D01*
X123933000Y-70817501D01*
X123774501Y-70976000D01*
X123543429Y-70976000D01*
X123263362Y-71092008D01*
X123049008Y-71306362D01*
X122933000Y-71586429D01*
X100456000Y-71586429D01*
X100456000Y-68236429D01*
X113283000Y-68236429D01*
X113283000Y-68539571D01*
X113399008Y-68819638D01*
X113613362Y-69033992D01*
X113893429Y-69150000D01*
X113924502Y-69150000D01*
X115483000Y-70708499D01*
X115483000Y-70939571D01*
X115599008Y-71219638D01*
X115813362Y-71433992D01*
X116093429Y-71550000D01*
X116396571Y-71550000D01*
X116676638Y-71433992D01*
X116890992Y-71219638D01*
X117007000Y-70939571D01*
X117007000Y-70636429D01*
X116890992Y-70356362D01*
X116676638Y-70142008D01*
X116396571Y-70026000D01*
X116165499Y-70026000D01*
X115934475Y-69794976D01*
X116008615Y-69844515D01*
X116149387Y-69872516D01*
X116196915Y-69881970D01*
X116244443Y-69872516D01*
X116379980Y-69872516D01*
X116543372Y-70035908D01*
X116823439Y-70151916D01*
X117126581Y-70151916D01*
X117406648Y-70035908D01*
X117621002Y-69821554D01*
X117737010Y-69541487D01*
X117737010Y-69310415D01*
X117851181Y-69196244D01*
X119367209Y-69196244D01*
X119530601Y-69359636D01*
X119810668Y-69475644D01*
X120113810Y-69475644D01*
X120393877Y-69359636D01*
X120608231Y-69145282D01*
X120724239Y-68865215D01*
X120724239Y-68562073D01*
X120608231Y-68282006D01*
X120393877Y-68067652D01*
X120113810Y-67951644D01*
X119810668Y-67951644D01*
X119530601Y-68067652D01*
X119367209Y-68231044D01*
X117698809Y-68231044D01*
X117651281Y-68221590D01*
X117603753Y-68231044D01*
X117462981Y-68259045D01*
X117303347Y-68365709D01*
X117276422Y-68406005D01*
X117054511Y-68627916D01*
X116823439Y-68627916D01*
X116543372Y-68743924D01*
X116388397Y-68898899D01*
X114907000Y-67417502D01*
X114907000Y-67186429D01*
X114790992Y-66906362D01*
X114789059Y-66904429D01*
X122174000Y-66904429D01*
X122174000Y-67207571D01*
X122290008Y-67487638D01*
X122504362Y-67701992D01*
X122784429Y-67818000D01*
X123087571Y-67818000D01*
X123367638Y-67701992D01*
X123531030Y-67538600D01*
X123777472Y-67538600D01*
X123825000Y-67548054D01*
X123872528Y-67538600D01*
X123872529Y-67538600D01*
X124013301Y-67510599D01*
X124172935Y-67403935D01*
X124199862Y-67363636D01*
X124634499Y-66929000D01*
X124865571Y-66929000D01*
X125145638Y-66812992D01*
X125359992Y-66598638D01*
X125476000Y-66318571D01*
X125476000Y-66015429D01*
X125359992Y-65735362D01*
X125145638Y-65521008D01*
X124865571Y-65405000D01*
X124562429Y-65405000D01*
X124282362Y-65521008D01*
X124068008Y-65735362D01*
X123952000Y-66015429D01*
X123952000Y-66246501D01*
X123625102Y-66573400D01*
X123531030Y-66573400D01*
X123367638Y-66410008D01*
X123087571Y-66294000D01*
X122784429Y-66294000D01*
X122504362Y-66410008D01*
X122290008Y-66624362D01*
X122174000Y-66904429D01*
X114789059Y-66904429D01*
X114576638Y-66692008D01*
X114296571Y-66576000D01*
X113993429Y-66576000D01*
X113713362Y-66692008D01*
X113499008Y-66906362D01*
X113383000Y-67186429D01*
X113383000Y-67489571D01*
X113499008Y-67769638D01*
X113542370Y-67813000D01*
X113399008Y-67956362D01*
X113283000Y-68236429D01*
X100456000Y-68236429D01*
X100456000Y-57503010D01*
X107701541Y-57503010D01*
X107701541Y-57806152D01*
X107817549Y-58086219D01*
X108031903Y-58300573D01*
X108311970Y-58416581D01*
X108615112Y-58416581D01*
X108895179Y-58300573D01*
X109109533Y-58086219D01*
X109225541Y-57806152D01*
X109225541Y-57575079D01*
X109805155Y-56995465D01*
X123119000Y-56995465D01*
X123119000Y-57604535D01*
X123352081Y-58167242D01*
X123782758Y-58597919D01*
X124345465Y-58831000D01*
X124954535Y-58831000D01*
X125517242Y-58597919D01*
X125528732Y-58586429D01*
X130033000Y-58586429D01*
X130033000Y-58889571D01*
X130149008Y-59169638D01*
X130363362Y-59383992D01*
X130643429Y-59500000D01*
X130874502Y-59500000D01*
X131412401Y-60037900D01*
X131412400Y-60892970D01*
X131249008Y-61056362D01*
X131133000Y-61336429D01*
X131133000Y-61639571D01*
X131249008Y-61919638D01*
X131463362Y-62133992D01*
X131743429Y-62250000D01*
X132046571Y-62250000D01*
X132326638Y-62133992D01*
X132540992Y-61919638D01*
X132657000Y-61639571D01*
X132657000Y-61336429D01*
X132540992Y-61056362D01*
X132377600Y-60892970D01*
X132377600Y-59885529D01*
X132387054Y-59838000D01*
X132349599Y-59649698D01*
X132315936Y-59599319D01*
X132242935Y-59490065D01*
X132202639Y-59463140D01*
X131557000Y-58817502D01*
X131557000Y-58586429D01*
X131440992Y-58306362D01*
X131226638Y-58092008D01*
X130946571Y-57976000D01*
X130643429Y-57976000D01*
X130363362Y-58092008D01*
X130149008Y-58306362D01*
X130033000Y-58586429D01*
X125528732Y-58586429D01*
X125947919Y-58167242D01*
X126181000Y-57604535D01*
X126181000Y-56995465D01*
X125947919Y-56432758D01*
X125878590Y-56363429D01*
X128270000Y-56363429D01*
X128270000Y-56666571D01*
X128386008Y-56946638D01*
X128600362Y-57160992D01*
X128880429Y-57277000D01*
X129183571Y-57277000D01*
X129463638Y-57160992D01*
X129627030Y-56997600D01*
X132007102Y-56997600D01*
X137160000Y-62150500D01*
X137160000Y-62381571D01*
X137276008Y-62661638D01*
X137490362Y-62875992D01*
X137770429Y-62992000D01*
X138073571Y-62992000D01*
X138353638Y-62875992D01*
X138567992Y-62661638D01*
X138684000Y-62381571D01*
X138684000Y-62078429D01*
X138567992Y-61798362D01*
X138353638Y-61584008D01*
X138073571Y-61468000D01*
X137842500Y-61468000D01*
X132581862Y-56207364D01*
X132554935Y-56167065D01*
X132395301Y-56060401D01*
X132254529Y-56032400D01*
X132254528Y-56032400D01*
X132207000Y-56022946D01*
X132159472Y-56032400D01*
X129830230Y-56032400D01*
X129881030Y-55981600D01*
X134674102Y-55981600D01*
X140335000Y-61642499D01*
X140335000Y-61873571D01*
X140451008Y-62153638D01*
X140665362Y-62367992D01*
X140945429Y-62484000D01*
X141248571Y-62484000D01*
X141528638Y-62367992D01*
X141742992Y-62153638D01*
X141859000Y-61873571D01*
X141859000Y-61570429D01*
X141742992Y-61290362D01*
X141528638Y-61076008D01*
X141248571Y-60960000D01*
X141017499Y-60960000D01*
X135248862Y-55191364D01*
X135221935Y-55151065D01*
X135062301Y-55044401D01*
X134921529Y-55016400D01*
X134921528Y-55016400D01*
X134874000Y-55006946D01*
X134826472Y-55016400D01*
X129881030Y-55016400D01*
X129717638Y-54853008D01*
X129437571Y-54737000D01*
X129134429Y-54737000D01*
X128854362Y-54853008D01*
X128640008Y-55067362D01*
X128524000Y-55347429D01*
X128524000Y-55650571D01*
X128612412Y-55864017D01*
X128600362Y-55869008D01*
X128386008Y-56083362D01*
X128270000Y-56363429D01*
X125878590Y-56363429D01*
X125517242Y-56002081D01*
X124954535Y-55769000D01*
X124345465Y-55769000D01*
X123782758Y-56002081D01*
X123352081Y-56432758D01*
X123119000Y-56995465D01*
X109805155Y-56995465D01*
X113739191Y-53061429D01*
X125222000Y-53061429D01*
X125222000Y-53364571D01*
X125338008Y-53644638D01*
X125552362Y-53858992D01*
X125832429Y-53975000D01*
X126135571Y-53975000D01*
X126415638Y-53858992D01*
X126629992Y-53644638D01*
X126746000Y-53364571D01*
X126746000Y-53133498D01*
X129079499Y-50800000D01*
X129310571Y-50800000D01*
X129590638Y-50683992D01*
X129804992Y-50469638D01*
X129921000Y-50189571D01*
X129921000Y-49886429D01*
X129804992Y-49606362D01*
X129590638Y-49392008D01*
X129310571Y-49276000D01*
X129007429Y-49276000D01*
X128727362Y-49392008D01*
X128513008Y-49606362D01*
X128397000Y-49886429D01*
X128397000Y-50117501D01*
X126063502Y-52451000D01*
X125832429Y-52451000D01*
X125552362Y-52567008D01*
X125338008Y-52781362D01*
X125222000Y-53061429D01*
X113739191Y-53061429D01*
X115055995Y-51744625D01*
X115138362Y-51826992D01*
X115418429Y-51943000D01*
X115721571Y-51943000D01*
X116001638Y-51826992D01*
X116215992Y-51612638D01*
X116332000Y-51332571D01*
X116332000Y-51029429D01*
X116215992Y-50749362D01*
X116001638Y-50535008D01*
X115721571Y-50419000D01*
X115418429Y-50419000D01*
X115138362Y-50535008D01*
X114976576Y-50696794D01*
X114937121Y-50688946D01*
X114889593Y-50698400D01*
X114748821Y-50726401D01*
X114589187Y-50833065D01*
X114562262Y-50873361D01*
X108543043Y-56892581D01*
X108311970Y-56892581D01*
X108031903Y-57008589D01*
X107817549Y-57222943D01*
X107701541Y-57503010D01*
X100456000Y-57503010D01*
X100456000Y-47727429D01*
X109982000Y-47727429D01*
X109982000Y-48030571D01*
X110098008Y-48310638D01*
X110312362Y-48524992D01*
X110592429Y-48641000D01*
X110895571Y-48641000D01*
X111175638Y-48524992D01*
X111389992Y-48310638D01*
X111506000Y-48030571D01*
X111506000Y-47799498D01*
X111689434Y-47616064D01*
X111709362Y-47635992D01*
X111989429Y-47752000D01*
X112292571Y-47752000D01*
X112572638Y-47635992D01*
X112786992Y-47421638D01*
X112903000Y-47141571D01*
X112903000Y-46838429D01*
X112786992Y-46558362D01*
X112572638Y-46344008D01*
X112292571Y-46228000D01*
X111989429Y-46228000D01*
X111709362Y-46344008D01*
X111536162Y-46517208D01*
X111444698Y-46535401D01*
X111410335Y-46558362D01*
X111285065Y-46642065D01*
X111258140Y-46682361D01*
X110823502Y-47117000D01*
X110592429Y-47117000D01*
X110312362Y-47233008D01*
X110098008Y-47447362D01*
X109982000Y-47727429D01*
X100456000Y-47727429D01*
X100456000Y-45060429D01*
X121285000Y-45060429D01*
X121285000Y-45363571D01*
X121401008Y-45643638D01*
X121615362Y-45857992D01*
X121895429Y-45974000D01*
X122198571Y-45974000D01*
X122478638Y-45857992D01*
X122692992Y-45643638D01*
X122724488Y-45567600D01*
X126785970Y-45567600D01*
X126949362Y-45730992D01*
X127229429Y-45847000D01*
X127532571Y-45847000D01*
X127812638Y-45730992D01*
X128026992Y-45516638D01*
X128143000Y-45236571D01*
X128143000Y-44933429D01*
X128026992Y-44653362D01*
X127812638Y-44439008D01*
X127532571Y-44323000D01*
X127229429Y-44323000D01*
X126949362Y-44439008D01*
X126785970Y-44602400D01*
X122515030Y-44602400D01*
X122478638Y-44566008D01*
X122198571Y-44450000D01*
X121895429Y-44450000D01*
X121615362Y-44566008D01*
X121401008Y-44780362D01*
X121285000Y-45060429D01*
X100456000Y-45060429D01*
X100456000Y-40100039D01*
X118958096Y-40100039D01*
X118975633Y-40182819D01*
X119245500Y-40675896D01*
X119683517Y-41028166D01*
X120223000Y-41186000D01*
X120723000Y-41186000D01*
X120723000Y-39878000D01*
X120977000Y-39878000D01*
X120977000Y-41186000D01*
X121477000Y-41186000D01*
X122016483Y-41028166D01*
X122454500Y-40675896D01*
X122724367Y-40182819D01*
X122741904Y-40100039D01*
X126558096Y-40100039D01*
X126575633Y-40182819D01*
X126845500Y-40675896D01*
X127283517Y-41028166D01*
X127823000Y-41186000D01*
X128323000Y-41186000D01*
X128323000Y-39878000D01*
X128577000Y-39878000D01*
X128577000Y-41186000D01*
X129077000Y-41186000D01*
X129616483Y-41028166D01*
X130054500Y-40675896D01*
X130324367Y-40182819D01*
X130341904Y-40100039D01*
X130219915Y-39878000D01*
X128577000Y-39878000D01*
X128323000Y-39878000D01*
X126680085Y-39878000D01*
X126558096Y-40100039D01*
X122741904Y-40100039D01*
X122619915Y-39878000D01*
X120977000Y-39878000D01*
X120723000Y-39878000D01*
X119080085Y-39878000D01*
X118958096Y-40100039D01*
X100456000Y-40100039D01*
X100456000Y-38756000D01*
X119332668Y-38756000D01*
X119245500Y-38826104D01*
M02*
