G04 #@! TF.GenerationSoftware,KiCad,Pcbnew,(5.0.2-5)-5*
G04 #@! TF.CreationDate,2019-03-10T20:48:22-07:00*
G04 #@! TF.ProjectId,pygameboy,70796761-6d65-4626-9f79-2e6b69636164,rev?*
G04 #@! TF.SameCoordinates,Original*
G04 #@! TF.FileFunction,Legend,Bot*
G04 #@! TF.FilePolarity,Positive*
%FSLAX46Y46*%
G04 Gerber Fmt 4.6, Leading zero omitted, Abs format (unit mm)*
G04 Created by KiCad (PCBNEW (5.0.2-5)-5) date Sunday, March 10, 2019 at 08:48:22 PM*
%MOMM*%
%LPD*%
G01*
G04 APERTURE LIST*
%ADD10C,0.150000*%
%ADD11C,0.200000*%
%ADD12C,0.120000*%
G04 APERTURE END LIST*
D10*
X141849761Y-46775976D02*
X141897380Y-46918833D01*
X141897380Y-47156928D01*
X141849761Y-47252166D01*
X141802142Y-47299785D01*
X141706904Y-47347404D01*
X141611666Y-47347404D01*
X141516428Y-47299785D01*
X141468809Y-47252166D01*
X141421190Y-47156928D01*
X141373571Y-46966452D01*
X141325952Y-46871214D01*
X141278333Y-46823595D01*
X141183095Y-46775976D01*
X141087857Y-46775976D01*
X140992619Y-46823595D01*
X140945000Y-46871214D01*
X140897380Y-46966452D01*
X140897380Y-47204547D01*
X140945000Y-47347404D01*
X140897380Y-47680738D02*
X141897380Y-47918833D01*
X141183095Y-48109309D01*
X141897380Y-48299785D01*
X140897380Y-48537880D01*
X141897380Y-48918833D02*
X140897380Y-48918833D01*
X140897380Y-49156928D01*
X140945000Y-49299785D01*
X141040238Y-49395023D01*
X141135476Y-49442642D01*
X141325952Y-49490261D01*
X141468809Y-49490261D01*
X141659285Y-49442642D01*
X141754523Y-49395023D01*
X141849761Y-49299785D01*
X141897380Y-49156928D01*
X141897380Y-48918833D01*
X141897380Y-49918833D02*
X140897380Y-49918833D01*
X140897380Y-50585500D02*
X140897380Y-50775976D01*
X140945000Y-50871214D01*
X141040238Y-50966452D01*
X141230714Y-51014071D01*
X141564047Y-51014071D01*
X141754523Y-50966452D01*
X141849761Y-50871214D01*
X141897380Y-50775976D01*
X141897380Y-50585500D01*
X141849761Y-50490261D01*
X141754523Y-50395023D01*
X141564047Y-50347404D01*
X141230714Y-50347404D01*
X141040238Y-50395023D01*
X140945000Y-50490261D01*
X140897380Y-50585500D01*
X138849761Y-46775976D02*
X138897380Y-46918833D01*
X138897380Y-47156928D01*
X138849761Y-47252166D01*
X138802142Y-47299785D01*
X138706904Y-47347404D01*
X138611666Y-47347404D01*
X138516428Y-47299785D01*
X138468809Y-47252166D01*
X138421190Y-47156928D01*
X138373571Y-46966452D01*
X138325952Y-46871214D01*
X138278333Y-46823595D01*
X138183095Y-46775976D01*
X138087857Y-46775976D01*
X137992619Y-46823595D01*
X137945000Y-46871214D01*
X137897380Y-46966452D01*
X137897380Y-47204547D01*
X137945000Y-47347404D01*
X137897380Y-47680738D02*
X138897380Y-47918833D01*
X138183095Y-48109309D01*
X138897380Y-48299785D01*
X137897380Y-48537880D01*
X138802142Y-49490261D02*
X138849761Y-49442642D01*
X138897380Y-49299785D01*
X138897380Y-49204547D01*
X138849761Y-49061690D01*
X138754523Y-48966452D01*
X138659285Y-48918833D01*
X138468809Y-48871214D01*
X138325952Y-48871214D01*
X138135476Y-48918833D01*
X138040238Y-48966452D01*
X137945000Y-49061690D01*
X137897380Y-49204547D01*
X137897380Y-49299785D01*
X137945000Y-49442642D01*
X137992619Y-49490261D01*
X138897380Y-50395023D02*
X138897380Y-49918833D01*
X137897380Y-49918833D01*
X138897380Y-50728357D02*
X137897380Y-50728357D01*
X138897380Y-51299785D02*
X138325952Y-50871214D01*
X137897380Y-51299785D02*
X138468809Y-50728357D01*
X135849761Y-46775976D02*
X135897380Y-46918833D01*
X135897380Y-47156928D01*
X135849761Y-47252166D01*
X135802142Y-47299785D01*
X135706904Y-47347404D01*
X135611666Y-47347404D01*
X135516428Y-47299785D01*
X135468809Y-47252166D01*
X135421190Y-47156928D01*
X135373571Y-46966452D01*
X135325952Y-46871214D01*
X135278333Y-46823595D01*
X135183095Y-46775976D01*
X135087857Y-46775976D01*
X134992619Y-46823595D01*
X134945000Y-46871214D01*
X134897380Y-46966452D01*
X134897380Y-47204547D01*
X134945000Y-47347404D01*
X134897380Y-47680738D02*
X135897380Y-47918833D01*
X135183095Y-48109309D01*
X135897380Y-48299785D01*
X134897380Y-48537880D01*
X134897380Y-49109309D02*
X134897380Y-49299785D01*
X134945000Y-49395023D01*
X135040238Y-49490261D01*
X135230714Y-49537880D01*
X135564047Y-49537880D01*
X135754523Y-49490261D01*
X135849761Y-49395023D01*
X135897380Y-49299785D01*
X135897380Y-49109309D01*
X135849761Y-49014071D01*
X135754523Y-48918833D01*
X135564047Y-48871214D01*
X135230714Y-48871214D01*
X135040238Y-48918833D01*
X134945000Y-49014071D01*
X134897380Y-49109309D01*
X135037976Y-43440380D02*
X135371309Y-42964190D01*
X135609404Y-43440380D02*
X135609404Y-42440380D01*
X135228452Y-42440380D01*
X135133214Y-42488000D01*
X135085595Y-42535619D01*
X135037976Y-42630857D01*
X135037976Y-42773714D01*
X135085595Y-42868952D01*
X135133214Y-42916571D01*
X135228452Y-42964190D01*
X135609404Y-42964190D01*
X134609404Y-42916571D02*
X134276071Y-42916571D01*
X134133214Y-43440380D02*
X134609404Y-43440380D01*
X134609404Y-42440380D01*
X134133214Y-42440380D01*
X133752261Y-43392761D02*
X133609404Y-43440380D01*
X133371309Y-43440380D01*
X133276071Y-43392761D01*
X133228452Y-43345142D01*
X133180833Y-43249904D01*
X133180833Y-43154666D01*
X133228452Y-43059428D01*
X133276071Y-43011809D01*
X133371309Y-42964190D01*
X133561785Y-42916571D01*
X133657023Y-42868952D01*
X133704642Y-42821333D01*
X133752261Y-42726095D01*
X133752261Y-42630857D01*
X133704642Y-42535619D01*
X133657023Y-42488000D01*
X133561785Y-42440380D01*
X133323690Y-42440380D01*
X133180833Y-42488000D01*
X132752261Y-42916571D02*
X132418928Y-42916571D01*
X132276071Y-43440380D02*
X132752261Y-43440380D01*
X132752261Y-42440380D01*
X132276071Y-42440380D01*
X131990357Y-42440380D02*
X131418928Y-42440380D01*
X131704642Y-43440380D02*
X131704642Y-42440380D01*
X143852023Y-43059428D02*
X143090119Y-43059428D01*
X143471071Y-43440380D02*
X143471071Y-42678476D01*
X142709166Y-42440380D02*
X142090119Y-42440380D01*
X142423452Y-42821333D01*
X142280595Y-42821333D01*
X142185357Y-42868952D01*
X142137738Y-42916571D01*
X142090119Y-43011809D01*
X142090119Y-43249904D01*
X142137738Y-43345142D01*
X142185357Y-43392761D01*
X142280595Y-43440380D01*
X142566309Y-43440380D01*
X142661547Y-43392761D01*
X142709166Y-43345142D01*
X141804404Y-42440380D02*
X141471071Y-43440380D01*
X141137738Y-42440380D01*
X139206904Y-38988000D02*
X139302142Y-38940380D01*
X139445000Y-38940380D01*
X139587857Y-38988000D01*
X139683095Y-39083238D01*
X139730714Y-39178476D01*
X139778333Y-39368952D01*
X139778333Y-39511809D01*
X139730714Y-39702285D01*
X139683095Y-39797523D01*
X139587857Y-39892761D01*
X139445000Y-39940380D01*
X139349761Y-39940380D01*
X139206904Y-39892761D01*
X139159285Y-39845142D01*
X139159285Y-39511809D01*
X139349761Y-39511809D01*
X138730714Y-39940380D02*
X138730714Y-38940380D01*
X138159285Y-39940380D01*
X138159285Y-38940380D01*
X137683095Y-39940380D02*
X137683095Y-38940380D01*
X137445000Y-38940380D01*
X137302142Y-38988000D01*
X137206904Y-39083238D01*
X137159285Y-39178476D01*
X137111666Y-39368952D01*
X137111666Y-39511809D01*
X137159285Y-39702285D01*
X137206904Y-39797523D01*
X137302142Y-39892761D01*
X137445000Y-39940380D01*
X137683095Y-39940380D01*
D11*
X101445000Y-91488000D02*
X101445000Y-94488000D01*
X104445000Y-91488000D02*
X104445000Y-94488000D01*
X107445000Y-91488000D02*
X107445000Y-94488000D01*
X110445000Y-91488000D02*
X110445000Y-94488000D01*
X113445000Y-91488000D02*
X113445000Y-94488000D01*
X116445000Y-91488000D02*
X116445000Y-94488000D01*
X119445000Y-91488000D02*
X119445000Y-94488000D01*
X122445000Y-91488000D02*
X122445000Y-94488000D01*
X125445000Y-91488000D02*
X125445000Y-94488000D01*
X128445000Y-91488000D02*
X128445000Y-94488000D01*
X131445000Y-91488000D02*
X131445000Y-94488000D01*
X134445000Y-91488000D02*
X134445000Y-94488000D01*
X137445000Y-91488000D02*
X137445000Y-94488000D01*
X140445000Y-91488000D02*
X140445000Y-94488000D01*
X143445000Y-91488000D02*
X143445000Y-94488000D01*
X146445000Y-91488000D02*
X146445000Y-94488000D01*
X148380000Y-90518095D02*
X148427619Y-90613333D01*
X148427619Y-90756190D01*
X148380000Y-90899047D01*
X148284761Y-90994285D01*
X148189523Y-91041904D01*
X147999047Y-91089523D01*
X147856190Y-91089523D01*
X147665714Y-91041904D01*
X147570476Y-90994285D01*
X147475238Y-90899047D01*
X147427619Y-90756190D01*
X147427619Y-90660952D01*
X147475238Y-90518095D01*
X147522857Y-90470476D01*
X147856190Y-90470476D01*
X147856190Y-90660952D01*
X147427619Y-90041904D02*
X148427619Y-90041904D01*
X147427619Y-89470476D01*
X148427619Y-89470476D01*
X147427619Y-88994285D02*
X148427619Y-88994285D01*
X148427619Y-88756190D01*
X148380000Y-88613333D01*
X148284761Y-88518095D01*
X148189523Y-88470476D01*
X147999047Y-88422857D01*
X147856190Y-88422857D01*
X147665714Y-88470476D01*
X147570476Y-88518095D01*
X147475238Y-88613333D01*
X147427619Y-88756190D01*
X147427619Y-88994285D01*
X146278333Y-91119523D02*
X146278333Y-90643333D01*
X145992619Y-91214761D02*
X146992619Y-90881428D01*
X145992619Y-90548095D01*
X146992619Y-90214761D02*
X146183095Y-90214761D01*
X146087857Y-90167142D01*
X146040238Y-90119523D01*
X145992619Y-90024285D01*
X145992619Y-89833809D01*
X146040238Y-89738571D01*
X146087857Y-89690952D01*
X146183095Y-89643333D01*
X146992619Y-89643333D01*
X145992619Y-89167142D02*
X146992619Y-89167142D01*
X146992619Y-88929047D01*
X146945000Y-88786190D01*
X146849761Y-88690952D01*
X146754523Y-88643333D01*
X146564047Y-88595714D01*
X146421190Y-88595714D01*
X146230714Y-88643333D01*
X146135476Y-88690952D01*
X146040238Y-88786190D01*
X145992619Y-88929047D01*
X145992619Y-89167142D01*
X144492619Y-90500476D02*
X144968809Y-90833809D01*
X144492619Y-91071904D02*
X145492619Y-91071904D01*
X145492619Y-90690952D01*
X145445000Y-90595714D01*
X145397380Y-90548095D01*
X145302142Y-90500476D01*
X145159285Y-90500476D01*
X145064047Y-90548095D01*
X145016428Y-90595714D01*
X144968809Y-90690952D01*
X144968809Y-91071904D01*
X144540238Y-90119523D02*
X144492619Y-89976666D01*
X144492619Y-89738571D01*
X144540238Y-89643333D01*
X144587857Y-89595714D01*
X144683095Y-89548095D01*
X144778333Y-89548095D01*
X144873571Y-89595714D01*
X144921190Y-89643333D01*
X144968809Y-89738571D01*
X145016428Y-89929047D01*
X145064047Y-90024285D01*
X145111666Y-90071904D01*
X145206904Y-90119523D01*
X145302142Y-90119523D01*
X145397380Y-90071904D01*
X145445000Y-90024285D01*
X145492619Y-89929047D01*
X145492619Y-89690952D01*
X145445000Y-89548095D01*
X145492619Y-89262380D02*
X145492619Y-88690952D01*
X144492619Y-88976666D02*
X145492619Y-88976666D01*
X142992619Y-91071904D02*
X143992619Y-91071904D01*
X143992619Y-90833809D01*
X143945000Y-90690952D01*
X143849761Y-90595714D01*
X143754523Y-90548095D01*
X143564047Y-90500476D01*
X143421190Y-90500476D01*
X143230714Y-90548095D01*
X143135476Y-90595714D01*
X143040238Y-90690952D01*
X142992619Y-90833809D01*
X142992619Y-91071904D01*
X143992619Y-90167142D02*
X143992619Y-89500476D01*
X142992619Y-89929047D01*
X141492619Y-91071904D02*
X142492619Y-91071904D01*
X142492619Y-90833809D01*
X142445000Y-90690952D01*
X142349761Y-90595714D01*
X142254523Y-90548095D01*
X142064047Y-90500476D01*
X141921190Y-90500476D01*
X141730714Y-90548095D01*
X141635476Y-90595714D01*
X141540238Y-90690952D01*
X141492619Y-90833809D01*
X141492619Y-91071904D01*
X142492619Y-89643333D02*
X142492619Y-89833809D01*
X142445000Y-89929047D01*
X142397380Y-89976666D01*
X142254523Y-90071904D01*
X142064047Y-90119523D01*
X141683095Y-90119523D01*
X141587857Y-90071904D01*
X141540238Y-90024285D01*
X141492619Y-89929047D01*
X141492619Y-89738571D01*
X141540238Y-89643333D01*
X141587857Y-89595714D01*
X141683095Y-89548095D01*
X141921190Y-89548095D01*
X142016428Y-89595714D01*
X142064047Y-89643333D01*
X142111666Y-89738571D01*
X142111666Y-89929047D01*
X142064047Y-90024285D01*
X142016428Y-90071904D01*
X141921190Y-90119523D01*
X139992619Y-91071904D02*
X140992619Y-91071904D01*
X140992619Y-90833809D01*
X140945000Y-90690952D01*
X140849761Y-90595714D01*
X140754523Y-90548095D01*
X140564047Y-90500476D01*
X140421190Y-90500476D01*
X140230714Y-90548095D01*
X140135476Y-90595714D01*
X140040238Y-90690952D01*
X139992619Y-90833809D01*
X139992619Y-91071904D01*
X140992619Y-89595714D02*
X140992619Y-90071904D01*
X140516428Y-90119523D01*
X140564047Y-90071904D01*
X140611666Y-89976666D01*
X140611666Y-89738571D01*
X140564047Y-89643333D01*
X140516428Y-89595714D01*
X140421190Y-89548095D01*
X140183095Y-89548095D01*
X140087857Y-89595714D01*
X140040238Y-89643333D01*
X139992619Y-89738571D01*
X139992619Y-89976666D01*
X140040238Y-90071904D01*
X140087857Y-90119523D01*
X138492619Y-91071904D02*
X139492619Y-91071904D01*
X139492619Y-90833809D01*
X139445000Y-90690952D01*
X139349761Y-90595714D01*
X139254523Y-90548095D01*
X139064047Y-90500476D01*
X138921190Y-90500476D01*
X138730714Y-90548095D01*
X138635476Y-90595714D01*
X138540238Y-90690952D01*
X138492619Y-90833809D01*
X138492619Y-91071904D01*
X139159285Y-89643333D02*
X138492619Y-89643333D01*
X139540238Y-89881428D02*
X138825952Y-90119523D01*
X138825952Y-89500476D01*
X136992619Y-91071904D02*
X137992619Y-91071904D01*
X137992619Y-90833809D01*
X137945000Y-90690952D01*
X137849761Y-90595714D01*
X137754523Y-90548095D01*
X137564047Y-90500476D01*
X137421190Y-90500476D01*
X137230714Y-90548095D01*
X137135476Y-90595714D01*
X137040238Y-90690952D01*
X136992619Y-90833809D01*
X136992619Y-91071904D01*
X137992619Y-90167142D02*
X137992619Y-89548095D01*
X137611666Y-89881428D01*
X137611666Y-89738571D01*
X137564047Y-89643333D01*
X137516428Y-89595714D01*
X137421190Y-89548095D01*
X137183095Y-89548095D01*
X137087857Y-89595714D01*
X137040238Y-89643333D01*
X136992619Y-89738571D01*
X136992619Y-90024285D01*
X137040238Y-90119523D01*
X137087857Y-90167142D01*
X135492619Y-91071904D02*
X136492619Y-91071904D01*
X136492619Y-90833809D01*
X136445000Y-90690952D01*
X136349761Y-90595714D01*
X136254523Y-90548095D01*
X136064047Y-90500476D01*
X135921190Y-90500476D01*
X135730714Y-90548095D01*
X135635476Y-90595714D01*
X135540238Y-90690952D01*
X135492619Y-90833809D01*
X135492619Y-91071904D01*
X136397380Y-90119523D02*
X136445000Y-90071904D01*
X136492619Y-89976666D01*
X136492619Y-89738571D01*
X136445000Y-89643333D01*
X136397380Y-89595714D01*
X136302142Y-89548095D01*
X136206904Y-89548095D01*
X136064047Y-89595714D01*
X135492619Y-90167142D01*
X135492619Y-89548095D01*
X133907619Y-91081904D02*
X134907619Y-91081904D01*
X134907619Y-90843809D01*
X134860000Y-90700952D01*
X134764761Y-90605714D01*
X134669523Y-90558095D01*
X134479047Y-90510476D01*
X134336190Y-90510476D01*
X134145714Y-90558095D01*
X134050476Y-90605714D01*
X133955238Y-90700952D01*
X133907619Y-90843809D01*
X133907619Y-91081904D01*
X133907619Y-89558095D02*
X133907619Y-90129523D01*
X133907619Y-89843809D02*
X134907619Y-89843809D01*
X134764761Y-89939047D01*
X134669523Y-90034285D01*
X134621904Y-90129523D01*
X132492619Y-91071904D02*
X133492619Y-91071904D01*
X133492619Y-90833809D01*
X133445000Y-90690952D01*
X133349761Y-90595714D01*
X133254523Y-90548095D01*
X133064047Y-90500476D01*
X132921190Y-90500476D01*
X132730714Y-90548095D01*
X132635476Y-90595714D01*
X132540238Y-90690952D01*
X132492619Y-90833809D01*
X132492619Y-91071904D01*
X133492619Y-89881428D02*
X133492619Y-89786190D01*
X133445000Y-89690952D01*
X133397380Y-89643333D01*
X133302142Y-89595714D01*
X133111666Y-89548095D01*
X132873571Y-89548095D01*
X132683095Y-89595714D01*
X132587857Y-89643333D01*
X132540238Y-89690952D01*
X132492619Y-89786190D01*
X132492619Y-89881428D01*
X132540238Y-89976666D01*
X132587857Y-90024285D01*
X132683095Y-90071904D01*
X132873571Y-90119523D01*
X133111666Y-90119523D01*
X133302142Y-90071904D01*
X133397380Y-90024285D01*
X133445000Y-89976666D01*
X133492619Y-89881428D01*
X131278333Y-91119523D02*
X131278333Y-90643333D01*
X130992619Y-91214761D02*
X131992619Y-90881428D01*
X130992619Y-90548095D01*
X130992619Y-89690952D02*
X130992619Y-90262380D01*
X130992619Y-89976666D02*
X131992619Y-89976666D01*
X131849761Y-90071904D01*
X131754523Y-90167142D01*
X131706904Y-90262380D01*
X131992619Y-88786190D02*
X131992619Y-89262380D01*
X131516428Y-89310000D01*
X131564047Y-89262380D01*
X131611666Y-89167142D01*
X131611666Y-88929047D01*
X131564047Y-88833809D01*
X131516428Y-88786190D01*
X131421190Y-88738571D01*
X131183095Y-88738571D01*
X131087857Y-88786190D01*
X131040238Y-88833809D01*
X130992619Y-88929047D01*
X130992619Y-89167142D01*
X131040238Y-89262380D01*
X131087857Y-89310000D01*
X129778333Y-91119523D02*
X129778333Y-90643333D01*
X129492619Y-91214761D02*
X130492619Y-90881428D01*
X129492619Y-90548095D01*
X129492619Y-89690952D02*
X129492619Y-90262380D01*
X129492619Y-89976666D02*
X130492619Y-89976666D01*
X130349761Y-90071904D01*
X130254523Y-90167142D01*
X130206904Y-90262380D01*
X130159285Y-88833809D02*
X129492619Y-88833809D01*
X130540238Y-89071904D02*
X129825952Y-89310000D01*
X129825952Y-88690952D01*
X128278333Y-91119523D02*
X128278333Y-90643333D01*
X127992619Y-91214761D02*
X128992619Y-90881428D01*
X127992619Y-90548095D01*
X127992619Y-89690952D02*
X127992619Y-90262380D01*
X127992619Y-89976666D02*
X128992619Y-89976666D01*
X128849761Y-90071904D01*
X128754523Y-90167142D01*
X128706904Y-90262380D01*
X128992619Y-89357619D02*
X128992619Y-88738571D01*
X128611666Y-89071904D01*
X128611666Y-88929047D01*
X128564047Y-88833809D01*
X128516428Y-88786190D01*
X128421190Y-88738571D01*
X128183095Y-88738571D01*
X128087857Y-88786190D01*
X128040238Y-88833809D01*
X127992619Y-88929047D01*
X127992619Y-89214761D01*
X128040238Y-89310000D01*
X128087857Y-89357619D01*
X126778333Y-91119523D02*
X126778333Y-90643333D01*
X126492619Y-91214761D02*
X127492619Y-90881428D01*
X126492619Y-90548095D01*
X126492619Y-89690952D02*
X126492619Y-90262380D01*
X126492619Y-89976666D02*
X127492619Y-89976666D01*
X127349761Y-90071904D01*
X127254523Y-90167142D01*
X127206904Y-90262380D01*
X127397380Y-89310000D02*
X127445000Y-89262380D01*
X127492619Y-89167142D01*
X127492619Y-88929047D01*
X127445000Y-88833809D01*
X127397380Y-88786190D01*
X127302142Y-88738571D01*
X127206904Y-88738571D01*
X127064047Y-88786190D01*
X126492619Y-89357619D01*
X126492619Y-88738571D01*
X125278333Y-91119523D02*
X125278333Y-90643333D01*
X124992619Y-91214761D02*
X125992619Y-90881428D01*
X124992619Y-90548095D01*
X124992619Y-89690952D02*
X124992619Y-90262380D01*
X124992619Y-89976666D02*
X125992619Y-89976666D01*
X125849761Y-90071904D01*
X125754523Y-90167142D01*
X125706904Y-90262380D01*
X124992619Y-88738571D02*
X124992619Y-89310000D01*
X124992619Y-89024285D02*
X125992619Y-89024285D01*
X125849761Y-89119523D01*
X125754523Y-89214761D01*
X125706904Y-89310000D01*
X123778333Y-91119523D02*
X123778333Y-90643333D01*
X123492619Y-91214761D02*
X124492619Y-90881428D01*
X123492619Y-90548095D01*
X123492619Y-89690952D02*
X123492619Y-90262380D01*
X123492619Y-89976666D02*
X124492619Y-89976666D01*
X124349761Y-90071904D01*
X124254523Y-90167142D01*
X124206904Y-90262380D01*
X124492619Y-89071904D02*
X124492619Y-88976666D01*
X124445000Y-88881428D01*
X124397380Y-88833809D01*
X124302142Y-88786190D01*
X124111666Y-88738571D01*
X123873571Y-88738571D01*
X123683095Y-88786190D01*
X123587857Y-88833809D01*
X123540238Y-88881428D01*
X123492619Y-88976666D01*
X123492619Y-89071904D01*
X123540238Y-89167142D01*
X123587857Y-89214761D01*
X123683095Y-89262380D01*
X123873571Y-89310000D01*
X124111666Y-89310000D01*
X124302142Y-89262380D01*
X124397380Y-89214761D01*
X124445000Y-89167142D01*
X124492619Y-89071904D01*
X122278333Y-91119523D02*
X122278333Y-90643333D01*
X121992619Y-91214761D02*
X122992619Y-90881428D01*
X121992619Y-90548095D01*
X121992619Y-90167142D02*
X121992619Y-89976666D01*
X122040238Y-89881428D01*
X122087857Y-89833809D01*
X122230714Y-89738571D01*
X122421190Y-89690952D01*
X122802142Y-89690952D01*
X122897380Y-89738571D01*
X122945000Y-89786190D01*
X122992619Y-89881428D01*
X122992619Y-90071904D01*
X122945000Y-90167142D01*
X122897380Y-90214761D01*
X122802142Y-90262380D01*
X122564047Y-90262380D01*
X122468809Y-90214761D01*
X122421190Y-90167142D01*
X122373571Y-90071904D01*
X122373571Y-89881428D01*
X122421190Y-89786190D01*
X122468809Y-89738571D01*
X122564047Y-89690952D01*
X120778333Y-91119523D02*
X120778333Y-90643333D01*
X120492619Y-91214761D02*
X121492619Y-90881428D01*
X120492619Y-90548095D01*
X121064047Y-90071904D02*
X121111666Y-90167142D01*
X121159285Y-90214761D01*
X121254523Y-90262380D01*
X121302142Y-90262380D01*
X121397380Y-90214761D01*
X121445000Y-90167142D01*
X121492619Y-90071904D01*
X121492619Y-89881428D01*
X121445000Y-89786190D01*
X121397380Y-89738571D01*
X121302142Y-89690952D01*
X121254523Y-89690952D01*
X121159285Y-89738571D01*
X121111666Y-89786190D01*
X121064047Y-89881428D01*
X121064047Y-90071904D01*
X121016428Y-90167142D01*
X120968809Y-90214761D01*
X120873571Y-90262380D01*
X120683095Y-90262380D01*
X120587857Y-90214761D01*
X120540238Y-90167142D01*
X120492619Y-90071904D01*
X120492619Y-89881428D01*
X120540238Y-89786190D01*
X120587857Y-89738571D01*
X120683095Y-89690952D01*
X120873571Y-89690952D01*
X120968809Y-89738571D01*
X121016428Y-89786190D01*
X121064047Y-89881428D01*
X119278333Y-91119523D02*
X119278333Y-90643333D01*
X118992619Y-91214761D02*
X119992619Y-90881428D01*
X118992619Y-90548095D01*
X119992619Y-90310000D02*
X119992619Y-89643333D01*
X118992619Y-90071904D01*
X117778333Y-91119523D02*
X117778333Y-90643333D01*
X117492619Y-91214761D02*
X118492619Y-90881428D01*
X117492619Y-90548095D01*
X118492619Y-89786190D02*
X118492619Y-89976666D01*
X118445000Y-90071904D01*
X118397380Y-90119523D01*
X118254523Y-90214761D01*
X118064047Y-90262380D01*
X117683095Y-90262380D01*
X117587857Y-90214761D01*
X117540238Y-90167142D01*
X117492619Y-90071904D01*
X117492619Y-89881428D01*
X117540238Y-89786190D01*
X117587857Y-89738571D01*
X117683095Y-89690952D01*
X117921190Y-89690952D01*
X118016428Y-89738571D01*
X118064047Y-89786190D01*
X118111666Y-89881428D01*
X118111666Y-90071904D01*
X118064047Y-90167142D01*
X118016428Y-90214761D01*
X117921190Y-90262380D01*
X116278333Y-91119523D02*
X116278333Y-90643333D01*
X115992619Y-91214761D02*
X116992619Y-90881428D01*
X115992619Y-90548095D01*
X116992619Y-89738571D02*
X116992619Y-90214761D01*
X116516428Y-90262380D01*
X116564047Y-90214761D01*
X116611666Y-90119523D01*
X116611666Y-89881428D01*
X116564047Y-89786190D01*
X116516428Y-89738571D01*
X116421190Y-89690952D01*
X116183095Y-89690952D01*
X116087857Y-89738571D01*
X116040238Y-89786190D01*
X115992619Y-89881428D01*
X115992619Y-90119523D01*
X116040238Y-90214761D01*
X116087857Y-90262380D01*
X114778333Y-91119523D02*
X114778333Y-90643333D01*
X114492619Y-91214761D02*
X115492619Y-90881428D01*
X114492619Y-90548095D01*
X115159285Y-89786190D02*
X114492619Y-89786190D01*
X115540238Y-90024285D02*
X114825952Y-90262380D01*
X114825952Y-89643333D01*
X113278333Y-91119523D02*
X113278333Y-90643333D01*
X112992619Y-91214761D02*
X113992619Y-90881428D01*
X112992619Y-90548095D01*
X113992619Y-90310000D02*
X113992619Y-89690952D01*
X113611666Y-90024285D01*
X113611666Y-89881428D01*
X113564047Y-89786190D01*
X113516428Y-89738571D01*
X113421190Y-89690952D01*
X113183095Y-89690952D01*
X113087857Y-89738571D01*
X113040238Y-89786190D01*
X112992619Y-89881428D01*
X112992619Y-90167142D01*
X113040238Y-90262380D01*
X113087857Y-90310000D01*
X111778333Y-91119523D02*
X111778333Y-90643333D01*
X111492619Y-91214761D02*
X112492619Y-90881428D01*
X111492619Y-90548095D01*
X112397380Y-90262380D02*
X112445000Y-90214761D01*
X112492619Y-90119523D01*
X112492619Y-89881428D01*
X112445000Y-89786190D01*
X112397380Y-89738571D01*
X112302142Y-89690952D01*
X112206904Y-89690952D01*
X112064047Y-89738571D01*
X111492619Y-90310000D01*
X111492619Y-89690952D01*
X110278333Y-91119523D02*
X110278333Y-90643333D01*
X109992619Y-91214761D02*
X110992619Y-90881428D01*
X109992619Y-90548095D01*
X109992619Y-89690952D02*
X109992619Y-90262380D01*
X109992619Y-89976666D02*
X110992619Y-89976666D01*
X110849761Y-90071904D01*
X110754523Y-90167142D01*
X110706904Y-90262380D01*
X108778333Y-91119523D02*
X108778333Y-90643333D01*
X108492619Y-91214761D02*
X109492619Y-90881428D01*
X108492619Y-90548095D01*
X109492619Y-90024285D02*
X109492619Y-89929047D01*
X109445000Y-89833809D01*
X109397380Y-89786190D01*
X109302142Y-89738571D01*
X109111666Y-89690952D01*
X108873571Y-89690952D01*
X108683095Y-89738571D01*
X108587857Y-89786190D01*
X108540238Y-89833809D01*
X108492619Y-89929047D01*
X108492619Y-90024285D01*
X108540238Y-90119523D01*
X108587857Y-90167142D01*
X108683095Y-90214761D01*
X108873571Y-90262380D01*
X109111666Y-90262380D01*
X109302142Y-90214761D01*
X109397380Y-90167142D01*
X109445000Y-90119523D01*
X109492619Y-90024285D01*
X107084857Y-90500476D02*
X107037238Y-90548095D01*
X106989619Y-90690952D01*
X106989619Y-90786190D01*
X107037238Y-90929047D01*
X107132476Y-91024285D01*
X107227714Y-91071904D01*
X107418190Y-91119523D01*
X107561047Y-91119523D01*
X107751523Y-91071904D01*
X107846761Y-91024285D01*
X107942000Y-90929047D01*
X107989619Y-90786190D01*
X107989619Y-90690952D01*
X107942000Y-90548095D01*
X107894380Y-90500476D01*
X107037238Y-90119523D02*
X106989619Y-89976666D01*
X106989619Y-89738571D01*
X107037238Y-89643333D01*
X107084857Y-89595714D01*
X107180095Y-89548095D01*
X107275333Y-89548095D01*
X107370571Y-89595714D01*
X107418190Y-89643333D01*
X107465809Y-89738571D01*
X107513428Y-89929047D01*
X107561047Y-90024285D01*
X107608666Y-90071904D01*
X107703904Y-90119523D01*
X107799142Y-90119523D01*
X107894380Y-90071904D01*
X107942000Y-90024285D01*
X107989619Y-89929047D01*
X107989619Y-89690952D01*
X107942000Y-89548095D01*
X105492619Y-90500476D02*
X105968809Y-90833809D01*
X105492619Y-91071904D02*
X106492619Y-91071904D01*
X106492619Y-90690952D01*
X106445000Y-90595714D01*
X106397380Y-90548095D01*
X106302142Y-90500476D01*
X106159285Y-90500476D01*
X106064047Y-90548095D01*
X106016428Y-90595714D01*
X105968809Y-90690952D01*
X105968809Y-91071904D01*
X105492619Y-90071904D02*
X106492619Y-90071904D01*
X106492619Y-89833809D01*
X106445000Y-89690952D01*
X106349761Y-89595714D01*
X106254523Y-89548095D01*
X106064047Y-89500476D01*
X105921190Y-89500476D01*
X105730714Y-89548095D01*
X105635476Y-89595714D01*
X105540238Y-89690952D01*
X105492619Y-89833809D01*
X105492619Y-90071904D01*
X104992619Y-91167142D02*
X103992619Y-90929047D01*
X104706904Y-90738571D01*
X103992619Y-90548095D01*
X104992619Y-90310000D01*
X103992619Y-89357619D02*
X104468809Y-89690952D01*
X103992619Y-89929047D02*
X104992619Y-89929047D01*
X104992619Y-89548095D01*
X104945000Y-89452857D01*
X104897380Y-89405238D01*
X104802142Y-89357619D01*
X104659285Y-89357619D01*
X104564047Y-89405238D01*
X104516428Y-89452857D01*
X104468809Y-89548095D01*
X104468809Y-89929047D01*
X102587857Y-90500476D02*
X102540238Y-90548095D01*
X102492619Y-90690952D01*
X102492619Y-90786190D01*
X102540238Y-90929047D01*
X102635476Y-91024285D01*
X102730714Y-91071904D01*
X102921190Y-91119523D01*
X103064047Y-91119523D01*
X103254523Y-91071904D01*
X103349761Y-91024285D01*
X103445000Y-90929047D01*
X103492619Y-90786190D01*
X103492619Y-90690952D01*
X103445000Y-90548095D01*
X103397380Y-90500476D01*
X102492619Y-89595714D02*
X102492619Y-90071904D01*
X103492619Y-90071904D01*
X102492619Y-89262380D02*
X103492619Y-89262380D01*
X102492619Y-88690952D02*
X103064047Y-89119523D01*
X103492619Y-88690952D02*
X102921190Y-89262380D01*
X101147571Y-91071904D02*
X101147571Y-90310000D01*
X100766619Y-90690952D02*
X101528523Y-90690952D01*
X101766619Y-89357619D02*
X101766619Y-89833809D01*
X101290428Y-89881428D01*
X101338047Y-89833809D01*
X101385666Y-89738571D01*
X101385666Y-89500476D01*
X101338047Y-89405238D01*
X101290428Y-89357619D01*
X101195190Y-89310000D01*
X100957095Y-89310000D01*
X100861857Y-89357619D01*
X100814238Y-89405238D01*
X100766619Y-89500476D01*
X100766619Y-89738571D01*
X100814238Y-89833809D01*
X100861857Y-89881428D01*
X101766619Y-89024285D02*
X100766619Y-88690952D01*
X101766619Y-88357619D01*
D12*
G04 #@! TO.C,TP85*
X139395000Y-40988000D02*
G75*
G03X139395000Y-40988000I-950000J0D01*
G01*
G04 #@! TO.C,TP84*
X140895000Y-42988000D02*
G75*
G03X140895000Y-42988000I-950000J0D01*
G01*
G04 #@! TO.C,TP83*
X136395000Y-45488000D02*
G75*
G03X136395000Y-45488000I-950000J0D01*
G01*
G04 #@! TO.C,TP82*
X142395000Y-45488000D02*
G75*
G03X142395000Y-45488000I-950000J0D01*
G01*
G04 #@! TO.C,TP81*
X139395000Y-45488000D02*
G75*
G03X139395000Y-45488000I-950000J0D01*
G01*
G04 #@! TO.C,TP80*
X137895000Y-42988000D02*
G75*
G03X137895000Y-42988000I-950000J0D01*
G01*
G04 #@! TO.C,TP78*
X147395000Y-95488000D02*
G75*
G03X147395000Y-95488000I-950000J0D01*
G01*
G04 #@! TO.C,TP48*
X102395000Y-95488000D02*
G75*
G03X102395000Y-95488000I-950000J0D01*
G01*
G04 #@! TO.C,TP69*
X133895000Y-92488000D02*
G75*
G03X133895000Y-92488000I-950000J0D01*
G01*
G04 #@! TO.C,TP49*
X103895000Y-92488000D02*
G75*
G03X103895000Y-92488000I-950000J0D01*
G01*
G04 #@! TO.C,TP50*
X105395000Y-95488000D02*
G75*
G03X105395000Y-95488000I-950000J0D01*
G01*
G04 #@! TO.C,TP51*
X106895000Y-92488000D02*
G75*
G03X106895000Y-92488000I-950000J0D01*
G01*
G04 #@! TO.C,TP52*
X108395000Y-95488000D02*
G75*
G03X108395000Y-95488000I-950000J0D01*
G01*
G04 #@! TO.C,TP53*
X109895000Y-92488000D02*
G75*
G03X109895000Y-92488000I-950000J0D01*
G01*
G04 #@! TO.C,TP68*
X132395000Y-95488000D02*
G75*
G03X132395000Y-95488000I-950000J0D01*
G01*
G04 #@! TO.C,TP79*
X148895000Y-92488000D02*
G75*
G03X148895000Y-92488000I-950000J0D01*
G01*
G04 #@! TO.C,TP77*
X145895000Y-92500000D02*
G75*
G03X145895000Y-92500000I-950000J0D01*
G01*
G04 #@! TO.C,TP76*
X144395000Y-95377000D02*
G75*
G03X144395000Y-95377000I-950000J0D01*
G01*
G04 #@! TO.C,TP75*
X142895000Y-92488000D02*
G75*
G03X142895000Y-92488000I-950000J0D01*
G01*
G04 #@! TO.C,TP74*
X141395000Y-95488000D02*
G75*
G03X141395000Y-95488000I-950000J0D01*
G01*
G04 #@! TO.C,TP73*
X139895000Y-92488000D02*
G75*
G03X139895000Y-92488000I-950000J0D01*
G01*
G04 #@! TO.C,TP72*
X138395000Y-95488000D02*
G75*
G03X138395000Y-95488000I-950000J0D01*
G01*
G04 #@! TO.C,TP67*
X130895000Y-92488000D02*
G75*
G03X130895000Y-92488000I-950000J0D01*
G01*
G04 #@! TO.C,TP66*
X129395000Y-95488000D02*
G75*
G03X129395000Y-95488000I-950000J0D01*
G01*
G04 #@! TO.C,TP54*
X111395000Y-95488000D02*
G75*
G03X111395000Y-95488000I-950000J0D01*
G01*
G04 #@! TO.C,TP55*
X112895000Y-92488000D02*
G75*
G03X112895000Y-92488000I-950000J0D01*
G01*
G04 #@! TO.C,TP56*
X114395000Y-95488000D02*
G75*
G03X114395000Y-95488000I-950000J0D01*
G01*
G04 #@! TO.C,TP57*
X115895000Y-92488000D02*
G75*
G03X115895000Y-92488000I-950000J0D01*
G01*
G04 #@! TO.C,TP64*
X126395000Y-95488000D02*
G75*
G03X126395000Y-95488000I-950000J0D01*
G01*
G04 #@! TO.C,TP58*
X117395000Y-95488000D02*
G75*
G03X117395000Y-95488000I-950000J0D01*
G01*
G04 #@! TO.C,TP59*
X118895000Y-92488000D02*
G75*
G03X118895000Y-92488000I-950000J0D01*
G01*
G04 #@! TO.C,TP60*
X120395000Y-95488000D02*
G75*
G03X120395000Y-95488000I-950000J0D01*
G01*
G04 #@! TO.C,TP70*
X135395000Y-95488000D02*
G75*
G03X135395000Y-95488000I-950000J0D01*
G01*
G04 #@! TO.C,TP61*
X121895000Y-92488000D02*
G75*
G03X121895000Y-92488000I-950000J0D01*
G01*
G04 #@! TO.C,TP62*
X123395000Y-95488000D02*
G75*
G03X123395000Y-95488000I-950000J0D01*
G01*
G04 #@! TO.C,TP63*
X124895000Y-92488000D02*
G75*
G03X124895000Y-92488000I-950000J0D01*
G01*
G04 #@! TO.C,TP65*
X127895000Y-92488000D02*
G75*
G03X127895000Y-92488000I-950000J0D01*
G01*
G04 #@! TO.C,TP71*
X136895000Y-92488000D02*
G75*
G03X136895000Y-92488000I-950000J0D01*
G01*
G04 #@! TD*
M02*
