G04 #@! TF.GenerationSoftware,KiCad,Pcbnew,(5.0.2-5)-5*
G04 #@! TF.CreationDate,2019-03-10T20:48:22-07:00*
G04 #@! TF.ProjectId,pygameboy,70796761-6d65-4626-9f79-2e6b69636164,rev?*
G04 #@! TF.SameCoordinates,Original*
G04 #@! TF.FileFunction,Soldermask,Top*
G04 #@! TF.FilePolarity,Negative*
%FSLAX46Y46*%
G04 Gerber Fmt 4.6, Leading zero omitted, Abs format (unit mm)*
G04 Created by KiCad (PCBNEW (5.0.2-5)-5) date Sunday, March 10, 2019 at 08:48:22 PM*
%MOMM*%
%LPD*%
G01*
G04 APERTURE LIST*
%ADD10C,0.100000*%
G04 APERTURE END LIST*
D10*
G04 #@! TO.C,J4*
G36*
X125920500Y-42658500D02*
X125420500Y-42658500D01*
X125420500Y-44108500D01*
X125920500Y-44108500D01*
X125920500Y-42658500D01*
G37*
G36*
X126570500Y-42658500D02*
X126070500Y-42658500D01*
X126070500Y-44108500D01*
X126570500Y-44108500D01*
X126570500Y-42658500D01*
G37*
G36*
X127220500Y-42658500D02*
X126720500Y-42658500D01*
X126720500Y-44108500D01*
X127220500Y-44108500D01*
X127220500Y-42658500D01*
G37*
G36*
X127870500Y-42658500D02*
X127370500Y-42658500D01*
X127370500Y-44108500D01*
X127870500Y-44108500D01*
X127870500Y-42658500D01*
G37*
G36*
X128520500Y-42658500D02*
X128020500Y-42658500D01*
X128020500Y-44108500D01*
X128520500Y-44108500D01*
X128520500Y-42658500D01*
G37*
G36*
X148895800Y-97538800D02*
X147394200Y-97538800D01*
X147394200Y-91437200D01*
X148895800Y-91437200D01*
X148895800Y-97538800D01*
X148895800Y-97538800D01*
G37*
G36*
X146995800Y-97538800D02*
X145894200Y-97538800D01*
X145894200Y-91437200D01*
X146995800Y-91437200D01*
X146995800Y-97538800D01*
X146995800Y-97538800D01*
G37*
G36*
X145495800Y-97538800D02*
X144394200Y-97538800D01*
X144394200Y-91437200D01*
X145495800Y-91437200D01*
X145495800Y-97538800D01*
X145495800Y-97538800D01*
G37*
G36*
X143995800Y-97538800D02*
X142894200Y-97538800D01*
X142894200Y-91437200D01*
X143995800Y-91437200D01*
X143995800Y-97538800D01*
X143995800Y-97538800D01*
G37*
G36*
X142495800Y-97538800D02*
X141394200Y-97538800D01*
X141394200Y-91437200D01*
X142495800Y-91437200D01*
X142495800Y-97538800D01*
X142495800Y-97538800D01*
G37*
G36*
X140995800Y-97538800D02*
X139894200Y-97538800D01*
X139894200Y-91437200D01*
X140995800Y-91437200D01*
X140995800Y-97538800D01*
X140995800Y-97538800D01*
G37*
G36*
X139495800Y-97538800D02*
X138394200Y-97538800D01*
X138394200Y-91437200D01*
X139495800Y-91437200D01*
X139495800Y-97538800D01*
X139495800Y-97538800D01*
G37*
G36*
X137995800Y-97538800D02*
X136894200Y-97538800D01*
X136894200Y-91437200D01*
X137995800Y-91437200D01*
X137995800Y-97538800D01*
X137995800Y-97538800D01*
G37*
G36*
X136495800Y-97538800D02*
X135394200Y-97538800D01*
X135394200Y-91437200D01*
X136495800Y-91437200D01*
X136495800Y-97538800D01*
X136495800Y-97538800D01*
G37*
G36*
X134995800Y-97538800D02*
X133894200Y-97538800D01*
X133894200Y-91437200D01*
X134995800Y-91437200D01*
X134995800Y-97538800D01*
X134995800Y-97538800D01*
G37*
G36*
X133495800Y-97538800D02*
X132394200Y-97538800D01*
X132394200Y-91437200D01*
X133495800Y-91437200D01*
X133495800Y-97538800D01*
X133495800Y-97538800D01*
G37*
G36*
X131995800Y-97538800D02*
X130894200Y-97538800D01*
X130894200Y-91437200D01*
X131995800Y-91437200D01*
X131995800Y-97538800D01*
X131995800Y-97538800D01*
G37*
G36*
X130495800Y-97538800D02*
X129394200Y-97538800D01*
X129394200Y-91437200D01*
X130495800Y-91437200D01*
X130495800Y-97538800D01*
X130495800Y-97538800D01*
G37*
G36*
X128995800Y-97538800D02*
X127894200Y-97538800D01*
X127894200Y-91437200D01*
X128995800Y-91437200D01*
X128995800Y-97538800D01*
X128995800Y-97538800D01*
G37*
G36*
X127495800Y-97538800D02*
X126394200Y-97538800D01*
X126394200Y-91437200D01*
X127495800Y-91437200D01*
X127495800Y-97538800D01*
X127495800Y-97538800D01*
G37*
G36*
X125995800Y-97538800D02*
X124894200Y-97538800D01*
X124894200Y-91437200D01*
X125995800Y-91437200D01*
X125995800Y-97538800D01*
X125995800Y-97538800D01*
G37*
G36*
X124495800Y-97538800D02*
X123394200Y-97538800D01*
X123394200Y-91437200D01*
X124495800Y-91437200D01*
X124495800Y-97538800D01*
X124495800Y-97538800D01*
G37*
G36*
X122995800Y-97538800D02*
X121894200Y-97538800D01*
X121894200Y-91437200D01*
X122995800Y-91437200D01*
X122995800Y-97538800D01*
X122995800Y-97538800D01*
G37*
G36*
X121495800Y-97538800D02*
X120394200Y-97538800D01*
X120394200Y-91437200D01*
X121495800Y-91437200D01*
X121495800Y-97538800D01*
X121495800Y-97538800D01*
G37*
G36*
X119995800Y-97538800D02*
X118894200Y-97538800D01*
X118894200Y-91437200D01*
X119995800Y-91437200D01*
X119995800Y-97538800D01*
X119995800Y-97538800D01*
G37*
G36*
X118495800Y-97538800D02*
X117394200Y-97538800D01*
X117394200Y-91437200D01*
X118495800Y-91437200D01*
X118495800Y-97538800D01*
X118495800Y-97538800D01*
G37*
G36*
X116995800Y-97538800D02*
X115894200Y-97538800D01*
X115894200Y-91437200D01*
X116995800Y-91437200D01*
X116995800Y-97538800D01*
X116995800Y-97538800D01*
G37*
G36*
X115495800Y-97538800D02*
X114394200Y-97538800D01*
X114394200Y-91437200D01*
X115495800Y-91437200D01*
X115495800Y-97538800D01*
X115495800Y-97538800D01*
G37*
G36*
X113995800Y-97538800D02*
X112894200Y-97538800D01*
X112894200Y-91437200D01*
X113995800Y-91437200D01*
X113995800Y-97538800D01*
X113995800Y-97538800D01*
G37*
G36*
X112495800Y-97538800D02*
X111394200Y-97538800D01*
X111394200Y-91437200D01*
X112495800Y-91437200D01*
X112495800Y-97538800D01*
X112495800Y-97538800D01*
G37*
G36*
X110995800Y-97538800D02*
X109894200Y-97538800D01*
X109894200Y-91437200D01*
X110995800Y-91437200D01*
X110995800Y-97538800D01*
X110995800Y-97538800D01*
G37*
G36*
X109495800Y-97538800D02*
X108394200Y-97538800D01*
X108394200Y-91437200D01*
X109495800Y-91437200D01*
X109495800Y-97538800D01*
X109495800Y-97538800D01*
G37*
G36*
X107995800Y-97538800D02*
X106894200Y-97538800D01*
X106894200Y-91437200D01*
X107995800Y-91437200D01*
X107995800Y-97538800D01*
X107995800Y-97538800D01*
G37*
G36*
X106495800Y-97538800D02*
X105394200Y-97538800D01*
X105394200Y-91437200D01*
X106495800Y-91437200D01*
X106495800Y-97538800D01*
X106495800Y-97538800D01*
G37*
G36*
X104995800Y-97538800D02*
X103894200Y-97538800D01*
X103894200Y-91437200D01*
X104995800Y-91437200D01*
X104995800Y-97538800D01*
X104995800Y-97538800D01*
G37*
G36*
X103495800Y-97538800D02*
X102394200Y-97538800D01*
X102394200Y-91437200D01*
X103495800Y-91437200D01*
X103495800Y-97538800D01*
X103495800Y-97538800D01*
G37*
G36*
X101995800Y-97498800D02*
X100494200Y-97498800D01*
X100494200Y-91397200D01*
X101995800Y-91397200D01*
X101995800Y-97498800D01*
X101995800Y-97498800D01*
G37*
G36*
X113995800Y-88288800D02*
X112894200Y-88288800D01*
X112894200Y-87187200D01*
X113995800Y-87187200D01*
X113995800Y-88288800D01*
X113995800Y-88288800D01*
G37*
G36*
X119995800Y-88288800D02*
X118894200Y-88288800D01*
X118894200Y-87187200D01*
X119995800Y-87187200D01*
X119995800Y-88288800D01*
X119995800Y-88288800D01*
G37*
G36*
X110995800Y-88288800D02*
X109894200Y-88288800D01*
X109894200Y-87187200D01*
X110995800Y-87187200D01*
X110995800Y-88288800D01*
X110995800Y-88288800D01*
G37*
G36*
X145495800Y-88288800D02*
X144394200Y-88288800D01*
X144394200Y-87187200D01*
X145495800Y-87187200D01*
X145495800Y-88288800D01*
X145495800Y-88288800D01*
G37*
G36*
X143995800Y-88288800D02*
X142894200Y-88288800D01*
X142894200Y-87187200D01*
X143995800Y-87187200D01*
X143995800Y-88288800D01*
X143995800Y-88288800D01*
G37*
G36*
X142495800Y-88288800D02*
X141394200Y-88288800D01*
X141394200Y-87187200D01*
X142495800Y-87187200D01*
X142495800Y-88288800D01*
X142495800Y-88288800D01*
G37*
G36*
X140995800Y-88288800D02*
X139894200Y-88288800D01*
X139894200Y-87187200D01*
X140995800Y-87187200D01*
X140995800Y-88288800D01*
X140995800Y-88288800D01*
G37*
G36*
X139495800Y-88288800D02*
X138394200Y-88288800D01*
X138394200Y-87187200D01*
X139495800Y-87187200D01*
X139495800Y-88288800D01*
X139495800Y-88288800D01*
G37*
G36*
X137995800Y-88288800D02*
X136894200Y-88288800D01*
X136894200Y-87187200D01*
X137995800Y-87187200D01*
X137995800Y-88288800D01*
X137995800Y-88288800D01*
G37*
G36*
X136495800Y-88288800D02*
X135394200Y-88288800D01*
X135394200Y-87187200D01*
X136495800Y-87187200D01*
X136495800Y-88288800D01*
X136495800Y-88288800D01*
G37*
G36*
X134995800Y-88288800D02*
X133894200Y-88288800D01*
X133894200Y-87187200D01*
X134995800Y-87187200D01*
X134995800Y-88288800D01*
X134995800Y-88288800D01*
G37*
G36*
X133495800Y-88288800D02*
X132394200Y-88288800D01*
X132394200Y-87187200D01*
X133495800Y-87187200D01*
X133495800Y-88288800D01*
X133495800Y-88288800D01*
G37*
G36*
X131995800Y-88288800D02*
X130894200Y-88288800D01*
X130894200Y-87187200D01*
X131995800Y-87187200D01*
X131995800Y-88288800D01*
X131995800Y-88288800D01*
G37*
G36*
X118495800Y-88288800D02*
X117394200Y-88288800D01*
X117394200Y-87187200D01*
X118495800Y-87187200D01*
X118495800Y-88288800D01*
X118495800Y-88288800D01*
G37*
G36*
X116995800Y-88288800D02*
X115894200Y-88288800D01*
X115894200Y-87187200D01*
X116995800Y-87187200D01*
X116995800Y-88288800D01*
X116995800Y-88288800D01*
G37*
G36*
X130495800Y-88288800D02*
X129394200Y-88288800D01*
X129394200Y-87187200D01*
X130495800Y-87187200D01*
X130495800Y-88288800D01*
X130495800Y-88288800D01*
G37*
G36*
X115495800Y-88288800D02*
X114394200Y-88288800D01*
X114394200Y-87187200D01*
X115495800Y-87187200D01*
X115495800Y-88288800D01*
X115495800Y-88288800D01*
G37*
G36*
X128995800Y-88288800D02*
X127894200Y-88288800D01*
X127894200Y-87187200D01*
X128995800Y-87187200D01*
X128995800Y-88288800D01*
X128995800Y-88288800D01*
G37*
G36*
X127495800Y-88288800D02*
X126394200Y-88288800D01*
X126394200Y-87187200D01*
X127495800Y-87187200D01*
X127495800Y-88288800D01*
X127495800Y-88288800D01*
G37*
G36*
X125995800Y-88288800D02*
X124894200Y-88288800D01*
X124894200Y-87187200D01*
X125995800Y-87187200D01*
X125995800Y-88288800D01*
X125995800Y-88288800D01*
G37*
G36*
X124495800Y-88288800D02*
X123394200Y-88288800D01*
X123394200Y-87187200D01*
X124495800Y-87187200D01*
X124495800Y-88288800D01*
X124495800Y-88288800D01*
G37*
G36*
X122995800Y-88288800D02*
X121894200Y-88288800D01*
X121894200Y-87187200D01*
X122995800Y-87187200D01*
X122995800Y-88288800D01*
X122995800Y-88288800D01*
G37*
G36*
X101769800Y-88288800D02*
X100668200Y-88288800D01*
X100668200Y-87187200D01*
X101769800Y-87187200D01*
X101769800Y-88288800D01*
X101769800Y-88288800D01*
G37*
G36*
X103495800Y-88288800D02*
X102394200Y-88288800D01*
X102394200Y-87187200D01*
X103495800Y-87187200D01*
X103495800Y-88288800D01*
X103495800Y-88288800D01*
G37*
G36*
X104995800Y-88288800D02*
X103894200Y-88288800D01*
X103894200Y-87187200D01*
X104995800Y-87187200D01*
X104995800Y-88288800D01*
X104995800Y-88288800D01*
G37*
G36*
X106495800Y-88288800D02*
X105394200Y-88288800D01*
X105394200Y-87187200D01*
X106495800Y-87187200D01*
X106495800Y-88288800D01*
X106495800Y-88288800D01*
G37*
G36*
X107995800Y-88288800D02*
X106894200Y-88288800D01*
X106894200Y-87187200D01*
X107995800Y-87187200D01*
X107995800Y-88288800D01*
X107995800Y-88288800D01*
G37*
G36*
X109495800Y-88288800D02*
X108394200Y-88288800D01*
X108394200Y-87187200D01*
X109495800Y-87187200D01*
X109495800Y-88288800D01*
X109495800Y-88288800D01*
G37*
G36*
X112495800Y-88288800D02*
X111394200Y-88288800D01*
X111394200Y-87187200D01*
X112495800Y-87187200D01*
X112495800Y-88288800D01*
X112495800Y-88288800D01*
G37*
G36*
X121495800Y-88288800D02*
X120394200Y-88288800D01*
X120394200Y-87187200D01*
X121495800Y-87187200D01*
X121495800Y-88288800D01*
X121495800Y-88288800D01*
G37*
G36*
X148595800Y-88238800D02*
X147494200Y-88238800D01*
X147494200Y-87137200D01*
X148595800Y-87137200D01*
X148595800Y-88238800D01*
X148595800Y-88238800D01*
G37*
G36*
X146345800Y-86288800D02*
X145244200Y-86288800D01*
X145244200Y-85187200D01*
X146345800Y-85187200D01*
X146345800Y-86288800D01*
X146345800Y-86288800D01*
G37*
G36*
X125215710Y-78638244D02*
X125744068Y-78743341D01*
X126426670Y-79026084D01*
X127040996Y-79436563D01*
X127563437Y-79959004D01*
X127973916Y-80573330D01*
X128256659Y-81255932D01*
X128400800Y-81980578D01*
X128400800Y-82719422D01*
X128256659Y-83444068D01*
X127973916Y-84126670D01*
X127563437Y-84740996D01*
X127040996Y-85263437D01*
X126426670Y-85673916D01*
X125744068Y-85956659D01*
X125381745Y-86028729D01*
X125019423Y-86100800D01*
X124280577Y-86100800D01*
X123918255Y-86028729D01*
X123555932Y-85956659D01*
X122873330Y-85673916D01*
X122259004Y-85263437D01*
X121736563Y-84740996D01*
X121326084Y-84126670D01*
X121043341Y-83444068D01*
X120899200Y-82719422D01*
X120899200Y-81980578D01*
X121043341Y-81255932D01*
X121326084Y-80573330D01*
X121736563Y-79959004D01*
X122259004Y-79436563D01*
X122873330Y-79026084D01*
X123555932Y-78743341D01*
X124084290Y-78638244D01*
X124280577Y-78599200D01*
X125019423Y-78599200D01*
X125215710Y-78638244D01*
X125215710Y-78638244D01*
G37*
G36*
X119549800Y-85496800D02*
X117998200Y-85496800D01*
X117998200Y-79095200D01*
X119549800Y-79095200D01*
X119549800Y-85496800D01*
X119549800Y-85496800D01*
G37*
G36*
X113649800Y-85496800D02*
X112098200Y-85496800D01*
X112098200Y-79095200D01*
X113649800Y-79095200D01*
X113649800Y-85496800D01*
X113649800Y-85496800D01*
G37*
G36*
X109389800Y-85496800D02*
X107838200Y-85496800D01*
X107838200Y-79095200D01*
X109389800Y-79095200D01*
X109389800Y-85496800D01*
X109389800Y-85496800D01*
G37*
G36*
X103489800Y-85496800D02*
X101938200Y-85496800D01*
X101938200Y-79095200D01*
X103489800Y-79095200D01*
X103489800Y-85496800D01*
X103489800Y-85496800D01*
G37*
G36*
X137145800Y-84463800D02*
X130744200Y-84463800D01*
X130744200Y-82912200D01*
X137145800Y-82912200D01*
X137145800Y-84463800D01*
X137145800Y-84463800D01*
G37*
G36*
X139120770Y-81503372D02*
X139236689Y-81526429D01*
X139418678Y-81601811D01*
X139582463Y-81711249D01*
X139721751Y-81850537D01*
X139831189Y-82014322D01*
X139906571Y-82196311D01*
X139945000Y-82389509D01*
X139945000Y-82586491D01*
X139906571Y-82779689D01*
X139831189Y-82961678D01*
X139721751Y-83125463D01*
X139582463Y-83264751D01*
X139418678Y-83374189D01*
X139236689Y-83449571D01*
X139120770Y-83472628D01*
X139043493Y-83488000D01*
X138846507Y-83488000D01*
X138769230Y-83472628D01*
X138653311Y-83449571D01*
X138471322Y-83374189D01*
X138307537Y-83264751D01*
X138168249Y-83125463D01*
X138058811Y-82961678D01*
X137983429Y-82779689D01*
X137945000Y-82586491D01*
X137945000Y-82389509D01*
X137983429Y-82196311D01*
X138058811Y-82014322D01*
X138168249Y-81850537D01*
X138307537Y-81711249D01*
X138471322Y-81601811D01*
X138653311Y-81526429D01*
X138769230Y-81503372D01*
X138846507Y-81488000D01*
X139043493Y-81488000D01*
X139120770Y-81503372D01*
X139120770Y-81503372D01*
G37*
G36*
X129809377Y-80440643D02*
X129846855Y-80452013D01*
X129881404Y-80470479D01*
X129911677Y-80495323D01*
X129936521Y-80525596D01*
X129954987Y-80560145D01*
X129966357Y-80597623D01*
X129970800Y-80642738D01*
X129970800Y-81381262D01*
X129966357Y-81426377D01*
X129954987Y-81463855D01*
X129936521Y-81498404D01*
X129911677Y-81528677D01*
X129881404Y-81553521D01*
X129846855Y-81571987D01*
X129809377Y-81583357D01*
X129764262Y-81587800D01*
X129125738Y-81587800D01*
X129080623Y-81583357D01*
X129043145Y-81571987D01*
X129008596Y-81553521D01*
X128978323Y-81528677D01*
X128953479Y-81498404D01*
X128935013Y-81463855D01*
X128923643Y-81426377D01*
X128919200Y-81381262D01*
X128919200Y-80642738D01*
X128923643Y-80597623D01*
X128935013Y-80560145D01*
X128953479Y-80525596D01*
X128978323Y-80495323D01*
X129008596Y-80470479D01*
X129043145Y-80452013D01*
X129080623Y-80440643D01*
X129125738Y-80436200D01*
X129764262Y-80436200D01*
X129809377Y-80440643D01*
X129809377Y-80440643D01*
G37*
G36*
X120867614Y-79048221D02*
X120905092Y-79059591D01*
X120939641Y-79078057D01*
X120974687Y-79106818D01*
X121426182Y-79558313D01*
X121454943Y-79593359D01*
X121473409Y-79627908D01*
X121484779Y-79665386D01*
X121488617Y-79704363D01*
X121484779Y-79743340D01*
X121473409Y-79780818D01*
X121454943Y-79815367D01*
X121426182Y-79850413D01*
X120903977Y-80372618D01*
X120868931Y-80401379D01*
X120834382Y-80419845D01*
X120796904Y-80431215D01*
X120757927Y-80435053D01*
X120718950Y-80431215D01*
X120681472Y-80419845D01*
X120646923Y-80401379D01*
X120611877Y-80372618D01*
X120160382Y-79921123D01*
X120131621Y-79886077D01*
X120113155Y-79851528D01*
X120101785Y-79814050D01*
X120097947Y-79775073D01*
X120101785Y-79736096D01*
X120113155Y-79698618D01*
X120131621Y-79664069D01*
X120160382Y-79629023D01*
X120682587Y-79106818D01*
X120717633Y-79078057D01*
X120752182Y-79059591D01*
X120789660Y-79048221D01*
X120828637Y-79044383D01*
X120867614Y-79048221D01*
X120867614Y-79048221D01*
G37*
G36*
X129809377Y-78690643D02*
X129846855Y-78702013D01*
X129881404Y-78720479D01*
X129911677Y-78745323D01*
X129936521Y-78775596D01*
X129954987Y-78810145D01*
X129966357Y-78847623D01*
X129970800Y-78892738D01*
X129970800Y-79631262D01*
X129966357Y-79676377D01*
X129954987Y-79713855D01*
X129936521Y-79748404D01*
X129911677Y-79778677D01*
X129881404Y-79803521D01*
X129846855Y-79821987D01*
X129809377Y-79833357D01*
X129764262Y-79837800D01*
X129125738Y-79837800D01*
X129080623Y-79833357D01*
X129043145Y-79821987D01*
X129008596Y-79803521D01*
X128978323Y-79778677D01*
X128953479Y-79748404D01*
X128935013Y-79713855D01*
X128923643Y-79676377D01*
X128919200Y-79631262D01*
X128919200Y-78892738D01*
X128923643Y-78847623D01*
X128935013Y-78810145D01*
X128953479Y-78775596D01*
X128978323Y-78745323D01*
X129008596Y-78720479D01*
X129043145Y-78702013D01*
X129080623Y-78690643D01*
X129125738Y-78686200D01*
X129764262Y-78686200D01*
X129809377Y-78690643D01*
X129809377Y-78690643D01*
G37*
G36*
X143151300Y-79743800D02*
X141269700Y-79743800D01*
X141269700Y-76212200D01*
X143151300Y-76212200D01*
X143151300Y-79743800D01*
X143151300Y-79743800D01*
G37*
G36*
X122105050Y-77810785D02*
X122142528Y-77822155D01*
X122177077Y-77840621D01*
X122212123Y-77869382D01*
X122663618Y-78320877D01*
X122692379Y-78355923D01*
X122710845Y-78390472D01*
X122722215Y-78427950D01*
X122726053Y-78466927D01*
X122722215Y-78505904D01*
X122710845Y-78543382D01*
X122692379Y-78577931D01*
X122663618Y-78612977D01*
X122141413Y-79135182D01*
X122106367Y-79163943D01*
X122071818Y-79182409D01*
X122034340Y-79193779D01*
X121995363Y-79197617D01*
X121956386Y-79193779D01*
X121918908Y-79182409D01*
X121884359Y-79163943D01*
X121849313Y-79135182D01*
X121397818Y-78683687D01*
X121369057Y-78648641D01*
X121350591Y-78614092D01*
X121339221Y-78576614D01*
X121335383Y-78537637D01*
X121339221Y-78498660D01*
X121350591Y-78461182D01*
X121369057Y-78426633D01*
X121397818Y-78391587D01*
X121920023Y-77869382D01*
X121955069Y-77840621D01*
X121989618Y-77822155D01*
X122027096Y-77810785D01*
X122066073Y-77806947D01*
X122105050Y-77810785D01*
X122105050Y-77810785D01*
G37*
G36*
X137145800Y-78563800D02*
X130744200Y-78563800D01*
X130744200Y-77012200D01*
X137145800Y-77012200D01*
X137145800Y-78563800D01*
X137145800Y-78563800D01*
G37*
G36*
X105305300Y-78473800D02*
X103423700Y-78473800D01*
X103423700Y-74942200D01*
X105305300Y-74942200D01*
X105305300Y-78473800D01*
X105305300Y-78473800D01*
G37*
G36*
X111426377Y-77202643D02*
X111463855Y-77214013D01*
X111498404Y-77232479D01*
X111528677Y-77257323D01*
X111553521Y-77287596D01*
X111571987Y-77322145D01*
X111583357Y-77359623D01*
X111587800Y-77404738D01*
X111587800Y-78043262D01*
X111583357Y-78088377D01*
X111571987Y-78125855D01*
X111553521Y-78160404D01*
X111528677Y-78190677D01*
X111498404Y-78215521D01*
X111463855Y-78233987D01*
X111426377Y-78245357D01*
X111381262Y-78249800D01*
X110642738Y-78249800D01*
X110597623Y-78245357D01*
X110560145Y-78233987D01*
X110525596Y-78215521D01*
X110495323Y-78190677D01*
X110470479Y-78160404D01*
X110452013Y-78125855D01*
X110440643Y-78088377D01*
X110436200Y-78043262D01*
X110436200Y-77404738D01*
X110440643Y-77359623D01*
X110452013Y-77322145D01*
X110470479Y-77287596D01*
X110495323Y-77257323D01*
X110525596Y-77232479D01*
X110560145Y-77214013D01*
X110597623Y-77202643D01*
X110642738Y-77198200D01*
X111381262Y-77198200D01*
X111426377Y-77202643D01*
X111426377Y-77202643D01*
G37*
G36*
X113176377Y-77202643D02*
X113213855Y-77214013D01*
X113248404Y-77232479D01*
X113278677Y-77257323D01*
X113303521Y-77287596D01*
X113321987Y-77322145D01*
X113333357Y-77359623D01*
X113337800Y-77404738D01*
X113337800Y-78043262D01*
X113333357Y-78088377D01*
X113321987Y-78125855D01*
X113303521Y-78160404D01*
X113278677Y-78190677D01*
X113248404Y-78215521D01*
X113213855Y-78233987D01*
X113176377Y-78245357D01*
X113131262Y-78249800D01*
X112392738Y-78249800D01*
X112347623Y-78245357D01*
X112310145Y-78233987D01*
X112275596Y-78215521D01*
X112245323Y-78190677D01*
X112220479Y-78160404D01*
X112202013Y-78125855D01*
X112190643Y-78088377D01*
X112186200Y-78043262D01*
X112186200Y-77404738D01*
X112190643Y-77359623D01*
X112202013Y-77322145D01*
X112220479Y-77287596D01*
X112245323Y-77257323D01*
X112275596Y-77232479D01*
X112310145Y-77214013D01*
X112347623Y-77202643D01*
X112392738Y-77198200D01*
X113131262Y-77198200D01*
X113176377Y-77202643D01*
X113176377Y-77202643D01*
G37*
G36*
X127344614Y-75492221D02*
X127382092Y-75503591D01*
X127416641Y-75522057D01*
X127451687Y-75550818D01*
X127903182Y-76002313D01*
X127931943Y-76037359D01*
X127950409Y-76071908D01*
X127961779Y-76109386D01*
X127965617Y-76148363D01*
X127961779Y-76187340D01*
X127950409Y-76224818D01*
X127931943Y-76259367D01*
X127903182Y-76294413D01*
X127380977Y-76816618D01*
X127345931Y-76845379D01*
X127311382Y-76863845D01*
X127273904Y-76875215D01*
X127234927Y-76879053D01*
X127195950Y-76875215D01*
X127158472Y-76863845D01*
X127123923Y-76845379D01*
X127088877Y-76816618D01*
X126637382Y-76365123D01*
X126608621Y-76330077D01*
X126590155Y-76295528D01*
X126578785Y-76258050D01*
X126574947Y-76219073D01*
X126578785Y-76180096D01*
X126590155Y-76142618D01*
X126608621Y-76108069D01*
X126637382Y-76073023D01*
X127159587Y-75550818D01*
X127194633Y-75522057D01*
X127229182Y-75503591D01*
X127266660Y-75492221D01*
X127305637Y-75488383D01*
X127344614Y-75492221D01*
X127344614Y-75492221D01*
G37*
G36*
X102123800Y-76191800D02*
X100822200Y-76191800D01*
X100822200Y-75190200D01*
X102123800Y-75190200D01*
X102123800Y-76191800D01*
X102123800Y-76191800D01*
G37*
G36*
X139710800Y-75928800D02*
X136179200Y-75928800D01*
X136179200Y-74047200D01*
X139710800Y-74047200D01*
X139710800Y-75928800D01*
X139710800Y-75928800D01*
G37*
G36*
X128582050Y-74254785D02*
X128619528Y-74266155D01*
X128654077Y-74284621D01*
X128689123Y-74313382D01*
X129140618Y-74764877D01*
X129169379Y-74799923D01*
X129187845Y-74834472D01*
X129199215Y-74871950D01*
X129203053Y-74910927D01*
X129199215Y-74949904D01*
X129187845Y-74987382D01*
X129169379Y-75021931D01*
X129140618Y-75056977D01*
X128618413Y-75579182D01*
X128583367Y-75607943D01*
X128548818Y-75626409D01*
X128511340Y-75637779D01*
X128472363Y-75641617D01*
X128433386Y-75637779D01*
X128395908Y-75626409D01*
X128361359Y-75607943D01*
X128326313Y-75579182D01*
X127874818Y-75127687D01*
X127846057Y-75092641D01*
X127827591Y-75058092D01*
X127816221Y-75020614D01*
X127812383Y-74981637D01*
X127816221Y-74942660D01*
X127827591Y-74905182D01*
X127846057Y-74870633D01*
X127874818Y-74835587D01*
X128397023Y-74313382D01*
X128432069Y-74284621D01*
X128466618Y-74266155D01*
X128504096Y-74254785D01*
X128543073Y-74250947D01*
X128582050Y-74254785D01*
X128582050Y-74254785D01*
G37*
G36*
X110596356Y-73140137D02*
X108099137Y-75637356D01*
X106768644Y-74306863D01*
X109265863Y-71809644D01*
X110596356Y-73140137D01*
X110596356Y-73140137D01*
G37*
G36*
X117692614Y-73968221D02*
X117730092Y-73979591D01*
X117764641Y-73998057D01*
X117799687Y-74026818D01*
X118251182Y-74478313D01*
X118279943Y-74513359D01*
X118298409Y-74547908D01*
X118309779Y-74585386D01*
X118313617Y-74624363D01*
X118309779Y-74663340D01*
X118298409Y-74700818D01*
X118279943Y-74735367D01*
X118251182Y-74770413D01*
X117728977Y-75292618D01*
X117693931Y-75321379D01*
X117659382Y-75339845D01*
X117621904Y-75351215D01*
X117582927Y-75355053D01*
X117543950Y-75351215D01*
X117506472Y-75339845D01*
X117471923Y-75321379D01*
X117436877Y-75292618D01*
X116985382Y-74841123D01*
X116956621Y-74806077D01*
X116938155Y-74771528D01*
X116926785Y-74734050D01*
X116922947Y-74695073D01*
X116926785Y-74656096D01*
X116938155Y-74618618D01*
X116956621Y-74584069D01*
X116985382Y-74549023D01*
X117507587Y-74026818D01*
X117542633Y-73998057D01*
X117577182Y-73979591D01*
X117614660Y-73968221D01*
X117653637Y-73964383D01*
X117692614Y-73968221D01*
X117692614Y-73968221D01*
G37*
G36*
X125359506Y-62045013D02*
X125361811Y-62045712D01*
X125363938Y-62046850D01*
X125370577Y-62052298D01*
X125556901Y-62238622D01*
X125562349Y-62245261D01*
X125563487Y-62247388D01*
X125564186Y-62249693D01*
X125564422Y-62252094D01*
X125563375Y-62262729D01*
X125563375Y-62287234D01*
X125568156Y-62311267D01*
X125577534Y-62333906D01*
X125591148Y-62354280D01*
X125608475Y-62371607D01*
X125628850Y-62385221D01*
X125651489Y-62394598D01*
X125675522Y-62399378D01*
X125700029Y-62399378D01*
X125710664Y-62398330D01*
X125713060Y-62398566D01*
X125715365Y-62399265D01*
X125717492Y-62400403D01*
X125724131Y-62405851D01*
X125910455Y-62592175D01*
X125915903Y-62598814D01*
X125917041Y-62600941D01*
X125917740Y-62603246D01*
X125917976Y-62605642D01*
X125916928Y-62616277D01*
X125916928Y-62640781D01*
X125921707Y-62664815D01*
X125931084Y-62687454D01*
X125944697Y-62707829D01*
X125962024Y-62725157D01*
X125982398Y-62738771D01*
X126005037Y-62748149D01*
X126029070Y-62752931D01*
X126053577Y-62752931D01*
X126064212Y-62751884D01*
X126066613Y-62752120D01*
X126068918Y-62752819D01*
X126071045Y-62753957D01*
X126077684Y-62759405D01*
X126264008Y-62945729D01*
X126269456Y-62952368D01*
X126270594Y-62954495D01*
X126271293Y-62956800D01*
X126271529Y-62959199D01*
X126270482Y-62969835D01*
X126270482Y-62994339D01*
X126275263Y-63018372D01*
X126284640Y-63041011D01*
X126298254Y-63061386D01*
X126315582Y-63078713D01*
X126335956Y-63092327D01*
X126358595Y-63101704D01*
X126382629Y-63106484D01*
X126407131Y-63106484D01*
X126417765Y-63105437D01*
X126420166Y-63105673D01*
X126422471Y-63106372D01*
X126424598Y-63107510D01*
X126431237Y-63112958D01*
X126617561Y-63299282D01*
X126623009Y-63305921D01*
X126624147Y-63308048D01*
X126624846Y-63310353D01*
X126625082Y-63312754D01*
X126624035Y-63323389D01*
X126624035Y-63347894D01*
X126628816Y-63371927D01*
X126638194Y-63394566D01*
X126651808Y-63414940D01*
X126669135Y-63432267D01*
X126689510Y-63445881D01*
X126712149Y-63455258D01*
X126736182Y-63460038D01*
X126760689Y-63460038D01*
X126771324Y-63458990D01*
X126773720Y-63459226D01*
X126776025Y-63459925D01*
X126778152Y-63461063D01*
X126784791Y-63466511D01*
X126971115Y-63652835D01*
X126976563Y-63659474D01*
X126977701Y-63661601D01*
X126978400Y-63663906D01*
X126978636Y-63666302D01*
X126977588Y-63676937D01*
X126977588Y-63701441D01*
X126982367Y-63725475D01*
X126991744Y-63748114D01*
X127005357Y-63768489D01*
X127022684Y-63785817D01*
X127043058Y-63799431D01*
X127065697Y-63808809D01*
X127089730Y-63813591D01*
X127114237Y-63813591D01*
X127124872Y-63812544D01*
X127127273Y-63812780D01*
X127129578Y-63813479D01*
X127131705Y-63814617D01*
X127138344Y-63820065D01*
X127324668Y-64006389D01*
X127330116Y-64013028D01*
X127331254Y-64015155D01*
X127331953Y-64017460D01*
X127332189Y-64019861D01*
X127331142Y-64030496D01*
X127331142Y-64055001D01*
X127335923Y-64079034D01*
X127345301Y-64101673D01*
X127358915Y-64122047D01*
X127376242Y-64139374D01*
X127396617Y-64152988D01*
X127419256Y-64162365D01*
X127443289Y-64167145D01*
X127467796Y-64167145D01*
X127478431Y-64166097D01*
X127480827Y-64166333D01*
X127483132Y-64167032D01*
X127485259Y-64168170D01*
X127491898Y-64173618D01*
X127678222Y-64359942D01*
X127683670Y-64366581D01*
X127684808Y-64368708D01*
X127685507Y-64371013D01*
X127685743Y-64373409D01*
X127684695Y-64384044D01*
X127684695Y-64408548D01*
X127689474Y-64432582D01*
X127698851Y-64455221D01*
X127712464Y-64475596D01*
X127729791Y-64492924D01*
X127750165Y-64506538D01*
X127772804Y-64515916D01*
X127796837Y-64520698D01*
X127821344Y-64520698D01*
X127831979Y-64519651D01*
X127834380Y-64519887D01*
X127836685Y-64520586D01*
X127838812Y-64521724D01*
X127845451Y-64527172D01*
X128031775Y-64713496D01*
X128037223Y-64720135D01*
X128038361Y-64722262D01*
X128039060Y-64724567D01*
X128039296Y-64726966D01*
X128038249Y-64737602D01*
X128038249Y-64762106D01*
X128043030Y-64786139D01*
X128052407Y-64808778D01*
X128066021Y-64829153D01*
X128083349Y-64846480D01*
X128103723Y-64860094D01*
X128126362Y-64869471D01*
X128150396Y-64874251D01*
X128174898Y-64874251D01*
X128185532Y-64873204D01*
X128187933Y-64873440D01*
X128190238Y-64874139D01*
X128192365Y-64875277D01*
X128199004Y-64880725D01*
X128385328Y-65067049D01*
X128390776Y-65073688D01*
X128391914Y-65075815D01*
X128392613Y-65078120D01*
X128392849Y-65080521D01*
X128391802Y-65091156D01*
X128391802Y-65115661D01*
X128396583Y-65139694D01*
X128405961Y-65162333D01*
X128419575Y-65182707D01*
X128436902Y-65200034D01*
X128457277Y-65213648D01*
X128479916Y-65223025D01*
X128503949Y-65227805D01*
X128528456Y-65227805D01*
X128539091Y-65226757D01*
X128541487Y-65226993D01*
X128543792Y-65227692D01*
X128545919Y-65228830D01*
X128552558Y-65234278D01*
X128738882Y-65420602D01*
X128744330Y-65427241D01*
X128745468Y-65429368D01*
X128746167Y-65431673D01*
X128746403Y-65434069D01*
X128745355Y-65444704D01*
X128745355Y-65469208D01*
X128750134Y-65493242D01*
X128759511Y-65515881D01*
X128773124Y-65536256D01*
X128790451Y-65553584D01*
X128810825Y-65567198D01*
X128833464Y-65576576D01*
X128857497Y-65581358D01*
X128882004Y-65581358D01*
X128892639Y-65580311D01*
X128895040Y-65580547D01*
X128897345Y-65581246D01*
X128899472Y-65582384D01*
X128906111Y-65587832D01*
X129092435Y-65774156D01*
X129097883Y-65780795D01*
X129099021Y-65782922D01*
X129099720Y-65785227D01*
X129099956Y-65787628D01*
X129098909Y-65798263D01*
X129098909Y-65822768D01*
X129103690Y-65846801D01*
X129113068Y-65869440D01*
X129126682Y-65889814D01*
X129144009Y-65907141D01*
X129164384Y-65920755D01*
X129187023Y-65930132D01*
X129211056Y-65934912D01*
X129235563Y-65934912D01*
X129246198Y-65933864D01*
X129248594Y-65934100D01*
X129250899Y-65934799D01*
X129253026Y-65935937D01*
X129259665Y-65941385D01*
X129445989Y-66127709D01*
X129451437Y-66134348D01*
X129452575Y-66136475D01*
X129453274Y-66138780D01*
X129453510Y-66141176D01*
X129452462Y-66151811D01*
X129452462Y-66176315D01*
X129457241Y-66200349D01*
X129466618Y-66222988D01*
X129480231Y-66243363D01*
X129497558Y-66260691D01*
X129517932Y-66274305D01*
X129540571Y-66283683D01*
X129564604Y-66288465D01*
X129589111Y-66288465D01*
X129599746Y-66287418D01*
X129602147Y-66287654D01*
X129604452Y-66288353D01*
X129606579Y-66289491D01*
X129613218Y-66294939D01*
X129799542Y-66481263D01*
X129804990Y-66487902D01*
X129806128Y-66490029D01*
X129806827Y-66492334D01*
X129807063Y-66494733D01*
X129806016Y-66505369D01*
X129806016Y-66529873D01*
X129810797Y-66553906D01*
X129820174Y-66576545D01*
X129833788Y-66596920D01*
X129851116Y-66614247D01*
X129871490Y-66627861D01*
X129894129Y-66637238D01*
X129918163Y-66642018D01*
X129942665Y-66642018D01*
X129953299Y-66640971D01*
X129955700Y-66641207D01*
X129958005Y-66641906D01*
X129960132Y-66643044D01*
X129966771Y-66648492D01*
X130153095Y-66834816D01*
X130158543Y-66841455D01*
X130159681Y-66843582D01*
X130160380Y-66845887D01*
X130160616Y-66848288D01*
X130159569Y-66858923D01*
X130159569Y-66883428D01*
X130164350Y-66907461D01*
X130173728Y-66930100D01*
X130187342Y-66950474D01*
X130204669Y-66967801D01*
X130225044Y-66981415D01*
X130247683Y-66990792D01*
X130271716Y-66995572D01*
X130296223Y-66995572D01*
X130306858Y-66994524D01*
X130309254Y-66994760D01*
X130311559Y-66995459D01*
X130313686Y-66996597D01*
X130320325Y-67002045D01*
X130506649Y-67188369D01*
X130512097Y-67195008D01*
X130513235Y-67197135D01*
X130513934Y-67199440D01*
X130514170Y-67201836D01*
X130513122Y-67212471D01*
X130513122Y-67236975D01*
X130517901Y-67261009D01*
X130527278Y-67283648D01*
X130540891Y-67304023D01*
X130558218Y-67321351D01*
X130578592Y-67334965D01*
X130601231Y-67344343D01*
X130625264Y-67349125D01*
X130649771Y-67349125D01*
X130660406Y-67348078D01*
X130662807Y-67348314D01*
X130665112Y-67349013D01*
X130667239Y-67350151D01*
X130673878Y-67355599D01*
X130860202Y-67541923D01*
X130865650Y-67548562D01*
X130866788Y-67550689D01*
X130867487Y-67552994D01*
X130867723Y-67555393D01*
X130867487Y-67557792D01*
X130866788Y-67560097D01*
X130865650Y-67562224D01*
X130860202Y-67568863D01*
X130254953Y-68174112D01*
X130239407Y-68193054D01*
X130227856Y-68214665D01*
X130220743Y-68238114D01*
X130218341Y-68262500D01*
X130220743Y-68286886D01*
X130227856Y-68310335D01*
X130239407Y-68331946D01*
X130254953Y-68350888D01*
X130860202Y-68956137D01*
X130865650Y-68962776D01*
X130866788Y-68964903D01*
X130867487Y-68967208D01*
X130867723Y-68969607D01*
X130867487Y-68972006D01*
X130866788Y-68974311D01*
X130865650Y-68976438D01*
X130860202Y-68983077D01*
X130673878Y-69169401D01*
X130667239Y-69174849D01*
X130665112Y-69175987D01*
X130662807Y-69176686D01*
X130660406Y-69176922D01*
X130649771Y-69175875D01*
X130625266Y-69175875D01*
X130601233Y-69180656D01*
X130578594Y-69190034D01*
X130558220Y-69203648D01*
X130540893Y-69220975D01*
X130527279Y-69241350D01*
X130517902Y-69263989D01*
X130513122Y-69288022D01*
X130513122Y-69312529D01*
X130514170Y-69323164D01*
X130513934Y-69325560D01*
X130513235Y-69327865D01*
X130512097Y-69329992D01*
X130506649Y-69336631D01*
X130320325Y-69522955D01*
X130313686Y-69528403D01*
X130311559Y-69529541D01*
X130309254Y-69530240D01*
X130306858Y-69530476D01*
X130296223Y-69529428D01*
X130271719Y-69529428D01*
X130247685Y-69534207D01*
X130225046Y-69543584D01*
X130204671Y-69557197D01*
X130187343Y-69574524D01*
X130173729Y-69594898D01*
X130164351Y-69617537D01*
X130159569Y-69641570D01*
X130159569Y-69666077D01*
X130160616Y-69676712D01*
X130160380Y-69679113D01*
X130159681Y-69681418D01*
X130158543Y-69683545D01*
X130153095Y-69690184D01*
X129966771Y-69876508D01*
X129960132Y-69881956D01*
X129958005Y-69883094D01*
X129955700Y-69883793D01*
X129953299Y-69884029D01*
X129942665Y-69882982D01*
X129918161Y-69882982D01*
X129894128Y-69887763D01*
X129871489Y-69897140D01*
X129851114Y-69910754D01*
X129833787Y-69928082D01*
X129820173Y-69948456D01*
X129810796Y-69971095D01*
X129806016Y-69995129D01*
X129806016Y-70019631D01*
X129807063Y-70030265D01*
X129806827Y-70032666D01*
X129806128Y-70034971D01*
X129804990Y-70037098D01*
X129799542Y-70043737D01*
X129613218Y-70230061D01*
X129606579Y-70235509D01*
X129604452Y-70236647D01*
X129602147Y-70237346D01*
X129599746Y-70237582D01*
X129589111Y-70236535D01*
X129564606Y-70236535D01*
X129540573Y-70241316D01*
X129517934Y-70250694D01*
X129497560Y-70264308D01*
X129480233Y-70281635D01*
X129466619Y-70302010D01*
X129457242Y-70324649D01*
X129452462Y-70348682D01*
X129452462Y-70373189D01*
X129453510Y-70383824D01*
X129453274Y-70386220D01*
X129452575Y-70388525D01*
X129451437Y-70390652D01*
X129445989Y-70397291D01*
X129259665Y-70583615D01*
X129253026Y-70589063D01*
X129250899Y-70590201D01*
X129248594Y-70590900D01*
X129246198Y-70591136D01*
X129235563Y-70590088D01*
X129211059Y-70590088D01*
X129187025Y-70594867D01*
X129164386Y-70604244D01*
X129144011Y-70617857D01*
X129126683Y-70635184D01*
X129113069Y-70655558D01*
X129103691Y-70678197D01*
X129098909Y-70702230D01*
X129098909Y-70726737D01*
X129099956Y-70737372D01*
X129099720Y-70739773D01*
X129099021Y-70742078D01*
X129097883Y-70744205D01*
X129092435Y-70750844D01*
X128906111Y-70937168D01*
X128899472Y-70942616D01*
X128897345Y-70943754D01*
X128895040Y-70944453D01*
X128892639Y-70944689D01*
X128882004Y-70943642D01*
X128857499Y-70943642D01*
X128833466Y-70948423D01*
X128810827Y-70957801D01*
X128790453Y-70971415D01*
X128773126Y-70988742D01*
X128759512Y-71009117D01*
X128750135Y-71031756D01*
X128745355Y-71055789D01*
X128745355Y-71080296D01*
X128746403Y-71090931D01*
X128746167Y-71093327D01*
X128745468Y-71095632D01*
X128744330Y-71097759D01*
X128738882Y-71104398D01*
X128552558Y-71290722D01*
X128545919Y-71296170D01*
X128543792Y-71297308D01*
X128541487Y-71298007D01*
X128539091Y-71298243D01*
X128528456Y-71297195D01*
X128503952Y-71297195D01*
X128479918Y-71301974D01*
X128457279Y-71311351D01*
X128436904Y-71324964D01*
X128419576Y-71342291D01*
X128405962Y-71362665D01*
X128396584Y-71385304D01*
X128391802Y-71409337D01*
X128391802Y-71433844D01*
X128392849Y-71444479D01*
X128392613Y-71446880D01*
X128391914Y-71449185D01*
X128390776Y-71451312D01*
X128385328Y-71457951D01*
X128199004Y-71644275D01*
X128192365Y-71649723D01*
X128190238Y-71650861D01*
X128187933Y-71651560D01*
X128185532Y-71651796D01*
X128174898Y-71650749D01*
X128150394Y-71650749D01*
X128126361Y-71655530D01*
X128103722Y-71664907D01*
X128083347Y-71678521D01*
X128066020Y-71695849D01*
X128052406Y-71716223D01*
X128043029Y-71738862D01*
X128038249Y-71762896D01*
X128038249Y-71787398D01*
X128039296Y-71798032D01*
X128039060Y-71800433D01*
X128038361Y-71802738D01*
X128037223Y-71804865D01*
X128031775Y-71811504D01*
X127845451Y-71997828D01*
X127838812Y-72003276D01*
X127836685Y-72004414D01*
X127834380Y-72005113D01*
X127831979Y-72005349D01*
X127821344Y-72004302D01*
X127796839Y-72004302D01*
X127772806Y-72009083D01*
X127750167Y-72018461D01*
X127729793Y-72032075D01*
X127712466Y-72049402D01*
X127698852Y-72069777D01*
X127689475Y-72092416D01*
X127684695Y-72116449D01*
X127684695Y-72140956D01*
X127685743Y-72151591D01*
X127685507Y-72153987D01*
X127684808Y-72156292D01*
X127683670Y-72158419D01*
X127678222Y-72165058D01*
X127491898Y-72351382D01*
X127485259Y-72356830D01*
X127483132Y-72357968D01*
X127480827Y-72358667D01*
X127478431Y-72358903D01*
X127467796Y-72357855D01*
X127443292Y-72357855D01*
X127419258Y-72362634D01*
X127396619Y-72372011D01*
X127376244Y-72385624D01*
X127358916Y-72402951D01*
X127345302Y-72423325D01*
X127335924Y-72445964D01*
X127331142Y-72469997D01*
X127331142Y-72494504D01*
X127332189Y-72505139D01*
X127331953Y-72507540D01*
X127331254Y-72509845D01*
X127330116Y-72511972D01*
X127324668Y-72518611D01*
X127138344Y-72704935D01*
X127131705Y-72710383D01*
X127129578Y-72711521D01*
X127127273Y-72712220D01*
X127124872Y-72712456D01*
X127114237Y-72711409D01*
X127089732Y-72711409D01*
X127065699Y-72716190D01*
X127043060Y-72725568D01*
X127022686Y-72739182D01*
X127005359Y-72756509D01*
X126991745Y-72776884D01*
X126982368Y-72799523D01*
X126977588Y-72823556D01*
X126977588Y-72848063D01*
X126978636Y-72858698D01*
X126978400Y-72861094D01*
X126977701Y-72863399D01*
X126976563Y-72865526D01*
X126971115Y-72872165D01*
X126784791Y-73058489D01*
X126778152Y-73063937D01*
X126776025Y-73065075D01*
X126773720Y-73065774D01*
X126771324Y-73066010D01*
X126760689Y-73064962D01*
X126736185Y-73064962D01*
X126712151Y-73069741D01*
X126689512Y-73079118D01*
X126669137Y-73092731D01*
X126651809Y-73110058D01*
X126638195Y-73130432D01*
X126628817Y-73153071D01*
X126624035Y-73177104D01*
X126624035Y-73201611D01*
X126625082Y-73212246D01*
X126624846Y-73214647D01*
X126624147Y-73216952D01*
X126623009Y-73219079D01*
X126617561Y-73225718D01*
X126431237Y-73412042D01*
X126424598Y-73417490D01*
X126422471Y-73418628D01*
X126420166Y-73419327D01*
X126417765Y-73419563D01*
X126407131Y-73418516D01*
X126382627Y-73418516D01*
X126358594Y-73423297D01*
X126335955Y-73432674D01*
X126315580Y-73446288D01*
X126298253Y-73463616D01*
X126284639Y-73483990D01*
X126275262Y-73506629D01*
X126270482Y-73530663D01*
X126270482Y-73555165D01*
X126271529Y-73565799D01*
X126271293Y-73568200D01*
X126270594Y-73570505D01*
X126269456Y-73572632D01*
X126264008Y-73579271D01*
X126077684Y-73765595D01*
X126071045Y-73771043D01*
X126068918Y-73772181D01*
X126066613Y-73772880D01*
X126064212Y-73773116D01*
X126053577Y-73772069D01*
X126029072Y-73772069D01*
X126005039Y-73776850D01*
X125982400Y-73786228D01*
X125962026Y-73799842D01*
X125944699Y-73817169D01*
X125931085Y-73837544D01*
X125921708Y-73860183D01*
X125916928Y-73884216D01*
X125916928Y-73908723D01*
X125917976Y-73919358D01*
X125917740Y-73921754D01*
X125917041Y-73924059D01*
X125915903Y-73926186D01*
X125910455Y-73932825D01*
X125724131Y-74119149D01*
X125717492Y-74124597D01*
X125715365Y-74125735D01*
X125713060Y-74126434D01*
X125710664Y-74126670D01*
X125700029Y-74125622D01*
X125675525Y-74125622D01*
X125651491Y-74130401D01*
X125628852Y-74139778D01*
X125608477Y-74153391D01*
X125591149Y-74170718D01*
X125577535Y-74191092D01*
X125568157Y-74213731D01*
X125563375Y-74237764D01*
X125563375Y-74262271D01*
X125564422Y-74272906D01*
X125564186Y-74275307D01*
X125563487Y-74277612D01*
X125562349Y-74279739D01*
X125556901Y-74286378D01*
X125370577Y-74472702D01*
X125363938Y-74478150D01*
X125361811Y-74479288D01*
X125359506Y-74479987D01*
X125357107Y-74480223D01*
X125354708Y-74479987D01*
X125352403Y-74479288D01*
X125350276Y-74478150D01*
X125343637Y-74472702D01*
X124738388Y-73867453D01*
X124719446Y-73851907D01*
X124697835Y-73840356D01*
X124674386Y-73833243D01*
X124650000Y-73830841D01*
X124625614Y-73833243D01*
X124602165Y-73840356D01*
X124580554Y-73851907D01*
X124561612Y-73867453D01*
X123956363Y-74472702D01*
X123949724Y-74478150D01*
X123947597Y-74479288D01*
X123945292Y-74479987D01*
X123942893Y-74480223D01*
X123940494Y-74479987D01*
X123938189Y-74479288D01*
X123936062Y-74478150D01*
X123929423Y-74472702D01*
X123743099Y-74286378D01*
X123737651Y-74279739D01*
X123736513Y-74277612D01*
X123735814Y-74275307D01*
X123735578Y-74272906D01*
X123736625Y-74262271D01*
X123736625Y-74237766D01*
X123731844Y-74213733D01*
X123722466Y-74191094D01*
X123708852Y-74170720D01*
X123691525Y-74153393D01*
X123671150Y-74139779D01*
X123648511Y-74130402D01*
X123624478Y-74125622D01*
X123599971Y-74125622D01*
X123589336Y-74126670D01*
X123586940Y-74126434D01*
X123584635Y-74125735D01*
X123582508Y-74124597D01*
X123575869Y-74119149D01*
X123389545Y-73932825D01*
X123384097Y-73926186D01*
X123382959Y-73924059D01*
X123382260Y-73921754D01*
X123382024Y-73919358D01*
X123383072Y-73908723D01*
X123383072Y-73884219D01*
X123378293Y-73860185D01*
X123368916Y-73837546D01*
X123355303Y-73817171D01*
X123337976Y-73799843D01*
X123317602Y-73786229D01*
X123294963Y-73776851D01*
X123270930Y-73772069D01*
X123246423Y-73772069D01*
X123235788Y-73773116D01*
X123233387Y-73772880D01*
X123231082Y-73772181D01*
X123228955Y-73771043D01*
X123222316Y-73765595D01*
X123035992Y-73579271D01*
X123030544Y-73572632D01*
X123029406Y-73570505D01*
X123028707Y-73568200D01*
X123028471Y-73565799D01*
X123029518Y-73555165D01*
X123029518Y-73530661D01*
X123024737Y-73506628D01*
X123015360Y-73483989D01*
X123001746Y-73463614D01*
X122984418Y-73446287D01*
X122964044Y-73432673D01*
X122941405Y-73423296D01*
X122917371Y-73418516D01*
X122892869Y-73418516D01*
X122882235Y-73419563D01*
X122879834Y-73419327D01*
X122877529Y-73418628D01*
X122875402Y-73417490D01*
X122868763Y-73412042D01*
X122682439Y-73225718D01*
X122676991Y-73219079D01*
X122675853Y-73216952D01*
X122675154Y-73214647D01*
X122674918Y-73212246D01*
X122675965Y-73201611D01*
X122675965Y-73177106D01*
X122671184Y-73153073D01*
X122661806Y-73130434D01*
X122648192Y-73110060D01*
X122630865Y-73092733D01*
X122610490Y-73079119D01*
X122587851Y-73069742D01*
X122563818Y-73064962D01*
X122539311Y-73064962D01*
X122528676Y-73066010D01*
X122526280Y-73065774D01*
X122523975Y-73065075D01*
X122521848Y-73063937D01*
X122515209Y-73058489D01*
X122328885Y-72872165D01*
X122323437Y-72865526D01*
X122322299Y-72863399D01*
X122321600Y-72861094D01*
X122321364Y-72858698D01*
X122322412Y-72848063D01*
X122322412Y-72823559D01*
X122317633Y-72799525D01*
X122308256Y-72776886D01*
X122294643Y-72756511D01*
X122277316Y-72739183D01*
X122256942Y-72725569D01*
X122234303Y-72716191D01*
X122210270Y-72711409D01*
X122185763Y-72711409D01*
X122175128Y-72712456D01*
X122172727Y-72712220D01*
X122170422Y-72711521D01*
X122168295Y-72710383D01*
X122161656Y-72704935D01*
X121975332Y-72518611D01*
X121969884Y-72511972D01*
X121968746Y-72509845D01*
X121968047Y-72507540D01*
X121967811Y-72505139D01*
X121968858Y-72494504D01*
X121968858Y-72469999D01*
X121964077Y-72445966D01*
X121954699Y-72423327D01*
X121941085Y-72402953D01*
X121923758Y-72385626D01*
X121903383Y-72372012D01*
X121880744Y-72362635D01*
X121856711Y-72357855D01*
X121832204Y-72357855D01*
X121821569Y-72358903D01*
X121819173Y-72358667D01*
X121816868Y-72357968D01*
X121814741Y-72356830D01*
X121808102Y-72351382D01*
X121621778Y-72165058D01*
X121616330Y-72158419D01*
X121615192Y-72156292D01*
X121614493Y-72153987D01*
X121614257Y-72151591D01*
X121615305Y-72140956D01*
X121615305Y-72116452D01*
X121610526Y-72092418D01*
X121601149Y-72069779D01*
X121587536Y-72049404D01*
X121570209Y-72032076D01*
X121549835Y-72018462D01*
X121527196Y-72009084D01*
X121503163Y-72004302D01*
X121478656Y-72004302D01*
X121468021Y-72005349D01*
X121465620Y-72005113D01*
X121463315Y-72004414D01*
X121461188Y-72003276D01*
X121454549Y-71997828D01*
X121268225Y-71811504D01*
X121262777Y-71804865D01*
X121261639Y-71802738D01*
X121260940Y-71800433D01*
X121260704Y-71798032D01*
X121261751Y-71787398D01*
X121261751Y-71762894D01*
X121256970Y-71738861D01*
X121247593Y-71716222D01*
X121233979Y-71695847D01*
X121216651Y-71678520D01*
X121196277Y-71664906D01*
X121173638Y-71655529D01*
X121149604Y-71650749D01*
X121125102Y-71650749D01*
X121114468Y-71651796D01*
X121112067Y-71651560D01*
X121109762Y-71650861D01*
X121107635Y-71649723D01*
X121100996Y-71644275D01*
X120914672Y-71457951D01*
X120909224Y-71451312D01*
X120908086Y-71449185D01*
X120907387Y-71446880D01*
X120907151Y-71444479D01*
X120908198Y-71433844D01*
X120908198Y-71409339D01*
X120903417Y-71385306D01*
X120894039Y-71362667D01*
X120880425Y-71342293D01*
X120863098Y-71324966D01*
X120842723Y-71311352D01*
X120820084Y-71301975D01*
X120796051Y-71297195D01*
X120771544Y-71297195D01*
X120760909Y-71298243D01*
X120758513Y-71298007D01*
X120756208Y-71297308D01*
X120754081Y-71296170D01*
X120747442Y-71290722D01*
X120561118Y-71104398D01*
X120555670Y-71097759D01*
X120554532Y-71095632D01*
X120553833Y-71093327D01*
X120553597Y-71090931D01*
X120554645Y-71080296D01*
X120554645Y-71055792D01*
X120549866Y-71031758D01*
X120540489Y-71009119D01*
X120526876Y-70988744D01*
X120509549Y-70971416D01*
X120489175Y-70957802D01*
X120466536Y-70948424D01*
X120442503Y-70943642D01*
X120417996Y-70943642D01*
X120407361Y-70944689D01*
X120404960Y-70944453D01*
X120402655Y-70943754D01*
X120400528Y-70942616D01*
X120393889Y-70937168D01*
X120207565Y-70750844D01*
X120202117Y-70744205D01*
X120200979Y-70742078D01*
X120200280Y-70739773D01*
X120200044Y-70737372D01*
X120201091Y-70726737D01*
X120201091Y-70702232D01*
X120196310Y-70678199D01*
X120186932Y-70655560D01*
X120173318Y-70635186D01*
X120155991Y-70617859D01*
X120135616Y-70604245D01*
X120112977Y-70594868D01*
X120088944Y-70590088D01*
X120064437Y-70590088D01*
X120053802Y-70591136D01*
X120051406Y-70590900D01*
X120049101Y-70590201D01*
X120046974Y-70589063D01*
X120040335Y-70583615D01*
X119854011Y-70397291D01*
X119848563Y-70390652D01*
X119847425Y-70388525D01*
X119846726Y-70386220D01*
X119846490Y-70383824D01*
X119847538Y-70373189D01*
X119847538Y-70348685D01*
X119842759Y-70324651D01*
X119833382Y-70302012D01*
X119819769Y-70281637D01*
X119802442Y-70264309D01*
X119782068Y-70250695D01*
X119759429Y-70241317D01*
X119735396Y-70236535D01*
X119710889Y-70236535D01*
X119700254Y-70237582D01*
X119697853Y-70237346D01*
X119695548Y-70236647D01*
X119693421Y-70235509D01*
X119686782Y-70230061D01*
X119500458Y-70043737D01*
X119495010Y-70037098D01*
X119493872Y-70034971D01*
X119493173Y-70032666D01*
X119492937Y-70030265D01*
X119493984Y-70019631D01*
X119493984Y-69995127D01*
X119489203Y-69971094D01*
X119479826Y-69948455D01*
X119466212Y-69928080D01*
X119448884Y-69910753D01*
X119428510Y-69897139D01*
X119405871Y-69887762D01*
X119381837Y-69882982D01*
X119357335Y-69882982D01*
X119346701Y-69884029D01*
X119344300Y-69883793D01*
X119341995Y-69883094D01*
X119339868Y-69881956D01*
X119333229Y-69876508D01*
X119146905Y-69690184D01*
X119141457Y-69683545D01*
X119140319Y-69681418D01*
X119139620Y-69679113D01*
X119139384Y-69676712D01*
X119140431Y-69666077D01*
X119140431Y-69641572D01*
X119135650Y-69617539D01*
X119126272Y-69594900D01*
X119112658Y-69574526D01*
X119095331Y-69557199D01*
X119074956Y-69543585D01*
X119052317Y-69534208D01*
X119028284Y-69529428D01*
X119003777Y-69529428D01*
X118993142Y-69530476D01*
X118990746Y-69530240D01*
X118988441Y-69529541D01*
X118986314Y-69528403D01*
X118979675Y-69522955D01*
X118793351Y-69336631D01*
X118787903Y-69329992D01*
X118786765Y-69327865D01*
X118786066Y-69325560D01*
X118785830Y-69323164D01*
X118786878Y-69312529D01*
X118786878Y-69288025D01*
X118782099Y-69263991D01*
X118772722Y-69241352D01*
X118759109Y-69220977D01*
X118741782Y-69203649D01*
X118721408Y-69190035D01*
X118698769Y-69180657D01*
X118674736Y-69175875D01*
X118650229Y-69175875D01*
X118639594Y-69176922D01*
X118637193Y-69176686D01*
X118634888Y-69175987D01*
X118632761Y-69174849D01*
X118626122Y-69169401D01*
X118439798Y-68983077D01*
X118434350Y-68976438D01*
X118433212Y-68974311D01*
X118432513Y-68972006D01*
X118432277Y-68969607D01*
X118432513Y-68967208D01*
X118433212Y-68964903D01*
X118434350Y-68962776D01*
X118439798Y-68956137D01*
X119045047Y-68350888D01*
X119060593Y-68331946D01*
X119072144Y-68310335D01*
X119079257Y-68286886D01*
X119081659Y-68262500D01*
X119152121Y-68262500D01*
X119154523Y-68286886D01*
X119161636Y-68310335D01*
X119173187Y-68331946D01*
X119188733Y-68350888D01*
X119316684Y-68478839D01*
X119322132Y-68485478D01*
X119323270Y-68487605D01*
X119323969Y-68489910D01*
X119324205Y-68492306D01*
X119323157Y-68502941D01*
X119323157Y-68527445D01*
X119327936Y-68551479D01*
X119337313Y-68574118D01*
X119350926Y-68594493D01*
X119368253Y-68611821D01*
X119388627Y-68625435D01*
X119411266Y-68634813D01*
X119435299Y-68639595D01*
X119459806Y-68639595D01*
X119470441Y-68638548D01*
X119472842Y-68638784D01*
X119475147Y-68639483D01*
X119477274Y-68640621D01*
X119483913Y-68646069D01*
X119670237Y-68832393D01*
X119675685Y-68839032D01*
X119676823Y-68841159D01*
X119677522Y-68843464D01*
X119677758Y-68845865D01*
X119676711Y-68856500D01*
X119676711Y-68881005D01*
X119681492Y-68905038D01*
X119690870Y-68927677D01*
X119704484Y-68948051D01*
X119721811Y-68965378D01*
X119742186Y-68978992D01*
X119764825Y-68988369D01*
X119788858Y-68993149D01*
X119813365Y-68993149D01*
X119824000Y-68992101D01*
X119826396Y-68992337D01*
X119828701Y-68993036D01*
X119830828Y-68994174D01*
X119837467Y-68999622D01*
X120023791Y-69185946D01*
X120029239Y-69192585D01*
X120030377Y-69194712D01*
X120031076Y-69197017D01*
X120031312Y-69199416D01*
X120030265Y-69210052D01*
X120030265Y-69234556D01*
X120035046Y-69258589D01*
X120044423Y-69281228D01*
X120058037Y-69301603D01*
X120075365Y-69318930D01*
X120095739Y-69332544D01*
X120118378Y-69341921D01*
X120142412Y-69346701D01*
X120166914Y-69346701D01*
X120177548Y-69345654D01*
X120179949Y-69345890D01*
X120182254Y-69346589D01*
X120184381Y-69347727D01*
X120191020Y-69353175D01*
X120377344Y-69539499D01*
X120382792Y-69546138D01*
X120383930Y-69548265D01*
X120384629Y-69550570D01*
X120384865Y-69552966D01*
X120383817Y-69563601D01*
X120383817Y-69588105D01*
X120388596Y-69612139D01*
X120397973Y-69634778D01*
X120411586Y-69655153D01*
X120428913Y-69672481D01*
X120449287Y-69686095D01*
X120471926Y-69695473D01*
X120495959Y-69700255D01*
X120520466Y-69700255D01*
X120531101Y-69699208D01*
X120533502Y-69699444D01*
X120535807Y-69700143D01*
X120537934Y-69701281D01*
X120544573Y-69706729D01*
X120730897Y-69893053D01*
X120736345Y-69899692D01*
X120737483Y-69901819D01*
X120738182Y-69904124D01*
X120738418Y-69906525D01*
X120737371Y-69917160D01*
X120737371Y-69941665D01*
X120742152Y-69965698D01*
X120751530Y-69988337D01*
X120765144Y-70008711D01*
X120782471Y-70026038D01*
X120802846Y-70039652D01*
X120825485Y-70049029D01*
X120849518Y-70053809D01*
X120874025Y-70053809D01*
X120884660Y-70052761D01*
X120887056Y-70052997D01*
X120889361Y-70053696D01*
X120891488Y-70054834D01*
X120898127Y-70060282D01*
X121084451Y-70246606D01*
X121089899Y-70253245D01*
X121091037Y-70255372D01*
X121091736Y-70257677D01*
X121091972Y-70260073D01*
X121090924Y-70270708D01*
X121090924Y-70295212D01*
X121095703Y-70319246D01*
X121105080Y-70341885D01*
X121118693Y-70362260D01*
X121136020Y-70379588D01*
X121156394Y-70393202D01*
X121179033Y-70402580D01*
X121203066Y-70407362D01*
X121227573Y-70407362D01*
X121238208Y-70406315D01*
X121240609Y-70406551D01*
X121242914Y-70407250D01*
X121245041Y-70408388D01*
X121251680Y-70413836D01*
X121438004Y-70600160D01*
X121443452Y-70606799D01*
X121444590Y-70608926D01*
X121445289Y-70611231D01*
X121445525Y-70613632D01*
X121444478Y-70624267D01*
X121444478Y-70648772D01*
X121449259Y-70672805D01*
X121458637Y-70695444D01*
X121472251Y-70715818D01*
X121489578Y-70733145D01*
X121509953Y-70746759D01*
X121532592Y-70756136D01*
X121556625Y-70760916D01*
X121581132Y-70760916D01*
X121591767Y-70759868D01*
X121594163Y-70760104D01*
X121596468Y-70760803D01*
X121598595Y-70761941D01*
X121605234Y-70767389D01*
X121791558Y-70953713D01*
X121797006Y-70960352D01*
X121798144Y-70962479D01*
X121798843Y-70964784D01*
X121799079Y-70967183D01*
X121798032Y-70977819D01*
X121798032Y-71002323D01*
X121802813Y-71026356D01*
X121812190Y-71048995D01*
X121825804Y-71069370D01*
X121843132Y-71086697D01*
X121863506Y-71100311D01*
X121886145Y-71109688D01*
X121910179Y-71114468D01*
X121934681Y-71114468D01*
X121945315Y-71113421D01*
X121947716Y-71113657D01*
X121950021Y-71114356D01*
X121952148Y-71115494D01*
X121958787Y-71120942D01*
X122145111Y-71307266D01*
X122150559Y-71313905D01*
X122151697Y-71316032D01*
X122152396Y-71318337D01*
X122152632Y-71320733D01*
X122151584Y-71331368D01*
X122151584Y-71355872D01*
X122156363Y-71379906D01*
X122165740Y-71402545D01*
X122179353Y-71422920D01*
X122196680Y-71440248D01*
X122217054Y-71453862D01*
X122239693Y-71463240D01*
X122263726Y-71468022D01*
X122288233Y-71468022D01*
X122298868Y-71466975D01*
X122301269Y-71467211D01*
X122303574Y-71467910D01*
X122305701Y-71469048D01*
X122312340Y-71474496D01*
X122498664Y-71660820D01*
X122504112Y-71667459D01*
X122505250Y-71669586D01*
X122505949Y-71671891D01*
X122506185Y-71674292D01*
X122505138Y-71684927D01*
X122505138Y-71709432D01*
X122509919Y-71733465D01*
X122519297Y-71756104D01*
X122532911Y-71776478D01*
X122550238Y-71793805D01*
X122570613Y-71807419D01*
X122593252Y-71816796D01*
X122617285Y-71821576D01*
X122641792Y-71821576D01*
X122652427Y-71820528D01*
X122654823Y-71820764D01*
X122657128Y-71821463D01*
X122659255Y-71822601D01*
X122665894Y-71828049D01*
X122852218Y-72014373D01*
X122857666Y-72021012D01*
X122858804Y-72023139D01*
X122859503Y-72025444D01*
X122859739Y-72027840D01*
X122858691Y-72038475D01*
X122858691Y-72062979D01*
X122863470Y-72087013D01*
X122872847Y-72109652D01*
X122886460Y-72130027D01*
X122903787Y-72147355D01*
X122924161Y-72160969D01*
X122946800Y-72170347D01*
X122970833Y-72175129D01*
X122995340Y-72175129D01*
X123005975Y-72174082D01*
X123008376Y-72174318D01*
X123010681Y-72175017D01*
X123012808Y-72176155D01*
X123019447Y-72181603D01*
X123205771Y-72367927D01*
X123211219Y-72374566D01*
X123212357Y-72376693D01*
X123213056Y-72378998D01*
X123213292Y-72381399D01*
X123212245Y-72392034D01*
X123212245Y-72416539D01*
X123217026Y-72440572D01*
X123226404Y-72463211D01*
X123240018Y-72483585D01*
X123257345Y-72500912D01*
X123277720Y-72514526D01*
X123300359Y-72523903D01*
X123324392Y-72528683D01*
X123348899Y-72528683D01*
X123359534Y-72527635D01*
X123361930Y-72527871D01*
X123364235Y-72528570D01*
X123366362Y-72529708D01*
X123373001Y-72535156D01*
X123559325Y-72721480D01*
X123564773Y-72728119D01*
X123565911Y-72730246D01*
X123566610Y-72732551D01*
X123566846Y-72734950D01*
X123565799Y-72745586D01*
X123565799Y-72770090D01*
X123570580Y-72794123D01*
X123579957Y-72816762D01*
X123593571Y-72837137D01*
X123610899Y-72854464D01*
X123631273Y-72868078D01*
X123653912Y-72877455D01*
X123677946Y-72882235D01*
X123702448Y-72882235D01*
X123713082Y-72881188D01*
X123715483Y-72881424D01*
X123717788Y-72882123D01*
X123719915Y-72883261D01*
X123726554Y-72888709D01*
X123912878Y-73075033D01*
X123918326Y-73081672D01*
X123919464Y-73083799D01*
X123920163Y-73086104D01*
X123920399Y-73088500D01*
X123919351Y-73099135D01*
X123919351Y-73123639D01*
X123924130Y-73147673D01*
X123933507Y-73170312D01*
X123947120Y-73190687D01*
X123964447Y-73208015D01*
X123984821Y-73221629D01*
X124007460Y-73231007D01*
X124031493Y-73235789D01*
X124056000Y-73235789D01*
X124066635Y-73234742D01*
X124069036Y-73234978D01*
X124071341Y-73235677D01*
X124073468Y-73236815D01*
X124080107Y-73242263D01*
X124266431Y-73428587D01*
X124271879Y-73435226D01*
X124273017Y-73437353D01*
X124273716Y-73439658D01*
X124273952Y-73442059D01*
X124272905Y-73452694D01*
X124272905Y-73477199D01*
X124277686Y-73501232D01*
X124287064Y-73523871D01*
X124300678Y-73544245D01*
X124318005Y-73561572D01*
X124338380Y-73575186D01*
X124361019Y-73584563D01*
X124385052Y-73589343D01*
X124409559Y-73589343D01*
X124420194Y-73588295D01*
X124422590Y-73588531D01*
X124424895Y-73589230D01*
X124427022Y-73590368D01*
X124433661Y-73595816D01*
X124561612Y-73723767D01*
X124580554Y-73739313D01*
X124602165Y-73750864D01*
X124625614Y-73757977D01*
X124650000Y-73760379D01*
X124674386Y-73757977D01*
X124697835Y-73750864D01*
X124719446Y-73739313D01*
X124738388Y-73723767D01*
X124866339Y-73595816D01*
X124872978Y-73590368D01*
X124875105Y-73589230D01*
X124877410Y-73588531D01*
X124879806Y-73588295D01*
X124890441Y-73589343D01*
X124914945Y-73589343D01*
X124938979Y-73584564D01*
X124961618Y-73575187D01*
X124981993Y-73561574D01*
X124999321Y-73544247D01*
X125012935Y-73523873D01*
X125022313Y-73501234D01*
X125027095Y-73477201D01*
X125027095Y-73452694D01*
X125026048Y-73442059D01*
X125026284Y-73439658D01*
X125026983Y-73437353D01*
X125028121Y-73435226D01*
X125033569Y-73428587D01*
X125219893Y-73242263D01*
X125226532Y-73236815D01*
X125228659Y-73235677D01*
X125230964Y-73234978D01*
X125233365Y-73234742D01*
X125244000Y-73235789D01*
X125268505Y-73235789D01*
X125292538Y-73231008D01*
X125315177Y-73221630D01*
X125335551Y-73208016D01*
X125352878Y-73190689D01*
X125366492Y-73170314D01*
X125375869Y-73147675D01*
X125380649Y-73123642D01*
X125380649Y-73099135D01*
X125379601Y-73088500D01*
X125379837Y-73086104D01*
X125380536Y-73083799D01*
X125381674Y-73081672D01*
X125387122Y-73075033D01*
X125573446Y-72888709D01*
X125580085Y-72883261D01*
X125582212Y-72882123D01*
X125584517Y-72881424D01*
X125586918Y-72881188D01*
X125597552Y-72882235D01*
X125622056Y-72882235D01*
X125646089Y-72877454D01*
X125668728Y-72868077D01*
X125689103Y-72854463D01*
X125706430Y-72837135D01*
X125720044Y-72816761D01*
X125729421Y-72794122D01*
X125734201Y-72770088D01*
X125734201Y-72745586D01*
X125733154Y-72734950D01*
X125733390Y-72732551D01*
X125734089Y-72730246D01*
X125735227Y-72728119D01*
X125740675Y-72721480D01*
X125926999Y-72535156D01*
X125933638Y-72529708D01*
X125935765Y-72528570D01*
X125938070Y-72527871D01*
X125940466Y-72527635D01*
X125951101Y-72528683D01*
X125975605Y-72528683D01*
X125999639Y-72523904D01*
X126022278Y-72514527D01*
X126042653Y-72500914D01*
X126059981Y-72483587D01*
X126073595Y-72463213D01*
X126082973Y-72440574D01*
X126087755Y-72416541D01*
X126087755Y-72392034D01*
X126086708Y-72381399D01*
X126086944Y-72378998D01*
X126087643Y-72376693D01*
X126088781Y-72374566D01*
X126094229Y-72367927D01*
X126280553Y-72181603D01*
X126287192Y-72176155D01*
X126289319Y-72175017D01*
X126291624Y-72174318D01*
X126294025Y-72174082D01*
X126304660Y-72175129D01*
X126329165Y-72175129D01*
X126353198Y-72170348D01*
X126375837Y-72160970D01*
X126396211Y-72147356D01*
X126413538Y-72130029D01*
X126427152Y-72109654D01*
X126436529Y-72087015D01*
X126441309Y-72062982D01*
X126441309Y-72038475D01*
X126440261Y-72027840D01*
X126440497Y-72025444D01*
X126441196Y-72023139D01*
X126442334Y-72021012D01*
X126447782Y-72014373D01*
X126634106Y-71828049D01*
X126640745Y-71822601D01*
X126642872Y-71821463D01*
X126645177Y-71820764D01*
X126647573Y-71820528D01*
X126658208Y-71821576D01*
X126682712Y-71821576D01*
X126706746Y-71816797D01*
X126729385Y-71807420D01*
X126749760Y-71793807D01*
X126767088Y-71776480D01*
X126780702Y-71756106D01*
X126790080Y-71733467D01*
X126794862Y-71709434D01*
X126794862Y-71684927D01*
X126793815Y-71674292D01*
X126794051Y-71671891D01*
X126794750Y-71669586D01*
X126795888Y-71667459D01*
X126801336Y-71660820D01*
X126987660Y-71474496D01*
X126994299Y-71469048D01*
X126996426Y-71467910D01*
X126998731Y-71467211D01*
X127001132Y-71466975D01*
X127011767Y-71468022D01*
X127036272Y-71468022D01*
X127060305Y-71463241D01*
X127082944Y-71453863D01*
X127103318Y-71440249D01*
X127120645Y-71422922D01*
X127134259Y-71402547D01*
X127143636Y-71379908D01*
X127148416Y-71355875D01*
X127148416Y-71331368D01*
X127147368Y-71320733D01*
X127147604Y-71318337D01*
X127148303Y-71316032D01*
X127149441Y-71313905D01*
X127154889Y-71307266D01*
X127341213Y-71120942D01*
X127347852Y-71115494D01*
X127349979Y-71114356D01*
X127352284Y-71113657D01*
X127354685Y-71113421D01*
X127365319Y-71114468D01*
X127389823Y-71114468D01*
X127413856Y-71109687D01*
X127436495Y-71100310D01*
X127456870Y-71086696D01*
X127474197Y-71069368D01*
X127487811Y-71048994D01*
X127497188Y-71026355D01*
X127501968Y-71002321D01*
X127501968Y-70977819D01*
X127500921Y-70967183D01*
X127501157Y-70964784D01*
X127501856Y-70962479D01*
X127502994Y-70960352D01*
X127508442Y-70953713D01*
X127694766Y-70767389D01*
X127701405Y-70761941D01*
X127703532Y-70760803D01*
X127705837Y-70760104D01*
X127708233Y-70759868D01*
X127718868Y-70760916D01*
X127743372Y-70760916D01*
X127767406Y-70756137D01*
X127790045Y-70746760D01*
X127810420Y-70733147D01*
X127827748Y-70715820D01*
X127841362Y-70695446D01*
X127850740Y-70672807D01*
X127855522Y-70648774D01*
X127855522Y-70624267D01*
X127854475Y-70613632D01*
X127854711Y-70611231D01*
X127855410Y-70608926D01*
X127856548Y-70606799D01*
X127861996Y-70600160D01*
X128048320Y-70413836D01*
X128054959Y-70408388D01*
X128057086Y-70407250D01*
X128059391Y-70406551D01*
X128061792Y-70406315D01*
X128072427Y-70407362D01*
X128096932Y-70407362D01*
X128120965Y-70402581D01*
X128143604Y-70393203D01*
X128163978Y-70379589D01*
X128181305Y-70362262D01*
X128194919Y-70341887D01*
X128204296Y-70319248D01*
X128209076Y-70295215D01*
X128209076Y-70270708D01*
X128208028Y-70260073D01*
X128208264Y-70257677D01*
X128208963Y-70255372D01*
X128210101Y-70253245D01*
X128215549Y-70246606D01*
X128401873Y-70060282D01*
X128408512Y-70054834D01*
X128410639Y-70053696D01*
X128412944Y-70052997D01*
X128415340Y-70052761D01*
X128425975Y-70053809D01*
X128450479Y-70053809D01*
X128474513Y-70049030D01*
X128497152Y-70039653D01*
X128517527Y-70026040D01*
X128534855Y-70008713D01*
X128548469Y-69988339D01*
X128557847Y-69965700D01*
X128562629Y-69941667D01*
X128562629Y-69917160D01*
X128561582Y-69906525D01*
X128561818Y-69904124D01*
X128562517Y-69901819D01*
X128563655Y-69899692D01*
X128569103Y-69893053D01*
X128755427Y-69706729D01*
X128762066Y-69701281D01*
X128764193Y-69700143D01*
X128766498Y-69699444D01*
X128768899Y-69699208D01*
X128779534Y-69700255D01*
X128804039Y-69700255D01*
X128828072Y-69695474D01*
X128850711Y-69686096D01*
X128871085Y-69672482D01*
X128888412Y-69655155D01*
X128902026Y-69634780D01*
X128911403Y-69612141D01*
X128916183Y-69588108D01*
X128916183Y-69563601D01*
X128915135Y-69552966D01*
X128915371Y-69550570D01*
X128916070Y-69548265D01*
X128917208Y-69546138D01*
X128922656Y-69539499D01*
X129108980Y-69353175D01*
X129115619Y-69347727D01*
X129117746Y-69346589D01*
X129120051Y-69345890D01*
X129122452Y-69345654D01*
X129133086Y-69346701D01*
X129157590Y-69346701D01*
X129181623Y-69341920D01*
X129204262Y-69332543D01*
X129224637Y-69318929D01*
X129241964Y-69301601D01*
X129255578Y-69281227D01*
X129264955Y-69258588D01*
X129269735Y-69234554D01*
X129269735Y-69210052D01*
X129268688Y-69199416D01*
X129268924Y-69197017D01*
X129269623Y-69194712D01*
X129270761Y-69192585D01*
X129276209Y-69185946D01*
X129462533Y-68999622D01*
X129469172Y-68994174D01*
X129471299Y-68993036D01*
X129473604Y-68992337D01*
X129476000Y-68992101D01*
X129486635Y-68993149D01*
X129511139Y-68993149D01*
X129535173Y-68988370D01*
X129557812Y-68978993D01*
X129578187Y-68965380D01*
X129595515Y-68948053D01*
X129609129Y-68927679D01*
X129618507Y-68905040D01*
X129623289Y-68881007D01*
X129623289Y-68856500D01*
X129622242Y-68845865D01*
X129622478Y-68843464D01*
X129623177Y-68841159D01*
X129624315Y-68839032D01*
X129629763Y-68832393D01*
X129816087Y-68646069D01*
X129822726Y-68640621D01*
X129824853Y-68639483D01*
X129827158Y-68638784D01*
X129829559Y-68638548D01*
X129840194Y-68639595D01*
X129864699Y-68639595D01*
X129888732Y-68634814D01*
X129911371Y-68625436D01*
X129931745Y-68611822D01*
X129949072Y-68594495D01*
X129962686Y-68574120D01*
X129972063Y-68551481D01*
X129976843Y-68527448D01*
X129976843Y-68502941D01*
X129975795Y-68492306D01*
X129976031Y-68489910D01*
X129976730Y-68487605D01*
X129977868Y-68485478D01*
X129983316Y-68478839D01*
X130111267Y-68350888D01*
X130126813Y-68331946D01*
X130138364Y-68310335D01*
X130145477Y-68286886D01*
X130147879Y-68262500D01*
X130145477Y-68238114D01*
X130138364Y-68214665D01*
X130126813Y-68193054D01*
X130111267Y-68174112D01*
X129983316Y-68046161D01*
X129977868Y-68039522D01*
X129976730Y-68037395D01*
X129976031Y-68035090D01*
X129975795Y-68032694D01*
X129976843Y-68022059D01*
X129976843Y-67997555D01*
X129972064Y-67973521D01*
X129962687Y-67950882D01*
X129949074Y-67930507D01*
X129931747Y-67913179D01*
X129911373Y-67899565D01*
X129888734Y-67890187D01*
X129864701Y-67885405D01*
X129840194Y-67885405D01*
X129829559Y-67886452D01*
X129827158Y-67886216D01*
X129824853Y-67885517D01*
X129822726Y-67884379D01*
X129816087Y-67878931D01*
X129629763Y-67692607D01*
X129624315Y-67685968D01*
X129623177Y-67683841D01*
X129622478Y-67681536D01*
X129622242Y-67679135D01*
X129623289Y-67668500D01*
X129623289Y-67643995D01*
X129618508Y-67619962D01*
X129609130Y-67597323D01*
X129595516Y-67576949D01*
X129578189Y-67559622D01*
X129557814Y-67546008D01*
X129535175Y-67536631D01*
X129511142Y-67531851D01*
X129486635Y-67531851D01*
X129476000Y-67532899D01*
X129473604Y-67532663D01*
X129471299Y-67531964D01*
X129469172Y-67530826D01*
X129462533Y-67525378D01*
X129276209Y-67339054D01*
X129270761Y-67332415D01*
X129269623Y-67330288D01*
X129268924Y-67327983D01*
X129268688Y-67325582D01*
X129269735Y-67314948D01*
X129269735Y-67290444D01*
X129264954Y-67266411D01*
X129255577Y-67243772D01*
X129241963Y-67223397D01*
X129224635Y-67206070D01*
X129204261Y-67192456D01*
X129181622Y-67183079D01*
X129157588Y-67178299D01*
X129133086Y-67178299D01*
X129122452Y-67179346D01*
X129120051Y-67179110D01*
X129117746Y-67178411D01*
X129115619Y-67177273D01*
X129108980Y-67171825D01*
X128922656Y-66985501D01*
X128917208Y-66978862D01*
X128916070Y-66976735D01*
X128915371Y-66974430D01*
X128915135Y-66972034D01*
X128916183Y-66961399D01*
X128916183Y-66936895D01*
X128911404Y-66912861D01*
X128902027Y-66890222D01*
X128888414Y-66869847D01*
X128871087Y-66852519D01*
X128850713Y-66838905D01*
X128828074Y-66829527D01*
X128804041Y-66824745D01*
X128779534Y-66824745D01*
X128768899Y-66825792D01*
X128766498Y-66825556D01*
X128764193Y-66824857D01*
X128762066Y-66823719D01*
X128755427Y-66818271D01*
X128569103Y-66631947D01*
X128563655Y-66625308D01*
X128562517Y-66623181D01*
X128561818Y-66620876D01*
X128561582Y-66618475D01*
X128562629Y-66607840D01*
X128562629Y-66583335D01*
X128557848Y-66559302D01*
X128548470Y-66536663D01*
X128534856Y-66516289D01*
X128517529Y-66498962D01*
X128497154Y-66485348D01*
X128474515Y-66475971D01*
X128450482Y-66471191D01*
X128425975Y-66471191D01*
X128415340Y-66472239D01*
X128412944Y-66472003D01*
X128410639Y-66471304D01*
X128408512Y-66470166D01*
X128401873Y-66464718D01*
X128215549Y-66278394D01*
X128210101Y-66271755D01*
X128208963Y-66269628D01*
X128208264Y-66267323D01*
X128208028Y-66264927D01*
X128209076Y-66254292D01*
X128209076Y-66229788D01*
X128204297Y-66205754D01*
X128194920Y-66183115D01*
X128181307Y-66162740D01*
X128163980Y-66145412D01*
X128143606Y-66131798D01*
X128120967Y-66122420D01*
X128096934Y-66117638D01*
X128072427Y-66117638D01*
X128061792Y-66118685D01*
X128059391Y-66118449D01*
X128057086Y-66117750D01*
X128054959Y-66116612D01*
X128048320Y-66111164D01*
X127861996Y-65924840D01*
X127856548Y-65918201D01*
X127855410Y-65916074D01*
X127854711Y-65913769D01*
X127854475Y-65911368D01*
X127855522Y-65900733D01*
X127855522Y-65876228D01*
X127850741Y-65852195D01*
X127841363Y-65829556D01*
X127827749Y-65809182D01*
X127810422Y-65791855D01*
X127790047Y-65778241D01*
X127767408Y-65768864D01*
X127743375Y-65764084D01*
X127718868Y-65764084D01*
X127708233Y-65765132D01*
X127705837Y-65764896D01*
X127703532Y-65764197D01*
X127701405Y-65763059D01*
X127694766Y-65757611D01*
X127508442Y-65571287D01*
X127502994Y-65564648D01*
X127501856Y-65562521D01*
X127501157Y-65560216D01*
X127500921Y-65557815D01*
X127501968Y-65547181D01*
X127501968Y-65522677D01*
X127497187Y-65498644D01*
X127487810Y-65476005D01*
X127474196Y-65455630D01*
X127456868Y-65438303D01*
X127436494Y-65424689D01*
X127413855Y-65415312D01*
X127389821Y-65410532D01*
X127365319Y-65410532D01*
X127354685Y-65411579D01*
X127352284Y-65411343D01*
X127349979Y-65410644D01*
X127347852Y-65409506D01*
X127341213Y-65404058D01*
X127154889Y-65217734D01*
X127149441Y-65211095D01*
X127148303Y-65208968D01*
X127147604Y-65206663D01*
X127147368Y-65204267D01*
X127148416Y-65193632D01*
X127148416Y-65169128D01*
X127143637Y-65145094D01*
X127134260Y-65122455D01*
X127120647Y-65102080D01*
X127103320Y-65084752D01*
X127082946Y-65071138D01*
X127060307Y-65061760D01*
X127036274Y-65056978D01*
X127011767Y-65056978D01*
X127001132Y-65058025D01*
X126998731Y-65057789D01*
X126996426Y-65057090D01*
X126994299Y-65055952D01*
X126987660Y-65050504D01*
X126801336Y-64864180D01*
X126795888Y-64857541D01*
X126794750Y-64855414D01*
X126794051Y-64853109D01*
X126793815Y-64850708D01*
X126794862Y-64840073D01*
X126794862Y-64815568D01*
X126790081Y-64791535D01*
X126780703Y-64768896D01*
X126767089Y-64748522D01*
X126749762Y-64731195D01*
X126729387Y-64717581D01*
X126706748Y-64708204D01*
X126682715Y-64703424D01*
X126658208Y-64703424D01*
X126647573Y-64704472D01*
X126645177Y-64704236D01*
X126642872Y-64703537D01*
X126640745Y-64702399D01*
X126634106Y-64696951D01*
X126447782Y-64510627D01*
X126442334Y-64503988D01*
X126441196Y-64501861D01*
X126440497Y-64499556D01*
X126440261Y-64497160D01*
X126441309Y-64486525D01*
X126441309Y-64462021D01*
X126436530Y-64437987D01*
X126427153Y-64415348D01*
X126413540Y-64394973D01*
X126396213Y-64377645D01*
X126375839Y-64364031D01*
X126353200Y-64354653D01*
X126329167Y-64349871D01*
X126304660Y-64349871D01*
X126294025Y-64350918D01*
X126291624Y-64350682D01*
X126289319Y-64349983D01*
X126287192Y-64348845D01*
X126280553Y-64343397D01*
X126094229Y-64157073D01*
X126088781Y-64150434D01*
X126087643Y-64148307D01*
X126086944Y-64146002D01*
X126086708Y-64143601D01*
X126087755Y-64132966D01*
X126087755Y-64108461D01*
X126082974Y-64084428D01*
X126073596Y-64061789D01*
X126059982Y-64041415D01*
X126042655Y-64024088D01*
X126022280Y-64010474D01*
X125999641Y-64001097D01*
X125975608Y-63996317D01*
X125951101Y-63996317D01*
X125940466Y-63997365D01*
X125938070Y-63997129D01*
X125935765Y-63996430D01*
X125933638Y-63995292D01*
X125926999Y-63989844D01*
X125740675Y-63803520D01*
X125735227Y-63796881D01*
X125734089Y-63794754D01*
X125733390Y-63792449D01*
X125733154Y-63790048D01*
X125734201Y-63779414D01*
X125734201Y-63754910D01*
X125729420Y-63730877D01*
X125720043Y-63708238D01*
X125706429Y-63687863D01*
X125689101Y-63670536D01*
X125668727Y-63656922D01*
X125646088Y-63647545D01*
X125622054Y-63642765D01*
X125597552Y-63642765D01*
X125586918Y-63643812D01*
X125584517Y-63643576D01*
X125582212Y-63642877D01*
X125580085Y-63641739D01*
X125573446Y-63636291D01*
X125387122Y-63449967D01*
X125381674Y-63443328D01*
X125380536Y-63441201D01*
X125379837Y-63438896D01*
X125379601Y-63436500D01*
X125380649Y-63425865D01*
X125380649Y-63401361D01*
X125375870Y-63377327D01*
X125366493Y-63354688D01*
X125352880Y-63334313D01*
X125335553Y-63316985D01*
X125315179Y-63303371D01*
X125292540Y-63293993D01*
X125268507Y-63289211D01*
X125244000Y-63289211D01*
X125233365Y-63290258D01*
X125230964Y-63290022D01*
X125228659Y-63289323D01*
X125226532Y-63288185D01*
X125219893Y-63282737D01*
X125033569Y-63096413D01*
X125028121Y-63089774D01*
X125026983Y-63087647D01*
X125026284Y-63085342D01*
X125026048Y-63082941D01*
X125027095Y-63072306D01*
X125027095Y-63047801D01*
X125022314Y-63023768D01*
X125012936Y-63001129D01*
X124999322Y-62980755D01*
X124981995Y-62963428D01*
X124961620Y-62949814D01*
X124938981Y-62940437D01*
X124914948Y-62935657D01*
X124890441Y-62935657D01*
X124879806Y-62936705D01*
X124877410Y-62936469D01*
X124875105Y-62935770D01*
X124872978Y-62934632D01*
X124866339Y-62929184D01*
X124738388Y-62801233D01*
X124719446Y-62785687D01*
X124697835Y-62774136D01*
X124674386Y-62767023D01*
X124650000Y-62764621D01*
X124625614Y-62767023D01*
X124602165Y-62774136D01*
X124580554Y-62785687D01*
X124561612Y-62801233D01*
X124433661Y-62929184D01*
X124427022Y-62934632D01*
X124424895Y-62935770D01*
X124422590Y-62936469D01*
X124420194Y-62936705D01*
X124409559Y-62935657D01*
X124385055Y-62935657D01*
X124361021Y-62940436D01*
X124338382Y-62949813D01*
X124318007Y-62963426D01*
X124300679Y-62980753D01*
X124287065Y-63001127D01*
X124277687Y-63023766D01*
X124272905Y-63047799D01*
X124272905Y-63072306D01*
X124273952Y-63082941D01*
X124273716Y-63085342D01*
X124273017Y-63087647D01*
X124271879Y-63089774D01*
X124266431Y-63096413D01*
X124080107Y-63282737D01*
X124073468Y-63288185D01*
X124071341Y-63289323D01*
X124069036Y-63290022D01*
X124066635Y-63290258D01*
X124056000Y-63289211D01*
X124031495Y-63289211D01*
X124007462Y-63293992D01*
X123984823Y-63303370D01*
X123964449Y-63316984D01*
X123947122Y-63334311D01*
X123933508Y-63354686D01*
X123924131Y-63377325D01*
X123919351Y-63401358D01*
X123919351Y-63425865D01*
X123920399Y-63436500D01*
X123920163Y-63438896D01*
X123919464Y-63441201D01*
X123918326Y-63443328D01*
X123912878Y-63449967D01*
X123726554Y-63636291D01*
X123719915Y-63641739D01*
X123717788Y-63642877D01*
X123715483Y-63643576D01*
X123713082Y-63643812D01*
X123702448Y-63642765D01*
X123677944Y-63642765D01*
X123653911Y-63647546D01*
X123631272Y-63656923D01*
X123610897Y-63670537D01*
X123593570Y-63687865D01*
X123579956Y-63708239D01*
X123570579Y-63730878D01*
X123565799Y-63754912D01*
X123565799Y-63779414D01*
X123566846Y-63790048D01*
X123566610Y-63792449D01*
X123565911Y-63794754D01*
X123564773Y-63796881D01*
X123559325Y-63803520D01*
X123373001Y-63989844D01*
X123366362Y-63995292D01*
X123364235Y-63996430D01*
X123361930Y-63997129D01*
X123359534Y-63997365D01*
X123348899Y-63996317D01*
X123324395Y-63996317D01*
X123300361Y-64001096D01*
X123277722Y-64010473D01*
X123257347Y-64024086D01*
X123240019Y-64041413D01*
X123226405Y-64061787D01*
X123217027Y-64084426D01*
X123212245Y-64108459D01*
X123212245Y-64132966D01*
X123213292Y-64143601D01*
X123213056Y-64146002D01*
X123212357Y-64148307D01*
X123211219Y-64150434D01*
X123205771Y-64157073D01*
X123019447Y-64343397D01*
X123012808Y-64348845D01*
X123010681Y-64349983D01*
X123008376Y-64350682D01*
X123005975Y-64350918D01*
X122995340Y-64349871D01*
X122970835Y-64349871D01*
X122946802Y-64354652D01*
X122924163Y-64364030D01*
X122903789Y-64377644D01*
X122886462Y-64394971D01*
X122872848Y-64415346D01*
X122863471Y-64437985D01*
X122858691Y-64462018D01*
X122858691Y-64486525D01*
X122859739Y-64497160D01*
X122859503Y-64499556D01*
X122858804Y-64501861D01*
X122857666Y-64503988D01*
X122852218Y-64510627D01*
X122665894Y-64696951D01*
X122659255Y-64702399D01*
X122657128Y-64703537D01*
X122654823Y-64704236D01*
X122652427Y-64704472D01*
X122641792Y-64703424D01*
X122617288Y-64703424D01*
X122593254Y-64708203D01*
X122570615Y-64717580D01*
X122550240Y-64731193D01*
X122532912Y-64748520D01*
X122519298Y-64768894D01*
X122509920Y-64791533D01*
X122505138Y-64815566D01*
X122505138Y-64840073D01*
X122506185Y-64850708D01*
X122505949Y-64853109D01*
X122505250Y-64855414D01*
X122504112Y-64857541D01*
X122498664Y-64864180D01*
X122312340Y-65050504D01*
X122305701Y-65055952D01*
X122303574Y-65057090D01*
X122301269Y-65057789D01*
X122298868Y-65058025D01*
X122288233Y-65056978D01*
X122263728Y-65056978D01*
X122239695Y-65061759D01*
X122217056Y-65071137D01*
X122196682Y-65084751D01*
X122179355Y-65102078D01*
X122165741Y-65122453D01*
X122156364Y-65145092D01*
X122151584Y-65169125D01*
X122151584Y-65193632D01*
X122152632Y-65204267D01*
X122152396Y-65206663D01*
X122151697Y-65208968D01*
X122150559Y-65211095D01*
X122145111Y-65217734D01*
X121958787Y-65404058D01*
X121952148Y-65409506D01*
X121950021Y-65410644D01*
X121947716Y-65411343D01*
X121945315Y-65411579D01*
X121934681Y-65410532D01*
X121910177Y-65410532D01*
X121886144Y-65415313D01*
X121863505Y-65424690D01*
X121843130Y-65438304D01*
X121825803Y-65455632D01*
X121812189Y-65476006D01*
X121802812Y-65498645D01*
X121798032Y-65522679D01*
X121798032Y-65547181D01*
X121799079Y-65557815D01*
X121798843Y-65560216D01*
X121798144Y-65562521D01*
X121797006Y-65564648D01*
X121791558Y-65571287D01*
X121605234Y-65757611D01*
X121598595Y-65763059D01*
X121596468Y-65764197D01*
X121594163Y-65764896D01*
X121591767Y-65765132D01*
X121581132Y-65764084D01*
X121556628Y-65764084D01*
X121532594Y-65768863D01*
X121509955Y-65778240D01*
X121489580Y-65791853D01*
X121472252Y-65809180D01*
X121458638Y-65829554D01*
X121449260Y-65852193D01*
X121444478Y-65876226D01*
X121444478Y-65900733D01*
X121445525Y-65911368D01*
X121445289Y-65913769D01*
X121444590Y-65916074D01*
X121443452Y-65918201D01*
X121438004Y-65924840D01*
X121251680Y-66111164D01*
X121245041Y-66116612D01*
X121242914Y-66117750D01*
X121240609Y-66118449D01*
X121238208Y-66118685D01*
X121227573Y-66117638D01*
X121203068Y-66117638D01*
X121179035Y-66122419D01*
X121156396Y-66131797D01*
X121136022Y-66145411D01*
X121118695Y-66162738D01*
X121105081Y-66183113D01*
X121095704Y-66205752D01*
X121090924Y-66229785D01*
X121090924Y-66254292D01*
X121091972Y-66264927D01*
X121091736Y-66267323D01*
X121091037Y-66269628D01*
X121089899Y-66271755D01*
X121084451Y-66278394D01*
X120898127Y-66464718D01*
X120891488Y-66470166D01*
X120889361Y-66471304D01*
X120887056Y-66472003D01*
X120884660Y-66472239D01*
X120874025Y-66471191D01*
X120849521Y-66471191D01*
X120825487Y-66475970D01*
X120802848Y-66485347D01*
X120782473Y-66498960D01*
X120765145Y-66516287D01*
X120751531Y-66536661D01*
X120742153Y-66559300D01*
X120737371Y-66583333D01*
X120737371Y-66607840D01*
X120738418Y-66618475D01*
X120738182Y-66620876D01*
X120737483Y-66623181D01*
X120736345Y-66625308D01*
X120730897Y-66631947D01*
X120544573Y-66818271D01*
X120537934Y-66823719D01*
X120535807Y-66824857D01*
X120533502Y-66825556D01*
X120531101Y-66825792D01*
X120520466Y-66824745D01*
X120495961Y-66824745D01*
X120471928Y-66829526D01*
X120449289Y-66838904D01*
X120428915Y-66852518D01*
X120411588Y-66869845D01*
X120397974Y-66890220D01*
X120388597Y-66912859D01*
X120383817Y-66936892D01*
X120383817Y-66961399D01*
X120384865Y-66972034D01*
X120384629Y-66974430D01*
X120383930Y-66976735D01*
X120382792Y-66978862D01*
X120377344Y-66985501D01*
X120191020Y-67171825D01*
X120184381Y-67177273D01*
X120182254Y-67178411D01*
X120179949Y-67179110D01*
X120177548Y-67179346D01*
X120166914Y-67178299D01*
X120142410Y-67178299D01*
X120118377Y-67183080D01*
X120095738Y-67192457D01*
X120075363Y-67206071D01*
X120058036Y-67223399D01*
X120044422Y-67243773D01*
X120035045Y-67266412D01*
X120030265Y-67290446D01*
X120030265Y-67314948D01*
X120031312Y-67325582D01*
X120031076Y-67327983D01*
X120030377Y-67330288D01*
X120029239Y-67332415D01*
X120023791Y-67339054D01*
X119837467Y-67525378D01*
X119830828Y-67530826D01*
X119828701Y-67531964D01*
X119826396Y-67532663D01*
X119824000Y-67532899D01*
X119813365Y-67531851D01*
X119788861Y-67531851D01*
X119764827Y-67536630D01*
X119742188Y-67546007D01*
X119721813Y-67559620D01*
X119704485Y-67576947D01*
X119690871Y-67597321D01*
X119681493Y-67619960D01*
X119676711Y-67643993D01*
X119676711Y-67668500D01*
X119677758Y-67679135D01*
X119677522Y-67681536D01*
X119676823Y-67683841D01*
X119675685Y-67685968D01*
X119670237Y-67692607D01*
X119483913Y-67878931D01*
X119477274Y-67884379D01*
X119475147Y-67885517D01*
X119472842Y-67886216D01*
X119470441Y-67886452D01*
X119459806Y-67885405D01*
X119435301Y-67885405D01*
X119411268Y-67890186D01*
X119388629Y-67899564D01*
X119368255Y-67913178D01*
X119350928Y-67930505D01*
X119337314Y-67950880D01*
X119327937Y-67973519D01*
X119323157Y-67997552D01*
X119323157Y-68022059D01*
X119324205Y-68032694D01*
X119323969Y-68035090D01*
X119323270Y-68037395D01*
X119322132Y-68039522D01*
X119316684Y-68046161D01*
X119188733Y-68174112D01*
X119173187Y-68193054D01*
X119161636Y-68214665D01*
X119154523Y-68238114D01*
X119152121Y-68262500D01*
X119081659Y-68262500D01*
X119079257Y-68238114D01*
X119072144Y-68214665D01*
X119060593Y-68193054D01*
X119045047Y-68174112D01*
X118439798Y-67568863D01*
X118434350Y-67562224D01*
X118433212Y-67560097D01*
X118432513Y-67557792D01*
X118432277Y-67555393D01*
X118432513Y-67552994D01*
X118433212Y-67550689D01*
X118434350Y-67548562D01*
X118439798Y-67541923D01*
X118626122Y-67355599D01*
X118632761Y-67350151D01*
X118634888Y-67349013D01*
X118637193Y-67348314D01*
X118639594Y-67348078D01*
X118650229Y-67349125D01*
X118674734Y-67349125D01*
X118698767Y-67344344D01*
X118721406Y-67334966D01*
X118741780Y-67321352D01*
X118759107Y-67304025D01*
X118772721Y-67283650D01*
X118782098Y-67261011D01*
X118786878Y-67236978D01*
X118786878Y-67212471D01*
X118785830Y-67201836D01*
X118786066Y-67199440D01*
X118786765Y-67197135D01*
X118787903Y-67195008D01*
X118793351Y-67188369D01*
X118979675Y-67002045D01*
X118986314Y-66996597D01*
X118988441Y-66995459D01*
X118990746Y-66994760D01*
X118993142Y-66994524D01*
X119003777Y-66995572D01*
X119028281Y-66995572D01*
X119052315Y-66990793D01*
X119074954Y-66981416D01*
X119095329Y-66967803D01*
X119112657Y-66950476D01*
X119126271Y-66930102D01*
X119135649Y-66907463D01*
X119140431Y-66883430D01*
X119140431Y-66858923D01*
X119139384Y-66848288D01*
X119139620Y-66845887D01*
X119140319Y-66843582D01*
X119141457Y-66841455D01*
X119146905Y-66834816D01*
X119333229Y-66648492D01*
X119339868Y-66643044D01*
X119341995Y-66641906D01*
X119344300Y-66641207D01*
X119346701Y-66640971D01*
X119357335Y-66642018D01*
X119381839Y-66642018D01*
X119405872Y-66637237D01*
X119428511Y-66627860D01*
X119448886Y-66614246D01*
X119466213Y-66596918D01*
X119479827Y-66576544D01*
X119489204Y-66553905D01*
X119493984Y-66529871D01*
X119493984Y-66505369D01*
X119492937Y-66494733D01*
X119493173Y-66492334D01*
X119493872Y-66490029D01*
X119495010Y-66487902D01*
X119500458Y-66481263D01*
X119686782Y-66294939D01*
X119693421Y-66289491D01*
X119695548Y-66288353D01*
X119697853Y-66287654D01*
X119700254Y-66287418D01*
X119710889Y-66288465D01*
X119735394Y-66288465D01*
X119759427Y-66283684D01*
X119782066Y-66274306D01*
X119802440Y-66260692D01*
X119819767Y-66243365D01*
X119833381Y-66222990D01*
X119842758Y-66200351D01*
X119847538Y-66176318D01*
X119847538Y-66151811D01*
X119846490Y-66141176D01*
X119846726Y-66138780D01*
X119847425Y-66136475D01*
X119848563Y-66134348D01*
X119854011Y-66127709D01*
X120040335Y-65941385D01*
X120046974Y-65935937D01*
X120049101Y-65934799D01*
X120051406Y-65934100D01*
X120053802Y-65933864D01*
X120064437Y-65934912D01*
X120088941Y-65934912D01*
X120112975Y-65930133D01*
X120135614Y-65920756D01*
X120155989Y-65907143D01*
X120173317Y-65889816D01*
X120186931Y-65869442D01*
X120196309Y-65846803D01*
X120201091Y-65822770D01*
X120201091Y-65798263D01*
X120200044Y-65787628D01*
X120200280Y-65785227D01*
X120200979Y-65782922D01*
X120202117Y-65780795D01*
X120207565Y-65774156D01*
X120393889Y-65587832D01*
X120400528Y-65582384D01*
X120402655Y-65581246D01*
X120404960Y-65580547D01*
X120407361Y-65580311D01*
X120417996Y-65581358D01*
X120442501Y-65581358D01*
X120466534Y-65576577D01*
X120489173Y-65567199D01*
X120509547Y-65553585D01*
X120526874Y-65536258D01*
X120540488Y-65515883D01*
X120549865Y-65493244D01*
X120554645Y-65469211D01*
X120554645Y-65444704D01*
X120553597Y-65434069D01*
X120553833Y-65431673D01*
X120554532Y-65429368D01*
X120555670Y-65427241D01*
X120561118Y-65420602D01*
X120747442Y-65234278D01*
X120754081Y-65228830D01*
X120756208Y-65227692D01*
X120758513Y-65226993D01*
X120760909Y-65226757D01*
X120771544Y-65227805D01*
X120796048Y-65227805D01*
X120820082Y-65223026D01*
X120842721Y-65213649D01*
X120863096Y-65200036D01*
X120880424Y-65182709D01*
X120894038Y-65162335D01*
X120903416Y-65139696D01*
X120908198Y-65115663D01*
X120908198Y-65091156D01*
X120907151Y-65080521D01*
X120907387Y-65078120D01*
X120908086Y-65075815D01*
X120909224Y-65073688D01*
X120914672Y-65067049D01*
X121100996Y-64880725D01*
X121107635Y-64875277D01*
X121109762Y-64874139D01*
X121112067Y-64873440D01*
X121114468Y-64873204D01*
X121125102Y-64874251D01*
X121149606Y-64874251D01*
X121173639Y-64869470D01*
X121196278Y-64860093D01*
X121216653Y-64846479D01*
X121233980Y-64829151D01*
X121247594Y-64808777D01*
X121256971Y-64786138D01*
X121261751Y-64762104D01*
X121261751Y-64737602D01*
X121260704Y-64726966D01*
X121260940Y-64724567D01*
X121261639Y-64722262D01*
X121262777Y-64720135D01*
X121268225Y-64713496D01*
X121454549Y-64527172D01*
X121461188Y-64521724D01*
X121463315Y-64520586D01*
X121465620Y-64519887D01*
X121468021Y-64519651D01*
X121478656Y-64520698D01*
X121503161Y-64520698D01*
X121527194Y-64515917D01*
X121549833Y-64506539D01*
X121570207Y-64492925D01*
X121587534Y-64475598D01*
X121601148Y-64455223D01*
X121610525Y-64432584D01*
X121615305Y-64408551D01*
X121615305Y-64384044D01*
X121614257Y-64373409D01*
X121614493Y-64371013D01*
X121615192Y-64368708D01*
X121616330Y-64366581D01*
X121621778Y-64359942D01*
X121808102Y-64173618D01*
X121814741Y-64168170D01*
X121816868Y-64167032D01*
X121819173Y-64166333D01*
X121821569Y-64166097D01*
X121832204Y-64167145D01*
X121856708Y-64167145D01*
X121880742Y-64162366D01*
X121903381Y-64152989D01*
X121923756Y-64139376D01*
X121941084Y-64122049D01*
X121954698Y-64101675D01*
X121964076Y-64079036D01*
X121968858Y-64055003D01*
X121968858Y-64030496D01*
X121967811Y-64019861D01*
X121968047Y-64017460D01*
X121968746Y-64015155D01*
X121969884Y-64013028D01*
X121975332Y-64006389D01*
X122161656Y-63820065D01*
X122168295Y-63814617D01*
X122170422Y-63813479D01*
X122172727Y-63812780D01*
X122175128Y-63812544D01*
X122185763Y-63813591D01*
X122210268Y-63813591D01*
X122234301Y-63808810D01*
X122256940Y-63799432D01*
X122277314Y-63785818D01*
X122294641Y-63768491D01*
X122308255Y-63748116D01*
X122317632Y-63725477D01*
X122322412Y-63701444D01*
X122322412Y-63676937D01*
X122321364Y-63666302D01*
X122321600Y-63663906D01*
X122322299Y-63661601D01*
X122323437Y-63659474D01*
X122328885Y-63652835D01*
X122515209Y-63466511D01*
X122521848Y-63461063D01*
X122523975Y-63459925D01*
X122526280Y-63459226D01*
X122528676Y-63458990D01*
X122539311Y-63460038D01*
X122563815Y-63460038D01*
X122587849Y-63455259D01*
X122610488Y-63445882D01*
X122630863Y-63432269D01*
X122648191Y-63414942D01*
X122661805Y-63394568D01*
X122671183Y-63371929D01*
X122675965Y-63347896D01*
X122675965Y-63323389D01*
X122674918Y-63312754D01*
X122675154Y-63310353D01*
X122675853Y-63308048D01*
X122676991Y-63305921D01*
X122682439Y-63299282D01*
X122868763Y-63112958D01*
X122875402Y-63107510D01*
X122877529Y-63106372D01*
X122879834Y-63105673D01*
X122882235Y-63105437D01*
X122892869Y-63106484D01*
X122917373Y-63106484D01*
X122941406Y-63101703D01*
X122964045Y-63092326D01*
X122984420Y-63078712D01*
X123001747Y-63061384D01*
X123015361Y-63041010D01*
X123024738Y-63018371D01*
X123029518Y-62994337D01*
X123029518Y-62969835D01*
X123028471Y-62959199D01*
X123028707Y-62956800D01*
X123029406Y-62954495D01*
X123030544Y-62952368D01*
X123035992Y-62945729D01*
X123222316Y-62759405D01*
X123228955Y-62753957D01*
X123231082Y-62752819D01*
X123233387Y-62752120D01*
X123235788Y-62751884D01*
X123246423Y-62752931D01*
X123270928Y-62752931D01*
X123294961Y-62748150D01*
X123317600Y-62738772D01*
X123337974Y-62725158D01*
X123355301Y-62707831D01*
X123368915Y-62687456D01*
X123378292Y-62664817D01*
X123383072Y-62640784D01*
X123383072Y-62616277D01*
X123382024Y-62605642D01*
X123382260Y-62603246D01*
X123382959Y-62600941D01*
X123384097Y-62598814D01*
X123389545Y-62592175D01*
X123575869Y-62405851D01*
X123582508Y-62400403D01*
X123584635Y-62399265D01*
X123586940Y-62398566D01*
X123589336Y-62398330D01*
X123599971Y-62399378D01*
X123624475Y-62399378D01*
X123648509Y-62394599D01*
X123671148Y-62385222D01*
X123691523Y-62371609D01*
X123708851Y-62354282D01*
X123722465Y-62333908D01*
X123731843Y-62311269D01*
X123736625Y-62287236D01*
X123736625Y-62262729D01*
X123735578Y-62252094D01*
X123735814Y-62249693D01*
X123736513Y-62247388D01*
X123737651Y-62245261D01*
X123743099Y-62238622D01*
X123929423Y-62052298D01*
X123936062Y-62046850D01*
X123938189Y-62045712D01*
X123940494Y-62045013D01*
X123942893Y-62044777D01*
X123945292Y-62045013D01*
X123947597Y-62045712D01*
X123949724Y-62046850D01*
X123956363Y-62052298D01*
X124561612Y-62657547D01*
X124580554Y-62673093D01*
X124602165Y-62684644D01*
X124625614Y-62691757D01*
X124650000Y-62694159D01*
X124674386Y-62691757D01*
X124697835Y-62684644D01*
X124719446Y-62673093D01*
X124738388Y-62657547D01*
X125343637Y-62052298D01*
X125350276Y-62046850D01*
X125352403Y-62045712D01*
X125354708Y-62045013D01*
X125357107Y-62044777D01*
X125359506Y-62045013D01*
X125359506Y-62045013D01*
G37*
G36*
X124677915Y-64930132D02*
X124704763Y-64938276D01*
X124729495Y-64951496D01*
X124755960Y-64973215D01*
X127939285Y-68156540D01*
X127961004Y-68183005D01*
X127974224Y-68207737D01*
X127982368Y-68234585D01*
X127985117Y-68262500D01*
X127982368Y-68290415D01*
X127974224Y-68317263D01*
X127961004Y-68341995D01*
X127939285Y-68368460D01*
X124755960Y-71551785D01*
X124729495Y-71573504D01*
X124704763Y-71586724D01*
X124677915Y-71594868D01*
X124650000Y-71597617D01*
X124622085Y-71594868D01*
X124595237Y-71586724D01*
X124570505Y-71573504D01*
X124544040Y-71551785D01*
X121360715Y-68368460D01*
X121338996Y-68341995D01*
X121325776Y-68317263D01*
X121317632Y-68290415D01*
X121314883Y-68262500D01*
X121317632Y-68234585D01*
X121325776Y-68207737D01*
X121338996Y-68183005D01*
X121360715Y-68156540D01*
X124544040Y-64973215D01*
X124570505Y-64951496D01*
X124595237Y-64938276D01*
X124622085Y-64930132D01*
X124650000Y-64927383D01*
X124677915Y-64930132D01*
X124677915Y-64930132D01*
G37*
G36*
X104221377Y-73392643D02*
X104258855Y-73404013D01*
X104293404Y-73422479D01*
X104323677Y-73447323D01*
X104348521Y-73477596D01*
X104366987Y-73512145D01*
X104378357Y-73549623D01*
X104382800Y-73594738D01*
X104382800Y-74233262D01*
X104378357Y-74278377D01*
X104366987Y-74315855D01*
X104348521Y-74350404D01*
X104323677Y-74380677D01*
X104293404Y-74405521D01*
X104258855Y-74423987D01*
X104221377Y-74435357D01*
X104176262Y-74439800D01*
X103437738Y-74439800D01*
X103392623Y-74435357D01*
X103355145Y-74423987D01*
X103320596Y-74405521D01*
X103290323Y-74380677D01*
X103265479Y-74350404D01*
X103247013Y-74315855D01*
X103235643Y-74278377D01*
X103231200Y-74233262D01*
X103231200Y-73594738D01*
X103235643Y-73549623D01*
X103247013Y-73512145D01*
X103265479Y-73477596D01*
X103290323Y-73447323D01*
X103320596Y-73422479D01*
X103355145Y-73404013D01*
X103392623Y-73392643D01*
X103437738Y-73388200D01*
X104176262Y-73388200D01*
X104221377Y-73392643D01*
X104221377Y-73392643D01*
G37*
G36*
X105971377Y-73392643D02*
X106008855Y-73404013D01*
X106043404Y-73422479D01*
X106073677Y-73447323D01*
X106098521Y-73477596D01*
X106116987Y-73512145D01*
X106128357Y-73549623D01*
X106132800Y-73594738D01*
X106132800Y-74233262D01*
X106128357Y-74278377D01*
X106116987Y-74315855D01*
X106098521Y-74350404D01*
X106073677Y-74380677D01*
X106043404Y-74405521D01*
X106008855Y-74423987D01*
X105971377Y-74435357D01*
X105926262Y-74439800D01*
X105187738Y-74439800D01*
X105142623Y-74435357D01*
X105105145Y-74423987D01*
X105070596Y-74405521D01*
X105040323Y-74380677D01*
X105015479Y-74350404D01*
X104997013Y-74315855D01*
X104985643Y-74278377D01*
X104981200Y-74233262D01*
X104981200Y-73594738D01*
X104985643Y-73549623D01*
X104997013Y-73512145D01*
X105015479Y-73477596D01*
X105040323Y-73447323D01*
X105070596Y-73422479D01*
X105105145Y-73404013D01*
X105142623Y-73392643D01*
X105187738Y-73388200D01*
X105926262Y-73388200D01*
X105971377Y-73392643D01*
X105971377Y-73392643D01*
G37*
G36*
X118930050Y-72730785D02*
X118967528Y-72742155D01*
X119002077Y-72760621D01*
X119037123Y-72789382D01*
X119488618Y-73240877D01*
X119517379Y-73275923D01*
X119535845Y-73310472D01*
X119547215Y-73347950D01*
X119551053Y-73386927D01*
X119547215Y-73425904D01*
X119535845Y-73463382D01*
X119517379Y-73497931D01*
X119488618Y-73532977D01*
X118966413Y-74055182D01*
X118931367Y-74083943D01*
X118896818Y-74102409D01*
X118859340Y-74113779D01*
X118820363Y-74117617D01*
X118781386Y-74113779D01*
X118743908Y-74102409D01*
X118709359Y-74083943D01*
X118674313Y-74055182D01*
X118222818Y-73603687D01*
X118194057Y-73568641D01*
X118175591Y-73534092D01*
X118164221Y-73496614D01*
X118160383Y-73457637D01*
X118164221Y-73418660D01*
X118175591Y-73381182D01*
X118194057Y-73346633D01*
X118222818Y-73311587D01*
X118745023Y-72789382D01*
X118780069Y-72760621D01*
X118814618Y-72742155D01*
X118852096Y-72730785D01*
X118891073Y-72726947D01*
X118930050Y-72730785D01*
X118930050Y-72730785D01*
G37*
G36*
X135608856Y-72321363D02*
X134278363Y-73651856D01*
X131781144Y-71154637D01*
X133111637Y-69824144D01*
X135608856Y-72321363D01*
X135608856Y-72321363D01*
G37*
G36*
X102123800Y-72891800D02*
X100822200Y-72891800D01*
X100822200Y-71890200D01*
X102123800Y-71890200D01*
X102123800Y-72891800D01*
X102123800Y-72891800D01*
G37*
G36*
X107840377Y-71360143D02*
X107877855Y-71371513D01*
X107912404Y-71389979D01*
X107942677Y-71414823D01*
X107967521Y-71445096D01*
X107985987Y-71479645D01*
X107997357Y-71517123D01*
X108001800Y-71562238D01*
X108001800Y-72300762D01*
X107997357Y-72345877D01*
X107985987Y-72383355D01*
X107967521Y-72417904D01*
X107942677Y-72448177D01*
X107912404Y-72473021D01*
X107877855Y-72491487D01*
X107840377Y-72502857D01*
X107795262Y-72507300D01*
X107156738Y-72507300D01*
X107111623Y-72502857D01*
X107074145Y-72491487D01*
X107039596Y-72473021D01*
X107009323Y-72448177D01*
X106984479Y-72417904D01*
X106966013Y-72383355D01*
X106954643Y-72345877D01*
X106950200Y-72300762D01*
X106950200Y-71562238D01*
X106954643Y-71517123D01*
X106966013Y-71479645D01*
X106984479Y-71445096D01*
X107009323Y-71414823D01*
X107039596Y-71389979D01*
X107074145Y-71371513D01*
X107111623Y-71360143D01*
X107156738Y-71355700D01*
X107795262Y-71355700D01*
X107840377Y-71360143D01*
X107840377Y-71360143D01*
G37*
G36*
X106362800Y-72445800D02*
X105201200Y-72445800D01*
X105201200Y-71694200D01*
X106362800Y-71694200D01*
X106362800Y-72445800D01*
X106362800Y-72445800D01*
G37*
G36*
X104162800Y-72445800D02*
X103001200Y-72445800D01*
X103001200Y-69794200D01*
X104162800Y-69794200D01*
X104162800Y-72445800D01*
X104162800Y-72445800D01*
G37*
G36*
X114152356Y-69012637D02*
X111655137Y-71509856D01*
X110324644Y-70179363D01*
X112821863Y-67682144D01*
X114152356Y-69012637D01*
X114152356Y-69012637D01*
G37*
G36*
X140385800Y-71503800D02*
X138504200Y-71503800D01*
X138504200Y-67972200D01*
X140385800Y-67972200D01*
X140385800Y-71503800D01*
X140385800Y-71503800D01*
G37*
G36*
X102447800Y-71488800D02*
X100566200Y-71488800D01*
X100566200Y-67957200D01*
X102447800Y-67957200D01*
X102447800Y-71488800D01*
X102447800Y-71488800D01*
G37*
G36*
X136721800Y-71223800D02*
X135820200Y-71223800D01*
X135820200Y-70222200D01*
X136721800Y-70222200D01*
X136721800Y-71223800D01*
X136721800Y-71223800D01*
G37*
G36*
X107840377Y-69610143D02*
X107877855Y-69621513D01*
X107912404Y-69639979D01*
X107942677Y-69664823D01*
X107967521Y-69695096D01*
X107985987Y-69729645D01*
X107997357Y-69767123D01*
X108001800Y-69812238D01*
X108001800Y-70550762D01*
X107997357Y-70595877D01*
X107985987Y-70633355D01*
X107967521Y-70667904D01*
X107942677Y-70698177D01*
X107912404Y-70723021D01*
X107877855Y-70741487D01*
X107840377Y-70752857D01*
X107795262Y-70757300D01*
X107156738Y-70757300D01*
X107111623Y-70752857D01*
X107074145Y-70741487D01*
X107039596Y-70723021D01*
X107009323Y-70698177D01*
X106984479Y-70667904D01*
X106966013Y-70633355D01*
X106954643Y-70595877D01*
X106950200Y-70550762D01*
X106950200Y-69812238D01*
X106954643Y-69767123D01*
X106966013Y-69729645D01*
X106984479Y-69695096D01*
X107009323Y-69664823D01*
X107039596Y-69639979D01*
X107074145Y-69621513D01*
X107111623Y-69610143D01*
X107156738Y-69605700D01*
X107795262Y-69605700D01*
X107840377Y-69610143D01*
X107840377Y-69610143D01*
G37*
G36*
X106362800Y-70545800D02*
X105201200Y-70545800D01*
X105201200Y-69794200D01*
X106362800Y-69794200D01*
X106362800Y-70545800D01*
X106362800Y-70545800D01*
G37*
G36*
X143135800Y-69753800D02*
X141254200Y-69753800D01*
X141254200Y-66222200D01*
X143135800Y-66222200D01*
X143135800Y-69753800D01*
X143135800Y-69753800D01*
G37*
G36*
X137671800Y-69223800D02*
X136770200Y-69223800D01*
X136770200Y-68222200D01*
X137671800Y-68222200D01*
X137671800Y-69223800D01*
X137671800Y-69223800D01*
G37*
G36*
X135771800Y-69223800D02*
X134870200Y-69223800D01*
X134870200Y-68222200D01*
X135771800Y-68222200D01*
X135771800Y-69223800D01*
X135771800Y-69223800D01*
G37*
G36*
X133684877Y-67613643D02*
X133722355Y-67625013D01*
X133756904Y-67643479D01*
X133787177Y-67668323D01*
X133812021Y-67698596D01*
X133830487Y-67733145D01*
X133841857Y-67770623D01*
X133846300Y-67815738D01*
X133846300Y-68554262D01*
X133841857Y-68599377D01*
X133830487Y-68636855D01*
X133812021Y-68671404D01*
X133787177Y-68701677D01*
X133756904Y-68726521D01*
X133722355Y-68744987D01*
X133684877Y-68756357D01*
X133639762Y-68760800D01*
X133001238Y-68760800D01*
X132956123Y-68756357D01*
X132918645Y-68744987D01*
X132884096Y-68726521D01*
X132853823Y-68701677D01*
X132828979Y-68671404D01*
X132810513Y-68636855D01*
X132799143Y-68599377D01*
X132794700Y-68554262D01*
X132794700Y-67815738D01*
X132799143Y-67770623D01*
X132810513Y-67733145D01*
X132828979Y-67698596D01*
X132853823Y-67668323D01*
X132884096Y-67643479D01*
X132918645Y-67625013D01*
X132956123Y-67613643D01*
X133001238Y-67609200D01*
X133639762Y-67609200D01*
X133684877Y-67613643D01*
X133684877Y-67613643D01*
G37*
G36*
X107527800Y-67662300D02*
X105646200Y-67662300D01*
X105646200Y-65560700D01*
X107527800Y-65560700D01*
X107527800Y-67662300D01*
X107527800Y-67662300D01*
G37*
G36*
X110067800Y-67662300D02*
X108186200Y-67662300D01*
X108186200Y-65560700D01*
X110067800Y-65560700D01*
X110067800Y-67662300D01*
X110067800Y-67662300D01*
G37*
G36*
X104987800Y-67662300D02*
X103106200Y-67662300D01*
X103106200Y-65560700D01*
X104987800Y-65560700D01*
X104987800Y-67662300D01*
X104987800Y-67662300D01*
G37*
G36*
X111870377Y-66470643D02*
X111907855Y-66482013D01*
X111942404Y-66500479D01*
X111972677Y-66525323D01*
X111997521Y-66555596D01*
X112015987Y-66590145D01*
X112027357Y-66627623D01*
X112031800Y-66672738D01*
X112031800Y-67411262D01*
X112027357Y-67456377D01*
X112015987Y-67493855D01*
X111997521Y-67528404D01*
X111972677Y-67558677D01*
X111942404Y-67583521D01*
X111907855Y-67601987D01*
X111870377Y-67613357D01*
X111825262Y-67617800D01*
X111186738Y-67617800D01*
X111141623Y-67613357D01*
X111104145Y-67601987D01*
X111069596Y-67583521D01*
X111039323Y-67558677D01*
X111014479Y-67528404D01*
X110996013Y-67493855D01*
X110984643Y-67456377D01*
X110980200Y-67411262D01*
X110980200Y-66672738D01*
X110984643Y-66627623D01*
X110996013Y-66590145D01*
X111014479Y-66555596D01*
X111039323Y-66525323D01*
X111069596Y-66500479D01*
X111104145Y-66482013D01*
X111141623Y-66470643D01*
X111186738Y-66466200D01*
X111825262Y-66466200D01*
X111870377Y-66470643D01*
X111870377Y-66470643D01*
G37*
G36*
X140385800Y-67253800D02*
X138504200Y-67253800D01*
X138504200Y-63722200D01*
X140385800Y-63722200D01*
X140385800Y-67253800D01*
X140385800Y-67253800D01*
G37*
G36*
X113428377Y-66089643D02*
X113465855Y-66101013D01*
X113500404Y-66119479D01*
X113530677Y-66144323D01*
X113555521Y-66174596D01*
X113573987Y-66209145D01*
X113585357Y-66246623D01*
X113589800Y-66291738D01*
X113589800Y-67030262D01*
X113585357Y-67075377D01*
X113573987Y-67112855D01*
X113555521Y-67147404D01*
X113530677Y-67177677D01*
X113500404Y-67202521D01*
X113465855Y-67220987D01*
X113428377Y-67232357D01*
X113383262Y-67236800D01*
X112744738Y-67236800D01*
X112699623Y-67232357D01*
X112662145Y-67220987D01*
X112627596Y-67202521D01*
X112597323Y-67177677D01*
X112572479Y-67147404D01*
X112554013Y-67112855D01*
X112542643Y-67075377D01*
X112538200Y-67030262D01*
X112538200Y-66291738D01*
X112542643Y-66246623D01*
X112554013Y-66209145D01*
X112572479Y-66174596D01*
X112597323Y-66144323D01*
X112627596Y-66119479D01*
X112662145Y-66101013D01*
X112699623Y-66089643D01*
X112744738Y-66085200D01*
X113383262Y-66085200D01*
X113428377Y-66089643D01*
X113428377Y-66089643D01*
G37*
G36*
X133684877Y-65863643D02*
X133722355Y-65875013D01*
X133756904Y-65893479D01*
X133787177Y-65918323D01*
X133812021Y-65948596D01*
X133830487Y-65983145D01*
X133841857Y-66020623D01*
X133846300Y-66065738D01*
X133846300Y-66804262D01*
X133841857Y-66849377D01*
X133830487Y-66886855D01*
X133812021Y-66921404D01*
X133787177Y-66951677D01*
X133756904Y-66976521D01*
X133722355Y-66994987D01*
X133684877Y-67006357D01*
X133639762Y-67010800D01*
X133001238Y-67010800D01*
X132956123Y-67006357D01*
X132918645Y-66994987D01*
X132884096Y-66976521D01*
X132853823Y-66951677D01*
X132828979Y-66921404D01*
X132810513Y-66886855D01*
X132799143Y-66849377D01*
X132794700Y-66804262D01*
X132794700Y-66065738D01*
X132799143Y-66020623D01*
X132810513Y-65983145D01*
X132828979Y-65948596D01*
X132853823Y-65918323D01*
X132884096Y-65893479D01*
X132918645Y-65875013D01*
X132956123Y-65863643D01*
X133001238Y-65859200D01*
X133639762Y-65859200D01*
X133684877Y-65863643D01*
X133684877Y-65863643D01*
G37*
G36*
X137651377Y-65835643D02*
X137688855Y-65847013D01*
X137723404Y-65865479D01*
X137753677Y-65890323D01*
X137778521Y-65920596D01*
X137796987Y-65955145D01*
X137808357Y-65992623D01*
X137812800Y-66037738D01*
X137812800Y-66776262D01*
X137808357Y-66821377D01*
X137796987Y-66858855D01*
X137778521Y-66893404D01*
X137753677Y-66923677D01*
X137723404Y-66948521D01*
X137688855Y-66966987D01*
X137651377Y-66978357D01*
X137606262Y-66982800D01*
X136967738Y-66982800D01*
X136922623Y-66978357D01*
X136885145Y-66966987D01*
X136850596Y-66948521D01*
X136820323Y-66923677D01*
X136795479Y-66893404D01*
X136777013Y-66858855D01*
X136765643Y-66821377D01*
X136761200Y-66776262D01*
X136761200Y-66037738D01*
X136765643Y-65992623D01*
X136777013Y-65955145D01*
X136795479Y-65920596D01*
X136820323Y-65890323D01*
X136850596Y-65865479D01*
X136885145Y-65847013D01*
X136922623Y-65835643D01*
X136967738Y-65831200D01*
X137606262Y-65831200D01*
X137651377Y-65835643D01*
X137651377Y-65835643D01*
G37*
G36*
X136102800Y-66345300D02*
X134221200Y-66345300D01*
X134221200Y-62813700D01*
X136102800Y-62813700D01*
X136102800Y-66345300D01*
X136102800Y-66345300D01*
G37*
G36*
X111870377Y-64720643D02*
X111907855Y-64732013D01*
X111942404Y-64750479D01*
X111972677Y-64775323D01*
X111997521Y-64805596D01*
X112015987Y-64840145D01*
X112027357Y-64877623D01*
X112031800Y-64922738D01*
X112031800Y-65661262D01*
X112027357Y-65706377D01*
X112015987Y-65743855D01*
X111997521Y-65778404D01*
X111972677Y-65808677D01*
X111942404Y-65833521D01*
X111907855Y-65851987D01*
X111870377Y-65863357D01*
X111825262Y-65867800D01*
X111186738Y-65867800D01*
X111141623Y-65863357D01*
X111104145Y-65851987D01*
X111069596Y-65833521D01*
X111039323Y-65808677D01*
X111014479Y-65778404D01*
X110996013Y-65743855D01*
X110984643Y-65706377D01*
X110980200Y-65661262D01*
X110980200Y-64922738D01*
X110984643Y-64877623D01*
X110996013Y-64840145D01*
X111014479Y-64805596D01*
X111039323Y-64775323D01*
X111069596Y-64750479D01*
X111104145Y-64732013D01*
X111141623Y-64720643D01*
X111186738Y-64716200D01*
X111825262Y-64716200D01*
X111870377Y-64720643D01*
X111870377Y-64720643D01*
G37*
G36*
X113428377Y-64339643D02*
X113465855Y-64351013D01*
X113500404Y-64369479D01*
X113530677Y-64394323D01*
X113555521Y-64424596D01*
X113573987Y-64459145D01*
X113585357Y-64496623D01*
X113589800Y-64541738D01*
X113589800Y-65280262D01*
X113585357Y-65325377D01*
X113573987Y-65362855D01*
X113555521Y-65397404D01*
X113530677Y-65427677D01*
X113500404Y-65452521D01*
X113465855Y-65470987D01*
X113428377Y-65482357D01*
X113383262Y-65486800D01*
X112744738Y-65486800D01*
X112699623Y-65482357D01*
X112662145Y-65470987D01*
X112627596Y-65452521D01*
X112597323Y-65427677D01*
X112572479Y-65397404D01*
X112554013Y-65362855D01*
X112542643Y-65325377D01*
X112538200Y-65280262D01*
X112538200Y-64541738D01*
X112542643Y-64496623D01*
X112554013Y-64459145D01*
X112572479Y-64424596D01*
X112597323Y-64394323D01*
X112627596Y-64369479D01*
X112662145Y-64351013D01*
X112699623Y-64339643D01*
X112744738Y-64335200D01*
X113383262Y-64335200D01*
X113428377Y-64339643D01*
X113428377Y-64339643D01*
G37*
G36*
X137651377Y-64085643D02*
X137688855Y-64097013D01*
X137723404Y-64115479D01*
X137753677Y-64140323D01*
X137778521Y-64170596D01*
X137796987Y-64205145D01*
X137808357Y-64242623D01*
X137812800Y-64287738D01*
X137812800Y-65026262D01*
X137808357Y-65071377D01*
X137796987Y-65108855D01*
X137778521Y-65143404D01*
X137753677Y-65173677D01*
X137723404Y-65198521D01*
X137688855Y-65216987D01*
X137651377Y-65228357D01*
X137606262Y-65232800D01*
X136967738Y-65232800D01*
X136922623Y-65228357D01*
X136885145Y-65216987D01*
X136850596Y-65198521D01*
X136820323Y-65173677D01*
X136795479Y-65143404D01*
X136777013Y-65108855D01*
X136765643Y-65071377D01*
X136761200Y-65026262D01*
X136761200Y-64287738D01*
X136765643Y-64242623D01*
X136777013Y-64205145D01*
X136795479Y-64170596D01*
X136820323Y-64140323D01*
X136850596Y-64115479D01*
X136885145Y-64097013D01*
X136922623Y-64085643D01*
X136967738Y-64081200D01*
X137606262Y-64081200D01*
X137651377Y-64085643D01*
X137651377Y-64085643D01*
G37*
G36*
X117716340Y-61331721D02*
X117753818Y-61343091D01*
X117788367Y-61361557D01*
X117823413Y-61390318D01*
X118345618Y-61912523D01*
X118374379Y-61947569D01*
X118392845Y-61982118D01*
X118404215Y-62019596D01*
X118408053Y-62058573D01*
X118404215Y-62097550D01*
X118392845Y-62135028D01*
X118374379Y-62169577D01*
X118345618Y-62204623D01*
X117894123Y-62656118D01*
X117859077Y-62684879D01*
X117824528Y-62703345D01*
X117787050Y-62714715D01*
X117748073Y-62718553D01*
X117709096Y-62714715D01*
X117671618Y-62703345D01*
X117637069Y-62684879D01*
X117602023Y-62656118D01*
X117079818Y-62133913D01*
X117051057Y-62098867D01*
X117032591Y-62064318D01*
X117021221Y-62026840D01*
X117017383Y-61987863D01*
X117021221Y-61948886D01*
X117032591Y-61911408D01*
X117051057Y-61876859D01*
X117079818Y-61841813D01*
X117531313Y-61390318D01*
X117566359Y-61361557D01*
X117600908Y-61343091D01*
X117638386Y-61331721D01*
X117677363Y-61327883D01*
X117716340Y-61331721D01*
X117716340Y-61331721D01*
G37*
G36*
X114703300Y-62598800D02*
X112821700Y-62598800D01*
X112821700Y-59067200D01*
X114703300Y-59067200D01*
X114703300Y-62598800D01*
X114703300Y-62598800D01*
G37*
G36*
X138957377Y-60692643D02*
X138994855Y-60704013D01*
X139029404Y-60722479D01*
X139059677Y-60747323D01*
X139084521Y-60777596D01*
X139102987Y-60812145D01*
X139114357Y-60849623D01*
X139118800Y-60894738D01*
X139118800Y-61533262D01*
X139114357Y-61578377D01*
X139102987Y-61615855D01*
X139084521Y-61650404D01*
X139059677Y-61680677D01*
X139029404Y-61705521D01*
X138994855Y-61723987D01*
X138957377Y-61735357D01*
X138912262Y-61739800D01*
X138173738Y-61739800D01*
X138128623Y-61735357D01*
X138091145Y-61723987D01*
X138056596Y-61705521D01*
X138026323Y-61680677D01*
X138001479Y-61650404D01*
X137983013Y-61615855D01*
X137971643Y-61578377D01*
X137967200Y-61533262D01*
X137967200Y-60894738D01*
X137971643Y-60849623D01*
X137983013Y-60812145D01*
X138001479Y-60777596D01*
X138026323Y-60747323D01*
X138056596Y-60722479D01*
X138091145Y-60704013D01*
X138128623Y-60692643D01*
X138173738Y-60688200D01*
X138912262Y-60688200D01*
X138957377Y-60692643D01*
X138957377Y-60692643D01*
G37*
G36*
X137207377Y-60692643D02*
X137244855Y-60704013D01*
X137279404Y-60722479D01*
X137309677Y-60747323D01*
X137334521Y-60777596D01*
X137352987Y-60812145D01*
X137364357Y-60849623D01*
X137368800Y-60894738D01*
X137368800Y-61533262D01*
X137364357Y-61578377D01*
X137352987Y-61615855D01*
X137334521Y-61650404D01*
X137309677Y-61680677D01*
X137279404Y-61705521D01*
X137244855Y-61723987D01*
X137207377Y-61735357D01*
X137162262Y-61739800D01*
X136423738Y-61739800D01*
X136378623Y-61735357D01*
X136341145Y-61723987D01*
X136306596Y-61705521D01*
X136276323Y-61680677D01*
X136251479Y-61650404D01*
X136233013Y-61615855D01*
X136221643Y-61578377D01*
X136217200Y-61533262D01*
X136217200Y-60894738D01*
X136221643Y-60849623D01*
X136233013Y-60812145D01*
X136251479Y-60777596D01*
X136276323Y-60747323D01*
X136306596Y-60722479D01*
X136341145Y-60704013D01*
X136378623Y-60692643D01*
X136423738Y-60688200D01*
X137162262Y-60688200D01*
X137207377Y-60692643D01*
X137207377Y-60692643D01*
G37*
G36*
X116478904Y-60094285D02*
X116516382Y-60105655D01*
X116550931Y-60124121D01*
X116585977Y-60152882D01*
X117108182Y-60675087D01*
X117136943Y-60710133D01*
X117155409Y-60744682D01*
X117166779Y-60782160D01*
X117170617Y-60821137D01*
X117166779Y-60860114D01*
X117155409Y-60897592D01*
X117136943Y-60932141D01*
X117108182Y-60967187D01*
X116656687Y-61418682D01*
X116621641Y-61447443D01*
X116587092Y-61465909D01*
X116549614Y-61477279D01*
X116510637Y-61481117D01*
X116471660Y-61477279D01*
X116434182Y-61465909D01*
X116399633Y-61447443D01*
X116364587Y-61418682D01*
X115842382Y-60896477D01*
X115813621Y-60861431D01*
X115795155Y-60826882D01*
X115783785Y-60789404D01*
X115779947Y-60750427D01*
X115783785Y-60711450D01*
X115795155Y-60673972D01*
X115813621Y-60639423D01*
X115842382Y-60604377D01*
X116293877Y-60152882D01*
X116328923Y-60124121D01*
X116363472Y-60105655D01*
X116400950Y-60094285D01*
X116439927Y-60090447D01*
X116478904Y-60094285D01*
X116478904Y-60094285D01*
G37*
G36*
X119049840Y-59998221D02*
X119087318Y-60009591D01*
X119121867Y-60028057D01*
X119156913Y-60056818D01*
X119679118Y-60579023D01*
X119707879Y-60614069D01*
X119726345Y-60648618D01*
X119737715Y-60686096D01*
X119741553Y-60725073D01*
X119737715Y-60764050D01*
X119726345Y-60801528D01*
X119707879Y-60836077D01*
X119679118Y-60871123D01*
X119227623Y-61322618D01*
X119192577Y-61351379D01*
X119158028Y-61369845D01*
X119120550Y-61381215D01*
X119081573Y-61385053D01*
X119042596Y-61381215D01*
X119005118Y-61369845D01*
X118970569Y-61351379D01*
X118935523Y-61322618D01*
X118413318Y-60800413D01*
X118384557Y-60765367D01*
X118366091Y-60730818D01*
X118354721Y-60693340D01*
X118350883Y-60654363D01*
X118354721Y-60615386D01*
X118366091Y-60577908D01*
X118384557Y-60543359D01*
X118413318Y-60508313D01*
X118864813Y-60056818D01*
X118899859Y-60028057D01*
X118934408Y-60009591D01*
X118971886Y-59998221D01*
X119010863Y-59994383D01*
X119049840Y-59998221D01*
X119049840Y-59998221D01*
G37*
G36*
X120422849Y-58576780D02*
X120460528Y-58588210D01*
X120495245Y-58606767D01*
X120530457Y-58635664D01*
X121121904Y-59227111D01*
X121150801Y-59262323D01*
X121169358Y-59297040D01*
X121180788Y-59334719D01*
X121184646Y-59373896D01*
X121180788Y-59413073D01*
X121169358Y-59450752D01*
X121150801Y-59485469D01*
X121121904Y-59520681D01*
X120353681Y-60288904D01*
X120318469Y-60317801D01*
X120283752Y-60336358D01*
X120246073Y-60347788D01*
X120206896Y-60351646D01*
X120167719Y-60347788D01*
X120130040Y-60336358D01*
X120095323Y-60317801D01*
X120060111Y-60288904D01*
X119468664Y-59697457D01*
X119439767Y-59662245D01*
X119421210Y-59627528D01*
X119409780Y-59589849D01*
X119405922Y-59550672D01*
X119409780Y-59511495D01*
X119421210Y-59473816D01*
X119439767Y-59439099D01*
X119468664Y-59403887D01*
X120236887Y-58635664D01*
X120272099Y-58606767D01*
X120306816Y-58588210D01*
X120344495Y-58576780D01*
X120383672Y-58572922D01*
X120422849Y-58576780D01*
X120422849Y-58576780D01*
G37*
G36*
X127378614Y-58918721D02*
X127416092Y-58930091D01*
X127450641Y-58948557D01*
X127485687Y-58977318D01*
X127937182Y-59428813D01*
X127965943Y-59463859D01*
X127984409Y-59498408D01*
X127995779Y-59535886D01*
X127999617Y-59574863D01*
X127995779Y-59613840D01*
X127984409Y-59651318D01*
X127965943Y-59685867D01*
X127937182Y-59720913D01*
X127414977Y-60243118D01*
X127379931Y-60271879D01*
X127345382Y-60290345D01*
X127307904Y-60301715D01*
X127268927Y-60305553D01*
X127229950Y-60301715D01*
X127192472Y-60290345D01*
X127157923Y-60271879D01*
X127122877Y-60243118D01*
X126671382Y-59791623D01*
X126642621Y-59756577D01*
X126624155Y-59722028D01*
X126612785Y-59684550D01*
X126608947Y-59645573D01*
X126612785Y-59606596D01*
X126624155Y-59569118D01*
X126642621Y-59534569D01*
X126671382Y-59499523D01*
X127193587Y-58977318D01*
X127228633Y-58948557D01*
X127263182Y-58930091D01*
X127300660Y-58918721D01*
X127339637Y-58914883D01*
X127378614Y-58918721D01*
X127378614Y-58918721D01*
G37*
G36*
X117812404Y-58760785D02*
X117849882Y-58772155D01*
X117884431Y-58790621D01*
X117919477Y-58819382D01*
X118441682Y-59341587D01*
X118470443Y-59376633D01*
X118488909Y-59411182D01*
X118500279Y-59448660D01*
X118504117Y-59487637D01*
X118500279Y-59526614D01*
X118488909Y-59564092D01*
X118470443Y-59598641D01*
X118441682Y-59633687D01*
X117990187Y-60085182D01*
X117955141Y-60113943D01*
X117920592Y-60132409D01*
X117883114Y-60143779D01*
X117844137Y-60147617D01*
X117805160Y-60143779D01*
X117767682Y-60132409D01*
X117733133Y-60113943D01*
X117698087Y-60085182D01*
X117175882Y-59562977D01*
X117147121Y-59527931D01*
X117128655Y-59493382D01*
X117117285Y-59455904D01*
X117113447Y-59416927D01*
X117117285Y-59377950D01*
X117128655Y-59340472D01*
X117147121Y-59305923D01*
X117175882Y-59270877D01*
X117627377Y-58819382D01*
X117662423Y-58790621D01*
X117696972Y-58772155D01*
X117734450Y-58760785D01*
X117773427Y-58756947D01*
X117812404Y-58760785D01*
X117812404Y-58760785D01*
G37*
G36*
X138830377Y-59041643D02*
X138867855Y-59053013D01*
X138902404Y-59071479D01*
X138932677Y-59096323D01*
X138957521Y-59126596D01*
X138975987Y-59161145D01*
X138987357Y-59198623D01*
X138991800Y-59243738D01*
X138991800Y-59882262D01*
X138987357Y-59927377D01*
X138975987Y-59964855D01*
X138957521Y-59999404D01*
X138932677Y-60029677D01*
X138902404Y-60054521D01*
X138867855Y-60072987D01*
X138830377Y-60084357D01*
X138785262Y-60088800D01*
X138046738Y-60088800D01*
X138001623Y-60084357D01*
X137964145Y-60072987D01*
X137929596Y-60054521D01*
X137899323Y-60029677D01*
X137874479Y-59999404D01*
X137856013Y-59964855D01*
X137844643Y-59927377D01*
X137840200Y-59882262D01*
X137840200Y-59243738D01*
X137844643Y-59198623D01*
X137856013Y-59161145D01*
X137874479Y-59126596D01*
X137899323Y-59096323D01*
X137929596Y-59071479D01*
X137964145Y-59053013D01*
X138001623Y-59041643D01*
X138046738Y-59037200D01*
X138785262Y-59037200D01*
X138830377Y-59041643D01*
X138830377Y-59041643D01*
G37*
G36*
X141144377Y-59041643D02*
X141181855Y-59053013D01*
X141216404Y-59071479D01*
X141246677Y-59096323D01*
X141271521Y-59126596D01*
X141289987Y-59161145D01*
X141301357Y-59198623D01*
X141305800Y-59243738D01*
X141305800Y-59882262D01*
X141301357Y-59927377D01*
X141289987Y-59964855D01*
X141271521Y-59999404D01*
X141246677Y-60029677D01*
X141216404Y-60054521D01*
X141181855Y-60072987D01*
X141144377Y-60084357D01*
X141099262Y-60088800D01*
X140360738Y-60088800D01*
X140315623Y-60084357D01*
X140278145Y-60072987D01*
X140243596Y-60054521D01*
X140213323Y-60029677D01*
X140188479Y-59999404D01*
X140170013Y-59964855D01*
X140158643Y-59927377D01*
X140154200Y-59882262D01*
X140154200Y-59243738D01*
X140158643Y-59198623D01*
X140170013Y-59161145D01*
X140188479Y-59126596D01*
X140213323Y-59096323D01*
X140243596Y-59071479D01*
X140278145Y-59053013D01*
X140315623Y-59041643D01*
X140360738Y-59037200D01*
X141099262Y-59037200D01*
X141144377Y-59041643D01*
X141144377Y-59041643D01*
G37*
G36*
X142894377Y-59041643D02*
X142931855Y-59053013D01*
X142966404Y-59071479D01*
X142996677Y-59096323D01*
X143021521Y-59126596D01*
X143039987Y-59161145D01*
X143051357Y-59198623D01*
X143055800Y-59243738D01*
X143055800Y-59882262D01*
X143051357Y-59927377D01*
X143039987Y-59964855D01*
X143021521Y-59999404D01*
X142996677Y-60029677D01*
X142966404Y-60054521D01*
X142931855Y-60072987D01*
X142894377Y-60084357D01*
X142849262Y-60088800D01*
X142110738Y-60088800D01*
X142065623Y-60084357D01*
X142028145Y-60072987D01*
X141993596Y-60054521D01*
X141963323Y-60029677D01*
X141938479Y-59999404D01*
X141920013Y-59964855D01*
X141908643Y-59927377D01*
X141904200Y-59882262D01*
X141904200Y-59243738D01*
X141908643Y-59198623D01*
X141920013Y-59161145D01*
X141938479Y-59126596D01*
X141963323Y-59096323D01*
X141993596Y-59071479D01*
X142028145Y-59053013D01*
X142065623Y-59041643D01*
X142110738Y-59037200D01*
X142849262Y-59037200D01*
X142894377Y-59041643D01*
X142894377Y-59041643D01*
G37*
G36*
X137080377Y-59041643D02*
X137117855Y-59053013D01*
X137152404Y-59071479D01*
X137182677Y-59096323D01*
X137207521Y-59126596D01*
X137225987Y-59161145D01*
X137237357Y-59198623D01*
X137241800Y-59243738D01*
X137241800Y-59882262D01*
X137237357Y-59927377D01*
X137225987Y-59964855D01*
X137207521Y-59999404D01*
X137182677Y-60029677D01*
X137152404Y-60054521D01*
X137117855Y-60072987D01*
X137080377Y-60084357D01*
X137035262Y-60088800D01*
X136296738Y-60088800D01*
X136251623Y-60084357D01*
X136214145Y-60072987D01*
X136179596Y-60054521D01*
X136149323Y-60029677D01*
X136124479Y-59999404D01*
X136106013Y-59964855D01*
X136094643Y-59927377D01*
X136090200Y-59882262D01*
X136090200Y-59243738D01*
X136094643Y-59198623D01*
X136106013Y-59161145D01*
X136124479Y-59126596D01*
X136149323Y-59096323D01*
X136179596Y-59071479D01*
X136214145Y-59053013D01*
X136251623Y-59041643D01*
X136296738Y-59037200D01*
X137035262Y-59037200D01*
X137080377Y-59041643D01*
X137080377Y-59041643D01*
G37*
G36*
X110067800Y-60042300D02*
X108186200Y-60042300D01*
X108186200Y-57940700D01*
X110067800Y-57940700D01*
X110067800Y-60042300D01*
X110067800Y-60042300D01*
G37*
G36*
X107527800Y-60042300D02*
X105646200Y-60042300D01*
X105646200Y-57940700D01*
X107527800Y-57940700D01*
X107527800Y-60042300D01*
X107527800Y-60042300D01*
G37*
G36*
X104987800Y-60042300D02*
X103106200Y-60042300D01*
X103106200Y-57940700D01*
X104987800Y-57940700D01*
X104987800Y-60042300D01*
X104987800Y-60042300D01*
G37*
G36*
X128616050Y-57681285D02*
X128653528Y-57692655D01*
X128688077Y-57711121D01*
X128723123Y-57739882D01*
X129174618Y-58191377D01*
X129203379Y-58226423D01*
X129221845Y-58260972D01*
X129233215Y-58298450D01*
X129237053Y-58337427D01*
X129233215Y-58376404D01*
X129221845Y-58413882D01*
X129203379Y-58448431D01*
X129174618Y-58483477D01*
X128652413Y-59005682D01*
X128617367Y-59034443D01*
X128582818Y-59052909D01*
X128545340Y-59064279D01*
X128506363Y-59068117D01*
X128467386Y-59064279D01*
X128429908Y-59052909D01*
X128395359Y-59034443D01*
X128360313Y-59005682D01*
X127908818Y-58554187D01*
X127880057Y-58519141D01*
X127861591Y-58484592D01*
X127850221Y-58447114D01*
X127846383Y-58408137D01*
X127850221Y-58369160D01*
X127861591Y-58331682D01*
X127880057Y-58297133D01*
X127908818Y-58262087D01*
X128431023Y-57739882D01*
X128466069Y-57711121D01*
X128500618Y-57692655D01*
X128538096Y-57681285D01*
X128577073Y-57677447D01*
X128616050Y-57681285D01*
X128616050Y-57681285D01*
G37*
G36*
X121467340Y-57565221D02*
X121504818Y-57576591D01*
X121539367Y-57595057D01*
X121574413Y-57623818D01*
X122096618Y-58146023D01*
X122125379Y-58181069D01*
X122143845Y-58215618D01*
X122155215Y-58253096D01*
X122159053Y-58292073D01*
X122155215Y-58331050D01*
X122143845Y-58368528D01*
X122125379Y-58403077D01*
X122096618Y-58438123D01*
X121645123Y-58889618D01*
X121610077Y-58918379D01*
X121575528Y-58936845D01*
X121538050Y-58948215D01*
X121499073Y-58952053D01*
X121460096Y-58948215D01*
X121422618Y-58936845D01*
X121388069Y-58918379D01*
X121353023Y-58889618D01*
X120830818Y-58367413D01*
X120802057Y-58332367D01*
X120783591Y-58297818D01*
X120772221Y-58260340D01*
X120768383Y-58221363D01*
X120772221Y-58182386D01*
X120783591Y-58144908D01*
X120802057Y-58110359D01*
X120830818Y-58075313D01*
X121282313Y-57623818D01*
X121317359Y-57595057D01*
X121351908Y-57576591D01*
X121389386Y-57565221D01*
X121428363Y-57561383D01*
X121467340Y-57565221D01*
X121467340Y-57565221D01*
G37*
G36*
X118973281Y-57127212D02*
X119010960Y-57138642D01*
X119045677Y-57157199D01*
X119080889Y-57186096D01*
X119672336Y-57777543D01*
X119701233Y-57812755D01*
X119719790Y-57847472D01*
X119731220Y-57885151D01*
X119735078Y-57924328D01*
X119731220Y-57963505D01*
X119719790Y-58001184D01*
X119701233Y-58035901D01*
X119672336Y-58071113D01*
X118904113Y-58839336D01*
X118868901Y-58868233D01*
X118834184Y-58886790D01*
X118796505Y-58898220D01*
X118757328Y-58902078D01*
X118718151Y-58898220D01*
X118680472Y-58886790D01*
X118645755Y-58868233D01*
X118610543Y-58839336D01*
X118019096Y-58247889D01*
X117990199Y-58212677D01*
X117971642Y-58177960D01*
X117960212Y-58140281D01*
X117956354Y-58101104D01*
X117960212Y-58061927D01*
X117971642Y-58024248D01*
X117990199Y-57989531D01*
X118019096Y-57954319D01*
X118787319Y-57186096D01*
X118822531Y-57157199D01*
X118857248Y-57138642D01*
X118894927Y-57127212D01*
X118934104Y-57123354D01*
X118973281Y-57127212D01*
X118973281Y-57127212D01*
G37*
G36*
X125000260Y-56145346D02*
X125218789Y-56235863D01*
X125218792Y-56235865D01*
X125356360Y-56327785D01*
X125415469Y-56367281D01*
X125582719Y-56534531D01*
X125582721Y-56534534D01*
X125582722Y-56534535D01*
X125675431Y-56673284D01*
X125714137Y-56731211D01*
X125804654Y-56949740D01*
X125850800Y-57181730D01*
X125850800Y-57418270D01*
X125804654Y-57650260D01*
X125714137Y-57868789D01*
X125714135Y-57868792D01*
X125628482Y-57996981D01*
X125582719Y-58065469D01*
X125415469Y-58232719D01*
X125415466Y-58232721D01*
X125415465Y-58232722D01*
X125335522Y-58286138D01*
X125218789Y-58364137D01*
X125000260Y-58454654D01*
X124768270Y-58500800D01*
X124531730Y-58500800D01*
X124299740Y-58454654D01*
X124081211Y-58364137D01*
X123964478Y-58286138D01*
X123884535Y-58232722D01*
X123884534Y-58232721D01*
X123884531Y-58232719D01*
X123717281Y-58065469D01*
X123671519Y-57996981D01*
X123585865Y-57868792D01*
X123585863Y-57868789D01*
X123495346Y-57650260D01*
X123449200Y-57418270D01*
X123449200Y-57181730D01*
X123495346Y-56949740D01*
X123585863Y-56731211D01*
X123624569Y-56673284D01*
X123717278Y-56534535D01*
X123717279Y-56534534D01*
X123717281Y-56534531D01*
X123884531Y-56367281D01*
X123943641Y-56327785D01*
X124081208Y-56235865D01*
X124081211Y-56235863D01*
X124299740Y-56145346D01*
X124531730Y-56099200D01*
X124768270Y-56099200D01*
X125000260Y-56145346D01*
X125000260Y-56145346D01*
G37*
G36*
X137196800Y-58054800D02*
X135995200Y-58054800D01*
X135995200Y-50403200D01*
X137196800Y-50403200D01*
X137196800Y-58054800D01*
X137196800Y-58054800D01*
G37*
G36*
X142896800Y-58054800D02*
X141695200Y-58054800D01*
X141695200Y-50403200D01*
X142896800Y-50403200D01*
X142896800Y-58054800D01*
X142896800Y-58054800D01*
G37*
G36*
X120229904Y-56327785D02*
X120267382Y-56339155D01*
X120301931Y-56357621D01*
X120336977Y-56386382D01*
X120859182Y-56908587D01*
X120887943Y-56943633D01*
X120906409Y-56978182D01*
X120917779Y-57015660D01*
X120921617Y-57054637D01*
X120917779Y-57093614D01*
X120906409Y-57131092D01*
X120887943Y-57165641D01*
X120859182Y-57200687D01*
X120407687Y-57652182D01*
X120372641Y-57680943D01*
X120338092Y-57699409D01*
X120300614Y-57710779D01*
X120261637Y-57714617D01*
X120222660Y-57710779D01*
X120185182Y-57699409D01*
X120150633Y-57680943D01*
X120115587Y-57652182D01*
X119593382Y-57129977D01*
X119564621Y-57094931D01*
X119546155Y-57060382D01*
X119534785Y-57022904D01*
X119530947Y-56983927D01*
X119534785Y-56944950D01*
X119546155Y-56907472D01*
X119564621Y-56872923D01*
X119593382Y-56837877D01*
X120044877Y-56386382D01*
X120079923Y-56357621D01*
X120114472Y-56339155D01*
X120151950Y-56327785D01*
X120190927Y-56323947D01*
X120229904Y-56327785D01*
X120229904Y-56327785D01*
G37*
G36*
X122068340Y-55997721D02*
X122105818Y-56009091D01*
X122140367Y-56027557D01*
X122175413Y-56056318D01*
X122697618Y-56578523D01*
X122726379Y-56613569D01*
X122744845Y-56648118D01*
X122756215Y-56685596D01*
X122760053Y-56724573D01*
X122756215Y-56763550D01*
X122744845Y-56801028D01*
X122726379Y-56835577D01*
X122697618Y-56870623D01*
X122246123Y-57322118D01*
X122211077Y-57350879D01*
X122176528Y-57369345D01*
X122139050Y-57380715D01*
X122100073Y-57384553D01*
X122061096Y-57380715D01*
X122023618Y-57369345D01*
X121989069Y-57350879D01*
X121954023Y-57322118D01*
X121431818Y-56799913D01*
X121403057Y-56764867D01*
X121384591Y-56730318D01*
X121373221Y-56692840D01*
X121369383Y-56653863D01*
X121373221Y-56614886D01*
X121384591Y-56577408D01*
X121403057Y-56542859D01*
X121431818Y-56507813D01*
X121883313Y-56056318D01*
X121918359Y-56027557D01*
X121952908Y-56009091D01*
X121990386Y-55997721D01*
X122029363Y-55993883D01*
X122068340Y-55997721D01*
X122068340Y-55997721D01*
G37*
G36*
X110134800Y-56975300D02*
X109133200Y-56975300D01*
X109133200Y-55673700D01*
X110134800Y-55673700D01*
X110134800Y-56975300D01*
X110134800Y-56975300D01*
G37*
G36*
X106834800Y-56975300D02*
X105833200Y-56975300D01*
X105833200Y-55673700D01*
X106834800Y-55673700D01*
X106834800Y-56975300D01*
X106834800Y-56975300D01*
G37*
G36*
X120830904Y-54760285D02*
X120868382Y-54771655D01*
X120902931Y-54790121D01*
X120937977Y-54818882D01*
X121460182Y-55341087D01*
X121488943Y-55376133D01*
X121507409Y-55410682D01*
X121518779Y-55448160D01*
X121522617Y-55487137D01*
X121518779Y-55526114D01*
X121507409Y-55563592D01*
X121488943Y-55598141D01*
X121460182Y-55633187D01*
X121008687Y-56084682D01*
X120973641Y-56113443D01*
X120939092Y-56131909D01*
X120901614Y-56143279D01*
X120862637Y-56147117D01*
X120823660Y-56143279D01*
X120786182Y-56131909D01*
X120751633Y-56113443D01*
X120716587Y-56084682D01*
X120194382Y-55562477D01*
X120165621Y-55527431D01*
X120147155Y-55492882D01*
X120135785Y-55455404D01*
X120131947Y-55416427D01*
X120135785Y-55377450D01*
X120147155Y-55339972D01*
X120165621Y-55305423D01*
X120194382Y-55270377D01*
X120645877Y-54818882D01*
X120680923Y-54790121D01*
X120715472Y-54771655D01*
X120752950Y-54760285D01*
X120791927Y-54756447D01*
X120830904Y-54760285D01*
X120830904Y-54760285D01*
G37*
G36*
X102120770Y-54003372D02*
X102236689Y-54026429D01*
X102418678Y-54101811D01*
X102582463Y-54211249D01*
X102721751Y-54350537D01*
X102831189Y-54514322D01*
X102906571Y-54696311D01*
X102927542Y-54801742D01*
X102941815Y-54873493D01*
X102945000Y-54889509D01*
X102945000Y-55086491D01*
X102906571Y-55279689D01*
X102831189Y-55461678D01*
X102721751Y-55625463D01*
X102582463Y-55764751D01*
X102418678Y-55874189D01*
X102236689Y-55949571D01*
X102120770Y-55972628D01*
X102043493Y-55988000D01*
X101846507Y-55988000D01*
X101769230Y-55972628D01*
X101653311Y-55949571D01*
X101471322Y-55874189D01*
X101307537Y-55764751D01*
X101168249Y-55625463D01*
X101058811Y-55461678D01*
X100983429Y-55279689D01*
X100945000Y-55086491D01*
X100945000Y-54889509D01*
X100948186Y-54873493D01*
X100962458Y-54801742D01*
X100983429Y-54696311D01*
X101058811Y-54514322D01*
X101168249Y-54350537D01*
X101307537Y-54211249D01*
X101471322Y-54101811D01*
X101653311Y-54026429D01*
X101769230Y-54003372D01*
X101846507Y-53988000D01*
X102043493Y-53988000D01*
X102120770Y-54003372D01*
X102120770Y-54003372D01*
G37*
G36*
X123994856Y-54558363D02*
X122664363Y-55888856D01*
X120167144Y-53391637D01*
X121497637Y-52061144D01*
X123994856Y-54558363D01*
X123994856Y-54558363D01*
G37*
G36*
X118166800Y-54946800D02*
X116065200Y-54946800D01*
X116065200Y-52345200D01*
X118166800Y-52345200D01*
X118166800Y-54946800D01*
X118166800Y-54946800D01*
G37*
G36*
X107498800Y-54946800D02*
X105397200Y-54946800D01*
X105397200Y-52345200D01*
X107498800Y-52345200D01*
X107498800Y-54946800D01*
X107498800Y-54946800D01*
G37*
G36*
X112539377Y-53770643D02*
X112576855Y-53782013D01*
X112611404Y-53800479D01*
X112641677Y-53825323D01*
X112666521Y-53855596D01*
X112684987Y-53890145D01*
X112696357Y-53927623D01*
X112700800Y-53972738D01*
X112700800Y-54711262D01*
X112696357Y-54756377D01*
X112684987Y-54793855D01*
X112666521Y-54828404D01*
X112641677Y-54858677D01*
X112611404Y-54883521D01*
X112576855Y-54901987D01*
X112539377Y-54913357D01*
X112494262Y-54917800D01*
X111855738Y-54917800D01*
X111810623Y-54913357D01*
X111773145Y-54901987D01*
X111738596Y-54883521D01*
X111708323Y-54858677D01*
X111683479Y-54828404D01*
X111665013Y-54793855D01*
X111653643Y-54756377D01*
X111649200Y-54711262D01*
X111649200Y-53972738D01*
X111653643Y-53927623D01*
X111665013Y-53890145D01*
X111683479Y-53855596D01*
X111708323Y-53825323D01*
X111738596Y-53800479D01*
X111773145Y-53782013D01*
X111810623Y-53770643D01*
X111855738Y-53766200D01*
X112494262Y-53766200D01*
X112539377Y-53770643D01*
X112539377Y-53770643D01*
G37*
G36*
X110443877Y-53643643D02*
X110481355Y-53655013D01*
X110515904Y-53673479D01*
X110546177Y-53698323D01*
X110571021Y-53728596D01*
X110589487Y-53763145D01*
X110600857Y-53800623D01*
X110605300Y-53845738D01*
X110605300Y-54584262D01*
X110600857Y-54629377D01*
X110589487Y-54666855D01*
X110571021Y-54701404D01*
X110546177Y-54731677D01*
X110515904Y-54756521D01*
X110481355Y-54774987D01*
X110443877Y-54786357D01*
X110398762Y-54790800D01*
X109760238Y-54790800D01*
X109715123Y-54786357D01*
X109677645Y-54774987D01*
X109643096Y-54756521D01*
X109612823Y-54731677D01*
X109587979Y-54701404D01*
X109569513Y-54666855D01*
X109558143Y-54629377D01*
X109553700Y-54584262D01*
X109553700Y-53845738D01*
X109558143Y-53800623D01*
X109569513Y-53763145D01*
X109587979Y-53728596D01*
X109612823Y-53698323D01*
X109643096Y-53673479D01*
X109677645Y-53655013D01*
X109715123Y-53643643D01*
X109760238Y-53639200D01*
X110398762Y-53639200D01*
X110443877Y-53643643D01*
X110443877Y-53643643D01*
G37*
G36*
X134916856Y-51169137D02*
X132419637Y-53666356D01*
X131089144Y-52335863D01*
X133586363Y-49838644D01*
X134916856Y-51169137D01*
X134916856Y-51169137D01*
G37*
G36*
X112539377Y-52020643D02*
X112576855Y-52032013D01*
X112611404Y-52050479D01*
X112641677Y-52075323D01*
X112666521Y-52105596D01*
X112684987Y-52140145D01*
X112696357Y-52177623D01*
X112700800Y-52222738D01*
X112700800Y-52961262D01*
X112696357Y-53006377D01*
X112684987Y-53043855D01*
X112666521Y-53078404D01*
X112641677Y-53108677D01*
X112611404Y-53133521D01*
X112576855Y-53151987D01*
X112539377Y-53163357D01*
X112494262Y-53167800D01*
X111855738Y-53167800D01*
X111810623Y-53163357D01*
X111773145Y-53151987D01*
X111738596Y-53133521D01*
X111708323Y-53108677D01*
X111683479Y-53078404D01*
X111665013Y-53043855D01*
X111653643Y-53006377D01*
X111649200Y-52961262D01*
X111649200Y-52222738D01*
X111653643Y-52177623D01*
X111665013Y-52140145D01*
X111683479Y-52105596D01*
X111708323Y-52075323D01*
X111738596Y-52050479D01*
X111773145Y-52032013D01*
X111810623Y-52020643D01*
X111855738Y-52016200D01*
X112494262Y-52016200D01*
X112539377Y-52020643D01*
X112539377Y-52020643D01*
G37*
G36*
X110443877Y-51893643D02*
X110481355Y-51905013D01*
X110515904Y-51923479D01*
X110546177Y-51948323D01*
X110571021Y-51978596D01*
X110589487Y-52013145D01*
X110600857Y-52050623D01*
X110605300Y-52095738D01*
X110605300Y-52834262D01*
X110600857Y-52879377D01*
X110589487Y-52916855D01*
X110571021Y-52951404D01*
X110546177Y-52981677D01*
X110515904Y-53006521D01*
X110481355Y-53024987D01*
X110443877Y-53036357D01*
X110398762Y-53040800D01*
X109760238Y-53040800D01*
X109715123Y-53036357D01*
X109677645Y-53024987D01*
X109643096Y-53006521D01*
X109612823Y-52981677D01*
X109587979Y-52951404D01*
X109569513Y-52916855D01*
X109558143Y-52879377D01*
X109553700Y-52834262D01*
X109553700Y-52095738D01*
X109558143Y-52050623D01*
X109569513Y-52013145D01*
X109587979Y-51978596D01*
X109612823Y-51948323D01*
X109643096Y-51923479D01*
X109677645Y-51905013D01*
X109715123Y-51893643D01*
X109760238Y-51889200D01*
X110398762Y-51889200D01*
X110443877Y-51893643D01*
X110443877Y-51893643D01*
G37*
G36*
X121014377Y-50849642D02*
X121051855Y-50861012D01*
X121086404Y-50879478D01*
X121116677Y-50904322D01*
X121141521Y-50934595D01*
X121159987Y-50969144D01*
X121171357Y-51006622D01*
X121175800Y-51051737D01*
X121175800Y-51790261D01*
X121171357Y-51835376D01*
X121159987Y-51872854D01*
X121141521Y-51907403D01*
X121116677Y-51937676D01*
X121086404Y-51962520D01*
X121051855Y-51980986D01*
X121014377Y-51992356D01*
X120969262Y-51996799D01*
X120330738Y-51996799D01*
X120285623Y-51992356D01*
X120248145Y-51980986D01*
X120213596Y-51962520D01*
X120183323Y-51937676D01*
X120158479Y-51907403D01*
X120140013Y-51872854D01*
X120128643Y-51835376D01*
X120124200Y-51790261D01*
X120124200Y-51051737D01*
X120128643Y-51006622D01*
X120140013Y-50969144D01*
X120158479Y-50934595D01*
X120183323Y-50904322D01*
X120213596Y-50879478D01*
X120248145Y-50861012D01*
X120285623Y-50849642D01*
X120330738Y-50845199D01*
X120969262Y-50845199D01*
X121014377Y-50849642D01*
X121014377Y-50849642D01*
G37*
G36*
X147715800Y-51130800D02*
X144184200Y-51130800D01*
X144184200Y-49249200D01*
X147715800Y-49249200D01*
X147715800Y-51130800D01*
X147715800Y-51130800D01*
G37*
G36*
X103498800Y-50596800D02*
X100897200Y-50596800D01*
X100897200Y-48495200D01*
X103498800Y-48495200D01*
X103498800Y-50596800D01*
X103498800Y-50596800D01*
G37*
G36*
X114166800Y-50596800D02*
X111565200Y-50596800D01*
X111565200Y-48495200D01*
X114166800Y-48495200D01*
X114166800Y-50596800D01*
X114166800Y-50596800D01*
G37*
G36*
X121014377Y-49099644D02*
X121051855Y-49111014D01*
X121086404Y-49129480D01*
X121116677Y-49154324D01*
X121141521Y-49184597D01*
X121159987Y-49219146D01*
X121171357Y-49256624D01*
X121175800Y-49301739D01*
X121175800Y-50040263D01*
X121171357Y-50085378D01*
X121159987Y-50122856D01*
X121141521Y-50157405D01*
X121116677Y-50187678D01*
X121086404Y-50212522D01*
X121051855Y-50230988D01*
X121014377Y-50242358D01*
X120969262Y-50246801D01*
X120330738Y-50246801D01*
X120285623Y-50242358D01*
X120248145Y-50230988D01*
X120213596Y-50212522D01*
X120183323Y-50187678D01*
X120158479Y-50157405D01*
X120140013Y-50122856D01*
X120128643Y-50085378D01*
X120124200Y-50040263D01*
X120124200Y-49301739D01*
X120128643Y-49256624D01*
X120140013Y-49219146D01*
X120158479Y-49184597D01*
X120183323Y-49154324D01*
X120213596Y-49129480D01*
X120248145Y-49111014D01*
X120285623Y-49099644D01*
X120330738Y-49095201D01*
X120969262Y-49095201D01*
X121014377Y-49099644D01*
X121014377Y-49099644D01*
G37*
G36*
X106004507Y-47335582D02*
X106195740Y-47414793D01*
X106366687Y-47529016D01*
X106367849Y-47529793D01*
X106514207Y-47676151D01*
X106514209Y-47676154D01*
X106629207Y-47848260D01*
X106708418Y-48039493D01*
X106748800Y-48242505D01*
X106748800Y-48449495D01*
X106708418Y-48652507D01*
X106629207Y-48843740D01*
X106514984Y-49014687D01*
X106514207Y-49015849D01*
X106367849Y-49162207D01*
X106367846Y-49162209D01*
X106195740Y-49277207D01*
X106004507Y-49356418D01*
X105801495Y-49396800D01*
X105594505Y-49396800D01*
X105391493Y-49356418D01*
X105200260Y-49277207D01*
X105028154Y-49162209D01*
X105028151Y-49162207D01*
X104881793Y-49015849D01*
X104881016Y-49014687D01*
X104766793Y-48843740D01*
X104687582Y-48652507D01*
X104647200Y-48449495D01*
X104647200Y-48242505D01*
X104687582Y-48039493D01*
X104766793Y-47848260D01*
X104881791Y-47676154D01*
X104881793Y-47676151D01*
X105028151Y-47529793D01*
X105029313Y-47529016D01*
X105200260Y-47414793D01*
X105391493Y-47335582D01*
X105594505Y-47295200D01*
X105801495Y-47295200D01*
X106004507Y-47335582D01*
X106004507Y-47335582D01*
G37*
G36*
X116672507Y-47335582D02*
X116863740Y-47414793D01*
X117034687Y-47529016D01*
X117035849Y-47529793D01*
X117182207Y-47676151D01*
X117182209Y-47676154D01*
X117297207Y-47848260D01*
X117376418Y-48039493D01*
X117416800Y-48242505D01*
X117416800Y-48449495D01*
X117376418Y-48652507D01*
X117297207Y-48843740D01*
X117182984Y-49014687D01*
X117182207Y-49015849D01*
X117035849Y-49162207D01*
X117035846Y-49162209D01*
X116863740Y-49277207D01*
X116672507Y-49356418D01*
X116469495Y-49396800D01*
X116262505Y-49396800D01*
X116059493Y-49356418D01*
X115868260Y-49277207D01*
X115696154Y-49162209D01*
X115696151Y-49162207D01*
X115549793Y-49015849D01*
X115549016Y-49014687D01*
X115434793Y-48843740D01*
X115355582Y-48652507D01*
X115315200Y-48449495D01*
X115315200Y-48242505D01*
X115355582Y-48039493D01*
X115434793Y-47848260D01*
X115549791Y-47676154D01*
X115549793Y-47676151D01*
X115696151Y-47529793D01*
X115697313Y-47529016D01*
X115868260Y-47414793D01*
X116059493Y-47335582D01*
X116262505Y-47295200D01*
X116469495Y-47295200D01*
X116672507Y-47335582D01*
X116672507Y-47335582D01*
G37*
G36*
X146610300Y-48257300D02*
X145608700Y-48257300D01*
X145608700Y-47155700D01*
X146610300Y-47155700D01*
X146610300Y-48257300D01*
X146610300Y-48257300D01*
G37*
G36*
X148210300Y-48257300D02*
X147208700Y-48257300D01*
X147208700Y-47155700D01*
X148210300Y-47155700D01*
X148210300Y-48257300D01*
X148210300Y-48257300D01*
G37*
G36*
X121048377Y-47103143D02*
X121085855Y-47114513D01*
X121120404Y-47132979D01*
X121150677Y-47157823D01*
X121175521Y-47188096D01*
X121193987Y-47222645D01*
X121205357Y-47260123D01*
X121209800Y-47305238D01*
X121209800Y-48043762D01*
X121205357Y-48088877D01*
X121193987Y-48126355D01*
X121175521Y-48160904D01*
X121150677Y-48191177D01*
X121120404Y-48216021D01*
X121085855Y-48234487D01*
X121048377Y-48245857D01*
X121003262Y-48250300D01*
X120364738Y-48250300D01*
X120319623Y-48245857D01*
X120282145Y-48234487D01*
X120247596Y-48216021D01*
X120217323Y-48191177D01*
X120192479Y-48160904D01*
X120174013Y-48126355D01*
X120162643Y-48088877D01*
X120158200Y-48043762D01*
X120158200Y-47305238D01*
X120162643Y-47260123D01*
X120174013Y-47222645D01*
X120192479Y-47188096D01*
X120217323Y-47157823D01*
X120247596Y-47132979D01*
X120282145Y-47114513D01*
X120319623Y-47103143D01*
X120364738Y-47098700D01*
X121003262Y-47098700D01*
X121048377Y-47103143D01*
X121048377Y-47103143D01*
G37*
G36*
X128867300Y-47640800D02*
X127865700Y-47640800D01*
X127865700Y-46339200D01*
X128867300Y-46339200D01*
X128867300Y-47640800D01*
X128867300Y-47640800D01*
G37*
G36*
X125567300Y-47640800D02*
X124565700Y-47640800D01*
X124565700Y-46339200D01*
X125567300Y-46339200D01*
X125567300Y-47640800D01*
X125567300Y-47640800D01*
G37*
G36*
X142123300Y-46698300D02*
X141281700Y-46698300D01*
X141281700Y-44196700D01*
X142123300Y-44196700D01*
X142123300Y-46698300D01*
X142123300Y-46698300D01*
G37*
G36*
X139583300Y-46698300D02*
X138741700Y-46698300D01*
X138741700Y-44196700D01*
X139583300Y-44196700D01*
X139583300Y-46698300D01*
X139583300Y-46698300D01*
G37*
G36*
X138313300Y-46698300D02*
X137471700Y-46698300D01*
X137471700Y-44196700D01*
X138313300Y-44196700D01*
X138313300Y-46698300D01*
X138313300Y-46698300D01*
G37*
G36*
X140853300Y-46698300D02*
X140011700Y-46698300D01*
X140011700Y-44196700D01*
X140853300Y-44196700D01*
X140853300Y-46698300D01*
X140853300Y-46698300D01*
G37*
G36*
X137043300Y-46698300D02*
X136201700Y-46698300D01*
X136201700Y-44196700D01*
X137043300Y-44196700D01*
X137043300Y-46698300D01*
X137043300Y-46698300D01*
G37*
G36*
X121048377Y-45353143D02*
X121085855Y-45364513D01*
X121120404Y-45382979D01*
X121150677Y-45407823D01*
X121175521Y-45438096D01*
X121193987Y-45472645D01*
X121205357Y-45510123D01*
X121209800Y-45555238D01*
X121209800Y-46293762D01*
X121205357Y-46338877D01*
X121193987Y-46376355D01*
X121175521Y-46410904D01*
X121150677Y-46441177D01*
X121120404Y-46466021D01*
X121085855Y-46484487D01*
X121048377Y-46495857D01*
X121003262Y-46500300D01*
X120364738Y-46500300D01*
X120319623Y-46495857D01*
X120282145Y-46484487D01*
X120247596Y-46466021D01*
X120217323Y-46441177D01*
X120192479Y-46410904D01*
X120174013Y-46376355D01*
X120162643Y-46338877D01*
X120158200Y-46293762D01*
X120158200Y-45555238D01*
X120162643Y-45510123D01*
X120174013Y-45472645D01*
X120192479Y-45438096D01*
X120217323Y-45407823D01*
X120247596Y-45382979D01*
X120282145Y-45364513D01*
X120319623Y-45353143D01*
X120364738Y-45348700D01*
X121003262Y-45348700D01*
X121048377Y-45353143D01*
X121048377Y-45353143D01*
G37*
G36*
X134002377Y-45134643D02*
X134039855Y-45146013D01*
X134074404Y-45164479D01*
X134104677Y-45189323D01*
X134129521Y-45219596D01*
X134147987Y-45254145D01*
X134159357Y-45291623D01*
X134163800Y-45336738D01*
X134163800Y-46075262D01*
X134159357Y-46120377D01*
X134147987Y-46157855D01*
X134129521Y-46192404D01*
X134104677Y-46222677D01*
X134074404Y-46247521D01*
X134039855Y-46265987D01*
X134002377Y-46277357D01*
X133957262Y-46281800D01*
X133318738Y-46281800D01*
X133273623Y-46277357D01*
X133236145Y-46265987D01*
X133201596Y-46247521D01*
X133171323Y-46222677D01*
X133146479Y-46192404D01*
X133128013Y-46157855D01*
X133116643Y-46120377D01*
X133112200Y-46075262D01*
X133112200Y-45336738D01*
X133116643Y-45291623D01*
X133128013Y-45254145D01*
X133146479Y-45219596D01*
X133171323Y-45189323D01*
X133201596Y-45164479D01*
X133236145Y-45146013D01*
X133273623Y-45134643D01*
X133318738Y-45130200D01*
X133957262Y-45130200D01*
X134002377Y-45134643D01*
X134002377Y-45134643D01*
G37*
G36*
X134002377Y-43384643D02*
X134039855Y-43396013D01*
X134074404Y-43414479D01*
X134104677Y-43439323D01*
X134129521Y-43469596D01*
X134147987Y-43504145D01*
X134159357Y-43541623D01*
X134163800Y-43586738D01*
X134163800Y-44325262D01*
X134159357Y-44370377D01*
X134147987Y-44407855D01*
X134129521Y-44442404D01*
X134104677Y-44472677D01*
X134074404Y-44497521D01*
X134039855Y-44515987D01*
X134002377Y-44527357D01*
X133957262Y-44531800D01*
X133318738Y-44531800D01*
X133273623Y-44527357D01*
X133236145Y-44515987D01*
X133201596Y-44497521D01*
X133171323Y-44472677D01*
X133146479Y-44442404D01*
X133128013Y-44407855D01*
X133116643Y-44370377D01*
X133112200Y-44325262D01*
X133112200Y-43586738D01*
X133116643Y-43541623D01*
X133128013Y-43504145D01*
X133146479Y-43469596D01*
X133171323Y-43439323D01*
X133201596Y-43414479D01*
X133236145Y-43396013D01*
X133273623Y-43384643D01*
X133318738Y-43380200D01*
X133957262Y-43380200D01*
X134002377Y-43384643D01*
X134002377Y-43384643D01*
G37*
G36*
X146610300Y-44157300D02*
X145608700Y-44157300D01*
X145608700Y-43055700D01*
X146610300Y-43055700D01*
X146610300Y-44157300D01*
X146610300Y-44157300D01*
G37*
G36*
X148210300Y-44157300D02*
X147208700Y-44157300D01*
X147208700Y-43055700D01*
X148210300Y-43055700D01*
X148210300Y-44157300D01*
X148210300Y-44157300D01*
G37*
G36*
X123852017Y-42910114D02*
X123965268Y-42957024D01*
X123965270Y-42957025D01*
X124065838Y-43024222D01*
X124067196Y-43025130D01*
X124153870Y-43111804D01*
X124153872Y-43111807D01*
X124210663Y-43196800D01*
X124221976Y-43213732D01*
X124268886Y-43326983D01*
X124292800Y-43447207D01*
X124292800Y-43569793D01*
X124268886Y-43690017D01*
X124221976Y-43803268D01*
X124153870Y-43905196D01*
X124067196Y-43991870D01*
X124067193Y-43991872D01*
X123965270Y-44059975D01*
X123965269Y-44059976D01*
X123965268Y-44059976D01*
X123852017Y-44106886D01*
X123731793Y-44130800D01*
X123609207Y-44130800D01*
X123488983Y-44106886D01*
X123375732Y-44059976D01*
X123375731Y-44059976D01*
X123375730Y-44059975D01*
X123273807Y-43991872D01*
X123273804Y-43991870D01*
X123187130Y-43905196D01*
X123119024Y-43803268D01*
X123072114Y-43690017D01*
X123048200Y-43569793D01*
X123048200Y-43447207D01*
X123072114Y-43326983D01*
X123119024Y-43213732D01*
X123130338Y-43196800D01*
X123187128Y-43111807D01*
X123187130Y-43111804D01*
X123273804Y-43025130D01*
X123275162Y-43024222D01*
X123375730Y-42957025D01*
X123375732Y-42957024D01*
X123488983Y-42910114D01*
X123609207Y-42886200D01*
X123731793Y-42886200D01*
X123852017Y-42910114D01*
X123852017Y-42910114D01*
G37*
G36*
X130452017Y-42910114D02*
X130565268Y-42957024D01*
X130565270Y-42957025D01*
X130665838Y-43024222D01*
X130667196Y-43025130D01*
X130753870Y-43111804D01*
X130753872Y-43111807D01*
X130810663Y-43196800D01*
X130821976Y-43213732D01*
X130868886Y-43326983D01*
X130892800Y-43447207D01*
X130892800Y-43569793D01*
X130868886Y-43690017D01*
X130821976Y-43803268D01*
X130753870Y-43905196D01*
X130667196Y-43991870D01*
X130667193Y-43991872D01*
X130565270Y-44059975D01*
X130565269Y-44059976D01*
X130565268Y-44059976D01*
X130452017Y-44106886D01*
X130331793Y-44130800D01*
X130209207Y-44130800D01*
X130088983Y-44106886D01*
X129975732Y-44059976D01*
X129975731Y-44059976D01*
X129975730Y-44059975D01*
X129873807Y-43991872D01*
X129873804Y-43991870D01*
X129787130Y-43905196D01*
X129719024Y-43803268D01*
X129672114Y-43690017D01*
X129648200Y-43569793D01*
X129648200Y-43447207D01*
X129672114Y-43326983D01*
X129719024Y-43213732D01*
X129730338Y-43196800D01*
X129787128Y-43111807D01*
X129787130Y-43111804D01*
X129873804Y-43025130D01*
X129875162Y-43024222D01*
X129975730Y-42957025D01*
X129975732Y-42957024D01*
X130088983Y-42910114D01*
X130209207Y-42886200D01*
X130331793Y-42886200D01*
X130452017Y-42910114D01*
X130452017Y-42910114D01*
G37*
G36*
X125137409Y-42223102D02*
X125210350Y-42253315D01*
X125275996Y-42297179D01*
X125331821Y-42353004D01*
X125375685Y-42418650D01*
X125405898Y-42491591D01*
X125418926Y-42557087D01*
X125426039Y-42580536D01*
X125437591Y-42602147D01*
X125453136Y-42621089D01*
X125472078Y-42636634D01*
X125493689Y-42648185D01*
X125517138Y-42655298D01*
X125541524Y-42657700D01*
X128399476Y-42657700D01*
X128423862Y-42655298D01*
X128447311Y-42648185D01*
X128468922Y-42636634D01*
X128487864Y-42621088D01*
X128503410Y-42602146D01*
X128514961Y-42580535D01*
X128522074Y-42557087D01*
X128535102Y-42491591D01*
X128565315Y-42418650D01*
X128609179Y-42353004D01*
X128665004Y-42297179D01*
X128730650Y-42253315D01*
X128803591Y-42223102D01*
X128881023Y-42207700D01*
X128959977Y-42207700D01*
X129037409Y-42223102D01*
X129110350Y-42253315D01*
X129175996Y-42297179D01*
X129231821Y-42353004D01*
X129275685Y-42418650D01*
X129305898Y-42491591D01*
X129321300Y-42569023D01*
X129321300Y-42647977D01*
X129305898Y-42725409D01*
X129275685Y-42798350D01*
X129231821Y-42863996D01*
X129175996Y-42919821D01*
X129110350Y-42963685D01*
X129037409Y-42993898D01*
X128959977Y-43009300D01*
X128881023Y-43009300D01*
X128803591Y-42993898D01*
X128730651Y-42963685D01*
X128715746Y-42953726D01*
X128694135Y-42942175D01*
X128670686Y-42935062D01*
X128646300Y-42932660D01*
X128621914Y-42935062D01*
X128598465Y-42942175D01*
X128576854Y-42953726D01*
X128557912Y-42969272D01*
X128542366Y-42988214D01*
X128530815Y-43009825D01*
X128523702Y-43033274D01*
X128521300Y-43057660D01*
X128521300Y-44109300D01*
X125419700Y-44109300D01*
X125419700Y-43057660D01*
X125417298Y-43033274D01*
X125410185Y-43009825D01*
X125398634Y-42988214D01*
X125383088Y-42969272D01*
X125364146Y-42953726D01*
X125342535Y-42942175D01*
X125319086Y-42935062D01*
X125294700Y-42932660D01*
X125270314Y-42935062D01*
X125246865Y-42942175D01*
X125225254Y-42953726D01*
X125210349Y-42963685D01*
X125137409Y-42993898D01*
X125059977Y-43009300D01*
X124981023Y-43009300D01*
X124903591Y-42993898D01*
X124830650Y-42963685D01*
X124765004Y-42919821D01*
X124709179Y-42863996D01*
X124665315Y-42798350D01*
X124635102Y-42725409D01*
X124619700Y-42647977D01*
X124619700Y-42569023D01*
X124635102Y-42491591D01*
X124665315Y-42418650D01*
X124709179Y-42353004D01*
X124765004Y-42297179D01*
X124830650Y-42253315D01*
X124903591Y-42223102D01*
X124981023Y-42207700D01*
X125059977Y-42207700D01*
X125137409Y-42223102D01*
X125137409Y-42223102D01*
G37*
G36*
X121166800Y-43196800D02*
X118565200Y-43196800D01*
X118565200Y-41095200D01*
X121166800Y-41095200D01*
X121166800Y-43196800D01*
X121166800Y-43196800D01*
G37*
G36*
X110498800Y-43196800D02*
X107897200Y-43196800D01*
X107897200Y-41095200D01*
X110498800Y-41095200D01*
X110498800Y-43196800D01*
X110498800Y-43196800D01*
G37*
G36*
X138313300Y-42798300D02*
X137471700Y-42798300D01*
X137471700Y-40296700D01*
X138313300Y-40296700D01*
X138313300Y-42798300D01*
X138313300Y-42798300D01*
G37*
G36*
X140853300Y-42798300D02*
X140011700Y-42798300D01*
X140011700Y-40296700D01*
X140853300Y-40296700D01*
X140853300Y-42798300D01*
X140853300Y-42798300D01*
G37*
G36*
X137043300Y-42798300D02*
X136201700Y-42798300D01*
X136201700Y-40296700D01*
X137043300Y-40296700D01*
X137043300Y-42798300D01*
X137043300Y-42798300D01*
G37*
G36*
X142123300Y-42798300D02*
X141281700Y-42798300D01*
X141281700Y-40296700D01*
X142123300Y-40296700D01*
X142123300Y-42798300D01*
X142123300Y-42798300D01*
G37*
G36*
X139583300Y-42798300D02*
X138741700Y-42798300D01*
X138741700Y-40296700D01*
X139583300Y-40296700D01*
X139583300Y-42798300D01*
X139583300Y-42798300D01*
G37*
G36*
X106004507Y-40335582D02*
X106195740Y-40414793D01*
X106366687Y-40529016D01*
X106367849Y-40529793D01*
X106514207Y-40676151D01*
X106514209Y-40676154D01*
X106629207Y-40848260D01*
X106708418Y-41039493D01*
X106748800Y-41242505D01*
X106748800Y-41449495D01*
X106708418Y-41652507D01*
X106629207Y-41843740D01*
X106547649Y-41965800D01*
X106514207Y-42015849D01*
X106367849Y-42162207D01*
X106367846Y-42162209D01*
X106195740Y-42277207D01*
X106004507Y-42356418D01*
X105801495Y-42396800D01*
X105594505Y-42396800D01*
X105391493Y-42356418D01*
X105200260Y-42277207D01*
X105028154Y-42162209D01*
X105028151Y-42162207D01*
X104881793Y-42015849D01*
X104848351Y-41965800D01*
X104766793Y-41843740D01*
X104687582Y-41652507D01*
X104647200Y-41449495D01*
X104647200Y-41242505D01*
X104687582Y-41039493D01*
X104766793Y-40848260D01*
X104881791Y-40676154D01*
X104881793Y-40676151D01*
X105028151Y-40529793D01*
X105029313Y-40529016D01*
X105200260Y-40414793D01*
X105391493Y-40335582D01*
X105594505Y-40295200D01*
X105801495Y-40295200D01*
X106004507Y-40335582D01*
X106004507Y-40335582D01*
G37*
G36*
X116672507Y-40335582D02*
X116863740Y-40414793D01*
X117034687Y-40529016D01*
X117035849Y-40529793D01*
X117182207Y-40676151D01*
X117182209Y-40676154D01*
X117297207Y-40848260D01*
X117376418Y-41039493D01*
X117416800Y-41242505D01*
X117416800Y-41449495D01*
X117376418Y-41652507D01*
X117297207Y-41843740D01*
X117215649Y-41965800D01*
X117182207Y-42015849D01*
X117035849Y-42162207D01*
X117035846Y-42162209D01*
X116863740Y-42277207D01*
X116672507Y-42356418D01*
X116469495Y-42396800D01*
X116262505Y-42396800D01*
X116059493Y-42356418D01*
X115868260Y-42277207D01*
X115696154Y-42162209D01*
X115696151Y-42162207D01*
X115549793Y-42015849D01*
X115516351Y-41965800D01*
X115434793Y-41843740D01*
X115355582Y-41652507D01*
X115315200Y-41449495D01*
X115315200Y-41242505D01*
X115355582Y-41039493D01*
X115434793Y-40848260D01*
X115549791Y-40676154D01*
X115549793Y-40676151D01*
X115696151Y-40529793D01*
X115697313Y-40529016D01*
X115868260Y-40414793D01*
X116059493Y-40335582D01*
X116262505Y-40295200D01*
X116469495Y-40295200D01*
X116672507Y-40335582D01*
X116672507Y-40335582D01*
G37*
G36*
X134226543Y-41043663D02*
X134264222Y-41055093D01*
X134298939Y-41073650D01*
X134329374Y-41098626D01*
X134354350Y-41129061D01*
X134372907Y-41163778D01*
X134384337Y-41201457D01*
X134388800Y-41246773D01*
X134388800Y-42083227D01*
X134384337Y-42128543D01*
X134372907Y-42166222D01*
X134354350Y-42200939D01*
X134329374Y-42231374D01*
X134298939Y-42256350D01*
X134264222Y-42274907D01*
X134226543Y-42286337D01*
X134181227Y-42290800D01*
X133094773Y-42290800D01*
X133049457Y-42286337D01*
X133011778Y-42274907D01*
X132977061Y-42256350D01*
X132946626Y-42231374D01*
X132921650Y-42200939D01*
X132903093Y-42166222D01*
X132891663Y-42128543D01*
X132887200Y-42083227D01*
X132887200Y-41246773D01*
X132891663Y-41201457D01*
X132903093Y-41163778D01*
X132921650Y-41129061D01*
X132946626Y-41098626D01*
X132977061Y-41073650D01*
X133011778Y-41055093D01*
X133049457Y-41043663D01*
X133094773Y-41039200D01*
X134181227Y-41039200D01*
X134226543Y-41043663D01*
X134226543Y-41043663D01*
G37*
G36*
X131827800Y-41965800D02*
X129313200Y-41965800D01*
X129313200Y-39451200D01*
X131827800Y-39451200D01*
X131827800Y-41965800D01*
X131827800Y-41965800D01*
G37*
G36*
X124627800Y-41965800D02*
X122113200Y-41965800D01*
X122113200Y-39451200D01*
X124627800Y-39451200D01*
X124627800Y-41965800D01*
X124627800Y-41965800D01*
G37*
G36*
X128271300Y-41659300D02*
X127169700Y-41659300D01*
X127169700Y-39557700D01*
X128271300Y-39557700D01*
X128271300Y-41659300D01*
X128271300Y-41659300D01*
G37*
G36*
X126771300Y-41659300D02*
X125669700Y-41659300D01*
X125669700Y-39557700D01*
X126771300Y-39557700D01*
X126771300Y-41659300D01*
X126771300Y-41659300D01*
G37*
G36*
X114166800Y-41396800D02*
X111565200Y-41396800D01*
X111565200Y-39295200D01*
X114166800Y-39295200D01*
X114166800Y-41396800D01*
X114166800Y-41396800D01*
G37*
G36*
X103498800Y-41396800D02*
X100897200Y-41396800D01*
X100897200Y-39295200D01*
X103498800Y-39295200D01*
X103498800Y-41396800D01*
X103498800Y-41396800D01*
G37*
G36*
X134226543Y-38993663D02*
X134264222Y-39005093D01*
X134298939Y-39023650D01*
X134329374Y-39048626D01*
X134354350Y-39079061D01*
X134372907Y-39113778D01*
X134384337Y-39151457D01*
X134388800Y-39196773D01*
X134388800Y-40033227D01*
X134384337Y-40078543D01*
X134372907Y-40116222D01*
X134354350Y-40150939D01*
X134329374Y-40181374D01*
X134298939Y-40206350D01*
X134264222Y-40224907D01*
X134226543Y-40236337D01*
X134181227Y-40240800D01*
X133094773Y-40240800D01*
X133049457Y-40236337D01*
X133011778Y-40224907D01*
X132977061Y-40206350D01*
X132946626Y-40181374D01*
X132921650Y-40150939D01*
X132903093Y-40116222D01*
X132891663Y-40078543D01*
X132887200Y-40033227D01*
X132887200Y-39196773D01*
X132891663Y-39151457D01*
X132903093Y-39113778D01*
X132921650Y-39079061D01*
X132946626Y-39048626D01*
X132977061Y-39023650D01*
X133011778Y-39005093D01*
X133049457Y-38993663D01*
X133094773Y-38989200D01*
X134181227Y-38989200D01*
X134226543Y-38993663D01*
X134226543Y-38993663D01*
G37*
G36*
X121166800Y-39996800D02*
X118565200Y-39996800D01*
X118565200Y-38695200D01*
X121166800Y-38695200D01*
X121166800Y-39996800D01*
X121166800Y-39996800D01*
G37*
G36*
X110498800Y-39996800D02*
X107897200Y-39996800D01*
X107897200Y-38695200D01*
X110498800Y-38695200D01*
X110498800Y-39996800D01*
X110498800Y-39996800D01*
G37*
M02*
