%TF.GenerationSoftware,KiCad,Pcbnew,10.0.3*%
%TF.CreationDate,2026-06-10T16:10:21-07:00*%
%TF.ProjectId,pygameboy,70796761-6d65-4626-9f79-2e6b69636164,rev?*%
%TF.SameCoordinates,Original*%
%TF.FileFunction,Legend,Bot*%
%TF.FilePolarity,Positive*%
%FSLAX46Y46*%
G04 Gerber Fmt 4.6, Leading zero omitted, Abs format (unit mm)*
G04 Created by KiCad (PCBNEW 10.0.3) date 2026-06-10 16:10:21*
%MOMM*%
%LPD*%
G01*
G04 APERTURE LIST*
%ADD10C,0.200000*%
%ADD11C,0.120000*%
%ADD12C,0.600000*%
%ADD13O,0.900000X2.000000*%
%ADD14O,0.900000X1.700000*%
%ADD15C,1.500000*%
G04 APERTURE END LIST*
D10*
X1445000Y8512000D02*
X1445000Y5700000D01*
X4445000Y8512000D02*
X4450000Y5700000D01*
X7445000Y8512000D02*
X7450000Y5700000D01*
X10445000Y8512000D02*
X10445000Y5700000D01*
X13445000Y8512000D02*
X13445000Y5650000D01*
X16445000Y8512000D02*
X16445000Y5700000D01*
X19445000Y8512000D02*
X19450000Y5700000D01*
X22445000Y8512000D02*
X22450000Y5650000D01*
X25445000Y8512000D02*
X25445000Y5700000D01*
X28445000Y8512000D02*
X28445000Y5700000D01*
X31445000Y8512000D02*
X31445000Y5700000D01*
X34445000Y8512000D02*
X34445000Y5700000D01*
X37445000Y8512000D02*
X37445000Y5750000D01*
X40445000Y8512000D02*
X40445000Y5700000D01*
X43445000Y8512000D02*
X43450000Y5850000D01*
X46445000Y8512000D02*
X46450000Y5750000D01*
X1147733Y8929674D02*
X1147733Y9691578D01*
X766780Y9310626D02*
X1528685Y9310626D01*
X1766780Y10643959D02*
X1766780Y10167769D01*
X1766780Y10167769D02*
X1290590Y10120150D01*
X1290590Y10120150D02*
X1338209Y10167769D01*
X1338209Y10167769D02*
X1385828Y10263007D01*
X1385828Y10263007D02*
X1385828Y10501102D01*
X1385828Y10501102D02*
X1338209Y10596340D01*
X1338209Y10596340D02*
X1290590Y10643959D01*
X1290590Y10643959D02*
X1195352Y10691578D01*
X1195352Y10691578D02*
X957257Y10691578D01*
X957257Y10691578D02*
X862019Y10643959D01*
X862019Y10643959D02*
X814400Y10596340D01*
X814400Y10596340D02*
X766780Y10501102D01*
X766780Y10501102D02*
X766780Y10263007D01*
X766780Y10263007D02*
X814400Y10167769D01*
X814400Y10167769D02*
X862019Y10120150D01*
X1766780Y10977293D02*
X766780Y11310626D01*
X766780Y11310626D02*
X1766780Y11643959D01*
X2588019Y9501102D02*
X2540400Y9453483D01*
X2540400Y9453483D02*
X2492780Y9310626D01*
X2492780Y9310626D02*
X2492780Y9215388D01*
X2492780Y9215388D02*
X2540400Y9072531D01*
X2540400Y9072531D02*
X2635638Y8977293D01*
X2635638Y8977293D02*
X2730876Y8929674D01*
X2730876Y8929674D02*
X2921352Y8882055D01*
X2921352Y8882055D02*
X3064209Y8882055D01*
X3064209Y8882055D02*
X3254685Y8929674D01*
X3254685Y8929674D02*
X3349923Y8977293D01*
X3349923Y8977293D02*
X3445161Y9072531D01*
X3445161Y9072531D02*
X3492780Y9215388D01*
X3492780Y9215388D02*
X3492780Y9310626D01*
X3492780Y9310626D02*
X3445161Y9453483D01*
X3445161Y9453483D02*
X3397542Y9501102D01*
X2492780Y10405864D02*
X2492780Y9929674D01*
X2492780Y9929674D02*
X3492780Y9929674D01*
X2492780Y10739198D02*
X3492780Y10739198D01*
X2492780Y11310626D02*
X3064209Y10882055D01*
X3492780Y11310626D02*
X2921352Y10739198D01*
X4992780Y8834436D02*
X3992780Y9072531D01*
X3992780Y9072531D02*
X4707066Y9263007D01*
X4707066Y9263007D02*
X3992780Y9453483D01*
X3992780Y9453483D02*
X4992780Y9691578D01*
X3992780Y10643959D02*
X4468971Y10310626D01*
X3992780Y10072531D02*
X4992780Y10072531D01*
X4992780Y10072531D02*
X4992780Y10453483D01*
X4992780Y10453483D02*
X4945161Y10548721D01*
X4945161Y10548721D02*
X4897542Y10596340D01*
X4897542Y10596340D02*
X4802304Y10643959D01*
X4802304Y10643959D02*
X4659447Y10643959D01*
X4659447Y10643959D02*
X4564209Y10596340D01*
X4564209Y10596340D02*
X4516590Y10548721D01*
X4516590Y10548721D02*
X4468971Y10453483D01*
X4468971Y10453483D02*
X4468971Y10072531D01*
X5492780Y9501102D02*
X5968971Y9167769D01*
X5492780Y8929674D02*
X6492780Y8929674D01*
X6492780Y8929674D02*
X6492780Y9310626D01*
X6492780Y9310626D02*
X6445161Y9405864D01*
X6445161Y9405864D02*
X6397542Y9453483D01*
X6397542Y9453483D02*
X6302304Y9501102D01*
X6302304Y9501102D02*
X6159447Y9501102D01*
X6159447Y9501102D02*
X6064209Y9453483D01*
X6064209Y9453483D02*
X6016590Y9405864D01*
X6016590Y9405864D02*
X5968971Y9310626D01*
X5968971Y9310626D02*
X5968971Y8929674D01*
X5492780Y9929674D02*
X6492780Y9929674D01*
X6492780Y9929674D02*
X6492780Y10167769D01*
X6492780Y10167769D02*
X6445161Y10310626D01*
X6445161Y10310626D02*
X6349923Y10405864D01*
X6349923Y10405864D02*
X6254685Y10453483D01*
X6254685Y10453483D02*
X6064209Y10501102D01*
X6064209Y10501102D02*
X5921352Y10501102D01*
X5921352Y10501102D02*
X5730876Y10453483D01*
X5730876Y10453483D02*
X5635638Y10405864D01*
X5635638Y10405864D02*
X5540400Y10310626D01*
X5540400Y10310626D02*
X5492780Y10167769D01*
X5492780Y10167769D02*
X5492780Y9929674D01*
X7085019Y9501102D02*
X7037400Y9453483D01*
X7037400Y9453483D02*
X6989780Y9310626D01*
X6989780Y9310626D02*
X6989780Y9215388D01*
X6989780Y9215388D02*
X7037400Y9072531D01*
X7037400Y9072531D02*
X7132638Y8977293D01*
X7132638Y8977293D02*
X7227876Y8929674D01*
X7227876Y8929674D02*
X7418352Y8882055D01*
X7418352Y8882055D02*
X7561209Y8882055D01*
X7561209Y8882055D02*
X7751685Y8929674D01*
X7751685Y8929674D02*
X7846923Y8977293D01*
X7846923Y8977293D02*
X7942161Y9072531D01*
X7942161Y9072531D02*
X7989780Y9215388D01*
X7989780Y9215388D02*
X7989780Y9310626D01*
X7989780Y9310626D02*
X7942161Y9453483D01*
X7942161Y9453483D02*
X7894542Y9501102D01*
X7037400Y9882055D02*
X6989780Y10024912D01*
X6989780Y10024912D02*
X6989780Y10263007D01*
X6989780Y10263007D02*
X7037400Y10358245D01*
X7037400Y10358245D02*
X7085019Y10405864D01*
X7085019Y10405864D02*
X7180257Y10453483D01*
X7180257Y10453483D02*
X7275495Y10453483D01*
X7275495Y10453483D02*
X7370733Y10405864D01*
X7370733Y10405864D02*
X7418352Y10358245D01*
X7418352Y10358245D02*
X7465971Y10263007D01*
X7465971Y10263007D02*
X7513590Y10072531D01*
X7513590Y10072531D02*
X7561209Y9977293D01*
X7561209Y9977293D02*
X7608828Y9929674D01*
X7608828Y9929674D02*
X7704066Y9882055D01*
X7704066Y9882055D02*
X7799304Y9882055D01*
X7799304Y9882055D02*
X7894542Y9929674D01*
X7894542Y9929674D02*
X7942161Y9977293D01*
X7942161Y9977293D02*
X7989780Y10072531D01*
X7989780Y10072531D02*
X7989780Y10310626D01*
X7989780Y10310626D02*
X7942161Y10453483D01*
X8778495Y8882055D02*
X8778495Y9358245D01*
X8492780Y8786817D02*
X9492780Y9120150D01*
X9492780Y9120150D02*
X8492780Y9453483D01*
X9492780Y9977293D02*
X9492780Y10072531D01*
X9492780Y10072531D02*
X9445161Y10167769D01*
X9445161Y10167769D02*
X9397542Y10215388D01*
X9397542Y10215388D02*
X9302304Y10263007D01*
X9302304Y10263007D02*
X9111828Y10310626D01*
X9111828Y10310626D02*
X8873733Y10310626D01*
X8873733Y10310626D02*
X8683257Y10263007D01*
X8683257Y10263007D02*
X8588019Y10215388D01*
X8588019Y10215388D02*
X8540400Y10167769D01*
X8540400Y10167769D02*
X8492780Y10072531D01*
X8492780Y10072531D02*
X8492780Y9977293D01*
X8492780Y9977293D02*
X8540400Y9882055D01*
X8540400Y9882055D02*
X8588019Y9834436D01*
X8588019Y9834436D02*
X8683257Y9786817D01*
X8683257Y9786817D02*
X8873733Y9739198D01*
X8873733Y9739198D02*
X9111828Y9739198D01*
X9111828Y9739198D02*
X9302304Y9786817D01*
X9302304Y9786817D02*
X9397542Y9834436D01*
X9397542Y9834436D02*
X9445161Y9882055D01*
X9445161Y9882055D02*
X9492780Y9977293D01*
X10278495Y8882055D02*
X10278495Y9358245D01*
X9992780Y8786817D02*
X10992780Y9120150D01*
X10992780Y9120150D02*
X9992780Y9453483D01*
X9992780Y10310626D02*
X9992780Y9739198D01*
X9992780Y10024912D02*
X10992780Y10024912D01*
X10992780Y10024912D02*
X10849923Y9929674D01*
X10849923Y9929674D02*
X10754685Y9834436D01*
X10754685Y9834436D02*
X10707066Y9739198D01*
X11778495Y8882055D02*
X11778495Y9358245D01*
X11492780Y8786817D02*
X12492780Y9120150D01*
X12492780Y9120150D02*
X11492780Y9453483D01*
X12397542Y9739198D02*
X12445161Y9786817D01*
X12445161Y9786817D02*
X12492780Y9882055D01*
X12492780Y9882055D02*
X12492780Y10120150D01*
X12492780Y10120150D02*
X12445161Y10215388D01*
X12445161Y10215388D02*
X12397542Y10263007D01*
X12397542Y10263007D02*
X12302304Y10310626D01*
X12302304Y10310626D02*
X12207066Y10310626D01*
X12207066Y10310626D02*
X12064209Y10263007D01*
X12064209Y10263007D02*
X11492780Y9691579D01*
X11492780Y9691579D02*
X11492780Y10310626D01*
X13278495Y8882055D02*
X13278495Y9358245D01*
X12992780Y8786817D02*
X13992780Y9120150D01*
X13992780Y9120150D02*
X12992780Y9453483D01*
X13992780Y9691579D02*
X13992780Y10310626D01*
X13992780Y10310626D02*
X13611828Y9977293D01*
X13611828Y9977293D02*
X13611828Y10120150D01*
X13611828Y10120150D02*
X13564209Y10215388D01*
X13564209Y10215388D02*
X13516590Y10263007D01*
X13516590Y10263007D02*
X13421352Y10310626D01*
X13421352Y10310626D02*
X13183257Y10310626D01*
X13183257Y10310626D02*
X13088019Y10263007D01*
X13088019Y10263007D02*
X13040400Y10215388D01*
X13040400Y10215388D02*
X12992780Y10120150D01*
X12992780Y10120150D02*
X12992780Y9834436D01*
X12992780Y9834436D02*
X13040400Y9739198D01*
X13040400Y9739198D02*
X13088019Y9691579D01*
X14778495Y8882055D02*
X14778495Y9358245D01*
X14492780Y8786817D02*
X15492780Y9120150D01*
X15492780Y9120150D02*
X14492780Y9453483D01*
X15159447Y10215388D02*
X14492780Y10215388D01*
X15540400Y9977293D02*
X14826114Y9739198D01*
X14826114Y9739198D02*
X14826114Y10358245D01*
X16278495Y8882055D02*
X16278495Y9358245D01*
X15992780Y8786817D02*
X16992780Y9120150D01*
X16992780Y9120150D02*
X15992780Y9453483D01*
X16992780Y10263007D02*
X16992780Y9786817D01*
X16992780Y9786817D02*
X16516590Y9739198D01*
X16516590Y9739198D02*
X16564209Y9786817D01*
X16564209Y9786817D02*
X16611828Y9882055D01*
X16611828Y9882055D02*
X16611828Y10120150D01*
X16611828Y10120150D02*
X16564209Y10215388D01*
X16564209Y10215388D02*
X16516590Y10263007D01*
X16516590Y10263007D02*
X16421352Y10310626D01*
X16421352Y10310626D02*
X16183257Y10310626D01*
X16183257Y10310626D02*
X16088019Y10263007D01*
X16088019Y10263007D02*
X16040400Y10215388D01*
X16040400Y10215388D02*
X15992780Y10120150D01*
X15992780Y10120150D02*
X15992780Y9882055D01*
X15992780Y9882055D02*
X16040400Y9786817D01*
X16040400Y9786817D02*
X16088019Y9739198D01*
X17778495Y8882055D02*
X17778495Y9358245D01*
X17492780Y8786817D02*
X18492780Y9120150D01*
X18492780Y9120150D02*
X17492780Y9453483D01*
X18492780Y10215388D02*
X18492780Y10024912D01*
X18492780Y10024912D02*
X18445161Y9929674D01*
X18445161Y9929674D02*
X18397542Y9882055D01*
X18397542Y9882055D02*
X18254685Y9786817D01*
X18254685Y9786817D02*
X18064209Y9739198D01*
X18064209Y9739198D02*
X17683257Y9739198D01*
X17683257Y9739198D02*
X17588019Y9786817D01*
X17588019Y9786817D02*
X17540400Y9834436D01*
X17540400Y9834436D02*
X17492780Y9929674D01*
X17492780Y9929674D02*
X17492780Y10120150D01*
X17492780Y10120150D02*
X17540400Y10215388D01*
X17540400Y10215388D02*
X17588019Y10263007D01*
X17588019Y10263007D02*
X17683257Y10310626D01*
X17683257Y10310626D02*
X17921352Y10310626D01*
X17921352Y10310626D02*
X18016590Y10263007D01*
X18016590Y10263007D02*
X18064209Y10215388D01*
X18064209Y10215388D02*
X18111828Y10120150D01*
X18111828Y10120150D02*
X18111828Y9929674D01*
X18111828Y9929674D02*
X18064209Y9834436D01*
X18064209Y9834436D02*
X18016590Y9786817D01*
X18016590Y9786817D02*
X17921352Y9739198D01*
X19278495Y8882055D02*
X19278495Y9358245D01*
X18992780Y8786817D02*
X19992780Y9120150D01*
X19992780Y9120150D02*
X18992780Y9453483D01*
X19992780Y9691579D02*
X19992780Y10358245D01*
X19992780Y10358245D02*
X18992780Y9929674D01*
X20778495Y8882055D02*
X20778495Y9358245D01*
X20492780Y8786817D02*
X21492780Y9120150D01*
X21492780Y9120150D02*
X20492780Y9453483D01*
X21064209Y9929674D02*
X21111828Y9834436D01*
X21111828Y9834436D02*
X21159447Y9786817D01*
X21159447Y9786817D02*
X21254685Y9739198D01*
X21254685Y9739198D02*
X21302304Y9739198D01*
X21302304Y9739198D02*
X21397542Y9786817D01*
X21397542Y9786817D02*
X21445161Y9834436D01*
X21445161Y9834436D02*
X21492780Y9929674D01*
X21492780Y9929674D02*
X21492780Y10120150D01*
X21492780Y10120150D02*
X21445161Y10215388D01*
X21445161Y10215388D02*
X21397542Y10263007D01*
X21397542Y10263007D02*
X21302304Y10310626D01*
X21302304Y10310626D02*
X21254685Y10310626D01*
X21254685Y10310626D02*
X21159447Y10263007D01*
X21159447Y10263007D02*
X21111828Y10215388D01*
X21111828Y10215388D02*
X21064209Y10120150D01*
X21064209Y10120150D02*
X21064209Y9929674D01*
X21064209Y9929674D02*
X21016590Y9834436D01*
X21016590Y9834436D02*
X20968971Y9786817D01*
X20968971Y9786817D02*
X20873733Y9739198D01*
X20873733Y9739198D02*
X20683257Y9739198D01*
X20683257Y9739198D02*
X20588019Y9786817D01*
X20588019Y9786817D02*
X20540400Y9834436D01*
X20540400Y9834436D02*
X20492780Y9929674D01*
X20492780Y9929674D02*
X20492780Y10120150D01*
X20492780Y10120150D02*
X20540400Y10215388D01*
X20540400Y10215388D02*
X20588019Y10263007D01*
X20588019Y10263007D02*
X20683257Y10310626D01*
X20683257Y10310626D02*
X20873733Y10310626D01*
X20873733Y10310626D02*
X20968971Y10263007D01*
X20968971Y10263007D02*
X21016590Y10215388D01*
X21016590Y10215388D02*
X21064209Y10120150D01*
X22278495Y8882055D02*
X22278495Y9358245D01*
X21992780Y8786817D02*
X22992780Y9120150D01*
X22992780Y9120150D02*
X21992780Y9453483D01*
X21992780Y9834436D02*
X21992780Y10024912D01*
X21992780Y10024912D02*
X22040400Y10120150D01*
X22040400Y10120150D02*
X22088019Y10167769D01*
X22088019Y10167769D02*
X22230876Y10263007D01*
X22230876Y10263007D02*
X22421352Y10310626D01*
X22421352Y10310626D02*
X22802304Y10310626D01*
X22802304Y10310626D02*
X22897542Y10263007D01*
X22897542Y10263007D02*
X22945161Y10215388D01*
X22945161Y10215388D02*
X22992780Y10120150D01*
X22992780Y10120150D02*
X22992780Y9929674D01*
X22992780Y9929674D02*
X22945161Y9834436D01*
X22945161Y9834436D02*
X22897542Y9786817D01*
X22897542Y9786817D02*
X22802304Y9739198D01*
X22802304Y9739198D02*
X22564209Y9739198D01*
X22564209Y9739198D02*
X22468971Y9786817D01*
X22468971Y9786817D02*
X22421352Y9834436D01*
X22421352Y9834436D02*
X22373733Y9929674D01*
X22373733Y9929674D02*
X22373733Y10120150D01*
X22373733Y10120150D02*
X22421352Y10215388D01*
X22421352Y10215388D02*
X22468971Y10263007D01*
X22468971Y10263007D02*
X22564209Y10310626D01*
X23778495Y8882055D02*
X23778495Y9358245D01*
X23492780Y8786817D02*
X24492780Y9120150D01*
X24492780Y9120150D02*
X23492780Y9453483D01*
X23492780Y10310626D02*
X23492780Y9739198D01*
X23492780Y10024912D02*
X24492780Y10024912D01*
X24492780Y10024912D02*
X24349923Y9929674D01*
X24349923Y9929674D02*
X24254685Y9834436D01*
X24254685Y9834436D02*
X24207066Y9739198D01*
X24492780Y10929674D02*
X24492780Y11024912D01*
X24492780Y11024912D02*
X24445161Y11120150D01*
X24445161Y11120150D02*
X24397542Y11167769D01*
X24397542Y11167769D02*
X24302304Y11215388D01*
X24302304Y11215388D02*
X24111828Y11263007D01*
X24111828Y11263007D02*
X23873733Y11263007D01*
X23873733Y11263007D02*
X23683257Y11215388D01*
X23683257Y11215388D02*
X23588019Y11167769D01*
X23588019Y11167769D02*
X23540400Y11120150D01*
X23540400Y11120150D02*
X23492780Y11024912D01*
X23492780Y11024912D02*
X23492780Y10929674D01*
X23492780Y10929674D02*
X23540400Y10834436D01*
X23540400Y10834436D02*
X23588019Y10786817D01*
X23588019Y10786817D02*
X23683257Y10739198D01*
X23683257Y10739198D02*
X23873733Y10691579D01*
X23873733Y10691579D02*
X24111828Y10691579D01*
X24111828Y10691579D02*
X24302304Y10739198D01*
X24302304Y10739198D02*
X24397542Y10786817D01*
X24397542Y10786817D02*
X24445161Y10834436D01*
X24445161Y10834436D02*
X24492780Y10929674D01*
X25278495Y8882055D02*
X25278495Y9358245D01*
X24992780Y8786817D02*
X25992780Y9120150D01*
X25992780Y9120150D02*
X24992780Y9453483D01*
X24992780Y10310626D02*
X24992780Y9739198D01*
X24992780Y10024912D02*
X25992780Y10024912D01*
X25992780Y10024912D02*
X25849923Y9929674D01*
X25849923Y9929674D02*
X25754685Y9834436D01*
X25754685Y9834436D02*
X25707066Y9739198D01*
X24992780Y11263007D02*
X24992780Y10691579D01*
X24992780Y10977293D02*
X25992780Y10977293D01*
X25992780Y10977293D02*
X25849923Y10882055D01*
X25849923Y10882055D02*
X25754685Y10786817D01*
X25754685Y10786817D02*
X25707066Y10691579D01*
X26778495Y8882055D02*
X26778495Y9358245D01*
X26492780Y8786817D02*
X27492780Y9120150D01*
X27492780Y9120150D02*
X26492780Y9453483D01*
X26492780Y10310626D02*
X26492780Y9739198D01*
X26492780Y10024912D02*
X27492780Y10024912D01*
X27492780Y10024912D02*
X27349923Y9929674D01*
X27349923Y9929674D02*
X27254685Y9834436D01*
X27254685Y9834436D02*
X27207066Y9739198D01*
X27397542Y10691579D02*
X27445161Y10739198D01*
X27445161Y10739198D02*
X27492780Y10834436D01*
X27492780Y10834436D02*
X27492780Y11072531D01*
X27492780Y11072531D02*
X27445161Y11167769D01*
X27445161Y11167769D02*
X27397542Y11215388D01*
X27397542Y11215388D02*
X27302304Y11263007D01*
X27302304Y11263007D02*
X27207066Y11263007D01*
X27207066Y11263007D02*
X27064209Y11215388D01*
X27064209Y11215388D02*
X26492780Y10643960D01*
X26492780Y10643960D02*
X26492780Y11263007D01*
X28278495Y8882055D02*
X28278495Y9358245D01*
X27992780Y8786817D02*
X28992780Y9120150D01*
X28992780Y9120150D02*
X27992780Y9453483D01*
X27992780Y10310626D02*
X27992780Y9739198D01*
X27992780Y10024912D02*
X28992780Y10024912D01*
X28992780Y10024912D02*
X28849923Y9929674D01*
X28849923Y9929674D02*
X28754685Y9834436D01*
X28754685Y9834436D02*
X28707066Y9739198D01*
X28992780Y10643960D02*
X28992780Y11263007D01*
X28992780Y11263007D02*
X28611828Y10929674D01*
X28611828Y10929674D02*
X28611828Y11072531D01*
X28611828Y11072531D02*
X28564209Y11167769D01*
X28564209Y11167769D02*
X28516590Y11215388D01*
X28516590Y11215388D02*
X28421352Y11263007D01*
X28421352Y11263007D02*
X28183257Y11263007D01*
X28183257Y11263007D02*
X28088019Y11215388D01*
X28088019Y11215388D02*
X28040400Y11167769D01*
X28040400Y11167769D02*
X27992780Y11072531D01*
X27992780Y11072531D02*
X27992780Y10786817D01*
X27992780Y10786817D02*
X28040400Y10691579D01*
X28040400Y10691579D02*
X28088019Y10643960D01*
X29778495Y8882055D02*
X29778495Y9358245D01*
X29492780Y8786817D02*
X30492780Y9120150D01*
X30492780Y9120150D02*
X29492780Y9453483D01*
X29492780Y10310626D02*
X29492780Y9739198D01*
X29492780Y10024912D02*
X30492780Y10024912D01*
X30492780Y10024912D02*
X30349923Y9929674D01*
X30349923Y9929674D02*
X30254685Y9834436D01*
X30254685Y9834436D02*
X30207066Y9739198D01*
X30159447Y11167769D02*
X29492780Y11167769D01*
X30540400Y10929674D02*
X29826114Y10691579D01*
X29826114Y10691579D02*
X29826114Y11310626D01*
X31278495Y8882055D02*
X31278495Y9358245D01*
X30992780Y8786817D02*
X31992780Y9120150D01*
X31992780Y9120150D02*
X30992780Y9453483D01*
X30992780Y10310626D02*
X30992780Y9739198D01*
X30992780Y10024912D02*
X31992780Y10024912D01*
X31992780Y10024912D02*
X31849923Y9929674D01*
X31849923Y9929674D02*
X31754685Y9834436D01*
X31754685Y9834436D02*
X31707066Y9739198D01*
X31992780Y11215388D02*
X31992780Y10739198D01*
X31992780Y10739198D02*
X31516590Y10691579D01*
X31516590Y10691579D02*
X31564209Y10739198D01*
X31564209Y10739198D02*
X31611828Y10834436D01*
X31611828Y10834436D02*
X31611828Y11072531D01*
X31611828Y11072531D02*
X31564209Y11167769D01*
X31564209Y11167769D02*
X31516590Y11215388D01*
X31516590Y11215388D02*
X31421352Y11263007D01*
X31421352Y11263007D02*
X31183257Y11263007D01*
X31183257Y11263007D02*
X31088019Y11215388D01*
X31088019Y11215388D02*
X31040400Y11167769D01*
X31040400Y11167769D02*
X30992780Y11072531D01*
X30992780Y11072531D02*
X30992780Y10834436D01*
X30992780Y10834436D02*
X31040400Y10739198D01*
X31040400Y10739198D02*
X31088019Y10691579D01*
X32492780Y8929674D02*
X33492780Y8929674D01*
X33492780Y8929674D02*
X33492780Y9167769D01*
X33492780Y9167769D02*
X33445161Y9310626D01*
X33445161Y9310626D02*
X33349923Y9405864D01*
X33349923Y9405864D02*
X33254685Y9453483D01*
X33254685Y9453483D02*
X33064209Y9501102D01*
X33064209Y9501102D02*
X32921352Y9501102D01*
X32921352Y9501102D02*
X32730876Y9453483D01*
X32730876Y9453483D02*
X32635638Y9405864D01*
X32635638Y9405864D02*
X32540400Y9310626D01*
X32540400Y9310626D02*
X32492780Y9167769D01*
X32492780Y9167769D02*
X32492780Y8929674D01*
X33492780Y10120150D02*
X33492780Y10215388D01*
X33492780Y10215388D02*
X33445161Y10310626D01*
X33445161Y10310626D02*
X33397542Y10358245D01*
X33397542Y10358245D02*
X33302304Y10405864D01*
X33302304Y10405864D02*
X33111828Y10453483D01*
X33111828Y10453483D02*
X32873733Y10453483D01*
X32873733Y10453483D02*
X32683257Y10405864D01*
X32683257Y10405864D02*
X32588019Y10358245D01*
X32588019Y10358245D02*
X32540400Y10310626D01*
X32540400Y10310626D02*
X32492780Y10215388D01*
X32492780Y10215388D02*
X32492780Y10120150D01*
X32492780Y10120150D02*
X32540400Y10024912D01*
X32540400Y10024912D02*
X32588019Y9977293D01*
X32588019Y9977293D02*
X32683257Y9929674D01*
X32683257Y9929674D02*
X32873733Y9882055D01*
X32873733Y9882055D02*
X33111828Y9882055D01*
X33111828Y9882055D02*
X33302304Y9929674D01*
X33302304Y9929674D02*
X33397542Y9977293D01*
X33397542Y9977293D02*
X33445161Y10024912D01*
X33445161Y10024912D02*
X33492780Y10120150D01*
X33907780Y8919674D02*
X34907780Y8919674D01*
X34907780Y8919674D02*
X34907780Y9157769D01*
X34907780Y9157769D02*
X34860161Y9300626D01*
X34860161Y9300626D02*
X34764923Y9395864D01*
X34764923Y9395864D02*
X34669685Y9443483D01*
X34669685Y9443483D02*
X34479209Y9491102D01*
X34479209Y9491102D02*
X34336352Y9491102D01*
X34336352Y9491102D02*
X34145876Y9443483D01*
X34145876Y9443483D02*
X34050638Y9395864D01*
X34050638Y9395864D02*
X33955400Y9300626D01*
X33955400Y9300626D02*
X33907780Y9157769D01*
X33907780Y9157769D02*
X33907780Y8919674D01*
X33907780Y10443483D02*
X33907780Y9872055D01*
X33907780Y10157769D02*
X34907780Y10157769D01*
X34907780Y10157769D02*
X34764923Y10062531D01*
X34764923Y10062531D02*
X34669685Y9967293D01*
X34669685Y9967293D02*
X34622066Y9872055D01*
X35492780Y8929674D02*
X36492780Y8929674D01*
X36492780Y8929674D02*
X36492780Y9167769D01*
X36492780Y9167769D02*
X36445161Y9310626D01*
X36445161Y9310626D02*
X36349923Y9405864D01*
X36349923Y9405864D02*
X36254685Y9453483D01*
X36254685Y9453483D02*
X36064209Y9501102D01*
X36064209Y9501102D02*
X35921352Y9501102D01*
X35921352Y9501102D02*
X35730876Y9453483D01*
X35730876Y9453483D02*
X35635638Y9405864D01*
X35635638Y9405864D02*
X35540400Y9310626D01*
X35540400Y9310626D02*
X35492780Y9167769D01*
X35492780Y9167769D02*
X35492780Y8929674D01*
X36397542Y9882055D02*
X36445161Y9929674D01*
X36445161Y9929674D02*
X36492780Y10024912D01*
X36492780Y10024912D02*
X36492780Y10263007D01*
X36492780Y10263007D02*
X36445161Y10358245D01*
X36445161Y10358245D02*
X36397542Y10405864D01*
X36397542Y10405864D02*
X36302304Y10453483D01*
X36302304Y10453483D02*
X36207066Y10453483D01*
X36207066Y10453483D02*
X36064209Y10405864D01*
X36064209Y10405864D02*
X35492780Y9834436D01*
X35492780Y9834436D02*
X35492780Y10453483D01*
X36992780Y8929674D02*
X37992780Y8929674D01*
X37992780Y8929674D02*
X37992780Y9167769D01*
X37992780Y9167769D02*
X37945161Y9310626D01*
X37945161Y9310626D02*
X37849923Y9405864D01*
X37849923Y9405864D02*
X37754685Y9453483D01*
X37754685Y9453483D02*
X37564209Y9501102D01*
X37564209Y9501102D02*
X37421352Y9501102D01*
X37421352Y9501102D02*
X37230876Y9453483D01*
X37230876Y9453483D02*
X37135638Y9405864D01*
X37135638Y9405864D02*
X37040400Y9310626D01*
X37040400Y9310626D02*
X36992780Y9167769D01*
X36992780Y9167769D02*
X36992780Y8929674D01*
X37992780Y9834436D02*
X37992780Y10453483D01*
X37992780Y10453483D02*
X37611828Y10120150D01*
X37611828Y10120150D02*
X37611828Y10263007D01*
X37611828Y10263007D02*
X37564209Y10358245D01*
X37564209Y10358245D02*
X37516590Y10405864D01*
X37516590Y10405864D02*
X37421352Y10453483D01*
X37421352Y10453483D02*
X37183257Y10453483D01*
X37183257Y10453483D02*
X37088019Y10405864D01*
X37088019Y10405864D02*
X37040400Y10358245D01*
X37040400Y10358245D02*
X36992780Y10263007D01*
X36992780Y10263007D02*
X36992780Y9977293D01*
X36992780Y9977293D02*
X37040400Y9882055D01*
X37040400Y9882055D02*
X37088019Y9834436D01*
X38492780Y8929674D02*
X39492780Y8929674D01*
X39492780Y8929674D02*
X39492780Y9167769D01*
X39492780Y9167769D02*
X39445161Y9310626D01*
X39445161Y9310626D02*
X39349923Y9405864D01*
X39349923Y9405864D02*
X39254685Y9453483D01*
X39254685Y9453483D02*
X39064209Y9501102D01*
X39064209Y9501102D02*
X38921352Y9501102D01*
X38921352Y9501102D02*
X38730876Y9453483D01*
X38730876Y9453483D02*
X38635638Y9405864D01*
X38635638Y9405864D02*
X38540400Y9310626D01*
X38540400Y9310626D02*
X38492780Y9167769D01*
X38492780Y9167769D02*
X38492780Y8929674D01*
X39159447Y10358245D02*
X38492780Y10358245D01*
X39540400Y10120150D02*
X38826114Y9882055D01*
X38826114Y9882055D02*
X38826114Y10501102D01*
X39992780Y8929674D02*
X40992780Y8929674D01*
X40992780Y8929674D02*
X40992780Y9167769D01*
X40992780Y9167769D02*
X40945161Y9310626D01*
X40945161Y9310626D02*
X40849923Y9405864D01*
X40849923Y9405864D02*
X40754685Y9453483D01*
X40754685Y9453483D02*
X40564209Y9501102D01*
X40564209Y9501102D02*
X40421352Y9501102D01*
X40421352Y9501102D02*
X40230876Y9453483D01*
X40230876Y9453483D02*
X40135638Y9405864D01*
X40135638Y9405864D02*
X40040400Y9310626D01*
X40040400Y9310626D02*
X39992780Y9167769D01*
X39992780Y9167769D02*
X39992780Y8929674D01*
X40992780Y10405864D02*
X40992780Y9929674D01*
X40992780Y9929674D02*
X40516590Y9882055D01*
X40516590Y9882055D02*
X40564209Y9929674D01*
X40564209Y9929674D02*
X40611828Y10024912D01*
X40611828Y10024912D02*
X40611828Y10263007D01*
X40611828Y10263007D02*
X40564209Y10358245D01*
X40564209Y10358245D02*
X40516590Y10405864D01*
X40516590Y10405864D02*
X40421352Y10453483D01*
X40421352Y10453483D02*
X40183257Y10453483D01*
X40183257Y10453483D02*
X40088019Y10405864D01*
X40088019Y10405864D02*
X40040400Y10358245D01*
X40040400Y10358245D02*
X39992780Y10263007D01*
X39992780Y10263007D02*
X39992780Y10024912D01*
X39992780Y10024912D02*
X40040400Y9929674D01*
X40040400Y9929674D02*
X40088019Y9882055D01*
X41492780Y8929674D02*
X42492780Y8929674D01*
X42492780Y8929674D02*
X42492780Y9167769D01*
X42492780Y9167769D02*
X42445161Y9310626D01*
X42445161Y9310626D02*
X42349923Y9405864D01*
X42349923Y9405864D02*
X42254685Y9453483D01*
X42254685Y9453483D02*
X42064209Y9501102D01*
X42064209Y9501102D02*
X41921352Y9501102D01*
X41921352Y9501102D02*
X41730876Y9453483D01*
X41730876Y9453483D02*
X41635638Y9405864D01*
X41635638Y9405864D02*
X41540400Y9310626D01*
X41540400Y9310626D02*
X41492780Y9167769D01*
X41492780Y9167769D02*
X41492780Y8929674D01*
X42492780Y10358245D02*
X42492780Y10167769D01*
X42492780Y10167769D02*
X42445161Y10072531D01*
X42445161Y10072531D02*
X42397542Y10024912D01*
X42397542Y10024912D02*
X42254685Y9929674D01*
X42254685Y9929674D02*
X42064209Y9882055D01*
X42064209Y9882055D02*
X41683257Y9882055D01*
X41683257Y9882055D02*
X41588019Y9929674D01*
X41588019Y9929674D02*
X41540400Y9977293D01*
X41540400Y9977293D02*
X41492780Y10072531D01*
X41492780Y10072531D02*
X41492780Y10263007D01*
X41492780Y10263007D02*
X41540400Y10358245D01*
X41540400Y10358245D02*
X41588019Y10405864D01*
X41588019Y10405864D02*
X41683257Y10453483D01*
X41683257Y10453483D02*
X41921352Y10453483D01*
X41921352Y10453483D02*
X42016590Y10405864D01*
X42016590Y10405864D02*
X42064209Y10358245D01*
X42064209Y10358245D02*
X42111828Y10263007D01*
X42111828Y10263007D02*
X42111828Y10072531D01*
X42111828Y10072531D02*
X42064209Y9977293D01*
X42064209Y9977293D02*
X42016590Y9929674D01*
X42016590Y9929674D02*
X41921352Y9882055D01*
X42992780Y8929674D02*
X43992780Y8929674D01*
X43992780Y8929674D02*
X43992780Y9167769D01*
X43992780Y9167769D02*
X43945161Y9310626D01*
X43945161Y9310626D02*
X43849923Y9405864D01*
X43849923Y9405864D02*
X43754685Y9453483D01*
X43754685Y9453483D02*
X43564209Y9501102D01*
X43564209Y9501102D02*
X43421352Y9501102D01*
X43421352Y9501102D02*
X43230876Y9453483D01*
X43230876Y9453483D02*
X43135638Y9405864D01*
X43135638Y9405864D02*
X43040400Y9310626D01*
X43040400Y9310626D02*
X42992780Y9167769D01*
X42992780Y9167769D02*
X42992780Y8929674D01*
X43992780Y9834436D02*
X43992780Y10501102D01*
X43992780Y10501102D02*
X42992780Y10072531D01*
X44492780Y9501102D02*
X44968971Y9167769D01*
X44492780Y8929674D02*
X45492780Y8929674D01*
X45492780Y8929674D02*
X45492780Y9310626D01*
X45492780Y9310626D02*
X45445161Y9405864D01*
X45445161Y9405864D02*
X45397542Y9453483D01*
X45397542Y9453483D02*
X45302304Y9501102D01*
X45302304Y9501102D02*
X45159447Y9501102D01*
X45159447Y9501102D02*
X45064209Y9453483D01*
X45064209Y9453483D02*
X45016590Y9405864D01*
X45016590Y9405864D02*
X44968971Y9310626D01*
X44968971Y9310626D02*
X44968971Y8929674D01*
X44540400Y9882055D02*
X44492780Y10024912D01*
X44492780Y10024912D02*
X44492780Y10263007D01*
X44492780Y10263007D02*
X44540400Y10358245D01*
X44540400Y10358245D02*
X44588019Y10405864D01*
X44588019Y10405864D02*
X44683257Y10453483D01*
X44683257Y10453483D02*
X44778495Y10453483D01*
X44778495Y10453483D02*
X44873733Y10405864D01*
X44873733Y10405864D02*
X44921352Y10358245D01*
X44921352Y10358245D02*
X44968971Y10263007D01*
X44968971Y10263007D02*
X45016590Y10072531D01*
X45016590Y10072531D02*
X45064209Y9977293D01*
X45064209Y9977293D02*
X45111828Y9929674D01*
X45111828Y9929674D02*
X45207066Y9882055D01*
X45207066Y9882055D02*
X45302304Y9882055D01*
X45302304Y9882055D02*
X45397542Y9929674D01*
X45397542Y9929674D02*
X45445161Y9977293D01*
X45445161Y9977293D02*
X45492780Y10072531D01*
X45492780Y10072531D02*
X45492780Y10310626D01*
X45492780Y10310626D02*
X45445161Y10453483D01*
X45492780Y10739198D02*
X45492780Y11310626D01*
X44492780Y11024912D02*
X45492780Y11024912D01*
X46278495Y8882055D02*
X46278495Y9358245D01*
X45992780Y8786817D02*
X46992780Y9120150D01*
X46992780Y9120150D02*
X45992780Y9453483D01*
X46992780Y9786817D02*
X46183257Y9786817D01*
X46183257Y9786817D02*
X46088019Y9834436D01*
X46088019Y9834436D02*
X46040400Y9882055D01*
X46040400Y9882055D02*
X45992780Y9977293D01*
X45992780Y9977293D02*
X45992780Y10167769D01*
X45992780Y10167769D02*
X46040400Y10263007D01*
X46040400Y10263007D02*
X46088019Y10310626D01*
X46088019Y10310626D02*
X46183257Y10358245D01*
X46183257Y10358245D02*
X46992780Y10358245D01*
X45992780Y10834436D02*
X46992780Y10834436D01*
X46992780Y10834436D02*
X46992780Y11072531D01*
X46992780Y11072531D02*
X46945161Y11215388D01*
X46945161Y11215388D02*
X46849923Y11310626D01*
X46849923Y11310626D02*
X46754685Y11358245D01*
X46754685Y11358245D02*
X46564209Y11405864D01*
X46564209Y11405864D02*
X46421352Y11405864D01*
X46421352Y11405864D02*
X46230876Y11358245D01*
X46230876Y11358245D02*
X46135638Y11310626D01*
X46135638Y11310626D02*
X46040400Y11215388D01*
X46040400Y11215388D02*
X45992780Y11072531D01*
X45992780Y11072531D02*
X45992780Y10834436D01*
X48380161Y9483483D02*
X48427780Y9388245D01*
X48427780Y9388245D02*
X48427780Y9245388D01*
X48427780Y9245388D02*
X48380161Y9102531D01*
X48380161Y9102531D02*
X48284923Y9007293D01*
X48284923Y9007293D02*
X48189685Y8959674D01*
X48189685Y8959674D02*
X47999209Y8912055D01*
X47999209Y8912055D02*
X47856352Y8912055D01*
X47856352Y8912055D02*
X47665876Y8959674D01*
X47665876Y8959674D02*
X47570638Y9007293D01*
X47570638Y9007293D02*
X47475400Y9102531D01*
X47475400Y9102531D02*
X47427780Y9245388D01*
X47427780Y9245388D02*
X47427780Y9340626D01*
X47427780Y9340626D02*
X47475400Y9483483D01*
X47475400Y9483483D02*
X47523019Y9531102D01*
X47523019Y9531102D02*
X47856352Y9531102D01*
X47856352Y9531102D02*
X47856352Y9340626D01*
X47427780Y9959674D02*
X48427780Y9959674D01*
X48427780Y9959674D02*
X47427780Y10531102D01*
X47427780Y10531102D02*
X48427780Y10531102D01*
X47427780Y11007293D02*
X48427780Y11007293D01*
X48427780Y11007293D02*
X48427780Y11245388D01*
X48427780Y11245388D02*
X48380161Y11388245D01*
X48380161Y11388245D02*
X48284923Y11483483D01*
X48284923Y11483483D02*
X48189685Y11531102D01*
X48189685Y11531102D02*
X47999209Y11578721D01*
X47999209Y11578721D02*
X47856352Y11578721D01*
X47856352Y11578721D02*
X47665876Y11531102D01*
X47665876Y11531102D02*
X47570638Y11483483D01*
X47570638Y11483483D02*
X47475400Y11388245D01*
X47475400Y11388245D02*
X47427780Y11245388D01*
X47427780Y11245388D02*
X47427780Y11007293D01*
%TO.C,TP71*%
D11*
X36895000Y7512000D02*
G75*
G02*
X34995000Y7512000I-950000J0D01*
G01*
X34995000Y7512000D02*
G75*
G02*
X36895000Y7512000I950000J0D01*
G01*
%TO.C,TP65*%
X27895000Y7512000D02*
G75*
G02*
X25995000Y7512000I-950000J0D01*
G01*
X25995000Y7512000D02*
G75*
G02*
X27895000Y7512000I950000J0D01*
G01*
%TO.C,TP63*%
X24895000Y7512000D02*
G75*
G02*
X22995000Y7512000I-950000J0D01*
G01*
X22995000Y7512000D02*
G75*
G02*
X24895000Y7512000I950000J0D01*
G01*
%TO.C,TP62*%
X23395000Y4512000D02*
G75*
G02*
X21495000Y4512000I-950000J0D01*
G01*
X21495000Y4512000D02*
G75*
G02*
X23395000Y4512000I950000J0D01*
G01*
%TO.C,TP61*%
X21895000Y7512000D02*
G75*
G02*
X19995000Y7512000I-950000J0D01*
G01*
X19995000Y7512000D02*
G75*
G02*
X21895000Y7512000I950000J0D01*
G01*
%TO.C,TP70*%
X35395000Y4512000D02*
G75*
G02*
X33495000Y4512000I-950000J0D01*
G01*
X33495000Y4512000D02*
G75*
G02*
X35395000Y4512000I950000J0D01*
G01*
%TO.C,TP60*%
X20395000Y4512000D02*
G75*
G02*
X18495000Y4512000I-950000J0D01*
G01*
X18495000Y4512000D02*
G75*
G02*
X20395000Y4512000I950000J0D01*
G01*
%TO.C,TP59*%
X18895000Y7512000D02*
G75*
G02*
X16995000Y7512000I-950000J0D01*
G01*
X16995000Y7512000D02*
G75*
G02*
X18895000Y7512000I950000J0D01*
G01*
%TO.C,TP58*%
X17395000Y4512000D02*
G75*
G02*
X15495000Y4512000I-950000J0D01*
G01*
X15495000Y4512000D02*
G75*
G02*
X17395000Y4512000I950000J0D01*
G01*
%TO.C,TP64*%
X26395000Y4512000D02*
G75*
G02*
X24495000Y4512000I-950000J0D01*
G01*
X24495000Y4512000D02*
G75*
G02*
X26395000Y4512000I950000J0D01*
G01*
%TO.C,TP57*%
X15895000Y7512000D02*
G75*
G02*
X13995000Y7512000I-950000J0D01*
G01*
X13995000Y7512000D02*
G75*
G02*
X15895000Y7512000I950000J0D01*
G01*
%TO.C,TP56*%
X14395000Y4512000D02*
G75*
G02*
X12495000Y4512000I-950000J0D01*
G01*
X12495000Y4512000D02*
G75*
G02*
X14395000Y4512000I950000J0D01*
G01*
%TO.C,TP55*%
X12895000Y7512000D02*
G75*
G02*
X10995000Y7512000I-950000J0D01*
G01*
X10995000Y7512000D02*
G75*
G02*
X12895000Y7512000I950000J0D01*
G01*
%TO.C,TP54*%
X11395000Y4512000D02*
G75*
G02*
X9495000Y4512000I-950000J0D01*
G01*
X9495000Y4512000D02*
G75*
G02*
X11395000Y4512000I950000J0D01*
G01*
%TO.C,TP66*%
X29395000Y4512000D02*
G75*
G02*
X27495000Y4512000I-950000J0D01*
G01*
X27495000Y4512000D02*
G75*
G02*
X29395000Y4512000I950000J0D01*
G01*
%TO.C,TP67*%
X30895000Y7512000D02*
G75*
G02*
X28995000Y7512000I-950000J0D01*
G01*
X28995000Y7512000D02*
G75*
G02*
X30895000Y7512000I950000J0D01*
G01*
%TO.C,TP72*%
X38395000Y4512000D02*
G75*
G02*
X36495000Y4512000I-950000J0D01*
G01*
X36495000Y4512000D02*
G75*
G02*
X38395000Y4512000I950000J0D01*
G01*
%TO.C,TP73*%
X39895000Y7512000D02*
G75*
G02*
X37995000Y7512000I-950000J0D01*
G01*
X37995000Y7512000D02*
G75*
G02*
X39895000Y7512000I950000J0D01*
G01*
%TO.C,TP74*%
X41395000Y4512000D02*
G75*
G02*
X39495000Y4512000I-950000J0D01*
G01*
X39495000Y4512000D02*
G75*
G02*
X41395000Y4512000I950000J0D01*
G01*
%TO.C,TP75*%
X42895000Y7512000D02*
G75*
G02*
X40995000Y7512000I-950000J0D01*
G01*
X40995000Y7512000D02*
G75*
G02*
X42895000Y7512000I950000J0D01*
G01*
%TO.C,TP76*%
X44395000Y4623000D02*
G75*
G02*
X42495000Y4623000I-950000J0D01*
G01*
X42495000Y4623000D02*
G75*
G02*
X44395000Y4623000I950000J0D01*
G01*
%TO.C,TP77*%
X45895000Y7500000D02*
G75*
G02*
X43995000Y7500000I-950000J0D01*
G01*
X43995000Y7500000D02*
G75*
G02*
X45895000Y7500000I950000J0D01*
G01*
%TO.C,TP79*%
X48895000Y7512000D02*
G75*
G02*
X46995000Y7512000I-950000J0D01*
G01*
X46995000Y7512000D02*
G75*
G02*
X48895000Y7512000I950000J0D01*
G01*
%TO.C,TP68*%
X32395000Y4512000D02*
G75*
G02*
X30495000Y4512000I-950000J0D01*
G01*
X30495000Y4512000D02*
G75*
G02*
X32395000Y4512000I950000J0D01*
G01*
%TO.C,TP53*%
X9895000Y7512000D02*
G75*
G02*
X7995000Y7512000I-950000J0D01*
G01*
X7995000Y7512000D02*
G75*
G02*
X9895000Y7512000I950000J0D01*
G01*
%TO.C,TP52*%
X8395000Y4512000D02*
G75*
G02*
X6495000Y4512000I-950000J0D01*
G01*
X6495000Y4512000D02*
G75*
G02*
X8395000Y4512000I950000J0D01*
G01*
%TO.C,TP51*%
X6895000Y7512000D02*
G75*
G02*
X4995000Y7512000I-950000J0D01*
G01*
X4995000Y7512000D02*
G75*
G02*
X6895000Y7512000I950000J0D01*
G01*
%TO.C,TP50*%
X5395000Y4512000D02*
G75*
G02*
X3495000Y4512000I-950000J0D01*
G01*
X3495000Y4512000D02*
G75*
G02*
X5395000Y4512000I950000J0D01*
G01*
%TO.C,TP49*%
X3895000Y7512000D02*
G75*
G02*
X1995000Y7512000I-950000J0D01*
G01*
X1995000Y7512000D02*
G75*
G02*
X3895000Y7512000I950000J0D01*
G01*
%TO.C,TP69*%
X33895000Y7512000D02*
G75*
G02*
X31995000Y7512000I-950000J0D01*
G01*
X31995000Y7512000D02*
G75*
G02*
X33895000Y7512000I950000J0D01*
G01*
%TO.C,TP48*%
X2395000Y4512000D02*
G75*
G02*
X495000Y4512000I-950000J0D01*
G01*
X495000Y4512000D02*
G75*
G02*
X2395000Y4512000I950000J0D01*
G01*
%TO.C,TP78*%
X47395000Y4512000D02*
G75*
G02*
X45495000Y4512000I-950000J0D01*
G01*
X45495000Y4512000D02*
G75*
G02*
X47395000Y4512000I950000J0D01*
G01*
%TD*%
%LPC*%
D12*
%TO.C,J4*%
X29878600Y55933200D03*
X24098600Y55933200D03*
D13*
X31308600Y55433200D03*
D14*
X31308600Y59613200D03*
D13*
X22668600Y55433200D03*
D14*
X22668600Y59613200D03*
%TD*%
D15*
%TO.C,J6*%
X16366000Y59309000D03*
X16366000Y52309000D03*
%TD*%
%TO.C,J5*%
X5698000Y59309000D03*
X5698000Y52309000D03*
%TD*%
%TO.C,TP71*%
X35945000Y7512000D03*
%TD*%
%TO.C,TP65*%
X26945000Y7512000D03*
%TD*%
%TO.C,TP63*%
X23945000Y7512000D03*
%TD*%
%TO.C,TP62*%
X22445000Y4512000D03*
%TD*%
%TO.C,TP61*%
X20945000Y7512000D03*
%TD*%
%TO.C,TP70*%
X34445000Y4512000D03*
%TD*%
%TO.C,TP60*%
X19445000Y4512000D03*
%TD*%
%TO.C,TP59*%
X17945000Y7512000D03*
%TD*%
%TO.C,TP58*%
X16445000Y4512000D03*
%TD*%
%TO.C,TP64*%
X25445000Y4512000D03*
%TD*%
%TO.C,TP57*%
X14945000Y7512000D03*
%TD*%
%TO.C,TP56*%
X13445000Y4512000D03*
%TD*%
%TO.C,TP55*%
X11945000Y7512000D03*
%TD*%
%TO.C,TP54*%
X10445000Y4512000D03*
%TD*%
%TO.C,TP66*%
X28445000Y4512000D03*
%TD*%
%TO.C,TP67*%
X29945000Y7512000D03*
%TD*%
%TO.C,TP72*%
X37445000Y4512000D03*
%TD*%
%TO.C,TP73*%
X38945000Y7512000D03*
%TD*%
%TO.C,TP74*%
X40445000Y4512000D03*
%TD*%
%TO.C,TP75*%
X41945000Y7512000D03*
%TD*%
%TO.C,TP76*%
X43445000Y4623000D03*
%TD*%
%TO.C,TP77*%
X44945000Y7500000D03*
%TD*%
%TO.C,TP79*%
X47945000Y7512000D03*
%TD*%
%TO.C,TP68*%
X31445000Y4512000D03*
%TD*%
%TO.C,TP53*%
X8945000Y7512000D03*
%TD*%
%TO.C,TP52*%
X7445000Y4512000D03*
%TD*%
%TO.C,TP51*%
X5945000Y7512000D03*
%TD*%
%TO.C,TP50*%
X4445000Y4512000D03*
%TD*%
%TO.C,TP49*%
X2945000Y7512000D03*
%TD*%
%TO.C,TP69*%
X32945000Y7512000D03*
%TD*%
%TO.C,TP48*%
X1445000Y4512000D03*
%TD*%
%TO.C,TP78*%
X46445000Y4512000D03*
%TD*%
%LPD*%
M02*
