M48
; DRILL file KiCad 10.0.5 date 2026-07-27T14:39:00
; FORMAT={-:-/ absolute / inch / decimal}
; #@! TF.CreationDate,2026-07-27T14:39:00-07:00
; #@! TF.GenerationSoftware,Kicad,Pcbnew,10.0.5
; #@! TF.FileFunction,Plated,1,2,PTH
FMAT,2
INCH
; #@! TA.AperFunction,Plated,PTH,ViaDrill
T1C0.0118
; #@! TA.AperFunction,Plated,PTH,ComponentDrill
T2C0.0118
; #@! TA.AperFunction,Plated,PTH,ViaDrill
T3C0.0150
; #@! TA.AperFunction,Plated,PTH,ComponentDrill
T4C0.0236
; #@! TA.AperFunction,Plated,PTH,ComponentDrill
T5C0.0866
; #@! TA.AperFunction,Plated,PTH,ComponentDrill
T6C0.2874
%
G90
G05
T1
X0.0335Y1.0071
X0.0555Y0.4768
X0.1646Y0.5423
X0.1961Y0.5423
X0.2173Y1.0791
X0.2173Y1.0492
X0.2276Y0.5423
X0.2413Y1.2429
X0.2421Y1.063
X0.2591Y0.5437
X0.2831Y1.1972
X0.2925Y1.4047
X0.3256Y1.2563
X0.3571Y0.5429
X0.3886Y0.5429
X0.4201Y0.5425
X0.4516Y0.5421
X0.476Y1.3917
X0.4783Y1.1291
X0.5028Y1.3213
X0.5126Y0.8724
X0.5142Y1.3508
X0.5177Y1.0677
X0.5213Y1.4685
X0.5583Y1.1445
X0.5642Y1.5886
X0.5665Y1.3489
X0.5813Y1.3044
X0.5933Y0.5423
X0.6248Y0.5423
X0.6563Y0.5423
X0.6587Y1.5811
X0.6626Y1.7591
X0.6626Y1.7
X0.6634Y1.6472
X0.6638Y0.8457
X0.6724Y0.935
X0.6878Y0.5423
X0.7055Y1.8126
X0.7331Y1.6543
X0.7335Y1.6886
X0.735Y1.6157
X0.7409Y1.7362
X0.7437Y1.4559
X0.7583Y1.8626
X0.7606Y1.7551
X0.7654Y1.6472
X0.7673Y0.848
X0.768Y1.3489
X0.7736Y1.2469
X0.7886Y1.7992
X0.7894Y1.2657
X0.7925Y0.498
X0.7945Y0.4646
X0.7983Y0.4369
X0.7996Y1.9067
X0.8131Y1.3043
X0.8142Y1.8283
X0.815Y0.5423
X0.8201Y1.4827
X0.8272Y1.3232
X0.8339Y1.4642
X0.8465Y1.6319
X0.8508Y1.8618
X0.8638Y2.0004
X0.8646Y2.1319
X0.8862Y1.3587
X0.8949Y1.5449
X0.9043Y1.176
X0.9083Y1.9098
X0.9134Y1.524
X0.924Y2.0551
X0.928Y1.8358
X0.9343Y1.9366
X0.9425Y1.8193
X0.9535Y1.3445
X0.9598Y1.8043
X0.9665Y2.124
X0.9693Y1.7492
X0.9795Y1.5374
X0.9909Y2.2189
X0.9929Y1.9917
X0.9949Y1.5531
X0.9972Y1.5224
X1.0043Y1.4327
X1.0059Y1.3972
X1.0127Y1.7238
X1.0169Y1.5358
X1.0213Y2.026
X1.0224Y1.3839
X1.0256Y1.0583
X1.028Y1.3028
X1.0354Y1.1709
X1.0374Y1.6894
X1.0484Y1.0799
X1.0531Y2.2047
X1.0543Y2.0504
X1.0613Y0.9386
X1.0634Y1.7748
X1.0783Y1.5441
X1.085Y1.0153
X1.0945Y2.2047
X1.0962Y1.0422
X1.1138Y1.8232
X1.124Y1.1626
X1.1341Y0.9215
X1.137Y2.0283
X1.1406Y2.222
X1.1409Y0.5657
X1.1414Y1.8495
X1.1567Y2.0295
X1.1567Y1.5276
X1.1569Y1.3856
X1.1575Y2.122
X1.1616Y1.8338
X1.1724Y0.565
X1.1845Y1.1251
X1.1858Y1.0724
X1.187Y2.0937
X1.1948Y1.4654
X1.2039Y1.7965
X1.2039Y0.5646
X1.2079Y1.7665
X1.2161Y1.3799
X1.217Y1.4212
X1.2301Y0.5593
X1.2346Y1.7689
X1.2378Y1.9295
X1.2461Y1.7276
X1.2583Y1.2535
X1.2657Y1.5004
X1.276Y0.6331
X1.2772Y0.5571
X1.2815Y1.772
X1.2937Y1.5031
X1.2941Y2.0594
X1.2959Y0.6999
X1.3078Y1.2741
X1.3156Y0.6835
X1.3205Y1.2335
X1.3307Y1.6827
X1.3346Y1.0398
X1.3401Y0.688
X1.3428Y1.2218
X1.3618Y0.7957
X1.3618Y0.6165
X1.3646Y2.3319
X1.3654Y1.9169
X1.3673Y0.9697
X1.3835Y1.6602
X1.3906Y0.824
X1.3972Y1.4126
X1.4079Y1.7756
X1.415Y0.9268
X1.4382Y0.8689
X1.4512Y0.537
X1.4642Y1.4764
X1.4748Y0.5291
X1.4925Y1.7339
X1.5063Y0.5242
X1.5157Y1.5315
X1.5657Y2.1516
X1.5665Y0.5055
X1.572Y0.9386
X1.5756Y1.6315
X1.5795Y1.8543
X1.5898Y1.0689
X1.6185Y2.1661
X1.6232Y1.6622
X1.6354Y1.4846
X1.6394Y0.9
X1.6429Y1.1449
X1.6511Y1.7756
X1.6514Y0.6798
X1.6665Y2.1976
X1.6673Y1.037
X1.6683Y1.8104
X1.6724Y1.7386
X1.6886Y1.5031
X1.714Y0.5703
X1.7252Y1.9035
X1.7382Y1.9449
X1.7402Y2.2035
X1.741Y0.5718
X1.7496Y1.7921
X1.7575Y1.1319
X1.7575Y0.9827
X1.7587Y1.7402
X1.7642Y1.4232
X1.7689Y0.5705
X1.7882Y0.7713
X1.7999Y0.3469
X1.8004Y0.5713
X1.8106Y2.1713
X1.8146Y1.7
X1.8264Y0.687
X1.8374Y0.9366
X1.8388Y0.4504
X1.8496Y1.7118
X1.8594Y1.5421
X1.8642Y0.502
X1.8898Y1.7949
X1.8985Y0.5204
X1.9063Y0.5496
X1.926Y0.5618
X1.9268Y0.5335
T2
X0.8906Y1.2349
X0.9309Y1.2753
X0.9309Y1.1945
X0.9713Y1.3156
X0.9713Y1.2349
X0.9713Y1.1542
X1.0117Y1.2753
X1.0117Y1.1945
X1.052Y1.2349
T3
X1.8965Y0.4839
T5
X0.9705Y1.6811
T6
X0.9705Y0.6949
T4
G00X0.8925Y2.3312
M15
G01X0.8925Y2.3627
M16
G05
G00X0.8925Y2.1608
M15
G01X0.8925Y2.2041
M16
G05
G00X1.2326Y2.3312
M15
G01X1.2326Y2.3627
M16
G05
G00X1.2326Y2.1608
M15
G01X1.2326Y2.2041
M16
G05
M30
