%TF.GenerationSoftware,KiCad,Pcbnew,10.0.3*%
%TF.CreationDate,2026-06-10T16:10:21-07:00*%
%TF.ProjectId,pygameboy,70796761-6d65-4626-9f79-2e6b69636164,rev?*%
%TF.SameCoordinates,Original*%
%TF.FileFunction,Paste,Top*%
%TF.FilePolarity,Positive*%
%FSLAX46Y46*%
G04 Gerber Fmt 4.6, Leading zero omitted, Abs format (unit mm)*
G04 Created by KiCad (PCBNEW 10.0.3) date 2026-06-10 16:10:21*
%MOMM*%
%LPD*%
G01*
G04 APERTURE LIST*
G04 Aperture macros list*
%AMRoundRect*
0 Rectangle with rounded corners*
0 $1 Rounding radius*
0 $2 $3 $4 $5 $6 $7 $8 $9 X,Y pos of 4 corners*
0 Add a 4 corners polygon primitive as box body*
4,1,4,$2,$3,$4,$5,$6,$7,$8,$9,$2,$3,0*
0 Add four circle primitives for the rounded corners*
1,1,$1+$1,$2,$3*
1,1,$1+$1,$4,$5*
1,1,$1+$1,$6,$7*
1,1,$1+$1,$8,$9*
0 Add four rect primitives between the rounded corners*
20,1,$1+$1,$2,$3,$4,$5,0*
20,1,$1+$1,$4,$5,$6,$7,0*
20,1,$1+$1,$6,$7,$8,$9,0*
20,1,$1+$1,$8,$9,$2,$3,0*%
G04 Aperture macros list end*
%ADD10C,2.300000*%
%ADD11C,7.400000*%
%ADD12RoundRect,0.250000X0.750000X-0.275000X0.750000X0.275000X-0.750000X0.275000X-0.750000X-0.275000X0*%
%ADD13RoundRect,0.200000X0.335876X0.053033X0.053033X0.335876X-0.335876X-0.053033X-0.053033X-0.335876X0*%
%ADD14RoundRect,0.200000X0.275000X-0.200000X0.275000X0.200000X-0.275000X0.200000X-0.275000X-0.200000X0*%
%ADD15RoundRect,0.135000X0.185000X-0.135000X0.185000X0.135000X-0.185000X0.135000X-0.185000X-0.135000X0*%
%ADD16RoundRect,0.225000X-0.375000X0.225000X-0.375000X-0.225000X0.375000X-0.225000X0.375000X0.225000X0*%
%ADD17RoundRect,0.140000X-0.140000X-0.170000X0.140000X-0.170000X0.140000X0.170000X-0.140000X0.170000X0*%
%ADD18RoundRect,0.140000X-0.170000X0.140000X-0.170000X-0.140000X0.170000X-0.140000X0.170000X0.140000X0*%
%ADD19RoundRect,0.249999X-0.640001X0.750001X-0.640001X-0.750001X0.640001X-0.750001X0.640001X0.750001X0*%
%ADD20RoundRect,0.218750X0.256250X-0.218750X0.256250X0.218750X-0.256250X0.218750X-0.256250X-0.218750X0*%
%ADD21RoundRect,0.150000X0.150000X0.420000X-0.150000X0.420000X-0.150000X-0.420000X0.150000X-0.420000X0*%
%ADD22RoundRect,0.075000X0.075000X0.495000X-0.075000X0.495000X-0.075000X-0.495000X0.075000X-0.495000X0*%
%ADD23R,2.500000X1.200000*%
%ADD24RoundRect,0.140000X0.170000X-0.140000X0.170000X0.140000X-0.170000X0.140000X-0.170000X-0.140000X0*%
%ADD25RoundRect,0.140000X0.140000X0.170000X-0.140000X0.170000X-0.140000X-0.170000X0.140000X-0.170000X0*%
%ADD26RoundRect,0.135000X-0.185000X0.135000X-0.185000X-0.135000X0.185000X-0.135000X0.185000X0.135000X0*%
%ADD27RoundRect,0.135000X-0.135000X-0.185000X0.135000X-0.185000X0.135000X0.185000X-0.135000X0.185000X0*%
%ADD28RoundRect,0.150000X-0.512500X-0.150000X0.512500X-0.150000X0.512500X0.150000X-0.512500X0.150000X0*%
%ADD29RoundRect,0.100000X0.100000X-0.637500X0.100000X0.637500X-0.100000X0.637500X-0.100000X-0.637500X0*%
%ADD30RoundRect,0.225000X-0.225000X-0.375000X0.225000X-0.375000X0.225000X0.375000X-0.225000X0.375000X0*%
%ADD31RoundRect,0.150000X0.150000X0.625000X-0.150000X0.625000X-0.150000X-0.625000X0.150000X-0.625000X0*%
%ADD32RoundRect,0.250000X0.350000X0.650000X-0.350000X0.650000X-0.350000X-0.650000X0.350000X-0.650000X0*%
%ADD33R,0.470000X0.530000*%
%ADD34RoundRect,0.132500X-0.132500X-0.132500X0.132500X-0.132500X0.132500X0.132500X-0.132500X0.132500X0*%
%ADD35RoundRect,0.050000X-0.350000X-0.050000X0.350000X-0.050000X0.350000X0.050000X-0.350000X0.050000X0*%
%ADD36RoundRect,0.050000X-0.050000X-0.350000X0.050000X-0.350000X0.050000X0.350000X-0.050000X0.350000X0*%
%ADD37RoundRect,0.140000X0.219203X0.021213X0.021213X0.219203X-0.219203X-0.021213X-0.021213X-0.219203X0*%
%ADD38RoundRect,0.135000X0.135000X0.185000X-0.135000X0.185000X-0.135000X-0.185000X0.135000X-0.185000X0*%
%ADD39RoundRect,0.140000X-0.219203X-0.021213X-0.021213X-0.219203X0.219203X0.021213X0.021213X0.219203X0*%
%ADD40RoundRect,0.162500X-0.650000X-0.162500X0.650000X-0.162500X0.650000X0.162500X-0.650000X0.162500X0*%
%ADD41RoundRect,0.250000X-0.250000X-0.475000X0.250000X-0.475000X0.250000X0.475000X-0.250000X0.475000X0*%
%ADD42RoundRect,0.250000X-0.450000X-0.350000X0.450000X-0.350000X0.450000X0.350000X-0.450000X0.350000X0*%
%ADD43R,0.700000X1.700000*%
%ADD44RoundRect,0.150000X0.587500X0.150000X-0.587500X0.150000X-0.587500X-0.150000X0.587500X-0.150000X0*%
G04 APERTURE END LIST*
D10*
%TO.C,J1*%
X24650000Y42700000D03*
%TD*%
D11*
%TO.C,J2*%
X24650000Y17650000D03*
%TD*%
D12*
%TO.C,SW1*%
X43550000Y52125000D03*
X43550000Y56575000D03*
%TD*%
D13*
%TO.C,R7*%
X28383363Y42866637D03*
X27216637Y44033363D03*
%TD*%
D14*
%TO.C,R6*%
X12175000Y45708000D03*
X12175000Y47358000D03*
%TD*%
D15*
%TO.C,R5*%
X10079500Y46150000D03*
X10079500Y47170000D03*
%TD*%
D16*
%TO.C,D4*%
X10173800Y43906400D03*
X10173800Y40606400D03*
%TD*%
D17*
%TO.C,C16*%
X44129999Y48150000D03*
X45089999Y48150000D03*
%TD*%
D18*
%TO.C,C17*%
X9350000Y34330000D03*
X9350000Y33370000D03*
%TD*%
D19*
%TO.C,U8*%
X7227400Y43363800D03*
X4687400Y43363800D03*
X2147400Y43363800D03*
X2147400Y33833800D03*
X4687400Y33833800D03*
X7227400Y33833800D03*
%TD*%
D15*
%TO.C,R8*%
X9350000Y35380000D03*
X9350000Y36400000D03*
%TD*%
D20*
%TO.C,D3*%
X33150000Y59262500D03*
X33150000Y60837500D03*
%TD*%
D21*
%TO.C,J4*%
X30188600Y54863200D03*
X29388600Y54863200D03*
D22*
X28238600Y54863200D03*
X27238600Y54863200D03*
X26738600Y54863200D03*
X25738600Y54863200D03*
D21*
X24588600Y54863200D03*
X23788600Y54863200D03*
X23788600Y54863200D03*
X24588600Y54863200D03*
D22*
X25238600Y54863200D03*
X26238600Y54863200D03*
X27738600Y54863200D03*
X28738600Y54863200D03*
D21*
X29388600Y54863200D03*
X30188600Y54863200D03*
%TD*%
D23*
%TO.C,J6*%
X19616000Y54709000D03*
X19616000Y57709000D03*
X13116000Y49609000D03*
X19616000Y50709000D03*
%TD*%
%TO.C,J5*%
X8948000Y54709000D03*
X8948000Y57709000D03*
X2448000Y49609000D03*
X8948000Y50709000D03*
%TD*%
D24*
%TO.C,C13*%
X7476000Y28463500D03*
X7476000Y29423500D03*
%TD*%
D25*
%TO.C,C10*%
X5162000Y26086000D03*
X4202000Y26086000D03*
%TD*%
D26*
%TO.C,R4*%
X33150000Y57900000D03*
X33150000Y56880000D03*
%TD*%
D27*
%TO.C,R1*%
X42140000Y48150000D03*
X43160000Y48150000D03*
%TD*%
D28*
%TO.C,U7*%
X3544500Y29830000D03*
X3544500Y28880000D03*
X3544500Y27930000D03*
X5819500Y27930000D03*
X5819500Y29830000D03*
%TD*%
D29*
%TO.C,U5*%
X40345600Y19627500D03*
X40995600Y19627500D03*
X41645600Y19627500D03*
X42295600Y19627500D03*
X42945600Y19627500D03*
X43595600Y19627500D03*
X44245600Y19627500D03*
X44895600Y19627500D03*
X45545600Y19627500D03*
X46195600Y19627500D03*
X46845600Y19627500D03*
X47495600Y19627500D03*
X47495600Y25352500D03*
X46845600Y25352500D03*
X46195600Y25352500D03*
X45545600Y25352500D03*
X44895600Y25352500D03*
X44245600Y25352500D03*
X43595600Y25352500D03*
X42945600Y25352500D03*
X42295600Y25352500D03*
X41645600Y25352500D03*
X40995600Y25352500D03*
X40345600Y25352500D03*
%TD*%
D16*
%TO.C,D2*%
X1473000Y27609000D03*
X1473000Y24309000D03*
%TD*%
D30*
%TO.C,D1*%
X17850000Y45950000D03*
X21150000Y45950000D03*
%TD*%
D31*
%TO.C,J14*%
X39500000Y56525000D03*
X38500000Y56525000D03*
X37500000Y56525000D03*
X36500000Y56525000D03*
D32*
X40800000Y60400000D03*
X35200000Y60400000D03*
%TD*%
D33*
%TO.C,C205*%
X37785000Y42450000D03*
X38815000Y42450000D03*
%TD*%
D34*
%TO.C,U202*%
X33961400Y36763000D03*
X33961400Y36083000D03*
X33961400Y35403000D03*
X33961400Y34723000D03*
X33961400Y34043000D03*
X34641400Y36763000D03*
X34641400Y36083000D03*
X34641400Y35403000D03*
X34641400Y34723000D03*
X34641400Y34043000D03*
X35321400Y36763000D03*
X35321400Y36083000D03*
X35321400Y35403000D03*
X35321400Y34723000D03*
X35321400Y34043000D03*
X36001400Y36763000D03*
X36001400Y36083000D03*
X36001400Y35403000D03*
X36001400Y34723000D03*
X36001400Y34043000D03*
X36681400Y36763000D03*
X36681400Y36083000D03*
X36681400Y35403000D03*
X36681400Y34723000D03*
X36681400Y34043000D03*
D35*
X30371400Y39203000D03*
X30371400Y38803000D03*
X30371400Y38403000D03*
X30371400Y38003000D03*
X30371400Y37603000D03*
X30371400Y37203000D03*
X30371400Y36803000D03*
X30371400Y36403000D03*
X30371400Y36003000D03*
X30371400Y35603000D03*
X30371400Y35203000D03*
X30371400Y34803000D03*
X30371400Y34403000D03*
X30371400Y34003000D03*
X30371400Y33603000D03*
X30371400Y33203000D03*
X30371400Y32803000D03*
X30371400Y32403000D03*
X30371400Y32003000D03*
X30371400Y31603000D03*
D36*
X31521400Y30453000D03*
X31921400Y30453000D03*
X32321400Y30453000D03*
X32721400Y30453000D03*
X33121400Y30453000D03*
X33521400Y30453000D03*
X33921400Y30453000D03*
X34321400Y30453000D03*
X34721400Y30453000D03*
X35121400Y30453000D03*
X35521400Y30453000D03*
X35921400Y30453000D03*
X36321400Y30453000D03*
X36721400Y30453000D03*
X37121400Y30453000D03*
X37521400Y30453000D03*
X37921400Y30453000D03*
X38321400Y30453000D03*
X38721400Y30453000D03*
X39121400Y30453000D03*
D35*
X40271400Y31603000D03*
X40271400Y32003000D03*
X40271400Y32403000D03*
X40271400Y32803000D03*
X40271400Y33203000D03*
X40271400Y33603000D03*
X40271400Y34003000D03*
X40271400Y34403000D03*
X40271400Y34803000D03*
X40271400Y35203000D03*
X40271400Y35603000D03*
X40271400Y36003000D03*
X40271400Y36403000D03*
X40271400Y36803000D03*
X40271400Y37203000D03*
X40271400Y37603000D03*
X40271400Y38003000D03*
X40271400Y38403000D03*
X40271400Y38803000D03*
X40271400Y39203000D03*
D36*
X39121400Y40353000D03*
X38721400Y40353000D03*
X38321400Y40353000D03*
X37921400Y40353000D03*
X37521400Y40353000D03*
X37121400Y40353000D03*
X36721400Y40353000D03*
X36321400Y40353000D03*
X35921400Y40353000D03*
X35521400Y40353000D03*
X35121400Y40353000D03*
X34721400Y40353000D03*
X34321400Y40353000D03*
X33921400Y40353000D03*
X33521400Y40353000D03*
X33121400Y40353000D03*
X32721400Y40353000D03*
X32321400Y40353000D03*
X31921400Y40353000D03*
X31521400Y40353000D03*
%TD*%
D25*
%TO.C,C213*%
X27801400Y33203000D03*
X26841400Y33203000D03*
%TD*%
D37*
%TO.C,C214*%
X29389411Y43610589D03*
X28710589Y44289411D03*
%TD*%
D17*
%TO.C,C203*%
X36420000Y24950000D03*
X37380000Y24950000D03*
%TD*%
D12*
%TO.C,SW2*%
X47200000Y52125000D03*
X47200000Y56575000D03*
%TD*%
D18*
%TO.C,C218*%
X32700000Y29180000D03*
X32700000Y28220000D03*
%TD*%
D25*
%TO.C,C215*%
X27830000Y38300000D03*
X26870000Y38300000D03*
%TD*%
D18*
%TO.C,C217*%
X34200000Y29180000D03*
X34200000Y28220000D03*
%TD*%
%TO.C,C207*%
X40550000Y42680000D03*
X40550000Y41720000D03*
%TD*%
%TO.C,C208*%
X36721400Y27583000D03*
X36721400Y26623000D03*
%TD*%
D38*
%TO.C,R201*%
X25310000Y51600000D03*
X24290000Y51600000D03*
%TD*%
D26*
%TO.C,R203*%
X40550000Y44660000D03*
X40550000Y43640000D03*
%TD*%
%TO.C,R206*%
X36321400Y44713000D03*
X36321400Y43693000D03*
%TD*%
D38*
%TO.C,R9*%
X30110000Y53200000D03*
X29090000Y53200000D03*
%TD*%
D25*
%TO.C,C8*%
X38780000Y26050000D03*
X37820000Y26050000D03*
%TD*%
D17*
%TO.C,C211*%
X42846400Y34903000D03*
X43806400Y34903000D03*
%TD*%
D39*
%TO.C,C212*%
X41460589Y29889411D03*
X42139411Y29210589D03*
%TD*%
D26*
%TO.C,R202*%
X35550000Y27610000D03*
X35550000Y26590000D03*
%TD*%
D24*
%TO.C,C201*%
X33800000Y48890000D03*
X33800000Y49850000D03*
%TD*%
D40*
%TO.C,U201*%
X24798100Y49876400D03*
X24798100Y48606400D03*
X24798100Y47336400D03*
X24798100Y46066400D03*
X31973100Y46066400D03*
X31973100Y47336400D03*
X31973100Y48606400D03*
X31973100Y49876400D03*
%TD*%
D24*
%TO.C,C216*%
X34200000Y43720000D03*
X34200000Y44680000D03*
%TD*%
D26*
%TO.C,R205*%
X35321400Y44713000D03*
X35321400Y43693000D03*
%TD*%
D38*
%TO.C,R10*%
X26260000Y52650000D03*
X25240000Y52650000D03*
%TD*%
D41*
%TO.C,C2*%
X45350000Y34750000D03*
X47250000Y34750000D03*
%TD*%
D42*
%TO.C,Y201*%
X34200000Y20550000D03*
X36400000Y20550000D03*
X36400000Y22250000D03*
X34200000Y22250000D03*
%TD*%
D33*
%TO.C,C204*%
X37785000Y41500000D03*
X38815000Y41500000D03*
%TD*%
D25*
%TO.C,C7*%
X39530000Y17650000D03*
X38570000Y17650000D03*
%TD*%
D17*
%TO.C,C210*%
X42470000Y39700000D03*
X43430000Y39700000D03*
%TD*%
D26*
%TO.C,R2*%
X47250000Y31810000D03*
X47250000Y30790000D03*
%TD*%
%TO.C,R204*%
X46100000Y49160000D03*
X46100000Y48140000D03*
%TD*%
D25*
%TO.C,C209*%
X22864820Y35691533D03*
X21904820Y35691533D03*
%TD*%
D43*
%TO.C,L201*%
X37600000Y44041789D03*
X39000000Y44041789D03*
%TD*%
D15*
%TO.C,R3*%
X38750000Y27040000D03*
X38750000Y28060000D03*
%TD*%
D44*
%TO.C,Q1*%
X45687500Y30800000D03*
X45687500Y32700000D03*
X43812500Y31750000D03*
%TD*%
D27*
%TO.C,R11*%
X46340000Y16250000D03*
X47360000Y16250000D03*
%TD*%
D25*
%TO.C,C202*%
X34380000Y25000000D03*
X33420000Y25000000D03*
%TD*%
D17*
%TO.C,C206*%
X42820000Y35900000D03*
X43780000Y35900000D03*
%TD*%
M02*
