%TF.GenerationSoftware,KiCad,Pcbnew,10.0.4*%
%TF.CreationDate,2026-07-01T12:16:34-07:00*%
%TF.ProjectId,pygameboy,70796761-6d65-4626-9f79-2e6b69636164,rev?*%
%TF.SameCoordinates,Original*%
%TF.FileFunction,Profile,NP*%
%FSLAX46Y46*%
G04 Gerber Fmt 4.6, Leading zero omitted, Abs format (unit mm)*
G04 Created by KiCad (PCBNEW 10.0.4) date 2026-07-01 12:16:34*
%MOMM*%
%LPD*%
G01*
G04 APERTURE LIST*
%TA.AperFunction,Profile*%
%ADD10C,0.150000*%
%TD*%
G04 APERTURE END LIST*
D10*
X-3350000Y61200000D02*
G75*
G02*
X-2850000Y61700000I500000J0D01*
G01*
X-3350000Y2500000D02*
X-3350000Y61200000D01*
X-2924170Y2005532D02*
G75*
G02*
X-3350000Y2500000I74170J494468D01*
G01*
X-2500000Y2000000D02*
X-2924170Y2005532D01*
X-2000000Y11500000D02*
X-2000000Y2500000D01*
X-2000000Y11500000D02*
G75*
G02*
X-1500000Y12000000I500000J0D01*
G01*
X-2000000Y2500000D02*
G75*
G02*
X-2500000Y2000000I-500000J0D01*
G01*
X-500000Y12000000D02*
X-1500000Y12000000D01*
X-500000Y12000000D02*
G75*
G02*
X0Y11500000I0J-500000D01*
G01*
X0Y61700000D02*
X-2850000Y61700000D01*
X0Y61700000D02*
X42800000Y61700000D01*
X0Y11500000D02*
X23553Y1493553D01*
X523553Y993553D02*
G75*
G02*
X23553Y1493553I47J500047D01*
G01*
X42800000Y61700000D02*
G75*
G02*
X43300000Y61200000I0J-500000D01*
G01*
X43300000Y57950000D02*
X43300000Y61200000D01*
X43550000Y57700000D02*
G75*
G02*
X43300000Y57950000I0J250000D01*
G01*
X48823553Y993553D02*
X523553Y993553D01*
X49300000Y57700000D02*
X43550000Y57700000D01*
X49300000Y57700000D02*
X52150000Y57700000D01*
X49300000Y11500000D02*
X49323553Y1493553D01*
X49300000Y11500000D02*
G75*
G02*
X49800000Y12000000I500000J0D01*
G01*
X49323553Y1493553D02*
G75*
G02*
X48823553Y993647I-499953J47D01*
G01*
X49800000Y12000000D02*
X50800000Y12000000D01*
X50800000Y12000000D02*
G75*
G02*
X51300000Y11500000I0J-500000D01*
G01*
X51300000Y11500000D02*
X51300000Y2500000D01*
X51800000Y2000000D02*
G75*
G02*
X51300000Y2500000I0J500000D01*
G01*
X52150000Y57700000D02*
G75*
G02*
X52650000Y57200000I0J-500000D01*
G01*
X52150000Y2000000D02*
X51800000Y2000000D01*
X52650000Y2500000D02*
G75*
G02*
X52150000Y2000000I-500000J0D01*
G01*
X52650000Y2500000D02*
X52650000Y57200000D01*
M02*
