%TF.GenerationSoftware,KiCad,Pcbnew,10.0.3*%
%TF.CreationDate,2026-06-10T16:10:21-07:00*%
%TF.ProjectId,pygameboy,70796761-6d65-4626-9f79-2e6b69636164,rev?*%
%TF.SameCoordinates,Original*%
%TF.FileFunction,Soldermask,Bot*%
%TF.FilePolarity,Negative*%
%FSLAX46Y46*%
G04 Gerber Fmt 4.6, Leading zero omitted, Abs format (unit mm)*
G04 Created by KiCad (PCBNEW 10.0.3) date 2026-06-10 16:10:21*
%MOMM*%
%LPD*%
G01*
G04 APERTURE LIST*
%ADD10C,0.600000*%
%ADD11O,0.900000X2.000000*%
%ADD12O,0.900000X1.700000*%
%ADD13C,1.500000*%
G04 APERTURE END LIST*
D10*
%TO.C,J4*%
X29878600Y55933200D03*
X24098600Y55933200D03*
D11*
X31308600Y55433200D03*
D12*
X31308600Y59613200D03*
D11*
X22668600Y55433200D03*
D12*
X22668600Y59613200D03*
%TD*%
D13*
%TO.C,J6*%
X16366000Y59309000D03*
X16366000Y52309000D03*
%TD*%
%TO.C,J5*%
X5698000Y59309000D03*
X5698000Y52309000D03*
%TD*%
%TO.C,TP71*%
X35945000Y7512000D03*
%TD*%
%TO.C,TP65*%
X26945000Y7512000D03*
%TD*%
%TO.C,TP63*%
X23945000Y7512000D03*
%TD*%
%TO.C,TP62*%
X22445000Y4512000D03*
%TD*%
%TO.C,TP61*%
X20945000Y7512000D03*
%TD*%
%TO.C,TP70*%
X34445000Y4512000D03*
%TD*%
%TO.C,TP60*%
X19445000Y4512000D03*
%TD*%
%TO.C,TP59*%
X17945000Y7512000D03*
%TD*%
%TO.C,TP58*%
X16445000Y4512000D03*
%TD*%
%TO.C,TP64*%
X25445000Y4512000D03*
%TD*%
%TO.C,TP57*%
X14945000Y7512000D03*
%TD*%
%TO.C,TP56*%
X13445000Y4512000D03*
%TD*%
%TO.C,TP55*%
X11945000Y7512000D03*
%TD*%
%TO.C,TP54*%
X10445000Y4512000D03*
%TD*%
%TO.C,TP66*%
X28445000Y4512000D03*
%TD*%
%TO.C,TP67*%
X29945000Y7512000D03*
%TD*%
%TO.C,TP72*%
X37445000Y4512000D03*
%TD*%
%TO.C,TP73*%
X38945000Y7512000D03*
%TD*%
%TO.C,TP74*%
X40445000Y4512000D03*
%TD*%
%TO.C,TP75*%
X41945000Y7512000D03*
%TD*%
%TO.C,TP76*%
X43445000Y4623000D03*
%TD*%
%TO.C,TP77*%
X44945000Y7500000D03*
%TD*%
%TO.C,TP79*%
X47945000Y7512000D03*
%TD*%
%TO.C,TP68*%
X31445000Y4512000D03*
%TD*%
%TO.C,TP53*%
X8945000Y7512000D03*
%TD*%
%TO.C,TP52*%
X7445000Y4512000D03*
%TD*%
%TO.C,TP51*%
X5945000Y7512000D03*
%TD*%
%TO.C,TP50*%
X4445000Y4512000D03*
%TD*%
%TO.C,TP49*%
X2945000Y7512000D03*
%TD*%
%TO.C,TP69*%
X32945000Y7512000D03*
%TD*%
%TO.C,TP48*%
X1445000Y4512000D03*
%TD*%
%TO.C,TP78*%
X46445000Y4512000D03*
%TD*%
M02*
