%TF.GenerationSoftware,KiCad,Pcbnew,10.0.5*%
%TF.CreationDate,2026-07-27T14:39:00-07:00*%
%TF.ProjectId,pygameboy,70796761-6d65-4626-9f79-2e6b69636164,rev?*%
%TF.SameCoordinates,Original*%
%TF.FileFunction,Copper,L2,Bot*%
%TF.FilePolarity,Positive*%
%FSLAX46Y46*%
G04 Gerber Fmt 4.6, Leading zero omitted, Abs format (unit mm)*
G04 Created by KiCad (PCBNEW 10.0.5) date 2026-07-27 14:39:00*
%MOMM*%
%LPD*%
G01*
G04 APERTURE LIST*
G04 Aperture macros list*
%AMRotRect*
0 Rectangle, with rotation*
0 The origin of the aperture is its center*
0 $1 length*
0 $2 width*
0 $3 Rotation angle, in degrees counterclockwise*
0 Add horizontal line*
21,1,$1,$2,0,0,$3*%
G04 Aperture macros list end*
%TA.AperFunction,ComponentPad*%
%ADD10C,2.300000*%
%TD*%
%TA.AperFunction,ComponentPad*%
%ADD11C,7.400000*%
%TD*%
%TA.AperFunction,ComponentPad*%
%ADD12O,0.900000X2.000000*%
%TD*%
%TA.AperFunction,ComponentPad*%
%ADD13O,0.900000X1.700000*%
%TD*%
%TA.AperFunction,HeatsinkPad*%
%ADD14C,0.500000*%
%TD*%
%TA.AperFunction,HeatsinkPad*%
%ADD15RotRect,3.400000X3.400000X45.000000*%
%TD*%
%TA.AperFunction,SMDPad,CuDef*%
%ADD16C,1.500000*%
%TD*%
%TA.AperFunction,ViaPad*%
%ADD17C,0.450000*%
%TD*%
%TA.AperFunction,ViaPad*%
%ADD18C,0.762000*%
%TD*%
%TA.AperFunction,Conductor*%
%ADD19C,0.762000*%
%TD*%
%TA.AperFunction,Conductor*%
%ADD20C,0.200000*%
%TD*%
%TA.AperFunction,Conductor*%
%ADD21C,0.500000*%
%TD*%
%TA.AperFunction,Conductor*%
%ADD22C,0.203200*%
%TD*%
G04 APERTURE END LIST*
D10*
%TO.P,J1,1,Pin_1_1*%
%TO.N,unconnected-(J1-Pin_1-Pad1)*%
X24650000Y42700000D03*
%TD*%
D11*
%TO.P,J2,1,Pin_1_1*%
%TO.N,unconnected-(J2-Pin_1-Pad1)*%
X24650000Y17650000D03*
%TD*%
D12*
%TO.P,J4,SH,SHIELD_SH*%
%TO.N,GND*%
X31308600Y55433200D03*
D13*
X31308600Y59613200D03*
D12*
X22668600Y55433200D03*
D13*
X22668600Y59613200D03*
%TD*%
D14*
%TO.P,U202,81,GND_81*%
%TO.N,GND*%
X22620762Y31366190D03*
X23646067Y30340885D03*
X24671372Y29315580D03*
X23646067Y32391495D03*
X24671372Y31366190D03*
D15*
X24671372Y31366190D03*
D14*
X25696677Y30340885D03*
X24671372Y33416800D03*
X25696677Y32391495D03*
X26721982Y31366190D03*
%TD*%
D16*
%TO.P,TP71,1,1_1*%
%TO.N,/D2*%
X35945000Y7512000D03*
%TD*%
%TO.P,TP65,1,1_1*%
%TO.N,/A12*%
X26945000Y7512000D03*
%TD*%
%TO.P,TP63,1,1_1*%
%TO.N,/A10*%
X23945000Y7512000D03*
%TD*%
%TO.P,TP62,1,1_1*%
%TO.N,/A9*%
X22445000Y4512000D03*
%TD*%
%TO.P,TP61,1,1_1*%
%TO.N,/A8*%
X20945000Y7512000D03*
%TD*%
%TO.P,TP70,1,1_1*%
%TO.N,/D1*%
X34445000Y4512000D03*
%TD*%
%TO.P,TP60,1,1_1*%
%TO.N,/A7*%
X19445000Y4512000D03*
%TD*%
%TO.P,TP59,1,1_1*%
%TO.N,/A6*%
X17945000Y7512000D03*
%TD*%
%TO.P,TP58,1,1_1*%
%TO.N,/A5*%
X16445000Y4512000D03*
%TD*%
%TO.P,TP64,1,1_1*%
%TO.N,/A11*%
X25445000Y4512000D03*
%TD*%
%TO.P,TP57,1,1_1*%
%TO.N,/A4*%
X14945000Y7512000D03*
%TD*%
%TO.P,TP56,1,1_1*%
%TO.N,/A3*%
X13445000Y4512000D03*
%TD*%
%TO.P,TP55,1,1_1*%
%TO.N,/A2*%
X11945000Y7512000D03*
%TD*%
%TO.P,TP54,1,1_1*%
%TO.N,/A1*%
X10445000Y4512000D03*
%TD*%
%TO.P,TP66,1,1_1*%
%TO.N,/A13*%
X28445000Y4512000D03*
%TD*%
%TO.P,TP67,1,1_1*%
%TO.N,/A14*%
X29945000Y7512000D03*
%TD*%
%TO.P,TP72,1,1_1*%
%TO.N,/D3*%
X37445000Y4512000D03*
%TD*%
%TO.P,TP73,1,1_1*%
%TO.N,/D4*%
X38945000Y7512000D03*
%TD*%
%TO.P,TP74,1,1_1*%
%TO.N,/D5*%
X40445000Y4512000D03*
%TD*%
%TO.P,TP75,1,1_1*%
%TO.N,/D6*%
X41945000Y7512000D03*
%TD*%
%TO.P,TP76,1,1_1*%
%TO.N,/D7*%
X43445000Y4623000D03*
%TD*%
%TO.P,TP77,1,1_1*%
%TO.N,/GB_RESET*%
X44945000Y7500000D03*
%TD*%
%TO.P,TP79,1,1_1*%
%TO.N,GND*%
X47945000Y7512000D03*
%TD*%
%TO.P,TP68,1,1_1*%
%TO.N,/A15*%
X31445000Y4512000D03*
%TD*%
%TO.P,TP53,1,1_1*%
%TO.N,/A0*%
X8945000Y7512000D03*
%TD*%
%TO.P,TP52,1,1_1*%
%TO.N,/CS*%
X7445000Y4512000D03*
%TD*%
%TO.P,TP51,1,1_1*%
%TO.N,/RD*%
X5945000Y7512000D03*
%TD*%
%TO.P,TP50,1,1_1*%
%TO.N,/WR*%
X4445000Y4512000D03*
%TD*%
%TO.P,TP49,1,1_1*%
%TO.N,/CLK*%
X2945000Y7512000D03*
%TD*%
%TO.P,TP69,1,1_1*%
%TO.N,/D0*%
X32945000Y7512000D03*
%TD*%
%TO.P,TP48,1,1_1*%
%TO.N,VCC*%
X1445000Y4512000D03*
%TD*%
%TO.P,TP78,1,1_1*%
%TO.N,/AUD*%
X46445000Y4512000D03*
%TD*%
D17*
%TO.N,GND*%
X32150000Y38110000D03*
X32860000Y38180000D03*
X30150000Y53180000D03*
X32410000Y16080000D03*
X34590000Y15660000D03*
X35760000Y45100000D03*
X35140000Y42170000D03*
X33800000Y42740000D03*
X31360000Y44930000D03*
X30580000Y45630000D03*
X30680000Y44870000D03*
X31650000Y43880000D03*
X6150000Y27000000D03*
X5520000Y26650000D03*
X5520000Y27410000D03*
%TO.N,VCC*%
X1410000Y12110000D03*
%TO.N,GND*%
X47230000Y39170000D03*
X44810000Y36150000D03*
X42890000Y38180000D03*
X35490000Y35880000D03*
X37190000Y37500000D03*
X38500000Y38900000D03*
X44440000Y45520000D03*
X44670000Y44200000D03*
X46090000Y43180000D03*
X48000000Y45590000D03*
X46980000Y43480000D03*
X43820000Y48350000D03*
X44150000Y49400000D03*
X39770000Y54650000D03*
X41110000Y55020000D03*
X42330000Y55820000D03*
X44200000Y55970000D03*
X45990000Y55150000D03*
X34660000Y59230000D03*
X32870000Y52310000D03*
X34680000Y48690000D03*
X31440000Y49010000D03*
X21960000Y54150000D03*
X28970000Y56440000D03*
X25170000Y56360000D03*
X21940000Y50810000D03*
X20310000Y48430000D03*
X19260000Y47310000D03*
X17920000Y46040000D03*
X16830000Y44680000D03*
X16830000Y43180000D03*
X16850000Y41840000D03*
X19440000Y41840000D03*
X18620000Y42020000D03*
X18630000Y42890000D03*
X18820000Y44100000D03*
X19320000Y44580000D03*
X20030000Y45700000D03*
X20680000Y46440000D03*
X21610000Y47290000D03*
X23070000Y48510000D03*
X23730000Y49190000D03*
X25940000Y51460000D03*
X25220000Y50590000D03*
X27010000Y45080000D03*
X25722618Y43784029D03*
X24620000Y44430000D03*
X26350000Y42910000D03*
X18890000Y36980000D03*
X25330000Y38670000D03*
X24880000Y39050000D03*
X21500000Y41450000D03*
X25270000Y39450000D03*
X25830000Y39010000D03*
X22730000Y39240000D03*
X23200000Y38710000D03*
X31960000Y31840000D03*
X33219124Y32360876D03*
X41730000Y29080000D03*
X46670000Y23790000D03*
X46390000Y17450000D03*
X45420000Y19590000D03*
X34590000Y20210000D03*
X35320000Y20930000D03*
X36530000Y22070000D03*
X35940000Y23540000D03*
X34730000Y24630000D03*
X33900000Y26410000D03*
X28806232Y23406232D03*
X19490000Y21540000D03*
X16860000Y21480000D03*
X13020000Y22160000D03*
X13150000Y27120000D03*
X12150000Y28680000D03*
X7430000Y35680000D03*
X6130000Y31570000D03*
X13240000Y37300000D03*
%TO.N,+3V3*%
X39930000Y23840000D03*
X40380000Y27150000D03*
X42350000Y26340000D03*
X41540000Y37710000D03*
X32550000Y45010000D03*
X12090000Y35350000D03*
X16730000Y40160000D03*
X22510000Y34510000D03*
%TO.N,/BOOT*%
X25510000Y36390000D03*
X27390000Y39220000D03*
X14330202Y40350202D03*
X18670000Y41040000D03*
%TO.N,/NEOPIXEL*%
X29384565Y35193497D03*
X29505125Y46578712D03*
%TO.N,/MIDI_OUT*%
X29380000Y38800000D03*
X23470000Y52200000D03*
X28990917Y46976322D03*
X26780000Y52080000D03*
%TO.N,+1V1*%
X22970000Y29870000D03*
X17080000Y23750000D03*
X30120000Y27240000D03*
X26300000Y29740000D03*
X24220000Y34150000D03*
X26110000Y33090000D03*
X30348054Y37221135D03*
%TO.N,+5V*%
X44640000Y24960000D03*
X44640000Y28750000D03*
X32440000Y14150000D03*
%TO.N,/AUD*%
X46705000Y11440000D03*
%TO.N,/GB_RESET*%
X45718391Y8810788D03*
%TO.N,/D7*%
X45730000Y14510000D03*
%TO.N,/D6*%
X44930000Y14490000D03*
%TO.N,/D5*%
X44221615Y14524079D03*
%TO.N,/D4*%
X43535000Y14485000D03*
%TO.N,/D3*%
X39790000Y12840000D03*
%TO.N,/D2*%
X38260000Y13315000D03*
%TO.N,/D1*%
X37460000Y13440000D03*
%TO.N,/D0*%
X36860000Y13640000D03*
%TO.N,/A15*%
X31245071Y14205071D03*
%TO.N,/A14*%
X30580000Y14340000D03*
%TO.N,/A13*%
X29780000Y14350000D03*
%TO.N,/A12*%
X28980000Y14370000D03*
%TO.N,/A11*%
X20700000Y13774000D03*
%TO.N,/A10*%
X20130000Y12650000D03*
%TO.N,/A9*%
X20180000Y11800000D03*
%TO.N,/A8*%
X20276232Y11096232D03*
%TO.N,/A7*%
X17470000Y13774000D03*
%TO.N,/A6*%
X16670000Y13774000D03*
%TO.N,/A5*%
X15870000Y13774000D03*
%TO.N,/A4*%
X15070000Y13774000D03*
%TO.N,/A3*%
X11470000Y13770000D03*
%TO.N,/A2*%
X10670000Y13780000D03*
%TO.N,/A1*%
X9870000Y13790000D03*
%TO.N,/A0*%
X9070000Y13790000D03*
%TO.N,/CS*%
X6580000Y13810000D03*
%TO.N,/RD*%
X5780000Y13774000D03*
%TO.N,/WR*%
X4980000Y13774000D03*
%TO.N,/CLK*%
X4180000Y13774000D03*
%TO.N,+3V3*%
X7190000Y30410000D03*
X8270000Y31910000D03*
%TO.N,+5V*%
X850000Y25580000D03*
%TO.N,+3V3*%
X37910000Y44040000D03*
X25550000Y35490000D03*
X28290000Y46310000D03*
X25970000Y35150000D03*
%TO.N,+5V*%
X24380000Y45830000D03*
X23940000Y46210000D03*
X23570000Y46630000D03*
X29380000Y51550000D03*
X28880000Y51520000D03*
%TO.N,/SD_CMD_MOSI*%
X40020000Y41440000D03*
X40120000Y47100000D03*
%TO.N,/SD_CLK*%
X41937918Y45100426D03*
X41230000Y42220000D03*
%TO.N,/SD_DAT0_MISO*%
X42478538Y44161669D03*
X42375000Y45985103D03*
%TO.N,/SWD*%
X34106359Y31034460D03*
X28550000Y29530000D03*
%TO.N,/SWCLK*%
X30085840Y28578368D03*
X33540000Y31330000D03*
%TO.N,/SD_DAT3_CS*%
X30888278Y35049097D03*
X30913010Y36099097D03*
%TO.N,GND*%
X48920000Y14270000D03*
X47350000Y12750000D03*
X48940000Y13550000D03*
D18*
X48171000Y12291149D03*
D17*
X48420000Y13960000D03*
X48222471Y13217854D03*
%TO.N,/MIDI_IN*%
X19650000Y31670000D03*
X14180000Y29070000D03*
%TO.N,VBUS*%
X24550000Y53950000D03*
X29400000Y53900000D03*
%TO.N,/USB_D-*%
X26750000Y56000000D03*
X27800000Y56000000D03*
%TO.N,/3V_D4*%
X27844493Y26471882D03*
X33415900Y17361348D03*
%TO.N,/3V_D3*%
X26630000Y27430000D03*
X34038819Y17475000D03*
%TO.N,/3V_D2*%
X32916281Y17776281D03*
X27558264Y25789273D03*
%TO.N,/3V_D1*%
X26050000Y26880000D03*
X26956138Y23839781D03*
%TO.N,/DATA_OE*%
X41944791Y17267352D03*
X41640000Y22860000D03*
%TO.N,/RP2350 Core/GPIO0*%
X20050000Y32150000D03*
X12770000Y33560000D03*
%TO.N,/RP2350 Core/QSPI_SD1*%
X14390000Y34262362D03*
X19506103Y34262362D03*
%TO.N,/RP2350 Core/QSPI_SD2*%
X14765459Y33132166D03*
X21010000Y33610000D03*
%TO.N,+1V1*%
X20830000Y37660000D03*
X21180000Y37190000D03*
%TO.N,/RP2350 Core/QSPI_SS*%
X13060000Y34310000D03*
X20651601Y33128801D03*
%TD*%
%TO.N,+1V1*%
D19*
X21180000Y37350000D02*
X21180000Y37190000D01*
X24220000Y34150000D02*
X21180000Y37190000D01*
X20830000Y37660000D02*
X20870000Y37660000D01*
X20870000Y37660000D02*
X21180000Y37350000D01*
%TO.N,VCC*%
D20*
X1410000Y12110000D02*
X1445000Y12075000D01*
X1445000Y12075000D02*
X1445000Y4512000D01*
%TO.N,/3V_D2*%
X27710000Y23760000D02*
X29170000Y22300000D01*
X29170000Y22300000D02*
X29170052Y22300000D01*
X27558264Y25789273D02*
X27710000Y25637537D01*
X27710000Y25637537D02*
X27710000Y23760000D01*
X30835026Y20635025D02*
X30835026Y19857536D01*
X29170052Y22300000D02*
X30835026Y20635025D01*
X30835026Y19857536D02*
X32916281Y17776281D01*
%TO.N,/3V_D4*%
X27844493Y26174796D02*
X28310000Y25709289D01*
X29380000Y23540000D02*
X29380000Y22585026D01*
%TO.N,/3V_D3*%
X28369493Y26144770D02*
X28660000Y25854263D01*
%TO.N,/3V_D4*%
X33415900Y18019126D02*
X33415900Y17361348D01*
%TO.N,/3V_D3*%
X29730000Y22730000D02*
X31535026Y20924974D01*
X34038819Y17891181D02*
X34038819Y17475000D01*
%TO.N,/3V_D4*%
X27844493Y26471882D02*
X27844493Y26174796D01*
X28310000Y24610000D02*
X29380000Y23540000D01*
X28310000Y25709289D02*
X28310000Y24610000D01*
X31185026Y20779999D02*
X31185026Y20250000D01*
%TO.N,/3V_D3*%
X28660000Y25680000D02*
X29730000Y24610000D01*
X31535026Y20924974D02*
X31535026Y20394974D01*
%TO.N,/3V_D4*%
X29380000Y22585026D02*
X31185026Y20779999D01*
%TO.N,/3V_D3*%
X28660000Y25854263D02*
X28660000Y25680000D01*
%TO.N,/3V_D4*%
X31185026Y20250000D02*
X33415900Y18019126D01*
%TO.N,/3V_D3*%
X29730000Y24610000D02*
X29730000Y22730000D01*
X31535026Y20394974D02*
X34038819Y17891181D01*
X28061956Y26996882D02*
X28369493Y26689345D01*
X26630000Y27430000D02*
X27063118Y26996882D01*
X27063118Y26996882D02*
X28061956Y26996882D01*
X28369493Y26689345D02*
X28369493Y26144770D01*
%TO.N,+3V3*%
D21*
X42350000Y26340000D02*
X42350000Y26260000D01*
X42350000Y26260000D02*
X39930000Y23840000D01*
X37910000Y44040000D02*
X37910000Y41340000D01*
X37910000Y41340000D02*
X41540000Y37710000D01*
X41190000Y26340000D02*
X40380000Y27150000D01*
X42350000Y26340000D02*
X41190000Y26340000D01*
X37910000Y44040000D02*
X33520000Y44040000D01*
X33520000Y44040000D02*
X32550000Y45010000D01*
%TO.N,/MIDI_OUT*%
D20*
X28610000Y39630000D02*
X28800000Y39820000D01*
X29380000Y38800000D02*
X29380000Y38860000D01*
%TO.N,/NEOPIXEL*%
X29384565Y35193497D02*
X29384565Y35294565D01*
X29384565Y35294565D02*
X31070000Y36980000D01*
X31070000Y36980000D02*
X31070000Y38120000D01*
%TO.N,+3V3*%
D21*
X28290000Y46310000D02*
X28290000Y47230000D01*
%TO.N,/MIDI_OUT*%
D20*
X29380000Y38860000D02*
X28610000Y39630000D01*
%TO.N,/NEOPIXEL*%
X29490000Y46563587D02*
X29505125Y46578712D01*
X31070000Y38120000D02*
X29490000Y39700000D01*
%TO.N,/MIDI_OUT*%
X28800000Y39820000D02*
X28800000Y46785405D01*
X28800000Y46785405D02*
X28990917Y46976322D01*
%TO.N,+3V3*%
D21*
X28290000Y47230000D02*
X28900000Y47840000D01*
%TO.N,/NEOPIXEL*%
D20*
X29490000Y39700000D02*
X29490000Y46563587D01*
%TO.N,+3V3*%
D21*
X28900000Y47840000D02*
X29720000Y47840000D01*
X29720000Y47840000D02*
X32550000Y45010000D01*
%TO.N,/BOOT*%
D20*
X15020000Y41040000D02*
X14330202Y40350202D01*
X18670000Y41040000D02*
X15020000Y41040000D01*
%TO.N,+3V3*%
D21*
X8270000Y31910000D02*
X8650000Y31910000D01*
X8650000Y31910000D02*
X12090000Y35350000D01*
X22510000Y34510000D02*
X22380000Y34510000D01*
X22380000Y34510000D02*
X16730000Y40160000D01*
%TO.N,/BOOT*%
D20*
X27390000Y38270000D02*
X27390000Y39220000D01*
X25510000Y36390000D02*
X27390000Y38270000D01*
%TO.N,/SD_DAT3_CS*%
X30462125Y35475250D02*
X30888278Y35049097D01*
X30462125Y35648212D02*
X30462125Y35475250D01*
%TO.N,+1V1*%
D19*
X26110000Y33090000D02*
X30241135Y37221135D01*
X30241135Y37221135D02*
X30348054Y37221135D01*
%TO.N,/SD_DAT3_CS*%
D20*
X30913010Y36099097D02*
X30462125Y35648212D01*
%TO.N,/MIDI_OUT*%
X26780000Y52080000D02*
X23590000Y52080000D01*
X23590000Y52080000D02*
X23470000Y52200000D01*
%TO.N,/SWD*%
X34084460Y31034460D02*
X34106359Y31034460D01*
X28550000Y29530000D02*
X29370000Y28710000D01*
X29370000Y28710000D02*
X29370000Y28397537D01*
X29763353Y28004184D02*
X31054184Y28004184D01*
X31054184Y28004184D02*
X34084460Y31034460D01*
X29370000Y28397537D02*
X29763353Y28004184D01*
%TO.N,+1V1*%
D19*
X17080000Y23750000D02*
X17080000Y23980000D01*
X17080000Y23980000D02*
X22970000Y29870000D01*
X30120000Y27240000D02*
X28800000Y27240000D01*
X28800000Y27240000D02*
X26300000Y29740000D01*
%TO.N,/SWCLK*%
D20*
X30709774Y28499774D02*
X30164434Y28499774D01*
X30164434Y28499774D02*
X30085840Y28578368D01*
X33540000Y31330000D02*
X30709774Y28499774D01*
%TO.N,+5V*%
X44640000Y24960000D02*
X44640000Y28750000D01*
%TO.N,/A9*%
X21070000Y11044927D02*
X21070000Y9892025D01*
%TO.N,/D2*%
X38260000Y10887660D02*
X38260000Y13315000D01*
X35945000Y8572660D02*
X38260000Y10887660D01*
%TO.N,/A9*%
X22445000Y8517026D02*
X22445000Y4512000D01*
%TO.N,/A8*%
X20945000Y9522050D02*
X20720000Y9747050D01*
X20720000Y10460000D02*
X20276232Y10903768D01*
%TO.N,/A9*%
X20180000Y11800000D02*
X20314927Y11800000D01*
%TO.N,/A8*%
X20945000Y7512000D02*
X20945000Y9522050D01*
%TO.N,/A9*%
X21070000Y9892025D02*
X22445000Y8517026D01*
X20314927Y11800000D02*
X21070000Y11044927D01*
%TO.N,/A8*%
X20720000Y9747050D02*
X20720000Y10460000D01*
X20276232Y10903768D02*
X20276232Y11096232D01*
%TO.N,+5V*%
D19*
X850000Y25580000D02*
X850000Y16250000D01*
X22897462Y13419000D02*
X26519000Y13419000D01*
X26519000Y13419000D02*
X28860000Y15760000D01*
X30830000Y15760000D02*
X32440000Y14150000D01*
%TO.N,/A15*%
D20*
X31445000Y4512000D02*
X31445000Y14005142D01*
X31445000Y14005142D02*
X31245071Y14205071D01*
%TO.N,+5V*%
D19*
X21736462Y14580000D02*
X22897462Y13419000D01*
X2520000Y14580000D02*
X21736462Y14580000D01*
X28860000Y15760000D02*
X30830000Y15760000D01*
X850000Y16250000D02*
X2520000Y14580000D01*
%TO.N,/A11*%
D20*
X25445000Y4512000D02*
X25445000Y9029000D01*
%TO.N,/WR*%
X4445000Y13239000D02*
X4980000Y13774000D01*
%TO.N,/A5*%
X16320000Y13324000D02*
X15870000Y13774000D01*
X16445000Y8517025D02*
X16320000Y8642026D01*
X16445000Y4512000D02*
X16445000Y8517025D01*
%TO.N,/A7*%
X19445000Y4512000D02*
X19445000Y11799000D01*
%TO.N,/A4*%
X14945000Y7512000D02*
X14945000Y13649000D01*
%TO.N,/WR*%
X4445000Y4512000D02*
X4445000Y13239000D01*
%TO.N,/RD*%
X5945000Y7512000D02*
X5945000Y13609000D01*
%TO.N,/A6*%
X16670000Y8787000D02*
X16670000Y13774000D01*
%TO.N,/RD*%
X5945000Y13609000D02*
X5780000Y13774000D01*
%TO.N,/A5*%
X16320000Y8642026D02*
X16320000Y13324000D01*
%TO.N,/A6*%
X17945000Y7512000D02*
X16670000Y8787000D01*
%TO.N,/CLK*%
X2945000Y7512000D02*
X2945000Y12539000D01*
%TO.N,/A7*%
X19445000Y11799000D02*
X17470000Y13774000D01*
%TO.N,/A4*%
X14945000Y13649000D02*
X15070000Y13774000D01*
%TO.N,/A11*%
X25445000Y9029000D02*
X20700000Y13774000D01*
%TO.N,/CLK*%
X2945000Y12539000D02*
X4180000Y13774000D01*
%TO.N,/AUD*%
X46445000Y4512000D02*
X46445000Y11180000D01*
X46445000Y11180000D02*
X46705000Y11440000D01*
%TO.N,/GB_RESET*%
X44945000Y7500000D02*
X44945000Y8037397D01*
X44945000Y8037397D02*
X45718391Y8810788D01*
%TO.N,/D7*%
X43445000Y4623000D02*
X43445000Y12225000D01*
X43445000Y12225000D02*
X45730000Y14510000D01*
%TO.N,/D6*%
X41945000Y11505000D02*
X44930000Y14490000D01*
X41945000Y7512000D02*
X41945000Y11505000D01*
%TO.N,/D5*%
X44221615Y14406352D02*
X44221615Y14524079D01*
X40445000Y4512000D02*
X40445000Y10629737D01*
X40445000Y10629737D02*
X44221615Y14406352D01*
%TO.N,/D4*%
X38945000Y7512000D02*
X38945000Y9895000D01*
X38945000Y9895000D02*
X43535000Y14485000D01*
%TO.N,/D3*%
X37445000Y4512000D02*
X37445000Y9495000D01*
X37445000Y9495000D02*
X39790000Y11840000D01*
X39790000Y11840000D02*
X39790000Y12840000D01*
%TO.N,/D0*%
X32945000Y9725000D02*
X36860000Y13640000D01*
X32945000Y7512000D02*
X32945000Y9725000D01*
%TO.N,/D1*%
X34445000Y4512000D02*
X34445000Y10425000D01*
X34445000Y10425000D02*
X37460000Y13440000D01*
%TO.N,/A14*%
X30580000Y14340000D02*
X30580000Y8147000D01*
X30580000Y8147000D02*
X29945000Y7512000D01*
%TO.N,/A13*%
X28445000Y4512000D02*
X28445000Y7426214D01*
X28445000Y7426214D02*
X29780000Y8761214D01*
X29780000Y8761214D02*
X29780000Y14350000D01*
%TO.N,/A12*%
X28980000Y14370000D02*
X28980000Y9547000D01*
X28980000Y9547000D02*
X26945000Y7512000D01*
%TO.N,/A10*%
X23945000Y7512000D02*
X21420000Y10037000D01*
X21420000Y10037000D02*
X21420000Y11360000D01*
X21420000Y11360000D02*
X20130000Y12650000D01*
%TO.N,/A2*%
X11945000Y7512000D02*
X10670000Y8787000D01*
X10670000Y8787000D02*
X10670000Y13780000D01*
%TO.N,/A3*%
X13445000Y4512000D02*
X13445000Y11795000D01*
X13445000Y11795000D02*
X11470000Y13770000D01*
%TO.N,/A1*%
X10320000Y13340000D02*
X9870000Y13790000D01*
X10320000Y8642026D02*
X10320000Y13340000D01*
X10445000Y8517025D02*
X10320000Y8642026D01*
X10445000Y4512000D02*
X10445000Y8517025D01*
%TO.N,/A0*%
X8945000Y7512000D02*
X8945000Y13665000D01*
X8945000Y13665000D02*
X9070000Y13790000D01*
%TO.N,/CS*%
X7445000Y4512000D02*
X7445000Y12945000D01*
X7445000Y12945000D02*
X6580000Y13810000D01*
%TO.N,+3V3*%
D21*
X7190000Y30410000D02*
X7190000Y30830000D01*
X7190000Y30830000D02*
X8270000Y31910000D01*
%TO.N,+5V*%
D19*
X850000Y25580000D02*
X850000Y31010000D01*
X850000Y31010000D02*
X7170000Y37330000D01*
X7170000Y37330000D02*
X11340000Y37330000D01*
X19340000Y50870000D02*
X24380000Y45830000D01*
X11340000Y37330000D02*
X12120000Y38110000D01*
X12120000Y38110000D02*
X12120000Y50870000D01*
X12120000Y50870000D02*
X19340000Y50870000D01*
%TO.N,/SD_CMD_MOSI*%
D20*
X40020000Y41440000D02*
X40020000Y47000000D01*
X40020000Y47000000D02*
X40120000Y47100000D01*
%TO.N,+3V3*%
D21*
X28020000Y37930000D02*
X25970000Y35880000D01*
X25580000Y35490000D02*
X25550000Y35490000D01*
X28290000Y46310000D02*
X28020000Y46040000D01*
X25970000Y35150000D02*
X25970000Y35880000D01*
X28020000Y46040000D02*
X28020000Y37930000D01*
X25970000Y35880000D02*
X25580000Y35490000D01*
%TO.N,+5V*%
X23940000Y46210000D02*
X24000000Y46210000D01*
X24000000Y46210000D02*
X24380000Y45830000D01*
X23570000Y46630000D02*
X23570000Y46580000D01*
X23570000Y46580000D02*
X23940000Y46210000D01*
X28880000Y51520000D02*
X28460000Y51520000D01*
X28460000Y51520000D02*
X23570000Y46630000D01*
X29380000Y51550000D02*
X28910000Y51550000D01*
X28910000Y51550000D02*
X28880000Y51520000D01*
%TO.N,/SD_CLK*%
D20*
X41460426Y45100426D02*
X41937918Y45100426D01*
%TO.N,/SD_DAT0_MISO*%
X42375000Y45985103D02*
X42478538Y45881565D01*
X42478538Y45881565D02*
X42478538Y44161669D01*
%TO.N,/SD_CLK*%
X41230000Y42220000D02*
X41230000Y44870000D01*
X41230000Y44870000D02*
X41460426Y45100426D01*
%TO.N,GND*%
D22*
X47945000Y7512000D02*
X47945000Y12065149D01*
X47945000Y12065149D02*
X48171000Y12291149D01*
%TO.N,/MIDI_IN*%
D20*
X19650000Y31670000D02*
X16780000Y31670000D01*
X16780000Y31670000D02*
X14180000Y29070000D01*
%TO.N,VBUS*%
D21*
X29400000Y53900000D02*
X24600000Y53900000D01*
X24600000Y53900000D02*
X24550000Y53950000D01*
%TO.N,/USB_D-*%
D20*
X26750000Y56000000D02*
X27800000Y56000000D01*
%TO.N,/D2*%
D22*
X35945000Y7512000D02*
X35945000Y8572660D01*
%TO.N,/3V_D1*%
D20*
X27060000Y23943643D02*
X26956138Y23839781D01*
X26050000Y26880000D02*
X27060000Y25870000D01*
X27060000Y25870000D02*
X27060000Y23943643D01*
%TO.N,/DATA_OE*%
X41640000Y22860000D02*
X41190000Y22410000D01*
X41190000Y22410000D02*
X41190000Y18022143D01*
X41190000Y18022143D02*
X41944791Y17267352D01*
%TO.N,/RP2350 Core/GPIO0*%
X20050000Y32150000D02*
X14180000Y32150000D01*
X14180000Y32150000D02*
X12770000Y33560000D01*
%TO.N,/RP2350 Core/QSPI_SD1*%
X19506103Y34262362D02*
X19418465Y34350000D01*
X14477638Y34350000D02*
X14390000Y34262362D01*
X19418465Y34350000D02*
X14477638Y34350000D01*
%TO.N,/RP2350 Core/QSPI_SD2*%
X14793045Y33610000D02*
X14765459Y33582414D01*
X14765459Y33582414D02*
X14765459Y33132166D01*
X21010000Y33610000D02*
X14793045Y33610000D01*
%TO.N,/RP2350 Core/QSPI_SS*%
X20180369Y32657569D02*
X14467184Y32657569D01*
X14467184Y32657569D02*
X13060000Y34064753D01*
X20651601Y33128801D02*
X20180369Y32657569D01*
X13060000Y34064753D02*
X13060000Y34310000D01*
%TD*%
%TA.AperFunction,Conductor*%
%TO.N,GND*%
G36*
X28246073Y24157499D02*
G01*
X28253173Y24154256D01*
X28289922Y24128739D01*
X28975783Y23442878D01*
X28997274Y23414171D01*
X29010086Y23390709D01*
X29025500Y23330321D01*
X29025500Y23268145D01*
X29020395Y23232642D01*
X29017157Y23221616D01*
X28978771Y23161891D01*
X28914189Y23132401D01*
X28843918Y23142506D01*
X28836828Y23145744D01*
X28800077Y23171262D01*
X28114216Y23857123D01*
X28092723Y23885833D01*
X28079912Y23909295D01*
X28064500Y23969680D01*
X28064500Y24031856D01*
X28069601Y24067345D01*
X28072841Y24078379D01*
X28111220Y24138103D01*
X28175800Y24167599D01*
X28246073Y24157499D01*
G37*
%TD.AperFunction*%
%TA.AperFunction,Conductor*%
G36*
X42790877Y61294398D02*
G01*
X42806121Y61289922D01*
X42865846Y61251540D01*
X42865858Y61251526D01*
X42867063Y61250135D01*
X42894946Y61194428D01*
X42896618Y61186745D01*
X42899500Y61159952D01*
X42899500Y57876705D01*
X42932111Y57733818D01*
X42932116Y57733798D01*
X42932117Y57733796D01*
X42973784Y57647273D01*
X42995717Y57601728D01*
X42995718Y57601726D01*
X42995719Y57601725D01*
X42995720Y57601723D01*
X43087116Y57487116D01*
X43201723Y57395720D01*
X43333795Y57332118D01*
X43333799Y57332117D01*
X43453444Y57304810D01*
X43476705Y57299500D01*
X43476706Y57299500D01*
X49207885Y57299500D01*
X49243377Y57294398D01*
X49258621Y57289922D01*
X49318346Y57251540D01*
X49318358Y57251526D01*
X49319563Y57250135D01*
X49347446Y57194428D01*
X49349118Y57186745D01*
X49352000Y57159952D01*
X49352000Y12369142D01*
X49346896Y12333644D01*
X49340890Y12313189D01*
X49309870Y12260379D01*
X49305084Y12255508D01*
X49285211Y12239052D01*
X49225975Y12199472D01*
X49225960Y12199461D01*
X49225953Y12199455D01*
X49100556Y12074058D01*
X49100539Y12074039D01*
X49100534Y12074033D01*
X49005517Y11931830D01*
X49001990Y11926552D01*
X48999066Y11919493D01*
X48999065Y11919494D01*
X48936474Y11768389D01*
X48934350Y11763899D01*
X48899500Y11588699D01*
X48899500Y11564889D01*
X48899367Y11560769D01*
X48899426Y11560767D01*
X48899360Y11558669D01*
X48899500Y11499527D01*
X48899500Y11434796D01*
X48899582Y11432514D01*
X48899521Y11432512D01*
X48899666Y11428240D01*
X48921623Y2100412D01*
X48916601Y2064898D01*
X48912162Y2049649D01*
X48873918Y1989834D01*
X48873912Y1989829D01*
X48872584Y1988673D01*
X48816799Y1960624D01*
X48811055Y1959367D01*
X48808984Y1958914D01*
X48782044Y1956000D01*
X566784Y1956000D01*
X531283Y1961105D01*
X516044Y1965580D01*
X456343Y2003936D01*
X455083Y2005390D01*
X427197Y2061004D01*
X425547Y2068548D01*
X422637Y2095173D01*
X419313Y3507501D01*
X418785Y3731757D01*
X418609Y3806342D01*
X423629Y3841847D01*
X426844Y3852889D01*
X465089Y3912701D01*
X529602Y3942343D01*
X599881Y3932408D01*
X602011Y3931441D01*
X654706Y3886707D01*
X664750Y3871674D01*
X664754Y3871669D01*
X804669Y3731754D01*
X969191Y3621824D01*
X1151998Y3546103D01*
X1346065Y3507500D01*
X1543935Y3507500D01*
X1738002Y3546103D01*
X1920809Y3621824D01*
X2085331Y3731754D01*
X2225246Y3871669D01*
X2335176Y4036191D01*
X2410897Y4218998D01*
X2438513Y4357831D01*
X2449500Y4413063D01*
X2449500Y4610936D01*
X2449499Y4610939D01*
X2427420Y4721936D01*
X2410897Y4805002D01*
X2335176Y4987809D01*
X2225246Y5152331D01*
X2085331Y5292246D01*
X1993531Y5353585D01*
X1975973Y5374594D01*
X1920804Y5402179D01*
X1920676Y5402236D01*
X1920079Y5402479D01*
X1917306Y5403628D01*
X1894016Y5413275D01*
X1863175Y5431574D01*
X1850807Y5441541D01*
X1810316Y5499860D01*
X1810315Y5499864D01*
X1805946Y5512993D01*
X1799500Y5552778D01*
X1799500Y7001038D01*
X1804601Y7036527D01*
X1807178Y7045305D01*
X1845559Y7105030D01*
X1910138Y7134526D01*
X1980413Y7124425D01*
X2030281Y7083496D01*
X2033327Y7079272D01*
X2047526Y7053808D01*
X2054821Y7036196D01*
X2054823Y7036193D01*
X2054824Y7036191D01*
X2164754Y6871669D01*
X2304669Y6731754D01*
X2469191Y6621824D01*
X2651998Y6546103D01*
X2846065Y6507500D01*
X3043935Y6507500D01*
X3238002Y6546103D01*
X3420809Y6621824D01*
X3585331Y6731754D01*
X3725246Y6871669D01*
X3835176Y7036191D01*
X3841157Y7050631D01*
X3859460Y7081481D01*
X3865196Y7088599D01*
X3923515Y7129087D01*
X3994466Y7131619D01*
X4055523Y7095390D01*
X4085921Y7038525D01*
X4087119Y7033458D01*
X4090500Y7004467D01*
X4090500Y5554731D01*
X4085395Y5519230D01*
X4080920Y5503991D01*
X4042541Y5444271D01*
X4032086Y5435211D01*
X3997789Y5414023D01*
X3969857Y5402453D01*
X3969233Y5402200D01*
X3969189Y5402176D01*
X3804665Y5292244D01*
X3804660Y5292240D01*
X3664760Y5152340D01*
X3664756Y5152335D01*
X3554824Y4987810D01*
X3525081Y4916003D01*
X3479104Y4805006D01*
X3479103Y4805003D01*
X3440500Y4610939D01*
X3440500Y4413062D01*
X3457023Y4329998D01*
X3479103Y4218998D01*
X3554824Y4036191D01*
X3664754Y3871669D01*
X3804669Y3731754D01*
X3969191Y3621824D01*
X4151998Y3546103D01*
X4346065Y3507500D01*
X4543935Y3507500D01*
X4738002Y3546103D01*
X4920809Y3621824D01*
X5085331Y3731754D01*
X5225246Y3871669D01*
X5335176Y4036191D01*
X5410897Y4218998D01*
X5438513Y4357831D01*
X5449500Y4413063D01*
X5449500Y4610936D01*
X5449499Y4610939D01*
X5427420Y4721936D01*
X5410897Y4805002D01*
X5335176Y4987809D01*
X5225246Y5152331D01*
X5085331Y5292246D01*
X4993531Y5353585D01*
X4975973Y5374594D01*
X4920804Y5402179D01*
X4920676Y5402236D01*
X4920079Y5402479D01*
X4917306Y5403628D01*
X4894016Y5413275D01*
X4863175Y5431574D01*
X4850807Y5441541D01*
X4810316Y5499860D01*
X4810315Y5499864D01*
X4805946Y5512993D01*
X4799500Y5552778D01*
X4799500Y7001038D01*
X4804601Y7036527D01*
X4807178Y7045305D01*
X4845559Y7105030D01*
X4910138Y7134526D01*
X4980413Y7124425D01*
X5030281Y7083496D01*
X5033327Y7079272D01*
X5047526Y7053808D01*
X5054821Y7036196D01*
X5054823Y7036193D01*
X5054824Y7036191D01*
X5164754Y6871669D01*
X5304669Y6731754D01*
X5469191Y6621824D01*
X5651998Y6546103D01*
X5846065Y6507500D01*
X6043935Y6507500D01*
X6238002Y6546103D01*
X6420809Y6621824D01*
X6585331Y6731754D01*
X6725246Y6871669D01*
X6835176Y7036191D01*
X6841157Y7050631D01*
X6859460Y7081481D01*
X6865196Y7088599D01*
X6923515Y7129087D01*
X6994466Y7131619D01*
X7055523Y7095390D01*
X7085921Y7038525D01*
X7087119Y7033458D01*
X7090500Y7004467D01*
X7090500Y5554731D01*
X7085395Y5519230D01*
X7080920Y5503991D01*
X7042541Y5444271D01*
X7032086Y5435211D01*
X6997789Y5414023D01*
X6969857Y5402453D01*
X6969233Y5402200D01*
X6969189Y5402176D01*
X6804665Y5292244D01*
X6804660Y5292240D01*
X6664760Y5152340D01*
X6664756Y5152335D01*
X6554824Y4987810D01*
X6525081Y4916003D01*
X6479104Y4805006D01*
X6479103Y4805003D01*
X6440500Y4610939D01*
X6440500Y4413062D01*
X6457023Y4329998D01*
X6479103Y4218998D01*
X6554824Y4036191D01*
X6664754Y3871669D01*
X6804669Y3731754D01*
X6969191Y3621824D01*
X7151998Y3546103D01*
X7346065Y3507500D01*
X7543935Y3507500D01*
X7738002Y3546103D01*
X7920809Y3621824D01*
X8085331Y3731754D01*
X8225246Y3871669D01*
X8335176Y4036191D01*
X8410897Y4218998D01*
X8438513Y4357831D01*
X8449500Y4413063D01*
X8449500Y4610936D01*
X8449499Y4610939D01*
X8427420Y4721936D01*
X8410897Y4805002D01*
X8335176Y4987809D01*
X8225246Y5152331D01*
X8085331Y5292246D01*
X7993531Y5353585D01*
X7975973Y5374594D01*
X7920804Y5402179D01*
X7920676Y5402236D01*
X7920079Y5402479D01*
X7917306Y5403628D01*
X7894016Y5413275D01*
X7863175Y5431574D01*
X7850807Y5441541D01*
X7810316Y5499860D01*
X7810315Y5499864D01*
X7805946Y5512993D01*
X7799500Y5552778D01*
X7799500Y7001038D01*
X7804601Y7036527D01*
X7807178Y7045305D01*
X7845559Y7105030D01*
X7910138Y7134526D01*
X7980413Y7124425D01*
X8030281Y7083496D01*
X8033327Y7079272D01*
X8047526Y7053808D01*
X8054821Y7036196D01*
X8054823Y7036193D01*
X8054824Y7036191D01*
X8164754Y6871669D01*
X8304669Y6731754D01*
X8469191Y6621824D01*
X8651998Y6546103D01*
X8846065Y6507500D01*
X9043935Y6507500D01*
X9238002Y6546103D01*
X9420809Y6621824D01*
X9585331Y6731754D01*
X9725246Y6871669D01*
X9835176Y7036191D01*
X9841157Y7050631D01*
X9859460Y7081481D01*
X9865196Y7088599D01*
X9923515Y7129087D01*
X9994466Y7131619D01*
X10055523Y7095390D01*
X10085921Y7038525D01*
X10087119Y7033458D01*
X10090500Y7004467D01*
X10090500Y5554731D01*
X10085395Y5519230D01*
X10080920Y5503991D01*
X10042541Y5444271D01*
X10032086Y5435211D01*
X9997789Y5414023D01*
X9969857Y5402453D01*
X9969233Y5402200D01*
X9969189Y5402176D01*
X9804665Y5292244D01*
X9804660Y5292240D01*
X9664760Y5152340D01*
X9664756Y5152335D01*
X9554824Y4987810D01*
X9525081Y4916003D01*
X9479104Y4805006D01*
X9479103Y4805003D01*
X9440500Y4610939D01*
X9440500Y4413062D01*
X9457023Y4329998D01*
X9479103Y4218998D01*
X9554824Y4036191D01*
X9664754Y3871669D01*
X9804669Y3731754D01*
X9969191Y3621824D01*
X10151998Y3546103D01*
X10346065Y3507500D01*
X10543935Y3507500D01*
X10738002Y3546103D01*
X10920809Y3621824D01*
X11085331Y3731754D01*
X11225246Y3871669D01*
X11335176Y4036191D01*
X11410897Y4218998D01*
X11438513Y4357831D01*
X11449500Y4413063D01*
X11449500Y4610936D01*
X11449499Y4610939D01*
X11427420Y4721936D01*
X11410897Y4805002D01*
X11335176Y4987809D01*
X11225246Y5152331D01*
X11085331Y5292246D01*
X10993531Y5353585D01*
X10975973Y5374594D01*
X10920804Y5402179D01*
X10920676Y5402236D01*
X10920079Y5402479D01*
X10917306Y5403628D01*
X10894016Y5413275D01*
X10863175Y5431574D01*
X10850807Y5441541D01*
X10810316Y5499860D01*
X10810315Y5499864D01*
X10805946Y5512993D01*
X10799500Y5552778D01*
X10799500Y7001038D01*
X10804601Y7036527D01*
X10807178Y7045305D01*
X10845559Y7105030D01*
X10910138Y7134526D01*
X10980413Y7124425D01*
X11030281Y7083496D01*
X11033327Y7079272D01*
X11047526Y7053808D01*
X11054821Y7036196D01*
X11054823Y7036193D01*
X11054824Y7036191D01*
X11164754Y6871669D01*
X11304669Y6731754D01*
X11469191Y6621824D01*
X11651998Y6546103D01*
X11846065Y6507500D01*
X12043935Y6507500D01*
X12238002Y6546103D01*
X12420809Y6621824D01*
X12585331Y6731754D01*
X12725246Y6871669D01*
X12835176Y7036191D01*
X12841157Y7050631D01*
X12859460Y7081481D01*
X12865196Y7088599D01*
X12923515Y7129087D01*
X12994466Y7131619D01*
X13055523Y7095390D01*
X13085921Y7038525D01*
X13087119Y7033458D01*
X13090500Y7004467D01*
X13090500Y5554731D01*
X13085395Y5519230D01*
X13080920Y5503991D01*
X13042541Y5444271D01*
X13032086Y5435211D01*
X12997789Y5414023D01*
X12969857Y5402453D01*
X12969233Y5402200D01*
X12969189Y5402176D01*
X12804665Y5292244D01*
X12804660Y5292240D01*
X12664760Y5152340D01*
X12664756Y5152335D01*
X12554824Y4987810D01*
X12525081Y4916003D01*
X12479104Y4805006D01*
X12479103Y4805003D01*
X12440500Y4610939D01*
X12440500Y4413062D01*
X12457023Y4329998D01*
X12479103Y4218998D01*
X12554824Y4036191D01*
X12664754Y3871669D01*
X12804669Y3731754D01*
X12969191Y3621824D01*
X13151998Y3546103D01*
X13346065Y3507500D01*
X13543935Y3507500D01*
X13738002Y3546103D01*
X13920809Y3621824D01*
X14085331Y3731754D01*
X14225246Y3871669D01*
X14335176Y4036191D01*
X14410897Y4218998D01*
X14438513Y4357831D01*
X14449500Y4413063D01*
X14449500Y4610936D01*
X14449499Y4610939D01*
X14427420Y4721936D01*
X14410897Y4805002D01*
X14335176Y4987809D01*
X14225246Y5152331D01*
X14085331Y5292246D01*
X13993531Y5353585D01*
X13975973Y5374594D01*
X13920804Y5402179D01*
X13920676Y5402236D01*
X13920079Y5402479D01*
X13917306Y5403628D01*
X13894016Y5413275D01*
X13863175Y5431574D01*
X13850807Y5441541D01*
X13810316Y5499860D01*
X13810315Y5499864D01*
X13805946Y5512993D01*
X13799500Y5552778D01*
X13799500Y7001038D01*
X13804601Y7036527D01*
X13807178Y7045305D01*
X13845559Y7105030D01*
X13910138Y7134526D01*
X13980413Y7124425D01*
X14030281Y7083496D01*
X14033327Y7079272D01*
X14047526Y7053808D01*
X14054821Y7036196D01*
X14054823Y7036193D01*
X14054824Y7036191D01*
X14164754Y6871669D01*
X14304669Y6731754D01*
X14469191Y6621824D01*
X14651998Y6546103D01*
X14846065Y6507500D01*
X15043935Y6507500D01*
X15238002Y6546103D01*
X15420809Y6621824D01*
X15585331Y6731754D01*
X15725246Y6871669D01*
X15835176Y7036191D01*
X15841157Y7050631D01*
X15859460Y7081481D01*
X15865196Y7088599D01*
X15923515Y7129087D01*
X15994466Y7131619D01*
X16055523Y7095390D01*
X16085921Y7038525D01*
X16087119Y7033458D01*
X16090500Y7004467D01*
X16090500Y5554731D01*
X16085395Y5519230D01*
X16080920Y5503991D01*
X16042541Y5444271D01*
X16032086Y5435211D01*
X15997789Y5414023D01*
X15969857Y5402453D01*
X15969233Y5402200D01*
X15969189Y5402176D01*
X15804665Y5292244D01*
X15804660Y5292240D01*
X15664760Y5152340D01*
X15664756Y5152335D01*
X15554824Y4987810D01*
X15525081Y4916003D01*
X15479104Y4805006D01*
X15479103Y4805003D01*
X15440500Y4610939D01*
X15440500Y4413062D01*
X15457023Y4329998D01*
X15479103Y4218998D01*
X15554824Y4036191D01*
X15664754Y3871669D01*
X15804669Y3731754D01*
X15969191Y3621824D01*
X16151998Y3546103D01*
X16346065Y3507500D01*
X16543935Y3507500D01*
X16738002Y3546103D01*
X16920809Y3621824D01*
X17085331Y3731754D01*
X17225246Y3871669D01*
X17335176Y4036191D01*
X17410897Y4218998D01*
X17438513Y4357831D01*
X17449500Y4413063D01*
X17449500Y4610936D01*
X17449499Y4610939D01*
X17427420Y4721936D01*
X17410897Y4805002D01*
X17335176Y4987809D01*
X17225246Y5152331D01*
X17085331Y5292246D01*
X16993531Y5353585D01*
X16975973Y5374594D01*
X16920804Y5402179D01*
X16920676Y5402236D01*
X16920079Y5402479D01*
X16917306Y5403628D01*
X16894016Y5413275D01*
X16863175Y5431574D01*
X16850807Y5441541D01*
X16810316Y5499860D01*
X16810315Y5499864D01*
X16805946Y5512993D01*
X16799500Y5552778D01*
X16799500Y7001038D01*
X16804601Y7036527D01*
X16807178Y7045305D01*
X16845559Y7105030D01*
X16910138Y7134526D01*
X16980413Y7124425D01*
X17030281Y7083496D01*
X17033327Y7079272D01*
X17047526Y7053808D01*
X17054821Y7036196D01*
X17054823Y7036193D01*
X17054824Y7036191D01*
X17164754Y6871669D01*
X17304669Y6731754D01*
X17469191Y6621824D01*
X17651998Y6546103D01*
X17846065Y6507500D01*
X18043935Y6507500D01*
X18238002Y6546103D01*
X18420809Y6621824D01*
X18585331Y6731754D01*
X18725246Y6871669D01*
X18835176Y7036191D01*
X18841157Y7050631D01*
X18859460Y7081481D01*
X18865196Y7088599D01*
X18923515Y7129087D01*
X18994466Y7131619D01*
X19055523Y7095390D01*
X19085921Y7038525D01*
X19087119Y7033458D01*
X19090500Y7004467D01*
X19090500Y5554731D01*
X19085395Y5519230D01*
X19080920Y5503991D01*
X19042541Y5444271D01*
X19032086Y5435211D01*
X18997789Y5414023D01*
X18969857Y5402453D01*
X18969233Y5402200D01*
X18969189Y5402176D01*
X18804665Y5292244D01*
X18804660Y5292240D01*
X18664760Y5152340D01*
X18664756Y5152335D01*
X18554824Y4987810D01*
X18525081Y4916003D01*
X18479104Y4805006D01*
X18479103Y4805003D01*
X18440500Y4610939D01*
X18440500Y4413062D01*
X18457023Y4329998D01*
X18479103Y4218998D01*
X18554824Y4036191D01*
X18664754Y3871669D01*
X18804669Y3731754D01*
X18969191Y3621824D01*
X19151998Y3546103D01*
X19346065Y3507500D01*
X19543935Y3507500D01*
X19738002Y3546103D01*
X19920809Y3621824D01*
X20085331Y3731754D01*
X20225246Y3871669D01*
X20335176Y4036191D01*
X20410897Y4218998D01*
X20438513Y4357831D01*
X20449500Y4413063D01*
X20449500Y4610936D01*
X20449499Y4610939D01*
X20427420Y4721936D01*
X20410897Y4805002D01*
X20335176Y4987809D01*
X20225246Y5152331D01*
X20085331Y5292246D01*
X19993531Y5353585D01*
X19975973Y5374594D01*
X19920804Y5402179D01*
X19920676Y5402236D01*
X19920079Y5402479D01*
X19917306Y5403628D01*
X19894016Y5413275D01*
X19863175Y5431574D01*
X19850807Y5441541D01*
X19810316Y5499860D01*
X19810315Y5499864D01*
X19805946Y5512993D01*
X19799500Y5552778D01*
X19799500Y7001038D01*
X19804601Y7036527D01*
X19807178Y7045305D01*
X19845559Y7105030D01*
X19910138Y7134526D01*
X19980413Y7124425D01*
X20030281Y7083496D01*
X20033327Y7079272D01*
X20047526Y7053808D01*
X20054821Y7036196D01*
X20054823Y7036193D01*
X20054824Y7036191D01*
X20164754Y6871669D01*
X20304669Y6731754D01*
X20469191Y6621824D01*
X20651998Y6546103D01*
X20846065Y6507500D01*
X21043935Y6507500D01*
X21238002Y6546103D01*
X21420809Y6621824D01*
X21585331Y6731754D01*
X21725246Y6871669D01*
X21835176Y7036191D01*
X21841157Y7050631D01*
X21859460Y7081481D01*
X21865196Y7088599D01*
X21923515Y7129087D01*
X21994466Y7131619D01*
X22055523Y7095390D01*
X22085921Y7038525D01*
X22087119Y7033458D01*
X22090500Y7004467D01*
X22090500Y5554731D01*
X22085395Y5519230D01*
X22080920Y5503991D01*
X22042541Y5444271D01*
X22032086Y5435211D01*
X21997789Y5414023D01*
X21969857Y5402453D01*
X21969233Y5402200D01*
X21969189Y5402176D01*
X21804665Y5292244D01*
X21804660Y5292240D01*
X21664760Y5152340D01*
X21664756Y5152335D01*
X21554824Y4987810D01*
X21525081Y4916003D01*
X21479104Y4805006D01*
X21479103Y4805003D01*
X21440500Y4610939D01*
X21440500Y4413062D01*
X21457023Y4329998D01*
X21479103Y4218998D01*
X21554824Y4036191D01*
X21664754Y3871669D01*
X21804669Y3731754D01*
X21969191Y3621824D01*
X22151998Y3546103D01*
X22346065Y3507500D01*
X22543935Y3507500D01*
X22738002Y3546103D01*
X22920809Y3621824D01*
X23085331Y3731754D01*
X23225246Y3871669D01*
X23335176Y4036191D01*
X23410897Y4218998D01*
X23438513Y4357831D01*
X23449500Y4413063D01*
X23449500Y4610936D01*
X23449499Y4610939D01*
X23427420Y4721936D01*
X23410897Y4805002D01*
X23335176Y4987809D01*
X23225246Y5152331D01*
X23085331Y5292246D01*
X22993531Y5353585D01*
X22975973Y5374594D01*
X22920804Y5402179D01*
X22920676Y5402236D01*
X22920079Y5402479D01*
X22917306Y5403628D01*
X22894016Y5413275D01*
X22863175Y5431574D01*
X22850807Y5441541D01*
X22810316Y5499860D01*
X22810315Y5499864D01*
X22805946Y5512993D01*
X22799500Y5552778D01*
X22799500Y7001038D01*
X22804601Y7036527D01*
X22807178Y7045305D01*
X22845559Y7105030D01*
X22910138Y7134526D01*
X22980413Y7124425D01*
X23030281Y7083496D01*
X23033327Y7079272D01*
X23047526Y7053808D01*
X23054821Y7036196D01*
X23054823Y7036193D01*
X23054824Y7036191D01*
X23164754Y6871669D01*
X23304669Y6731754D01*
X23469191Y6621824D01*
X23651998Y6546103D01*
X23846065Y6507500D01*
X24043935Y6507500D01*
X24238002Y6546103D01*
X24420809Y6621824D01*
X24585331Y6731754D01*
X24725246Y6871669D01*
X24835176Y7036191D01*
X24841157Y7050631D01*
X24859460Y7081481D01*
X24865196Y7088599D01*
X24923515Y7129087D01*
X24994466Y7131619D01*
X25055523Y7095390D01*
X25085921Y7038525D01*
X25087119Y7033458D01*
X25090500Y7004467D01*
X25090500Y5554731D01*
X25085395Y5519230D01*
X25080920Y5503991D01*
X25042541Y5444271D01*
X25032086Y5435211D01*
X24997789Y5414023D01*
X24969857Y5402453D01*
X24969233Y5402200D01*
X24969189Y5402176D01*
X24804665Y5292244D01*
X24804660Y5292240D01*
X24664760Y5152340D01*
X24664756Y5152335D01*
X24554824Y4987810D01*
X24525081Y4916003D01*
X24479104Y4805006D01*
X24479103Y4805003D01*
X24440500Y4610939D01*
X24440500Y4413062D01*
X24457023Y4329998D01*
X24479103Y4218998D01*
X24554824Y4036191D01*
X24664754Y3871669D01*
X24804669Y3731754D01*
X24969191Y3621824D01*
X25151998Y3546103D01*
X25346065Y3507500D01*
X25543935Y3507500D01*
X25738002Y3546103D01*
X25920809Y3621824D01*
X26085331Y3731754D01*
X26225246Y3871669D01*
X26335176Y4036191D01*
X26410897Y4218998D01*
X26438513Y4357831D01*
X26449500Y4413063D01*
X26449500Y4610936D01*
X26449499Y4610939D01*
X26427420Y4721936D01*
X26410897Y4805002D01*
X26335176Y4987809D01*
X26225246Y5152331D01*
X26085331Y5292246D01*
X25993531Y5353585D01*
X25975973Y5374594D01*
X25920804Y5402179D01*
X25920676Y5402236D01*
X25920079Y5402479D01*
X25917306Y5403628D01*
X25894016Y5413275D01*
X25863175Y5431574D01*
X25850807Y5441541D01*
X25810316Y5499860D01*
X25810315Y5499864D01*
X25805946Y5512993D01*
X25799500Y5552778D01*
X25799500Y7001038D01*
X25804601Y7036527D01*
X25807178Y7045305D01*
X25845559Y7105030D01*
X25910138Y7134526D01*
X25980413Y7124425D01*
X26030281Y7083496D01*
X26033327Y7079272D01*
X26047526Y7053808D01*
X26054821Y7036196D01*
X26054823Y7036193D01*
X26054824Y7036191D01*
X26164754Y6871669D01*
X26304669Y6731754D01*
X26469191Y6621824D01*
X26651998Y6546103D01*
X26846065Y6507500D01*
X27043935Y6507500D01*
X27238002Y6546103D01*
X27420809Y6621824D01*
X27585331Y6731754D01*
X27725246Y6871669D01*
X27835176Y7036191D01*
X27841157Y7050631D01*
X27859460Y7081481D01*
X27865196Y7088599D01*
X27923515Y7129087D01*
X27994466Y7131619D01*
X28055523Y7095390D01*
X28085921Y7038525D01*
X28087119Y7033458D01*
X28090500Y7004467D01*
X28090500Y5554731D01*
X28085395Y5519230D01*
X28080920Y5503991D01*
X28042541Y5444271D01*
X28032086Y5435211D01*
X27997789Y5414023D01*
X27969857Y5402453D01*
X27969233Y5402200D01*
X27969189Y5402176D01*
X27804665Y5292244D01*
X27804660Y5292240D01*
X27664760Y5152340D01*
X27664756Y5152335D01*
X27554824Y4987810D01*
X27525081Y4916003D01*
X27479104Y4805006D01*
X27479103Y4805003D01*
X27440500Y4610939D01*
X27440500Y4413062D01*
X27457023Y4329998D01*
X27479103Y4218998D01*
X27554824Y4036191D01*
X27664754Y3871669D01*
X27804669Y3731754D01*
X27969191Y3621824D01*
X28151998Y3546103D01*
X28346065Y3507500D01*
X28543935Y3507500D01*
X28738002Y3546103D01*
X28920809Y3621824D01*
X29085331Y3731754D01*
X29225246Y3871669D01*
X29335176Y4036191D01*
X29410897Y4218998D01*
X29438513Y4357831D01*
X29449500Y4413063D01*
X29449500Y4610936D01*
X29449499Y4610939D01*
X29427420Y4721936D01*
X29410897Y4805002D01*
X29335176Y4987809D01*
X29225246Y5152331D01*
X29085331Y5292246D01*
X28993531Y5353585D01*
X28975973Y5374594D01*
X28920804Y5402179D01*
X28920676Y5402236D01*
X28920079Y5402479D01*
X28917306Y5403628D01*
X28894016Y5413275D01*
X28863175Y5431574D01*
X28850807Y5441541D01*
X28810316Y5499860D01*
X28810315Y5499864D01*
X28805946Y5512993D01*
X28799500Y5552778D01*
X28799500Y7001038D01*
X28804601Y7036527D01*
X28807178Y7045305D01*
X28845559Y7105030D01*
X28910138Y7134526D01*
X28980413Y7124425D01*
X29030281Y7083496D01*
X29033327Y7079272D01*
X29047526Y7053808D01*
X29054821Y7036196D01*
X29054823Y7036193D01*
X29054824Y7036191D01*
X29164754Y6871669D01*
X29304669Y6731754D01*
X29469191Y6621824D01*
X29651998Y6546103D01*
X29846065Y6507500D01*
X30043935Y6507500D01*
X30238002Y6546103D01*
X30420809Y6621824D01*
X30585331Y6731754D01*
X30725246Y6871669D01*
X30835176Y7036191D01*
X30841157Y7050631D01*
X30859460Y7081481D01*
X30865196Y7088599D01*
X30923515Y7129087D01*
X30994466Y7131619D01*
X31055523Y7095390D01*
X31085921Y7038525D01*
X31087119Y7033458D01*
X31090500Y7004467D01*
X31090500Y5554731D01*
X31085395Y5519230D01*
X31080920Y5503991D01*
X31042541Y5444271D01*
X31032086Y5435211D01*
X30997789Y5414023D01*
X30969857Y5402453D01*
X30969233Y5402200D01*
X30969189Y5402176D01*
X30804665Y5292244D01*
X30804660Y5292240D01*
X30664760Y5152340D01*
X30664756Y5152335D01*
X30554824Y4987810D01*
X30525081Y4916003D01*
X30479104Y4805006D01*
X30479103Y4805003D01*
X30440500Y4610939D01*
X30440500Y4413062D01*
X30457023Y4329998D01*
X30479103Y4218998D01*
X30554824Y4036191D01*
X30664754Y3871669D01*
X30804669Y3731754D01*
X30969191Y3621824D01*
X31151998Y3546103D01*
X31346065Y3507500D01*
X31543935Y3507500D01*
X31738002Y3546103D01*
X31920809Y3621824D01*
X32085331Y3731754D01*
X32225246Y3871669D01*
X32335176Y4036191D01*
X32410897Y4218998D01*
X32438513Y4357831D01*
X32449500Y4413063D01*
X32449500Y4610936D01*
X32449499Y4610939D01*
X32427420Y4721936D01*
X32410897Y4805002D01*
X32335176Y4987809D01*
X32225246Y5152331D01*
X32085331Y5292246D01*
X31993531Y5353585D01*
X31975973Y5374594D01*
X31920804Y5402179D01*
X31920676Y5402236D01*
X31920079Y5402479D01*
X31917306Y5403628D01*
X31894016Y5413275D01*
X31863175Y5431574D01*
X31850807Y5441541D01*
X31810316Y5499860D01*
X31810315Y5499864D01*
X31805946Y5512993D01*
X31799500Y5552778D01*
X31799500Y7001038D01*
X31804601Y7036527D01*
X31807178Y7045305D01*
X31845559Y7105030D01*
X31910138Y7134526D01*
X31980413Y7124425D01*
X32030281Y7083496D01*
X32033327Y7079272D01*
X32047526Y7053808D01*
X32054821Y7036196D01*
X32054823Y7036193D01*
X32054824Y7036191D01*
X32164754Y6871669D01*
X32304669Y6731754D01*
X32469191Y6621824D01*
X32651998Y6546103D01*
X32846065Y6507500D01*
X33043935Y6507500D01*
X33238002Y6546103D01*
X33420809Y6621824D01*
X33585331Y6731754D01*
X33725246Y6871669D01*
X33835176Y7036191D01*
X33841157Y7050631D01*
X33859460Y7081481D01*
X33865196Y7088599D01*
X33923515Y7129087D01*
X33994466Y7131619D01*
X34055523Y7095390D01*
X34085921Y7038525D01*
X34087119Y7033458D01*
X34090500Y7004467D01*
X34090500Y5554731D01*
X34085395Y5519230D01*
X34080920Y5503991D01*
X34042541Y5444271D01*
X34032086Y5435211D01*
X33997789Y5414023D01*
X33969857Y5402453D01*
X33969233Y5402200D01*
X33969189Y5402176D01*
X33804665Y5292244D01*
X33804660Y5292240D01*
X33664760Y5152340D01*
X33664756Y5152335D01*
X33554824Y4987810D01*
X33525081Y4916003D01*
X33479104Y4805006D01*
X33479103Y4805003D01*
X33440500Y4610939D01*
X33440500Y4413062D01*
X33457023Y4329998D01*
X33479103Y4218998D01*
X33554824Y4036191D01*
X33664754Y3871669D01*
X33804669Y3731754D01*
X33969191Y3621824D01*
X34151998Y3546103D01*
X34346065Y3507500D01*
X34543935Y3507500D01*
X34738002Y3546103D01*
X34920809Y3621824D01*
X35085331Y3731754D01*
X35225246Y3871669D01*
X35335176Y4036191D01*
X35410897Y4218998D01*
X35438513Y4357831D01*
X35449500Y4413063D01*
X35449500Y4610936D01*
X35449499Y4610939D01*
X35427420Y4721936D01*
X35410897Y4805002D01*
X35335176Y4987809D01*
X35225246Y5152331D01*
X35085331Y5292246D01*
X34993531Y5353585D01*
X34975973Y5374594D01*
X34920804Y5402179D01*
X34920676Y5402236D01*
X34920079Y5402479D01*
X34917306Y5403628D01*
X34894016Y5413275D01*
X34863175Y5431574D01*
X34850807Y5441541D01*
X34810316Y5499860D01*
X34810315Y5499864D01*
X34805946Y5512993D01*
X34799500Y5552778D01*
X34799500Y7001038D01*
X34804601Y7036527D01*
X34807178Y7045305D01*
X34845559Y7105030D01*
X34910138Y7134526D01*
X34980413Y7124425D01*
X35030281Y7083496D01*
X35033327Y7079272D01*
X35047526Y7053808D01*
X35054821Y7036196D01*
X35054823Y7036193D01*
X35054824Y7036191D01*
X35164754Y6871669D01*
X35304669Y6731754D01*
X35469191Y6621824D01*
X35651998Y6546103D01*
X35846065Y6507500D01*
X36043935Y6507500D01*
X36238002Y6546103D01*
X36420809Y6621824D01*
X36585331Y6731754D01*
X36725246Y6871669D01*
X36835176Y7036191D01*
X36841157Y7050631D01*
X36859460Y7081481D01*
X36865196Y7088599D01*
X36923515Y7129087D01*
X36994466Y7131619D01*
X37055523Y7095390D01*
X37085921Y7038525D01*
X37087119Y7033458D01*
X37090500Y7004467D01*
X37090500Y5554731D01*
X37085395Y5519230D01*
X37080920Y5503991D01*
X37042541Y5444271D01*
X37032086Y5435211D01*
X36997789Y5414023D01*
X36969857Y5402453D01*
X36969233Y5402200D01*
X36969189Y5402176D01*
X36804665Y5292244D01*
X36804660Y5292240D01*
X36664760Y5152340D01*
X36664756Y5152335D01*
X36554824Y4987810D01*
X36525081Y4916003D01*
X36479104Y4805006D01*
X36479103Y4805003D01*
X36440500Y4610939D01*
X36440500Y4413062D01*
X36457023Y4329998D01*
X36479103Y4218998D01*
X36554824Y4036191D01*
X36664754Y3871669D01*
X36804669Y3731754D01*
X36969191Y3621824D01*
X37151998Y3546103D01*
X37346065Y3507500D01*
X37543935Y3507500D01*
X37738002Y3546103D01*
X37920809Y3621824D01*
X38085331Y3731754D01*
X38225246Y3871669D01*
X38335176Y4036191D01*
X38410897Y4218998D01*
X38438513Y4357831D01*
X38449500Y4413063D01*
X38449500Y4610936D01*
X38449499Y4610939D01*
X38427420Y4721936D01*
X38410897Y4805002D01*
X38335176Y4987809D01*
X38225246Y5152331D01*
X38085331Y5292246D01*
X37993531Y5353585D01*
X37975973Y5374594D01*
X37920804Y5402179D01*
X37920676Y5402236D01*
X37920079Y5402479D01*
X37917306Y5403628D01*
X37894016Y5413275D01*
X37863175Y5431574D01*
X37850807Y5441541D01*
X37810316Y5499860D01*
X37810315Y5499864D01*
X37805946Y5512993D01*
X37799500Y5552778D01*
X37799500Y7001038D01*
X37804601Y7036527D01*
X37807178Y7045305D01*
X37845559Y7105030D01*
X37910138Y7134526D01*
X37980413Y7124425D01*
X38030281Y7083496D01*
X38033327Y7079272D01*
X38047526Y7053808D01*
X38054821Y7036196D01*
X38054823Y7036193D01*
X38054824Y7036191D01*
X38164754Y6871669D01*
X38304669Y6731754D01*
X38469191Y6621824D01*
X38651998Y6546103D01*
X38846065Y6507500D01*
X39043935Y6507500D01*
X39238002Y6546103D01*
X39420809Y6621824D01*
X39585331Y6731754D01*
X39725246Y6871669D01*
X39835176Y7036191D01*
X39841157Y7050631D01*
X39859460Y7081481D01*
X39865196Y7088599D01*
X39923515Y7129087D01*
X39994466Y7131619D01*
X40055523Y7095390D01*
X40085921Y7038525D01*
X40087119Y7033458D01*
X40090500Y7004467D01*
X40090500Y5554731D01*
X40085395Y5519230D01*
X40080920Y5503991D01*
X40042541Y5444271D01*
X40032086Y5435211D01*
X39997789Y5414023D01*
X39969857Y5402453D01*
X39969233Y5402200D01*
X39969189Y5402176D01*
X39804665Y5292244D01*
X39804660Y5292240D01*
X39664760Y5152340D01*
X39664756Y5152335D01*
X39554824Y4987810D01*
X39525081Y4916003D01*
X39479104Y4805006D01*
X39479103Y4805003D01*
X39440500Y4610939D01*
X39440500Y4413062D01*
X39457023Y4329998D01*
X39479103Y4218998D01*
X39554824Y4036191D01*
X39664754Y3871669D01*
X39804669Y3731754D01*
X39969191Y3621824D01*
X40151998Y3546103D01*
X40346065Y3507500D01*
X40543935Y3507500D01*
X40738002Y3546103D01*
X40920809Y3621824D01*
X41085331Y3731754D01*
X41225246Y3871669D01*
X41335176Y4036191D01*
X41410897Y4218998D01*
X41438513Y4357831D01*
X41449500Y4413063D01*
X41449500Y4610936D01*
X41449499Y4610939D01*
X41427420Y4721936D01*
X41410897Y4805002D01*
X41335176Y4987809D01*
X41225246Y5152331D01*
X41085331Y5292246D01*
X40993531Y5353585D01*
X40975973Y5374594D01*
X40920804Y5402179D01*
X40920676Y5402236D01*
X40920079Y5402479D01*
X40917306Y5403628D01*
X40894016Y5413275D01*
X40863175Y5431574D01*
X40850807Y5441541D01*
X40810316Y5499860D01*
X40810315Y5499864D01*
X40805946Y5512993D01*
X40799500Y5552778D01*
X40799500Y7001038D01*
X40804601Y7036527D01*
X40807178Y7045305D01*
X40845559Y7105030D01*
X40910138Y7134526D01*
X40980413Y7124425D01*
X41030281Y7083496D01*
X41033327Y7079272D01*
X41047526Y7053808D01*
X41054821Y7036196D01*
X41054823Y7036193D01*
X41054824Y7036191D01*
X41164754Y6871669D01*
X41304669Y6731754D01*
X41469191Y6621824D01*
X41651998Y6546103D01*
X41846065Y6507500D01*
X42043935Y6507500D01*
X42238002Y6546103D01*
X42420809Y6621824D01*
X42585331Y6731754D01*
X42725246Y6871669D01*
X42835176Y7036191D01*
X42841157Y7050631D01*
X42859460Y7081481D01*
X42865196Y7088599D01*
X42923515Y7129087D01*
X42994466Y7131619D01*
X43055523Y7095390D01*
X43085921Y7038525D01*
X43087119Y7033458D01*
X43090500Y7004467D01*
X43090500Y5665731D01*
X43085395Y5630230D01*
X43080920Y5614991D01*
X43042541Y5555271D01*
X43032086Y5546211D01*
X42997789Y5525023D01*
X42969857Y5513453D01*
X42969233Y5513200D01*
X42969189Y5513176D01*
X42804673Y5403249D01*
X42804666Y5403245D01*
X42804660Y5403240D01*
X42664760Y5263340D01*
X42664756Y5263335D01*
X42559255Y5105442D01*
X42554824Y5098810D01*
X42479104Y4916006D01*
X42479103Y4916003D01*
X42440500Y4721939D01*
X42440500Y4524062D01*
X42462580Y4413062D01*
X42479103Y4329998D01*
X42554824Y4147191D01*
X42664754Y3982669D01*
X42804669Y3842754D01*
X42969191Y3732824D01*
X43151998Y3657103D01*
X43346065Y3618500D01*
X43543935Y3618500D01*
X43738002Y3657103D01*
X43920809Y3732824D01*
X44085331Y3842754D01*
X44225246Y3982669D01*
X44335176Y4147191D01*
X44410897Y4329998D01*
X44449500Y4524065D01*
X44449500Y4721935D01*
X44410897Y4916002D01*
X44335176Y5098809D01*
X44225246Y5263331D01*
X44085331Y5403246D01*
X43993531Y5464585D01*
X43975973Y5485594D01*
X43920804Y5513179D01*
X43920676Y5513236D01*
X43920079Y5513479D01*
X43917306Y5514628D01*
X43894016Y5524275D01*
X43863175Y5542574D01*
X43850807Y5552541D01*
X43810316Y5610860D01*
X43810315Y5610864D01*
X43805946Y5623993D01*
X43799500Y5663778D01*
X43799500Y6989038D01*
X43804601Y7024527D01*
X43807178Y7033305D01*
X43845559Y7093030D01*
X43910138Y7122526D01*
X43980413Y7112425D01*
X44030281Y7071496D01*
X44033255Y7067372D01*
X44033327Y7067272D01*
X44047526Y7041808D01*
X44054821Y7024196D01*
X44054823Y7024193D01*
X44054824Y7024191D01*
X44164754Y6859669D01*
X44304669Y6719754D01*
X44469191Y6609824D01*
X44651998Y6534103D01*
X44846065Y6495500D01*
X45043935Y6495500D01*
X45238002Y6534103D01*
X45420809Y6609824D01*
X45585331Y6719754D01*
X45725246Y6859669D01*
X45835176Y7024191D01*
X45841157Y7038631D01*
X45859460Y7069481D01*
X45865196Y7076599D01*
X45923515Y7117087D01*
X45994466Y7119619D01*
X46055523Y7083390D01*
X46085921Y7026525D01*
X46087119Y7021458D01*
X46090500Y6992467D01*
X46090500Y5554731D01*
X46085395Y5519230D01*
X46080920Y5503991D01*
X46042541Y5444271D01*
X46032086Y5435211D01*
X45997789Y5414023D01*
X45969857Y5402453D01*
X45969233Y5402200D01*
X45969189Y5402176D01*
X45804665Y5292244D01*
X45804660Y5292240D01*
X45664760Y5152340D01*
X45664756Y5152335D01*
X45554824Y4987810D01*
X45525081Y4916003D01*
X45479104Y4805006D01*
X45479103Y4805003D01*
X45440500Y4610939D01*
X45440500Y4413062D01*
X45457023Y4329998D01*
X45479103Y4218998D01*
X45554824Y4036191D01*
X45664754Y3871669D01*
X45804669Y3731754D01*
X45969191Y3621824D01*
X46151998Y3546103D01*
X46346065Y3507500D01*
X46543935Y3507500D01*
X46738002Y3546103D01*
X46920809Y3621824D01*
X47085331Y3731754D01*
X47225246Y3871669D01*
X47335176Y4036191D01*
X47410897Y4218998D01*
X47438513Y4357831D01*
X47449500Y4413063D01*
X47449500Y4610936D01*
X47449499Y4610939D01*
X47427420Y4721936D01*
X47410897Y4805002D01*
X47335176Y4987809D01*
X47225246Y5152331D01*
X47085331Y5292246D01*
X46993531Y5353585D01*
X46975973Y5374594D01*
X46920804Y5402179D01*
X46920676Y5402236D01*
X46920079Y5402479D01*
X46917306Y5403628D01*
X46894016Y5413275D01*
X46863175Y5431574D01*
X46850807Y5441541D01*
X46810316Y5499860D01*
X46810315Y5499864D01*
X46805946Y5512993D01*
X46799500Y5552778D01*
X46799500Y10854108D01*
X46804603Y10889602D01*
X46809077Y10904841D01*
X46847456Y10964567D01*
X46855891Y10971876D01*
X46880871Y10986483D01*
X46880275Y10987516D01*
X46914268Y11007142D01*
X46999420Y11056304D01*
X47088696Y11145580D01*
X47151823Y11254920D01*
X47184500Y11376873D01*
X47184500Y11503127D01*
X47151823Y11625080D01*
X47151821Y11625083D01*
X47151821Y11625085D01*
X47151819Y11625089D01*
X47151704Y11625518D01*
X47149810Y11628567D01*
X47088698Y11734417D01*
X47088690Y11734427D01*
X47088682Y11734435D01*
X47088675Y11734443D01*
X46999441Y11823677D01*
X46999432Y11823685D01*
X46999426Y11823691D01*
X46999416Y11823699D01*
X46999415Y11823700D01*
X46999414Y11823701D01*
X46890088Y11886820D01*
X46890086Y11886821D01*
X46890084Y11886822D01*
X46890081Y11886823D01*
X46890076Y11886825D01*
X46840794Y11900030D01*
X46840794Y11900029D01*
X46768127Y11919500D01*
X46768126Y11919500D01*
X46641874Y11919500D01*
X46641873Y11919500D01*
X46569206Y11900029D01*
X46569205Y11900030D01*
X46519913Y11886822D01*
X46519910Y11886821D01*
X46410584Y11823701D01*
X46410583Y11823700D01*
X46410557Y11823677D01*
X46321323Y11734443D01*
X46321300Y11734417D01*
X46321299Y11734416D01*
X46258180Y11625090D01*
X46258175Y11625078D01*
X46225569Y11503390D01*
X46219088Y11485019D01*
X46205114Y11453437D01*
X46178984Y11415325D01*
X46161346Y11397688D01*
X46161328Y11397668D01*
X46161324Y11397663D01*
X46114659Y11316837D01*
X46114658Y11316834D01*
X46090500Y11226679D01*
X46090500Y9385985D01*
X46085394Y9350479D01*
X46081420Y9336948D01*
X46043032Y9277224D01*
X45978495Y9247742D01*
X45976864Y9247507D01*
X45917681Y9253150D01*
X45884924Y9264489D01*
X45882283Y9264124D01*
X45868326Y9267029D01*
X45781518Y9290288D01*
X45655264Y9290288D01*
X45655263Y9290288D01*
X45580624Y9270289D01*
X45580623Y9270290D01*
X45533313Y9257613D01*
X45533301Y9257608D01*
X45423975Y9194489D01*
X45423974Y9194488D01*
X45423948Y9194465D01*
X45334714Y9105231D01*
X45334696Y9105210D01*
X45334693Y9105207D01*
X45271571Y8995878D01*
X45271568Y8995871D01*
X45262022Y8960243D01*
X45245059Y8896934D01*
X45238962Y8874181D01*
X45232479Y8855809D01*
X45218504Y8824225D01*
X45192375Y8786112D01*
X44960475Y8554213D01*
X44931766Y8532722D01*
X44908308Y8519913D01*
X44852178Y8505587D01*
X44852226Y8505107D01*
X44849090Y8504799D01*
X44847923Y8504500D01*
X44846061Y8504500D01*
X44677083Y8470887D01*
X44651997Y8465897D01*
X44651993Y8465896D01*
X44469190Y8390176D01*
X44304665Y8280244D01*
X44304660Y8280240D01*
X44164760Y8140340D01*
X44164756Y8140335D01*
X44054824Y7975812D01*
X44054820Y7975804D01*
X44048839Y7961364D01*
X44030536Y7930518D01*
X44024801Y7923402D01*
X43966481Y7882914D01*
X43895530Y7880383D01*
X43834473Y7916614D01*
X43804069Y7973509D01*
X43802871Y7978579D01*
X43799500Y8007533D01*
X43799500Y12007856D01*
X43804602Y12043348D01*
X43812135Y12069003D01*
X43843932Y12122594D01*
X44772488Y13051149D01*
X45702529Y13981192D01*
X45731229Y14002677D01*
X45758430Y14017529D01*
X45786194Y14028643D01*
X45793124Y14030500D01*
X45793127Y14030500D01*
X45915080Y14063177D01*
X45915083Y14063179D01*
X45915084Y14063179D01*
X45915086Y14063181D01*
X45915514Y14063295D01*
X45918550Y14065181D01*
X46012635Y14119500D01*
X46024420Y14126304D01*
X46113696Y14215580D01*
X46158209Y14292679D01*
X46176821Y14324916D01*
X46176821Y14324917D01*
X46176823Y14324920D01*
X46209500Y14446873D01*
X46209500Y14573127D01*
X46176823Y14695080D01*
X46176821Y14695083D01*
X46176821Y14695085D01*
X46176819Y14695089D01*
X46176704Y14695518D01*
X46174810Y14698567D01*
X46113698Y14804417D01*
X46113690Y14804427D01*
X46113682Y14804435D01*
X46113675Y14804443D01*
X46024441Y14893677D01*
X46024432Y14893685D01*
X46024426Y14893691D01*
X46024416Y14893699D01*
X46024415Y14893700D01*
X46024414Y14893701D01*
X45915088Y14956820D01*
X45915086Y14956821D01*
X45915084Y14956822D01*
X45915081Y14956823D01*
X45915076Y14956825D01*
X45867768Y14969501D01*
X45867768Y14969500D01*
X45793127Y14989500D01*
X45793126Y14989500D01*
X45666872Y14989500D01*
X45602617Y14972284D01*
X45602618Y14972283D01*
X45544910Y14956821D01*
X45435584Y14893701D01*
X45435582Y14893700D01*
X45435579Y14893697D01*
X45435561Y14893681D01*
X45421903Y14880022D01*
X45393191Y14858528D01*
X45379250Y14850916D01*
X45309880Y14835826D01*
X45308048Y14835957D01*
X45248914Y14855638D01*
X45242038Y14860057D01*
X45226136Y14872160D01*
X45224433Y14873684D01*
X45224426Y14873691D01*
X45224416Y14873699D01*
X45224414Y14873701D01*
X45115087Y14936821D01*
X45115084Y14936822D01*
X45106061Y14939240D01*
X45100677Y14940683D01*
X45100676Y14940683D01*
X44993127Y14969500D01*
X44993125Y14969500D01*
X44866873Y14969500D01*
X44759324Y14940684D01*
X44759323Y14940683D01*
X44753939Y14939240D01*
X44744914Y14936822D01*
X44680815Y14899814D01*
X44647520Y14886485D01*
X44632082Y14882740D01*
X44561167Y14886119D01*
X44549656Y14890103D01*
X44519881Y14906134D01*
X44519607Y14905724D01*
X44519603Y14905716D01*
X44519602Y14905717D01*
X44519452Y14905491D01*
X44516037Y14907773D01*
X44516031Y14907778D01*
X44516023Y14907783D01*
X44516018Y14907786D01*
X44406702Y14970900D01*
X44406699Y14970901D01*
X44397023Y14973494D01*
X44392292Y14974762D01*
X44392291Y14974762D01*
X44284742Y15003579D01*
X44284740Y15003579D01*
X44158487Y15003579D01*
X44083848Y14983580D01*
X44083847Y14983581D01*
X44036534Y14970903D01*
X44036524Y14970899D01*
X43927164Y14907759D01*
X43909597Y14899354D01*
X43891231Y14892254D01*
X43820480Y14886348D01*
X43820475Y14886349D01*
X43806920Y14889130D01*
X43769243Y14903440D01*
X43720088Y14931820D01*
X43720079Y14931824D01*
X43701417Y14936824D01*
X43701417Y14936825D01*
X43598127Y14964500D01*
X43471873Y14964500D01*
X43471872Y14964500D01*
X43397233Y14944501D01*
X43397232Y14944502D01*
X43349922Y14931825D01*
X43349910Y14931820D01*
X43240584Y14868701D01*
X43240583Y14868700D01*
X43240557Y14868677D01*
X43151323Y14779443D01*
X43151300Y14779417D01*
X43151299Y14779416D01*
X43088180Y14670090D01*
X43088177Y14670083D01*
X43055571Y14548393D01*
X43049088Y14530021D01*
X43035113Y14498437D01*
X43008984Y14460325D01*
X40372406Y11823746D01*
X40343701Y11802256D01*
X40333613Y11796747D01*
X40264239Y11781653D01*
X40197718Y11806461D01*
X40155169Y11863295D01*
X40155167Y11863301D01*
X40152444Y11870602D01*
X40144500Y11914633D01*
X40144500Y12446645D01*
X40149604Y12482142D01*
X40158330Y12511861D01*
X40170107Y12539364D01*
X40180187Y12556822D01*
X40225516Y12635335D01*
X40236821Y12654916D01*
X40236821Y12654917D01*
X40236823Y12654920D01*
X40269500Y12776873D01*
X40269500Y12903127D01*
X40236823Y13025080D01*
X40236821Y13025083D01*
X40236821Y13025085D01*
X40236819Y13025089D01*
X40236704Y13025518D01*
X40234810Y13028567D01*
X40173698Y13134417D01*
X40173690Y13134427D01*
X40173682Y13134435D01*
X40173675Y13134443D01*
X40084441Y13223677D01*
X40084432Y13223685D01*
X40084426Y13223691D01*
X40084416Y13223699D01*
X40084415Y13223700D01*
X40084414Y13223701D01*
X39975088Y13286820D01*
X39975086Y13286821D01*
X39975084Y13286822D01*
X39921793Y13301101D01*
X39921792Y13301102D01*
X39866947Y13315797D01*
X39853127Y13319500D01*
X39853126Y13319500D01*
X39726874Y13319500D01*
X39726873Y13319500D01*
X39658207Y13301101D01*
X39658206Y13301101D01*
X39604916Y13286823D01*
X39604911Y13286821D01*
X39495584Y13223701D01*
X39495583Y13223700D01*
X39495557Y13223677D01*
X39406323Y13134443D01*
X39406300Y13134417D01*
X39406299Y13134416D01*
X39343180Y13025090D01*
X39343178Y13025087D01*
X39343178Y13025085D01*
X39343177Y13025081D01*
X39334225Y12991677D01*
X39334226Y12991676D01*
X39310500Y12903128D01*
X39310500Y12776873D01*
X39337572Y12675837D01*
X39343176Y12654921D01*
X39343180Y12654912D01*
X39406166Y12545817D01*
X39414569Y12528253D01*
X39427022Y12496043D01*
X39435500Y12450607D01*
X39435500Y12057145D01*
X39430395Y12021644D01*
X39422864Y11995998D01*
X39391064Y11942404D01*
X38842406Y11393746D01*
X38813701Y11372256D01*
X38803613Y11366747D01*
X38734239Y11351653D01*
X38667718Y11376461D01*
X38625169Y11433295D01*
X38625167Y11433301D01*
X38624609Y11434796D01*
X38622443Y11440603D01*
X38614500Y11484633D01*
X38614500Y12921645D01*
X38619604Y12957142D01*
X38628330Y12986861D01*
X38640107Y13014364D01*
X38646295Y13025081D01*
X38694221Y13108092D01*
X38704808Y13126430D01*
X38706705Y13129485D01*
X38706820Y13129915D01*
X38706821Y13129916D01*
X38706821Y13129917D01*
X38706823Y13129920D01*
X38739500Y13251873D01*
X38739500Y13378127D01*
X38706823Y13500080D01*
X38706821Y13500083D01*
X38706821Y13500085D01*
X38706819Y13500089D01*
X38706704Y13500518D01*
X38704810Y13503567D01*
X38643698Y13609417D01*
X38643690Y13609427D01*
X38643682Y13609435D01*
X38643675Y13609443D01*
X38554441Y13698677D01*
X38554432Y13698685D01*
X38554426Y13698691D01*
X38554416Y13698699D01*
X38554415Y13698700D01*
X38554414Y13698701D01*
X38445087Y13761821D01*
X38445084Y13761822D01*
X38437880Y13763753D01*
X38430677Y13765683D01*
X38430676Y13765683D01*
X38323127Y13794500D01*
X38323125Y13794500D01*
X38196873Y13794500D01*
X38089324Y13765684D01*
X38089323Y13765683D01*
X38082119Y13763753D01*
X38074914Y13761822D01*
X38010375Y13724560D01*
X37977080Y13711231D01*
X37961642Y13707486D01*
X37890728Y13710865D01*
X37882216Y13713811D01*
X37834332Y13743785D01*
X37754426Y13823691D01*
X37754416Y13823699D01*
X37754415Y13823700D01*
X37754414Y13823701D01*
X37645088Y13886820D01*
X37645079Y13886824D01*
X37626626Y13891768D01*
X37626626Y13891769D01*
X37523127Y13919500D01*
X37396873Y13919500D01*
X37396870Y13919500D01*
X37396869Y13919500D01*
X37375591Y13913799D01*
X37339985Y13909543D01*
X37320874Y13909998D01*
X37258291Y13928375D01*
X37249249Y13933886D01*
X37225739Y13952377D01*
X37154419Y14023697D01*
X37154405Y14023706D01*
X37045087Y14086821D01*
X37045084Y14086822D01*
X37037880Y14088753D01*
X37030677Y14090683D01*
X37030676Y14090683D01*
X36923127Y14119500D01*
X36923125Y14119500D01*
X36796872Y14119500D01*
X36722233Y14099501D01*
X36722232Y14099502D01*
X36674922Y14086825D01*
X36674910Y14086820D01*
X36565584Y14023701D01*
X36565583Y14023700D01*
X36565557Y14023677D01*
X36476323Y13934443D01*
X36476300Y13934417D01*
X36476299Y13934416D01*
X36413180Y13825090D01*
X36413177Y13825083D01*
X36404237Y13791717D01*
X36381057Y13705205D01*
X36380571Y13703393D01*
X36374088Y13685021D01*
X36360113Y13653437D01*
X36333984Y13615325D01*
X34534245Y11815584D01*
X32727332Y10008671D01*
X32694331Y9975670D01*
X32661331Y9942672D01*
X32661325Y9942665D01*
X32661321Y9942659D01*
X32614660Y9861840D01*
X32614658Y9861834D01*
X32590500Y9771679D01*
X32590500Y8554731D01*
X32585395Y8519230D01*
X32580920Y8503991D01*
X32542541Y8444271D01*
X32532086Y8435211D01*
X32497789Y8414023D01*
X32469857Y8402453D01*
X32469233Y8402200D01*
X32469189Y8402176D01*
X32304665Y8292244D01*
X32304660Y8292240D01*
X32164760Y8152340D01*
X32164756Y8152335D01*
X32054824Y7987812D01*
X32054820Y7987804D01*
X32048839Y7973364D01*
X32030536Y7942518D01*
X32024801Y7935402D01*
X31966481Y7894914D01*
X31895530Y7892383D01*
X31834473Y7928614D01*
X31804069Y7985509D01*
X31802871Y7990579D01*
X31799500Y8019533D01*
X31799500Y13569462D01*
X31804601Y13604951D01*
X31807841Y13615985D01*
X31846220Y13675709D01*
X31910800Y13705205D01*
X31981073Y13695105D01*
X31988173Y13691862D01*
X32024922Y13666345D01*
X32034892Y13656375D01*
X32138978Y13586827D01*
X32254631Y13538922D01*
X32377409Y13514500D01*
X32377410Y13514500D01*
X32502590Y13514500D01*
X32502591Y13514500D01*
X32625369Y13538922D01*
X32741022Y13586827D01*
X32845108Y13656375D01*
X32933625Y13744892D01*
X33003173Y13848978D01*
X33051078Y13964631D01*
X33075500Y14087409D01*
X33075500Y14212591D01*
X33051078Y14335369D01*
X33003173Y14451022D01*
X32933625Y14555108D01*
X31235108Y16253625D01*
X31131022Y16323173D01*
X31072912Y16347243D01*
X31015372Y16371077D01*
X31015369Y16371078D01*
X30892596Y16395500D01*
X30892593Y16395500D01*
X30892591Y16395500D01*
X28922591Y16395500D01*
X28797409Y16395500D01*
X28797406Y16395500D01*
X28797402Y16395500D01*
X28674629Y16371078D01*
X28674628Y16371078D01*
X28674623Y16371076D01*
X28617084Y16347243D01*
X28582340Y16338375D01*
X28574593Y16337542D01*
X28570371Y16337089D01*
X28500503Y16349692D01*
X28448540Y16398069D01*
X28430931Y16465170D01*
X28431173Y16476046D01*
X28436566Y16509804D01*
X28490615Y16687977D01*
X28566416Y17069055D01*
X28604500Y17455728D01*
X28604500Y17844272D01*
X28566416Y18230945D01*
X28516333Y18482726D01*
X28490618Y18612011D01*
X28490616Y18612015D01*
X28490615Y18612024D01*
X28377826Y18983838D01*
X28229137Y19342806D01*
X28045978Y19685471D01*
X27830605Y20007800D01*
X27830147Y20008497D01*
X27677777Y20194160D01*
X27583638Y20308868D01*
X27583612Y20308897D01*
X27583596Y20308913D01*
X27583580Y20308930D01*
X27308928Y20583582D01*
X27308910Y20583599D01*
X27308896Y20583613D01*
X27308876Y20583631D01*
X27308876Y20583632D01*
X27008542Y20830109D01*
X27008535Y20830115D01*
X26796704Y20971655D01*
X26685475Y21045976D01*
X26342806Y21229137D01*
X25983842Y21377825D01*
X25983838Y21377826D01*
X25983831Y21377829D01*
X25982345Y21378320D01*
X25980840Y21378736D01*
X25613680Y21490113D01*
X25613584Y21490143D01*
X25612026Y21490615D01*
X25612016Y21490618D01*
X25612010Y21490619D01*
X25230950Y21566415D01*
X25230945Y21566416D01*
X25230940Y21566417D01*
X25230930Y21566418D01*
X25230825Y21566429D01*
X24844284Y21604500D01*
X24844278Y21604500D01*
X24844272Y21604500D01*
X24455728Y21604500D01*
X24455721Y21604500D01*
X24455714Y21604500D01*
X24075212Y21567023D01*
X24070184Y21566776D01*
X24063776Y21566011D01*
X24061665Y21565849D01*
X24054480Y21563518D01*
X23688002Y21490623D01*
X23319158Y21378735D01*
X23317638Y21378315D01*
X23316167Y21377829D01*
X22957192Y21229137D01*
X22614523Y21045976D01*
X22291471Y20830120D01*
X22291456Y20830109D01*
X21991122Y20583632D01*
X21991122Y20583631D01*
X21991070Y20583582D01*
X21716418Y20308930D01*
X21716369Y20308878D01*
X21716368Y20308878D01*
X21469891Y20008544D01*
X21469880Y20008529D01*
X21254024Y19685477D01*
X21070863Y19342808D01*
X20922171Y18983833D01*
X20921685Y18982362D01*
X20921265Y18980842D01*
X20809377Y18611998D01*
X20733587Y18230967D01*
X20733584Y18230951D01*
X20733583Y18230945D01*
X20733577Y18230896D01*
X20695500Y17844286D01*
X20695500Y17455716D01*
X20733577Y17069106D01*
X20733583Y17069057D01*
X20733584Y17069051D01*
X20733587Y17069035D01*
X20809377Y16688004D01*
X20809380Y16687993D01*
X20809381Y16687990D01*
X20920047Y16323173D01*
X20921265Y16319160D01*
X20921685Y16317641D01*
X20922171Y16316169D01*
X20922174Y16316162D01*
X20922175Y16316158D01*
X21034172Y16045774D01*
X21070863Y15957194D01*
X21254024Y15614525D01*
X21379614Y15426565D01*
X21395090Y15394219D01*
X21399227Y15381010D01*
X21400495Y15310025D01*
X21363185Y15249623D01*
X21306880Y15220485D01*
X21300668Y15219075D01*
X21298693Y15218627D01*
X21270800Y15215500D01*
X2853538Y15215500D01*
X2818037Y15220605D01*
X2792391Y15228136D01*
X2738797Y15259936D01*
X1535216Y16463517D01*
X1513723Y16492227D01*
X1500912Y16515689D01*
X1485500Y16576074D01*
X1485500Y24042596D01*
X16444500Y24042596D01*
X16444500Y23687406D01*
X16468923Y23564626D01*
X16483170Y23530231D01*
X16483171Y23530231D01*
X16483171Y23530230D01*
X16516827Y23448978D01*
X16586375Y23344892D01*
X16674892Y23256375D01*
X16778978Y23186827D01*
X16894631Y23138922D01*
X17017409Y23114500D01*
X17017410Y23114500D01*
X17142590Y23114500D01*
X17142591Y23114500D01*
X17265369Y23138922D01*
X17381022Y23186827D01*
X17485108Y23256375D01*
X17573625Y23344892D01*
X17643173Y23448978D01*
X17691078Y23564631D01*
X17711799Y23668807D01*
X17723729Y23702623D01*
X17739341Y23732469D01*
X17761891Y23763160D01*
X20941859Y26943127D01*
X25570500Y26943127D01*
X25570500Y26935740D01*
X25570500Y26816873D01*
X25572309Y26810122D01*
X25572309Y26810119D01*
X25572310Y26810119D01*
X25603177Y26694919D01*
X25603180Y26694912D01*
X25666299Y26585586D01*
X25666300Y26585585D01*
X25666301Y26585584D01*
X25666309Y26585574D01*
X25666315Y26585568D01*
X25666323Y26585559D01*
X25755572Y26496310D01*
X25755578Y26496306D01*
X25755580Y26496304D01*
X25755581Y26496303D01*
X25755583Y26496302D01*
X25756284Y26495797D01*
X25758850Y26494416D01*
X25861432Y26435190D01*
X25864482Y26433295D01*
X25864918Y26433179D01*
X25864920Y26433177D01*
X25986610Y26400571D01*
X26004958Y26394098D01*
X26036554Y26380121D01*
X26074673Y26353988D01*
X26655783Y25772878D01*
X26677274Y25744171D01*
X26690086Y25720709D01*
X26705500Y25660321D01*
X26705500Y24337325D01*
X26700396Y24301827D01*
X26693773Y24279271D01*
X26665614Y24229470D01*
X26643378Y24205295D01*
X26639737Y24201499D01*
X26572453Y24134215D01*
X26572438Y24134198D01*
X26572437Y24134197D01*
X26509317Y24024869D01*
X26508961Y24023926D01*
X26508265Y24020944D01*
X26476638Y23902909D01*
X26476638Y23776654D01*
X26483918Y23749482D01*
X26483919Y23749482D01*
X26483919Y23749481D01*
X26505537Y23668803D01*
X26509316Y23654698D01*
X26509318Y23654693D01*
X26572437Y23545367D01*
X26572438Y23545366D01*
X26572439Y23545365D01*
X26572447Y23545355D01*
X26572453Y23545349D01*
X26572461Y23545340D01*
X26661710Y23456091D01*
X26661716Y23456087D01*
X26661718Y23456085D01*
X26661719Y23456084D01*
X26661721Y23456083D01*
X26662422Y23455578D01*
X26664988Y23454197D01*
X26767570Y23394971D01*
X26770620Y23393076D01*
X26771056Y23392960D01*
X26771058Y23392958D01*
X26893011Y23360281D01*
X26893013Y23360281D01*
X27019263Y23360281D01*
X27019265Y23360281D01*
X27141218Y23392958D01*
X27141221Y23392960D01*
X27141222Y23392960D01*
X27141223Y23392961D01*
X27141653Y23393076D01*
X27144697Y23394967D01*
X27238248Y23448978D01*
X27250558Y23456085D01*
X27279665Y23485193D01*
X27308365Y23506679D01*
X27322313Y23514295D01*
X27391680Y23529386D01*
X27393036Y23529289D01*
X27393571Y23529250D01*
X27452646Y23509576D01*
X27459263Y23505324D01*
X27480243Y23488418D01*
X28886329Y22082332D01*
X28952332Y22016329D01*
X28958038Y22010623D01*
X28958725Y22009936D01*
X28960336Y22008377D01*
X30430809Y20537904D01*
X30452300Y20509197D01*
X30465112Y20485735D01*
X30480526Y20425347D01*
X30480526Y19810859D01*
X30504684Y19720704D01*
X30504686Y19720698D01*
X30551347Y19639879D01*
X30551351Y19639873D01*
X30551352Y19639872D01*
X30551360Y19639862D01*
X32387468Y17803754D01*
X32408956Y17775050D01*
X32413224Y17767235D01*
X32424124Y17747273D01*
X32435117Y17716989D01*
X32435711Y17717148D01*
X32436778Y17713164D01*
X32436779Y17713161D01*
X32453427Y17651029D01*
X32469459Y17591198D01*
X32469461Y17591193D01*
X32532580Y17481867D01*
X32532581Y17481866D01*
X32532582Y17481865D01*
X32532590Y17481855D01*
X32532596Y17481849D01*
X32532604Y17481840D01*
X32621853Y17392591D01*
X32621859Y17392587D01*
X32621861Y17392585D01*
X32621862Y17392584D01*
X32621864Y17392583D01*
X32622565Y17392078D01*
X32625131Y17390697D01*
X32727713Y17331471D01*
X32730763Y17329576D01*
X32731199Y17329460D01*
X32731201Y17329458D01*
X32849463Y17297770D01*
X32867794Y17291304D01*
X32887461Y17282606D01*
X32941667Y17236759D01*
X32941670Y17236755D01*
X32949285Y17225211D01*
X32965812Y17188449D01*
X32969077Y17176265D01*
X33030978Y17069050D01*
X33032201Y17066932D01*
X33032209Y17066922D01*
X33032212Y17066919D01*
X33032223Y17066907D01*
X33121472Y16977658D01*
X33121478Y16977654D01*
X33121480Y16977652D01*
X33121481Y16977651D01*
X33121483Y16977650D01*
X33122184Y16977145D01*
X33124750Y16975764D01*
X33227332Y16916538D01*
X33230382Y16914643D01*
X33230818Y16914527D01*
X33230820Y16914525D01*
X33352773Y16881848D01*
X33352775Y16881848D01*
X33479025Y16881848D01*
X33479027Y16881848D01*
X33600980Y16914525D01*
X33600983Y16914527D01*
X33600984Y16914527D01*
X33600986Y16914529D01*
X33601414Y16914643D01*
X33604450Y16916529D01*
X33702134Y16972926D01*
X33710320Y16977652D01*
X33716225Y16983559D01*
X33744930Y17005049D01*
X33761716Y17014215D01*
X33825099Y17029592D01*
X33835686Y17029340D01*
X33865287Y17025083D01*
X33975692Y16995500D01*
X33975695Y16995500D01*
X34101944Y16995500D01*
X34101946Y16995500D01*
X34223899Y17028177D01*
X34223902Y17028179D01*
X34223903Y17028179D01*
X34223904Y17028180D01*
X34224334Y17028295D01*
X34227384Y17030189D01*
X34291025Y17066932D01*
X34333239Y17091304D01*
X34422515Y17180580D01*
X34472779Y17267641D01*
X34483629Y17286435D01*
X34485524Y17289485D01*
X34485640Y17289917D01*
X34485642Y17289920D01*
X34518319Y17411873D01*
X34518319Y17538127D01*
X34485642Y17660080D01*
X34485640Y17660083D01*
X34485640Y17660085D01*
X34485639Y17660087D01*
X34485523Y17660520D01*
X34483617Y17663589D01*
X34476605Y17675734D01*
X34422651Y17769184D01*
X34414246Y17786754D01*
X34412625Y17790947D01*
X34408514Y17801584D01*
X34401793Y17818972D01*
X34393319Y17864399D01*
X34393319Y17937853D01*
X34390618Y17947930D01*
X34383239Y17975469D01*
X34369160Y18028013D01*
X34322490Y18108849D01*
X34256487Y18174852D01*
X31939242Y20492097D01*
X31917749Y20520807D01*
X31904938Y20544269D01*
X31889526Y20604654D01*
X31889526Y20971646D01*
X31889523Y20971655D01*
X31865365Y21061810D01*
X31865364Y21061814D01*
X31818703Y21142633D01*
X31818701Y21142637D01*
X31818689Y21142650D01*
X31752694Y21208645D01*
X30504660Y22456679D01*
X40835500Y22456679D01*
X40835500Y17975467D01*
X40859658Y17885311D01*
X40859659Y17885309D01*
X40904440Y17807746D01*
X40905954Y17804933D01*
X40906193Y17804611D01*
X40906328Y17804476D01*
X40906329Y17804475D01*
X41415976Y17294828D01*
X41437466Y17266121D01*
X41452633Y17238345D01*
X41463623Y17208059D01*
X41464221Y17208219D01*
X41465288Y17204235D01*
X41465289Y17204232D01*
X41471627Y17180580D01*
X41497969Y17082269D01*
X41497971Y17082264D01*
X41561090Y16972938D01*
X41561091Y16972937D01*
X41561092Y16972936D01*
X41561100Y16972926D01*
X41561106Y16972920D01*
X41561114Y16972911D01*
X41650363Y16883662D01*
X41650369Y16883658D01*
X41650371Y16883656D01*
X41650372Y16883655D01*
X41650374Y16883654D01*
X41651075Y16883149D01*
X41653641Y16881768D01*
X41756223Y16822542D01*
X41759273Y16820647D01*
X41759709Y16820531D01*
X41759711Y16820529D01*
X41881664Y16787852D01*
X41881666Y16787852D01*
X42007916Y16787852D01*
X42007918Y16787852D01*
X42129871Y16820529D01*
X42129874Y16820531D01*
X42129875Y16820531D01*
X42129876Y16820532D01*
X42130306Y16820647D01*
X42133356Y16822541D01*
X42236079Y16881848D01*
X42239211Y16883656D01*
X42328487Y16972932D01*
X42352321Y17014214D01*
X42361662Y17030393D01*
X42382750Y17066919D01*
X42389598Y17078780D01*
X42391496Y17081836D01*
X42391612Y17082270D01*
X42391614Y17082272D01*
X42424291Y17204225D01*
X42424291Y17330479D01*
X42391614Y17452432D01*
X42391612Y17452435D01*
X42391612Y17452437D01*
X42391610Y17452441D01*
X42391495Y17452870D01*
X42389601Y17455919D01*
X42328489Y17561769D01*
X42328481Y17561779D01*
X42328473Y17561787D01*
X42328466Y17561795D01*
X42239232Y17651029D01*
X42239223Y17651037D01*
X42239217Y17651043D01*
X42239207Y17651051D01*
X42239206Y17651052D01*
X42239205Y17651053D01*
X42129879Y17714172D01*
X42129877Y17714173D01*
X42129875Y17714174D01*
X42129872Y17714175D01*
X42129867Y17714177D01*
X42008176Y17746784D01*
X41989814Y17753262D01*
X41958226Y17767238D01*
X41920116Y17793366D01*
X41594216Y18119266D01*
X41572723Y18147976D01*
X41559912Y18171438D01*
X41544500Y18231823D01*
X41544500Y22192856D01*
X41548820Y22207571D01*
X41548132Y22222890D01*
X41549594Y22228321D01*
X41557135Y22254003D01*
X41588930Y22307592D01*
X41612531Y22331193D01*
X41641225Y22352674D01*
X41668426Y22367528D01*
X41696192Y22378643D01*
X41703121Y22380500D01*
X41703123Y22380500D01*
X41703127Y22380500D01*
X41825080Y22413177D01*
X41825083Y22413179D01*
X41825084Y22413179D01*
X41900421Y22456675D01*
X41934420Y22476304D01*
X42023696Y22565580D01*
X42086823Y22674920D01*
X42119500Y22796873D01*
X42119500Y22923127D01*
X42086823Y23045080D01*
X42086821Y23045083D01*
X42086821Y23045085D01*
X42086819Y23045089D01*
X42086704Y23045518D01*
X42084810Y23048567D01*
X42023698Y23154417D01*
X42023690Y23154427D01*
X42023682Y23154435D01*
X42023675Y23154443D01*
X41934441Y23243677D01*
X41934432Y23243685D01*
X41934426Y23243691D01*
X41934416Y23243699D01*
X41934415Y23243700D01*
X41934414Y23243701D01*
X41825087Y23306821D01*
X41825084Y23306822D01*
X41817880Y23308753D01*
X41810677Y23310683D01*
X41810676Y23310683D01*
X41703127Y23339500D01*
X41703125Y23339500D01*
X41576872Y23339500D01*
X41502233Y23319501D01*
X41502232Y23319502D01*
X41454922Y23306825D01*
X41454910Y23306820D01*
X41345584Y23243701D01*
X41345583Y23243700D01*
X41345557Y23243677D01*
X41256323Y23154443D01*
X41256300Y23154417D01*
X41256299Y23154416D01*
X41193180Y23045090D01*
X41193177Y23045083D01*
X41160571Y22923393D01*
X41154088Y22905020D01*
X41140112Y22873434D01*
X41113984Y22835323D01*
X40972332Y22693671D01*
X40953581Y22674920D01*
X40953579Y22674918D01*
X40906335Y22627676D01*
X40906323Y22627663D01*
X40906321Y22627659D01*
X40859660Y22546840D01*
X40859658Y22546834D01*
X40835500Y22456679D01*
X30504660Y22456679D01*
X30134216Y22827123D01*
X30112723Y22855833D01*
X30099912Y22879295D01*
X30084500Y22939680D01*
X30084500Y23906419D01*
X39425501Y23906419D01*
X39425501Y23899834D01*
X39425501Y23773581D01*
X39440724Y23716767D01*
X39459880Y23645273D01*
X39459883Y23645266D01*
X39506436Y23564635D01*
X39506437Y23564632D01*
X39526300Y23530227D01*
X39620224Y23436303D01*
X39620228Y23436301D01*
X39620230Y23436299D01*
X39735271Y23369881D01*
X39863581Y23335501D01*
X39863583Y23335501D01*
X39996417Y23335501D01*
X39996419Y23335501D01*
X40124729Y23369881D01*
X40239770Y23436299D01*
X42753701Y25950230D01*
X42804354Y26037964D01*
X42820119Y26065270D01*
X42854500Y26193581D01*
X42854500Y26406419D01*
X42820119Y26534730D01*
X42753700Y26649770D01*
X42753698Y26649772D01*
X42753694Y26649777D01*
X42753691Y26649781D01*
X42659791Y26743681D01*
X42659782Y26743689D01*
X42659776Y26743695D01*
X42659766Y26743703D01*
X42544730Y26810119D01*
X42544728Y26810120D01*
X42544727Y26810120D01*
X42510347Y26819332D01*
X42416419Y26844500D01*
X42416417Y26844500D01*
X41469276Y26844500D01*
X41433775Y26849605D01*
X41408129Y26857136D01*
X41354536Y26888935D01*
X40689770Y27553701D01*
X40689767Y27553703D01*
X40689766Y27553704D01*
X40665459Y27567737D01*
X40574733Y27620118D01*
X40574723Y27620122D01*
X40531960Y27631579D01*
X40446419Y27654499D01*
X40313581Y27654499D01*
X40313580Y27654499D01*
X40249425Y27637309D01*
X40185270Y27620120D01*
X40185265Y27620118D01*
X40070232Y27553703D01*
X40070220Y27553695D01*
X39976305Y27459780D01*
X39976297Y27459768D01*
X39909882Y27344735D01*
X39909880Y27344729D01*
X39898591Y27302595D01*
X39875501Y27216420D01*
X39875501Y27083581D01*
X39887044Y27040500D01*
X39887050Y27040479D01*
X39909880Y26955272D01*
X39909880Y26955270D01*
X39934501Y26912626D01*
X39952527Y26881405D01*
X39976299Y26840230D01*
X39976300Y26840229D01*
X39976303Y26840224D01*
X40880217Y25936310D01*
X40880225Y25936304D01*
X40880227Y25936302D01*
X40880230Y25936299D01*
X40880232Y25936298D01*
X40936728Y25903680D01*
X40936730Y25903680D01*
X40941485Y25900934D01*
X40992583Y25871432D01*
X41008637Y25860428D01*
X41023720Y25848274D01*
X41064211Y25789958D01*
X41066747Y25719006D01*
X41066742Y25718987D01*
X41065425Y25713830D01*
X41032438Y25655912D01*
X39526309Y24149784D01*
X39526305Y24149780D01*
X39526297Y24149768D01*
X39459882Y24034735D01*
X39459879Y24034727D01*
X39440041Y23960688D01*
X39440028Y23960637D01*
X39439598Y23959029D01*
X39425501Y23906419D01*
X30084500Y23906419D01*
X30084500Y24550734D01*
X30084501Y24550759D01*
X30084501Y24656672D01*
X30084495Y24656696D01*
X30060343Y24746829D01*
X30013670Y24827670D01*
X29553840Y25287500D01*
X29064213Y25777127D01*
X29042723Y25805834D01*
X29029912Y25829296D01*
X29014500Y25889681D01*
X29014500Y25900935D01*
X29005024Y25936298D01*
X29005022Y25936306D01*
X28990341Y25991095D01*
X28990339Y25991098D01*
X28990339Y25991100D01*
X28963282Y26037965D01*
X28963282Y26037964D01*
X28943673Y26071928D01*
X28943669Y26071933D01*
X28877668Y26137934D01*
X28773709Y26241893D01*
X28752216Y26270603D01*
X28739405Y26294065D01*
X28723993Y26354450D01*
X28723993Y26460385D01*
X28729096Y26495879D01*
X28733570Y26511118D01*
X28771949Y26570844D01*
X28773358Y26572064D01*
X28829079Y26599951D01*
X28836763Y26601622D01*
X28863541Y26604500D01*
X30182590Y26604500D01*
X30182591Y26604500D01*
X30305369Y26628922D01*
X30421022Y26676827D01*
X30525108Y26746375D01*
X30613625Y26834892D01*
X30683173Y26938978D01*
X30731078Y27054631D01*
X30755500Y27177409D01*
X30755500Y27302591D01*
X30755499Y27302594D01*
X30745731Y27351703D01*
X30731078Y27425369D01*
X30717259Y27458730D01*
X30708389Y27493482D01*
X30706882Y27507501D01*
X30719488Y27577369D01*
X30767864Y27629329D01*
X30772448Y27632049D01*
X30836738Y27649684D01*
X31100855Y27649684D01*
X31191016Y27673843D01*
X31271852Y27720513D01*
X32364466Y28813127D01*
X44160500Y28813127D01*
X44160500Y28806192D01*
X44160500Y28686873D01*
X44177555Y28623221D01*
X44177567Y28623179D01*
X44193179Y28564912D01*
X44256166Y28455816D01*
X44264569Y28438254D01*
X44277022Y28406045D01*
X44285500Y28360607D01*
X44285500Y25353357D01*
X44280396Y25317857D01*
X44271482Y25287500D01*
X44257835Y25258308D01*
X44258369Y25258000D01*
X44193179Y25145088D01*
X44192823Y25144145D01*
X44192127Y25141163D01*
X44160500Y25023128D01*
X44160500Y24896873D01*
X44179042Y24827669D01*
X44193176Y24774919D01*
X44256299Y24665586D01*
X44256300Y24665585D01*
X44256301Y24665584D01*
X44256309Y24665574D01*
X44256315Y24665568D01*
X44256323Y24665559D01*
X44345572Y24576310D01*
X44345578Y24576306D01*
X44345580Y24576304D01*
X44345581Y24576303D01*
X44345583Y24576302D01*
X44346284Y24575797D01*
X44348850Y24574416D01*
X44451432Y24515190D01*
X44454482Y24513295D01*
X44454918Y24513179D01*
X44454920Y24513177D01*
X44576873Y24480500D01*
X44576875Y24480500D01*
X44703125Y24480500D01*
X44703127Y24480500D01*
X44825080Y24513177D01*
X44825083Y24513179D01*
X44825084Y24513179D01*
X44825085Y24513180D01*
X44825515Y24513295D01*
X44828559Y24515186D01*
X44894364Y24553178D01*
X44934420Y24576304D01*
X45023696Y24665580D01*
X45086823Y24774920D01*
X45119500Y24896873D01*
X45119500Y25023127D01*
X45086823Y25145080D01*
X45086821Y25145083D01*
X45086821Y25145085D01*
X45086820Y25145087D01*
X45086704Y25145520D01*
X45084798Y25148589D01*
X45023834Y25254181D01*
X45015427Y25271754D01*
X45002974Y25303972D01*
X44994500Y25349399D01*
X44994500Y28356645D01*
X44999604Y28392142D01*
X45008330Y28421861D01*
X45020107Y28449364D01*
X45071139Y28537754D01*
X45084793Y28561404D01*
X45086704Y28564482D01*
X45086819Y28564914D01*
X45086821Y28564916D01*
X45086821Y28564917D01*
X45086823Y28564920D01*
X45119500Y28686873D01*
X45119500Y28813127D01*
X45086823Y28935080D01*
X45086821Y28935083D01*
X45086821Y28935085D01*
X45086819Y28935089D01*
X45086704Y28935518D01*
X45084810Y28938567D01*
X45023698Y29044417D01*
X45023690Y29044427D01*
X45023682Y29044435D01*
X45023675Y29044443D01*
X44934441Y29133677D01*
X44934432Y29133685D01*
X44934426Y29133691D01*
X44934416Y29133699D01*
X44934415Y29133700D01*
X44934414Y29133701D01*
X44825087Y29196821D01*
X44825084Y29196822D01*
X44817880Y29198753D01*
X44810677Y29200683D01*
X44810676Y29200683D01*
X44703127Y29229500D01*
X44703125Y29229500D01*
X44576872Y29229500D01*
X44502233Y29209501D01*
X44502232Y29209502D01*
X44454922Y29196825D01*
X44454910Y29196820D01*
X44345584Y29133701D01*
X44345583Y29133700D01*
X44345557Y29133677D01*
X44256323Y29044443D01*
X44256300Y29044417D01*
X44256299Y29044416D01*
X44193179Y28935089D01*
X44193177Y28935084D01*
X44180092Y28886246D01*
X44179737Y28884920D01*
X44160500Y28813127D01*
X32364466Y28813127D01*
X32697641Y29146302D01*
X34056589Y30505252D01*
X34085288Y30526735D01*
X34108759Y30539551D01*
X34161414Y30552989D01*
X34161297Y30553882D01*
X34168768Y30554866D01*
X34169138Y30554960D01*
X34169484Y30554960D01*
X34169486Y30554960D01*
X34291439Y30587637D01*
X34291442Y30587639D01*
X34291443Y30587639D01*
X34291444Y30587640D01*
X34291874Y30587755D01*
X34294924Y30589649D01*
X34349276Y30621029D01*
X34400779Y30650764D01*
X34490055Y30740040D01*
X34553182Y30849380D01*
X34585859Y30971333D01*
X34585859Y31097587D01*
X34553182Y31219540D01*
X34553180Y31219543D01*
X34553180Y31219545D01*
X34553178Y31219549D01*
X34553063Y31219978D01*
X34551169Y31223027D01*
X34490057Y31328877D01*
X34490049Y31328887D01*
X34490041Y31328895D01*
X34490034Y31328903D01*
X34400800Y31418137D01*
X34400791Y31418145D01*
X34400785Y31418151D01*
X34400775Y31418159D01*
X34400774Y31418160D01*
X34400773Y31418161D01*
X34291446Y31481281D01*
X34291443Y31481282D01*
X34284239Y31483213D01*
X34277036Y31485143D01*
X34277035Y31485143D01*
X34169486Y31513960D01*
X34169484Y31513960D01*
X34078331Y31513960D01*
X34042831Y31519065D01*
X34029530Y31522971D01*
X34024484Y31524452D01*
X33968798Y31558396D01*
X33961492Y31566058D01*
X33943565Y31590006D01*
X33933827Y31606873D01*
X33923698Y31624417D01*
X33923690Y31624427D01*
X33923682Y31624435D01*
X33923675Y31624443D01*
X33834441Y31713677D01*
X33834432Y31713685D01*
X33834426Y31713691D01*
X33834416Y31713699D01*
X33834415Y31713700D01*
X33834414Y31713701D01*
X33725087Y31776821D01*
X33725084Y31776822D01*
X33717880Y31778753D01*
X33710677Y31780683D01*
X33710676Y31780683D01*
X33603127Y31809500D01*
X33603125Y31809500D01*
X33476872Y31809500D01*
X33402233Y31789501D01*
X33402232Y31789502D01*
X33354922Y31776825D01*
X33354910Y31776820D01*
X33245584Y31713701D01*
X33245583Y31713700D01*
X33245557Y31713677D01*
X33156323Y31624443D01*
X33156300Y31624417D01*
X33156299Y31624416D01*
X33093180Y31515090D01*
X33093177Y31515083D01*
X33085155Y31485143D01*
X33063044Y31402621D01*
X33060571Y31393393D01*
X33054088Y31375021D01*
X33040113Y31343437D01*
X33013984Y31305325D01*
X30627397Y28918737D01*
X30598688Y28897245D01*
X30584748Y28889633D01*
X30515390Y28874540D01*
X30513555Y28874671D01*
X30454403Y28894356D01*
X30447783Y28898610D01*
X30426822Y28915503D01*
X30380266Y28962059D01*
X30380256Y28962067D01*
X30380255Y28962068D01*
X30380254Y28962069D01*
X30270927Y29025189D01*
X30270924Y29025190D01*
X30263720Y29027121D01*
X30256517Y29029051D01*
X30256516Y29029051D01*
X30148967Y29057868D01*
X30148965Y29057868D01*
X30022712Y29057868D01*
X29948073Y29037869D01*
X29948072Y29037870D01*
X29900762Y29025193D01*
X29900752Y29025189D01*
X29827211Y28982730D01*
X29823885Y28981924D01*
X29824210Y28981328D01*
X29764580Y28948782D01*
X29695203Y28933704D01*
X29695202Y28933704D01*
X29693353Y28933837D01*
X29634245Y28953522D01*
X29627638Y28957769D01*
X29606674Y28974665D01*
X29078815Y29502524D01*
X29057323Y29531233D01*
X29042476Y29558423D01*
X29031356Y29586198D01*
X29029500Y29593126D01*
X29029500Y29593127D01*
X28996823Y29715080D01*
X28996821Y29715083D01*
X28996821Y29715085D01*
X28996819Y29715089D01*
X28996704Y29715518D01*
X28994810Y29718567D01*
X28933698Y29824417D01*
X28933690Y29824427D01*
X28933682Y29824435D01*
X28933675Y29824443D01*
X28844441Y29913677D01*
X28844432Y29913685D01*
X28844426Y29913691D01*
X28844416Y29913699D01*
X28844415Y29913700D01*
X28844414Y29913701D01*
X28735087Y29976821D01*
X28735084Y29976822D01*
X28727880Y29978753D01*
X28720677Y29980683D01*
X28720676Y29980683D01*
X28613127Y30009500D01*
X28613125Y30009500D01*
X28486872Y30009500D01*
X28412233Y29989501D01*
X28412232Y29989502D01*
X28364922Y29976825D01*
X28364910Y29976820D01*
X28255584Y29913701D01*
X28255583Y29913700D01*
X28255557Y29913677D01*
X28166323Y29824443D01*
X28166300Y29824417D01*
X28166299Y29824416D01*
X28103176Y29715083D01*
X28084907Y29646901D01*
X28070500Y29593132D01*
X28070500Y29466873D01*
X28097949Y29364430D01*
X28103176Y29344921D01*
X28103180Y29344912D01*
X28166299Y29235586D01*
X28166300Y29235585D01*
X28166301Y29235584D01*
X28166309Y29235574D01*
X28166315Y29235568D01*
X28166323Y29235559D01*
X28255572Y29146310D01*
X28255578Y29146306D01*
X28255580Y29146304D01*
X28255581Y29146303D01*
X28255583Y29146302D01*
X28256284Y29145797D01*
X28258850Y29144416D01*
X28361432Y29085190D01*
X28364482Y29083295D01*
X28364918Y29083179D01*
X28364920Y29083177D01*
X28486610Y29050571D01*
X28504958Y29044098D01*
X28536554Y29030121D01*
X28574673Y29003988D01*
X28965783Y28612878D01*
X28987274Y28584171D01*
X29000086Y28560709D01*
X29015500Y28500321D01*
X29015500Y28350862D01*
X29035365Y28276730D01*
X29035366Y28276726D01*
X29039660Y28260700D01*
X29046066Y28249604D01*
X29059392Y28216319D01*
X29060855Y28210290D01*
X29057482Y28139374D01*
X29016303Y28081539D01*
X28950394Y28055148D01*
X28880679Y28068580D01*
X28880300Y28068776D01*
X28876407Y28070783D01*
X28845055Y28093678D01*
X26705110Y30233623D01*
X26705108Y30233625D01*
X26601022Y30303173D01*
X26485374Y30351076D01*
X26485369Y30351078D01*
X26403151Y30367433D01*
X26362594Y30375500D01*
X26362593Y30375500D01*
X26362591Y30375500D01*
X26237409Y30375500D01*
X26237406Y30375500D01*
X26237404Y30375500D01*
X26156289Y30359365D01*
X26114630Y30351078D01*
X26114628Y30351078D01*
X26114626Y30351077D01*
X25998977Y30303173D01*
X25894888Y30233623D01*
X25894883Y30233619D01*
X25806381Y30145117D01*
X25806377Y30145112D01*
X25736827Y30041023D01*
X25688923Y29925374D01*
X25688922Y29925372D01*
X25688922Y29925370D01*
X25686599Y29913691D01*
X25665458Y29807409D01*
X25664500Y29802594D01*
X25664500Y29802591D01*
X25664500Y29677409D01*
X25688922Y29554631D01*
X25736827Y29438978D01*
X25806375Y29334892D01*
X25806377Y29334890D01*
X27561978Y27579289D01*
X27566305Y27571365D01*
X27583468Y27550584D01*
X27588977Y27540496D01*
X27592829Y27522792D01*
X27596004Y27516977D01*
X27595531Y27510371D01*
X27604071Y27471122D01*
X27579263Y27404601D01*
X27522437Y27362055D01*
X27517774Y27360316D01*
X27515134Y27359331D01*
X27471091Y27351382D01*
X27280262Y27351382D01*
X27244764Y27356486D01*
X27219119Y27364016D01*
X27165515Y27395823D01*
X27158807Y27402532D01*
X27137322Y27431235D01*
X27122475Y27458425D01*
X27114560Y27478193D01*
X27113054Y27480418D01*
X27113014Y27482055D01*
X27111355Y27486200D01*
X27109500Y27493121D01*
X27109500Y27493125D01*
X27109500Y27493126D01*
X27109500Y27493127D01*
X27076823Y27615080D01*
X27076821Y27615083D01*
X27076821Y27615085D01*
X27076819Y27615089D01*
X27076704Y27615518D01*
X27074810Y27618567D01*
X27013698Y27724417D01*
X27013690Y27724427D01*
X27013682Y27724435D01*
X27013675Y27724443D01*
X26924441Y27813677D01*
X26924432Y27813685D01*
X26924426Y27813691D01*
X26924416Y27813699D01*
X26924415Y27813700D01*
X26924414Y27813701D01*
X26815087Y27876821D01*
X26815084Y27876822D01*
X26807880Y27878753D01*
X26800677Y27880683D01*
X26800676Y27880683D01*
X26693127Y27909500D01*
X26693125Y27909500D01*
X26566872Y27909500D01*
X26492233Y27889501D01*
X26492232Y27889502D01*
X26444922Y27876825D01*
X26444910Y27876820D01*
X26335584Y27813701D01*
X26335583Y27813700D01*
X26335557Y27813677D01*
X26246323Y27724443D01*
X26246300Y27724417D01*
X26246299Y27724416D01*
X26183180Y27615090D01*
X26183179Y27615087D01*
X26183178Y27615085D01*
X26158449Y27522792D01*
X26150498Y27493119D01*
X26149953Y27488977D01*
X26145928Y27469930D01*
X26140921Y27452878D01*
X26102537Y27393152D01*
X26102525Y27393142D01*
X26101134Y27391937D01*
X26045431Y27364054D01*
X26037749Y27362382D01*
X26010952Y27359500D01*
X25986872Y27359500D01*
X25931746Y27344730D01*
X25931747Y27344729D01*
X25864910Y27326821D01*
X25755584Y27263701D01*
X25755583Y27263700D01*
X25755557Y27263677D01*
X25666323Y27174443D01*
X25666300Y27174417D01*
X25666299Y27174416D01*
X25603179Y27065088D01*
X25602823Y27064145D01*
X25602629Y27063315D01*
X25602592Y27062953D01*
X25602349Y27061992D01*
X25570500Y26943127D01*
X20941859Y26943127D01*
X23463625Y29464892D01*
X23533173Y29568978D01*
X23581078Y29684631D01*
X23605500Y29807409D01*
X23605500Y29932591D01*
X23581078Y30055369D01*
X23533173Y30171022D01*
X23463625Y30275108D01*
X23375108Y30363625D01*
X23271022Y30433173D01*
X23155374Y30481076D01*
X23155372Y30481077D01*
X23155369Y30481078D01*
X23032596Y30505500D01*
X23032593Y30505500D01*
X23032591Y30505500D01*
X22907409Y30505500D01*
X22907406Y30505500D01*
X22907404Y30505500D01*
X22826289Y30489365D01*
X22784630Y30481078D01*
X22784628Y30481078D01*
X22784626Y30481077D01*
X22668977Y30433173D01*
X22564888Y30363623D01*
X22564883Y30363619D01*
X16586381Y24385117D01*
X16586377Y24385112D01*
X16516827Y24281023D01*
X16468923Y24165374D01*
X16468922Y24165372D01*
X16468922Y24165370D01*
X16465822Y24149784D01*
X16444500Y24042596D01*
X1485500Y24042596D01*
X1485500Y30365945D01*
X6679506Y30365945D01*
X6719879Y30215274D01*
X6719880Y30215271D01*
X6719881Y30215270D01*
X6786297Y30100234D01*
X6786305Y30100224D01*
X6786311Y30100218D01*
X6786319Y30100209D01*
X6880219Y30006309D01*
X6880223Y30006306D01*
X6880228Y30006302D01*
X6880230Y30006300D01*
X6995270Y29939881D01*
X7123581Y29905500D01*
X7123583Y29905500D01*
X7256417Y29905500D01*
X7256419Y29905500D01*
X7384730Y29939881D01*
X7499770Y30006300D01*
X7593700Y30100230D01*
X7660119Y30215270D01*
X7694500Y30343581D01*
X7694500Y30550724D01*
X7699602Y30586216D01*
X7707135Y30611871D01*
X7738933Y30665463D01*
X8429257Y31355787D01*
X8457960Y31377275D01*
X8481426Y31390089D01*
X8541811Y31405500D01*
X8716417Y31405500D01*
X8716419Y31405500D01*
X8844730Y31439881D01*
X8916440Y31481283D01*
X8959770Y31506299D01*
X10066269Y32612798D01*
X11076599Y33623127D01*
X12290500Y33623127D01*
X12290500Y33615713D01*
X12290500Y33496873D01*
X12309332Y33426587D01*
X12323175Y33374924D01*
X12323180Y33374912D01*
X12386299Y33265586D01*
X12386300Y33265585D01*
X12386301Y33265584D01*
X12386309Y33265574D01*
X12386315Y33265568D01*
X12386323Y33265559D01*
X12475572Y33176310D01*
X12475578Y33176306D01*
X12475580Y33176304D01*
X12475581Y33176303D01*
X12475583Y33176302D01*
X12476284Y33175797D01*
X12478850Y33174416D01*
X12581432Y33115190D01*
X12584482Y33113295D01*
X12584918Y33113179D01*
X12584920Y33113177D01*
X12706610Y33080571D01*
X12724958Y33074098D01*
X12756554Y33060121D01*
X12794670Y33033991D01*
X13962325Y31866335D01*
X13962330Y31866331D01*
X13962332Y31866329D01*
X14043168Y31819659D01*
X14133329Y31795500D01*
X14226671Y31795500D01*
X16081856Y31795500D01*
X16117348Y31790398D01*
X16128379Y31787159D01*
X16188104Y31748777D01*
X16217598Y31684197D01*
X16207496Y31613923D01*
X16207494Y31613919D01*
X16204256Y31606829D01*
X16178738Y31570078D01*
X14207476Y29598817D01*
X14178769Y29577326D01*
X14150994Y29562159D01*
X14120706Y29551167D01*
X14120866Y29550570D01*
X14116882Y29549503D01*
X14116878Y29549502D01*
X14050630Y29531752D01*
X13994917Y29516823D01*
X13994910Y29516820D01*
X13885584Y29453701D01*
X13885583Y29453700D01*
X13885557Y29453677D01*
X13796323Y29364443D01*
X13796300Y29364417D01*
X13796299Y29364416D01*
X13733179Y29255088D01*
X13732823Y29254145D01*
X13732127Y29251163D01*
X13700653Y29133699D01*
X13700500Y29133127D01*
X13700500Y29006873D01*
X13721723Y28927668D01*
X13733178Y28884916D01*
X13733179Y28884914D01*
X13733180Y28884911D01*
X13796299Y28775586D01*
X13796300Y28775585D01*
X13796301Y28775584D01*
X13796309Y28775574D01*
X13796315Y28775568D01*
X13796323Y28775559D01*
X13885572Y28686310D01*
X13885578Y28686306D01*
X13885580Y28686304D01*
X13885581Y28686303D01*
X13885583Y28686302D01*
X13886284Y28685797D01*
X13888850Y28684416D01*
X13991432Y28625190D01*
X13994482Y28623295D01*
X13994918Y28623179D01*
X13994920Y28623177D01*
X14116873Y28590500D01*
X14116875Y28590500D01*
X14243125Y28590500D01*
X14243127Y28590500D01*
X14365080Y28623177D01*
X14365083Y28623179D01*
X14365084Y28623179D01*
X14365084Y28623180D01*
X14365516Y28623295D01*
X14368572Y28625193D01*
X14419750Y28654741D01*
X14474420Y28686304D01*
X14563696Y28775580D01*
X14626823Y28884920D01*
X14659430Y29006615D01*
X14665899Y29024953D01*
X14679880Y29056557D01*
X14706008Y29094671D01*
X16877125Y31265787D01*
X16905828Y31287275D01*
X16929294Y31300089D01*
X16989679Y31315500D01*
X19256645Y31315500D01*
X19292137Y31310398D01*
X19322506Y31301481D01*
X19351699Y31287831D01*
X19352009Y31288366D01*
X19355579Y31286305D01*
X19355583Y31286302D01*
X19461441Y31225185D01*
X19464483Y31223295D01*
X19464914Y31223180D01*
X19464915Y31223179D01*
X19464916Y31223179D01*
X19464917Y31223179D01*
X19464920Y31223177D01*
X19586873Y31190500D01*
X19586875Y31190500D01*
X19713125Y31190500D01*
X19713127Y31190500D01*
X19835080Y31223177D01*
X19835083Y31223179D01*
X19835084Y31223179D01*
X19835084Y31223180D01*
X19835516Y31223295D01*
X19838572Y31225193D01*
X19889750Y31254741D01*
X19944420Y31286304D01*
X20033696Y31375580D01*
X20070820Y31439881D01*
X20094806Y31481427D01*
X20096705Y31484483D01*
X20096821Y31484918D01*
X20096823Y31484920D01*
X20125619Y31592392D01*
X20139731Y31625347D01*
X20149684Y31641676D01*
X20196881Y31686679D01*
X20199241Y31687968D01*
X20206177Y31691756D01*
X20233961Y31702878D01*
X20235080Y31703177D01*
X20344420Y31766304D01*
X20433696Y31855580D01*
X20496823Y31964920D01*
X20529500Y32086873D01*
X20529500Y32213127D01*
X20496823Y32335080D01*
X20495941Y32338372D01*
X20491686Y32351414D01*
X20486782Y32371626D01*
X20490156Y32442539D01*
X20493104Y32451057D01*
X20523079Y32498942D01*
X20550966Y32526828D01*
X20624129Y32599993D01*
X20652833Y32621480D01*
X20680022Y32636327D01*
X20707793Y32647444D01*
X20714723Y32649301D01*
X20714728Y32649301D01*
X20836681Y32681978D01*
X20836684Y32681980D01*
X20836685Y32681980D01*
X20836685Y32681981D01*
X20837117Y32682096D01*
X20840173Y32683994D01*
X20891351Y32713542D01*
X20946021Y32745105D01*
X21035297Y32834381D01*
X21054051Y32866866D01*
X21098423Y32943718D01*
X21098424Y32943721D01*
X21130456Y33063271D01*
X21136925Y33081610D01*
X21148451Y33107669D01*
X21182901Y33153397D01*
X21185199Y33155317D01*
X21202974Y33167735D01*
X21304420Y33226304D01*
X21393696Y33315580D01*
X21456823Y33424920D01*
X21489500Y33546873D01*
X21489500Y33673127D01*
X21456823Y33795080D01*
X21456821Y33795083D01*
X21456821Y33795085D01*
X21456819Y33795089D01*
X21456704Y33795518D01*
X21454810Y33798567D01*
X21393698Y33904417D01*
X21393690Y33904427D01*
X21393682Y33904435D01*
X21393675Y33904443D01*
X21304441Y33993677D01*
X21304432Y33993685D01*
X21304426Y33993691D01*
X21304416Y33993699D01*
X21304415Y33993700D01*
X21304414Y33993701D01*
X21195087Y34056821D01*
X21195084Y34056822D01*
X21187880Y34058753D01*
X21180677Y34060683D01*
X21180676Y34060683D01*
X21073127Y34089500D01*
X21073125Y34089500D01*
X20946872Y34089500D01*
X20901285Y34077286D01*
X20901286Y34077285D01*
X20824910Y34056821D01*
X20715814Y33993833D01*
X20698250Y33985430D01*
X20666040Y33972977D01*
X20620606Y33964500D01*
X20105027Y33964500D01*
X20069523Y33969606D01*
X20063565Y33971356D01*
X20055990Y33973580D01*
X19996266Y34011968D01*
X19966779Y34076543D01*
X19965549Y34085097D01*
X19968561Y34135636D01*
X19971783Y34147659D01*
X19985603Y34199235D01*
X19985603Y34325489D01*
X19952926Y34447442D01*
X19952924Y34447445D01*
X19952924Y34447447D01*
X19952922Y34447451D01*
X19952807Y34447880D01*
X19950913Y34450929D01*
X19889801Y34556779D01*
X19889793Y34556789D01*
X19889785Y34556797D01*
X19889778Y34556805D01*
X19800544Y34646039D01*
X19800535Y34646047D01*
X19800529Y34646053D01*
X19800519Y34646061D01*
X19800518Y34646062D01*
X19800517Y34646063D01*
X19691192Y34709182D01*
X19691189Y34709183D01*
X19691187Y34709184D01*
X19673224Y34713997D01*
X19569230Y34741862D01*
X19569229Y34741862D01*
X19442975Y34741862D01*
X19328978Y34711317D01*
X19328893Y34711300D01*
X19327529Y34710934D01*
X19311334Y34707710D01*
X19295134Y34705578D01*
X19278695Y34704500D01*
X14617408Y34704500D01*
X14600966Y34705578D01*
X14584759Y34707712D01*
X14580892Y34708482D01*
X14580887Y34708443D01*
X14580854Y34708448D01*
X14576736Y34709309D01*
X14568554Y34710938D01*
X14567187Y34711305D01*
X14567119Y34711319D01*
X14453127Y34741862D01*
X14326873Y34741862D01*
X14326872Y34741862D01*
X14252233Y34721863D01*
X14252232Y34721864D01*
X14204922Y34709187D01*
X14204910Y34709182D01*
X14095584Y34646063D01*
X14095583Y34646062D01*
X14095557Y34646039D01*
X14006323Y34556805D01*
X14006300Y34556779D01*
X14006299Y34556778D01*
X13943179Y34447450D01*
X13942278Y34445061D01*
X13942127Y34443525D01*
X13910500Y34325490D01*
X13910500Y34199235D01*
X13935399Y34106308D01*
X13938115Y34096174D01*
X13943178Y34077278D01*
X13943179Y34077276D01*
X13943180Y34077274D01*
X13994300Y33988732D01*
X14007626Y33955450D01*
X14009090Y33949418D01*
X14005719Y33878502D01*
X13964543Y33820665D01*
X13898635Y33794272D01*
X13828920Y33807701D01*
X13828902Y33807710D01*
X13824643Y33809906D01*
X13793291Y33832801D01*
X13569879Y34056213D01*
X13548386Y34084924D01*
X13539221Y34101709D01*
X13523844Y34165080D01*
X13524096Y34175671D01*
X13528354Y34205280D01*
X13539500Y34246873D01*
X13539500Y34373127D01*
X13506823Y34495080D01*
X13506821Y34495083D01*
X13506821Y34495085D01*
X13506819Y34495089D01*
X13506704Y34495518D01*
X13504810Y34498567D01*
X13443698Y34604417D01*
X13443690Y34604427D01*
X13443682Y34604435D01*
X13443675Y34604443D01*
X13354441Y34693677D01*
X13354432Y34693685D01*
X13354426Y34693691D01*
X13354416Y34693699D01*
X13354415Y34693700D01*
X13354414Y34693701D01*
X13245087Y34756821D01*
X13245084Y34756822D01*
X13237880Y34758753D01*
X13230677Y34760683D01*
X13230676Y34760683D01*
X13123127Y34789500D01*
X13123125Y34789500D01*
X12996872Y34789500D01*
X12922233Y34769501D01*
X12922232Y34769502D01*
X12874922Y34756825D01*
X12874910Y34756820D01*
X12765584Y34693701D01*
X12765583Y34693700D01*
X12765557Y34693677D01*
X12676323Y34604443D01*
X12676300Y34604417D01*
X12676299Y34604416D01*
X12613180Y34495090D01*
X12613179Y34495087D01*
X12613178Y34495085D01*
X12580500Y34373126D01*
X12580500Y34373125D01*
X12580500Y34246873D01*
X12607083Y34147659D01*
X12611340Y34112050D01*
X12610962Y34096174D01*
X12589348Y34028553D01*
X12584298Y34021091D01*
X12542949Y33982592D01*
X12475578Y33943696D01*
X12475570Y33943690D01*
X12386323Y33854443D01*
X12386300Y33854417D01*
X12386299Y33854416D01*
X12323196Y33745117D01*
X12323178Y33745085D01*
X12323126Y33744890D01*
X12290500Y33623127D01*
X11076599Y33623127D01*
X11173952Y33720480D01*
X12493695Y35040224D01*
X12493701Y35040230D01*
X12560119Y35155271D01*
X12594500Y35283582D01*
X12594500Y35416419D01*
X12560119Y35544730D01*
X12560117Y35544732D01*
X12560001Y35545168D01*
X12558093Y35548240D01*
X12553371Y35556418D01*
X12493703Y35659767D01*
X12493695Y35659777D01*
X12493689Y35659783D01*
X12493680Y35659793D01*
X12399791Y35753682D01*
X12399777Y35753695D01*
X12399776Y35753696D01*
X12399766Y35753704D01*
X12319938Y35799793D01*
X12284735Y35820118D01*
X12269573Y35824181D01*
X12269572Y35824181D01*
X12156419Y35854500D01*
X12156417Y35854500D01*
X12023579Y35854500D01*
X11959424Y35837310D01*
X11959423Y35837311D01*
X11895276Y35820122D01*
X11895264Y35820117D01*
X11780231Y35753703D01*
X11780220Y35753695D01*
X11780216Y35753691D01*
X8490745Y32464217D01*
X8462040Y32442727D01*
X8438579Y32429915D01*
X8378189Y32414500D01*
X8203576Y32414500D01*
X8149351Y32399972D01*
X8149352Y32399971D01*
X8075272Y32380121D01*
X8074355Y32379706D01*
X8071757Y32378092D01*
X8049293Y32365121D01*
X8049286Y32365117D01*
X8010563Y32342762D01*
X8010564Y32342761D01*
X7963501Y32315590D01*
X7961341Y32314428D01*
X7960229Y32313701D01*
X7960219Y32313692D01*
X7960205Y32313680D01*
X6786320Y31139795D01*
X6786308Y31139781D01*
X6786299Y31139771D01*
X6785570Y31138656D01*
X6784410Y31136500D01*
X6752735Y31081635D01*
X6752733Y31081631D01*
X6719881Y31024734D01*
X6719878Y31024725D01*
X6685500Y30896419D01*
X6685500Y30386356D01*
X6679506Y30365945D01*
X1485500Y30365945D01*
X1485500Y30676462D01*
X1490602Y30711954D01*
X1498135Y30737609D01*
X1529933Y30791201D01*
X7383519Y36644787D01*
X7412222Y36666275D01*
X7435688Y36679089D01*
X7496073Y36694500D01*
X11402590Y36694500D01*
X11402591Y36694500D01*
X11525369Y36718922D01*
X11641022Y36766827D01*
X11745108Y36836375D01*
X12613625Y37704892D01*
X12625809Y37723127D01*
X12683173Y37808978D01*
X12731078Y37924631D01*
X12755500Y38047409D01*
X12755500Y40287077D01*
X13850701Y40287077D01*
X13866949Y40226440D01*
X13866955Y40226419D01*
X13883381Y40165114D01*
X13946501Y40055788D01*
X13946502Y40055787D01*
X13946503Y40055786D01*
X13946511Y40055776D01*
X13946517Y40055770D01*
X13946525Y40055761D01*
X14035774Y39966512D01*
X14035780Y39966508D01*
X14035782Y39966506D01*
X14035783Y39966505D01*
X14035785Y39966504D01*
X14036486Y39965999D01*
X14039052Y39964618D01*
X14141634Y39905392D01*
X14144684Y39903497D01*
X14145120Y39903381D01*
X14145122Y39903379D01*
X14267075Y39870702D01*
X14267077Y39870702D01*
X14393327Y39870702D01*
X14393329Y39870702D01*
X14515282Y39903379D01*
X14515285Y39903381D01*
X14515286Y39903381D01*
X14515288Y39903383D01*
X14515716Y39903497D01*
X14518752Y39905383D01*
X14622481Y39965270D01*
X14624622Y39966506D01*
X14713898Y40055782D01*
X14745461Y40110452D01*
X14777023Y40165118D01*
X14777023Y40165119D01*
X14777025Y40165122D01*
X14809632Y40286817D01*
X14816101Y40305155D01*
X14830082Y40336759D01*
X14856210Y40374873D01*
X15117127Y40635790D01*
X15145829Y40657277D01*
X15169298Y40670091D01*
X15229677Y40685500D01*
X16219723Y40685500D01*
X16255215Y40680398D01*
X16266246Y40677159D01*
X16325971Y40638777D01*
X16355465Y40574197D01*
X16345363Y40503923D01*
X16345359Y40503914D01*
X16340812Y40493959D01*
X16328339Y40472959D01*
X16328384Y40472929D01*
X16327765Y40471993D01*
X16327010Y40470720D01*
X16326304Y40469780D01*
X16326298Y40469770D01*
X16259882Y40354735D01*
X16259880Y40354730D01*
X16241754Y40287078D01*
X16225501Y40226420D01*
X16225501Y40093581D01*
X16235628Y40055786D01*
X16259685Y39965999D01*
X16259881Y39965270D01*
X16295546Y39903497D01*
X16295612Y39903383D01*
X16295613Y39903381D01*
X16326301Y39850226D01*
X22070217Y34106310D01*
X22070220Y34106308D01*
X22070222Y34106306D01*
X22070227Y34106302D01*
X22070230Y34106299D01*
X22120490Y34077282D01*
X22185270Y34039881D01*
X22313581Y34005500D01*
X22313582Y34005500D01*
X22313583Y34005500D01*
X22576417Y34005500D01*
X22576419Y34005500D01*
X22704730Y34039881D01*
X22819770Y34106300D01*
X22913700Y34200230D01*
X22953340Y34268890D01*
X22975495Y34297063D01*
X22985710Y34306803D01*
X23048809Y34339334D01*
X23119482Y34332587D01*
X23127512Y34329372D01*
X23169772Y34301495D01*
X23814892Y33656375D01*
X23918978Y33586827D01*
X24034631Y33538922D01*
X24157409Y33514500D01*
X24157410Y33514500D01*
X24282590Y33514500D01*
X24282591Y33514500D01*
X24405369Y33538922D01*
X24521022Y33586827D01*
X24625108Y33656375D01*
X24713625Y33744892D01*
X24783173Y33848978D01*
X24831078Y33964631D01*
X24855500Y34087409D01*
X24855500Y34212591D01*
X24831078Y34335369D01*
X24783173Y34451022D01*
X24713625Y34555108D01*
X22815606Y36453127D01*
X25030500Y36453127D01*
X25030500Y36326873D01*
X25059317Y36219325D01*
X25063178Y36204917D01*
X25063179Y36204913D01*
X25126299Y36095586D01*
X25126300Y36095585D01*
X25126301Y36095584D01*
X25126309Y36095574D01*
X25182301Y36039582D01*
X25203792Y36010874D01*
X25211406Y35996930D01*
X25226497Y35927558D01*
X25226366Y35925726D01*
X25206687Y35866595D01*
X25202438Y35859983D01*
X25185533Y35839006D01*
X25146319Y35799793D01*
X25146296Y35799768D01*
X25146296Y35799767D01*
X25146295Y35799766D01*
X25079882Y35684735D01*
X25079879Y35684727D01*
X25076210Y35671031D01*
X25076210Y35671029D01*
X25046924Y35561731D01*
X25046922Y35561726D01*
X25045500Y35556420D01*
X25045500Y35466356D01*
X25039506Y35445945D01*
X25079879Y35295274D01*
X25079880Y35295271D01*
X25079881Y35295270D01*
X25146297Y35180234D01*
X25146305Y35180224D01*
X25146311Y35180218D01*
X25146319Y35180209D01*
X25240219Y35086309D01*
X25240233Y35086298D01*
X25306801Y35047865D01*
X25355270Y35019881D01*
X25414308Y35004062D01*
X25447270Y34989947D01*
X25470096Y34976034D01*
X25513636Y34931445D01*
X25566295Y34840236D01*
X25566296Y34840235D01*
X25566297Y34840234D01*
X25566305Y34840224D01*
X25566311Y34840218D01*
X25566319Y34840209D01*
X25660222Y34746306D01*
X25660228Y34746302D01*
X25660230Y34746300D01*
X25660231Y34746299D01*
X25660233Y34746298D01*
X25660936Y34745791D01*
X25663499Y34744412D01*
X25667916Y34741862D01*
X25704862Y34720532D01*
X25704864Y34720530D01*
X25775264Y34679884D01*
X25775267Y34679883D01*
X25775270Y34679881D01*
X25903581Y34645500D01*
X25903583Y34645500D01*
X26036417Y34645500D01*
X26036419Y34645500D01*
X26164730Y34679881D01*
X26279770Y34746300D01*
X26373700Y34840230D01*
X26440119Y34955270D01*
X26474500Y35083581D01*
X26474500Y35600724D01*
X26479602Y35636216D01*
X26487135Y35661871D01*
X26518933Y35715463D01*
X28423694Y37620223D01*
X28423701Y37620230D01*
X28478277Y37714760D01*
X28490119Y37735270D01*
X28524500Y37863581D01*
X28524500Y38891857D01*
X28529601Y38927346D01*
X28532841Y38938380D01*
X28571220Y38998104D01*
X28635800Y39027600D01*
X28706073Y39017500D01*
X28713173Y39014257D01*
X28749922Y38988740D01*
X28850783Y38887879D01*
X28872274Y38859172D01*
X28885086Y38835710D01*
X28900500Y38775322D01*
X28900500Y38736873D01*
X28918264Y38670573D01*
X28933175Y38614924D01*
X28933180Y38614912D01*
X28996299Y38505586D01*
X28996300Y38505585D01*
X28996301Y38505584D01*
X28996309Y38505574D01*
X28996315Y38505568D01*
X28996323Y38505559D01*
X29085572Y38416310D01*
X29085578Y38416306D01*
X29085580Y38416304D01*
X29085581Y38416303D01*
X29085583Y38416302D01*
X29086284Y38415797D01*
X29088850Y38414416D01*
X29191432Y38355190D01*
X29194482Y38353295D01*
X29194918Y38353179D01*
X29194920Y38353177D01*
X29316873Y38320500D01*
X29316875Y38320500D01*
X29443125Y38320500D01*
X29443127Y38320500D01*
X29565080Y38353177D01*
X29565083Y38353179D01*
X29565084Y38353179D01*
X29565085Y38353180D01*
X29565515Y38353295D01*
X29568559Y38355186D01*
X29652542Y38403673D01*
X29674420Y38416304D01*
X29763696Y38505580D01*
X29822312Y38607107D01*
X29833302Y38623141D01*
X29847185Y38640374D01*
X29905495Y38680873D01*
X29976444Y38683418D01*
X29976449Y38683417D01*
X29981604Y38682102D01*
X30039555Y38649107D01*
X30630138Y38058524D01*
X30651628Y38029819D01*
X30657137Y38019731D01*
X30672231Y37950357D01*
X30647423Y37883836D01*
X30590589Y37841287D01*
X30590584Y37841285D01*
X30588364Y37840457D01*
X30519752Y37834934D01*
X30464152Y37845993D01*
X30464151Y37845993D01*
X30410651Y37856635D01*
X30410647Y37856635D01*
X30410645Y37856635D01*
X30303726Y37856635D01*
X30178544Y37856635D01*
X30178541Y37856635D01*
X30178539Y37856635D01*
X30113136Y37843625D01*
X30055765Y37832213D01*
X30055763Y37832213D01*
X30055761Y37832212D01*
X29940112Y37784308D01*
X29836028Y37714761D01*
X29836024Y37714759D01*
X29836018Y37714754D01*
X25616381Y33495117D01*
X25616377Y33495112D01*
X25546827Y33391023D01*
X25498923Y33275374D01*
X25498922Y33275372D01*
X25498922Y33275370D01*
X25490635Y33233711D01*
X25475042Y33155317D01*
X25474500Y33152594D01*
X25474500Y33027407D01*
X25491147Y32943717D01*
X25498922Y32904631D01*
X25546827Y32788978D01*
X25616375Y32684892D01*
X25704892Y32596375D01*
X25808978Y32526827D01*
X25924631Y32478922D01*
X26047409Y32454500D01*
X26047410Y32454500D01*
X26172590Y32454500D01*
X26172591Y32454500D01*
X26295369Y32478922D01*
X26411022Y32526827D01*
X26515108Y32596375D01*
X28807439Y34888709D01*
X28836138Y34910193D01*
X28850085Y34917808D01*
X28919437Y34932900D01*
X28921278Y34932768D01*
X28980425Y34913086D01*
X28987048Y34908829D01*
X29008007Y34891938D01*
X29090138Y34809807D01*
X29090143Y34809803D01*
X29090145Y34809801D01*
X29090146Y34809800D01*
X29090148Y34809799D01*
X29090154Y34809796D01*
X29090849Y34809294D01*
X29093415Y34807913D01*
X29195997Y34748687D01*
X29199047Y34746792D01*
X29199483Y34746676D01*
X29199485Y34746674D01*
X29321438Y34713997D01*
X29321440Y34713997D01*
X29447690Y34713997D01*
X29447692Y34713997D01*
X29569645Y34746674D01*
X29569648Y34746676D01*
X29569649Y34746676D01*
X29569649Y34746677D01*
X29570081Y34746792D01*
X29573139Y34748691D01*
X29643822Y34789500D01*
X29678985Y34809801D01*
X29768261Y34899077D01*
X29818428Y34985970D01*
X29829375Y35004932D01*
X29831270Y35007982D01*
X29831386Y35008414D01*
X29831388Y35008417D01*
X29864065Y35130370D01*
X29864065Y35202421D01*
X29869167Y35237913D01*
X29876700Y35263568D01*
X29908504Y35317167D01*
X29915630Y35324292D01*
X29928914Y35337578D01*
X29957625Y35359070D01*
X29969999Y35365827D01*
X30039373Y35380920D01*
X30105892Y35356112D01*
X30112810Y35350933D01*
X30146421Y35313064D01*
X30174999Y35263564D01*
X30178451Y35257586D01*
X30178459Y35257576D01*
X30359463Y35076572D01*
X30380953Y35047865D01*
X30396120Y35020089D01*
X30407111Y34989805D01*
X30407708Y34989964D01*
X30408775Y34985981D01*
X30408776Y34985976D01*
X30441455Y34864017D01*
X30441456Y34864014D01*
X30441458Y34864009D01*
X30504576Y34754685D01*
X30504578Y34754682D01*
X30504579Y34754681D01*
X30504587Y34754671D01*
X30504593Y34754665D01*
X30504601Y34754656D01*
X30593850Y34665407D01*
X30593856Y34665403D01*
X30593858Y34665401D01*
X30593859Y34665400D01*
X30593861Y34665399D01*
X30594562Y34664894D01*
X30597128Y34663513D01*
X30699710Y34604287D01*
X30702760Y34602392D01*
X30703196Y34602276D01*
X30703198Y34602274D01*
X30825151Y34569597D01*
X30825153Y34569597D01*
X30951403Y34569597D01*
X30951405Y34569597D01*
X31073358Y34602274D01*
X31073361Y34602276D01*
X31073362Y34602276D01*
X31073363Y34602277D01*
X31073793Y34602392D01*
X31076843Y34604286D01*
X31149186Y34646053D01*
X31182698Y34665401D01*
X31271974Y34754677D01*
X31321371Y34840236D01*
X31335099Y34864013D01*
X31335099Y34864014D01*
X31335101Y34864017D01*
X31367778Y34985970D01*
X31367778Y35112224D01*
X31335101Y35234177D01*
X31335099Y35234180D01*
X31335099Y35234182D01*
X31335097Y35234186D01*
X31334982Y35234615D01*
X31333088Y35237664D01*
X31271976Y35343514D01*
X31271968Y35343524D01*
X31271960Y35343532D01*
X31271953Y35343540D01*
X31182717Y35432776D01*
X31182708Y35432784D01*
X31182704Y35432788D01*
X31182697Y35432794D01*
X31155002Y35448784D01*
X31126813Y35470953D01*
X31117083Y35481158D01*
X31084551Y35544263D01*
X31091287Y35614901D01*
X31091902Y35616439D01*
X31126367Y35664857D01*
X31130225Y35668200D01*
X31149725Y35682087D01*
X31207430Y35715401D01*
X31296706Y35804677D01*
X31328269Y35859347D01*
X31357817Y35910525D01*
X31359715Y35913581D01*
X31359831Y35914015D01*
X31359833Y35914017D01*
X31392510Y36035970D01*
X31392510Y36162224D01*
X31359833Y36284177D01*
X31359831Y36284179D01*
X31359827Y36284197D01*
X31359791Y36284251D01*
X31296708Y36393514D01*
X31296700Y36393524D01*
X31242684Y36447540D01*
X31221194Y36476247D01*
X31213580Y36490191D01*
X31198488Y36559551D01*
X31198620Y36561391D01*
X31218299Y36620527D01*
X31222552Y36627144D01*
X31239445Y36648108D01*
X31353671Y36762332D01*
X31400341Y36843168D01*
X31424500Y36933329D01*
X31424500Y37026671D01*
X31424500Y38166671D01*
X31400341Y38256832D01*
X31400338Y38256836D01*
X31400337Y38256840D01*
X31399229Y38258759D01*
X31353677Y38337658D01*
X31353673Y38337665D01*
X31353665Y38337675D01*
X31353659Y38337681D01*
X31353650Y38337691D01*
X31282338Y38409003D01*
X31282200Y38409138D01*
X29894216Y39797123D01*
X29872723Y39825833D01*
X29859912Y39849295D01*
X29844500Y39909680D01*
X29844500Y46169666D01*
X29849603Y46205160D01*
X29850342Y46207679D01*
X29857133Y46230809D01*
X29884609Y46277105D01*
X29883789Y46277734D01*
X29888820Y46284291D01*
X29888823Y46284295D01*
X29904797Y46311965D01*
X29926623Y46349767D01*
X29937614Y46368804D01*
X29949932Y46390140D01*
X29951830Y46393196D01*
X29951946Y46393630D01*
X29951948Y46393632D01*
X29984625Y46515585D01*
X29984625Y46539600D01*
X29989726Y46575089D01*
X29992966Y46586123D01*
X30031345Y46645847D01*
X30095925Y46675343D01*
X30166198Y46665243D01*
X30173299Y46661999D01*
X30210044Y46636485D01*
X30831155Y46015375D01*
X32140832Y44705698D01*
X32140967Y44705560D01*
X33210224Y43636303D01*
X33210228Y43636301D01*
X33210230Y43636299D01*
X33296441Y43586526D01*
X33296454Y43586517D01*
X33321765Y43571904D01*
X33324369Y43570287D01*
X33325106Y43569955D01*
X33325262Y43569886D01*
X33325264Y43569884D01*
X33325267Y43569883D01*
X33325270Y43569881D01*
X33453581Y43535500D01*
X37261385Y43535500D01*
X37296877Y43530398D01*
X37312121Y43525922D01*
X37371846Y43487540D01*
X37371858Y43487526D01*
X37373063Y43486135D01*
X37400946Y43430428D01*
X37402618Y43422745D01*
X37405500Y43395952D01*
X37405500Y41316356D01*
X37399507Y41295946D01*
X37439876Y41145285D01*
X37439881Y41145269D01*
X37460441Y41109659D01*
X37491538Y41055797D01*
X37506302Y41030225D01*
X41230222Y37306305D01*
X41230228Y37306301D01*
X41230230Y37306299D01*
X41230231Y37306298D01*
X41230233Y37306297D01*
X41230934Y37305792D01*
X41233500Y37304411D01*
X41341779Y37241896D01*
X41344832Y37239999D01*
X41345268Y37239883D01*
X41345270Y37239881D01*
X41473581Y37205501D01*
X41473582Y37205501D01*
X41606416Y37205501D01*
X41606418Y37205501D01*
X41734729Y37239881D01*
X41849770Y37306299D01*
X41943701Y37400230D01*
X42010119Y37515271D01*
X42044499Y37643582D01*
X42044499Y37776419D01*
X42010119Y37904730D01*
X42010117Y37904733D01*
X42010117Y37904735D01*
X42010116Y37904737D01*
X42010000Y37905170D01*
X42008095Y37908237D01*
X41966134Y37980915D01*
X41943703Y38019767D01*
X41943695Y38019777D01*
X41943689Y38019783D01*
X41943680Y38019793D01*
X38541182Y41422290D01*
X38464216Y41499256D01*
X38461318Y41503127D01*
X39540500Y41503127D01*
X39540500Y41495740D01*
X39540500Y41376873D01*
X39554745Y41323708D01*
X39554757Y41323666D01*
X39573179Y41254912D01*
X39636299Y41145586D01*
X39636300Y41145585D01*
X39636301Y41145584D01*
X39636309Y41145574D01*
X39636315Y41145568D01*
X39636323Y41145559D01*
X39725572Y41056310D01*
X39725578Y41056306D01*
X39725580Y41056304D01*
X39725581Y41056303D01*
X39725583Y41056302D01*
X39726284Y41055797D01*
X39728850Y41054416D01*
X39831432Y40995190D01*
X39834482Y40993295D01*
X39834918Y40993179D01*
X39834920Y40993177D01*
X39956873Y40960500D01*
X39956875Y40960500D01*
X40083125Y40960500D01*
X40083127Y40960500D01*
X40205080Y40993177D01*
X40205082Y40993179D01*
X40205517Y40993295D01*
X40208573Y40995194D01*
X40269262Y41030232D01*
X40314420Y41056304D01*
X40403696Y41145580D01*
X40451621Y41228589D01*
X40466821Y41254916D01*
X40466821Y41254917D01*
X40466823Y41254920D01*
X40499500Y41376873D01*
X40499500Y41503127D01*
X40466823Y41625080D01*
X40466821Y41625083D01*
X40466821Y41625085D01*
X40466820Y41625087D01*
X40466704Y41625520D01*
X40464798Y41628589D01*
X40403834Y41734181D01*
X40395427Y41751754D01*
X40382974Y41783972D01*
X40374500Y41829399D01*
X40374500Y42283132D01*
X40750500Y42283132D01*
X40750500Y42283127D01*
X40750500Y42156873D01*
X40779317Y42049325D01*
X40783178Y42034917D01*
X40783179Y42034913D01*
X40846299Y41925586D01*
X40846300Y41925585D01*
X40846301Y41925584D01*
X40846309Y41925574D01*
X40846315Y41925568D01*
X40846323Y41925559D01*
X40935572Y41836310D01*
X40935578Y41836306D01*
X40935580Y41836304D01*
X40935581Y41836303D01*
X40935583Y41836302D01*
X40936284Y41835797D01*
X40938850Y41834416D01*
X41041432Y41775190D01*
X41044482Y41773295D01*
X41044918Y41773179D01*
X41044920Y41773177D01*
X41166873Y41740500D01*
X41166875Y41740500D01*
X41293125Y41740500D01*
X41293127Y41740500D01*
X41415080Y41773177D01*
X41415083Y41773179D01*
X41415084Y41773179D01*
X41415085Y41773180D01*
X41415515Y41773295D01*
X41418559Y41775186D01*
X41469787Y41804762D01*
X41524420Y41836304D01*
X41613696Y41925580D01*
X41676823Y42034920D01*
X41709500Y42156873D01*
X41709500Y42283127D01*
X41676823Y42405080D01*
X41676821Y42405083D01*
X41676821Y42405085D01*
X41676820Y42405087D01*
X41676704Y42405520D01*
X41674798Y42408589D01*
X41613834Y42514181D01*
X41605427Y42531754D01*
X41592974Y42563972D01*
X41584500Y42609399D01*
X41584500Y44516644D01*
X41587928Y44528323D01*
X41586767Y44540438D01*
X41589604Y44552142D01*
X41593577Y44565673D01*
X41603370Y44580913D01*
X41604502Y44584765D01*
X41607536Y44587394D01*
X41631960Y44625399D01*
X41696540Y44654892D01*
X41702466Y44655744D01*
X41753733Y44652535D01*
X41786374Y44643579D01*
X41795760Y44642103D01*
X41874791Y44620926D01*
X41874793Y44620926D01*
X41953657Y44620926D01*
X41989152Y44615823D01*
X42002688Y44611849D01*
X42062413Y44573464D01*
X42091902Y44508900D01*
X42092137Y44507267D01*
X42086493Y44448111D01*
X42084829Y44443303D01*
X42074877Y44421512D01*
X42031718Y44346758D01*
X42031360Y44345811D01*
X42030666Y44342838D01*
X41999038Y44224797D01*
X41999038Y44224796D01*
X41999038Y44098542D01*
X42007119Y44068383D01*
X42025013Y44001602D01*
X42025013Y44001601D01*
X42031715Y43976587D01*
X42031717Y43976582D01*
X42094837Y43867255D01*
X42094838Y43867254D01*
X42094839Y43867253D01*
X42094847Y43867243D01*
X42094853Y43867237D01*
X42094861Y43867228D01*
X42184110Y43777979D01*
X42184116Y43777975D01*
X42184118Y43777973D01*
X42184119Y43777972D01*
X42184121Y43777971D01*
X42184822Y43777466D01*
X42187388Y43776085D01*
X42289970Y43716859D01*
X42293020Y43714964D01*
X42293456Y43714848D01*
X42293458Y43714846D01*
X42415411Y43682169D01*
X42415413Y43682169D01*
X42541663Y43682169D01*
X42541665Y43682169D01*
X42663618Y43714846D01*
X42663621Y43714848D01*
X42663622Y43714848D01*
X42663622Y43714849D01*
X42664054Y43714964D01*
X42667110Y43716862D01*
X42718288Y43746410D01*
X42772958Y43777973D01*
X42862234Y43867249D01*
X42925361Y43976589D01*
X42958038Y44098542D01*
X42958038Y44224796D01*
X42925361Y44346749D01*
X42925359Y44346752D01*
X42925359Y44346754D01*
X42925357Y44346758D01*
X42925242Y44347189D01*
X42923336Y44350258D01*
X42862372Y44455850D01*
X42853965Y44473423D01*
X42841512Y44505641D01*
X42833038Y44551068D01*
X42833038Y45817034D01*
X42834115Y45833475D01*
X42836254Y45849721D01*
X42839468Y45865876D01*
X42854499Y45921973D01*
X42854500Y45921978D01*
X42854500Y46048229D01*
X42854500Y46048230D01*
X42821823Y46170183D01*
X42821821Y46170186D01*
X42821821Y46170188D01*
X42821819Y46170192D01*
X42821704Y46170621D01*
X42819810Y46173670D01*
X42758698Y46279520D01*
X42758690Y46279530D01*
X42758682Y46279538D01*
X42758675Y46279546D01*
X42669441Y46368780D01*
X42669432Y46368788D01*
X42669426Y46368794D01*
X42669416Y46368802D01*
X42669415Y46368803D01*
X42669414Y46368804D01*
X42560087Y46431924D01*
X42560084Y46431925D01*
X42552880Y46433856D01*
X42545677Y46435786D01*
X42545676Y46435786D01*
X42438127Y46464603D01*
X42438125Y46464603D01*
X42311872Y46464603D01*
X42237233Y46444604D01*
X42237232Y46444605D01*
X42189922Y46431928D01*
X42189910Y46431923D01*
X42080584Y46368804D01*
X42080583Y46368803D01*
X42080557Y46368780D01*
X41991323Y46279546D01*
X41991300Y46279520D01*
X41991299Y46279519D01*
X41928179Y46170191D01*
X41927823Y46169248D01*
X41927127Y46166266D01*
X41895500Y46048231D01*
X41895500Y45921973D01*
X41903372Y45892594D01*
X41903373Y45892594D01*
X41928179Y45800017D01*
X41928180Y45800014D01*
X41939910Y45779698D01*
X41953238Y45746407D01*
X41956563Y45732703D01*
X41953187Y45661787D01*
X41912007Y45603954D01*
X41912005Y45603952D01*
X41905216Y45598613D01*
X41859940Y45575949D01*
X41752833Y45547249D01*
X41643732Y45484259D01*
X41626168Y45475856D01*
X41593958Y45463403D01*
X41548524Y45454926D01*
X41516813Y45454926D01*
X41516748Y45454927D01*
X41514815Y45454927D01*
X41507097Y45454927D01*
X41413755Y45454927D01*
X41413753Y45454927D01*
X41413751Y45454927D01*
X41375257Y45444612D01*
X41375249Y45444612D01*
X41342647Y45435874D01*
X41324623Y45431043D01*
X41323657Y45430794D01*
X41323589Y45430766D01*
X41298418Y45416233D01*
X41298414Y45416232D01*
X41242759Y45384099D01*
X41242755Y45384096D01*
X41195042Y45336382D01*
X41127544Y45268883D01*
X41012332Y45153671D01*
X40979331Y45120670D01*
X40946331Y45087672D01*
X40946325Y45087665D01*
X40946321Y45087659D01*
X40899660Y45006840D01*
X40899658Y45006834D01*
X40875500Y44916679D01*
X40875500Y42613357D01*
X40870396Y42577857D01*
X40861482Y42547500D01*
X40847835Y42518308D01*
X40848369Y42518000D01*
X40783176Y42405083D01*
X40764907Y42336901D01*
X40750500Y42283132D01*
X40374500Y42283132D01*
X40374500Y46606079D01*
X40379603Y46641574D01*
X40380858Y46645847D01*
X40387133Y46667222D01*
X40418932Y46720817D01*
X40503696Y46805580D01*
X40566823Y46914920D01*
X40599500Y47036873D01*
X40599500Y47163127D01*
X40566823Y47285080D01*
X40566821Y47285083D01*
X40566821Y47285085D01*
X40566819Y47285089D01*
X40566704Y47285518D01*
X40564810Y47288567D01*
X40503698Y47394417D01*
X40503690Y47394427D01*
X40503682Y47394435D01*
X40503675Y47394443D01*
X40414441Y47483677D01*
X40414432Y47483685D01*
X40414426Y47483691D01*
X40414416Y47483699D01*
X40414415Y47483700D01*
X40414414Y47483701D01*
X40305087Y47546821D01*
X40305084Y47546822D01*
X40297880Y47548753D01*
X40290677Y47550683D01*
X40290676Y47550683D01*
X40183127Y47579500D01*
X40183125Y47579500D01*
X40056872Y47579500D01*
X39982233Y47559501D01*
X39982232Y47559502D01*
X39934922Y47546825D01*
X39934910Y47546820D01*
X39825584Y47483701D01*
X39825583Y47483700D01*
X39825557Y47483677D01*
X39736323Y47394443D01*
X39736300Y47394417D01*
X39736299Y47394416D01*
X39673179Y47285088D01*
X39672823Y47284145D01*
X39672127Y47281163D01*
X39640500Y47163128D01*
X39640500Y47036870D01*
X39643537Y47025535D01*
X39643538Y47025535D01*
X39659070Y46967568D01*
X39662285Y46951405D01*
X39664422Y46935175D01*
X39665500Y46918727D01*
X39665500Y41833357D01*
X39660396Y41797857D01*
X39651482Y41767500D01*
X39637835Y41738308D01*
X39638369Y41738000D01*
X39573179Y41625088D01*
X39572823Y41624145D01*
X39572629Y41623315D01*
X39572592Y41622953D01*
X39572349Y41621992D01*
X39540500Y41503127D01*
X38461318Y41503127D01*
X38442723Y41527966D01*
X38429912Y41551428D01*
X38414500Y41611813D01*
X38414500Y44106418D01*
X38414500Y44106419D01*
X38380119Y44234730D01*
X38352784Y44282075D01*
X38315444Y44346750D01*
X38315446Y44346752D01*
X38315435Y44346764D01*
X38313702Y44349767D01*
X38313694Y44349777D01*
X38313687Y44349784D01*
X38313679Y44349793D01*
X38219791Y44443681D01*
X38219782Y44443689D01*
X38219776Y44443695D01*
X38219766Y44443703D01*
X38191175Y44460210D01*
X38104732Y44510118D01*
X38104727Y44510120D01*
X38043853Y44526431D01*
X37976419Y44544500D01*
X37976417Y44544500D01*
X33799276Y44544500D01*
X33763775Y44549605D01*
X33738129Y44557136D01*
X33684535Y44588936D01*
X32859769Y45413702D01*
X32855369Y45418102D01*
X32855366Y45418104D01*
X32854349Y45419122D01*
X32854307Y45419163D01*
X30029776Y48243696D01*
X30029766Y48243704D01*
X29956837Y48285809D01*
X29948630Y48290548D01*
X29929095Y48301826D01*
X29922459Y48306918D01*
X29907002Y48313321D01*
X29898708Y48314412D01*
X29786419Y48344500D01*
X29786417Y48344500D01*
X28833578Y48344500D01*
X28755053Y48323461D01*
X28755054Y48323460D01*
X28705266Y48310119D01*
X28590237Y48243707D01*
X28590227Y48243700D01*
X28590207Y48243682D01*
X27886308Y47539783D01*
X27886305Y47539779D01*
X27886294Y47539763D01*
X27861128Y47496172D01*
X27858057Y47490853D01*
X27858054Y47490847D01*
X27819881Y47424734D01*
X27819878Y47424725D01*
X27785500Y47296419D01*
X27785500Y46589278D01*
X27780396Y46553779D01*
X27772866Y46528135D01*
X27741065Y46474539D01*
X27616319Y46349794D01*
X27616301Y46349774D01*
X27616298Y46349770D01*
X27616297Y46349768D01*
X27578496Y46284295D01*
X27557110Y46247253D01*
X27557109Y46247249D01*
X27549882Y46234734D01*
X27549881Y46234731D01*
X27549881Y46234730D01*
X27531537Y46166266D01*
X27522094Y46131024D01*
X27522093Y46131021D01*
X27515500Y46106418D01*
X27515500Y39843616D01*
X27510395Y39808115D01*
X27505920Y39792876D01*
X27467535Y39733150D01*
X27467525Y39733142D01*
X27466134Y39731937D01*
X27410431Y39704054D01*
X27402749Y39702382D01*
X27375952Y39699500D01*
X27326872Y39699500D01*
X27265920Y39683169D01*
X27265921Y39683168D01*
X27204910Y39666821D01*
X27095584Y39603701D01*
X27095583Y39603700D01*
X27095557Y39603677D01*
X27006323Y39514443D01*
X27006300Y39514417D01*
X27006299Y39514416D01*
X26943179Y39405088D01*
X26942823Y39404145D01*
X26942127Y39401163D01*
X26910500Y39283127D01*
X26910500Y39156873D01*
X26939317Y39049325D01*
X26943178Y39034917D01*
X26943179Y39034913D01*
X27006166Y38925817D01*
X27014569Y38908253D01*
X27027022Y38876043D01*
X27035500Y38830607D01*
X27035500Y38487145D01*
X27030395Y38451644D01*
X27022864Y38425998D01*
X26991064Y38372404D01*
X25537476Y36918817D01*
X25508769Y36897326D01*
X25480994Y36882159D01*
X25450706Y36871167D01*
X25450866Y36870570D01*
X25446882Y36869503D01*
X25446878Y36869502D01*
X25380630Y36851752D01*
X25324917Y36836823D01*
X25324910Y36836820D01*
X25215584Y36773701D01*
X25215583Y36773700D01*
X25215557Y36773677D01*
X25126323Y36684443D01*
X25126300Y36684417D01*
X25126299Y36684416D01*
X25063179Y36575088D01*
X25062823Y36574145D01*
X25062629Y36573315D01*
X25062592Y36572953D01*
X25062349Y36571992D01*
X25030500Y36453127D01*
X22815606Y36453127D01*
X21845246Y37423487D01*
X21823754Y37452196D01*
X21807610Y37481761D01*
X21794617Y37517571D01*
X21791078Y37535369D01*
X21743173Y37651022D01*
X21673625Y37755108D01*
X21585108Y37843625D01*
X21275108Y38153625D01*
X21171022Y38223173D01*
X21150190Y38231802D01*
X21055372Y38271077D01*
X21055369Y38271078D01*
X20932596Y38295500D01*
X20932593Y38295500D01*
X20932591Y38295500D01*
X20767409Y38295500D01*
X20767406Y38295500D01*
X20767404Y38295500D01*
X20688201Y38279745D01*
X20644630Y38271078D01*
X20644628Y38271078D01*
X20644626Y38271077D01*
X20528977Y38223173D01*
X20424888Y38153623D01*
X20424883Y38153619D01*
X20336381Y38065117D01*
X20336377Y38065112D01*
X20266827Y37961023D01*
X20218923Y37845374D01*
X20218922Y37845372D01*
X20218922Y37845370D01*
X20216051Y37830938D01*
X20194498Y37722587D01*
X20194262Y37720186D01*
X20189764Y37697033D01*
X20186157Y37684750D01*
X20147772Y37625025D01*
X20083190Y37595534D01*
X20012918Y37605639D01*
X20005828Y37608877D01*
X19969077Y37634395D01*
X17145878Y40457594D01*
X17124388Y40486299D01*
X17118879Y40496387D01*
X17103785Y40565761D01*
X17128593Y40632282D01*
X17185424Y40674830D01*
X17192741Y40677558D01*
X17236766Y40685500D01*
X18276645Y40685500D01*
X18312137Y40680398D01*
X18342506Y40671481D01*
X18371699Y40657831D01*
X18372009Y40658366D01*
X18375579Y40656305D01*
X18375583Y40656302D01*
X18481441Y40595185D01*
X18484483Y40593295D01*
X18484914Y40593180D01*
X18484915Y40593179D01*
X18484916Y40593179D01*
X18484917Y40593179D01*
X18484920Y40593177D01*
X18606873Y40560500D01*
X18606875Y40560500D01*
X18733125Y40560500D01*
X18733127Y40560500D01*
X18855080Y40593177D01*
X18855083Y40593179D01*
X18855084Y40593179D01*
X18855085Y40593180D01*
X18855515Y40593295D01*
X18858565Y40595189D01*
X18919066Y40630119D01*
X18964420Y40656304D01*
X19053696Y40745580D01*
X19085259Y40800250D01*
X19114807Y40851428D01*
X19116705Y40854484D01*
X19116821Y40854918D01*
X19116823Y40854920D01*
X19149500Y40976873D01*
X19149500Y41103127D01*
X19116823Y41225080D01*
X19116821Y41225083D01*
X19116821Y41225085D01*
X19116819Y41225089D01*
X19116704Y41225518D01*
X19114810Y41228567D01*
X19053698Y41334417D01*
X19053690Y41334427D01*
X19053682Y41334435D01*
X19053675Y41334443D01*
X18964441Y41423677D01*
X18964432Y41423685D01*
X18964426Y41423691D01*
X18964416Y41423699D01*
X18964415Y41423700D01*
X18964414Y41423701D01*
X18855088Y41486820D01*
X18855086Y41486821D01*
X18855084Y41486822D01*
X18855081Y41486823D01*
X18855076Y41486825D01*
X18810505Y41498768D01*
X18810505Y41498767D01*
X18733127Y41519500D01*
X18606873Y41519500D01*
X18606872Y41519500D01*
X18545767Y41503128D01*
X18545768Y41503127D01*
X18484910Y41486821D01*
X18375814Y41423833D01*
X18358250Y41415430D01*
X18326040Y41402977D01*
X18280606Y41394500D01*
X14973321Y41394500D01*
X14883171Y41370344D01*
X14857989Y41355805D01*
X14857981Y41355803D01*
X14802338Y41323677D01*
X14802334Y41323675D01*
X14802309Y41323652D01*
X14357676Y40879018D01*
X14328969Y40857527D01*
X14301196Y40842361D01*
X14270908Y40831369D01*
X14271068Y40830772D01*
X14267084Y40829705D01*
X14267080Y40829704D01*
X14200832Y40811954D01*
X14145119Y40797025D01*
X14145112Y40797022D01*
X14035786Y40733903D01*
X14035785Y40733902D01*
X14035759Y40733879D01*
X13946525Y40644645D01*
X13946502Y40644619D01*
X13946501Y40644618D01*
X13883382Y40535292D01*
X13883377Y40535280D01*
X13867758Y40476990D01*
X13867759Y40476989D01*
X13850702Y40413330D01*
X13850702Y40287078D01*
X13850701Y40287077D01*
X12755500Y40287077D01*
X12755500Y42810537D01*
X23245500Y42810537D01*
X23245500Y42589463D01*
X23280083Y42371112D01*
X23348399Y42160859D01*
X23412570Y42034916D01*
X23448766Y41963879D01*
X23577224Y41787071D01*
X23578420Y41785353D01*
X23578614Y41785121D01*
X23735117Y41628618D01*
X23735349Y41628424D01*
X23737048Y41627241D01*
X23913882Y41498764D01*
X24110859Y41398399D01*
X24321112Y41330083D01*
X24539463Y41295500D01*
X24539466Y41295500D01*
X24760534Y41295500D01*
X24760537Y41295500D01*
X24978888Y41330083D01*
X25189141Y41398399D01*
X25386118Y41498764D01*
X25564970Y41628707D01*
X25721293Y41785030D01*
X25851236Y41963882D01*
X25951601Y42160859D01*
X26019917Y42371112D01*
X26054500Y42589463D01*
X26054500Y42810537D01*
X26019917Y43028888D01*
X25951601Y43239141D01*
X25851236Y43436118D01*
X25722759Y43612952D01*
X25721576Y43614651D01*
X25721382Y43614883D01*
X25564879Y43771386D01*
X25564647Y43771580D01*
X25562929Y43772776D01*
X25386121Y43901234D01*
X25386120Y43901235D01*
X25386118Y43901236D01*
X25287021Y43951729D01*
X25206921Y43992542D01*
X25201494Y43996485D01*
X25176785Y44006720D01*
X25170159Y44007769D01*
X24979362Y44069763D01*
X24978913Y44069911D01*
X24978891Y44069916D01*
X24978888Y44069917D01*
X24972978Y44070853D01*
X24949267Y44074609D01*
X24760537Y44104500D01*
X24760535Y44104500D01*
X24539465Y44104500D01*
X24539463Y44104500D01*
X24387348Y44080408D01*
X24330904Y44071468D01*
X24323084Y44070853D01*
X24316389Y44068383D01*
X24110863Y44001604D01*
X23913874Y43901232D01*
X23737075Y43772780D01*
X23735532Y43771706D01*
X23735017Y43771284D01*
X23578716Y43614983D01*
X23578294Y43614468D01*
X23577220Y43612925D01*
X23448768Y43436126D01*
X23348397Y43239139D01*
X23280088Y43028907D01*
X23280082Y43028886D01*
X23256454Y42879701D01*
X23245500Y42810537D01*
X12755500Y42810537D01*
X12755500Y50090385D01*
X12760603Y50125879D01*
X12765077Y50141118D01*
X12803456Y50200844D01*
X12804865Y50202064D01*
X12860586Y50229951D01*
X12868270Y50231622D01*
X12895048Y50234500D01*
X19006462Y50234500D01*
X19041959Y50229397D01*
X19063354Y50223114D01*
X19067605Y50221866D01*
X19121202Y50190065D01*
X23974892Y45336375D01*
X24078978Y45266827D01*
X24194631Y45218922D01*
X24317409Y45194500D01*
X24317410Y45194500D01*
X24442590Y45194500D01*
X24442591Y45194500D01*
X24565368Y45218922D01*
X24681021Y45266827D01*
X24785108Y45336375D01*
X24873625Y45424892D01*
X24943173Y45528979D01*
X24991078Y45644632D01*
X25015500Y45767409D01*
X25015500Y45892591D01*
X25015500Y45892594D01*
X25005113Y45944807D01*
X24991078Y46015369D01*
X24943173Y46131022D01*
X24873625Y46235108D01*
X24483007Y46625726D01*
X24461514Y46654436D01*
X24455613Y46665242D01*
X24453900Y46668380D01*
X24438809Y46737752D01*
X24438940Y46739584D01*
X24458620Y46798715D01*
X24462871Y46805330D01*
X24479770Y46826302D01*
X28619256Y50965787D01*
X28647959Y50987275D01*
X28671425Y51000089D01*
X28731810Y51015500D01*
X28946419Y51015500D01*
X29034379Y51039071D01*
X29050549Y51042286D01*
X29066789Y51044423D01*
X29083227Y51045500D01*
X29446417Y51045500D01*
X29446419Y51045500D01*
X29574730Y51079881D01*
X29689770Y51146300D01*
X29783700Y51240230D01*
X29850119Y51355270D01*
X29884500Y51483581D01*
X29884500Y51616419D01*
X29850119Y51744730D01*
X29850116Y51744736D01*
X29809470Y51815136D01*
X29783703Y51859766D01*
X29783702Y51859767D01*
X29783694Y51859777D01*
X29783686Y51859785D01*
X29783679Y51859793D01*
X29689791Y51953681D01*
X29689782Y51953689D01*
X29689776Y51953695D01*
X29689766Y51953703D01*
X29641054Y51981827D01*
X29574732Y52020118D01*
X29574731Y52020119D01*
X29574730Y52020119D01*
X29574723Y52020121D01*
X29542358Y52028794D01*
X29542358Y52028793D01*
X29446419Y52054500D01*
X29446417Y52054500D01*
X28843582Y52054500D01*
X28843581Y52054500D01*
X28801127Y52043125D01*
X28758673Y52031749D01*
X28758659Y52031745D01*
X28755601Y52030926D01*
X28739452Y52027715D01*
X28723215Y52025578D01*
X28706775Y52024500D01*
X28393581Y52024500D01*
X28322900Y52005561D01*
X28322891Y52005562D01*
X28269188Y51991171D01*
X28265710Y51990358D01*
X28265305Y51990140D01*
X28265140Y51990051D01*
X28253516Y51983830D01*
X28250904Y51981827D01*
X28150233Y51923703D01*
X28150232Y51923702D01*
X28150227Y51923699D01*
X28150207Y51923681D01*
X23769537Y47543009D01*
X23740827Y47521516D01*
X23726883Y47513902D01*
X23657511Y47498811D01*
X23655679Y47498942D01*
X23596548Y47518622D01*
X23589933Y47522873D01*
X23568956Y47539777D01*
X19745110Y51363623D01*
X19745108Y51363625D01*
X19641022Y51433173D01*
X19525374Y51481076D01*
X19525372Y51481077D01*
X19525362Y51481080D01*
X19512786Y51483582D01*
X19512786Y51483581D01*
X19402596Y51505500D01*
X19402593Y51505500D01*
X19402591Y51505500D01*
X17226120Y51505500D01*
X17190620Y51510605D01*
X17177340Y51514504D01*
X17117616Y51552890D01*
X17088125Y51617472D01*
X17095182Y51680476D01*
X17098190Y51688325D01*
X17111077Y51713233D01*
X17123709Y51732138D01*
X17208322Y51858769D01*
X17279973Y52031749D01*
X17316500Y52215384D01*
X17316500Y52263127D01*
X22990500Y52263127D01*
X22990500Y52136873D01*
X23012570Y52054506D01*
X23012572Y52054500D01*
X23012572Y52054499D01*
X23023177Y52014918D01*
X23023179Y52014913D01*
X23086299Y51905586D01*
X23086300Y51905585D01*
X23086301Y51905584D01*
X23086309Y51905574D01*
X23086315Y51905568D01*
X23086323Y51905559D01*
X23175572Y51816310D01*
X23175578Y51816306D01*
X23175580Y51816304D01*
X23175581Y51816303D01*
X23175583Y51816302D01*
X23176284Y51815797D01*
X23178850Y51814416D01*
X23281432Y51755190D01*
X23284482Y51753295D01*
X23284918Y51753179D01*
X23284920Y51753177D01*
X23406873Y51720500D01*
X23406875Y51720500D01*
X23533127Y51720500D01*
X23540800Y51720500D01*
X23550847Y51723192D01*
X23560191Y51724422D01*
X23576635Y51725500D01*
X26386645Y51725500D01*
X26422137Y51720398D01*
X26452506Y51711481D01*
X26481699Y51697831D01*
X26482009Y51698366D01*
X26485579Y51696305D01*
X26485583Y51696302D01*
X26591441Y51635185D01*
X26594483Y51633295D01*
X26594914Y51633180D01*
X26594915Y51633179D01*
X26594916Y51633179D01*
X26594917Y51633179D01*
X26594920Y51633177D01*
X26716873Y51600500D01*
X26716875Y51600500D01*
X26843125Y51600500D01*
X26843127Y51600500D01*
X26965080Y51633177D01*
X26965083Y51633179D01*
X26965084Y51633179D01*
X26965084Y51633180D01*
X26965516Y51633295D01*
X26968572Y51635193D01*
X27019750Y51664741D01*
X27074420Y51696304D01*
X27163696Y51785580D01*
X27226823Y51894920D01*
X27259500Y52016873D01*
X27259500Y52143127D01*
X27226823Y52265080D01*
X27226821Y52265083D01*
X27226821Y52265085D01*
X27226819Y52265089D01*
X27226704Y52265518D01*
X27224810Y52268567D01*
X27163698Y52374417D01*
X27163690Y52374427D01*
X27163682Y52374435D01*
X27163675Y52374443D01*
X27074441Y52463677D01*
X27074432Y52463685D01*
X27074426Y52463691D01*
X27074416Y52463699D01*
X27074415Y52463700D01*
X27074414Y52463701D01*
X26965087Y52526821D01*
X26965084Y52526822D01*
X26957880Y52528753D01*
X26950677Y52530683D01*
X26950676Y52530683D01*
X26843127Y52559500D01*
X26843125Y52559500D01*
X26716872Y52559500D01*
X26642233Y52539501D01*
X26642232Y52539502D01*
X26594922Y52526825D01*
X26594910Y52526820D01*
X26485814Y52463833D01*
X26468250Y52455430D01*
X26436040Y52442977D01*
X26390606Y52434500D01*
X23979152Y52434500D01*
X23943652Y52439605D01*
X23930351Y52443511D01*
X23925305Y52444992D01*
X23869619Y52478935D01*
X23839552Y52510467D01*
X23839170Y52510612D01*
X23826185Y52521933D01*
X23764441Y52583677D01*
X23764432Y52583685D01*
X23764426Y52583691D01*
X23764416Y52583699D01*
X23764415Y52583700D01*
X23764414Y52583701D01*
X23655087Y52646821D01*
X23655084Y52646822D01*
X23647880Y52648753D01*
X23640677Y52650683D01*
X23640676Y52650683D01*
X23533127Y52679500D01*
X23533125Y52679500D01*
X23406872Y52679500D01*
X23332233Y52659501D01*
X23332232Y52659502D01*
X23284922Y52646825D01*
X23284910Y52646820D01*
X23175584Y52583701D01*
X23175583Y52583700D01*
X23175557Y52583677D01*
X23086323Y52494443D01*
X23086300Y52494417D01*
X23086299Y52494416D01*
X23023177Y52385085D01*
X23023175Y52385081D01*
X23020581Y52375398D01*
X23020553Y52375288D01*
X23020320Y52374417D01*
X22990500Y52263127D01*
X17316500Y52263127D01*
X17316500Y52402616D01*
X17279973Y52586251D01*
X17208322Y52759231D01*
X17104302Y52914908D01*
X16971908Y53047302D01*
X16816231Y53151322D01*
X16643256Y53222971D01*
X16643254Y53222972D01*
X16643251Y53222973D01*
X16459620Y53259500D01*
X16459618Y53259500D01*
X16459616Y53259500D01*
X16272384Y53259500D01*
X16272381Y53259500D01*
X16272378Y53259500D01*
X16162797Y53237703D01*
X16088748Y53222973D01*
X16088745Y53222973D01*
X16088745Y53222972D01*
X15915767Y53151321D01*
X15760088Y53047300D01*
X15760083Y53047296D01*
X15627704Y52914917D01*
X15627700Y52914912D01*
X15627695Y52914904D01*
X15523678Y52759231D01*
X15452029Y52586257D01*
X15452027Y52586252D01*
X15440206Y52526825D01*
X15415500Y52402622D01*
X15415500Y52215379D01*
X15447500Y52054506D01*
X15447502Y52054500D01*
X15452027Y52031749D01*
X15523260Y51859777D01*
X15523679Y51858767D01*
X15552054Y51816301D01*
X15618695Y51716565D01*
X15634171Y51684219D01*
X15638308Y51671010D01*
X15639576Y51600025D01*
X15602266Y51539623D01*
X15545961Y51510485D01*
X15539749Y51509075D01*
X15537774Y51508627D01*
X15509881Y51505500D01*
X12057404Y51505500D01*
X11976289Y51489365D01*
X11934630Y51481078D01*
X11934628Y51481078D01*
X11934626Y51481077D01*
X11818977Y51433173D01*
X11714888Y51363623D01*
X11714883Y51363619D01*
X11626381Y51275117D01*
X11626377Y51275112D01*
X11556827Y51171023D01*
X11508923Y51055374D01*
X11508922Y51055372D01*
X11508922Y51055370D01*
X11500991Y51015501D01*
X11484500Y50932596D01*
X11484500Y38443539D01*
X11479396Y38408042D01*
X11477302Y38400908D01*
X11473507Y38387984D01*
X11435122Y38328258D01*
X11413002Y38312900D01*
X11411614Y38312142D01*
X11342241Y38297047D01*
X11275719Y38321854D01*
X11233170Y38378687D01*
X11233167Y38378695D01*
X11230444Y38385996D01*
X11222500Y38430027D01*
X11222500Y54016419D01*
X24045501Y54016419D01*
X24045501Y53883581D01*
X24058898Y53833583D01*
X24061887Y53822425D01*
X24061888Y53822422D01*
X24079879Y53755275D01*
X24079882Y53755267D01*
X24132263Y53664541D01*
X24146301Y53640226D01*
X24290223Y53496304D01*
X24290227Y53496302D01*
X24290230Y53496299D01*
X24334916Y53470500D01*
X24405270Y53429881D01*
X24533581Y53395500D01*
X24533582Y53395500D01*
X24533583Y53395500D01*
X29466417Y53395500D01*
X29466419Y53395500D01*
X29594730Y53429881D01*
X29709770Y53496300D01*
X29803700Y53590230D01*
X29870119Y53705270D01*
X29904500Y53833581D01*
X29904500Y53966419D01*
X29870119Y54094730D01*
X29803700Y54209770D01*
X29803698Y54209772D01*
X29803694Y54209777D01*
X29803691Y54209781D01*
X29709791Y54303681D01*
X29709782Y54303689D01*
X29709776Y54303695D01*
X29709766Y54303703D01*
X29623177Y54353695D01*
X29594732Y54370118D01*
X29594727Y54370120D01*
X29560347Y54379332D01*
X29466419Y54404500D01*
X29466417Y54404500D01*
X24822135Y54404500D01*
X24789521Y54408794D01*
X24753033Y54418572D01*
X24715008Y54428762D01*
X24706320Y54430411D01*
X24616419Y54454499D01*
X24483581Y54454499D01*
X24483580Y54454499D01*
X24419425Y54437309D01*
X24355270Y54420120D01*
X24355265Y54420118D01*
X24240232Y54353703D01*
X24240220Y54353695D01*
X24146305Y54259780D01*
X24146297Y54259768D01*
X24079883Y54144737D01*
X24079881Y54144733D01*
X24079881Y54144731D01*
X24066484Y54094731D01*
X24045501Y54016419D01*
X11222500Y54016419D01*
X11222500Y55999091D01*
X23598100Y55999091D01*
X23598100Y55867309D01*
X23612137Y55814920D01*
X23632206Y55740018D01*
X23632207Y55740017D01*
X23632210Y55740010D01*
X23698097Y55625890D01*
X23698105Y55625880D01*
X23698111Y55625874D01*
X23698119Y55625865D01*
X23791275Y55532709D01*
X23791279Y55532706D01*
X23791284Y55532702D01*
X23791286Y55532700D01*
X23905414Y55466808D01*
X24032708Y55432700D01*
X24032710Y55432700D01*
X24164490Y55432700D01*
X24164492Y55432700D01*
X24291786Y55466808D01*
X24405914Y55532700D01*
X24499100Y55625886D01*
X24564992Y55740014D01*
X24599100Y55867308D01*
X24599100Y55999092D01*
X24581942Y56063127D01*
X26270500Y56063127D01*
X26270500Y56055740D01*
X26270500Y55936873D01*
X26289138Y55867311D01*
X26303175Y55814924D01*
X26303180Y55814912D01*
X26366299Y55705586D01*
X26366300Y55705585D01*
X26366301Y55705584D01*
X26366309Y55705574D01*
X26366315Y55705568D01*
X26366323Y55705559D01*
X26455572Y55616310D01*
X26455578Y55616306D01*
X26455580Y55616304D01*
X26455581Y55616303D01*
X26455583Y55616302D01*
X26456284Y55615797D01*
X26458850Y55614416D01*
X26561432Y55555190D01*
X26564482Y55553295D01*
X26564918Y55553179D01*
X26564920Y55553177D01*
X26686873Y55520500D01*
X26686875Y55520500D01*
X26813125Y55520500D01*
X26813127Y55520500D01*
X26935080Y55553177D01*
X26935083Y55553179D01*
X26935084Y55553179D01*
X26935084Y55553180D01*
X26935516Y55553295D01*
X26938572Y55555193D01*
X26989750Y55584741D01*
X27044186Y55616169D01*
X27061739Y55624567D01*
X27084694Y55633442D01*
X27093962Y55637024D01*
X27139394Y55645500D01*
X27406645Y55645500D01*
X27442137Y55640398D01*
X27472506Y55631481D01*
X27501699Y55617831D01*
X27502009Y55618366D01*
X27505579Y55616305D01*
X27505583Y55616302D01*
X27611441Y55555185D01*
X27614483Y55553295D01*
X27614914Y55553180D01*
X27614915Y55553179D01*
X27614916Y55553179D01*
X27614917Y55553179D01*
X27614920Y55553177D01*
X27736873Y55520500D01*
X27736875Y55520500D01*
X27863125Y55520500D01*
X27863127Y55520500D01*
X27985080Y55553177D01*
X27985083Y55553179D01*
X27985084Y55553179D01*
X27985084Y55553180D01*
X27985516Y55553295D01*
X27988572Y55555193D01*
X28039750Y55584741D01*
X28094420Y55616304D01*
X28183696Y55705580D01*
X28215259Y55760250D01*
X28246821Y55814916D01*
X28246821Y55814917D01*
X28246823Y55814920D01*
X28279500Y55936873D01*
X28279500Y55999091D01*
X29378100Y55999091D01*
X29378100Y55867309D01*
X29392137Y55814920D01*
X29412206Y55740018D01*
X29412207Y55740017D01*
X29412210Y55740010D01*
X29478097Y55625890D01*
X29478105Y55625880D01*
X29478111Y55625874D01*
X29478119Y55625865D01*
X29571275Y55532709D01*
X29571279Y55532706D01*
X29571284Y55532702D01*
X29571286Y55532700D01*
X29685414Y55466808D01*
X29812708Y55432700D01*
X29812710Y55432700D01*
X29944490Y55432700D01*
X29944492Y55432700D01*
X30071786Y55466808D01*
X30185914Y55532700D01*
X30279100Y55625886D01*
X30344992Y55740014D01*
X30379100Y55867308D01*
X30379100Y55999092D01*
X30344992Y56126386D01*
X30303766Y56197792D01*
X30279102Y56240511D01*
X30279091Y56240525D01*
X30185935Y56333681D01*
X30185926Y56333689D01*
X30185920Y56333695D01*
X30185910Y56333703D01*
X30185909Y56333704D01*
X30185908Y56333705D01*
X30077293Y56396413D01*
X30074123Y56398463D01*
X30072892Y56399125D01*
X30071914Y56399590D01*
X30069946Y56400086D01*
X30051675Y56404981D01*
X30037670Y56408734D01*
X30037670Y56408735D01*
X29944492Y56433700D01*
X29812708Y56433700D01*
X29812705Y56433700D01*
X29744493Y56415424D01*
X29744494Y56415423D01*
X29685416Y56399594D01*
X29685415Y56399593D01*
X29685411Y56399591D01*
X29571288Y56333703D01*
X29571263Y56333681D01*
X29478119Y56240537D01*
X29478096Y56240511D01*
X29478095Y56240510D01*
X29412214Y56126400D01*
X29412209Y56126390D01*
X29412207Y56126384D01*
X29378100Y55999091D01*
X28279500Y55999091D01*
X28279500Y56063127D01*
X28246823Y56185080D01*
X28246821Y56185083D01*
X28246821Y56185085D01*
X28183698Y56294417D01*
X28183690Y56294427D01*
X28183682Y56294435D01*
X28183675Y56294443D01*
X28094441Y56383677D01*
X28094432Y56383685D01*
X28094426Y56383691D01*
X28094416Y56383699D01*
X28094415Y56383700D01*
X28094414Y56383701D01*
X27985087Y56446821D01*
X27985084Y56446822D01*
X27977880Y56448753D01*
X27970677Y56450683D01*
X27970676Y56450683D01*
X27863127Y56479500D01*
X27863125Y56479500D01*
X27736872Y56479500D01*
X27662233Y56459501D01*
X27662232Y56459502D01*
X27614922Y56446825D01*
X27614910Y56446820D01*
X27505814Y56383833D01*
X27488250Y56375430D01*
X27456040Y56362977D01*
X27410606Y56354500D01*
X27143355Y56354500D01*
X27107854Y56359605D01*
X27077495Y56368520D01*
X27048297Y56382169D01*
X27047990Y56381636D01*
X26935087Y56446821D01*
X26935084Y56446822D01*
X26927880Y56448753D01*
X26920677Y56450683D01*
X26920676Y56450683D01*
X26813127Y56479500D01*
X26813125Y56479500D01*
X26686872Y56479500D01*
X26612233Y56459501D01*
X26612232Y56459502D01*
X26564922Y56446825D01*
X26564910Y56446820D01*
X26455584Y56383701D01*
X26455583Y56383700D01*
X26455557Y56383677D01*
X26366323Y56294443D01*
X26366300Y56294417D01*
X26366299Y56294416D01*
X26303179Y56185088D01*
X26302823Y56184145D01*
X26302629Y56183315D01*
X26302592Y56182953D01*
X26302349Y56181992D01*
X26270500Y56063127D01*
X24581942Y56063127D01*
X24564992Y56126386D01*
X24523766Y56197792D01*
X24499102Y56240511D01*
X24499091Y56240525D01*
X24405935Y56333681D01*
X24405926Y56333689D01*
X24405920Y56333695D01*
X24405910Y56333703D01*
X24405909Y56333704D01*
X24405908Y56333705D01*
X24297293Y56396413D01*
X24294123Y56398463D01*
X24292892Y56399125D01*
X24291914Y56399590D01*
X24289946Y56400086D01*
X24271675Y56404981D01*
X24257670Y56408734D01*
X24257670Y56408735D01*
X24164492Y56433700D01*
X24032708Y56433700D01*
X24032705Y56433700D01*
X23964493Y56415424D01*
X23964494Y56415423D01*
X23905416Y56399594D01*
X23905415Y56399593D01*
X23905411Y56399591D01*
X23791288Y56333703D01*
X23791263Y56333681D01*
X23698119Y56240537D01*
X23698096Y56240511D01*
X23698095Y56240510D01*
X23632214Y56126400D01*
X23632209Y56126390D01*
X23632207Y56126384D01*
X23598100Y55999091D01*
X11222500Y55999091D01*
X11222500Y59402622D01*
X15415500Y59402622D01*
X15415500Y59402619D01*
X15415500Y59402616D01*
X15415500Y59215384D01*
X15452027Y59031749D01*
X15523678Y58858769D01*
X15627698Y58703092D01*
X15760092Y58570698D01*
X15915769Y58466678D01*
X16088749Y58395027D01*
X16272384Y58358500D01*
X16272385Y58358500D01*
X16459615Y58358500D01*
X16459616Y58358500D01*
X16643251Y58395027D01*
X16816231Y58466678D01*
X16971908Y58570698D01*
X17104302Y58703092D01*
X17208322Y58858769D01*
X17279973Y59031749D01*
X17316500Y59215384D01*
X17316500Y59402616D01*
X17279973Y59586251D01*
X17208322Y59759231D01*
X17104302Y59914908D01*
X16971908Y60047302D01*
X16816231Y60151322D01*
X16643256Y60222971D01*
X16643254Y60222972D01*
X16643251Y60222973D01*
X16459620Y60259500D01*
X16459618Y60259500D01*
X16459616Y60259500D01*
X16272384Y60259500D01*
X16272381Y60259500D01*
X16272378Y60259500D01*
X16162797Y60237703D01*
X16088748Y60222973D01*
X16088745Y60222973D01*
X16088745Y60222972D01*
X15915767Y60151321D01*
X15760088Y60047300D01*
X15760083Y60047296D01*
X15627704Y59914917D01*
X15627700Y59914912D01*
X15523679Y59759233D01*
X15452028Y59586255D01*
X15415500Y59402622D01*
X11222500Y59402622D01*
X11222500Y61155385D01*
X11227603Y61190879D01*
X11232077Y61206118D01*
X11270456Y61265844D01*
X11271865Y61267064D01*
X11327586Y61294951D01*
X11335270Y61296622D01*
X11362048Y61299500D01*
X42755385Y61299500D01*
X42790877Y61294398D01*
G37*
%TD.AperFunction*%
%TD*%
%TA.AperFunction,Conductor*%
%TO.N,/SHIELD*%
G36*
X10462651Y61279498D02*
G01*
X10509144Y61225842D01*
X10520524Y61172433D01*
X10437666Y51395028D01*
X10334559Y39228432D01*
X10313981Y39160483D01*
X10259933Y39114447D01*
X10208564Y39103500D01*
X172144Y39103500D01*
X104023Y39123502D01*
X57530Y39177158D01*
X46145Y39229144D01*
X11778Y51395030D01*
X8932Y52402619D01*
X4747500Y52402619D01*
X4747500Y52402616D01*
X4747500Y52215384D01*
X4784027Y52031749D01*
X4855678Y51858769D01*
X4959698Y51703092D01*
X5092092Y51570698D01*
X5247769Y51466678D01*
X5420749Y51395027D01*
X5604384Y51358500D01*
X5604385Y51358500D01*
X5791615Y51358500D01*
X5791616Y51358500D01*
X5975251Y51395027D01*
X6148231Y51466678D01*
X6303908Y51570698D01*
X6436302Y51703092D01*
X6540322Y51858769D01*
X6611973Y52031749D01*
X6648500Y52215384D01*
X6648500Y52402616D01*
X6611973Y52586251D01*
X6540322Y52759231D01*
X6436302Y52914908D01*
X6303908Y53047302D01*
X6148231Y53151322D01*
X5975251Y53222973D01*
X5791618Y53259500D01*
X5791616Y53259500D01*
X5604384Y53259500D01*
X5604381Y53259500D01*
X5420748Y53222973D01*
X5420743Y53222971D01*
X5247769Y53151322D01*
X5092096Y53047305D01*
X5092089Y53047300D01*
X4959700Y52914911D01*
X4959695Y52914904D01*
X4855678Y52759231D01*
X4784029Y52586257D01*
X4784027Y52586252D01*
X4747500Y52402619D01*
X8932Y52402619D01*
X-10842Y59402619D01*
X4747500Y59402619D01*
X4747500Y59402616D01*
X4747500Y59215384D01*
X4784027Y59031749D01*
X4855678Y58858769D01*
X4959698Y58703092D01*
X5092092Y58570698D01*
X5247769Y58466678D01*
X5420749Y58395027D01*
X5604384Y58358500D01*
X5604385Y58358500D01*
X5791615Y58358500D01*
X5791616Y58358500D01*
X5975251Y58395027D01*
X6148231Y58466678D01*
X6303908Y58570698D01*
X6436302Y58703092D01*
X6540322Y58858769D01*
X6611973Y59031749D01*
X6648500Y59215384D01*
X6648500Y59402616D01*
X6611973Y59586251D01*
X6540322Y59759231D01*
X6436302Y59914908D01*
X6303908Y60047302D01*
X6148231Y60151322D01*
X5975251Y60222973D01*
X5791618Y60259500D01*
X5791616Y60259500D01*
X5604384Y60259500D01*
X5604381Y60259500D01*
X5420748Y60222973D01*
X5420743Y60222971D01*
X5247769Y60151322D01*
X5092096Y60047305D01*
X5092089Y60047300D01*
X4959700Y59914911D01*
X4959695Y59914904D01*
X4855678Y59759231D01*
X4784029Y59586257D01*
X4784027Y59586252D01*
X4747500Y59402619D01*
X-10842Y59402619D01*
X-15844Y61173146D01*
X3965Y61241321D01*
X57489Y61287965D01*
X110155Y61299500D01*
X10394530Y61299500D01*
X10462651Y61279498D01*
G37*
%TD.AperFunction*%
%TD*%
M02*
