%TF.GenerationSoftware,KiCad,Pcbnew,10.0.5*%
%TF.CreationDate,2026-07-27T14:39:00-07:00*%
%TF.ProjectId,pygameboy,70796761-6d65-4626-9f79-2e6b69636164,rev?*%
%TF.SameCoordinates,Original*%
%TF.FileFunction,Paste,Top*%
%TF.FilePolarity,Positive*%
%FSLAX46Y46*%
G04 Gerber Fmt 4.6, Leading zero omitted, Abs format (unit mm)*
G04 Created by KiCad (PCBNEW 10.0.5) date 2026-07-27 14:39:00*
%MOMM*%
%LPD*%
G01*
G04 APERTURE LIST*
G04 Aperture macros list*
%AMRoundRect*
0 Rectangle with rounded corners*
0 $1 Rounding radius*
0 $2 $3 $4 $5 $6 $7 $8 $9 X,Y pos of 4 corners*
0 Add a 4 corners polygon primitive as box body*
4,1,4,$2,$3,$4,$5,$6,$7,$8,$9,$2,$3,0*
0 Add four circle primitives for the rounded corners*
1,1,$1+$1,$2,$3*
1,1,$1+$1,$4,$5*
1,1,$1+$1,$6,$7*
1,1,$1+$1,$8,$9*
0 Add four rect primitives between the rounded corners*
20,1,$1+$1,$2,$3,$4,$5,0*
20,1,$1+$1,$4,$5,$6,$7,0*
20,1,$1+$1,$6,$7,$8,$9,0*
20,1,$1+$1,$8,$9,$2,$3,0*%
%AMRotRect*
0 Rectangle, with rotation*
0 The origin of the aperture is its center*
0 $1 length*
0 $2 width*
0 $3 Rotation angle, in degrees counterclockwise*
0 Add horizontal line*
21,1,$1,$2,0,0,$3*%
%AMOutline4P*
0 Free polygon, 4 corners , with rotation*
0 The origin of the aperture is its center*
0 number of corners: always 4*
0 $1 to $8 corner X, Y*
0 $9 Rotation angle, in degrees counterclockwise*
0 create outline with 4 corners*
4,1,4,$1,$2,$3,$4,$5,$6,$7,$8,$1,$2,$9*%
G04 Aperture macros list end*
%ADD10RotRect,0.700000X1.700000X45.000000*%
%ADD11RoundRect,0.150000X-0.150000X-0.625000X0.150000X-0.625000X0.150000X0.625000X-0.150000X0.625000X0*%
%ADD12RoundRect,0.250000X-0.350000X-0.650000X0.350000X-0.650000X0.350000X0.650000X-0.350000X0.650000X0*%
%ADD13RoundRect,0.225000X-0.375000X0.225000X-0.375000X-0.225000X0.375000X-0.225000X0.375000X0.225000X0*%
%ADD14RoundRect,0.225000X-0.225000X-0.375000X0.225000X-0.375000X0.225000X0.375000X-0.225000X0.375000X0*%
%ADD15R,0.700000X0.700000*%
%ADD16R,1.250000X0.900000*%
%ADD17R,0.900000X1.250000*%
%ADD18RoundRect,0.150000X-0.200000X0.150000X-0.200000X-0.150000X0.200000X-0.150000X0.200000X0.150000X0*%
%ADD19RoundRect,0.150000X-0.150000X-0.200000X0.150000X-0.200000X0.150000X0.200000X-0.150000X0.200000X0*%
%ADD20RoundRect,0.135000X0.135000X0.185000X-0.135000X0.185000X-0.135000X-0.185000X0.135000X-0.185000X0*%
%ADD21RoundRect,0.135000X-0.135000X-0.185000X0.135000X-0.185000X0.135000X0.185000X-0.135000X0.185000X0*%
%ADD22RoundRect,0.135000X0.185000X-0.135000X0.185000X0.135000X-0.185000X0.135000X-0.185000X-0.135000X0*%
%ADD23RoundRect,0.140000X-0.021213X0.219203X-0.219203X0.021213X0.021213X-0.219203X0.219203X-0.021213X0*%
%ADD24RoundRect,0.140000X0.140000X0.170000X-0.140000X0.170000X-0.140000X-0.170000X0.140000X-0.170000X0*%
%ADD25RoundRect,0.249999X-0.640001X0.750001X-0.640001X-0.750001X0.640001X-0.750001X0.640001X0.750001X0*%
%ADD26RoundRect,0.218750X-0.256250X0.218750X-0.256250X-0.218750X0.256250X-0.218750X0.256250X0.218750X0*%
%ADD27RoundRect,0.150000X0.150000X0.420000X-0.150000X0.420000X-0.150000X-0.420000X0.150000X-0.420000X0*%
%ADD28RoundRect,0.075000X0.075000X0.495000X-0.075000X0.495000X-0.075000X-0.495000X0.075000X-0.495000X0*%
%ADD29R,2.500000X1.200000*%
%ADD30RoundRect,0.225000X-0.335876X-0.017678X-0.017678X-0.335876X0.335876X0.017678X0.017678X0.335876X0*%
%ADD31RoundRect,0.135000X0.035355X-0.226274X0.226274X-0.035355X-0.035355X0.226274X-0.226274X0.035355X0*%
%ADD32RoundRect,0.150000X-0.256326X-0.468458X0.468458X0.256326X0.256326X0.468458X-0.468458X-0.256326X0*%
%ADD33RoundRect,0.100000X0.100000X-0.637500X0.100000X0.637500X-0.100000X0.637500X-0.100000X-0.637500X0*%
%ADD34RoundRect,0.162500X-0.825000X-0.162500X0.825000X-0.162500X0.825000X0.162500X-0.825000X0.162500X0*%
%ADD35RoundRect,0.250000X-0.512652X-0.159099X-0.159099X-0.512652X0.512652X0.159099X0.159099X0.512652X0*%
%ADD36RoundRect,0.237500X-0.237500X0.250000X-0.237500X-0.250000X0.237500X-0.250000X0.237500X0.250000X0*%
%ADD37RotRect,0.470000X0.530000X45.000000*%
%ADD38RoundRect,0.132500X0.000000X-0.187383X0.187383X0.000000X0.000000X0.187383X-0.187383X0.000000X0*%
%ADD39RoundRect,0.050000X-0.212132X-0.282843X0.282843X0.212132X0.212132X0.282843X-0.282843X-0.212132X0*%
%ADD40RoundRect,0.050000X0.212132X-0.282843X0.282843X-0.212132X-0.212132X0.282843X-0.282843X0.212132X0*%
%ADD41RoundRect,0.140000X-0.170000X0.140000X-0.170000X-0.140000X0.170000X-0.140000X0.170000X0.140000X0*%
%ADD42RoundRect,0.140000X0.219203X0.021213X0.021213X0.219203X-0.219203X-0.021213X-0.021213X-0.219203X0*%
%ADD43R,0.500000X0.800000*%
%ADD44R,0.400000X0.800000*%
%ADD45RoundRect,0.140000X0.021213X-0.219203X0.219203X-0.021213X-0.021213X0.219203X-0.219203X0.021213X0*%
%ADD46RoundRect,0.140000X-0.219203X-0.021213X-0.021213X-0.219203X0.219203X0.021213X0.021213X0.219203X0*%
%ADD47RoundRect,0.250000X0.512652X0.159099X0.159099X0.512652X-0.512652X-0.159099X-0.159099X-0.512652X0*%
%ADD48RoundRect,0.237500X0.237500X-0.250000X0.237500X0.250000X-0.237500X0.250000X-0.237500X-0.250000X0*%
%ADD49RoundRect,0.135000X-0.035355X0.226274X-0.226274X0.035355X0.035355X-0.226274X0.226274X-0.035355X0*%
%ADD50RoundRect,0.135000X-0.226274X-0.035355X-0.035355X-0.226274X0.226274X0.035355X0.035355X0.226274X0*%
%ADD51RoundRect,0.162500X-0.344715X-0.574524X0.574524X0.344715X0.344715X0.574524X-0.574524X-0.344715X0*%
%ADD52RoundRect,0.237500X-0.237500X0.300000X-0.237500X-0.300000X0.237500X-0.300000X0.237500X0.300000X0*%
%ADD53RoundRect,0.250000X-0.070711X-0.565685X0.565685X0.070711X0.070711X0.565685X-0.565685X-0.070711X0*%
%ADD54RoundRect,0.237500X0.300000X0.237500X-0.300000X0.237500X-0.300000X-0.237500X0.300000X-0.237500X0*%
%ADD55RoundRect,0.140000X0.170000X-0.140000X0.170000X0.140000X-0.170000X0.140000X-0.170000X-0.140000X0*%
%ADD56RoundRect,0.237500X-0.250000X-0.237500X0.250000X-0.237500X0.250000X0.237500X-0.250000X0.237500X0*%
%ADD57R,0.800000X1.600000*%
%ADD58R,1.560000X0.700000*%
%ADD59R,1.800000X1.500000*%
%ADD60R,1.500000X1.000000*%
%ADD61R,1.800000X3.300000*%
%ADD62Outline4P,-0.400000X-0.350000X0.400000X-0.350000X0.900000X0.350000X-0.900000X0.350000X0.000000*%
%ADD63R,0.800000X0.500000*%
%ADD64R,0.800000X0.400000*%
%ADD65RoundRect,0.135000X-0.185000X0.135000X-0.185000X-0.135000X0.185000X-0.135000X0.185000X0.135000X0*%
%ADD66RoundRect,0.150000X0.587500X0.150000X-0.587500X0.150000X-0.587500X-0.150000X0.587500X-0.150000X0*%
G04 APERTURE END LIST*
D10*
%TO.C,L201*%
X20174039Y39085950D03*
X21163989Y40075900D03*
%TD*%
D11*
%TO.C,J14*%
X31560000Y46405000D03*
X32560000Y46405000D03*
X33560000Y46405000D03*
X34560000Y46405000D03*
D12*
X30260000Y48930000D03*
X35860000Y48930000D03*
%TD*%
D13*
%TO.C,D2*%
X1410000Y16510000D03*
X1410000Y13210000D03*
%TD*%
D14*
%TO.C,D1*%
X31430000Y52550000D03*
X34730000Y52550000D03*
%TD*%
D11*
%TO.C,J101*%
X31970000Y40995000D03*
X32970000Y40995000D03*
X33970000Y40995000D03*
D12*
X30670000Y43520000D03*
X35270000Y43520000D03*
%TD*%
D11*
%TO.C,J102*%
X44890000Y41265000D03*
X45890000Y41265000D03*
X46890000Y41265000D03*
D12*
X43590000Y43790000D03*
X48190000Y43790000D03*
%TD*%
D15*
%TO.C,D101*%
X13300000Y43835000D03*
X14400000Y43835000D03*
X14400000Y45665000D03*
X13300000Y45665000D03*
%TD*%
D16*
%TO.C,SW1*%
X46875000Y47620000D03*
X46875000Y49120000D03*
X43025000Y47620000D03*
X43025000Y49120000D03*
%TD*%
D17*
%TO.C,SW2*%
X33920000Y56795000D03*
X35420000Y56795000D03*
X33920000Y60645000D03*
X35420000Y60645000D03*
%TD*%
D18*
%TO.C,D4*%
X7970000Y45962500D03*
X7970000Y47362500D03*
%TD*%
D19*
%TO.C,D201*%
X13677500Y38400000D03*
X12277500Y38400000D03*
%TD*%
D20*
%TO.C,R7*%
X22939999Y52070000D03*
X21920001Y52070000D03*
%TD*%
D21*
%TO.C,R6*%
X15780001Y46430000D03*
X16799999Y46430000D03*
%TD*%
D22*
%TO.C,R5*%
X9440000Y46710000D03*
X9440000Y47730000D03*
%TD*%
D23*
%TO.C,C16*%
X34089411Y33599411D03*
X33410589Y32920589D03*
%TD*%
D24*
%TO.C,C17*%
X7580000Y31900000D03*
X6620000Y31900000D03*
%TD*%
D25*
%TO.C,U8*%
X7227400Y43363800D03*
X4687400Y43363800D03*
X2147400Y43363800D03*
X2147400Y33833800D03*
X4687400Y33833800D03*
X7227400Y33833800D03*
%TD*%
D20*
%TO.C,R8*%
X3369999Y31900000D03*
X2350001Y31900000D03*
%TD*%
D26*
%TO.C,D3*%
X37820000Y49607501D03*
X37820000Y48032499D03*
%TD*%
D27*
%TO.C,J4*%
X30188600Y54863200D03*
X29388600Y54863200D03*
D28*
X28238600Y54863200D03*
X27238600Y54863200D03*
X26738600Y54863200D03*
X25738600Y54863200D03*
D27*
X24588600Y54863200D03*
X23788600Y54863200D03*
X23788600Y54863200D03*
X24588600Y54863200D03*
D28*
X25238600Y54863200D03*
X26238600Y54863200D03*
X27738600Y54863200D03*
X28738600Y54863200D03*
D27*
X29388600Y54863200D03*
X30188600Y54863200D03*
%TD*%
D29*
%TO.C,J6*%
X19616000Y54709000D03*
X19616000Y57709000D03*
X13116000Y49609000D03*
X19616000Y50709000D03*
%TD*%
%TO.C,J5*%
X8948000Y54709000D03*
X8948000Y57709000D03*
X2448000Y49609000D03*
X8948000Y50709000D03*
%TD*%
D30*
%TO.C,C13*%
X23825057Y47911074D03*
X24921073Y46815058D03*
%TD*%
%TO.C,C10*%
X19371992Y43458008D03*
X20468008Y42361992D03*
%TD*%
D20*
%TO.C,R4*%
X37819999Y50920000D03*
X36800001Y50920000D03*
%TD*%
D31*
%TO.C,R1*%
X32679376Y33589376D03*
X33400624Y34310624D03*
%TD*%
D32*
%TO.C,U7*%
X25713915Y45137417D03*
X26385666Y44465666D03*
X27057417Y43793915D03*
X28666085Y45402583D03*
X27322583Y46746085D03*
%TD*%
D33*
%TO.C,U5*%
X39865000Y15615000D03*
X40515000Y15615000D03*
X41165000Y15615000D03*
X41815000Y15615000D03*
X42465000Y15615000D03*
X43115000Y15615000D03*
X43765000Y15615000D03*
X44415000Y15615000D03*
X45065000Y15615000D03*
X45715000Y15615000D03*
X46365000Y15615000D03*
X47015000Y15615000D03*
X47015000Y21340000D03*
X46365000Y21340000D03*
X45715000Y21340000D03*
X45065000Y21340000D03*
X44415000Y21340000D03*
X43765000Y21340000D03*
X43115000Y21340000D03*
X42465000Y21340000D03*
X41815000Y21340000D03*
X41165000Y21340000D03*
X40515000Y21340000D03*
X39865000Y21340000D03*
%TD*%
D34*
%TO.C,U203*%
X3602500Y30435000D03*
X3602500Y29165000D03*
X3602500Y27895000D03*
X3602500Y26625000D03*
X8677500Y26625000D03*
X8677500Y27895000D03*
X8677500Y29165000D03*
X8677500Y30435000D03*
%TD*%
D35*
%TO.C,C103*%
X20521042Y44911112D03*
X21864544Y43567610D03*
%TD*%
D36*
%TO.C,R102*%
X48100000Y34642500D03*
X48100000Y32817500D03*
%TD*%
D37*
%TO.C,C205*%
X21430418Y38091200D03*
X22158738Y38819520D03*
%TD*%
D38*
%TO.C,U202*%
X22748042Y31366190D03*
X23228874Y30885357D03*
X23709707Y30404525D03*
X24190539Y29923692D03*
X24671372Y29442860D03*
X24190539Y30885357D03*
X23228874Y31847023D03*
X23709707Y31366190D03*
X24671372Y30404525D03*
X25152205Y29923692D03*
X23709707Y32327855D03*
X24190539Y31847023D03*
X24671372Y31366190D03*
X25152205Y30885357D03*
X25633037Y30404525D03*
X24190539Y32808688D03*
X24671372Y32327855D03*
X25633037Y31366190D03*
X26113870Y30885357D03*
X25152205Y31847023D03*
X24671372Y33289520D03*
X25152205Y32808688D03*
X25633037Y32327855D03*
X26113870Y31847023D03*
X26594702Y31366190D03*
D39*
X18484188Y30553017D03*
X18767030Y30270174D03*
X19049873Y29987332D03*
X19332716Y29704489D03*
X19615559Y29421646D03*
X19898401Y29138804D03*
X20181244Y28855961D03*
X20464087Y28573118D03*
X20746929Y28290276D03*
X21029772Y28007433D03*
X21312615Y27724590D03*
X21595458Y27441747D03*
X21878300Y27158905D03*
X22161143Y26876062D03*
X22443986Y26593219D03*
X22726828Y26310377D03*
X23009671Y26027534D03*
X23292514Y25744691D03*
X23575356Y25461848D03*
X23858199Y25179006D03*
D40*
X25484545Y25179006D03*
X25767388Y25461848D03*
X26050230Y25744691D03*
X26333073Y26027534D03*
X26615916Y26310377D03*
X26898758Y26593219D03*
X27181601Y26876062D03*
X27464444Y27158905D03*
X27747286Y27441747D03*
X28030129Y27724590D03*
X28312972Y28007433D03*
X28595815Y28290276D03*
X28878657Y28573118D03*
X29161500Y28855961D03*
X29444343Y29138804D03*
X29727185Y29421646D03*
X30010028Y29704489D03*
X30292871Y29987332D03*
X30575714Y30270174D03*
X30858556Y30553017D03*
D39*
X30858556Y32179363D03*
X30575714Y32462206D03*
X30292871Y32745048D03*
X30010028Y33027891D03*
X29727185Y33310734D03*
X29444343Y33593576D03*
X29161500Y33876419D03*
X28878657Y34159262D03*
X28595815Y34442104D03*
X28312972Y34724947D03*
X28030129Y35007790D03*
X27747286Y35290633D03*
X27464444Y35573475D03*
X27181601Y35856318D03*
X26898758Y36139161D03*
X26615916Y36422003D03*
X26333073Y36704846D03*
X26050230Y36987689D03*
X25767388Y37270532D03*
X25484545Y37553374D03*
D40*
X23858199Y37553374D03*
X23575356Y37270532D03*
X23292514Y36987689D03*
X23009671Y36704846D03*
X22726828Y36422003D03*
X22443986Y36139161D03*
X22161143Y35856318D03*
X21878300Y35573475D03*
X21595458Y35290633D03*
X21312615Y35007790D03*
X21029772Y34724947D03*
X20746929Y34442104D03*
X20464087Y34159262D03*
X20181244Y33876419D03*
X19898401Y33593576D03*
X19615559Y33310734D03*
X19332716Y33027891D03*
X19049873Y32745048D03*
X18767030Y32462206D03*
X18484188Y32179363D03*
%TD*%
D41*
%TO.C,C213*%
X19430000Y23230000D03*
X19430000Y22270000D03*
%TD*%
D42*
%TO.C,C214*%
X20149411Y36070589D03*
X19470589Y36749411D03*
%TD*%
D43*
%TO.C,RN102*%
X11470000Y12930000D03*
D44*
X10670000Y12930000D03*
X9870000Y12930000D03*
D43*
X9070000Y12930000D03*
X9070000Y11130000D03*
D44*
X9870000Y11130000D03*
X10670000Y11130000D03*
D43*
X11470000Y11130000D03*
%TD*%
D35*
%TO.C,C105*%
X26473174Y50778391D03*
X27816676Y49434889D03*
%TD*%
D45*
%TO.C,C203*%
X32839587Y24751631D03*
X33518409Y25430453D03*
%TD*%
D35*
%TO.C,C104*%
X21949397Y46346538D03*
X23292899Y45003036D03*
%TD*%
D46*
%TO.C,C218*%
X27218088Y25112255D03*
X27896910Y24433433D03*
%TD*%
D41*
%TO.C,C215*%
X13650000Y23190000D03*
X13650000Y22230000D03*
%TD*%
%TO.C,C217*%
X29106062Y25528615D03*
X29106062Y24568615D03*
%TD*%
D47*
%TO.C,C207*%
X23981751Y39778249D03*
X22638249Y41121751D03*
%TD*%
D43*
%TO.C,RN103*%
X17470000Y12880000D03*
D44*
X16670000Y12880000D03*
X15870000Y12880000D03*
D43*
X15070000Y12880000D03*
X15070000Y11080000D03*
D44*
X15870000Y11080000D03*
X16670000Y11080000D03*
D43*
X17470000Y11080000D03*
%TD*%
D48*
%TO.C,R101*%
X44790000Y32817500D03*
X44790000Y34642500D03*
%TD*%
D35*
%TO.C,C208*%
X31100740Y27528368D03*
X32444242Y26184866D03*
%TD*%
D49*
%TO.C,R201*%
X11310624Y35460624D03*
X10589376Y34739376D03*
%TD*%
%TO.C,R203*%
X26150624Y41220624D03*
X25429376Y40499376D03*
%TD*%
D50*
%TO.C,R206*%
X18599376Y39080624D03*
X19320624Y38359376D03*
%TD*%
D43*
%TO.C,RN107*%
X45730000Y13680000D03*
D44*
X44930000Y13680000D03*
X44130000Y13680000D03*
D43*
X43330000Y13680000D03*
X43330000Y11880000D03*
D44*
X44130000Y11880000D03*
X44930000Y11880000D03*
D43*
X45730000Y11880000D03*
%TD*%
D20*
%TO.C,R9*%
X30140000Y52560000D03*
X29120000Y52560000D03*
%TD*%
D24*
%TO.C,C8*%
X39910000Y22940000D03*
X38950000Y22940000D03*
%TD*%
D45*
%TO.C,C211*%
X31490589Y36760589D03*
X32169411Y37439411D03*
%TD*%
D35*
%TO.C,C106*%
X24988249Y49321751D03*
X26331751Y47978249D03*
%TD*%
D46*
%TO.C,C212*%
X31960589Y32919411D03*
X32639411Y32240589D03*
%TD*%
D43*
%TO.C,RN101*%
X6580000Y12930000D03*
D44*
X5780000Y12930000D03*
X4980000Y12930000D03*
D43*
X4180000Y12930000D03*
X4180000Y11130000D03*
D44*
X4980000Y11130000D03*
X5780000Y11130000D03*
D43*
X6580000Y11130000D03*
%TD*%
D50*
%TO.C,R202*%
X30343500Y26017351D03*
X31064748Y25296103D03*
%TD*%
D45*
%TO.C,C201*%
X12040589Y36180589D03*
X12719411Y36859411D03*
%TD*%
D51*
%TO.C,U201*%
X10456216Y32310293D03*
X11354242Y31412267D03*
X12252267Y30514242D03*
X13150293Y29616216D03*
X18223784Y34689707D03*
X17325758Y35587733D03*
X16427733Y36485758D03*
X15529707Y37383784D03*
%TD*%
D23*
%TO.C,C216*%
X26889411Y40409411D03*
X26210589Y39730589D03*
%TD*%
D50*
%TO.C,R205*%
X17869376Y38340624D03*
X18590624Y37619376D03*
%TD*%
D52*
%TO.C,C101*%
X48060000Y29572500D03*
X48060000Y27847500D03*
%TD*%
D21*
%TO.C,R10*%
X22730001Y53100000D03*
X23749999Y53100000D03*
%TD*%
D41*
%TO.C,C107*%
X15840000Y45170000D03*
X15840000Y44210000D03*
%TD*%
D22*
%TO.C,R208*%
X1780000Y29390001D03*
X1780000Y30409999D03*
%TD*%
D53*
%TO.C,Y201*%
X33391129Y20890828D03*
X34946764Y22446463D03*
X33744683Y23648544D03*
X32189048Y22092909D03*
%TD*%
D31*
%TO.C,R105*%
X38429376Y45099376D03*
X39150624Y45820624D03*
%TD*%
D54*
%TO.C,C102*%
X47832500Y37440000D03*
X46107500Y37440000D03*
%TD*%
D37*
%TO.C,C204*%
X22102170Y37419449D03*
X22830490Y38147769D03*
%TD*%
D55*
%TO.C,C7*%
X33460000Y14150000D03*
X33460000Y15110000D03*
%TD*%
D23*
%TO.C,C210*%
X16739411Y31059411D03*
X16060589Y30380589D03*
%TD*%
D56*
%TO.C,R104*%
X46127500Y24780000D03*
X47952500Y24780000D03*
%TD*%
D43*
%TO.C,RN106*%
X39060000Y12840000D03*
D44*
X38260000Y12840000D03*
X37460000Y12840000D03*
D43*
X36660000Y12840000D03*
X36660000Y11040000D03*
D44*
X37460000Y11040000D03*
X38260000Y11040000D03*
D43*
X39060000Y11040000D03*
%TD*%
D21*
%TO.C,R2*%
X40350000Y26370000D03*
X41370000Y26370000D03*
%TD*%
D57*
%TO.C,J103*%
X39300000Y52530000D03*
X40400000Y52530000D03*
X41500000Y52530000D03*
X42600000Y52530000D03*
X43700000Y52530000D03*
X44800000Y52530000D03*
X45900000Y52530000D03*
X47000000Y52530000D03*
D58*
X37550000Y55640000D03*
D59*
X37870000Y54390000D03*
D60*
X38350000Y56630000D03*
D61*
X48100000Y55480000D03*
D62*
X48100000Y53480000D03*
%TD*%
D41*
%TO.C,C219*%
X1780000Y28410000D03*
X1780000Y27450000D03*
%TD*%
D31*
%TO.C,R204*%
X10489376Y36229376D03*
X11210624Y36950624D03*
%TD*%
D41*
%TO.C,C209*%
X16870000Y23220000D03*
X16870000Y22260000D03*
%TD*%
D43*
%TO.C,RN105*%
X31380000Y13570000D03*
D44*
X30580000Y13570000D03*
X29780000Y13570000D03*
D43*
X28980000Y13570000D03*
X28980000Y11770000D03*
D44*
X29780000Y11770000D03*
X30580000Y11770000D03*
D43*
X31380000Y11770000D03*
%TD*%
D63*
%TO.C,RN104*%
X20780000Y13400000D03*
D64*
X20780000Y12600000D03*
X20780000Y11800000D03*
D63*
X20780000Y11000000D03*
X22580000Y11000000D03*
D64*
X22580000Y11800000D03*
X22580000Y12600000D03*
D63*
X22580000Y13400000D03*
%TD*%
D48*
%TO.C,R103*%
X44730000Y27847500D03*
X44730000Y29672500D03*
%TD*%
D65*
%TO.C,R3*%
X40930000Y23900000D03*
X40930000Y22880000D03*
%TD*%
D66*
%TO.C,Q1*%
X41367500Y27760000D03*
X41367500Y29660000D03*
X39492500Y28710000D03*
%TD*%
D23*
%TO.C,C202*%
X31361733Y23344488D03*
X30682911Y22665666D03*
%TD*%
D45*
%TO.C,C206*%
X30770589Y37480589D03*
X31449411Y38159411D03*
%TD*%
M02*
