M48
; DRILL file KiCad 10.0.3 date 2026-06-10T16:10:21
; FORMAT={-:-/ absolute / inch / decimal}
; #@! TF.CreationDate,2026-06-10T16:10:21-07:00
; #@! TF.GenerationSoftware,Kicad,Pcbnew,10.0.3
; #@! TF.FileFunction,Plated,1,2,PTH
FMAT,2
INCH
; #@! TA.AperFunction,Plated,PTH,ViaDrill
T1C0.0118
; #@! TA.AperFunction,Plated,PTH,ComponentDrill
T2C0.0118
; #@! TA.AperFunction,Plated,PTH,ViaDrill
T3C0.0150
; #@! TA.AperFunction,Plated,PTH,ComponentDrill
T4C0.0236
%
G90
G05
T1
X0.1476Y0.9783
X0.5079Y1.5177
X0.6358Y1.437
X0.8469Y1.3941
X0.9094Y1.815
X0.9272Y1.4114
X0.9665Y2.124
X1.0256Y1.5079
X1.0295Y1.3071
X1.0531Y2.2047
X1.063Y1.8858
X1.0866Y1.8189
X1.0925Y1.6614
X1.0945Y2.2047
X1.1043Y1.7598
X1.122Y1.9626
X1.1575Y2.122
X1.1614Y1.6358
X1.2067Y1.5807
X1.2087Y1.8799
X1.25Y1.4626
X1.25Y1.435
X1.2657Y1.5531
X1.2667Y1.5066
X1.2717Y0.5492
X1.2736Y0.8543
X1.2736Y0.7539
X1.2795Y0.939
X1.2815Y1.0374
X1.2874Y1.5157
X1.3031Y1.4016
X1.3091Y1.0768
X1.3189Y0.7402
X1.3524Y1.8012
X1.3799Y0.7402
X1.439Y2.1673
X1.4449Y1.3051
X1.4457Y1.135
X1.4488Y0.7382
X1.4587Y1.6791
X1.4587Y1.6555
X1.4587Y1.4823
X1.4646Y1.0157
X1.4783Y1.4016
X1.4862Y0.5807
X1.4941Y0.752
X1.5059Y0.8031
X1.5079Y0.9252
X1.5079Y0.8681
X1.5118Y0.9764
X1.5217Y1.2441
X1.5335Y2.1673
X1.5551Y1.6673
X1.5551Y1.6437
X1.5551Y1.0413
X1.563Y1.5709
X1.5846Y1.7921
X1.5886Y2.1575
X1.5886Y1.2028
X1.5984Y2.189
X1.6142Y2.1693
X1.6378Y1.5984
X1.6437Y1.6378
X1.6457Y1.4017
X1.6633Y1.809
X1.6693Y1.4547
X1.6713Y1.6083
X1.6791Y1.1319
X1.6856Y2.1057
X1.7015Y1.3574
X1.7343Y1.3189
X1.803Y0.5615
X1.8189Y1.25
X1.8465Y0.565
X1.8504Y0.5965
X1.874Y0.5472
X1.878Y0.5807
X1.8858Y0.5236
X1.9075Y0.565
X1.9134Y0.5374
T2
X1.3335Y1.4509
X1.3335Y1.3938
X1.3335Y1.3367
X1.3906Y1.4509
X1.3906Y1.3938
X1.3906Y1.3367
X1.4477Y1.4509
X1.4477Y1.3938
X1.4477Y1.3367
T3
X0.048Y0.487
X0.1159Y0.4828
X0.175Y0.4828
X0.2341Y0.4828
X0.2618Y1.3995
X0.2931Y0.4828
X0.3522Y0.4828
X0.4112Y0.4828
X0.4703Y0.4828
X0.5293Y0.4828
X0.5884Y0.4828
X0.6474Y0.4828
X0.7065Y0.4828
X0.7656Y0.4828
X0.8246Y0.4828
X0.8837Y0.4828
X0.9427Y0.4828
X1.0018Y0.4828
X1.0608Y0.4828
X1.1199Y0.4828
X1.1789Y0.4828
X1.238Y0.4828
X1.297Y0.4828
X1.3561Y0.4828
X1.4152Y0.4828
X1.4742Y0.4828
X1.5333Y0.4828
X1.5923Y0.4828
X1.6514Y0.4828
X1.7104Y0.4828
X1.7695Y0.4828
X1.8482Y0.5123
X1.8482Y0.4729
X1.8915Y0.4847
T4
G00X0.8925Y2.3312
M15
G01X0.8925Y2.3627
M16
G05
G00X0.8925Y2.1608
M15
G01X0.8925Y2.2041
M16
G05
G00X1.2326Y2.3312
M15
G01X1.2326Y2.3627
M16
G05
G00X1.2326Y2.1608
M15
G01X1.2326Y2.2041
M16
G05
M30
